<svg width="70" height="70" viewBox="0 0 70 70" fill="none" xmlns="http://www.w3.org/2000/svg">
<path fill-rule="evenodd" clip-rule="evenodd" d="M25.3193 1.30684C27.1856 0.0171931 30.1815 -0.320679 33.1171 0.305379C35.7783 0.873101 38.3757 2.24657 41.5134 5.44827C41.9835 4.31181 42.4639 3.42179 42.9034 2.90417C43.2345 2.51427 43.7174 2.28382 44.2718 2.30944C44.753 2.33175 45.1667 2.5417 45.4771 2.75378C46.1022 3.18107 46.7337 3.90998 47.3372 4.76696C48.5895 6.54548 50.1396 9.44364 52.6093 16.6945C52.8912 17.5222 53.1832 18.4072 53.4848 19.3343C54.0013 19.6167 54.4805 19.9336 54.9107 20.2879C56.9428 21.9616 57.726 24.5182 57.0599 26.994C57.4246 27.2508 57.7462 27.5347 58.0109 27.8496C58.138 27.8716 58.2643 27.8939 58.3899 27.9157C58.9628 27.9257 59.4703 27.9998 59.8986 28.1583C59.9304 28.1701 59.962 28.183 59.9933 28.1959C60.5873 28.3001 61.1571 28.4003 61.6975 28.4967C65.2069 29.1231 67.4642 29.5686 68.5827 29.9539C68.8624 30.0503 69.1584 30.1713 69.397 30.3344C69.5843 30.4625 70.1087 30.8811 69.9799 31.5774C69.9233 31.8823 69.7552 32.097 69.6237 32.2257C69.4919 32.3547 69.347 32.4466 69.2303 32.5105C68.9986 32.6374 68.7217 32.7381 68.4496 32.8227C67.345 33.166 65.3657 33.5231 62.5179 33.8584C61.7069 33.9538 60.8199 34.0467 59.8566 34.1386C59.7604 34.3224 59.6637 34.506 59.5664 34.6889C59.8054 35.1089 60.0296 35.5266 60.2392 35.9422C60.7439 36.0736 61.1949 36.1863 61.592 36.2783C62.1659 36.4112 62.6255 36.5079 62.982 36.5847C63.2797 36.6489 63.6348 36.7233 63.8539 36.8115C63.9065 36.8327 64.0191 36.882 64.1369 36.971C64.2201 37.0339 64.5538 37.3034 64.5555 37.789C64.5569 38.3088 64.1844 38.5841 64.071 38.6572C63.9325 38.7463 63.8014 38.7859 63.7459 38.8019C63.5372 38.862 63.2843 38.8766 63.1103 38.8839C62.7463 38.8991 62.2068 38.8937 61.5033 38.8645C63.6447 44.7785 63.1008 50.0505 62.3008 53.801C61.753 56.3679 59.8286 57.9096 57.8034 58.9268C55.5767 60.0452 52.8004 60.4398 47.5063 58.8698C44.899 58.0966 41.6531 56.8294 38.3916 55.3653C39.0546 59.1159 39.4524 62.5846 39.6857 65.0928C39.7835 66.1447 39.8543 67.0489 39.8668 67.7303C39.873 68.068 39.8659 68.3851 39.832 68.6532C39.815 68.7872 39.7879 68.9368 39.7408 69.0827C39.6983 69.2145 39.6123 69.4294 39.4266 69.6227C39.2049 69.8533 38.8588 70.0273 38.4432 69.9964C38.0965 69.9704 37.8454 69.8116 37.7152 69.7128C37.4557 69.5157 37.2454 69.2286 37.0796 68.9756C36.722 68.4298 36.2756 67.562 35.7208 66.3711C34.1852 63.0751 31.6531 56.8926 29.2722 50.7271C29.2297 50.7023 29.1861 50.679 29.1439 50.6542C26.6197 49.1733 24.6839 47.7941 23.0658 46.3931C18.3381 46.4799 13.9915 46.487 11.1316 46.4205C9.66941 46.3865 8.50518 46.3347 7.77002 46.2086C7.57941 46.1759 7.38427 46.1322 7.20515 46.0719C7.04416 46.0176 6.797 45.9186 6.58632 45.7232C6.33087 45.4863 6.13745 45.106 6.22293 44.6568C6.2916 44.2974 6.51441 44.0545 6.64388 43.9322C6.91287 43.6783 7.30602 43.4633 7.69566 43.276C8.07985 43.0912 8.56201 42.8881 9.13602 42.663C9.19323 42.556 9.25474 42.4432 9.32071 42.3246C5.52421 42.209 3.3209 42.0983 2.11534 41.9566C1.76838 41.9159 1.4719 41.8696 1.23026 41.8119C1.02753 41.7636 0.712761 41.6752 0.454317 41.4736C0.305806 41.3577 0.122691 41.1617 0.0405597 40.8697C-0.0440915 40.568 0.0167737 40.2987 0.104122 40.1098C0.246405 39.8022 0.50368 39.6076 0.591036 39.5413C1.38692 38.9376 2.53777 38.5332 3.85672 38.2402C5.20096 37.9416 6.84024 37.7337 8.71027 37.5942C9.85317 37.5089 11.0937 37.4512 12.4197 37.4108C12.651 37.0692 12.8926 36.7146 13.1453 36.3489C13.1063 36.2792 13.0704 36.2061 13.0397 36.1302C12.8668 35.7009 12.8652 35.249 12.981 34.8222C13.0799 34.4575 13.2687 34.101 13.5266 33.7524C12.9109 32.6003 12.3608 31.4718 11.8716 30.38C11.4942 30.2406 11.1468 30.1058 10.8342 29.9699C10.0563 29.6314 9.40921 29.2746 8.96332 28.8818C8.50776 28.4803 8.11146 27.8892 8.25334 27.1614C8.37981 26.5134 8.88066 26.0963 9.25235 25.8558C9.46918 25.7155 9.71741 25.5896 9.98152 25.4741C9.56609 24.1808 9.2504 22.9924 9.03048 21.9388C8.93082 21.4613 8.86293 21.0072 8.85418 20.5933C8.84558 20.1852 8.89202 19.7481 9.07845 19.3457C9.27918 18.9126 9.61944 18.572 10.0799 18.3636C10.5083 18.1699 10.982 18.1159 11.4399 18.1243C13.9772 18.1718 16.8102 19.5541 19.703 21.7132C19.9364 21.8874 20.171 22.0687 20.407 22.2544C20.1722 20.9218 20.0278 19.8467 19.9393 19.0016C19.9059 18.6832 19.862 18.2518 19.9177 17.8737C19.9786 17.4605 20.2133 16.8217 20.9755 16.5806C21.5531 16.3979 22.174 16.5534 22.6713 16.7275C23.226 16.9219 23.9169 17.2499 24.7724 17.7142C24.9563 17.814 25.1506 17.923 25.3541 18.0378C24.7067 15.2036 24.1667 12.5348 23.819 10.3963C23.3835 7.71783 23.2434 5.82609 23.452 4.43769C23.6742 2.95957 24.3 2.0115 25.3193 1.30684ZM32.1889 52.3438C34.2037 57.4814 36.2191 62.3599 37.5437 65.2398C37.2821 62.4342 36.8167 58.458 36.0086 54.2613C34.6992 53.6361 33.4119 52.9904 32.1889 52.3438ZM57.0803 42.6448C57.1431 44.1825 56.9909 45.5555 56.6929 46.6438C56.223 48.3595 54.8646 49.6106 53.1214 50.0618C52.6627 51.05 52.1852 51.8426 51.7362 52.4452C51.3542 52.9577 50.9753 53.3613 50.628 53.6335C50.4597 53.7655 50.2544 53.9005 50.026 53.989C49.866 54.0509 49.3355 54.23 48.8219 53.8978C48.1519 53.4638 47.9634 52.7735 47.9644 52.1832C47.9656 51.6106 48.136 50.9739 48.3734 50.3352C48.397 50.2718 48.4222 50.2078 48.4477 50.1427C48.2712 50.3127 48.0938 50.4813 47.914 50.6462C47.8875 50.7368 47.8613 50.8269 47.8337 50.9151C47.4916 52.0059 47.0016 52.938 46.4209 53.6575C45.8505 54.3642 45.139 54.9299 44.3329 55.1636C44.0039 55.259 43.6835 55.2718 43.3771 55.2309C45.099 55.9119 46.7247 56.493 48.1431 56.9136C53.0971 58.3826 55.2421 57.8958 56.8032 57.1119C58.5658 56.2266 59.8342 55.0932 60.1972 53.392C60.4597 52.1616 60.6898 50.7702 60.7969 49.2494C60.3383 49.403 59.9446 49.2002 59.8123 49.1127C59.6517 49.0065 59.5511 48.882 59.5112 48.8302C59.4593 48.7627 59.4157 48.6939 59.3817 48.6365C59.2534 48.4198 59.1053 48.0944 58.9416 47.7022C58.6036 46.8924 58.1159 45.591 57.4676 43.7568C57.3434 43.4052 57.2157 43.0328 57.0803 42.6448ZM41.9368 54.6487C41.9541 54.6559 41.9722 54.6631 41.9895 54.6703C41.9765 54.6616 41.9641 54.6518 41.9511 54.643C41.9466 54.6449 41.9413 54.6467 41.9368 54.6487ZM36.7738 48.0383C37.2106 49.6412 37.59 51.2701 37.9179 52.8759C38.2203 53.0167 38.5239 53.1551 38.827 53.2929C38.7968 53.1303 38.7789 52.9709 38.7694 52.8235C38.7403 52.3713 38.7684 51.8283 38.8438 51.1942C38.1911 50.2679 37.4996 49.2034 36.7738 48.0383ZM42.1922 45.509C42.1833 45.5455 42.1746 45.5822 42.1658 45.6184C41.7004 47.5269 41.3661 49.0385 41.1584 50.2178C41.1298 50.3804 41.1063 50.536 41.0829 50.6838C41.1535 50.779 41.2209 50.8743 41.2903 50.9652C41.6565 51.4449 41.994 51.8467 42.3013 52.1741C43.3282 51.6173 44.3284 50.9351 45.2948 50.1495C44.9664 49.8802 44.6742 49.5226 44.4205 49.1583C43.7902 48.2531 43.1278 46.9126 42.5016 45.4806C42.3994 45.4903 42.2962 45.4994 42.1922 45.509ZM33.9746 46.0502C32.6246 46.1133 31.2365 46.1696 29.8371 46.2177C30.2237 47.2466 30.622 48.293 31.0256 49.3428C32.3978 50.1238 33.908 50.9227 35.4761 51.7012C35.1981 50.4613 34.8893 49.2186 34.5443 47.9973C34.359 47.3416 34.1688 46.6921 33.9746 46.0502ZM38.3413 45.811C38.1973 45.8204 38.0517 45.828 37.9059 45.8372C38.4173 46.6748 38.908 47.4621 39.3763 48.1899C39.5355 47.4436 39.7246 46.6144 39.9447 45.6982C39.4248 45.7372 38.8897 45.7751 38.3413 45.811ZM46.271 48.109C46.2724 48.0991 46.2733 48.0892 46.2746 48.0793C46.2526 48.0616 46.2306 48.0437 46.2086 48.0258C46.2292 48.0552 46.2515 48.0819 46.271 48.109ZM26.3171 46.3237C26.8551 46.7222 27.4307 47.1226 28.0501 47.5302C27.8929 47.1139 27.7371 46.7 27.5836 46.2895C27.1612 46.3016 26.7383 46.3128 26.3171 46.3237ZM49.4479 43.7499C49.3421 43.9678 49.1866 44.1193 49.0918 44.1954C49.0064 44.2639 48.9139 44.32 48.8243 44.3686C48.8007 45.3017 48.7586 46.1403 48.6948 46.8489C49.1477 46.3363 49.5903 45.8045 50.0224 45.2584C49.8359 44.7912 49.6441 44.288 49.4479 43.7499ZM46.1631 45.0419C46.2228 45.112 46.2808 45.1835 46.3418 45.2527C46.3539 45.2665 46.3679 45.28 46.3801 45.2937C46.3743 45.2002 46.3652 45.1063 46.3574 45.0123C46.2937 45.0226 46.2288 45.0317 46.1631 45.0419ZM15.4611 42.5935C13.4869 43.2685 11.9215 43.8167 10.7311 44.2615C10.7354 44.2941 10.7373 44.3269 10.7383 44.3595C10.8813 44.3634 11.0297 44.3684 11.1832 44.372C13.5913 44.428 17.0763 44.4305 20.9551 44.3777C20.4046 43.796 19.8849 43.1998 19.3792 42.5821C18.1311 42.5523 16.9156 42.5213 15.7537 42.4933C15.6554 42.5268 15.5577 42.5605 15.4611 42.5935ZM22.2227 42.6528C22.7459 43.2245 23.2979 43.7791 23.8957 44.3287C24.8635 44.309 25.8449 44.287 26.8292 44.2603C26.6419 43.7503 26.4589 43.2481 26.2811 42.7564C24.922 42.7205 23.5617 42.6856 22.2227 42.6528ZM29.0803 44.1943C30.5164 44.1475 31.9449 44.0915 33.3366 44.0291C33.2175 43.6674 33.0964 43.3088 32.9732 42.9535C31.5421 42.9064 30.0665 42.8599 28.5754 42.818C28.74 43.2697 28.9085 43.7292 29.0803 44.1943ZM36.3852 43.3147C36.4943 43.4971 36.6028 43.6779 36.7102 43.857C37.2142 43.8278 37.7096 43.7987 38.1938 43.767C38.9863 43.7152 39.7442 43.6569 40.4616 43.5995C40.4902 43.4867 40.5211 43.3734 40.5504 43.2589C39.2304 43.1904 37.7783 43.1257 36.2389 43.0663C36.2878 43.1491 36.3361 43.2325 36.3852 43.3147ZM51.7842 38.0089C51.6233 38.0975 51.4765 38.1228 51.452 38.1274C51.4005 38.137 51.3578 38.1404 51.3368 38.1422C51.2363 38.1506 51.1266 38.1442 51.109 38.1433C51.0558 38.1407 50.9876 38.1373 50.9087 38.1319C50.5858 38.1102 50.2091 38.0836 49.7873 38.0556C50.2287 39.4285 50.6491 40.7069 51.0382 41.8438C51.206 42.3341 51.3723 42.7965 51.5323 43.2315C51.9737 42.6035 52.3991 41.9652 52.8084 41.3232C52.7931 40.2604 52.7455 39.1624 52.6609 38.0442C52.4027 38.0121 52.1385 37.9795 51.8693 37.9451C51.8365 37.972 51.8069 37.9948 51.7842 38.0089ZM60.2296 42.2631C60.3145 42.583 60.3921 42.8926 60.4695 43.1894C60.2631 42.079 59.9648 40.9337 59.5532 39.76C59.7968 40.6494 60.0241 41.4883 60.2296 42.2631ZM48.8507 42.2073C48.8741 42.2199 48.898 42.2316 48.9203 42.2449C48.8968 42.176 48.8744 42.1062 48.8507 42.0364C48.8506 42.0935 48.8508 42.1506 48.8507 42.2073ZM44.5404 37.7366C44.4141 37.8927 44.2866 38.0356 44.159 38.1661C43.9106 39.015 43.67 39.8591 43.4431 40.6863C43.552 40.929 43.6675 41.1675 43.7849 41.4041C44.4541 41.4526 45.0589 41.5014 45.5886 41.5545C45.6287 41.5585 45.6692 41.5629 45.7085 41.567C45.4057 40.3367 45.0303 39.0317 44.5404 37.7366ZM35.7256 38.8907C35.8209 38.9383 35.9396 39.0042 36.0458 39.0958C36.1137 39.1545 36.3404 39.357 36.408 39.7042C36.5 40.1791 36.2435 40.5423 36.0074 40.7216C35.8219 40.8623 35.6323 40.9131 35.5589 40.9312C35.4638 40.9548 35.3757 40.966 35.3106 40.9723C35.2736 40.9758 35.2345 40.976 35.1943 40.978C36.0301 41.0084 36.845 41.0408 37.6325 41.0737C37.5348 40.9531 37.4415 40.8299 37.3554 40.7057C36.9885 40.1755 36.6464 39.5224 36.3264 38.7722C36.1275 38.8143 35.9268 38.8537 35.7256 38.8907ZM27.8342 40.7478C29.3116 40.7885 30.7806 40.8331 32.2129 40.8788C32.1911 40.8228 32.1688 40.7672 32.1469 40.7114C30.9118 40.5505 29.4127 40.3303 27.8258 40.0768C27.7448 40.0638 27.6639 40.0489 27.5824 40.0357C27.6648 40.2711 27.7494 40.5083 27.8342 40.7478ZM21.4276 40.5826C22.7802 40.6155 24.1606 40.6514 25.546 40.6874C25.4218 40.3329 25.3014 39.9824 25.1826 39.637C24.985 39.6031 24.7867 39.5677 24.5889 39.5333C23.504 39.8911 22.4469 40.2428 21.4276 40.5826ZM16.983 39.392C15.8091 39.393 14.6848 39.4046 13.6154 39.4273C13.4284 39.7089 13.2491 39.9797 13.0793 40.2408C13.0501 40.2858 13.0205 40.3309 12.9918 40.3753C13.7624 40.3949 14.5716 40.4142 15.4107 40.4345C16.0029 40.2328 16.6249 40.0231 17.272 39.8045C17.1747 39.6672 17.0785 39.5292 16.983 39.392ZM11.0297 39.5139C10.2764 39.5479 9.55769 39.5873 8.87697 39.6381C7.36222 39.7512 6.05268 39.9058 4.96487 40.1087C6.3119 40.1764 8.11856 40.2433 10.52 40.3115C10.6794 40.0572 10.8509 39.7917 11.0297 39.5139ZM38.4312 38.2641C38.6727 38.7998 38.9117 39.2382 39.146 39.5766C39.604 40.2379 39.8758 40.2903 39.8956 40.2921C40.1816 40.3099 40.3482 40.2095 40.3837 40.1679C40.3864 40.1647 40.3929 40.1557 40.4005 40.1371C40.2033 39.5899 40.0193 39.0673 39.8488 38.566C39.7481 38.3664 39.6459 38.1685 39.543 37.9724C39.1744 38.0702 38.8042 38.1694 38.4312 38.2641ZM33.3042 37.1624C33.8308 37.1091 34.3534 37.0415 34.8681 36.9573C34.2684 36.9036 33.6937 36.8491 33.1531 36.7955C33.2035 36.919 33.2539 37.0414 33.3042 37.1624ZM20.1432 33.316C19.6805 34.7953 19.753 35.3973 19.9405 35.6949C20.1263 35.9895 20.6626 36.3573 22.3487 36.6565C22.9219 36.7582 23.5738 36.8581 24.2819 36.9493C23.8577 35.6525 23.4731 34.4278 23.1258 33.2727C22.1485 33.0743 21.2249 32.88 20.3542 32.6883C20.2767 32.906 20.2058 33.1158 20.1432 33.316ZM25.5016 33.7433C25.7966 34.699 26.1171 35.701 26.4634 36.7511C27.1452 36.5282 27.8349 36.303 28.5286 36.0777C28.4894 36.0599 28.4494 36.0427 28.4123 36.0219C28.3286 35.975 28.0234 35.8008 27.8822 35.4306C27.6825 34.9062 27.9567 34.4811 28.1616 34.2902C28.1771 34.2758 28.194 34.2633 28.2096 34.2503C27.282 34.0807 26.3764 33.9114 25.5016 33.7433ZM16.676 35.0125C16.8745 35.3455 17.0788 35.6806 17.2888 36.0162C17.4569 36.0552 17.632 36.0955 17.8129 36.1359C17.5307 35.2818 17.6483 34.3108 17.9197 33.3012C17.4857 33.8917 17.0712 34.4624 16.676 35.0125ZM48.7871 34.8883C48.8493 35.0897 48.9135 35.2897 48.9754 35.4887C50.2127 35.6594 51.3816 35.8161 52.4594 35.9524C52.4426 35.8092 52.4247 35.6653 52.4066 35.5218C51.8357 35.2963 51.2441 35.0552 50.6328 34.796C50.0306 34.8275 49.4139 34.8587 48.7871 34.8883ZM34.4843 33.0061C34.4544 33.0738 34.4374 33.1253 34.428 33.1622C34.4948 33.1904 34.5672 33.2159 34.6414 33.2443C34.6126 33.1188 34.5824 32.9924 34.5539 32.8649C34.5272 32.9132 34.5044 32.9607 34.4843 33.0061ZM30.8253 30.2456C31.108 31.1421 31.3859 31.9851 31.6588 32.7817C31.8707 32.8187 32.0836 32.8553 32.2968 32.8922C32.3374 32.6423 32.4173 32.4095 32.5067 32.2075C32.7573 31.6414 33.1866 31.0926 33.6484 30.6261C32.8902 30.1651 32.1498 29.9106 31.4393 29.8673C31.1974 29.8526 30.95 29.8423 30.6982 29.8354C30.7409 29.973 30.7826 30.1102 30.8253 30.2456ZM15.1325 32.2439C15.4147 32.036 15.7029 31.836 15.996 31.6447C15.5201 31.5191 15.0684 31.3964 14.642 31.2744C14.8 31.595 14.9636 31.9184 15.1325 32.2439ZM49.1481 31.8771C49.2985 31.9466 49.4472 32.017 49.5955 32.0844C49.8174 31.962 50.0334 31.8382 50.2431 31.713C50.2081 31.6755 50.1714 31.6401 50.1363 31.6036C49.8149 31.6918 49.4851 31.7827 49.1481 31.8771ZM41.1992 32.073C41.2281 32.0642 41.2578 32.0557 41.2867 32.0468C41.2522 32.0073 41.2162 31.9686 41.1812 31.9295C41.1872 31.9774 41.193 32.0253 41.1992 32.073ZM25.6839 30.1943C25.2976 30.2588 24.9096 30.3336 24.5206 30.4165C24.6219 30.7765 24.7253 31.1452 24.8348 31.5216C25.6155 31.6752 26.4251 31.8306 27.2574 31.9865C26.7307 31.3687 26.2045 30.7717 25.6839 30.1943ZM61.327 30.5144C61.277 30.9733 61.1287 31.466 60.9216 31.9716C61.3879 31.9226 61.8324 31.8744 62.2552 31.8247C63.6386 31.6618 64.7761 31.4968 65.6816 31.3393C64.5988 31.1124 63.1653 30.8427 61.327 30.5144ZM37.5941 30.4666C37.4104 30.5463 37.2303 30.6291 37.0556 30.7184C37.2413 30.9057 37.4251 31.0989 37.6037 31.2972C37.6669 31.3673 37.7281 31.4396 37.7908 31.5114C37.733 31.2852 37.6732 31.0595 37.6157 30.8335C37.5843 30.7099 37.5788 30.5858 37.5941 30.4666ZM43.4719 31.386C43.4816 31.3831 43.4921 31.381 43.5018 31.3781C43.4812 31.3671 43.4601 31.356 43.4395 31.345C43.4502 31.3586 43.4611 31.3724 43.4719 31.386ZM22.2731 31.0009C22.3404 31.0151 22.4079 31.03 22.4758 31.0442C22.4667 31.0121 22.4572 30.9794 22.4482 30.9474C22.3898 30.9651 22.3314 30.9828 22.2731 31.0009ZM56.8392 30.0758C56.8243 30.0778 56.8086 30.0794 56.7936 30.0815C56.8245 30.1862 56.8552 30.2913 56.886 30.396C56.9634 30.5149 57.0399 30.6349 57.1174 30.7548C57.0544 30.5164 56.9736 30.2889 56.8764 30.0701C56.8642 30.0717 56.8515 30.0742 56.8392 30.0758ZM28.2288 29.8912C28.3579 30.0392 28.4869 30.1889 28.6162 30.339C28.5688 30.1861 28.5197 30.0319 28.4723 29.8764C28.3914 29.8814 28.3102 29.8855 28.2288 29.8912ZM59.1994 30.2592C59.1998 30.2533 59.2015 30.2468 59.2018 30.241C59.2041 30.1976 59.2015 30.1649 59.1994 30.1408C59.1874 30.1387 59.1755 30.136 59.1634 30.1339C59.1753 30.1754 59.1883 30.2171 59.1994 30.2592ZM20.4226 26.5132C16.7757 26.3099 14.1709 26.4286 12.6931 26.7706C12.9344 27.4157 13.1975 28.0829 13.4895 28.7667C13.8028 28.8711 14.1399 28.9799 14.5005 29.0892C15.4347 29.3722 16.5192 29.667 17.7614 29.9756C18.5903 28.8757 19.479 27.721 20.4226 26.5132ZM43.9588 29.2737C44.2115 29.4105 44.4623 29.5443 44.7107 29.6759C44.7244 29.5363 44.7388 29.3951 44.7515 29.2521C44.4847 29.2565 44.2204 29.2639 43.9588 29.2737ZM35.9655 28.9513C36.1295 28.8659 36.2967 28.7852 36.4656 28.7075C36.2783 28.6403 36.0869 28.5782 35.8923 28.5195C35.9168 28.6644 35.9406 28.8084 35.9655 28.9513ZM50.0332 28.7758C49.9985 28.6985 49.9625 28.621 49.9277 28.5434C49.8114 28.5235 49.6949 28.503 49.5787 28.483C49.7303 28.575 49.8826 28.6725 50.0332 28.7758ZM23.9797 28.4318C23.9977 28.4279 24.0157 28.4242 24.0337 28.4204C24.0069 28.3926 23.98 28.3649 23.9533 28.3372C23.9615 28.3686 23.9714 28.4002 23.9797 28.4318ZM30.0781 27.7767C30.5947 27.777 31.0949 27.7931 31.5748 27.8222C32.3049 27.8666 33.0097 28.0437 33.6856 28.3258C33.6705 28.2332 33.655 28.1399 33.64 28.0467C32.3822 27.8444 31.1667 27.6619 29.9978 27.4987C30.0246 27.5915 30.0512 27.6844 30.0781 27.7767ZM26.527 27.9988C26.9829 27.9421 27.4337 27.8978 27.8774 27.8633C27.8137 27.642 27.7502 27.4188 27.6867 27.1945C26.9455 27.1024 26.225 27.0191 25.5268 26.9438C25.8589 27.2875 26.1928 27.639 26.527 27.9988ZM10.5656 27.4884C10.6103 27.5205 10.6615 27.5531 10.7179 27.5887C10.6985 27.5373 10.6794 27.486 10.6603 27.4349C10.627 27.452 10.5961 27.4712 10.5656 27.4884ZM40.795 27.4884C40.7988 27.4906 40.8032 27.493 40.807 27.4953C41.4344 27.4035 42.0709 27.334 42.7115 27.2879C42.0393 27.1687 41.3889 27.0509 40.7662 26.9381C40.7752 27.1218 40.785 27.3059 40.795 27.4884ZM28.6138 22.4105C28.8665 23.3986 29.1281 24.382 29.3921 25.3465C30.6523 25.5151 31.9653 25.7065 33.3282 25.9207C33.3055 25.7223 33.2846 25.5251 33.2682 25.3294C33.0988 25.266 32.9349 25.1958 32.7981 25.1118C32.7419 25.0773 32.579 24.976 32.4383 24.7951C31.1207 23.9704 29.8246 23.1604 28.6138 22.4105ZM26.6289 23.2809C25.9721 23.7295 25.3339 24.2329 24.7209 24.7996C25.4863 24.8755 26.2787 24.9595 27.0967 25.056C26.9389 24.4688 26.7824 23.8758 26.6289 23.2809ZM11.3979 20.174C11.1953 20.1703 11.085 20.1929 11.0333 20.207C11.0188 20.2568 10.9957 20.3618 10.9997 20.5522C11.0049 20.7961 11.0476 21.118 11.1352 21.5377C11.3383 22.5107 11.6312 23.6142 12.0167 24.8201C12.0428 24.8137 12.069 24.807 12.0947 24.8008C13.7735 24.394 16.4099 24.2781 19.781 24.4316C19.3073 24.0389 18.8409 23.6695 18.3814 23.3265C15.591 21.2438 13.2211 20.208 11.3979 20.174ZM40.7722 19.7126C40.7018 20.8834 40.6644 22.1066 40.6667 23.3777C41.5817 23.4606 42.476 23.5497 43.3447 23.6432C43.1958 23.0712 43.0506 22.5062 42.9118 21.9513C42.7189 21.1801 42.537 20.4274 42.3685 19.7034C41.8459 19.702 41.3131 19.7044 40.7722 19.7126ZM22.0752 18.7965C22.1919 19.9115 22.4135 21.4805 22.8404 23.5794C23.5155 22.6262 24.2437 21.6875 25.0219 20.7972C25.1306 20.6728 25.2414 20.551 25.3505 20.4292C24.7459 20.0734 24.1948 19.7579 23.7123 19.4961C22.9817 19.0996 22.4491 18.8497 22.0668 18.7031C22.0697 18.7328 22.0718 18.764 22.0752 18.7965ZM38.4228 19.7946C37.544 19.8461 36.6536 19.9252 35.7604 20.043C35.5527 20.9772 35.4138 21.9569 35.367 22.9813C35.8621 23.0016 36.4241 23.0338 37.0352 23.0792C37.4842 23.1126 37.9298 23.1478 38.3712 23.1829C38.3701 21.9176 38.3919 20.757 38.4228 19.7946ZM33.4985 20.4315C32.5436 20.6382 31.5936 20.902 30.661 21.2381C31.4935 21.756 32.3553 22.2935 33.2251 22.8377C33.2653 22.0078 33.3607 21.2052 33.4985 20.4315ZM44.929 21.1903C44.9114 20.706 44.887 20.2162 44.8594 19.7217C44.7644 19.721 44.6689 19.7191 44.5728 19.7183C44.6858 20.1956 44.8042 20.6874 44.929 21.1903ZM35.3706 14.8044C33.349 16.0114 31.1651 17.5965 28.9904 19.6807C30.6423 18.9995 32.3398 18.5416 34.0214 18.236C34.3887 17.005 34.8549 15.8597 35.3706 14.8044ZM32.6506 2.30602C30.0706 1.75562 27.7743 2.13973 26.5774 2.96683C26.0654 3.32079 25.7222 3.75634 25.576 4.72936C25.4164 5.79235 25.5081 7.42224 25.9405 10.0819C26.303 12.3113 26.8799 15.141 27.5728 18.1335C31.0057 14.8673 34.4637 12.7643 37.3459 11.4069C37.4194 11.297 37.4911 11.1877 37.5641 11.0811C38.2069 10.1426 39.1552 9.70422 40.1474 9.63071C40.3304 8.92462 40.5214 8.266 40.7147 7.65741C37.4016 4.05049 34.96 2.79881 32.6506 2.30602ZM44.3461 4.50833C44.1113 4.87869 43.801 5.479 43.4563 6.32896C43.3469 6.59867 43.236 6.88956 43.1241 7.20054C45.6129 10.0662 48.4465 14.0483 50.7995 18.0172C50.7211 17.7837 50.646 17.5532 50.5693 17.328C48.1209 10.1395 46.6433 7.45343 45.5562 5.90969C45.0594 5.20427 44.6457 4.74957 44.3461 4.50833ZM38.833 12.9963C37.9232 14.4094 37.0318 16.0471 36.378 17.8988C37.1041 17.8204 37.8221 17.7655 38.526 17.7267C38.5341 17.626 38.543 17.5357 38.5511 17.4567C38.5974 17.0095 38.7156 16.5723 38.9337 16.1886C39.0806 14.9612 39.2603 13.8039 39.4626 12.7228C39.2573 12.8099 39.0463 12.9004 38.833 12.9963ZM41.7844 17.0283C41.3479 16.9362 41.1125 16.9731 40.9989 17.0135C40.9761 17.2235 40.9549 17.4362 40.9341 17.6504C41.265 17.6465 41.5912 17.6434 41.9116 17.6436C41.8677 17.4345 41.8249 17.2294 41.7844 17.0283ZM43.6793 15.5187C43.7454 15.5497 43.8111 15.5835 43.8772 15.6167C43.7855 15.4407 43.6945 15.2714 43.6074 15.1086C43.6298 15.2417 43.6542 15.3787 43.6793 15.5187ZM41.2675 14.924C41.3142 14.9236 41.361 14.9227 41.4079 14.924C41.3832 14.7631 41.3588 14.6074 41.3383 14.4569C41.3139 14.6111 41.2909 14.7669 41.2675 14.924Z" fill="#FBE300"/>
</svg>
