<svg width="82" height="82" viewBox="0 0 82 82" fill="none" xmlns="http://www.w3.org/2000/svg">
<mask id="path-1-outside-1_515_2875" maskUnits="userSpaceOnUse" x="-1" y="-0.00195312" width="84" height="82" fill="black">
<rect fill="white" x="-1" y="-0.00195312" width="84" height="82"/>
<path fill-rule="evenodd" clip-rule="evenodd" d="M31.3197 7.30442C33.186 6.01512 36.1823 5.67745 39.1176 6.30344C41.7784 6.87122 44.3757 8.24472 47.5131 11.446C47.9831 10.3098 48.4643 9.41963 48.9037 8.90207C49.2348 8.51238 49.7176 8.28173 50.2719 8.30735C50.7529 8.32971 51.1666 8.53968 51.4769 8.75168C52.102 9.17893 52.7339 9.90758 53.3373 10.7644C54.5896 12.5429 56.1392 15.4416 58.6088 22.6921C58.8906 23.5196 59.1832 24.4048 59.4847 25.3318C60.0012 25.6141 60.4803 25.9316 60.9105 26.2859C62.9424 27.9595 63.7258 30.5163 63.0599 32.9919C63.4245 33.2487 63.7465 33.5327 64.0111 33.8474C64.1381 33.8694 64.2645 33.891 64.39 33.9128C64.9628 33.9229 65.4706 33.9975 65.8988 34.156C65.9305 34.1677 65.9623 34.1802 65.9935 34.1931C66.5874 34.2972 67.1573 34.3974 67.6976 34.4939C71.2068 35.1202 73.4639 35.5666 74.5824 35.9519C74.862 36.0482 75.1583 36.1688 75.3969 36.3318C75.584 36.4598 76.1082 36.8789 75.9799 37.5749C75.9233 37.8796 75.7549 38.0946 75.6234 38.2234C75.4918 38.3522 75.3464 38.4446 75.2299 38.5085C74.9984 38.6352 74.7214 38.7355 74.4496 38.82C73.345 39.1633 71.3656 39.521 68.518 39.8562C67.7071 39.9516 66.82 40.0445 65.8568 40.1365C65.7607 40.3199 65.6639 40.5036 65.5668 40.6863C65.8057 41.1061 66.0301 41.5247 66.2396 41.9402C66.7441 42.0715 67.1952 42.1841 67.5922 42.2761C68.1659 42.409 68.6254 42.5059 68.9818 42.5827C69.2795 42.6469 69.6348 42.7211 69.8539 42.8093C69.9066 42.8305 70.0195 42.8797 70.1371 42.9685C70.2205 43.0315 70.5532 43.3018 70.5551 43.7868C70.5564 44.306 70.1845 44.5816 70.0707 44.655C69.9325 44.7439 69.8011 44.7835 69.7455 44.7995C69.5371 44.8595 69.2845 44.8743 69.1107 44.8816C68.7467 44.8967 68.2068 44.8912 67.5033 44.862C69.6446 50.7757 69.1011 56.0481 68.3012 59.7986C67.7534 62.3653 65.8282 63.9074 63.8031 64.9245C61.5764 66.0428 58.8001 66.4378 53.5062 64.8679C50.899 64.0947 47.6533 62.8271 44.392 61.363C45.0549 65.1133 45.4527 68.5824 45.6859 71.0906C45.7837 72.1421 45.854 73.0469 45.8666 73.7282C45.8728 74.0656 45.8663 74.3832 45.8324 74.6511C45.8154 74.7849 45.7876 74.9352 45.7406 75.0808C45.698 75.2125 45.6114 75.4278 45.4262 75.6208C45.2044 75.8512 44.8581 76.0247 44.4428 75.9939C44.0965 75.9678 43.8454 75.8094 43.7152 75.7107C43.4558 75.5137 43.2452 75.2263 43.0795 74.9734C42.722 74.4276 42.2758 73.5594 41.7211 72.3689C40.1855 69.0728 37.6527 62.8896 35.2719 56.7243C35.2296 56.6997 35.1859 56.6767 35.1439 56.6521C32.6198 55.1712 30.6839 53.7913 29.0658 52.3904C24.3381 52.4771 19.9911 52.4842 17.1312 52.4177C15.6692 52.3837 14.505 52.3319 13.7699 52.2058C13.5794 52.1731 13.3845 52.1294 13.2055 52.0691C13.0445 52.0148 12.797 51.9157 12.5863 51.7204C12.331 51.4835 12.1376 51.103 12.223 50.654C12.2919 50.2951 12.5146 50.0516 12.6439 49.9294C12.9129 49.6757 13.3063 49.4604 13.6957 49.2732C14.0798 49.0885 14.5624 48.8858 15.1361 48.6609C15.1933 48.554 15.2548 48.4404 15.3207 48.322C11.5245 48.2064 9.32123 48.0955 8.11561 47.9538C7.76865 47.913 7.4715 47.8669 7.22987 47.8093C7.02719 47.761 6.71271 47.6728 6.45448 47.4714C6.306 47.3555 6.12251 47.1588 6.04041 46.8669C5.9561 46.5655 6.01662 46.2959 6.10389 46.1072C6.24623 45.7999 6.50389 45.605 6.5912 45.5388C7.38707 44.9353 8.53813 44.5309 9.85682 44.238C11.201 43.9395 12.8404 43.7311 14.7103 43.5915C15.8531 43.5063 17.0936 43.4484 18.4193 43.4079C18.6505 43.0666 18.8924 42.7119 19.1449 42.3464C19.106 42.2769 19.07 42.2034 19.0394 42.1277C18.8668 41.6987 18.8652 41.2466 18.9808 40.82C19.0799 40.4555 19.2689 40.0982 19.5267 39.7497C18.9111 38.5978 18.3606 37.4693 17.8715 36.3777C17.4941 36.2383 17.1469 36.1035 16.8344 35.9675C16.0566 35.6291 15.4091 35.2724 14.9633 34.8796C14.5078 34.4782 14.1115 33.8866 14.2533 33.1589C14.38 32.5112 14.8808 32.0937 15.2523 31.8532C15.4691 31.7131 15.7179 31.5869 15.9818 31.4714C15.5665 30.1783 15.2505 28.9897 15.0306 27.9363C14.931 27.459 14.8626 27.0044 14.8539 26.5906C14.8454 26.1828 14.8922 25.7456 15.0785 25.3435C15.2792 24.9107 15.6193 24.5694 16.0795 24.3611C16.5078 24.1674 16.9821 24.1133 17.4398 24.1218C19.977 24.1692 22.8099 25.5518 25.7025 27.7107C25.9358 27.8848 26.1707 28.0661 26.4066 28.2517C26.1719 26.9195 26.0273 25.8436 25.9389 24.9988C25.9055 24.6804 25.8617 24.2486 25.9174 23.8708C25.9785 23.4576 26.2136 22.8189 26.975 22.5779C27.5525 22.3953 28.1741 22.5512 28.6713 22.7253C29.226 22.9197 29.9174 23.2475 30.7728 23.7116C30.9565 23.8113 31.1506 23.9202 31.3539 24.0349C30.7066 21.2012 30.1664 18.5325 29.8187 16.3943C29.3833 13.716 29.243 11.8236 29.4515 10.4353C29.6738 8.95743 30.3005 8.009 31.3197 7.30442ZM38.1889 58.3415C40.2035 63.4786 42.2187 68.3571 43.5433 71.237C43.2817 68.4315 42.8161 64.4549 42.0082 60.2585C40.699 59.6335 39.4117 58.988 38.1889 58.3415ZM63.0805 48.6423C63.1433 50.1798 62.9907 51.5531 62.6928 52.6413C62.2229 54.3569 60.8646 55.6081 59.1215 56.0593C58.6628 57.0473 58.1847 57.8405 57.7357 58.4431C57.3539 58.9553 56.9754 59.3594 56.6283 59.6316C56.46 59.7635 56.2541 59.8986 56.0258 59.987C55.8654 60.0491 55.335 60.2272 54.8217 59.8952C54.1519 59.4612 53.9632 58.7706 53.9642 58.1804C53.9653 57.707 54.0845 57.1907 54.2592 56.6648L53.8129 56.9734C53.4719 58.0378 52.991 58.949 52.4213 59.655C51.8509 60.3617 51.1383 60.9271 50.3324 61.1609C50.0036 61.2561 49.6835 61.2691 49.3773 61.2282C51.0991 61.9092 52.7247 62.4903 54.143 62.9109C59.0969 64.3799 61.242 63.8931 62.8031 63.1091C64.5655 62.2239 65.8346 61.0904 66.1976 59.3894C66.46 58.1592 66.6902 56.7672 66.7972 55.2468C66.3386 55.4004 65.9443 55.1975 65.8119 55.1101C65.6517 55.004 65.551 54.8797 65.5111 54.8279C65.4593 54.7605 65.4152 54.6919 65.3812 54.6345C65.253 54.4179 65.1054 54.0918 64.9418 53.6999C64.6038 52.8901 64.1154 51.5886 63.4672 49.7546C63.343 49.4032 63.2159 49.0302 63.0805 48.6423ZM21.4613 48.5915C19.4872 49.2665 17.9212 49.8148 16.7308 50.2595C16.7351 50.2919 16.7377 50.3249 16.7387 50.3572C16.8815 50.3611 17.0297 50.3663 17.183 50.3699C19.5911 50.4259 23.0767 50.4285 26.9555 50.3757C26.4051 49.7941 25.8848 49.1974 25.3793 48.5798C24.1312 48.55 22.9152 48.519 21.7533 48.4909C21.6552 48.5244 21.5577 48.5586 21.4613 48.5915ZM66.2299 48.2605C66.3147 48.5802 66.3918 48.8906 66.4691 49.1872C66.2628 48.0769 65.9646 46.931 65.5531 45.7575C65.7966 46.6467 66.0244 47.4858 66.2299 48.2605ZM22.9828 45.3894C21.8091 45.3904 20.6849 45.4018 19.6156 45.4245C19.4288 45.7058 19.2491 45.9772 19.0795 46.238C19.0503 46.2828 19.0202 46.3286 18.9916 46.3728C19.7621 46.3924 20.5715 46.412 21.4105 46.4324C22.0025 46.2307 22.6248 46.021 23.2719 45.8025C23.1746 45.6653 23.0782 45.5264 22.9828 45.3894ZM17.0297 45.5115C16.2766 45.5454 15.5579 45.5847 14.8773 45.6355C13.3629 45.7485 12.0529 45.9034 10.9652 46.1062C12.3122 46.1739 14.1188 46.2412 16.5199 46.3093C16.6792 46.0551 16.851 45.7891 17.0297 45.5115ZM21.1322 38.2419C21.4142 38.0342 21.7026 37.8335 21.9955 37.6423C21.5198 37.5168 21.0683 37.3942 20.642 37.2722C20.7999 37.5926 20.9634 37.9165 21.1322 38.2419ZM67.3265 36.5124C67.2765 36.971 67.1282 37.4641 66.9213 37.9695C67.3875 37.9204 67.8325 37.8718 68.2553 37.822C69.6385 37.6592 70.7766 37.4942 71.682 37.3366C70.5992 37.1098 69.1649 36.8407 67.3265 36.5124ZM62.8392 36.073C62.8244 36.075 62.8083 36.0768 62.7933 36.0788C62.8242 36.1834 62.8554 36.2889 62.8861 36.3933C62.9634 36.5122 63.0401 36.6328 63.1176 36.7527C63.0546 36.5145 62.9734 36.2866 62.8764 36.0681C62.8643 36.0697 62.8514 36.0713 62.8392 36.073ZM65.1996 36.2566C65.2001 36.251 65.2012 36.2444 65.2015 36.239C65.2038 36.1959 65.2017 36.1625 65.1996 36.1384C65.1876 36.1363 65.1755 36.1337 65.1635 36.1316C65.1752 36.1728 65.1885 36.2147 65.1996 36.2566ZM26.4223 32.5105C22.7757 32.3073 20.1705 32.4262 18.6928 32.7683C18.934 33.4132 19.1977 34.0806 19.4896 34.7644C19.8029 34.8687 20.14 34.9774 20.5004 35.0866C21.4346 35.3697 22.519 35.6649 23.7611 35.9734C24.59 34.8736 25.4788 33.7181 26.4223 32.5105ZM16.5658 33.4861C16.6105 33.518 16.6619 33.5511 16.7181 33.5866C16.6988 33.5354 16.6796 33.4833 16.6605 33.4323C16.6274 33.4493 16.5962 33.469 16.5658 33.4861ZM17.3978 26.1716C17.1958 26.1679 17.0854 26.1907 17.0336 26.2048C17.0191 26.2546 16.9955 26.3597 16.9994 26.5495C17.0046 26.7932 17.0477 27.1155 17.1351 27.5349C17.3382 28.5077 17.6315 29.6123 18.017 30.8181C18.0429 30.8117 18.0696 30.8048 18.0951 30.7986C19.7739 30.3919 22.4101 30.2759 25.7806 30.4294C25.307 30.0367 24.8407 29.6669 24.3812 29.3239C21.591 27.2414 19.221 26.2057 17.3978 26.1716ZM28.0756 24.7937C28.1923 25.9085 28.4134 27.4782 28.8402 29.5769C29.5153 28.6238 30.2437 27.6849 31.0219 26.7947C31.1305 26.6704 31.2411 26.5481 31.35 26.4265C30.7457 26.0709 30.1946 25.7556 29.7123 25.4939C28.9818 25.0975 28.449 24.8475 28.0668 24.7009C28.0697 24.7302 28.0722 24.7615 28.0756 24.7937ZM35.599 25.1101C35.3965 25.2956 35.1931 25.4844 34.9906 25.6784C35.0405 25.6579 35.091 25.639 35.141 25.6189L35.599 25.1101ZM38.6508 8.30344C36.0711 7.75309 33.7745 8.13764 32.5775 8.96457C32.0656 9.31848 31.7218 9.75459 31.5756 10.7273C31.4161 11.7902 31.5085 13.4207 31.9408 16.0798C32.3033 18.3089 32.8799 21.1386 33.5726 24.1306C37.0054 20.8647 40.464 18.7614 43.3461 17.404C43.4194 17.2945 43.4911 17.1851 43.5639 17.0788C44.2065 16.1408 45.155 15.7022 46.1469 15.6286C46.3298 14.9228 46.521 14.2634 46.7142 13.655C43.4015 10.0485 40.96 8.79623 38.6508 8.30344ZM50.3461 10.5056C50.1113 10.8759 49.8011 11.4772 49.4564 12.3269C49.3471 12.5963 49.2362 12.8873 49.1244 13.198C51.613 16.0635 54.4463 20.0458 56.7992 24.0144C56.7209 23.7813 56.6463 23.5507 56.5697 23.3259C54.1214 16.1377 52.6431 13.4507 51.556 11.907C51.0594 11.2018 50.6456 10.7468 50.3461 10.5056Z"/>
</mask>
<path fill-rule="evenodd" clip-rule="evenodd" d="M31.3197 7.30442C33.186 6.01512 36.1823 5.67745 39.1176 6.30344C41.7784 6.87122 44.3757 8.24472 47.5131 11.446C47.9831 10.3098 48.4643 9.41963 48.9037 8.90207C49.2348 8.51238 49.7176 8.28173 50.2719 8.30735C50.7529 8.32971 51.1666 8.53968 51.4769 8.75168C52.102 9.17893 52.7339 9.90758 53.3373 10.7644C54.5896 12.5429 56.1392 15.4416 58.6088 22.6921C58.8906 23.5196 59.1832 24.4048 59.4847 25.3318C60.0012 25.6141 60.4803 25.9316 60.9105 26.2859C62.9424 27.9595 63.7258 30.5163 63.0599 32.9919C63.4245 33.2487 63.7465 33.5327 64.0111 33.8474C64.1381 33.8694 64.2645 33.891 64.39 33.9128C64.9628 33.9229 65.4706 33.9975 65.8988 34.156C65.9305 34.1677 65.9623 34.1802 65.9935 34.1931C66.5874 34.2972 67.1573 34.3974 67.6976 34.4939C71.2068 35.1202 73.4639 35.5666 74.5824 35.9519C74.862 36.0482 75.1583 36.1688 75.3969 36.3318C75.584 36.4598 76.1082 36.8789 75.9799 37.5749C75.9233 37.8796 75.7549 38.0946 75.6234 38.2234C75.4918 38.3522 75.3464 38.4446 75.2299 38.5085C74.9984 38.6352 74.7214 38.7355 74.4496 38.82C73.345 39.1633 71.3656 39.521 68.518 39.8562C67.7071 39.9516 66.82 40.0445 65.8568 40.1365C65.7607 40.3199 65.6639 40.5036 65.5668 40.6863C65.8057 41.1061 66.0301 41.5247 66.2396 41.9402C66.7441 42.0715 67.1952 42.1841 67.5922 42.2761C68.1659 42.409 68.6254 42.5059 68.9818 42.5827C69.2795 42.6469 69.6348 42.7211 69.8539 42.8093C69.9066 42.8305 70.0195 42.8797 70.1371 42.9685C70.2205 43.0315 70.5532 43.3018 70.5551 43.7868C70.5564 44.306 70.1845 44.5816 70.0707 44.655C69.9325 44.7439 69.8011 44.7835 69.7455 44.7995C69.5371 44.8595 69.2845 44.8743 69.1107 44.8816C68.7467 44.8967 68.2068 44.8912 67.5033 44.862C69.6446 50.7757 69.1011 56.0481 68.3012 59.7986C67.7534 62.3653 65.8282 63.9074 63.8031 64.9245C61.5764 66.0428 58.8001 66.4378 53.5062 64.8679C50.899 64.0947 47.6533 62.8271 44.392 61.363C45.0549 65.1133 45.4527 68.5824 45.6859 71.0906C45.7837 72.1421 45.854 73.0469 45.8666 73.7282C45.8728 74.0656 45.8663 74.3832 45.8324 74.6511C45.8154 74.7849 45.7876 74.9352 45.7406 75.0808C45.698 75.2125 45.6114 75.4278 45.4262 75.6208C45.2044 75.8512 44.8581 76.0247 44.4428 75.9939C44.0965 75.9678 43.8454 75.8094 43.7152 75.7107C43.4558 75.5137 43.2452 75.2263 43.0795 74.9734C42.722 74.4276 42.2758 73.5594 41.7211 72.3689C40.1855 69.0728 37.6527 62.8896 35.2719 56.7243C35.2296 56.6997 35.1859 56.6767 35.1439 56.6521C32.6198 55.1712 30.6839 53.7913 29.0658 52.3904C24.3381 52.4771 19.9911 52.4842 17.1312 52.4177C15.6692 52.3837 14.505 52.3319 13.7699 52.2058C13.5794 52.1731 13.3845 52.1294 13.2055 52.0691C13.0445 52.0148 12.797 51.9157 12.5863 51.7204C12.331 51.4835 12.1376 51.103 12.223 50.654C12.2919 50.2951 12.5146 50.0516 12.6439 49.9294C12.9129 49.6757 13.3063 49.4604 13.6957 49.2732C14.0798 49.0885 14.5624 48.8858 15.1361 48.6609C15.1933 48.554 15.2548 48.4404 15.3207 48.322C11.5245 48.2064 9.32123 48.0955 8.11561 47.9538C7.76865 47.913 7.4715 47.8669 7.22987 47.8093C7.02719 47.761 6.71271 47.6728 6.45448 47.4714C6.306 47.3555 6.12251 47.1588 6.04041 46.8669C5.9561 46.5655 6.01662 46.2959 6.10389 46.1072C6.24623 45.7999 6.50389 45.605 6.5912 45.5388C7.38707 44.9353 8.53813 44.5309 9.85682 44.238C11.201 43.9395 12.8404 43.7311 14.7103 43.5915C15.8531 43.5063 17.0936 43.4484 18.4193 43.4079C18.6505 43.0666 18.8924 42.7119 19.1449 42.3464C19.106 42.2769 19.07 42.2034 19.0394 42.1277C18.8668 41.6987 18.8652 41.2466 18.9808 40.82C19.0799 40.4555 19.2689 40.0982 19.5267 39.7497C18.9111 38.5978 18.3606 37.4693 17.8715 36.3777C17.4941 36.2383 17.1469 36.1035 16.8344 35.9675C16.0566 35.6291 15.4091 35.2724 14.9633 34.8796C14.5078 34.4782 14.1115 33.8866 14.2533 33.1589C14.38 32.5112 14.8808 32.0937 15.2523 31.8532C15.4691 31.7131 15.7179 31.5869 15.9818 31.4714C15.5665 30.1783 15.2505 28.9897 15.0306 27.9363C14.931 27.459 14.8626 27.0044 14.8539 26.5906C14.8454 26.1828 14.8922 25.7456 15.0785 25.3435C15.2792 24.9107 15.6193 24.5694 16.0795 24.3611C16.5078 24.1674 16.9821 24.1133 17.4398 24.1218C19.977 24.1692 22.8099 25.5518 25.7025 27.7107C25.9358 27.8848 26.1707 28.0661 26.4066 28.2517C26.1719 26.9195 26.0273 25.8436 25.9389 24.9988C25.9055 24.6804 25.8617 24.2486 25.9174 23.8708C25.9785 23.4576 26.2136 22.8189 26.975 22.5779C27.5525 22.3953 28.1741 22.5512 28.6713 22.7253C29.226 22.9197 29.9174 23.2475 30.7728 23.7116C30.9565 23.8113 31.1506 23.9202 31.3539 24.0349C30.7066 21.2012 30.1664 18.5325 29.8187 16.3943C29.3833 13.716 29.243 11.8236 29.4515 10.4353C29.6738 8.95743 30.3005 8.009 31.3197 7.30442ZM38.1889 58.3415C40.2035 63.4786 42.2187 68.3571 43.5433 71.237C43.2817 68.4315 42.8161 64.4549 42.0082 60.2585C40.699 59.6335 39.4117 58.988 38.1889 58.3415ZM63.0805 48.6423C63.1433 50.1798 62.9907 51.5531 62.6928 52.6413C62.2229 54.3569 60.8646 55.6081 59.1215 56.0593C58.6628 57.0473 58.1847 57.8405 57.7357 58.4431C57.3539 58.9553 56.9754 59.3594 56.6283 59.6316C56.46 59.7635 56.2541 59.8986 56.0258 59.987C55.8654 60.0491 55.335 60.2272 54.8217 59.8952C54.1519 59.4612 53.9632 58.7706 53.9642 58.1804C53.9653 57.707 54.0845 57.1907 54.2592 56.6648L53.8129 56.9734C53.4719 58.0378 52.991 58.949 52.4213 59.655C51.8509 60.3617 51.1383 60.9271 50.3324 61.1609C50.0036 61.2561 49.6835 61.2691 49.3773 61.2282C51.0991 61.9092 52.7247 62.4903 54.143 62.9109C59.0969 64.3799 61.242 63.8931 62.8031 63.1091C64.5655 62.2239 65.8346 61.0904 66.1976 59.3894C66.46 58.1592 66.6902 56.7672 66.7972 55.2468C66.3386 55.4004 65.9443 55.1975 65.8119 55.1101C65.6517 55.004 65.551 54.8797 65.5111 54.8279C65.4593 54.7605 65.4152 54.6919 65.3812 54.6345C65.253 54.4179 65.1054 54.0918 64.9418 53.6999C64.6038 52.8901 64.1154 51.5886 63.4672 49.7546C63.343 49.4032 63.2159 49.0302 63.0805 48.6423ZM21.4613 48.5915C19.4872 49.2665 17.9212 49.8148 16.7308 50.2595C16.7351 50.2919 16.7377 50.3249 16.7387 50.3572C16.8815 50.3611 17.0297 50.3663 17.183 50.3699C19.5911 50.4259 23.0767 50.4285 26.9555 50.3757C26.4051 49.7941 25.8848 49.1974 25.3793 48.5798C24.1312 48.55 22.9152 48.519 21.7533 48.4909C21.6552 48.5244 21.5577 48.5586 21.4613 48.5915ZM66.2299 48.2605C66.3147 48.5802 66.3918 48.8906 66.4691 49.1872C66.2628 48.0769 65.9646 46.931 65.5531 45.7575C65.7966 46.6467 66.0244 47.4858 66.2299 48.2605ZM22.9828 45.3894C21.8091 45.3904 20.6849 45.4018 19.6156 45.4245C19.4288 45.7058 19.2491 45.9772 19.0795 46.238C19.0503 46.2828 19.0202 46.3286 18.9916 46.3728C19.7621 46.3924 20.5715 46.412 21.4105 46.4324C22.0025 46.2307 22.6248 46.021 23.2719 45.8025C23.1746 45.6653 23.0782 45.5264 22.9828 45.3894ZM17.0297 45.5115C16.2766 45.5454 15.5579 45.5847 14.8773 45.6355C13.3629 45.7485 12.0529 45.9034 10.9652 46.1062C12.3122 46.1739 14.1188 46.2412 16.5199 46.3093C16.6792 46.0551 16.851 45.7891 17.0297 45.5115ZM21.1322 38.2419C21.4142 38.0342 21.7026 37.8335 21.9955 37.6423C21.5198 37.5168 21.0683 37.3942 20.642 37.2722C20.7999 37.5926 20.9634 37.9165 21.1322 38.2419ZM67.3265 36.5124C67.2765 36.971 67.1282 37.4641 66.9213 37.9695C67.3875 37.9204 67.8325 37.8718 68.2553 37.822C69.6385 37.6592 70.7766 37.4942 71.682 37.3366C70.5992 37.1098 69.1649 36.8407 67.3265 36.5124ZM62.8392 36.073C62.8244 36.075 62.8083 36.0768 62.7933 36.0788C62.8242 36.1834 62.8554 36.2889 62.8861 36.3933C62.9634 36.5122 63.0401 36.6328 63.1176 36.7527C63.0546 36.5145 62.9734 36.2866 62.8764 36.0681C62.8643 36.0697 62.8514 36.0713 62.8392 36.073ZM65.1996 36.2566C65.2001 36.251 65.2012 36.2444 65.2015 36.239C65.2038 36.1959 65.2017 36.1625 65.1996 36.1384C65.1876 36.1363 65.1755 36.1337 65.1635 36.1316C65.1752 36.1728 65.1885 36.2147 65.1996 36.2566ZM26.4223 32.5105C22.7757 32.3073 20.1705 32.4262 18.6928 32.7683C18.934 33.4132 19.1977 34.0806 19.4896 34.7644C19.8029 34.8687 20.14 34.9774 20.5004 35.0866C21.4346 35.3697 22.519 35.6649 23.7611 35.9734C24.59 34.8736 25.4788 33.7181 26.4223 32.5105ZM16.5658 33.4861C16.6105 33.518 16.6619 33.5511 16.7181 33.5866C16.6988 33.5354 16.6796 33.4833 16.6605 33.4323C16.6274 33.4493 16.5962 33.469 16.5658 33.4861ZM17.3978 26.1716C17.1958 26.1679 17.0854 26.1907 17.0336 26.2048C17.0191 26.2546 16.9955 26.3597 16.9994 26.5495C17.0046 26.7932 17.0477 27.1155 17.1351 27.5349C17.3382 28.5077 17.6315 29.6123 18.017 30.8181C18.0429 30.8117 18.0696 30.8048 18.0951 30.7986C19.7739 30.3919 22.4101 30.2759 25.7806 30.4294C25.307 30.0367 24.8407 29.6669 24.3812 29.3239C21.591 27.2414 19.221 26.2057 17.3978 26.1716ZM28.0756 24.7937C28.1923 25.9085 28.4134 27.4782 28.8402 29.5769C29.5153 28.6238 30.2437 27.6849 31.0219 26.7947C31.1305 26.6704 31.2411 26.5481 31.35 26.4265C30.7457 26.0709 30.1946 25.7556 29.7123 25.4939C28.9818 25.0975 28.449 24.8475 28.0668 24.7009C28.0697 24.7302 28.0722 24.7615 28.0756 24.7937ZM35.599 25.1101C35.3965 25.2956 35.1931 25.4844 34.9906 25.6784C35.0405 25.6579 35.091 25.639 35.141 25.6189L35.599 25.1101ZM38.6508 8.30344C36.0711 7.75309 33.7745 8.13764 32.5775 8.96457C32.0656 9.31848 31.7218 9.75459 31.5756 10.7273C31.4161 11.7902 31.5085 13.4207 31.9408 16.0798C32.3033 18.3089 32.8799 21.1386 33.5726 24.1306C37.0054 20.8647 40.464 18.7614 43.3461 17.404C43.4194 17.2945 43.4911 17.1851 43.5639 17.0788C44.2065 16.1408 45.155 15.7022 46.1469 15.6286C46.3298 14.9228 46.521 14.2634 46.7142 13.655C43.4015 10.0485 40.96 8.79623 38.6508 8.30344ZM50.3461 10.5056C50.1113 10.8759 49.8011 11.4772 49.4564 12.3269C49.3471 12.5963 49.2362 12.8873 49.1244 13.198C51.613 16.0635 54.4463 20.0458 56.7992 24.0144C56.7209 23.7813 56.6463 23.5507 56.5697 23.3259C54.1214 16.1377 52.6431 13.4507 51.556 11.907C51.0594 11.2018 50.6456 10.7468 50.3461 10.5056Z" fill="#FBE300"/>
<path fill-rule="evenodd" clip-rule="evenodd" d="M31.3197 7.30442C33.186 6.01512 36.1823 5.67745 39.1176 6.30344C41.7784 6.87122 44.3757 8.24472 47.5131 11.446C47.9831 10.3098 48.4643 9.41963 48.9037 8.90207C49.2348 8.51238 49.7176 8.28173 50.2719 8.30735C50.7529 8.32971 51.1666 8.53968 51.4769 8.75168C52.102 9.17893 52.7339 9.90758 53.3373 10.7644C54.5896 12.5429 56.1392 15.4416 58.6088 22.6921C58.8906 23.5196 59.1832 24.4048 59.4847 25.3318C60.0012 25.6141 60.4803 25.9316 60.9105 26.2859C62.9424 27.9595 63.7258 30.5163 63.0599 32.9919C63.4245 33.2487 63.7465 33.5327 64.0111 33.8474C64.1381 33.8694 64.2645 33.891 64.39 33.9128C64.9628 33.9229 65.4706 33.9975 65.8988 34.156C65.9305 34.1677 65.9623 34.1802 65.9935 34.1931C66.5874 34.2972 67.1573 34.3974 67.6976 34.4939C71.2068 35.1202 73.4639 35.5666 74.5824 35.9519C74.862 36.0482 75.1583 36.1688 75.3969 36.3318C75.584 36.4598 76.1082 36.8789 75.9799 37.5749C75.9233 37.8796 75.7549 38.0946 75.6234 38.2234C75.4918 38.3522 75.3464 38.4446 75.2299 38.5085C74.9984 38.6352 74.7214 38.7355 74.4496 38.82C73.345 39.1633 71.3656 39.521 68.518 39.8562C67.7071 39.9516 66.82 40.0445 65.8568 40.1365C65.7607 40.3199 65.6639 40.5036 65.5668 40.6863C65.8057 41.1061 66.0301 41.5247 66.2396 41.9402C66.7441 42.0715 67.1952 42.1841 67.5922 42.2761C68.1659 42.409 68.6254 42.5059 68.9818 42.5827C69.2795 42.6469 69.6348 42.7211 69.8539 42.8093C69.9066 42.8305 70.0195 42.8797 70.1371 42.9685C70.2205 43.0315 70.5532 43.3018 70.5551 43.7868C70.5564 44.306 70.1845 44.5816 70.0707 44.655C69.9325 44.7439 69.8011 44.7835 69.7455 44.7995C69.5371 44.8595 69.2845 44.8743 69.1107 44.8816C68.7467 44.8967 68.2068 44.8912 67.5033 44.862C69.6446 50.7757 69.1011 56.0481 68.3012 59.7986C67.7534 62.3653 65.8282 63.9074 63.8031 64.9245C61.5764 66.0428 58.8001 66.4378 53.5062 64.8679C50.899 64.0947 47.6533 62.8271 44.392 61.363C45.0549 65.1133 45.4527 68.5824 45.6859 71.0906C45.7837 72.1421 45.854 73.0469 45.8666 73.7282C45.8728 74.0656 45.8663 74.3832 45.8324 74.6511C45.8154 74.7849 45.7876 74.9352 45.7406 75.0808C45.698 75.2125 45.6114 75.4278 45.4262 75.6208C45.2044 75.8512 44.8581 76.0247 44.4428 75.9939C44.0965 75.9678 43.8454 75.8094 43.7152 75.7107C43.4558 75.5137 43.2452 75.2263 43.0795 74.9734C42.722 74.4276 42.2758 73.5594 41.7211 72.3689C40.1855 69.0728 37.6527 62.8896 35.2719 56.7243C35.2296 56.6997 35.1859 56.6767 35.1439 56.6521C32.6198 55.1712 30.6839 53.7913 29.0658 52.3904C24.3381 52.4771 19.9911 52.4842 17.1312 52.4177C15.6692 52.3837 14.505 52.3319 13.7699 52.2058C13.5794 52.1731 13.3845 52.1294 13.2055 52.0691C13.0445 52.0148 12.797 51.9157 12.5863 51.7204C12.331 51.4835 12.1376 51.103 12.223 50.654C12.2919 50.2951 12.5146 50.0516 12.6439 49.9294C12.9129 49.6757 13.3063 49.4604 13.6957 49.2732C14.0798 49.0885 14.5624 48.8858 15.1361 48.6609C15.1933 48.554 15.2548 48.4404 15.3207 48.322C11.5245 48.2064 9.32123 48.0955 8.11561 47.9538C7.76865 47.913 7.4715 47.8669 7.22987 47.8093C7.02719 47.761 6.71271 47.6728 6.45448 47.4714C6.306 47.3555 6.12251 47.1588 6.04041 46.8669C5.9561 46.5655 6.01662 46.2959 6.10389 46.1072C6.24623 45.7999 6.50389 45.605 6.5912 45.5388C7.38707 44.9353 8.53813 44.5309 9.85682 44.238C11.201 43.9395 12.8404 43.7311 14.7103 43.5915C15.8531 43.5063 17.0936 43.4484 18.4193 43.4079C18.6505 43.0666 18.8924 42.7119 19.1449 42.3464C19.106 42.2769 19.07 42.2034 19.0394 42.1277C18.8668 41.6987 18.8652 41.2466 18.9808 40.82C19.0799 40.4555 19.2689 40.0982 19.5267 39.7497C18.9111 38.5978 18.3606 37.4693 17.8715 36.3777C17.4941 36.2383 17.1469 36.1035 16.8344 35.9675C16.0566 35.6291 15.4091 35.2724 14.9633 34.8796C14.5078 34.4782 14.1115 33.8866 14.2533 33.1589C14.38 32.5112 14.8808 32.0937 15.2523 31.8532C15.4691 31.7131 15.7179 31.5869 15.9818 31.4714C15.5665 30.1783 15.2505 28.9897 15.0306 27.9363C14.931 27.459 14.8626 27.0044 14.8539 26.5906C14.8454 26.1828 14.8922 25.7456 15.0785 25.3435C15.2792 24.9107 15.6193 24.5694 16.0795 24.3611C16.5078 24.1674 16.9821 24.1133 17.4398 24.1218C19.977 24.1692 22.8099 25.5518 25.7025 27.7107C25.9358 27.8848 26.1707 28.0661 26.4066 28.2517C26.1719 26.9195 26.0273 25.8436 25.9389 24.9988C25.9055 24.6804 25.8617 24.2486 25.9174 23.8708C25.9785 23.4576 26.2136 22.8189 26.975 22.5779C27.5525 22.3953 28.1741 22.5512 28.6713 22.7253C29.226 22.9197 29.9174 23.2475 30.7728 23.7116C30.9565 23.8113 31.1506 23.9202 31.3539 24.0349C30.7066 21.2012 30.1664 18.5325 29.8187 16.3943C29.3833 13.716 29.243 11.8236 29.4515 10.4353C29.6738 8.95743 30.3005 8.009 31.3197 7.30442ZM38.1889 58.3415C40.2035 63.4786 42.2187 68.3571 43.5433 71.237C43.2817 68.4315 42.8161 64.4549 42.0082 60.2585C40.699 59.6335 39.4117 58.988 38.1889 58.3415ZM63.0805 48.6423C63.1433 50.1798 62.9907 51.5531 62.6928 52.6413C62.2229 54.3569 60.8646 55.6081 59.1215 56.0593C58.6628 57.0473 58.1847 57.8405 57.7357 58.4431C57.3539 58.9553 56.9754 59.3594 56.6283 59.6316C56.46 59.7635 56.2541 59.8986 56.0258 59.987C55.8654 60.0491 55.335 60.2272 54.8217 59.8952C54.1519 59.4612 53.9632 58.7706 53.9642 58.1804C53.9653 57.707 54.0845 57.1907 54.2592 56.6648L53.8129 56.9734C53.4719 58.0378 52.991 58.949 52.4213 59.655C51.8509 60.3617 51.1383 60.9271 50.3324 61.1609C50.0036 61.2561 49.6835 61.2691 49.3773 61.2282C51.0991 61.9092 52.7247 62.4903 54.143 62.9109C59.0969 64.3799 61.242 63.8931 62.8031 63.1091C64.5655 62.2239 65.8346 61.0904 66.1976 59.3894C66.46 58.1592 66.6902 56.7672 66.7972 55.2468C66.3386 55.4004 65.9443 55.1975 65.8119 55.1101C65.6517 55.004 65.551 54.8797 65.5111 54.8279C65.4593 54.7605 65.4152 54.6919 65.3812 54.6345C65.253 54.4179 65.1054 54.0918 64.9418 53.6999C64.6038 52.8901 64.1154 51.5886 63.4672 49.7546C63.343 49.4032 63.2159 49.0302 63.0805 48.6423ZM21.4613 48.5915C19.4872 49.2665 17.9212 49.8148 16.7308 50.2595C16.7351 50.2919 16.7377 50.3249 16.7387 50.3572C16.8815 50.3611 17.0297 50.3663 17.183 50.3699C19.5911 50.4259 23.0767 50.4285 26.9555 50.3757C26.4051 49.7941 25.8848 49.1974 25.3793 48.5798C24.1312 48.55 22.9152 48.519 21.7533 48.4909C21.6552 48.5244 21.5577 48.5586 21.4613 48.5915ZM66.2299 48.2605C66.3147 48.5802 66.3918 48.8906 66.4691 49.1872C66.2628 48.0769 65.9646 46.931 65.5531 45.7575C65.7966 46.6467 66.0244 47.4858 66.2299 48.2605ZM22.9828 45.3894C21.8091 45.3904 20.6849 45.4018 19.6156 45.4245C19.4288 45.7058 19.2491 45.9772 19.0795 46.238C19.0503 46.2828 19.0202 46.3286 18.9916 46.3728C19.7621 46.3924 20.5715 46.412 21.4105 46.4324C22.0025 46.2307 22.6248 46.021 23.2719 45.8025C23.1746 45.6653 23.0782 45.5264 22.9828 45.3894ZM17.0297 45.5115C16.2766 45.5454 15.5579 45.5847 14.8773 45.6355C13.3629 45.7485 12.0529 45.9034 10.9652 46.1062C12.3122 46.1739 14.1188 46.2412 16.5199 46.3093C16.6792 46.0551 16.851 45.7891 17.0297 45.5115ZM21.1322 38.2419C21.4142 38.0342 21.7026 37.8335 21.9955 37.6423C21.5198 37.5168 21.0683 37.3942 20.642 37.2722C20.7999 37.5926 20.9634 37.9165 21.1322 38.2419ZM67.3265 36.5124C67.2765 36.971 67.1282 37.4641 66.9213 37.9695C67.3875 37.9204 67.8325 37.8718 68.2553 37.822C69.6385 37.6592 70.7766 37.4942 71.682 37.3366C70.5992 37.1098 69.1649 36.8407 67.3265 36.5124ZM62.8392 36.073C62.8244 36.075 62.8083 36.0768 62.7933 36.0788C62.8242 36.1834 62.8554 36.2889 62.8861 36.3933C62.9634 36.5122 63.0401 36.6328 63.1176 36.7527C63.0546 36.5145 62.9734 36.2866 62.8764 36.0681C62.8643 36.0697 62.8514 36.0713 62.8392 36.073ZM65.1996 36.2566C65.2001 36.251 65.2012 36.2444 65.2015 36.239C65.2038 36.1959 65.2017 36.1625 65.1996 36.1384C65.1876 36.1363 65.1755 36.1337 65.1635 36.1316C65.1752 36.1728 65.1885 36.2147 65.1996 36.2566ZM26.4223 32.5105C22.7757 32.3073 20.1705 32.4262 18.6928 32.7683C18.934 33.4132 19.1977 34.0806 19.4896 34.7644C19.8029 34.8687 20.14 34.9774 20.5004 35.0866C21.4346 35.3697 22.519 35.6649 23.7611 35.9734C24.59 34.8736 25.4788 33.7181 26.4223 32.5105ZM16.5658 33.4861C16.6105 33.518 16.6619 33.5511 16.7181 33.5866C16.6988 33.5354 16.6796 33.4833 16.6605 33.4323C16.6274 33.4493 16.5962 33.469 16.5658 33.4861ZM17.3978 26.1716C17.1958 26.1679 17.0854 26.1907 17.0336 26.2048C17.0191 26.2546 16.9955 26.3597 16.9994 26.5495C17.0046 26.7932 17.0477 27.1155 17.1351 27.5349C17.3382 28.5077 17.6315 29.6123 18.017 30.8181C18.0429 30.8117 18.0696 30.8048 18.0951 30.7986C19.7739 30.3919 22.4101 30.2759 25.7806 30.4294C25.307 30.0367 24.8407 29.6669 24.3812 29.3239C21.591 27.2414 19.221 26.2057 17.3978 26.1716ZM28.0756 24.7937C28.1923 25.9085 28.4134 27.4782 28.8402 29.5769C29.5153 28.6238 30.2437 27.6849 31.0219 26.7947C31.1305 26.6704 31.2411 26.5481 31.35 26.4265C30.7457 26.0709 30.1946 25.7556 29.7123 25.4939C28.9818 25.0975 28.449 24.8475 28.0668 24.7009C28.0697 24.7302 28.0722 24.7615 28.0756 24.7937ZM35.599 25.1101C35.3965 25.2956 35.1931 25.4844 34.9906 25.6784C35.0405 25.6579 35.091 25.639 35.141 25.6189L35.599 25.1101ZM38.6508 8.30344C36.0711 7.75309 33.7745 8.13764 32.5775 8.96457C32.0656 9.31848 31.7218 9.75459 31.5756 10.7273C31.4161 11.7902 31.5085 13.4207 31.9408 16.0798C32.3033 18.3089 32.8799 21.1386 33.5726 24.1306C37.0054 20.8647 40.464 18.7614 43.3461 17.404C43.4194 17.2945 43.4911 17.1851 43.5639 17.0788C44.2065 16.1408 45.155 15.7022 46.1469 15.6286C46.3298 14.9228 46.521 14.2634 46.7142 13.655C43.4015 10.0485 40.96 8.79623 38.6508 8.30344ZM50.3461 10.5056C50.1113 10.8759 49.8011 11.4772 49.4564 12.3269C49.3471 12.5963 49.2362 12.8873 49.1244 13.198C51.613 16.0635 54.4463 20.0458 56.7992 24.0144C56.7209 23.7813 56.6463 23.5507 56.5697 23.3259C54.1214 16.1377 52.6431 13.4507 51.556 11.907C51.0594 11.2018 50.6456 10.7468 50.3461 10.5056Z" stroke="black" stroke-width="12" mask="url(#path-1-outside-1_515_2875)"/>
</svg>
