<svg width="70" height="70" viewBox="0 0 70 70" fill="none" xmlns="http://www.w3.org/2000/svg">
<path fill-rule="evenodd" clip-rule="evenodd" d="M28.1334 0.00547887C28.5096 0.0446442 28.7508 0.273867 28.7808 0.300867C28.8584 0.370706 28.9137 0.438175 28.9408 0.472298C28.9988 0.544998 29.0465 0.617893 29.0752 0.663509C29.1377 0.762632 29.207 0.884405 29.2762 1.01164C29.3522 1.15131 29.4411 1.32355 29.5438 1.5233C29.8013 1.66836 29.9907 1.87115 30.0977 1.99276C30.2683 2.18668 30.439 2.42298 30.6048 2.67584C31.2574 3.67064 32.1749 5.43534 33.3123 7.77788C34.1614 9.52659 35.15 11.644 36.2757 14.0786C36.6152 14.2698 36.9807 14.4774 37.3648 14.701C39.2855 15.8194 41.7134 17.3354 43.863 19.0185C45.9591 20.6596 47.993 22.6115 48.8912 24.6559C48.9655 24.825 49.0309 24.9993 49.091 25.1755C49.267 25.0961 49.4662 25.0183 49.6718 24.9869C49.84 24.9613 50.1833 24.9463 50.5225 25.1385C51.3685 23.3675 52.133 21.7766 52.7684 20.4664C53.5963 18.7592 54.2195 17.4967 54.6229 16.745C54.8019 16.4113 55.0015 16.0539 55.1803 15.8351C55.2208 15.7855 55.3442 15.6366 55.5296 15.52C55.6239 15.4608 55.831 15.3476 56.1127 15.3432C56.4528 15.3381 56.7915 15.495 57.0324 15.7982C57.2328 16.0506 57.2977 16.3182 57.321 16.4457C57.3468 16.5872 57.348 16.7074 57.3467 16.778C57.3441 16.9187 57.3247 17.0419 57.3117 17.1156C57.2616 17.3972 57.1442 17.7945 57.0055 18.2286C56.8571 18.693 56.6527 19.2947 56.3955 20.0312C55.8807 21.506 55.1397 23.5611 54.173 26.2212C53.5352 27.976 52.7976 29.9883 51.9972 32.1632C52.9806 33.5991 54.0253 35.1875 55.0833 36.8486C55.3406 37.2526 55.5975 37.6628 55.8568 38.0749C56.5611 33.8833 57.0733 27.9085 57.3864 23.2752C57.5232 21.2513 57.6173 19.5018 57.6774 18.2984C57.6809 17.9082 57.6879 17.6566 57.6926 17.5626C57.7102 17.2092 57.7242 16.9482 57.7347 16.774C57.7398 16.6885 57.7445 16.6155 57.7487 16.5617C57.7506 16.5378 57.754 16.5015 57.758 16.4655C57.7595 16.4524 57.7654 16.406 57.7756 16.3507C57.7785 16.3345 57.7944 16.2429 57.8317 16.1345C57.8582 16.0635 57.9558 15.8675 58.035 15.7494C58.2541 15.5229 58.9911 15.272 59.4606 15.4013C59.7188 15.5888 59.9976 15.975 60.0565 16.1147C60.0807 16.1881 60.1118 16.309 60.1208 16.3547C60.1348 16.4328 60.1393 16.4958 60.1407 16.5142C60.1441 16.5613 60.1451 16.6006 60.1453 16.6145C60.1459 16.6489 60.1457 16.6843 60.1453 16.7081C60.1445 16.7605 60.1421 16.829 60.1395 16.9072C60.1342 17.0669 60.1254 17.2962 60.1126 17.5837C60.1023 17.8151 60.0858 18.0875 60.0706 18.3947C60.059 20.1461 60.1709 25.0322 61.5032 31.1834C62.3673 35.1728 63.7608 39.8087 65.2764 44.6724C66.7844 49.5116 68.4123 54.5733 69.7063 59.3284C69.8026 59.6823 69.8851 60.0142 69.9365 60.295C69.962 60.4344 69.9852 60.5925 69.9949 60.7513C70.0026 60.8768 70.0143 61.1557 69.9225 61.4568C69.8717 61.6228 69.769 61.862 69.5626 62.07C69.3391 62.2947 69.0666 62.4088 68.8018 62.4273C68.3618 62.4579 68.0414 62.223 67.9465 62.1517C67.6977 61.9648 67.4661 61.681 67.2804 61.437C66.4877 60.3956 64.9795 57.948 62.4742 53.7622C60.9013 51.1341 58.9508 47.848 56.9097 44.4957C56.1751 47.3704 55.3099 50.3463 54.5411 52.9156C54.6066 53.0508 54.6627 53.2191 54.6813 53.4219C54.7289 53.9448 54.5052 54.3172 54.3553 54.4941C54.2168 54.6572 54.0755 54.7415 54.0176 54.7736C54.0038 54.7812 53.9884 54.7844 53.9755 54.7908C53.8248 55.2898 53.6829 55.7659 53.549 56.211C53.4659 56.4869 53.3811 56.7539 53.3013 57.0128C53.4549 57.4176 53.5953 57.7794 53.7137 58.1033C54.0793 59.1033 54.3123 59.8061 54.395 60.175C54.4072 60.2296 54.4217 60.3006 54.4324 60.3781C54.4392 60.4271 54.4627 60.5988 54.4394 60.8053C54.4285 60.9016 54.3928 61.1507 54.2372 61.408C54.0394 61.7347 53.6912 61.9928 53.2604 62.0001C53.1661 62.0016 53.0798 61.9876 53.0021 61.9697C52.9738 62.0385 52.9425 62.1103 52.9016 62.1794C52.6288 62.6402 52.2103 62.8238 51.8605 62.8506C51.5628 62.8732 51.3068 62.7893 51.1476 62.724C50.8193 62.5893 50.4674 62.3496 50.1252 62.0871C50.0059 61.9956 49.8808 61.8901 49.7454 61.7785C49.7016 61.777 49.6568 61.78 49.6122 61.7759C48.9444 61.7146 48.301 61.3663 47.6935 60.928C46.5388 61.1862 44.0606 61.4011 40.6659 61.5451C40.5385 61.5505 40.4093 61.5544 40.2791 61.5596C39.695 62.8035 39.1427 63.9178 38.6315 64.8643C37.5444 66.877 36.5809 68.2787 35.6973 69.0907C35.2509 69.5008 34.7515 69.8294 34.2028 69.9505C33.6128 70.0805 33.0426 69.9519 32.5575 69.5931C32.1076 69.2602 31.7981 68.78 31.5794 68.3166C31.3571 67.8454 31.1888 67.3068 31.0571 66.7527C30.7941 65.646 30.6376 64.3111 30.5371 62.9548C30.5081 62.5644 30.4832 62.1678 30.4623 61.7653C24.5872 61.8083 18.2552 61.7399 13.4893 61.5557C9.58127 61.4046 6.77374 61.1757 4.79897 60.8475C3.81168 60.6834 2.99955 60.489 2.34622 60.2528C1.70493 60.0209 1.13462 59.7207 0.70209 59.2902C0.490019 59.0789 0.243368 58.7677 0.10497 58.3433C-0.0485486 57.8724 -0.038132 57.3511 0.165734 56.869C0.350166 56.4333 0.652931 56.1212 0.941639 55.8971C1.23755 55.6676 1.59402 55.4721 1.99215 55.3011C2.60802 55.0366 3.42871 54.7864 4.49164 54.5521C4.52975 54.2427 4.6096 53.9327 4.716 53.6237C4.93667 52.9832 5.31788 52.2101 5.88453 51.2395C7.02293 49.2896 9.05075 46.3015 12.4949 41.5603C14.7533 38.4514 17.6011 34.6156 20.5169 30.8722C16.1699 25.6036 13.9669 22.2901 13.0044 20.5073C12.8571 20.2345 12.7103 19.9456 12.6059 19.6778C12.5536 19.5434 12.4954 19.3734 12.4587 19.1859C12.425 19.0136 12.3853 18.708 12.4704 18.3617C12.572 17.9492 12.8228 17.6 13.1762 17.407C13.4733 17.245 13.7584 17.2391 13.9264 17.2501C14.2587 17.2719 14.6051 17.3997 14.8974 17.5257C16.0961 18.0426 18.4784 19.4942 22.6039 22.0633C23.5708 22.6655 24.7008 23.3759 25.9412 24.1548C26.4852 23.5122 27.0219 22.8907 27.5456 22.2967C27.2804 14.5679 27.4844 7.09102 27.5246 3.49607C27.5189 3.48232 27.5127 3.46876 27.5071 3.45519C27.2885 2.92719 27.1267 2.52099 27.0233 2.24067C26.9743 2.10794 26.9242 1.96789 26.8901 1.84506C26.878 1.80158 26.8414 1.66876 26.827 1.51011C26.8224 1.46038 26.7969 1.20886 26.8866 0.91538C26.9382 0.746608 27.0553 0.47672 27.3119 0.263944C27.588 0.0352569 27.8938 -0.0192771 28.1334 0.00547887ZM37.5144 61.6506C36.0532 61.6903 34.4851 61.7178 32.8578 61.739C32.876 62.0742 32.898 62.4043 32.922 62.7293C33.0183 64.0281 33.1603 65.1765 33.3684 66.0524C33.4722 66.4891 33.5829 66.8175 33.6909 67.0467C33.7407 67.1522 33.784 67.2215 33.8148 67.2656C33.8863 67.2298 34.0109 67.1579 34.1864 66.9966C34.7448 66.4834 35.5376 65.405 36.5889 63.4586C36.8838 62.9126 37.1918 62.3064 37.5144 61.6506ZM16.42 55.9341C14.5733 56.0447 12.8631 56.1665 11.3603 56.3046C10.0609 56.4241 8.92615 56.5548 7.93881 56.6897C7.26527 56.9583 6.6094 57.1351 6.02826 57.0444C5.98322 57.0374 5.93821 57.0234 5.89271 57.0128C4.65937 57.2403 3.7683 57.4746 3.14783 57.7038C3.62366 57.8688 4.2731 58.0306 5.14719 58.1759C6.98539 58.4814 9.68488 58.7061 13.5711 58.8563C15.1043 58.9156 16.802 58.9592 18.5947 58.9948C18.4833 58.9844 18.3759 58.977 18.2745 58.9658C17.8397 58.9176 17.4373 58.8547 17.1176 58.76C16.9627 58.7141 16.7605 58.642 16.5673 58.5174C16.4022 58.4108 16.0154 58.12 15.8895 57.5323C15.7512 56.8862 16.0289 56.3995 16.1898 56.1859C16.2629 56.089 16.3425 56.0051 16.42 55.9341ZM47.011 55.0176C46.9822 55.018 46.9524 55.0185 46.9234 55.0189C46.8063 55.1054 46.6889 55.1922 46.5717 55.2774C47.336 56.0363 48.0384 56.7245 48.6633 57.3253C48.8491 57.5038 49.028 57.6727 49.1985 57.8343C49.14 57.7154 49.0821 57.5928 49.0209 57.469C48.6527 56.7238 48.2377 55.8994 47.7905 55.0057C47.5406 55.0093 47.2806 55.0136 47.011 55.0176ZM43.5125 57.3451C43.5342 57.3465 43.5563 57.3476 43.5779 57.349C43.5687 57.3397 43.5602 57.3294 43.551 57.32C43.5382 57.3281 43.5253 57.337 43.5125 57.3451ZM40.396 55.127C39.986 55.2826 39.5667 55.4293 39.1433 55.5675C39.1257 55.6104 39.1078 55.6534 39.0907 55.6954C38.869 56.2401 38.6976 56.6903 38.5672 57.0589C38.9604 56.8869 39.413 56.6658 39.911 56.4022C40.0915 55.9851 40.2752 55.5599 40.4591 55.127C40.4382 55.1274 40.4169 55.1267 40.396 55.127ZM36.229 56.3996C35.5137 56.581 34.7941 56.7517 34.0859 56.9125C34.7441 56.9364 35.3997 56.9627 36.0467 56.9877C36.0975 56.8043 36.1597 56.6085 36.229 56.3996ZM24.733 55.5411C23.8775 55.8197 23.0799 56.0823 22.3608 56.3244C22.201 56.3782 22.0449 56.4312 21.8934 56.4826C21.9592 56.4854 22.0261 56.4905 22.0932 56.4932C23.07 56.5329 24.1871 56.5686 25.3955 56.6106C25.6942 56.36 26.0887 56.1529 26.5232 55.9657L26.5722 55.9446L26.6236 55.9288C27.177 55.7515 27.8144 55.5848 28.505 55.4158C27.2434 55.455 25.9808 55.4947 24.733 55.5411ZM59.11 31.4933C58.7951 34.642 58.4088 37.7245 57.9403 40.0583C57.8733 40.3923 57.8014 40.7326 57.7265 41.0776C60.1932 45.0864 62.6011 49.1497 64.4572 52.2509C64.934 53.0475 65.3731 53.774 65.773 54.436C64.8848 51.5008 63.937 48.5143 63.0188 45.5678C61.5061 40.7137 60.0748 35.9602 59.179 31.8243C59.1551 31.714 59.1332 31.6029 59.11 31.4933ZM22.1669 32.845C19.3299 36.4932 16.5586 40.2259 14.3459 43.2719C10.9025 48.0121 8.94568 50.905 7.88272 52.7257C7.55148 53.2931 7.32266 53.7359 7.16408 54.0787C7.22961 54.0691 7.29606 54.0591 7.36273 54.0496C8.60059 53.5144 10.6923 52.3009 14.1577 49.9749C16.0357 48.7144 18.2922 47.1418 20.7296 45.4161C20.2357 44.935 20.0075 44.2784 20.0331 43.599C20.0581 42.9426 20.3099 42.3557 20.5753 41.9097C20.8519 41.4452 21.2126 41.017 21.5966 40.657C22.4533 39.8541 23.8238 39.1178 25.392 38.3888C25.7601 38.2177 26.1484 38.0423 26.5535 37.864C25.7675 36.9866 25.01 36.1343 24.2936 35.3149C23.5407 34.4537 22.8332 33.6301 22.1669 32.845ZM24.0026 46.2799C20.7901 48.5717 17.7805 50.6867 15.3812 52.2971C14.7849 52.6973 14.2228 53.0659 13.6962 53.4088C16.8236 53.1815 20.5173 52.9983 24.3509 52.8536C26.1688 52.2635 28.2357 51.6108 30.391 50.956C30.4024 49.6222 30.4128 48.2219 30.4109 46.7454C28.0796 46.6247 25.8763 46.422 24.0026 46.2799ZM36.0864 52.0703C35.532 52.2278 34.9743 52.3882 34.4178 52.5503C35.572 52.5228 36.7048 52.4991 37.803 52.4764C37.937 52.1697 38.0826 51.8501 38.2319 51.5138C38.2112 51.5056 38.1905 51.4969 38.1699 51.4887C37.4847 51.6763 36.7882 51.8709 36.0864 52.0703ZM50.8053 35.3954C51.0727 35.5879 51.2861 35.8483 51.4363 36.1431C51.6848 36.6312 51.7593 37.1802 51.7494 37.6648C51.7294 38.6387 51.3669 39.7219 50.6966 40.6016C50.0338 41.471 49.2905 42.2217 48.4881 42.8724C48.5205 42.9886 48.5526 43.1049 48.5851 43.2205C48.8989 44.3383 49.2132 45.42 49.5234 46.4579C49.7483 46.46 49.9593 46.4692 50.1556 46.4896C50.6524 46.5411 51.1613 46.6611 51.5847 46.9432C52.0628 47.262 52.435 47.7983 52.488 48.5151C52.5331 49.1278 52.325 49.6618 52.1327 50.0316C51.8847 50.5085 51.5124 50.9905 51.0892 51.4545C51.1766 51.667 51.2617 51.8769 51.3451 52.0808C51.5555 52.0983 51.7634 52.1166 51.968 52.1283C52.0623 52.1337 52.1555 52.1368 52.2461 52.1415C53.217 48.8987 54.3322 45.0574 55.1358 41.6091C54.4677 40.5305 53.8004 39.4613 53.14 38.4244C52.3874 37.2428 51.6461 36.1069 50.935 35.0419C50.8915 35.1591 50.849 35.2776 50.8053 35.3954ZM45.7397 51.1182C45.7814 51.1285 45.8231 51.1397 45.8647 51.1498C45.8405 51.1013 45.8166 51.0522 45.7923 51.0035C45.7757 51.0422 45.7572 51.0802 45.7397 51.1182ZM32.79 50.2373C33.3597 50.0691 33.9321 49.9035 34.5031 49.7388C33.949 49.2974 33.5353 48.7317 33.3591 47.9916C33.2653 47.5974 33.2548 47.2092 33.2936 46.8417C33.1303 46.84 32.9668 46.838 32.804 46.8351C32.8052 48.0184 32.7981 49.1514 32.79 50.2373ZM40.6005 46.2799C40.0105 46.3923 39.4157 46.4859 38.8196 46.5608C39.0675 47.08 39.3657 47.6404 39.7089 48.2329C39.9928 47.6097 40.2899 46.9561 40.6005 46.2799ZM42.7108 47.5537C42.7349 47.5481 42.7593 47.5422 42.7833 47.5366C42.7687 47.5217 42.7538 47.5068 42.7389 47.4918C42.7295 47.5122 42.7202 47.5333 42.7108 47.5537ZM27.4031 43.8416C28.3718 43.9177 29.3744 43.9857 30.3968 44.0407C30.3896 43.394 30.3795 42.7329 30.3665 42.0574C30.3009 41.9862 30.2356 41.9149 30.1701 41.8438C29.2492 42.5105 28.3235 43.1788 27.4031 43.8416ZM28.2666 40.0161C27.5618 40.3188 26.9047 40.6056 26.3035 40.8851C24.7162 41.623 23.6667 42.2264 23.1251 42.7339C22.8835 42.9604 22.6888 43.2026 22.5618 43.4157C22.5553 43.4267 22.5491 43.4382 22.5431 43.4486C22.6394 43.4686 22.7613 43.4895 22.9136 43.4988C23.0661 43.508 23.2213 43.5199 23.3775 43.5304C24.9794 42.3852 26.6268 41.202 28.2666 40.0161ZM32.7129 39.9963C32.7207 40.2918 32.727 40.5863 32.7339 40.8785C33.4263 41.6267 34.126 42.3785 34.8279 43.1282C35.395 42.2017 36.0338 41.3766 36.7174 40.6425C36.3629 40.3571 36.04 40.0019 35.7405 39.6231C35.4336 39.2348 35.141 38.8379 34.8606 38.4363C34.1561 38.9493 33.4378 39.4696 32.7129 39.9963ZM40.1903 40.9616C39.8004 41.2541 39.4215 41.5736 39.0545 41.915C39.7873 42.1831 40.579 42.6041 41.3285 43.0807C40.9601 42.4322 40.5786 41.7256 40.1903 40.9616ZM42.8557 39.358C43.015 39.6972 43.1762 40.0348 43.336 40.3721C43.4003 40.2341 43.4653 40.0954 43.53 39.9567C43.4207 39.706 43.3121 39.4531 43.2016 39.1998C43.0867 39.2515 42.9707 39.3032 42.8557 39.358ZM36.8822 36.9672C37.0893 37.2573 37.3035 37.5442 37.5261 37.8257C38.1589 38.6263 38.3903 38.6016 38.4177 38.5998C38.5037 38.5945 38.6571 38.541 38.9376 38.3413C38.6241 37.6469 38.3087 36.9184 37.9946 36.1562C37.6298 36.4224 37.2583 36.693 36.8822 36.9672ZM26.4086 27.5386C25.5383 28.5931 24.6485 29.6924 23.7584 30.8155C24.4549 31.638 25.1998 32.5052 25.9973 33.4173C26.9412 34.4969 27.9564 35.6359 29.0168 36.8116C29.0239 36.8087 29.0319 36.8067 29.039 36.8037C28.8054 36.4644 28.7317 36.0798 28.7071 35.9281C28.334 33.6214 28.0632 31.08 27.8693 28.4537C27.3728 28.1423 26.8846 27.8374 26.4086 27.5386ZM32.5504 34.7769C32.5565 34.9558 32.5619 35.1355 32.568 35.3149C32.6818 35.2663 32.7968 35.2177 32.9115 35.1685C32.8169 34.9817 32.7241 34.795 32.6346 34.6081C32.6064 34.665 32.5783 34.7217 32.5504 34.7769ZM34.3652 32.5035C34.6084 33.0603 34.8755 33.6214 35.1691 34.1795C35.5358 34.0158 35.9069 33.8516 36.2792 33.681C35.6468 33.2932 35.0069 32.9002 34.3652 32.5035ZM39.4763 31.8599C39.6055 31.7657 39.7341 31.6727 39.8608 31.5804C39.6544 31.1117 39.4472 30.6425 39.2403 30.1733C38.9895 29.9557 38.7401 29.7421 38.4924 29.5337C38.8114 30.2936 39.1383 31.072 39.4763 31.8599ZM35.2042 28.3008C35.0472 28.7523 34.8848 29.2011 34.7216 29.6432C35.1016 29.8787 35.481 30.1149 35.8597 30.3487C35.7416 29.986 35.6252 29.6177 35.5092 29.245C35.4078 28.919 35.3089 28.5959 35.2112 28.277C35.2086 28.2845 35.2067 28.2933 35.2042 28.3008ZM43.128 29.0432C43.1466 29.0838 43.1656 29.1242 43.1841 29.1645C43.191 29.1595 43.1982 29.1537 43.2051 29.1487C43.2024 29.0771 43.1986 29.0062 43.197 28.9364C43.1802 28.2284 43.2189 27.5205 43.3804 26.9201C43.5387 26.3319 43.905 25.552 44.7172 25.2823C45.4626 25.035 46.1682 25.3688 46.6745 25.7188C46.6783 25.7214 46.6824 25.724 46.6862 25.7267C46.0442 24.3831 44.5136 22.8136 42.4993 21.2365C41.128 20.1628 39.6195 19.1516 38.205 18.2694C39.6778 21.4864 41.3257 25.1014 43.128 29.0432ZM16.434 21.3525C17.602 23.0999 19.4107 25.5589 22.1131 28.8441C22.8309 27.9401 23.548 27.0509 24.255 26.1882C23.2184 25.5375 22.2714 24.9412 21.447 24.4278C19.2764 23.076 17.6437 22.0695 16.434 21.3525ZM32.5656 25.4313C32.5779 26.066 32.6628 26.8388 32.8344 27.7126C32.8813 27.5802 32.9306 27.4478 32.977 27.3144C33.1436 26.8352 33.3034 26.352 33.4584 25.873C33.3241 25.7978 33.1952 25.7277 33.0716 25.6647C32.8771 25.5655 32.7082 25.4901 32.5656 25.4313ZM36.5048 24.1403C36.5737 24.3798 36.6444 24.6225 36.7163 24.8682C36.8038 24.9305 36.8928 24.9925 36.9815 25.0568C36.8313 24.717 36.6808 24.3786 36.5316 24.0414C36.5227 24.0741 36.5138 24.1074 36.5048 24.1403ZM32.3576 22.389C32.3547 22.4535 32.3533 22.5193 32.3506 22.5855C32.538 22.6136 32.7314 22.6629 32.9279 22.7253C32.7369 22.3182 32.5622 21.9583 32.4009 21.6479C32.3842 21.8751 32.3698 22.1228 32.3576 22.389ZM29.8406 8.88295C29.8007 12.012 29.7781 15.8141 29.8663 19.7714C30.0277 19.6042 30.1872 19.4406 30.3443 19.2822C30.414 19.05 30.5012 18.8251 30.6142 18.6268L30.7392 18.4316C30.882 18.2332 31.0796 18.034 31.3469 17.9015C31.5506 17.8007 31.7557 17.7583 31.951 17.7578C32.0686 17.6539 32.1843 17.5516 32.2992 17.4545C32.0787 16.3994 31.9292 15.5176 31.8774 14.8751C31.8508 14.5453 31.8275 14.0716 31.9393 13.6566C31.1588 11.8885 30.4507 10.2773 29.8406 8.88295Z" fill="#FBE300"/>
</svg>
