<svg width="82" height="82" viewBox="0 0 82 82" fill="none" xmlns="http://www.w3.org/2000/svg">
<mask id="path-1-outside-1_515_2877" maskUnits="userSpaceOnUse" x="0" y="-0.998047" width="82" height="84" fill="black">
<rect fill="white" y="-0.998047" width="82" height="84"/>
<path fill-rule="evenodd" clip-rule="evenodd" d="M32.3086 7.01183C33.391 6.07336 34.6794 5.72159 36.1729 6.24523C37.4382 6.68912 38.7611 7.71855 40.2109 9.35949C40.4511 9.35907 40.6945 9.43675 40.9082 9.59777C41.2946 9.88933 41.4849 10.3806 41.4453 10.8634C42.853 12.6973 44.4399 15.1372 46.2441 18.3136C47.1656 19.9358 48.1394 21.7437 49.1367 23.6564C50.6084 21.7845 52.6459 19.4358 54.1231 17.8712C55.853 16.0389 56.7762 15.3343 57.8184 14.4913C58.3718 14.0439 59.1468 14.1793 59.5498 14.7941C59.9524 15.4089 59.8305 16.2701 59.2773 16.7179C58.2506 17.5484 57.4389 18.1645 55.834 19.8644C54.197 21.5982 51.8434 24.339 50.4443 26.1974C50.654 26.6108 50.8632 27.0283 51.0732 27.4474C53.3074 25.9177 55.6124 24.6136 57.9434 23.6876C59.3547 23.1271 60.7154 22.9381 61.7314 23.7736C62.7103 24.579 62.8579 25.945 62.9023 26.7999C63.0135 28.9384 62.6473 31.9693 61.4688 35.2042C62.0223 34.9149 62.5577 34.6382 63.0723 34.378C66.0676 32.8635 68.3601 31.875 70.0947 31.297C71.7802 30.7354 73.1008 30.502 74.0684 30.6866C74.5802 30.7845 75.1089 31.0218 75.498 31.5177C75.8964 32.0256 76.0099 32.6282 75.999 33.1427C75.9791 34.0698 75.5517 35.0154 75.168 35.7189C74.3849 37.1539 73.2398 38.5225 71.4893 39.8546C71.0729 40.613 70.4831 41.3685 69.8369 42.0831C68.1088 43.994 65.5694 46.0668 63.2481 47.8087C62.5285 48.3487 61.8028 48.853 61.0772 49.3282C61.9657 51.4823 62.6906 53.3166 63.1924 54.7452C63.5753 55.8356 63.8615 56.7778 63.9775 57.4659C64.0271 57.7597 64.0929 58.2494 63.9678 58.7179C63.895 58.9901 63.7208 59.388 63.3272 59.6466C62.9329 59.9052 62.5342 59.8834 62.2813 59.8214C61.9052 59.729 61.561 59.5145 61.2754 59.298C60.9731 59.0687 60.6502 58.7703 60.3125 58.4132C59.6364 57.6981 58.8291 56.6762 57.8975 55.3224C57.2913 54.4415 56.6282 53.4069 55.9053 52.211C54.199 53.0086 52.5117 53.6547 50.876 54.1798C52.7034 59.5653 54.3661 64.4766 55.5 67.9542C56.2434 70.2343 56.7806 71.9544 57.0488 73.0421C57.1168 73.3178 57.1729 73.5752 57.2109 73.8028C57.2452 74.0078 57.2817 74.2804 57.2656 74.5509C57.2577 74.6829 57.2315 74.922 57.1201 75.1759C56.9937 75.4635 56.7312 75.8126 56.2871 75.9493C55.8922 76.0706 55.5624 75.956 55.3994 75.88C55.2268 75.7993 55.0922 75.6931 55.0068 75.6183C54.7012 75.3502 54.3779 74.9001 54.0723 74.4425C53.7373 73.941 53.3263 73.2775 52.8408 72.4611C51.8685 70.8258 50.557 68.512 48.875 65.5177C47.3105 62.7327 45.4464 59.3943 43.4775 55.8702C43.2861 55.897 43.0959 55.9217 42.9082 55.9454C42.9198 55.9748 42.9329 56.0042 42.9443 56.0333C43.5485 57.5723 43.9783 58.911 44.0449 59.9386C44.0785 60.4583 44.0363 61.1262 43.6709 61.7013C43.2661 62.3379 42.6586 62.5696 42.127 62.6095C41.6278 62.6467 41.0973 62.5304 40.5898 62.3634C40.0658 62.1908 39.4736 61.9317 38.8223 61.6075C36.6034 60.5031 33.4006 58.496 29.9932 56.254C25.5625 58.7915 21.5688 61.0192 18.5332 62.5489C15.8453 63.9034 13.8075 64.7711 12.3711 65.0987C11.6703 65.2585 10.9476 65.3305 10.3174 65.1329C9.97995 65.027 9.63857 64.8334 9.35742 64.5079C9.0734 64.1788 8.91248 63.7867 8.83985 63.3966C8.70638 62.6786 8.85817 61.9191 9.05567 61.2657C9.26507 60.5732 9.59361 59.7905 9.99903 58.9425C10.8107 57.2449 12.019 55.1071 13.4717 52.6017C13.7289 52.158 13.9967 51.7038 14.2695 51.2364C13.3173 51.0024 12.392 50.7532 11.4854 50.4923C10.2636 50.1406 9.33165 49.6795 8.59082 49.0021C7.84537 48.3202 7.39028 47.5051 7.00391 46.6554C6.61312 45.7958 6.22898 44.6856 6.07324 43.6485C5.99604 43.1339 5.96236 42.5515 6.06055 41.9943C6.16138 41.4227 6.42736 40.7618 7.0293 40.337C7.62306 39.9184 8.30391 39.9067 8.89844 40.0138C9.50371 40.1229 10.2059 40.3879 11.0078 40.7726C12.5928 41.5331 14.829 42.8894 17.9727 44.961C19.9801 41.5905 22.217 37.8697 24.6045 33.923C24.6012 33.9225 24.5972 33.9225 24.5938 33.922C24.5786 33.9196 24.5513 33.9144 24.5195 33.9073C24.499 33.9027 24.4233 33.8852 24.332 33.8478C24.2793 33.8246 24.1425 33.7498 24.0615 33.6935C23.9218 33.5702 23.6241 33.1079 23.5322 32.7501C23.5399 32.3079 23.8149 31.665 23.9932 31.4737C24.0975 31.3917 24.2745 31.2873 24.3418 31.2579C24.4523 31.2138 24.5447 31.197 24.5645 31.1935C24.5997 31.1871 24.6294 31.1845 24.6455 31.1827C24.7006 31.1767 24.753 31.1745 24.7715 31.1739C24.825 31.1723 24.8959 31.1719 24.9746 31.172C25.3913 31.1723 25.8247 31.1718 26.2705 31.172C26.3633 31.0189 26.4566 30.8657 26.5498 30.712C26.5481 30.6969 26.5466 30.6813 26.5449 30.6661C23.3861 23.3525 21.1007 16.9078 20.3252 13.631C20.2027 13.1134 20.1068 12.6318 20.0576 12.211C20.0131 11.8303 19.9841 11.3286 20.1143 10.8585C20.1859 10.6002 20.3237 10.2857 20.5879 10.0265C20.6745 9.94162 20.7673 9.8721 20.8613 9.81457C20.8314 9.72437 20.8016 9.63914 20.7754 9.55968C20.6329 9.12724 20.5179 8.76914 20.4854 8.63195C20.482 8.61792 20.469 8.56299 20.459 8.49425C20.4556 8.47074 20.4415 8.36778 20.4443 8.23742C20.4482 8.15857 20.4776 7.94896 20.5117 7.81945C20.6062 7.58852 21.018 7.10952 21.3584 6.9425C21.6958 6.89466 22.2124 7.02572 22.3799 7.13195C22.4635 7.20101 22.5855 7.32671 22.627 7.37804C22.6947 7.46636 22.7372 7.5455 22.749 7.56749C22.7798 7.62487 22.8021 7.6747 22.8076 7.68761C22.8332 7.74717 22.857 7.81523 22.8701 7.85167C22.9055 7.9499 22.9589 8.10404 23.0273 8.30675C23.2613 8.99969 23.527 9.81895 23.8301 10.7413C24.2718 11.1118 24.7663 11.5673 25.3086 12.0929C26.0574 12.8186 26.9447 13.7234 27.9834 14.8048C28.4753 13.3081 29.0763 11.8834 29.7891 10.5597C30.5283 9.18692 31.326 7.86407 32.3086 7.01183ZM48.4629 54.879C47.6711 55.0839 46.8954 55.2616 46.1406 55.4142C47.9069 58.5757 49.5696 61.5533 50.9775 64.0597C51.488 64.9684 51.9659 65.8107 52.4063 66.589C51.327 63.3342 49.9503 59.262 48.4629 54.879ZM15.5566 54.0929C14.0974 56.6096 12.9449 58.6545 12.1895 60.2345C11.8116 61.0249 11.5543 61.6563 11.4072 62.1427C11.3658 62.2798 11.3367 62.3941 11.3164 62.4874C11.4517 62.4764 11.6343 62.4537 11.8721 62.3995C13.0105 62.1399 14.8262 61.3919 17.5088 60.0401C20.1865 58.6908 23.6338 56.7838 27.4893 54.588C26.4649 53.9025 25.439 53.2132 24.4297 52.5304C21.6245 52.5201 19.158 52.2361 16.8916 51.8087C16.4266 52.6019 15.9797 53.3633 15.5566 54.0929ZM34.7998 56.1661C36.7664 57.4027 38.5053 58.432 39.835 59.0939C40.4336 59.3918 40.9159 59.5973 41.2939 59.7218C41.3793 59.7499 41.4565 59.7719 41.5244 59.7901C41.4235 59.2413 41.1626 58.3848 40.6719 57.1349C40.5753 56.8889 40.4681 56.6328 40.3574 56.3644C40.0923 56.3655 39.8957 56.2761 39.8135 56.2325L39.8076 56.2276C38.5974 56.2932 37.5174 56.3003 36.6006 56.2735C35.9052 56.2532 35.2998 56.2129 34.7998 56.1661ZM58.1943 51.0558C58.8011 52.0466 59.3579 52.9094 59.8672 53.6495C60.0414 53.9026 60.2117 54.1397 60.3731 54.3634C59.9685 53.2946 59.4714 52.0537 58.8984 50.6612C58.6635 50.7952 58.4291 50.9279 58.1943 51.0558ZM35.1895 53.2579C35.1489 53.3149 35.1088 53.3688 35.0723 53.422C35.5097 53.4615 36.0451 53.5025 36.666 53.5206C37.0664 53.5323 37.5023 53.5356 37.9688 53.5314C37.7273 53.1065 37.4572 52.6296 37.167 52.1066C36.504 52.4922 35.8446 52.8778 35.1895 53.2579ZM40.7637 51.0196C41.1363 51.8327 41.4832 52.5936 41.7969 53.3048C41.8734 53.2967 41.951 53.2881 42.0283 53.2794C41.6091 52.5293 41.1862 51.7749 40.7637 51.0196ZM32.1064 51.9357C30.9972 52.1029 29.9336 52.2312 28.9131 52.3253C29.1405 52.4774 29.367 52.631 29.5928 52.7814C29.7554 52.8897 29.9184 52.9973 30.0801 53.1046C30.7468 52.7212 31.4233 52.3307 32.1064 51.9357ZM46.4619 48.9757C45.2909 49.2534 44.1272 49.5189 42.9873 49.7735C43.5707 50.8165 44.153 51.8579 44.7285 52.8878C45.647 52.7243 46.6015 52.5259 47.582 52.2804C47.3101 51.4794 47.0363 50.6702 46.7607 49.8585C46.6611 49.565 46.5618 49.2701 46.4619 48.9757ZM53.1201 47.2931C51.7371 47.666 50.3247 48.0294 48.9102 48.38C48.9674 48.5486 49.0249 48.7175 49.082 48.8859C49.3902 49.7939 49.6961 50.6987 50 51.5939C51.4759 51.1279 52.9952 50.5592 54.5313 49.8624C54.0788 49.0632 53.6092 48.2068 53.1201 47.2931ZM8.47949 42.7286C8.47969 42.8459 8.49037 43.0009 8.51953 43.1954C8.62173 43.8759 8.89925 44.7157 9.2168 45.4142C9.53855 46.1217 9.80654 46.5462 10.166 46.8751C10.5304 47.2083 11.0886 47.5308 12.1084 47.8243C13.2769 48.1606 14.47 48.4814 15.7168 48.7638C16.0059 48.2733 16.3044 47.7739 16.6064 47.2638C13.5242 45.2352 11.4364 43.9793 10.0244 43.3019C9.29622 42.9525 8.81159 42.7884 8.50196 42.7325C8.49453 42.7312 8.48653 42.7298 8.47949 42.7286ZM55.6328 46.5968C56.0436 47.3532 56.4384 48.0654 56.8193 48.7325C57.1642 48.5484 57.5104 48.3572 57.8555 48.1593C57.6487 47.6692 57.4372 47.1636 57.2168 46.6466C57.1527 46.4963 57.0863 46.3438 57.0205 46.1905C56.5643 46.3261 56.101 46.4628 55.6328 46.5968ZM64.0791 43.796C63.4717 44.0374 62.8348 44.2837 62.165 44.5245C61.3095 44.8322 60.399 45.1371 59.4473 45.4425C59.4506 45.4502 59.4547 45.4582 59.458 45.4659C59.6539 45.9254 59.8422 46.3781 60.0283 46.8185C60.641 46.4115 61.253 45.9813 61.8604 45.5255C62.6026 44.9685 63.3512 44.3848 64.0791 43.796ZM69.4756 38.0235C69.337 38.0518 69.1722 38.09 68.9795 38.1427C68.0907 38.3856 66.8289 38.8472 65.1572 39.503C63.2799 40.2396 60.9149 41.2061 58.0938 42.3292C58.1824 42.5295 58.2688 42.7299 58.3555 42.9269C59.4294 42.5872 60.4508 42.2443 61.4014 41.9025C65.1233 40.564 67.683 39.2652 69.4756 38.0235ZM60.252 25.9864C60.18 25.9599 59.8135 25.8708 58.7773 26.2823C56.5851 27.1533 54.4028 28.3927 52.2715 29.8605C53.6207 32.6108 54.9465 35.4102 56.1699 38.0714C56.7344 37.758 57.2887 37.4509 57.832 37.1534C59.9477 33.2269 60.5488 29.3079 60.4268 26.9591C60.4069 26.5775 60.3677 26.3141 60.3154 26.1388C60.2874 26.0451 60.2622 26.0017 60.252 25.9864ZM73.4502 33.381C73.0123 33.3617 72.1929 33.4738 70.8066 33.9357C69.2227 34.4635 67.0433 35.396 64.0986 36.8849C63.7731 37.0495 63.4386 37.2198 63.0967 37.3966C63.5264 37.225 63.9379 37.0597 64.3311 36.9054C65.998 36.2514 67.3661 35.7481 68.3877 35.4689C68.8939 35.3306 69.3759 35.2295 69.7959 35.2101C70.1428 35.1941 70.7882 35.2096 71.291 35.7042C71.4349 35.8459 71.5597 36.0032 71.668 36.17C72.2738 35.5248 72.7141 34.9 73.0459 34.2921C73.26 33.8997 73.3825 33.5934 73.4502 33.381ZM26.8818 19.2111C26.9702 18.7176 27.0683 18.2281 27.1768 17.7443C26.6907 17.2338 26.2363 16.7596 25.8125 16.3214C26.1433 17.226 26.5002 18.1917 26.8818 19.2111Z"/>
</mask>
<path fill-rule="evenodd" clip-rule="evenodd" d="M32.3086 7.01183C33.391 6.07336 34.6794 5.72159 36.1729 6.24523C37.4382 6.68912 38.7611 7.71855 40.2109 9.35949C40.4511 9.35907 40.6945 9.43675 40.9082 9.59777C41.2946 9.88933 41.4849 10.3806 41.4453 10.8634C42.853 12.6973 44.4399 15.1372 46.2441 18.3136C47.1656 19.9358 48.1394 21.7437 49.1367 23.6564C50.6084 21.7845 52.6459 19.4358 54.1231 17.8712C55.853 16.0389 56.7762 15.3343 57.8184 14.4913C58.3718 14.0439 59.1468 14.1793 59.5498 14.7941C59.9524 15.4089 59.8305 16.2701 59.2773 16.7179C58.2506 17.5484 57.4389 18.1645 55.834 19.8644C54.197 21.5982 51.8434 24.339 50.4443 26.1974C50.654 26.6108 50.8632 27.0283 51.0732 27.4474C53.3074 25.9177 55.6124 24.6136 57.9434 23.6876C59.3547 23.1271 60.7154 22.9381 61.7314 23.7736C62.7103 24.579 62.8579 25.945 62.9023 26.7999C63.0135 28.9384 62.6473 31.9693 61.4688 35.2042C62.0223 34.9149 62.5577 34.6382 63.0723 34.378C66.0676 32.8635 68.3601 31.875 70.0947 31.297C71.7802 30.7354 73.1008 30.502 74.0684 30.6866C74.5802 30.7845 75.1089 31.0218 75.498 31.5177C75.8964 32.0256 76.0099 32.6282 75.999 33.1427C75.9791 34.0698 75.5517 35.0154 75.168 35.7189C74.3849 37.1539 73.2398 38.5225 71.4893 39.8546C71.0729 40.613 70.4831 41.3685 69.8369 42.0831C68.1088 43.994 65.5694 46.0668 63.2481 47.8087C62.5285 48.3487 61.8028 48.853 61.0772 49.3282C61.9657 51.4823 62.6906 53.3166 63.1924 54.7452C63.5753 55.8356 63.8615 56.7778 63.9775 57.4659C64.0271 57.7597 64.0929 58.2494 63.9678 58.7179C63.895 58.9901 63.7208 59.388 63.3272 59.6466C62.9329 59.9052 62.5342 59.8834 62.2813 59.8214C61.9052 59.729 61.561 59.5145 61.2754 59.298C60.9731 59.0687 60.6502 58.7703 60.3125 58.4132C59.6364 57.6981 58.8291 56.6762 57.8975 55.3224C57.2913 54.4415 56.6282 53.4069 55.9053 52.211C54.199 53.0086 52.5117 53.6547 50.876 54.1798C52.7034 59.5653 54.3661 64.4766 55.5 67.9542C56.2434 70.2343 56.7806 71.9544 57.0488 73.0421C57.1168 73.3178 57.1729 73.5752 57.2109 73.8028C57.2452 74.0078 57.2817 74.2804 57.2656 74.5509C57.2577 74.6829 57.2315 74.922 57.1201 75.1759C56.9937 75.4635 56.7312 75.8126 56.2871 75.9493C55.8922 76.0706 55.5624 75.956 55.3994 75.88C55.2268 75.7993 55.0922 75.6931 55.0068 75.6183C54.7012 75.3502 54.3779 74.9001 54.0723 74.4425C53.7373 73.941 53.3263 73.2775 52.8408 72.4611C51.8685 70.8258 50.557 68.512 48.875 65.5177C47.3105 62.7327 45.4464 59.3943 43.4775 55.8702C43.2861 55.897 43.0959 55.9217 42.9082 55.9454C42.9198 55.9748 42.9329 56.0042 42.9443 56.0333C43.5485 57.5723 43.9783 58.911 44.0449 59.9386C44.0785 60.4583 44.0363 61.1262 43.6709 61.7013C43.2661 62.3379 42.6586 62.5696 42.127 62.6095C41.6278 62.6467 41.0973 62.5304 40.5898 62.3634C40.0658 62.1908 39.4736 61.9317 38.8223 61.6075C36.6034 60.5031 33.4006 58.496 29.9932 56.254C25.5625 58.7915 21.5688 61.0192 18.5332 62.5489C15.8453 63.9034 13.8075 64.7711 12.3711 65.0987C11.6703 65.2585 10.9476 65.3305 10.3174 65.1329C9.97995 65.027 9.63857 64.8334 9.35742 64.5079C9.0734 64.1788 8.91248 63.7867 8.83985 63.3966C8.70638 62.6786 8.85817 61.9191 9.05567 61.2657C9.26507 60.5732 9.59361 59.7905 9.99903 58.9425C10.8107 57.2449 12.019 55.1071 13.4717 52.6017C13.7289 52.158 13.9967 51.7038 14.2695 51.2364C13.3173 51.0024 12.392 50.7532 11.4854 50.4923C10.2636 50.1406 9.33165 49.6795 8.59082 49.0021C7.84537 48.3202 7.39028 47.5051 7.00391 46.6554C6.61312 45.7958 6.22898 44.6856 6.07324 43.6485C5.99604 43.1339 5.96236 42.5515 6.06055 41.9943C6.16138 41.4227 6.42736 40.7618 7.0293 40.337C7.62306 39.9184 8.30391 39.9067 8.89844 40.0138C9.50371 40.1229 10.2059 40.3879 11.0078 40.7726C12.5928 41.5331 14.829 42.8894 17.9727 44.961C19.9801 41.5905 22.217 37.8697 24.6045 33.923C24.6012 33.9225 24.5972 33.9225 24.5938 33.922C24.5786 33.9196 24.5513 33.9144 24.5195 33.9073C24.499 33.9027 24.4233 33.8852 24.332 33.8478C24.2793 33.8246 24.1425 33.7498 24.0615 33.6935C23.9218 33.5702 23.6241 33.1079 23.5322 32.7501C23.5399 32.3079 23.8149 31.665 23.9932 31.4737C24.0975 31.3917 24.2745 31.2873 24.3418 31.2579C24.4523 31.2138 24.5447 31.197 24.5645 31.1935C24.5997 31.1871 24.6294 31.1845 24.6455 31.1827C24.7006 31.1767 24.753 31.1745 24.7715 31.1739C24.825 31.1723 24.8959 31.1719 24.9746 31.172C25.3913 31.1723 25.8247 31.1718 26.2705 31.172C26.3633 31.0189 26.4566 30.8657 26.5498 30.712C26.5481 30.6969 26.5466 30.6813 26.5449 30.6661C23.3861 23.3525 21.1007 16.9078 20.3252 13.631C20.2027 13.1134 20.1068 12.6318 20.0576 12.211C20.0131 11.8303 19.9841 11.3286 20.1143 10.8585C20.1859 10.6002 20.3237 10.2857 20.5879 10.0265C20.6745 9.94162 20.7673 9.8721 20.8613 9.81457C20.8314 9.72437 20.8016 9.63914 20.7754 9.55968C20.6329 9.12724 20.5179 8.76914 20.4854 8.63195C20.482 8.61792 20.469 8.56299 20.459 8.49425C20.4556 8.47074 20.4415 8.36778 20.4443 8.23742C20.4482 8.15857 20.4776 7.94896 20.5117 7.81945C20.6062 7.58852 21.018 7.10952 21.3584 6.9425C21.6958 6.89466 22.2124 7.02572 22.3799 7.13195C22.4635 7.20101 22.5855 7.32671 22.627 7.37804C22.6947 7.46636 22.7372 7.5455 22.749 7.56749C22.7798 7.62487 22.8021 7.6747 22.8076 7.68761C22.8332 7.74717 22.857 7.81523 22.8701 7.85167C22.9055 7.9499 22.9589 8.10404 23.0273 8.30675C23.2613 8.99969 23.527 9.81895 23.8301 10.7413C24.2718 11.1118 24.7663 11.5673 25.3086 12.0929C26.0574 12.8186 26.9447 13.7234 27.9834 14.8048C28.4753 13.3081 29.0763 11.8834 29.7891 10.5597C30.5283 9.18692 31.326 7.86407 32.3086 7.01183ZM48.4629 54.879C47.6711 55.0839 46.8954 55.2616 46.1406 55.4142C47.9069 58.5757 49.5696 61.5533 50.9775 64.0597C51.488 64.9684 51.9659 65.8107 52.4063 66.589C51.327 63.3342 49.9503 59.262 48.4629 54.879ZM15.5566 54.0929C14.0974 56.6096 12.9449 58.6545 12.1895 60.2345C11.8116 61.0249 11.5543 61.6563 11.4072 62.1427C11.3658 62.2798 11.3367 62.3941 11.3164 62.4874C11.4517 62.4764 11.6343 62.4537 11.8721 62.3995C13.0105 62.1399 14.8262 61.3919 17.5088 60.0401C20.1865 58.6908 23.6338 56.7838 27.4893 54.588C26.4649 53.9025 25.439 53.2132 24.4297 52.5304C21.6245 52.5201 19.158 52.2361 16.8916 51.8087C16.4266 52.6019 15.9797 53.3633 15.5566 54.0929ZM34.7998 56.1661C36.7664 57.4027 38.5053 58.432 39.835 59.0939C40.4336 59.3918 40.9159 59.5973 41.2939 59.7218C41.3793 59.7499 41.4565 59.7719 41.5244 59.7901C41.4235 59.2413 41.1626 58.3848 40.6719 57.1349C40.5753 56.8889 40.4681 56.6328 40.3574 56.3644C40.0923 56.3655 39.8957 56.2761 39.8135 56.2325L39.8076 56.2276C38.5974 56.2932 37.5174 56.3003 36.6006 56.2735C35.9052 56.2532 35.2998 56.2129 34.7998 56.1661ZM58.1943 51.0558C58.8011 52.0466 59.3579 52.9094 59.8672 53.6495C60.0414 53.9026 60.2117 54.1397 60.3731 54.3634C59.9685 53.2946 59.4714 52.0537 58.8984 50.6612C58.6635 50.7952 58.4291 50.9279 58.1943 51.0558ZM35.1895 53.2579C35.1489 53.3149 35.1088 53.3688 35.0723 53.422C35.5097 53.4615 36.0451 53.5025 36.666 53.5206C37.0664 53.5323 37.5023 53.5356 37.9688 53.5314C37.7273 53.1065 37.4572 52.6296 37.167 52.1066C36.504 52.4922 35.8446 52.8778 35.1895 53.2579ZM40.7637 51.0196C41.1363 51.8327 41.4832 52.5936 41.7969 53.3048C41.8734 53.2967 41.951 53.2881 42.0283 53.2794C41.6091 52.5293 41.1862 51.7749 40.7637 51.0196ZM32.1064 51.9357C30.9972 52.1029 29.9336 52.2312 28.9131 52.3253C29.1405 52.4774 29.367 52.631 29.5928 52.7814C29.7554 52.8897 29.9184 52.9973 30.0801 53.1046C30.7468 52.7212 31.4233 52.3307 32.1064 51.9357ZM46.4619 48.9757C45.2909 49.2534 44.1272 49.5189 42.9873 49.7735C43.5707 50.8165 44.153 51.8579 44.7285 52.8878C45.647 52.7243 46.6015 52.5259 47.582 52.2804C47.3101 51.4794 47.0363 50.6702 46.7607 49.8585C46.6611 49.565 46.5618 49.2701 46.4619 48.9757ZM53.1201 47.2931C51.7371 47.666 50.3247 48.0294 48.9102 48.38C48.9674 48.5486 49.0249 48.7175 49.082 48.8859C49.3902 49.7939 49.6961 50.6987 50 51.5939C51.4759 51.1279 52.9952 50.5592 54.5313 49.8624C54.0788 49.0632 53.6092 48.2068 53.1201 47.2931ZM8.47949 42.7286C8.47969 42.8459 8.49037 43.0009 8.51953 43.1954C8.62173 43.8759 8.89925 44.7157 9.2168 45.4142C9.53855 46.1217 9.80654 46.5462 10.166 46.8751C10.5304 47.2083 11.0886 47.5308 12.1084 47.8243C13.2769 48.1606 14.47 48.4814 15.7168 48.7638C16.0059 48.2733 16.3044 47.7739 16.6064 47.2638C13.5242 45.2352 11.4364 43.9793 10.0244 43.3019C9.29622 42.9525 8.81159 42.7884 8.50196 42.7325C8.49453 42.7312 8.48653 42.7298 8.47949 42.7286ZM55.6328 46.5968C56.0436 47.3532 56.4384 48.0654 56.8193 48.7325C57.1642 48.5484 57.5104 48.3572 57.8555 48.1593C57.6487 47.6692 57.4372 47.1636 57.2168 46.6466C57.1527 46.4963 57.0863 46.3438 57.0205 46.1905C56.5643 46.3261 56.101 46.4628 55.6328 46.5968ZM64.0791 43.796C63.4717 44.0374 62.8348 44.2837 62.165 44.5245C61.3095 44.8322 60.399 45.1371 59.4473 45.4425C59.4506 45.4502 59.4547 45.4582 59.458 45.4659C59.6539 45.9254 59.8422 46.3781 60.0283 46.8185C60.641 46.4115 61.253 45.9813 61.8604 45.5255C62.6026 44.9685 63.3512 44.3848 64.0791 43.796ZM69.4756 38.0235C69.337 38.0518 69.1722 38.09 68.9795 38.1427C68.0907 38.3856 66.8289 38.8472 65.1572 39.503C63.2799 40.2396 60.9149 41.2061 58.0938 42.3292C58.1824 42.5295 58.2688 42.7299 58.3555 42.9269C59.4294 42.5872 60.4508 42.2443 61.4014 41.9025C65.1233 40.564 67.683 39.2652 69.4756 38.0235ZM60.252 25.9864C60.18 25.9599 59.8135 25.8708 58.7773 26.2823C56.5851 27.1533 54.4028 28.3927 52.2715 29.8605C53.6207 32.6108 54.9465 35.4102 56.1699 38.0714C56.7344 37.758 57.2887 37.4509 57.832 37.1534C59.9477 33.2269 60.5488 29.3079 60.4268 26.9591C60.4069 26.5775 60.3677 26.3141 60.3154 26.1388C60.2874 26.0451 60.2622 26.0017 60.252 25.9864ZM73.4502 33.381C73.0123 33.3617 72.1929 33.4738 70.8066 33.9357C69.2227 34.4635 67.0433 35.396 64.0986 36.8849C63.7731 37.0495 63.4386 37.2198 63.0967 37.3966C63.5264 37.225 63.9379 37.0597 64.3311 36.9054C65.998 36.2514 67.3661 35.7481 68.3877 35.4689C68.8939 35.3306 69.3759 35.2295 69.7959 35.2101C70.1428 35.1941 70.7882 35.2096 71.291 35.7042C71.4349 35.8459 71.5597 36.0032 71.668 36.17C72.2738 35.5248 72.7141 34.9 73.0459 34.2921C73.26 33.8997 73.3825 33.5934 73.4502 33.381ZM26.8818 19.2111C26.9702 18.7176 27.0683 18.2281 27.1768 17.7443C26.6907 17.2338 26.2363 16.7596 25.8125 16.3214C26.1433 17.226 26.5002 18.1917 26.8818 19.2111Z" fill="#FBE300"/>
<path fill-rule="evenodd" clip-rule="evenodd" d="M32.3086 7.01183C33.391 6.07336 34.6794 5.72159 36.1729 6.24523C37.4382 6.68912 38.7611 7.71855 40.2109 9.35949C40.4511 9.35907 40.6945 9.43675 40.9082 9.59777C41.2946 9.88933 41.4849 10.3806 41.4453 10.8634C42.853 12.6973 44.4399 15.1372 46.2441 18.3136C47.1656 19.9358 48.1394 21.7437 49.1367 23.6564C50.6084 21.7845 52.6459 19.4358 54.1231 17.8712C55.853 16.0389 56.7762 15.3343 57.8184 14.4913C58.3718 14.0439 59.1468 14.1793 59.5498 14.7941C59.9524 15.4089 59.8305 16.2701 59.2773 16.7179C58.2506 17.5484 57.4389 18.1645 55.834 19.8644C54.197 21.5982 51.8434 24.339 50.4443 26.1974C50.654 26.6108 50.8632 27.0283 51.0732 27.4474C53.3074 25.9177 55.6124 24.6136 57.9434 23.6876C59.3547 23.1271 60.7154 22.9381 61.7314 23.7736C62.7103 24.579 62.8579 25.945 62.9023 26.7999C63.0135 28.9384 62.6473 31.9693 61.4688 35.2042C62.0223 34.9149 62.5577 34.6382 63.0723 34.378C66.0676 32.8635 68.3601 31.875 70.0947 31.297C71.7802 30.7354 73.1008 30.502 74.0684 30.6866C74.5802 30.7845 75.1089 31.0218 75.498 31.5177C75.8964 32.0256 76.0099 32.6282 75.999 33.1427C75.9791 34.0698 75.5517 35.0154 75.168 35.7189C74.3849 37.1539 73.2398 38.5225 71.4893 39.8546C71.0729 40.613 70.4831 41.3685 69.8369 42.0831C68.1088 43.994 65.5694 46.0668 63.2481 47.8087C62.5285 48.3487 61.8028 48.853 61.0772 49.3282C61.9657 51.4823 62.6906 53.3166 63.1924 54.7452C63.5753 55.8356 63.8615 56.7778 63.9775 57.4659C64.0271 57.7597 64.0929 58.2494 63.9678 58.7179C63.895 58.9901 63.7208 59.388 63.3272 59.6466C62.9329 59.9052 62.5342 59.8834 62.2813 59.8214C61.9052 59.729 61.561 59.5145 61.2754 59.298C60.9731 59.0687 60.6502 58.7703 60.3125 58.4132C59.6364 57.6981 58.8291 56.6762 57.8975 55.3224C57.2913 54.4415 56.6282 53.4069 55.9053 52.211C54.199 53.0086 52.5117 53.6547 50.876 54.1798C52.7034 59.5653 54.3661 64.4766 55.5 67.9542C56.2434 70.2343 56.7806 71.9544 57.0488 73.0421C57.1168 73.3178 57.1729 73.5752 57.2109 73.8028C57.2452 74.0078 57.2817 74.2804 57.2656 74.5509C57.2577 74.6829 57.2315 74.922 57.1201 75.1759C56.9937 75.4635 56.7312 75.8126 56.2871 75.9493C55.8922 76.0706 55.5624 75.956 55.3994 75.88C55.2268 75.7993 55.0922 75.6931 55.0068 75.6183C54.7012 75.3502 54.3779 74.9001 54.0723 74.4425C53.7373 73.941 53.3263 73.2775 52.8408 72.4611C51.8685 70.8258 50.557 68.512 48.875 65.5177C47.3105 62.7327 45.4464 59.3943 43.4775 55.8702C43.2861 55.897 43.0959 55.9217 42.9082 55.9454C42.9198 55.9748 42.9329 56.0042 42.9443 56.0333C43.5485 57.5723 43.9783 58.911 44.0449 59.9386C44.0785 60.4583 44.0363 61.1262 43.6709 61.7013C43.2661 62.3379 42.6586 62.5696 42.127 62.6095C41.6278 62.6467 41.0973 62.5304 40.5898 62.3634C40.0658 62.1908 39.4736 61.9317 38.8223 61.6075C36.6034 60.5031 33.4006 58.496 29.9932 56.254C25.5625 58.7915 21.5688 61.0192 18.5332 62.5489C15.8453 63.9034 13.8075 64.7711 12.3711 65.0987C11.6703 65.2585 10.9476 65.3305 10.3174 65.1329C9.97995 65.027 9.63857 64.8334 9.35742 64.5079C9.0734 64.1788 8.91248 63.7867 8.83985 63.3966C8.70638 62.6786 8.85817 61.9191 9.05567 61.2657C9.26507 60.5732 9.59361 59.7905 9.99903 58.9425C10.8107 57.2449 12.019 55.1071 13.4717 52.6017C13.7289 52.158 13.9967 51.7038 14.2695 51.2364C13.3173 51.0024 12.392 50.7532 11.4854 50.4923C10.2636 50.1406 9.33165 49.6795 8.59082 49.0021C7.84537 48.3202 7.39028 47.5051 7.00391 46.6554C6.61312 45.7958 6.22898 44.6856 6.07324 43.6485C5.99604 43.1339 5.96236 42.5515 6.06055 41.9943C6.16138 41.4227 6.42736 40.7618 7.0293 40.337C7.62306 39.9184 8.30391 39.9067 8.89844 40.0138C9.50371 40.1229 10.2059 40.3879 11.0078 40.7726C12.5928 41.5331 14.829 42.8894 17.9727 44.961C19.9801 41.5905 22.217 37.8697 24.6045 33.923C24.6012 33.9225 24.5972 33.9225 24.5938 33.922C24.5786 33.9196 24.5513 33.9144 24.5195 33.9073C24.499 33.9027 24.4233 33.8852 24.332 33.8478C24.2793 33.8246 24.1425 33.7498 24.0615 33.6935C23.9218 33.5702 23.6241 33.1079 23.5322 32.7501C23.5399 32.3079 23.8149 31.665 23.9932 31.4737C24.0975 31.3917 24.2745 31.2873 24.3418 31.2579C24.4523 31.2138 24.5447 31.197 24.5645 31.1935C24.5997 31.1871 24.6294 31.1845 24.6455 31.1827C24.7006 31.1767 24.753 31.1745 24.7715 31.1739C24.825 31.1723 24.8959 31.1719 24.9746 31.172C25.3913 31.1723 25.8247 31.1718 26.2705 31.172C26.3633 31.0189 26.4566 30.8657 26.5498 30.712C26.5481 30.6969 26.5466 30.6813 26.5449 30.6661C23.3861 23.3525 21.1007 16.9078 20.3252 13.631C20.2027 13.1134 20.1068 12.6318 20.0576 12.211C20.0131 11.8303 19.9841 11.3286 20.1143 10.8585C20.1859 10.6002 20.3237 10.2857 20.5879 10.0265C20.6745 9.94162 20.7673 9.8721 20.8613 9.81457C20.8314 9.72437 20.8016 9.63914 20.7754 9.55968C20.6329 9.12724 20.5179 8.76914 20.4854 8.63195C20.482 8.61792 20.469 8.56299 20.459 8.49425C20.4556 8.47074 20.4415 8.36778 20.4443 8.23742C20.4482 8.15857 20.4776 7.94896 20.5117 7.81945C20.6062 7.58852 21.018 7.10952 21.3584 6.9425C21.6958 6.89466 22.2124 7.02572 22.3799 7.13195C22.4635 7.20101 22.5855 7.32671 22.627 7.37804C22.6947 7.46636 22.7372 7.5455 22.749 7.56749C22.7798 7.62487 22.8021 7.6747 22.8076 7.68761C22.8332 7.74717 22.857 7.81523 22.8701 7.85167C22.9055 7.9499 22.9589 8.10404 23.0273 8.30675C23.2613 8.99969 23.527 9.81895 23.8301 10.7413C24.2718 11.1118 24.7663 11.5673 25.3086 12.0929C26.0574 12.8186 26.9447 13.7234 27.9834 14.8048C28.4753 13.3081 29.0763 11.8834 29.7891 10.5597C30.5283 9.18692 31.326 7.86407 32.3086 7.01183ZM48.4629 54.879C47.6711 55.0839 46.8954 55.2616 46.1406 55.4142C47.9069 58.5757 49.5696 61.5533 50.9775 64.0597C51.488 64.9684 51.9659 65.8107 52.4063 66.589C51.327 63.3342 49.9503 59.262 48.4629 54.879ZM15.5566 54.0929C14.0974 56.6096 12.9449 58.6545 12.1895 60.2345C11.8116 61.0249 11.5543 61.6563 11.4072 62.1427C11.3658 62.2798 11.3367 62.3941 11.3164 62.4874C11.4517 62.4764 11.6343 62.4537 11.8721 62.3995C13.0105 62.1399 14.8262 61.3919 17.5088 60.0401C20.1865 58.6908 23.6338 56.7838 27.4893 54.588C26.4649 53.9025 25.439 53.2132 24.4297 52.5304C21.6245 52.5201 19.158 52.2361 16.8916 51.8087C16.4266 52.6019 15.9797 53.3633 15.5566 54.0929ZM34.7998 56.1661C36.7664 57.4027 38.5053 58.432 39.835 59.0939C40.4336 59.3918 40.9159 59.5973 41.2939 59.7218C41.3793 59.7499 41.4565 59.7719 41.5244 59.7901C41.4235 59.2413 41.1626 58.3848 40.6719 57.1349C40.5753 56.8889 40.4681 56.6328 40.3574 56.3644C40.0923 56.3655 39.8957 56.2761 39.8135 56.2325L39.8076 56.2276C38.5974 56.2932 37.5174 56.3003 36.6006 56.2735C35.9052 56.2532 35.2998 56.2129 34.7998 56.1661ZM58.1943 51.0558C58.8011 52.0466 59.3579 52.9094 59.8672 53.6495C60.0414 53.9026 60.2117 54.1397 60.3731 54.3634C59.9685 53.2946 59.4714 52.0537 58.8984 50.6612C58.6635 50.7952 58.4291 50.9279 58.1943 51.0558ZM35.1895 53.2579C35.1489 53.3149 35.1088 53.3688 35.0723 53.422C35.5097 53.4615 36.0451 53.5025 36.666 53.5206C37.0664 53.5323 37.5023 53.5356 37.9688 53.5314C37.7273 53.1065 37.4572 52.6296 37.167 52.1066C36.504 52.4922 35.8446 52.8778 35.1895 53.2579ZM40.7637 51.0196C41.1363 51.8327 41.4832 52.5936 41.7969 53.3048C41.8734 53.2967 41.951 53.2881 42.0283 53.2794C41.6091 52.5293 41.1862 51.7749 40.7637 51.0196ZM32.1064 51.9357C30.9972 52.1029 29.9336 52.2312 28.9131 52.3253C29.1405 52.4774 29.367 52.631 29.5928 52.7814C29.7554 52.8897 29.9184 52.9973 30.0801 53.1046C30.7468 52.7212 31.4233 52.3307 32.1064 51.9357ZM46.4619 48.9757C45.2909 49.2534 44.1272 49.5189 42.9873 49.7735C43.5707 50.8165 44.153 51.8579 44.7285 52.8878C45.647 52.7243 46.6015 52.5259 47.582 52.2804C47.3101 51.4794 47.0363 50.6702 46.7607 49.8585C46.6611 49.565 46.5618 49.2701 46.4619 48.9757ZM53.1201 47.2931C51.7371 47.666 50.3247 48.0294 48.9102 48.38C48.9674 48.5486 49.0249 48.7175 49.082 48.8859C49.3902 49.7939 49.6961 50.6987 50 51.5939C51.4759 51.1279 52.9952 50.5592 54.5313 49.8624C54.0788 49.0632 53.6092 48.2068 53.1201 47.2931ZM8.47949 42.7286C8.47969 42.8459 8.49037 43.0009 8.51953 43.1954C8.62173 43.8759 8.89925 44.7157 9.2168 45.4142C9.53855 46.1217 9.80654 46.5462 10.166 46.8751C10.5304 47.2083 11.0886 47.5308 12.1084 47.8243C13.2769 48.1606 14.47 48.4814 15.7168 48.7638C16.0059 48.2733 16.3044 47.7739 16.6064 47.2638C13.5242 45.2352 11.4364 43.9793 10.0244 43.3019C9.29622 42.9525 8.81159 42.7884 8.50196 42.7325C8.49453 42.7312 8.48653 42.7298 8.47949 42.7286ZM55.6328 46.5968C56.0436 47.3532 56.4384 48.0654 56.8193 48.7325C57.1642 48.5484 57.5104 48.3572 57.8555 48.1593C57.6487 47.6692 57.4372 47.1636 57.2168 46.6466C57.1527 46.4963 57.0863 46.3438 57.0205 46.1905C56.5643 46.3261 56.101 46.4628 55.6328 46.5968ZM64.0791 43.796C63.4717 44.0374 62.8348 44.2837 62.165 44.5245C61.3095 44.8322 60.399 45.1371 59.4473 45.4425C59.4506 45.4502 59.4547 45.4582 59.458 45.4659C59.6539 45.9254 59.8422 46.3781 60.0283 46.8185C60.641 46.4115 61.253 45.9813 61.8604 45.5255C62.6026 44.9685 63.3512 44.3848 64.0791 43.796ZM69.4756 38.0235C69.337 38.0518 69.1722 38.09 68.9795 38.1427C68.0907 38.3856 66.8289 38.8472 65.1572 39.503C63.2799 40.2396 60.9149 41.2061 58.0938 42.3292C58.1824 42.5295 58.2688 42.7299 58.3555 42.9269C59.4294 42.5872 60.4508 42.2443 61.4014 41.9025C65.1233 40.564 67.683 39.2652 69.4756 38.0235ZM60.252 25.9864C60.18 25.9599 59.8135 25.8708 58.7773 26.2823C56.5851 27.1533 54.4028 28.3927 52.2715 29.8605C53.6207 32.6108 54.9465 35.4102 56.1699 38.0714C56.7344 37.758 57.2887 37.4509 57.832 37.1534C59.9477 33.2269 60.5488 29.3079 60.4268 26.9591C60.4069 26.5775 60.3677 26.3141 60.3154 26.1388C60.2874 26.0451 60.2622 26.0017 60.252 25.9864ZM73.4502 33.381C73.0123 33.3617 72.1929 33.4738 70.8066 33.9357C69.2227 34.4635 67.0433 35.396 64.0986 36.8849C63.7731 37.0495 63.4386 37.2198 63.0967 37.3966C63.5264 37.225 63.9379 37.0597 64.3311 36.9054C65.998 36.2514 67.3661 35.7481 68.3877 35.4689C68.8939 35.3306 69.3759 35.2295 69.7959 35.2101C70.1428 35.1941 70.7882 35.2096 71.291 35.7042C71.4349 35.8459 71.5597 36.0032 71.668 36.17C72.2738 35.5248 72.7141 34.9 73.0459 34.2921C73.26 33.8997 73.3825 33.5934 73.4502 33.381ZM26.8818 19.2111C26.9702 18.7176 27.0683 18.2281 27.1768 17.7443C26.6907 17.2338 26.2363 16.7596 25.8125 16.3214C26.1433 17.226 26.5002 18.1917 26.8818 19.2111Z" stroke="black" stroke-width="12" mask="url(#path-1-outside-1_515_2877)"/>
</svg>
