<svg width="70" height="70" viewBox="0 0 70 70" fill="none" xmlns="http://www.w3.org/2000/svg">
<path fill-rule="evenodd" clip-rule="evenodd" d="M26.3082 1.01012C27.3907 0.0713571 28.6792 -0.280407 30.1729 0.243345C31.4382 0.687238 32.7609 1.71657 34.2107 3.35751C34.4509 3.35705 34.6943 3.43455 34.9081 3.59561C35.2946 3.88719 35.4853 4.37862 35.4457 4.86146C36.8534 6.69536 38.4397 9.13485 40.2439 12.3112C41.1654 13.9335 42.139 15.7416 43.1364 17.6544C44.6082 15.7824 46.6462 13.4334 48.1235 11.8687C49.8535 10.0363 50.7765 9.33248 51.8187 8.48949C52.3722 8.04199 53.1471 8.17722 53.55 8.79217C53.9527 9.40705 53.8308 10.2681 53.2776 10.7158C52.2508 11.5464 51.4393 12.1623 49.8343 13.8623C48.1971 15.5962 45.8431 18.3371 44.444 20.1955C44.6537 20.609 44.8636 21.0261 45.0736 21.4452C47.3078 19.9156 49.6124 18.6114 51.9434 17.6854C53.3548 17.1248 54.7157 16.9358 55.7318 17.7715C56.7108 18.577 56.8582 19.9433 56.9026 20.7982C57.0138 22.9367 56.6477 25.9668 55.4691 29.2017C56.0226 28.9124 56.5576 28.6359 57.0721 28.3758C60.0675 26.8612 62.3598 25.8732 64.0945 25.2952C65.7801 24.7336 67.1006 24.4999 68.0681 24.6845C68.5801 24.7824 69.1088 25.0198 69.498 25.5158C69.8964 26.0238 70.0102 26.6263 69.9993 27.1409C69.9794 28.0681 69.5513 29.0135 69.1675 29.7169C68.3845 31.1519 67.2398 32.52 65.4893 33.8521C65.0728 34.6107 64.483 35.3663 63.8366 36.0811C62.1085 37.9921 59.569 40.0644 57.2477 41.8064C56.528 42.3464 55.8026 42.8511 55.0768 43.3264C55.9654 45.4807 56.6902 47.3149 57.192 48.7436C57.5749 49.834 57.8617 50.7755 57.9778 51.4636C58.0273 51.7574 58.0932 52.2474 57.9681 52.716C57.8953 52.9883 57.7213 53.3856 57.3276 53.6442C56.9332 53.9031 56.5345 53.8811 56.2815 53.8191C55.9054 53.7268 55.561 53.5124 55.2754 53.2958C54.9731 53.0666 54.6505 52.7678 54.3128 52.4107C53.6367 51.6956 52.829 50.6745 51.8974 49.3207C51.2912 48.4398 50.6286 47.4052 49.9057 46.2092C48.1993 47.0069 46.512 47.6522 44.8762 48.1773C46.7037 53.5629 48.3662 58.4746 49.5001 61.9523C50.2435 64.2323 50.7804 65.9521 51.0486 67.0398C51.1167 67.3158 51.1728 67.5734 51.2109 67.8012C51.2451 68.0063 51.2815 68.2786 51.2654 68.5492C51.2575 68.6811 51.2314 68.9194 51.1201 69.1733C50.9937 69.4611 50.7314 69.81 50.2871 69.9468C49.8921 70.0681 49.5626 69.9543 49.3996 69.8782C49.2269 69.7976 49.0927 69.6907 49.0073 69.6159C48.7016 69.3479 48.3783 68.8979 48.0726 68.4402C47.7377 67.9387 47.3267 67.2752 46.8413 66.4587C45.869 64.8235 44.5569 62.5104 42.8749 59.5161C41.3104 56.731 39.4463 53.3924 37.4773 49.8682C37.2859 49.895 37.096 49.9198 36.9083 49.9435C36.9199 49.973 36.9332 50.0018 36.9446 50.031C37.5488 51.57 37.9785 52.9085 38.0452 53.9361C38.0788 54.456 38.0367 55.1244 37.6711 55.6997C37.2662 56.3363 36.659 56.5678 36.1274 56.6077C35.6281 56.645 35.0973 56.5286 34.5897 56.3616C34.0656 56.189 33.4734 55.9297 32.822 55.6055C30.6031 54.5011 27.4007 52.4936 23.9932 50.2516C19.5625 52.7892 15.5691 55.0175 12.5335 56.5472C9.84536 57.9017 7.80719 58.7688 6.37076 59.0964C5.67001 59.2561 4.94757 59.3289 4.31733 59.1313C3.97982 59.0254 3.6384 58.8314 3.3572 58.5058C3.07317 58.1767 2.91284 57.7848 2.84021 57.3947C2.70668 56.6766 2.85821 55.9173 3.05573 55.2639C3.26512 54.5713 3.59345 53.7887 3.9989 52.9407C4.81055 51.2431 6.01853 49.1049 7.47133 46.5993C7.72861 46.1556 7.9963 45.7014 8.26921 45.234C7.31697 44.9999 6.39238 44.751 5.4857 44.4901C4.26371 44.1384 3.33172 43.6771 2.5908 42.9996C1.84534 42.3177 1.38987 41.5033 1.0035 40.6535C0.612712 39.7939 0.229379 38.684 0.0736483 37.647C-0.00361009 37.1321 -0.0378922 36.5498 0.06033 35.9923C0.161134 35.4208 0.426927 34.7599 1.02893 34.335C1.62276 33.9163 2.3037 33.9051 2.89833 34.0122C3.50361 34.1213 4.20555 34.3862 5.00745 34.7709C6.59249 35.5314 8.82919 36.8868 11.9729 38.9585C13.9803 35.588 16.2167 31.8678 18.6042 27.9211C18.6008 27.9206 18.5968 27.9203 18.5933 27.9197C18.5781 27.9173 18.5513 27.912 18.5194 27.9049C18.4988 27.9003 18.4231 27.8832 18.3318 27.8457C18.279 27.8225 18.1427 27.7474 18.0618 27.691C17.922 27.5678 17.6245 27.1058 17.5327 26.7481C17.5403 26.3058 17.8145 25.6627 17.9927 25.4714C18.0971 25.3894 18.2741 25.2856 18.3414 25.2562C18.4522 25.212 18.5444 25.1952 18.5642 25.1916C18.5996 25.1853 18.6291 25.1827 18.6453 25.1809C18.7005 25.1748 18.7527 25.172 18.7713 25.1715C18.8248 25.1698 18.8958 25.1701 18.9747 25.1701C19.3913 25.1704 19.8243 25.17 20.2702 25.1701C20.363 25.017 20.4566 24.8638 20.5498 24.7101C20.5482 24.6949 20.5467 24.6795 20.545 24.6643C17.386 17.3504 15.1009 10.9053 14.3254 7.62856C14.2029 7.11095 14.107 6.63006 14.0578 6.20936C14.0133 5.82845 13.9843 5.32644 14.1147 4.85608C14.1864 4.59778 14.3239 4.28397 14.5881 4.02474C14.6748 3.93972 14.7676 3.86979 14.8617 3.81219C14.8318 3.722 14.802 3.6374 14.7758 3.55795C14.6332 3.12515 14.5177 2.76687 14.4852 2.62975C14.4819 2.61572 14.4686 2.56128 14.4586 2.49254C14.4552 2.46958 14.4412 2.3665 14.444 2.2356C14.4479 2.15693 14.4776 1.94688 14.5118 1.81724C14.6064 1.58631 15.0178 1.10719 15.3582 0.940164C15.6956 0.892238 16.2126 1.02359 16.38 1.12984C16.4637 1.19893 16.5856 1.32471 16.627 1.37601C16.6951 1.46477 16.7378 1.54415 16.7493 1.56569C16.7801 1.62307 16.8019 1.6725 16.8074 1.68541C16.833 1.74502 16.8572 1.81305 16.8704 1.84953C16.9058 1.94776 16.9593 2.1015 17.0278 2.30421C17.2617 2.99721 17.5274 3.81653 17.8305 4.73904C18.2723 5.10961 18.7664 5.56529 19.3088 6.09098C20.0576 6.81672 20.9446 7.72153 21.9834 8.80293C22.4753 7.30613 23.0758 5.88126 23.7886 4.55744C24.5278 3.18465 25.3256 1.86236 26.3082 1.01012ZM42.4632 48.8768C41.6713 49.0817 40.8959 49.2596 40.141 49.4122C41.9074 52.5739 43.57 55.5514 44.9779 58.0579C45.4884 58.9666 45.9663 59.8085 46.4066 60.5869C45.3274 57.332 43.9506 53.2598 42.4632 48.8768ZM9.55624 48.0912C8.09695 50.6079 6.94459 52.6521 6.18915 54.2321C5.81113 55.0227 5.55409 55.6544 5.407 56.1409C5.36555 56.2781 5.33649 56.392 5.3162 56.4853C5.45156 56.4743 5.63406 56.4521 5.87193 56.3979C7.01036 56.1382 8.82627 55.3903 11.5092 54.0384C14.1869 52.689 17.6339 50.782 21.4894 48.5862C20.4649 47.9007 19.4392 47.2109 18.4298 46.5281C15.6246 46.5178 13.1581 46.2344 10.8917 45.807C10.4266 46.6004 9.97935 47.3615 9.55624 48.0912ZM28.7999 50.1642C30.7665 51.4007 32.5057 52.4295 33.8354 53.0913C34.4342 53.3894 34.9162 53.595 35.2944 53.7196C35.3797 53.7476 35.4565 53.7699 35.5244 53.7882C35.4235 53.2393 35.1628 52.3827 34.672 51.1327C34.5754 50.8866 34.468 50.6305 34.3572 50.3619C34.092 50.3631 33.8958 50.2736 33.8136 50.2301L33.8076 50.226C32.5972 50.2916 31.5172 50.2986 30.6003 50.2718C29.9049 50.2514 29.2999 50.2109 28.7999 50.1642ZM52.194 45.0537C52.8008 46.0446 53.3579 46.9071 53.8673 47.6473C54.0415 47.9005 54.2119 48.1378 54.3734 48.3616C53.9687 47.2927 53.4717 46.0521 52.8987 44.6596C52.6636 44.7935 52.4289 44.9258 52.194 45.0537ZM29.1898 47.2558C29.1492 47.3128 29.1089 47.3666 29.0723 47.4199C29.5097 47.4594 30.0447 47.5 30.6657 47.5181C31.0662 47.5298 31.5018 47.5331 31.9684 47.5289C31.7269 47.104 31.4571 46.6274 31.1669 46.1043C30.5039 46.49 29.8449 46.8756 29.1898 47.2558ZM35.7968 47.3029C35.8734 47.2948 35.9507 47.286 36.0281 47.2773C35.6088 46.5272 35.1865 45.7727 34.7641 45.0174C35.1367 45.8305 35.4832 46.5917 35.7968 47.3029ZM26.106 45.9335C24.9967 46.1007 23.9338 46.2295 22.9132 46.3236C23.1407 46.4757 23.3667 46.6292 23.5925 46.7796C23.7551 46.888 23.9186 46.995 24.0804 47.1025C24.7471 46.719 25.4228 46.3285 26.106 45.9335ZM40.4618 42.974C39.2907 43.2518 38.127 43.5171 36.987 43.7717C37.5704 44.8147 38.1526 45.856 38.728 46.8859C39.6467 46.7223 40.6011 46.5234 41.5818 46.2778C41.3098 45.4769 41.0364 44.6682 40.7609 43.8565C40.6613 43.5629 40.5617 43.2684 40.4618 42.974ZM47.1198 41.2911C45.7367 41.664 44.3246 42.0275 42.91 42.3781C42.9672 42.5467 43.0248 42.7155 43.0819 42.8839C43.3901 43.7919 43.6957 44.6967 43.9997 45.5918C45.4757 45.1257 46.9952 44.5573 48.5315 43.8605C48.079 43.0612 47.6089 42.2049 47.1198 41.2911ZM21.1746 28.6125C18.6207 32.8313 16.2311 36.802 14.1002 40.3791C15.6575 41.4247 17.3706 42.5837 19.1212 43.769C21.7038 43.7361 24.591 43.4645 27.9003 42.8462C27.9107 42.8442 27.9214 42.8414 27.9318 42.8395C27.6041 42.6784 27.2997 42.4464 27.0625 42.1023C26.4865 41.266 26.6229 40.2976 26.8397 39.6419C26.9392 39.341 27.0754 39.0383 27.2368 38.7379C26.5326 37.3703 25.8075 35.9352 25.0853 34.4709C23.4588 33.4455 21.8494 31.8047 21.1903 28.6905C21.1849 28.6647 21.18 28.6383 21.1746 28.6125ZM12.3785 43.2767C12.893 43.3595 13.4187 43.4371 13.9573 43.5013C13.5415 43.2207 13.1322 42.9471 12.7332 42.6794C12.6143 42.8802 12.4955 43.0789 12.3785 43.2767ZM2.47941 36.7268C2.4796 36.8442 2.49017 36.999 2.51936 37.1936C2.62156 37.8741 2.89921 38.7134 3.21675 39.4119C3.53855 40.1196 3.80647 40.5438 4.16598 40.8728C4.53038 41.206 5.0881 41.529 6.10803 41.8225C7.27674 42.1589 8.4702 42.4791 9.71727 42.7615C10.0064 42.271 10.3039 41.7716 10.606 41.2615C7.52368 39.233 5.43626 37.9774 4.02432 37.2999C3.29613 36.9505 2.81204 36.7868 2.50241 36.7309C2.49483 36.7295 2.48661 36.728 2.47941 36.7268ZM49.6333 40.5943C50.0442 41.3508 50.4388 42.0633 50.8198 42.7305C51.1646 42.5464 51.5099 42.3554 51.855 42.1575C51.6481 41.6673 51.4374 41.1612 51.2169 40.6441C51.1528 40.4937 51.0866 40.3414 51.0208 40.1881C50.5644 40.3236 50.1016 40.4603 49.6333 40.5943ZM58.0795 37.7936C57.4719 38.0351 56.8352 38.2818 56.1653 38.5227C55.3097 38.8304 54.3989 39.1347 53.4471 39.4401C53.4505 39.4481 53.4546 39.4564 53.458 39.4643C53.6539 39.9238 53.8422 40.3759 54.0283 40.8163C54.641 40.4094 55.2528 39.9793 55.8602 39.5235C56.6026 38.9664 57.3513 38.3825 58.0795 37.7936ZM37.8672 35.3023C36.3019 35.7885 34.5757 36.1856 32.8002 36.3031C32.9576 36.5828 33.1148 36.8652 33.2736 37.1479C33.6287 37.4075 33.9781 37.6451 34.3221 37.8689C34.4726 37.9668 34.6228 38.0596 34.7713 38.1487C35.9212 37.3863 37.0757 36.7827 38.2062 36.3058C38.093 35.9704 37.9796 35.6357 37.8672 35.3023ZM62.9794 32.141C62.0905 32.3839 60.8288 32.8451 59.157 33.501C57.2796 34.2376 54.9148 35.2042 52.0935 36.3273C52.1822 36.5276 52.2684 36.7276 52.355 36.9246C53.4291 36.5848 54.4506 36.2427 55.4013 35.9009C59.1235 34.5623 61.6832 33.263 63.4758 32.0213C63.3371 32.0496 63.1722 32.0883 62.9794 32.141ZM42.4656 31.9823C41.9527 32.786 41.1801 33.6455 40.1773 34.3001C40.3083 34.6886 40.4399 35.0791 40.572 35.4704C41.7063 35.1433 42.7927 34.9289 43.7987 34.7951C43.807 34.794 43.8157 34.7922 43.8241 34.7911C43.3861 33.8914 42.93 32.9518 42.4656 31.9823ZM42.8482 26.8906C44.0689 29.4751 45.2669 31.9776 46.3594 34.2086C46.7975 33.9598 47.2334 33.7167 47.6634 33.4741C47.5635 33.3311 47.46 33.1817 47.351 33.0288C46.1446 31.3373 44.4223 29.0994 42.8482 26.8906ZM31.2589 33.575C31.3406 33.5782 31.4228 33.5761 31.5047 33.5777C31.6478 33.426 31.7914 33.2722 31.937 33.119C31.5391 32.9387 31.14 32.7504 30.7468 32.554C30.7161 32.5387 30.6854 32.5223 30.6548 32.5069C30.8538 32.8587 31.0556 33.215 31.2589 33.575ZM54.2523 19.9843C54.181 19.9579 53.815 19.8682 52.7776 20.2803C50.5851 21.1513 48.4025 22.3906 46.271 23.8585C47.6203 26.609 48.9461 29.4084 50.1696 32.0697C50.7343 31.7562 51.2885 31.4485 51.832 31.1509C53.9477 27.2243 54.5487 23.3057 54.4266 20.9569C54.4068 20.5751 54.3676 20.3117 54.3152 20.1363C54.2872 20.0427 54.2626 19.9996 54.2523 19.9843ZM67.4507 27.379C67.0129 27.3596 66.1932 27.4711 64.8064 27.9332C63.2224 28.461 61.0435 29.3943 58.0988 30.8832C57.7732 31.0479 57.4383 31.2176 57.0963 31.3944C57.5262 31.2227 57.938 31.0577 58.3313 30.9034C59.9983 30.2494 61.3657 29.7459 62.3873 29.4667C62.8936 29.3284 63.3753 29.2279 63.7954 29.2084C64.1422 29.1925 64.7876 29.2073 65.2907 29.7021C65.4347 29.8438 65.5601 30.0007 65.6684 30.1676C66.2745 29.5222 66.7144 28.8977 67.0463 28.2897C67.2604 27.8972 67.383 27.5914 67.4507 27.379ZM32.3002 28.1417C31.1004 28.1562 29.7896 28.1559 28.473 28.1471C29.4459 28.7946 30.5869 29.4531 31.7638 30.0411C32.5055 30.4117 33.2486 30.7464 33.9577 31.0326C34.5621 30.4201 35.1836 29.8043 35.8186 29.1883C35.7282 28.9164 35.6376 28.6465 35.5486 28.3785C34.5486 28.2802 33.4539 28.2021 32.3002 28.1417ZM39.3516 29.4694C39.6288 29.9863 39.86 30.4843 40.0211 30.9518C40.2777 30.6523 40.4819 30.3539 40.6204 30.0869C40.6995 29.9345 40.7258 29.8334 40.7343 29.7815C40.7382 29.7571 40.7381 29.7429 40.7379 29.7385V29.7358L40.7367 29.7317C40.7367 29.7317 40.7336 29.7252 40.7306 29.7196C40.724 29.7071 40.7095 29.6837 40.6834 29.6524C40.6293 29.5875 40.5273 29.491 40.348 29.3793C40.2057 29.2907 40.0018 29.2023 39.739 29.1129C39.6092 29.2309 39.4806 29.3508 39.3516 29.4694ZM32.9576 11.7395C33.6385 14.1816 34.628 17.4687 36.0959 22.0075C36.3538 22.8049 36.6288 23.6372 36.9119 24.5002C37.1991 24.5842 37.4596 24.6736 37.6723 24.7706C37.8123 24.8345 38.1594 24.9967 38.4145 25.3248C38.5192 25.4597 38.6672 25.7047 38.722 26.0351C38.8591 26.0613 38.9946 26.09 39.1276 26.1185C39.2585 26.0032 39.3905 25.8887 39.5223 25.7741C37.1396 20.7011 34.7519 15.5412 32.9576 11.7395ZM24.8771 22.5079C25.1074 22.8867 25.3597 23.3086 25.6314 23.7671C26.0088 23.6706 26.4138 23.6066 26.8191 23.5626C28.214 23.4113 29.9785 23.4689 31.6488 23.6218C31.7452 23.6306 31.842 23.6432 31.9382 23.6527C30.5014 21.9317 28.9342 20.14 27.3712 18.4077C26.5304 19.7885 25.6983 21.1568 24.8771 22.5079ZM33.8669 7.75635C33.87 7.76283 33.8734 7.77005 33.8766 7.77653C35.5387 11.2241 38.0857 16.7328 40.727 22.3775C40.7316 22.0806 40.7693 21.7792 40.8432 21.4735C40.9708 20.9464 41.2013 20.4477 41.4789 19.9722C40.3277 17.7401 39.2001 15.6358 38.1469 13.7816C36.6161 11.0866 35.2754 8.98726 34.1006 7.37297C34.0226 7.5007 33.9448 7.62866 33.8669 7.75635ZM28.7866 16.0846C30.2644 17.716 31.7621 19.409 33.161 21.0618C32.0785 17.6646 31.2862 15.0312 30.6996 12.9502C30.0593 14 29.4203 15.0447 28.7866 16.0846ZM23.2752 13.9659C23.0351 15.3605 22.8806 16.7994 22.8115 18.2611C23.0226 18.8038 23.2382 19.3568 23.4593 19.9184C24.1584 18.7688 24.8647 17.6077 25.5769 16.4383C24.7881 15.5808 24.0131 14.7523 23.2752 13.9659ZM29.0977 2.7831C28.6051 2.69244 28.2324 2.838 27.8349 3.18263C27.2537 3.6867 26.6565 4.59716 25.9159 5.9726C25.1113 7.46692 24.4612 9.12233 23.9654 10.8867C24.9062 11.8821 25.9308 12.9728 26.9898 14.1205C27.9168 12.5995 28.8515 11.0669 29.7903 9.528C29.3117 7.57946 29.1015 6.37854 28.95 5.41434C28.8709 4.91068 28.783 4.33549 28.7805 3.92115C28.7798 3.808 28.7845 3.64879 28.8144 3.47723C28.835 3.35963 28.8937 3.06459 29.0977 2.7831ZM20.8816 13.2085C20.97 12.715 21.0685 12.226 21.177 11.7422C20.6909 11.2316 20.2364 10.7573 19.8125 10.319C20.1433 11.2236 20.4999 12.189 20.8816 13.2085Z" fill="#FBE300"/>
</svg>
