<svg width="70" height="70" viewBox="0 0 70 70" fill="none" xmlns="http://www.w3.org/2000/svg">
<path fill-rule="evenodd" clip-rule="evenodd" d="M36.4573 0.0507073C37.352 -0.180337 37.8835 0.443345 38.0031 0.614311C38.1491 0.823026 38.2162 1.03909 38.2488 1.15572C38.2882 1.29704 38.3169 1.44815 38.339 1.59723C38.4252 2.1793 38.4611 3.09045 38.4357 4.31412C38.3841 6.78954 38.0757 10.7608 37.2792 16.4446C37.2706 16.5058 37.2605 16.5677 37.2518 16.6295C37.3566 17.3816 37.4609 18.1258 37.5706 18.8593C37.65 18.9676 37.691 19.0561 37.7013 19.0788C37.729 19.1398 37.7467 19.1914 37.7549 19.2169C37.7818 19.3016 37.7955 19.3773 37.798 19.3908C37.8148 19.483 37.8325 19.6303 37.8516 19.7917C37.8962 20.1699 37.9671 20.8472 38.0606 21.7587C38.1117 22.0199 38.1633 22.2797 38.2187 22.5369C38.8403 22.6201 39.4511 22.7066 40.0495 22.7885C40.4349 21.9351 40.7918 21.1398 41.1145 20.4058C41.4146 19.6471 41.6906 18.9452 41.9403 18.3216C42.6265 16.6079 43.0867 15.5094 43.3307 14.9634C43.391 14.8284 43.4443 14.7132 43.4875 14.6267C43.5064 14.5889 43.5382 14.5282 43.575 14.4676C43.5867 14.4484 43.6351 14.3661 43.7122 14.2777C43.7381 14.2481 43.8544 14.1135 44.0507 14.0002C44.153 13.9412 44.3704 13.833 44.6727 13.8165C45.0277 13.7972 45.3874 13.9121 45.6606 14.1507C45.894 14.3548 45.9892 14.5831 46.0278 14.6982C46.0694 14.8226 46.0819 14.9273 46.0866 14.9856C46.0958 15.1011 46.0856 15.193 46.0813 15.2286C46.0717 15.3089 46.0562 15.3739 46.05 15.3987C46.0347 15.4594 46.0153 15.5187 46.0016 15.5603C45.9717 15.6512 45.9302 15.7682 45.8801 15.9019C45.7023 16.3762 45.3585 17.2277 44.8635 18.4055C48.8331 13.2785 51.7217 10.4391 53.5963 8.86118L53.791 8.71073C54.0111 8.55658 54.304 8.4038 54.6626 8.34814C55.0044 8.29523 55.3288 8.34392 55.6139 8.46407C55.7097 8.2407 55.7997 8.0266 55.8896 7.824C56.5489 6.33988 57.076 5.35002 57.4473 4.81236C57.5404 4.67753 57.6512 4.52979 57.7766 4.40168C57.8377 4.33924 57.9368 4.24686 58.068 4.16119C58.1688 4.09538 58.4658 3.91365 58.8912 3.91701C59.4629 3.92182 59.8797 4.24348 60.0816 4.58667C60.2368 4.85071 60.2558 5.10034 60.2607 5.19961C60.2714 5.42378 60.2282 5.63233 60.1979 5.75828C60.048 6.38096 59.8158 7.00992 58.8899 8.55533C58.5639 9.09941 58.1411 9.76425 57.6015 10.5964C57.5144 10.811 57.4222 11.0327 57.331 11.2636C57.4102 11.1793 57.4912 11.0972 57.5701 11.0132C58.0603 10.4915 58.9067 10.4436 59.4596 10.9059C60.0126 11.3687 60.0636 12.1674 59.5733 12.6893C58.7104 13.6078 57.8454 14.5236 56.5796 15.7996C56.5488 16.0276 56.5177 16.261 56.4829 16.4988C56.1383 18.8521 55.5832 21.7618 54.8129 25.165C57.8337 25.7786 59.8299 26.3224 61.3413 26.8373C62.0751 27.0873 62.7485 27.3469 63.3066 27.6414C63.854 27.9302 64.4057 28.3118 64.7728 28.8549C65.6435 30.1439 65.018 31.4964 64.1952 32.5918C63.2084 33.9052 61.4215 35.5737 58.6821 37.6531C61.5392 37.6831 64.3556 37.7332 66.303 37.9602C67.0542 38.0478 67.764 38.1696 68.331 38.3561C68.6136 38.4491 68.9253 38.5792 69.2013 38.7704C69.4774 38.9618 69.8118 39.2817 69.9448 39.7681C70.084 40.278 69.9396 40.7375 69.7371 41.0705C69.5459 41.3845 69.2756 41.6387 69.0131 41.8425C68.486 42.2518 67.7193 42.6632 66.7525 43.093C65.0468 43.8514 62.4646 44.7738 59.3446 45.7976L59.8882 46.3415L59.3028 47.1776C58.4096 48.4518 53.3147 55.5276 49.0424 61.3652C46.9076 64.2821 44.9664 66.9063 43.8547 68.3455C43.5772 68.7047 43.3422 69.0005 43.166 69.2125C43.0801 69.3158 42.9946 69.416 42.9177 69.4973C42.8817 69.5354 42.8261 69.5917 42.7609 69.6478C42.7296 69.6748 42.6725 69.723 42.5963 69.7724C42.5561 69.7984 42.3487 69.9356 42.0422 69.9833C41.8661 70.0106 41.5695 70.0214 41.249 69.8784C40.9057 69.7251 40.6967 69.4687 40.5905 69.2384C40.442 68.9161 40.4784 68.6246 40.4938 68.5342C40.3551 68.6346 40.1505 68.7507 39.8783 68.8005C39.4565 68.8777 39.0605 68.7664 38.7676 68.565C38.5178 68.3931 38.3808 68.1843 38.3128 68.0631C38.1783 67.8229 38.1153 67.5636 38.0802 67.3885C38.04 67.1874 38.0104 66.958 37.9875 66.7139C37.9414 66.2237 37.9136 65.5852 37.8986 64.8134C37.8694 63.3071 37.8864 61.198 37.9221 58.4805C37.7342 58.1448 37.5308 57.7346 37.3132 57.2645C37.1061 56.8172 36.8776 56.2907 36.6206 55.6872C34.1592 56.8032 31.7813 57.9635 29.9733 58.8345C28.8799 59.3612 27.9025 59.8292 27.1494 60.0838C26.7813 60.2082 26.3343 60.329 25.8871 60.3268C25.3858 60.3241 24.7263 60.1539 24.3164 59.5449C23.9823 59.048 23.9859 58.4895 24.0237 58.1204C24.0658 57.7109 24.1843 57.2483 24.3439 56.7552C24.4212 56.5165 24.5133 56.2574 24.6183 55.977C23.0722 56.4147 21.6162 56.8281 20.2813 57.2115C13.5666 59.1402 9.84349 60.3122 7.82814 60.9816C6.8226 61.3156 6.24135 61.5245 5.92554 61.6402C5.78698 61.6909 5.65342 61.7413 5.58056 61.766C5.55961 61.7731 5.51657 61.7871 5.46688 61.8005C5.44239 61.8071 5.39517 61.8196 5.3362 61.8301C5.30144 61.8363 5.14809 61.8641 4.95333 61.8461C4.84965 61.8365 4.00141 61.7356 3.7812 60.8891C3.69527 60.5581 3.77359 60.2884 3.82301 60.159C3.87547 60.0217 3.94124 59.9226 3.97721 59.8729C4.04893 59.7738 4.12035 59.7068 4.14316 59.6855C4.17482 59.6558 4.20275 59.6323 4.21764 59.6201L4.74948 59.2378C5.71784 58.5289 8.23066 56.5901 14.4127 51.1463C18.025 47.9654 22.7918 43.6725 27.7022 39.2082C26.3669 37.8675 25.0509 36.5725 23.7951 35.374L23.7872 35.3728C23.1714 35.1939 22.5886 34.9977 22.1786 34.7796C22.0186 34.6944 21.6427 34.4853 21.4103 34.1037C21.2836 33.8954 21.1763 33.5934 21.2221 33.2417C16.7451 31.6003 12.4626 29.8541 9.33218 28.3653C3.45915 25.5722 1.74799 23.7161 0.762652 22.125C0.541468 21.7678 0.339178 21.3979 0.200758 21.0373C0.0708447 20.6986 -0.0556262 20.2363 0.0256566 19.7473C0.122871 19.164 0.495564 18.6753 1.07757 18.4055C1.56791 18.1783 2.11333 18.1493 2.58031 18.1748C3.31556 18.2151 4.06896 18.3431 4.84226 18.5497C5.48385 18.6148 6.23276 18.695 7.08984 18.789C10.8388 19.2001 16.7298 19.87 23.0463 20.6278C21.3096 15.9537 19.8169 11.845 18.8765 9.07701C18.1432 6.91839 17.6979 5.45392 17.579 4.64587C17.5496 4.44615 17.5232 4.18291 17.5594 3.92317C17.5795 3.77875 17.7203 2.92948 18.6609 2.71334C19.058 2.6222 19.3894 2.71317 19.5691 2.7824C19.7545 2.85392 19.8987 2.94839 19.9925 3.01672C20.1804 3.15379 20.3498 3.32282 20.4864 3.4718C21.0246 4.05856 21.8098 5.16478 22.7445 6.50687C23.7063 7.88797 24.8781 9.59763 26.2386 11.5004C28.4716 14.6231 31.1632 18.1985 33.7536 21.6453C34.0517 19.8665 34.3285 18.1625 34.5508 16.6246C34.5056 16.2996 34.4605 15.9757 34.4149 15.654C33.8525 11.6923 33.9333 8.34511 34.2463 5.81994C34.5527 3.34789 35.0971 1.55017 35.553 0.751204L35.6445 0.606912C35.6834 0.55294 35.7316 0.494437 35.7895 0.435487C35.9002 0.322899 36.1184 0.138279 36.4573 0.0507073ZM44.3146 56.5344C43.7545 58.6927 43.2499 60.6279 42.8184 62.2346C42.3046 64.148 41.8855 65.628 41.5522 66.6189C42.51 65.1318 44.8865 61.2352 46.4707 57.7468C45.8906 57.6772 45.3956 57.3798 45.0503 57.1338C44.8123 56.9642 44.567 56.7598 44.3146 56.5344ZM40.8035 59.4228C40.7418 59.4882 40.6698 59.5512 40.5865 59.6102C40.5839 59.8334 40.5822 60.0518 40.58 60.2651C40.6524 59.9915 40.7277 59.7107 40.8035 59.4228ZM27.8577 55.0607C27.4278 56.0608 27.1199 56.8395 26.9234 57.436C27.4045 57.2285 28.0076 56.9459 28.7567 56.585C30.5885 55.7026 33.0719 54.4916 35.6419 53.3304C35.5857 53.192 35.5286 53.0508 35.4707 52.9074C32.8462 53.6515 30.2774 54.3781 27.8577 55.0607ZM29.5238 41.0582C24.6164 45.5195 19.8534 49.8104 16.2382 52.9937C14.2864 54.7125 12.6893 56.0867 11.389 57.1893C13.4404 56.5619 16.0893 55.7743 19.5012 54.7943C21.4178 54.2438 23.5693 53.6351 25.8715 52.9851C25.9172 52.8823 25.9627 52.7776 26.01 52.6718C27.2033 50.0053 28.9314 46.3536 30.82 42.3851C30.3891 41.9413 29.9557 41.4989 29.5238 41.0582ZM56.381 46.7509C53.9294 47.523 51.252 48.3357 48.4713 49.1583C48.4961 49.3856 48.5183 49.6084 48.5406 49.8255C48.7009 49.8809 48.8565 49.9472 49.0058 50.0253C49.9543 50.5213 50.4156 51.3564 50.566 52.2266C50.7083 53.0511 50.5899 53.9664 50.3687 54.8597C50.3388 54.9804 50.3012 55.1014 50.2668 55.2247C52.8093 51.7229 55.1802 48.431 56.381 46.7509ZM45.6462 54.2233C45.6742 54.2507 45.701 54.2793 45.7285 54.3059C45.8802 54.4526 46.0216 54.5801 46.148 54.6932C46.1651 54.308 46.159 53.8295 46.1323 53.2453C45.966 53.5935 45.804 53.9196 45.6462 54.2233ZM32.4182 45.1945C31.2159 47.7284 30.109 50.0728 29.2062 52.0441C30.9313 51.5576 32.7125 51.0512 34.522 50.5383C34.4954 50.4714 34.4692 50.4036 34.4423 50.336C33.7284 50.1954 33.0364 49.8368 32.605 49.1336C32.174 48.4305 32.1335 47.5922 32.2601 46.7744C32.3184 46.3971 32.4185 45.9851 32.5541 45.5436C32.5088 45.4279 32.4638 45.3112 32.4182 45.1945ZM43.9919 47.1443C42.9432 47.7171 41.913 48.25 40.9315 48.7081V48.7118C41.8914 48.4357 42.8494 48.1584 43.8011 47.8818C43.8645 47.637 43.9279 47.391 43.9919 47.1443ZM51.1279 42.8637C50.6899 43.1447 50.2379 43.4303 49.7781 43.7195C49.4762 44.6543 49.1787 45.5441 48.8843 46.3871C50.6799 45.8521 52.4144 45.3269 54.055 44.8184C53.7817 44.6181 53.5 44.411 53.2108 44.203C52.5605 43.7351 51.8876 43.2623 51.2285 42.7983C51.195 42.8199 51.1616 42.842 51.1279 42.8637ZM43.2418 39.3636C42.5763 39.7873 41.8181 40.1902 41.0478 40.5624C40.9736 42.315 40.9107 44.1142 40.857 45.9037C42.1465 45.2557 43.5152 44.4945 44.8896 43.6887C44.931 43.5299 44.9722 43.3706 45.0137 43.2114C44.8398 42.0114 44.6487 40.7806 44.4492 39.5523C44.3072 39.5238 44.1628 39.495 44.0167 39.466C43.7578 39.4328 43.4992 39.3998 43.2418 39.3636ZM36.8493 42.3087C36.5326 42.9189 36.25 43.4893 36.0065 44.018C36.5778 44.6174 37.1394 45.2112 37.6895 45.7927C37.6149 44.9934 37.5393 44.1722 37.4608 43.3372C37.4126 42.9512 37.364 42.5517 37.3145 42.1385C37.1554 42.1978 37.0002 42.2544 36.8493 42.3087ZM56.6449 40.1542C56.7155 40.2093 56.7978 40.2805 56.8697 40.3614C56.9102 40.407 57.0181 40.5331 57.0971 40.7202C57.1718 40.8976 57.3221 41.3958 56.9664 41.898C56.6472 42.3485 56.1706 42.4323 56.0399 42.4505C55.8661 42.4747 55.725 42.4608 55.6662 42.4542C55.4594 42.4309 55.2606 42.362 55.1905 42.3383C55.0965 42.3065 54.9885 42.265 54.8704 42.2199C55.6387 42.773 56.3982 43.3346 57.0853 43.8638C60.7637 42.6827 63.7625 41.6312 65.6117 40.809C65.8544 40.7011 66.0693 40.5983 66.2598 40.5044C66.1692 40.4923 66.074 40.479 65.975 40.4674C63.7103 40.2034 60.1775 40.1898 56.6449 40.1542ZM54.2379 27.6315C53.5404 30.5347 52.7021 33.744 51.7199 37.2276C51.9053 37.337 52.0852 37.4451 52.2609 37.5483C52.8991 37.5685 53.5555 37.5865 54.2327 37.5988C54.2794 37.5997 54.3269 37.5993 54.3738 37.6001C58.5973 34.6407 60.9627 32.5285 62.013 31.1303C62.3546 30.6755 62.472 30.4011 62.5043 30.2609C62.51 30.2362 62.51 30.2185 62.5108 30.2078C62.4784 30.1642 62.358 30.0355 61.9999 29.8465C61.6335 29.6533 61.1229 29.4489 60.4331 29.2138C59.0526 28.7435 57.1746 28.2275 54.2379 27.6315ZM29.2872 37.1142C29.2221 36.9447 29.1553 36.775 29.0899 36.6048C29.0713 36.601 29.0523 36.5975 29.0337 36.5937C28.9195 36.5703 28.8054 36.5455 28.6927 36.5222C28.89 36.7184 29.0888 36.9156 29.2872 37.1142ZM45.0869 28.9425C45.4511 30.3949 45.8125 32.079 46.1584 33.8657C46.5484 34.1076 46.9292 34.3432 47.3005 34.5712C48.0346 31.8458 48.7621 29.1992 49.4592 26.7547C48.6457 26.6179 47.7779 26.4779 46.8523 26.3329C46.2657 27.1941 45.6747 28.0662 45.0869 28.9425ZM34.7154 31.9862C34.9241 32.0043 35.1327 32.0222 35.34 32.0417C35.588 31.6361 35.8454 31.2186 36.1149 30.7912C36.055 30.1717 35.9954 29.5589 35.9385 28.9585C35.7475 28.6992 35.552 28.4361 35.3544 28.1692C35.1308 29.4765 34.9152 30.7619 34.7154 31.9862ZM23.1652 31.2413C23.5946 31.3962 24.0254 31.5504 24.4563 31.7026C24.8206 31.6798 25.2165 31.6644 25.6349 31.6532C25.7761 31.6495 25.9212 31.6496 26.0688 31.6471C24.4533 30.9106 22.7855 30.1572 21.1176 29.4099C21.7843 29.9994 22.4682 30.6088 23.1652 31.2413ZM29.5813 30.4483C30.4365 30.8417 31.2692 31.2258 32.0693 31.5977C32.4035 29.5491 32.7789 27.371 33.1499 25.2131C32.9341 24.9252 32.717 24.6342 32.4979 24.3424C30.694 24.1125 28.8521 23.8826 27.0135 23.6567C27.8448 25.871 28.7099 28.1589 29.5813 30.4483ZM11.6725 21.9055C12.3593 22.3621 13.067 22.8609 13.7973 23.399C17.63 25.0516 22.0141 27.0013 26.1393 28.8747C25.4224 26.9823 24.715 25.1083 24.0355 23.2929C19.5219 22.7476 15.1599 22.2431 11.5654 21.8352C11.6008 21.8585 11.6371 21.8819 11.6725 21.9055ZM4.12225 22.1509C5.10273 23.1049 6.89299 24.3773 10.5357 26.1097C12.1369 26.8712 14.0584 27.7039 16.1585 28.559C14.8286 27.4487 13.5776 26.4508 12.3952 25.5708C10.5527 24.7778 8.84731 24.0564 7.37209 23.4532C6.10226 22.9341 5.02076 22.5072 4.12225 22.1509ZM38.9296 25.2365C38.9368 25.221 38.9434 25.2052 38.9505 25.1897C38.938 25.188 38.9251 25.1864 38.9126 25.1847C38.9181 25.202 38.9241 25.2193 38.9296 25.2365ZM49.1835 22.9365C48.9362 23.2948 48.6864 23.6572 48.4348 24.023C49.0365 24.12 49.6134 24.2155 50.1662 24.3091C50.4977 23.1806 50.8219 22.1089 51.1358 21.0915C50.5343 21.6626 49.8856 22.276 49.1835 22.9365ZM52.5666 13.3996C51.0606 14.9584 49.1999 17.0813 46.9712 19.9643C46.0604 21.1425 45.1955 22.2888 44.3774 23.399C44.527 23.421 44.6758 23.4425 44.823 23.4643C44.9395 23.3556 45.0563 23.2491 45.1705 23.1424C45.8546 22.5035 46.494 21.8998 47.0967 21.3332C48.5504 19.2279 49.9092 17.2731 51.06 15.6035C51.6086 14.8075 52.1074 14.0735 52.5666 13.3996ZM22.0493 10.113C23.0582 12.9894 24.4521 16.7922 26.0165 20.9879C27.4714 21.1653 28.9349 21.3464 30.3862 21.5281C28.1708 18.5782 25.9282 15.5812 24.0198 12.9125C23.3115 11.9219 22.6522 10.9796 22.0493 10.113Z" fill="#FBE300"/>
</svg>
