<svg width="93" height="83" viewBox="0 0 93 83" fill="none" xmlns="http://www.w3.org/2000/svg">
<mask id="path-1-outside-1_515_2878" maskUnits="userSpaceOnUse" x="0" y="-0.982422" width="93" height="83" fill="black">
<rect fill="white" y="-0.982422" width="93" height="83"/>
<path fill-rule="evenodd" clip-rule="evenodd" d="M42.4572 6.06829C43.3517 5.8373 43.8833 6.46061 44.0031 6.63176C44.1489 6.84027 44.2166 7.05606 44.2492 7.17278C44.2886 7.3141 44.3169 7.46608 44.3391 7.61516C44.4252 8.19725 44.4612 9.10857 44.4357 10.332C44.3842 12.8074 44.0759 16.7784 43.2795 22.4618C43.2709 22.5231 43.2609 22.5855 43.2521 22.6474C43.3569 23.3993 43.4608 24.1435 43.5705 24.8769C43.6499 24.9852 43.691 25.0739 43.7014 25.0966C43.729 25.1574 43.7469 25.2087 43.7551 25.2343C43.7819 25.3185 43.7955 25.394 43.798 25.4081C43.8148 25.5003 43.8327 25.6481 43.8517 25.8095C43.8964 26.1878 43.9672 26.865 44.0607 27.7763C44.1118 28.0374 44.1635 28.2974 44.2189 28.5546C44.8405 28.6378 45.4516 28.7236 46.05 28.8056C46.4353 27.9525 46.7919 27.1575 47.1144 26.4238C47.4145 25.6651 47.6909 24.9624 47.9406 24.3388C48.6266 22.6255 49.0873 21.5275 49.3312 20.9814C49.3915 20.8465 49.4443 20.7309 49.4875 20.6445C49.5064 20.6066 49.5385 20.5458 49.5754 20.4853C49.5871 20.466 49.635 20.3833 49.7121 20.2948C49.738 20.2651 49.8548 20.1307 50.051 20.0175C50.1533 19.9585 50.371 19.8505 50.673 19.8339C51.0278 19.8147 51.3872 19.9295 51.6603 20.1679C51.8937 20.372 51.9889 20.6005 52.0275 20.7157C52.0691 20.84 52.0824 20.9445 52.0871 21.0029C52.0963 21.1184 52.0855 21.2105 52.0812 21.246C52.0716 21.3261 52.0563 21.3909 52.05 21.4159C52.0348 21.4766 52.0158 21.5364 52.0021 21.5781C51.9722 21.6689 51.9302 21.7862 51.8801 21.9198C51.7022 22.3942 51.3584 23.2455 50.8635 24.4228C54.8331 19.2959 57.7222 16.4567 59.5969 14.8788L59.7912 14.7284C60.0113 14.5743 60.3046 14.4208 60.6633 14.3652C61.0048 14.3124 61.3295 14.3613 61.6144 14.4814C61.7102 14.2582 61.7999 14.0442 61.8898 13.8417C62.549 12.3577 63.0762 11.3677 63.4474 10.83C63.5406 10.6952 63.6512 10.547 63.7766 10.4189C63.8377 10.3564 63.9374 10.2643 64.0685 10.1786C64.1697 10.1127 64.4668 9.93114 64.8918 9.9345C65.4632 9.93945 65.8803 10.2613 66.0822 10.6044C66.237 10.868 66.2561 11.1172 66.2609 11.2167C66.2717 11.4406 66.2287 11.6493 66.1984 11.7753C66.0485 12.398 65.8157 13.0278 64.8898 14.5732C64.5639 15.1172 64.1413 15.7822 63.6017 16.6142C63.5147 16.8287 63.4224 17.0504 63.3312 17.2812C63.4104 17.197 63.4917 17.1151 63.5705 17.0312C64.0607 16.5094 64.9072 16.4614 65.4601 16.9238C66.0128 17.3865 66.0636 18.1852 65.5734 18.707C64.7106 19.6254 63.8459 20.5414 62.5803 21.8173C62.5495 22.0453 62.5174 22.2788 62.4826 22.5165C62.138 24.8698 61.583 27.7794 60.8127 31.1825C63.8335 31.7961 65.8306 32.3395 67.342 32.8544C68.0757 33.1044 68.7487 33.3647 69.3068 33.6591C69.854 33.9478 70.4056 34.3292 70.7726 34.872C71.6434 36.1609 71.0183 37.5139 70.1955 38.6093C69.2087 39.9228 67.4212 41.5914 64.6818 43.6708C67.5388 43.7009 70.3555 43.7505 72.3029 43.9775C73.0541 44.0651 73.7643 44.1875 74.3312 44.374C74.6138 44.4669 74.9254 44.5969 75.2014 44.788C75.4775 44.9794 75.8125 45.2996 75.9455 45.7861C76.0844 46.2956 75.9399 46.7549 75.7375 47.0878C75.5463 47.4019 75.2753 47.6564 75.0129 47.8603C74.4859 48.2694 73.7194 48.6806 72.7531 49.1103C71.0475 49.8686 68.4649 50.7915 65.3449 51.8154L65.8889 52.3593L65.3029 53.1952C64.4095 54.4697 59.3144 61.5453 55.0422 67.3827C52.9074 70.2996 50.9664 72.924 49.8547 74.3632C49.5773 74.7223 49.3424 75.0185 49.1662 75.2304C49.0804 75.3336 48.9949 75.4334 48.9182 75.5146C48.8821 75.5527 48.826 75.6089 48.7609 75.665C48.7296 75.692 48.6729 75.7406 48.5969 75.79C48.5567 75.816 48.3486 75.9532 48.0422 76.0009C47.866 76.0282 47.5695 76.0392 47.2492 75.8964C46.9059 75.7431 46.6973 75.4861 46.591 75.2558C46.4425 74.9335 46.479 74.6421 46.4943 74.5517C46.3557 74.6521 46.1504 74.7684 45.8781 74.8183C45.4566 74.8952 45.0606 74.7842 44.7678 74.5829C44.5181 74.4111 44.3807 74.2022 44.3127 74.081C44.1782 73.8409 44.1154 73.5813 44.0803 73.4062C44.04 73.2051 44.0105 72.9755 43.9875 72.7314C43.9414 72.2413 43.9136 71.6028 43.8986 70.831C43.8694 69.3247 43.8863 67.2154 43.9221 64.498C43.7342 64.1623 43.5312 63.752 43.3137 63.2822C43.1066 62.8349 42.8782 62.3083 42.6213 61.705C40.16 62.821 37.7818 63.9815 35.9738 64.8525C34.8804 65.3792 33.9026 65.8469 33.1496 66.1015C32.7814 66.2259 32.3341 66.3469 31.8869 66.3447C31.3856 66.3419 30.7263 66.1713 30.3166 65.5624C29.9824 65.0656 29.9857 64.5067 30.0236 64.1376C30.0657 63.7281 30.1844 63.2653 30.3439 62.7724C30.4212 62.5338 30.5133 62.2743 30.6183 61.9941C29.0723 62.4317 27.6163 62.846 26.2814 63.2294C19.5669 65.1581 15.8437 66.3295 13.8283 66.999C12.8228 67.333 12.2418 67.5425 11.926 67.6581C11.7874 67.7089 11.6531 67.7584 11.5803 67.7831C11.5592 67.7903 11.5164 67.8049 11.467 67.8183C11.4425 67.8249 11.395 67.8371 11.3361 67.8476C11.3009 67.8539 11.1476 67.8811 10.9533 67.8632C10.8485 67.8534 10.0015 67.752 9.78143 66.9062C9.69568 66.5754 9.77403 66.3061 9.82342 66.1767C9.87588 66.0394 9.94176 65.9402 9.97772 65.8906C10.0494 65.7915 10.1209 65.7244 10.1437 65.7031C10.1753 65.6735 10.2031 65.6498 10.218 65.6376L10.7492 65.2548C11.7176 64.546 14.2312 62.6078 20.4133 57.164C24.0255 53.9832 28.792 49.6898 33.7023 45.2255C32.3671 43.8848 31.0509 42.59 29.7951 41.3915L29.7873 41.3906C29.1715 41.2117 28.5888 41.0149 28.1789 40.7968C28.0188 40.7116 27.6428 40.5026 27.4103 40.121C27.2837 39.9127 27.1761 39.6103 27.2219 39.2587C22.7451 37.6174 18.4625 35.8714 15.3322 34.3827C9.45934 31.5897 7.74821 29.7336 6.76288 28.1425C6.5417 27.7853 6.33977 27.4153 6.20135 27.0546C6.07144 26.716 5.94429 26.2536 6.02557 25.7646C6.12281 25.1815 6.49553 24.6926 7.07733 24.4228C7.56758 24.1957 8.11333 24.1668 8.58026 24.1923C9.31537 24.2326 10.0688 24.3608 10.842 24.5673C11.4836 24.6324 12.2329 24.7126 13.09 24.8066C16.8389 25.2176 22.7298 25.8876 29.0461 26.6454C27.3095 21.9715 25.8175 17.8626 24.8771 15.0947C24.1438 12.936 23.6982 11.4711 23.5793 10.663C23.5499 10.4633 23.5236 10.2 23.5598 9.94036C23.5801 9.79492 23.7214 8.94637 24.6613 8.73039C25.0582 8.63937 25.3899 8.73052 25.5695 8.79973C25.7547 8.87119 25.8987 8.96581 25.9924 9.03411C26.1803 9.17114 26.3499 9.34024 26.4865 9.48918C27.0246 10.0759 27.8097 11.1823 28.7443 12.5243C29.7061 13.9053 30.878 15.6149 32.2385 17.5175C34.4714 20.6402 37.1636 24.2162 39.7541 27.663C40.0521 25.8844 40.3287 24.1802 40.551 22.6425C40.5058 22.3176 40.4609 21.9934 40.4152 21.6718C39.8529 17.7103 39.9333 14.3629 40.2463 11.8378C40.5527 9.36576 41.097 7.56745 41.5529 6.76848L41.6447 6.62395C41.6836 6.57015 41.7316 6.51179 41.7892 6.45305C41.8999 6.34049 42.1185 6.15588 42.4572 6.06829ZM50.3146 62.5517C49.7546 64.7098 49.25 66.6452 48.8185 68.2519C48.3047 70.1653 47.8852 71.6457 47.5519 72.6366C48.5097 71.1496 50.8866 67.2529 52.4709 63.7646C51.8909 63.6951 51.3962 63.3972 51.051 63.1513C50.813 62.9817 50.5671 62.7771 50.3146 62.5517ZM46.8039 65.4404C46.7423 65.5058 46.6703 65.5689 46.5871 65.6279C46.5845 65.8508 46.5825 66.0691 46.5803 66.2822C46.6527 66.0088 46.7282 65.7281 46.8039 65.4404ZM33.8576 61.0781C33.4278 62.0778 33.1206 62.8566 32.924 63.4531C33.405 63.2456 34.0082 62.9632 34.757 62.6025C36.5888 61.72 39.0719 60.5087 41.6418 59.3476C41.5856 59.2093 41.5288 59.068 41.4709 58.9247C38.8464 59.6688 36.2773 60.3954 33.8576 61.0781ZM35.5236 47.0761C30.6164 51.5373 25.8535 55.8284 22.2385 59.0116C20.2867 60.7303 18.6892 62.1043 17.3889 63.207C19.4403 62.5796 22.0893 61.7915 25.5012 60.8115C27.4177 60.2609 29.5693 59.6528 31.8713 59.0029C31.917 58.9001 31.9627 58.7951 32.0099 58.6894C33.2033 56.0228 34.9318 52.3708 36.8205 48.4023C36.3896 47.9585 35.9555 47.5168 35.5236 47.0761ZM62.381 52.7685C59.9296 53.5405 57.2523 54.3532 54.4719 55.1757C54.4966 55.403 54.5189 55.6257 54.5412 55.8427C54.7014 55.8981 54.8568 55.9649 55.006 56.0429C55.9545 56.539 56.4162 57.3739 56.5666 58.2441C56.7089 59.0684 56.5904 59.9837 56.3693 60.8769C56.3394 60.9976 56.3012 61.1188 56.2668 61.2421C58.8092 57.7403 61.1803 54.4486 62.381 52.7685ZM52.132 59.2626C51.9658 59.6108 51.8045 59.9375 51.6467 60.2411C51.6745 60.2684 51.7013 60.2967 51.7287 60.3232C51.8804 60.4699 52.0223 60.5978 52.1486 60.7109C52.1658 60.3257 52.1587 59.8468 52.132 59.2626ZM57.1281 48.8808C56.6901 49.1618 56.2383 49.448 55.7785 49.7372C55.4766 50.6718 55.1784 51.5613 54.884 52.4042C56.6795 51.8693 58.4144 51.3443 60.0549 50.8359C59.7817 50.6356 59.5002 50.4286 59.2111 50.2206C58.5607 49.7527 57.8877 49.2794 57.2287 48.8154C57.1952 48.8369 57.1617 48.8592 57.1281 48.8808ZM62.6447 46.1718C62.7153 46.227 62.7985 46.298 62.8703 46.3788C62.9109 46.4246 63.018 46.5513 63.0969 46.7382C63.1717 46.9158 63.3225 47.414 62.967 47.9159C62.6479 48.3662 62.1711 48.4494 62.0402 48.4677C61.8664 48.4919 61.725 48.4782 61.6662 48.4716C61.4594 48.4483 61.2606 48.3791 61.1906 48.3554C61.0967 48.3236 60.9883 48.2823 60.8703 48.2372C61.6386 48.7903 62.398 49.3525 63.0851 49.8818C66.7634 48.7007 69.7623 47.6482 71.6115 46.8261C71.8541 46.7182 72.0695 46.6162 72.2599 46.5224C72.1693 46.5102 72.0738 46.4968 71.9748 46.4853C69.7101 46.2213 66.1772 46.2075 62.6447 46.1718ZM10.1223 28.1689C11.1028 29.1229 12.8938 30.3946 16.5363 32.1269C18.1374 32.8883 20.0585 33.7211 22.1584 34.5761C20.8286 33.466 19.578 32.4678 18.3957 31.5878C16.5532 30.7948 14.8475 30.0738 13.3723 29.4706C12.1024 28.9515 11.0207 28.5252 10.1223 28.1689ZM55.1838 28.954C54.9365 29.3124 54.6864 29.6751 54.4348 30.0409C55.0364 30.138 55.6134 30.2335 56.1662 30.3271C56.4977 29.1986 56.8221 28.1266 57.1359 27.1093C56.5345 27.6803 55.8858 28.2936 55.1838 28.954ZM58.5666 19.4169C57.0607 20.9756 55.2004 23.0986 52.9719 25.9814C52.0611 27.1596 51.1952 28.3068 50.3771 29.4169C50.5268 29.4389 50.6763 29.4595 50.8234 29.4814C50.9398 29.3728 51.057 29.2667 51.1711 29.1601C51.8551 28.5212 52.4942 27.917 53.0969 27.3505C54.5505 25.2453 55.9091 23.2905 57.0598 21.621C57.6084 20.825 58.1074 20.0908 58.5666 19.4169ZM28.049 16.1308C29.0579 19.0072 30.4524 22.8101 32.0168 27.0058C33.4715 27.1831 34.9348 27.3641 36.3859 27.5458C34.1705 24.596 31.928 21.5983 30.0197 18.9296C29.3115 17.9392 28.6519 16.9973 28.049 16.1308Z"/>
</mask>
<path fill-rule="evenodd" clip-rule="evenodd" d="M42.4572 6.06829C43.3517 5.8373 43.8833 6.46061 44.0031 6.63176C44.1489 6.84027 44.2166 7.05606 44.2492 7.17278C44.2886 7.3141 44.3169 7.46608 44.3391 7.61516C44.4252 8.19725 44.4612 9.10857 44.4357 10.332C44.3842 12.8074 44.0759 16.7784 43.2795 22.4618C43.2709 22.5231 43.2609 22.5855 43.2521 22.6474C43.3569 23.3993 43.4608 24.1435 43.5705 24.8769C43.6499 24.9852 43.691 25.0739 43.7014 25.0966C43.729 25.1574 43.7469 25.2087 43.7551 25.2343C43.7819 25.3185 43.7955 25.394 43.798 25.4081C43.8148 25.5003 43.8327 25.6481 43.8517 25.8095C43.8964 26.1878 43.9672 26.865 44.0607 27.7763C44.1118 28.0374 44.1635 28.2974 44.2189 28.5546C44.8405 28.6378 45.4516 28.7236 46.05 28.8056C46.4353 27.9525 46.7919 27.1575 47.1144 26.4238C47.4145 25.6651 47.6909 24.9624 47.9406 24.3388C48.6266 22.6255 49.0873 21.5275 49.3312 20.9814C49.3915 20.8465 49.4443 20.7309 49.4875 20.6445C49.5064 20.6066 49.5385 20.5458 49.5754 20.4853C49.5871 20.466 49.635 20.3833 49.7121 20.2948C49.738 20.2651 49.8548 20.1307 50.051 20.0175C50.1533 19.9585 50.371 19.8505 50.673 19.8339C51.0278 19.8147 51.3872 19.9295 51.6603 20.1679C51.8937 20.372 51.9889 20.6005 52.0275 20.7157C52.0691 20.84 52.0824 20.9445 52.0871 21.0029C52.0963 21.1184 52.0855 21.2105 52.0812 21.246C52.0716 21.3261 52.0563 21.3909 52.05 21.4159C52.0348 21.4766 52.0158 21.5364 52.0021 21.5781C51.9722 21.6689 51.9302 21.7862 51.8801 21.9198C51.7022 22.3942 51.3584 23.2455 50.8635 24.4228C54.8331 19.2959 57.7222 16.4567 59.5969 14.8788L59.7912 14.7284C60.0113 14.5743 60.3046 14.4208 60.6633 14.3652C61.0048 14.3124 61.3295 14.3613 61.6144 14.4814C61.7102 14.2582 61.7999 14.0442 61.8898 13.8417C62.549 12.3577 63.0762 11.3677 63.4474 10.83C63.5406 10.6952 63.6512 10.547 63.7766 10.4189C63.8377 10.3564 63.9374 10.2643 64.0685 10.1786C64.1697 10.1127 64.4668 9.93114 64.8918 9.9345C65.4632 9.93945 65.8803 10.2613 66.0822 10.6044C66.237 10.868 66.2561 11.1172 66.2609 11.2167C66.2717 11.4406 66.2287 11.6493 66.1984 11.7753C66.0485 12.398 65.8157 13.0278 64.8898 14.5732C64.5639 15.1172 64.1413 15.7822 63.6017 16.6142C63.5147 16.8287 63.4224 17.0504 63.3312 17.2812C63.4104 17.197 63.4917 17.1151 63.5705 17.0312C64.0607 16.5094 64.9072 16.4614 65.4601 16.9238C66.0128 17.3865 66.0636 18.1852 65.5734 18.707C64.7106 19.6254 63.8459 20.5414 62.5803 21.8173C62.5495 22.0453 62.5174 22.2788 62.4826 22.5165C62.138 24.8698 61.583 27.7794 60.8127 31.1825C63.8335 31.7961 65.8306 32.3395 67.342 32.8544C68.0757 33.1044 68.7487 33.3647 69.3068 33.6591C69.854 33.9478 70.4056 34.3292 70.7726 34.872C71.6434 36.1609 71.0183 37.5139 70.1955 38.6093C69.2087 39.9228 67.4212 41.5914 64.6818 43.6708C67.5388 43.7009 70.3555 43.7505 72.3029 43.9775C73.0541 44.0651 73.7643 44.1875 74.3312 44.374C74.6138 44.4669 74.9254 44.5969 75.2014 44.788C75.4775 44.9794 75.8125 45.2996 75.9455 45.7861C76.0844 46.2956 75.9399 46.7549 75.7375 47.0878C75.5463 47.4019 75.2753 47.6564 75.0129 47.8603C74.4859 48.2694 73.7194 48.6806 72.7531 49.1103C71.0475 49.8686 68.4649 50.7915 65.3449 51.8154L65.8889 52.3593L65.3029 53.1952C64.4095 54.4697 59.3144 61.5453 55.0422 67.3827C52.9074 70.2996 50.9664 72.924 49.8547 74.3632C49.5773 74.7223 49.3424 75.0185 49.1662 75.2304C49.0804 75.3336 48.9949 75.4334 48.9182 75.5146C48.8821 75.5527 48.826 75.6089 48.7609 75.665C48.7296 75.692 48.6729 75.7406 48.5969 75.79C48.5567 75.816 48.3486 75.9532 48.0422 76.0009C47.866 76.0282 47.5695 76.0392 47.2492 75.8964C46.9059 75.7431 46.6973 75.4861 46.591 75.2558C46.4425 74.9335 46.479 74.6421 46.4943 74.5517C46.3557 74.6521 46.1504 74.7684 45.8781 74.8183C45.4566 74.8952 45.0606 74.7842 44.7678 74.5829C44.5181 74.4111 44.3807 74.2022 44.3127 74.081C44.1782 73.8409 44.1154 73.5813 44.0803 73.4062C44.04 73.2051 44.0105 72.9755 43.9875 72.7314C43.9414 72.2413 43.9136 71.6028 43.8986 70.831C43.8694 69.3247 43.8863 67.2154 43.9221 64.498C43.7342 64.1623 43.5312 63.752 43.3137 63.2822C43.1066 62.8349 42.8782 62.3083 42.6213 61.705C40.16 62.821 37.7818 63.9815 35.9738 64.8525C34.8804 65.3792 33.9026 65.8469 33.1496 66.1015C32.7814 66.2259 32.3341 66.3469 31.8869 66.3447C31.3856 66.3419 30.7263 66.1713 30.3166 65.5624C29.9824 65.0656 29.9857 64.5067 30.0236 64.1376C30.0657 63.7281 30.1844 63.2653 30.3439 62.7724C30.4212 62.5338 30.5133 62.2743 30.6183 61.9941C29.0723 62.4317 27.6163 62.846 26.2814 63.2294C19.5669 65.1581 15.8437 66.3295 13.8283 66.999C12.8228 67.333 12.2418 67.5425 11.926 67.6581C11.7874 67.7089 11.6531 67.7584 11.5803 67.7831C11.5592 67.7903 11.5164 67.8049 11.467 67.8183C11.4425 67.8249 11.395 67.8371 11.3361 67.8476C11.3009 67.8539 11.1476 67.8811 10.9533 67.8632C10.8485 67.8534 10.0015 67.752 9.78143 66.9062C9.69568 66.5754 9.77403 66.3061 9.82342 66.1767C9.87588 66.0394 9.94176 65.9402 9.97772 65.8906C10.0494 65.7915 10.1209 65.7244 10.1437 65.7031C10.1753 65.6735 10.2031 65.6498 10.218 65.6376L10.7492 65.2548C11.7176 64.546 14.2312 62.6078 20.4133 57.164C24.0255 53.9832 28.792 49.6898 33.7023 45.2255C32.3671 43.8848 31.0509 42.59 29.7951 41.3915L29.7873 41.3906C29.1715 41.2117 28.5888 41.0149 28.1789 40.7968C28.0188 40.7116 27.6428 40.5026 27.4103 40.121C27.2837 39.9127 27.1761 39.6103 27.2219 39.2587C22.7451 37.6174 18.4625 35.8714 15.3322 34.3827C9.45934 31.5897 7.74821 29.7336 6.76288 28.1425C6.5417 27.7853 6.33977 27.4153 6.20135 27.0546C6.07144 26.716 5.94429 26.2536 6.02557 25.7646C6.12281 25.1815 6.49553 24.6926 7.07733 24.4228C7.56758 24.1957 8.11333 24.1668 8.58026 24.1923C9.31537 24.2326 10.0688 24.3608 10.842 24.5673C11.4836 24.6324 12.2329 24.7126 13.09 24.8066C16.8389 25.2176 22.7298 25.8876 29.0461 26.6454C27.3095 21.9715 25.8175 17.8626 24.8771 15.0947C24.1438 12.936 23.6982 11.4711 23.5793 10.663C23.5499 10.4633 23.5236 10.2 23.5598 9.94036C23.5801 9.79492 23.7214 8.94637 24.6613 8.73039C25.0582 8.63937 25.3899 8.73052 25.5695 8.79973C25.7547 8.87119 25.8987 8.96581 25.9924 9.03411C26.1803 9.17114 26.3499 9.34024 26.4865 9.48918C27.0246 10.0759 27.8097 11.1823 28.7443 12.5243C29.7061 13.9053 30.878 15.6149 32.2385 17.5175C34.4714 20.6402 37.1636 24.2162 39.7541 27.663C40.0521 25.8844 40.3287 24.1802 40.551 22.6425C40.5058 22.3176 40.4609 21.9934 40.4152 21.6718C39.8529 17.7103 39.9333 14.3629 40.2463 11.8378C40.5527 9.36576 41.097 7.56745 41.5529 6.76848L41.6447 6.62395C41.6836 6.57015 41.7316 6.51179 41.7892 6.45305C41.8999 6.34049 42.1185 6.15588 42.4572 6.06829ZM50.3146 62.5517C49.7546 64.7098 49.25 66.6452 48.8185 68.2519C48.3047 70.1653 47.8852 71.6457 47.5519 72.6366C48.5097 71.1496 50.8866 67.2529 52.4709 63.7646C51.8909 63.6951 51.3962 63.3972 51.051 63.1513C50.813 62.9817 50.5671 62.7771 50.3146 62.5517ZM46.8039 65.4404C46.7423 65.5058 46.6703 65.5689 46.5871 65.6279C46.5845 65.8508 46.5825 66.0691 46.5803 66.2822C46.6527 66.0088 46.7282 65.7281 46.8039 65.4404ZM33.8576 61.0781C33.4278 62.0778 33.1206 62.8566 32.924 63.4531C33.405 63.2456 34.0082 62.9632 34.757 62.6025C36.5888 61.72 39.0719 60.5087 41.6418 59.3476C41.5856 59.2093 41.5288 59.068 41.4709 58.9247C38.8464 59.6688 36.2773 60.3954 33.8576 61.0781ZM35.5236 47.0761C30.6164 51.5373 25.8535 55.8284 22.2385 59.0116C20.2867 60.7303 18.6892 62.1043 17.3889 63.207C19.4403 62.5796 22.0893 61.7915 25.5012 60.8115C27.4177 60.2609 29.5693 59.6528 31.8713 59.0029C31.917 58.9001 31.9627 58.7951 32.0099 58.6894C33.2033 56.0228 34.9318 52.3708 36.8205 48.4023C36.3896 47.9585 35.9555 47.5168 35.5236 47.0761ZM62.381 52.7685C59.9296 53.5405 57.2523 54.3532 54.4719 55.1757C54.4966 55.403 54.5189 55.6257 54.5412 55.8427C54.7014 55.8981 54.8568 55.9649 55.006 56.0429C55.9545 56.539 56.4162 57.3739 56.5666 58.2441C56.7089 59.0684 56.5904 59.9837 56.3693 60.8769C56.3394 60.9976 56.3012 61.1188 56.2668 61.2421C58.8092 57.7403 61.1803 54.4486 62.381 52.7685ZM52.132 59.2626C51.9658 59.6108 51.8045 59.9375 51.6467 60.2411C51.6745 60.2684 51.7013 60.2967 51.7287 60.3232C51.8804 60.4699 52.0223 60.5978 52.1486 60.7109C52.1658 60.3257 52.1587 59.8468 52.132 59.2626ZM57.1281 48.8808C56.6901 49.1618 56.2383 49.448 55.7785 49.7372C55.4766 50.6718 55.1784 51.5613 54.884 52.4042C56.6795 51.8693 58.4144 51.3443 60.0549 50.8359C59.7817 50.6356 59.5002 50.4286 59.2111 50.2206C58.5607 49.7527 57.8877 49.2794 57.2287 48.8154C57.1952 48.8369 57.1617 48.8592 57.1281 48.8808ZM62.6447 46.1718C62.7153 46.227 62.7985 46.298 62.8703 46.3788C62.9109 46.4246 63.018 46.5513 63.0969 46.7382C63.1717 46.9158 63.3225 47.414 62.967 47.9159C62.6479 48.3662 62.1711 48.4494 62.0402 48.4677C61.8664 48.4919 61.725 48.4782 61.6662 48.4716C61.4594 48.4483 61.2606 48.3791 61.1906 48.3554C61.0967 48.3236 60.9883 48.2823 60.8703 48.2372C61.6386 48.7903 62.398 49.3525 63.0851 49.8818C66.7634 48.7007 69.7623 47.6482 71.6115 46.8261C71.8541 46.7182 72.0695 46.6162 72.2599 46.5224C72.1693 46.5102 72.0738 46.4968 71.9748 46.4853C69.7101 46.2213 66.1772 46.2075 62.6447 46.1718ZM10.1223 28.1689C11.1028 29.1229 12.8938 30.3946 16.5363 32.1269C18.1374 32.8883 20.0585 33.7211 22.1584 34.5761C20.8286 33.466 19.578 32.4678 18.3957 31.5878C16.5532 30.7948 14.8475 30.0738 13.3723 29.4706C12.1024 28.9515 11.0207 28.5252 10.1223 28.1689ZM55.1838 28.954C54.9365 29.3124 54.6864 29.6751 54.4348 30.0409C55.0364 30.138 55.6134 30.2335 56.1662 30.3271C56.4977 29.1986 56.8221 28.1266 57.1359 27.1093C56.5345 27.6803 55.8858 28.2936 55.1838 28.954ZM58.5666 19.4169C57.0607 20.9756 55.2004 23.0986 52.9719 25.9814C52.0611 27.1596 51.1952 28.3068 50.3771 29.4169C50.5268 29.4389 50.6763 29.4595 50.8234 29.4814C50.9398 29.3728 51.057 29.2667 51.1711 29.1601C51.8551 28.5212 52.4942 27.917 53.0969 27.3505C54.5505 25.2453 55.9091 23.2905 57.0598 21.621C57.6084 20.825 58.1074 20.0908 58.5666 19.4169ZM28.049 16.1308C29.0579 19.0072 30.4524 22.8101 32.0168 27.0058C33.4715 27.1831 34.9348 27.3641 36.3859 27.5458C34.1705 24.596 31.928 21.5983 30.0197 18.9296C29.3115 17.9392 28.6519 16.9973 28.049 16.1308Z" fill="#FBE300"/>
<path fill-rule="evenodd" clip-rule="evenodd" d="M42.4572 6.06829C43.3517 5.8373 43.8833 6.46061 44.0031 6.63176C44.1489 6.84027 44.2166 7.05606 44.2492 7.17278C44.2886 7.3141 44.3169 7.46608 44.3391 7.61516C44.4252 8.19725 44.4612 9.10857 44.4357 10.332C44.3842 12.8074 44.0759 16.7784 43.2795 22.4618C43.2709 22.5231 43.2609 22.5855 43.2521 22.6474C43.3569 23.3993 43.4608 24.1435 43.5705 24.8769C43.6499 24.9852 43.691 25.0739 43.7014 25.0966C43.729 25.1574 43.7469 25.2087 43.7551 25.2343C43.7819 25.3185 43.7955 25.394 43.798 25.4081C43.8148 25.5003 43.8327 25.6481 43.8517 25.8095C43.8964 26.1878 43.9672 26.865 44.0607 27.7763C44.1118 28.0374 44.1635 28.2974 44.2189 28.5546C44.8405 28.6378 45.4516 28.7236 46.05 28.8056C46.4353 27.9525 46.7919 27.1575 47.1144 26.4238C47.4145 25.6651 47.6909 24.9624 47.9406 24.3388C48.6266 22.6255 49.0873 21.5275 49.3312 20.9814C49.3915 20.8465 49.4443 20.7309 49.4875 20.6445C49.5064 20.6066 49.5385 20.5458 49.5754 20.4853C49.5871 20.466 49.635 20.3833 49.7121 20.2948C49.738 20.2651 49.8548 20.1307 50.051 20.0175C50.1533 19.9585 50.371 19.8505 50.673 19.8339C51.0278 19.8147 51.3872 19.9295 51.6603 20.1679C51.8937 20.372 51.9889 20.6005 52.0275 20.7157C52.0691 20.84 52.0824 20.9445 52.0871 21.0029C52.0963 21.1184 52.0855 21.2105 52.0812 21.246C52.0716 21.3261 52.0563 21.3909 52.05 21.4159C52.0348 21.4766 52.0158 21.5364 52.0021 21.5781C51.9722 21.6689 51.9302 21.7862 51.8801 21.9198C51.7022 22.3942 51.3584 23.2455 50.8635 24.4228C54.8331 19.2959 57.7222 16.4567 59.5969 14.8788L59.7912 14.7284C60.0113 14.5743 60.3046 14.4208 60.6633 14.3652C61.0048 14.3124 61.3295 14.3613 61.6144 14.4814C61.7102 14.2582 61.7999 14.0442 61.8898 13.8417C62.549 12.3577 63.0762 11.3677 63.4474 10.83C63.5406 10.6952 63.6512 10.547 63.7766 10.4189C63.8377 10.3564 63.9374 10.2643 64.0685 10.1786C64.1697 10.1127 64.4668 9.93114 64.8918 9.9345C65.4632 9.93945 65.8803 10.2613 66.0822 10.6044C66.237 10.868 66.2561 11.1172 66.2609 11.2167C66.2717 11.4406 66.2287 11.6493 66.1984 11.7753C66.0485 12.398 65.8157 13.0278 64.8898 14.5732C64.5639 15.1172 64.1413 15.7822 63.6017 16.6142C63.5147 16.8287 63.4224 17.0504 63.3312 17.2812C63.4104 17.197 63.4917 17.1151 63.5705 17.0312C64.0607 16.5094 64.9072 16.4614 65.4601 16.9238C66.0128 17.3865 66.0636 18.1852 65.5734 18.707C64.7106 19.6254 63.8459 20.5414 62.5803 21.8173C62.5495 22.0453 62.5174 22.2788 62.4826 22.5165C62.138 24.8698 61.583 27.7794 60.8127 31.1825C63.8335 31.7961 65.8306 32.3395 67.342 32.8544C68.0757 33.1044 68.7487 33.3647 69.3068 33.6591C69.854 33.9478 70.4056 34.3292 70.7726 34.872C71.6434 36.1609 71.0183 37.5139 70.1955 38.6093C69.2087 39.9228 67.4212 41.5914 64.6818 43.6708C67.5388 43.7009 70.3555 43.7505 72.3029 43.9775C73.0541 44.0651 73.7643 44.1875 74.3312 44.374C74.6138 44.4669 74.9254 44.5969 75.2014 44.788C75.4775 44.9794 75.8125 45.2996 75.9455 45.7861C76.0844 46.2956 75.9399 46.7549 75.7375 47.0878C75.5463 47.4019 75.2753 47.6564 75.0129 47.8603C74.4859 48.2694 73.7194 48.6806 72.7531 49.1103C71.0475 49.8686 68.4649 50.7915 65.3449 51.8154L65.8889 52.3593L65.3029 53.1952C64.4095 54.4697 59.3144 61.5453 55.0422 67.3827C52.9074 70.2996 50.9664 72.924 49.8547 74.3632C49.5773 74.7223 49.3424 75.0185 49.1662 75.2304C49.0804 75.3336 48.9949 75.4334 48.9182 75.5146C48.8821 75.5527 48.826 75.6089 48.7609 75.665C48.7296 75.692 48.6729 75.7406 48.5969 75.79C48.5567 75.816 48.3486 75.9532 48.0422 76.0009C47.866 76.0282 47.5695 76.0392 47.2492 75.8964C46.9059 75.7431 46.6973 75.4861 46.591 75.2558C46.4425 74.9335 46.479 74.6421 46.4943 74.5517C46.3557 74.6521 46.1504 74.7684 45.8781 74.8183C45.4566 74.8952 45.0606 74.7842 44.7678 74.5829C44.5181 74.4111 44.3807 74.2022 44.3127 74.081C44.1782 73.8409 44.1154 73.5813 44.0803 73.4062C44.04 73.2051 44.0105 72.9755 43.9875 72.7314C43.9414 72.2413 43.9136 71.6028 43.8986 70.831C43.8694 69.3247 43.8863 67.2154 43.9221 64.498C43.7342 64.1623 43.5312 63.752 43.3137 63.2822C43.1066 62.8349 42.8782 62.3083 42.6213 61.705C40.16 62.821 37.7818 63.9815 35.9738 64.8525C34.8804 65.3792 33.9026 65.8469 33.1496 66.1015C32.7814 66.2259 32.3341 66.3469 31.8869 66.3447C31.3856 66.3419 30.7263 66.1713 30.3166 65.5624C29.9824 65.0656 29.9857 64.5067 30.0236 64.1376C30.0657 63.7281 30.1844 63.2653 30.3439 62.7724C30.4212 62.5338 30.5133 62.2743 30.6183 61.9941C29.0723 62.4317 27.6163 62.846 26.2814 63.2294C19.5669 65.1581 15.8437 66.3295 13.8283 66.999C12.8228 67.333 12.2418 67.5425 11.926 67.6581C11.7874 67.7089 11.6531 67.7584 11.5803 67.7831C11.5592 67.7903 11.5164 67.8049 11.467 67.8183C11.4425 67.8249 11.395 67.8371 11.3361 67.8476C11.3009 67.8539 11.1476 67.8811 10.9533 67.8632C10.8485 67.8534 10.0015 67.752 9.78143 66.9062C9.69568 66.5754 9.77403 66.3061 9.82342 66.1767C9.87588 66.0394 9.94176 65.9402 9.97772 65.8906C10.0494 65.7915 10.1209 65.7244 10.1437 65.7031C10.1753 65.6735 10.2031 65.6498 10.218 65.6376L10.7492 65.2548C11.7176 64.546 14.2312 62.6078 20.4133 57.164C24.0255 53.9832 28.792 49.6898 33.7023 45.2255C32.3671 43.8848 31.0509 42.59 29.7951 41.3915L29.7873 41.3906C29.1715 41.2117 28.5888 41.0149 28.1789 40.7968C28.0188 40.7116 27.6428 40.5026 27.4103 40.121C27.2837 39.9127 27.1761 39.6103 27.2219 39.2587C22.7451 37.6174 18.4625 35.8714 15.3322 34.3827C9.45934 31.5897 7.74821 29.7336 6.76288 28.1425C6.5417 27.7853 6.33977 27.4153 6.20135 27.0546C6.07144 26.716 5.94429 26.2536 6.02557 25.7646C6.12281 25.1815 6.49553 24.6926 7.07733 24.4228C7.56758 24.1957 8.11333 24.1668 8.58026 24.1923C9.31537 24.2326 10.0688 24.3608 10.842 24.5673C11.4836 24.6324 12.2329 24.7126 13.09 24.8066C16.8389 25.2176 22.7298 25.8876 29.0461 26.6454C27.3095 21.9715 25.8175 17.8626 24.8771 15.0947C24.1438 12.936 23.6982 11.4711 23.5793 10.663C23.5499 10.4633 23.5236 10.2 23.5598 9.94036C23.5801 9.79492 23.7214 8.94637 24.6613 8.73039C25.0582 8.63937 25.3899 8.73052 25.5695 8.79973C25.7547 8.87119 25.8987 8.96581 25.9924 9.03411C26.1803 9.17114 26.3499 9.34024 26.4865 9.48918C27.0246 10.0759 27.8097 11.1823 28.7443 12.5243C29.7061 13.9053 30.878 15.6149 32.2385 17.5175C34.4714 20.6402 37.1636 24.2162 39.7541 27.663C40.0521 25.8844 40.3287 24.1802 40.551 22.6425C40.5058 22.3176 40.4609 21.9934 40.4152 21.6718C39.8529 17.7103 39.9333 14.3629 40.2463 11.8378C40.5527 9.36576 41.097 7.56745 41.5529 6.76848L41.6447 6.62395C41.6836 6.57015 41.7316 6.51179 41.7892 6.45305C41.8999 6.34049 42.1185 6.15588 42.4572 6.06829ZM50.3146 62.5517C49.7546 64.7098 49.25 66.6452 48.8185 68.2519C48.3047 70.1653 47.8852 71.6457 47.5519 72.6366C48.5097 71.1496 50.8866 67.2529 52.4709 63.7646C51.8909 63.6951 51.3962 63.3972 51.051 63.1513C50.813 62.9817 50.5671 62.7771 50.3146 62.5517ZM46.8039 65.4404C46.7423 65.5058 46.6703 65.5689 46.5871 65.6279C46.5845 65.8508 46.5825 66.0691 46.5803 66.2822C46.6527 66.0088 46.7282 65.7281 46.8039 65.4404ZM33.8576 61.0781C33.4278 62.0778 33.1206 62.8566 32.924 63.4531C33.405 63.2456 34.0082 62.9632 34.757 62.6025C36.5888 61.72 39.0719 60.5087 41.6418 59.3476C41.5856 59.2093 41.5288 59.068 41.4709 58.9247C38.8464 59.6688 36.2773 60.3954 33.8576 61.0781ZM35.5236 47.0761C30.6164 51.5373 25.8535 55.8284 22.2385 59.0116C20.2867 60.7303 18.6892 62.1043 17.3889 63.207C19.4403 62.5796 22.0893 61.7915 25.5012 60.8115C27.4177 60.2609 29.5693 59.6528 31.8713 59.0029C31.917 58.9001 31.9627 58.7951 32.0099 58.6894C33.2033 56.0228 34.9318 52.3708 36.8205 48.4023C36.3896 47.9585 35.9555 47.5168 35.5236 47.0761ZM62.381 52.7685C59.9296 53.5405 57.2523 54.3532 54.4719 55.1757C54.4966 55.403 54.5189 55.6257 54.5412 55.8427C54.7014 55.8981 54.8568 55.9649 55.006 56.0429C55.9545 56.539 56.4162 57.3739 56.5666 58.2441C56.7089 59.0684 56.5904 59.9837 56.3693 60.8769C56.3394 60.9976 56.3012 61.1188 56.2668 61.2421C58.8092 57.7403 61.1803 54.4486 62.381 52.7685ZM52.132 59.2626C51.9658 59.6108 51.8045 59.9375 51.6467 60.2411C51.6745 60.2684 51.7013 60.2967 51.7287 60.3232C51.8804 60.4699 52.0223 60.5978 52.1486 60.7109C52.1658 60.3257 52.1587 59.8468 52.132 59.2626ZM57.1281 48.8808C56.6901 49.1618 56.2383 49.448 55.7785 49.7372C55.4766 50.6718 55.1784 51.5613 54.884 52.4042C56.6795 51.8693 58.4144 51.3443 60.0549 50.8359C59.7817 50.6356 59.5002 50.4286 59.2111 50.2206C58.5607 49.7527 57.8877 49.2794 57.2287 48.8154C57.1952 48.8369 57.1617 48.8592 57.1281 48.8808ZM62.6447 46.1718C62.7153 46.227 62.7985 46.298 62.8703 46.3788C62.9109 46.4246 63.018 46.5513 63.0969 46.7382C63.1717 46.9158 63.3225 47.414 62.967 47.9159C62.6479 48.3662 62.1711 48.4494 62.0402 48.4677C61.8664 48.4919 61.725 48.4782 61.6662 48.4716C61.4594 48.4483 61.2606 48.3791 61.1906 48.3554C61.0967 48.3236 60.9883 48.2823 60.8703 48.2372C61.6386 48.7903 62.398 49.3525 63.0851 49.8818C66.7634 48.7007 69.7623 47.6482 71.6115 46.8261C71.8541 46.7182 72.0695 46.6162 72.2599 46.5224C72.1693 46.5102 72.0738 46.4968 71.9748 46.4853C69.7101 46.2213 66.1772 46.2075 62.6447 46.1718ZM10.1223 28.1689C11.1028 29.1229 12.8938 30.3946 16.5363 32.1269C18.1374 32.8883 20.0585 33.7211 22.1584 34.5761C20.8286 33.466 19.578 32.4678 18.3957 31.5878C16.5532 30.7948 14.8475 30.0738 13.3723 29.4706C12.1024 28.9515 11.0207 28.5252 10.1223 28.1689ZM55.1838 28.954C54.9365 29.3124 54.6864 29.6751 54.4348 30.0409C55.0364 30.138 55.6134 30.2335 56.1662 30.3271C56.4977 29.1986 56.8221 28.1266 57.1359 27.1093C56.5345 27.6803 55.8858 28.2936 55.1838 28.954ZM58.5666 19.4169C57.0607 20.9756 55.2004 23.0986 52.9719 25.9814C52.0611 27.1596 51.1952 28.3068 50.3771 29.4169C50.5268 29.4389 50.6763 29.4595 50.8234 29.4814C50.9398 29.3728 51.057 29.2667 51.1711 29.1601C51.8551 28.5212 52.4942 27.917 53.0969 27.3505C54.5505 25.2453 55.9091 23.2905 57.0598 21.621C57.6084 20.825 58.1074 20.0908 58.5666 19.4169ZM28.049 16.1308C29.0579 19.0072 30.4524 22.8101 32.0168 27.0058C33.4715 27.1831 34.9348 27.3641 36.3859 27.5458C34.1705 24.596 31.928 21.5983 30.0197 18.9296C29.3115 17.9392 28.6519 16.9973 28.049 16.1308Z" stroke="black" stroke-width="12" mask="url(#path-1-outside-1_515_2878)"/>
</svg>
