<svg width="83" height="83" viewBox="0 0 83 83" fill="none" xmlns="http://www.w3.org/2000/svg">
<mask id="path-1-outside-1_515_2879" maskUnits="userSpaceOnUse" x="-0.0703125" y="-0.986328" width="83" height="84" fill="black">
<rect fill="white" x="-0.0703125" y="-0.986328" width="83" height="84"/>
<path fill-rule="evenodd" clip-rule="evenodd" d="M46.3467 7.25542C46.4767 6.43563 47.1643 5.89055 47.8829 6.03764C48.6021 6.1856 49.0799 6.97181 48.9503 7.79252C48.7415 9.11393 48.5297 10.4303 48.3223 11.7388C48.5274 12.0006 48.6259 12.2851 48.6749 12.4761C48.7398 12.7298 48.7598 12.9813 48.7657 13.188C48.7774 13.6035 48.7361 14.103 48.6651 14.6539C48.4093 16.6372 47.6319 20.323 46.2559 26.4439C47.1424 27.7234 48.098 29.0856 49.1007 30.4478C49.2108 30.0629 49.3153 29.7154 49.4014 29.4068C49.4877 29.0978 49.5588 28.8267 49.6202 28.6011C49.6927 28.3215 49.7589 28.0642 49.8214 27.8345C49.8339 27.7884 49.8473 27.7392 49.8585 27.7017C49.8613 27.6923 49.8686 27.6716 49.876 27.649C49.8796 27.6382 49.8872 27.6144 49.8975 27.5865C49.903 27.5719 49.9163 27.5369 49.9249 27.5162C49.939 27.4838 49.9828 27.3943 50.0137 27.3384C50.0946 27.2141 50.5733 26.7967 51.0284 26.6665C51.7808 26.8674 52.3927 27.7742 52.4356 28.0494C52.4398 28.147 52.4357 28.2929 52.4317 28.3414C52.4287 28.3698 52.4228 28.4174 52.42 28.4361C52.4112 28.493 52.4006 28.5403 52.3995 28.5455C52.3847 28.6131 52.3525 28.7353 52.3204 28.858C52.2884 28.9803 52.2423 29.1423 52.1885 29.3414C51.9273 30.3431 51.5942 31.6937 51.2315 33.232C51.3515 33.382 51.4749 33.5288 51.5958 33.6773C53.0427 28.6603 54.2104 23.411 54.6592 19.0142C54.6965 18.6491 54.7364 18.3328 54.7794 18.0816C54.8006 17.9579 54.8269 17.8201 54.8624 17.689C54.8837 17.6103 54.9584 17.3323 55.1387 17.0728C55.2305 16.9411 55.4755 16.6306 55.9053 16.5191C56.4149 16.3871 56.8323 16.6149 57.0684 16.8394C57.2693 17.0305 57.3739 17.2427 57.4171 17.3374C57.4685 17.4505 57.5031 17.5545 57.5235 17.6255C57.5956 17.8764 57.6341 18.1772 57.6612 18.4214C57.7779 19.4739 57.8696 21.6199 57.9434 24.6089C58.0312 28.166 58.0925 33.0286 58.1397 38.9253C63.2925 40.7711 67.426 42.1563 70.4073 43.1236C72.266 43.7266 73.6787 44.1685 74.6133 44.4595C75.0773 44.604 75.4317 44.7154 75.6612 44.7886C75.7722 44.824 75.8729 44.8558 75.9444 44.8814C75.9638 44.8883 76.0439 44.9151 76.1241 44.9546C76.1465 44.9657 76.2024 44.9959 76.2696 45.0406C76.3027 45.0626 76.3656 45.1069 76.4376 45.1734C76.4877 45.2198 76.6594 45.3799 76.7852 45.6617C76.9474 46.0254 77.0388 46.6456 76.6895 47.2144C76.4368 47.6248 76.0933 47.7549 76.0089 47.7857C75.7977 47.8626 75.6163 47.858 75.6016 47.858C74.5391 47.858 71.8045 47.8571 64.8155 48.4966C65.8785 49.6625 66.7927 50.6706 67.4581 51.4283C67.9389 51.9759 68.332 52.4398 68.5538 52.7427C68.6097 52.8191 68.6813 52.9198 68.7442 53.0289C68.7743 53.0811 68.8244 53.1729 68.8702 53.2896C68.8936 53.3494 69.0271 53.6764 68.9844 54.108C68.9582 54.3715 68.8605 54.7165 68.6065 55.0093C68.3583 55.2949 68.071 55.4037 67.8712 55.441C67.5342 55.5033 67.2673 55.4008 67.211 55.3794C67.0373 55.3134 66.8927 55.2144 66.8301 55.1714C65.0588 53.9552 62.0035 51.6944 58.5479 49.1285C58.4328 49.1409 58.3164 49.152 58.2003 49.1646C58.2033 49.9217 58.2064 50.6902 58.209 51.4683C58.3022 51.5507 58.3969 51.6299 58.4883 51.7115C58.8674 52.0497 59.3015 52.4524 59.6153 52.8736C59.8511 53.1901 60.473 54.1161 60.0518 55.23C59.8577 55.7427 59.5133 56.0604 59.2237 56.2515C58.9332 56.4431 58.6038 56.5714 58.2784 56.6646C58.2579 56.6704 58.2359 56.6755 58.2149 56.6812C58.2066 58.737 58.1819 60.1772 58.129 61.1744C58.0889 61.9276 58.0289 62.5475 57.9132 63.0142C57.8133 63.4161 57.518 64.3163 56.6241 64.5249C55.7732 64.7227 55.1863 64.1009 54.9219 63.7613C54.6218 63.3755 54.3076 62.805 53.9454 62.0542C53.4456 61.0183 52.7717 59.4508 51.8282 57.1177C49.6673 57.1217 47.1219 57.06 44.46 56.9097C43.612 57.6845 42.7191 58.4249 41.7862 59.1128C41.6909 59.3392 41.6062 59.5516 41.5235 59.7398C41.3519 60.1301 41.183 60.4909 41.0274 60.7642C40.9539 60.8934 40.844 61.0722 40.7042 61.232C40.6341 61.3119 40.5143 61.4366 40.3467 61.5415C40.1802 61.6457 39.8702 61.7894 39.4766 61.7261C39.0438 61.6561 38.7662 61.403 38.5919 61.148C38.4117 61.2449 38.2295 61.3391 38.0469 61.4312C37.4974 63.6543 36.981 65.7108 36.5137 67.5123C35.6577 70.8128 34.945 73.3662 34.5118 74.5035C34.4118 74.766 34.2732 75.101 34.0919 75.3619C34.0362 75.442 33.7692 75.8372 33.2823 75.9712C32.9723 76.0561 32.6187 76.0201 32.2989 75.8179C32.0125 75.6366 31.8505 75.3842 31.7696 75.2261C31.6212 74.9359 31.5821 74.6471 31.5674 74.5318C31.5479 74.3774 31.5411 74.2223 31.5391 74.0865C31.5352 73.8118 31.5487 73.4843 31.5733 73.1324C31.6712 71.7313 31.9713 69.3559 32.3692 66.4712C32.5087 65.4599 32.6623 64.3814 32.8233 63.2525C32.3617 63.3424 31.8937 63.4186 31.421 63.4722C30.4722 63.5798 29.2048 63.5943 28.2452 62.5943C27.3025 61.6116 27.0388 60.0494 27.0421 58.2564C27.0439 57.2447 27.1049 55.9958 27.2393 54.5962C26.2267 54.3934 25.2442 54.1832 24.294 53.9693C22.7392 54.2732 21.3451 54.5595 20.1036 54.8013C18.3203 55.1486 16.8105 55.4135 15.7139 55.4546C15.1783 55.4747 14.6094 55.4479 14.1182 55.274C13.5986 55.0897 12.9136 54.629 12.7335 53.6421C12.5878 52.8424 12.8725 52.1098 13.1085 51.6324C13.2552 51.3357 13.4424 51.0239 13.6602 50.6988C11.2915 49.6493 9.35806 48.4343 7.97956 46.979C7.6229 46.6025 7.24488 46.1209 7.05475 45.524C6.82488 44.8015 6.91549 44.054 7.29694 43.4361C7.61156 42.9271 8.07351 42.5869 8.46686 42.3472C8.8851 42.0925 9.39104 41.8575 9.9405 41.6255C12.1597 40.6889 15.7639 39.3425 22.8389 38.2437C23.8297 38.0898 24.8047 37.9396 25.7608 37.7945C27.4542 36.1478 29.1545 34.5152 30.7442 33.0015C28.4206 30.742 26.4032 28.7263 25.1612 27.355C24.7473 26.8981 24.3941 26.4832 24.1378 26.1402C24.0123 25.9723 23.8817 25.7852 23.7774 25.5943C23.7255 25.4992 23.6613 25.3686 23.6085 25.2144C23.5628 25.0808 23.4799 24.7984 23.5059 24.4439C23.538 24.0099 23.7351 23.5364 24.1446 23.2398C24.4783 22.9985 24.8081 22.9827 24.96 22.9869C25.2653 22.9955 25.5422 23.1089 25.6964 23.1763C26.0595 23.3352 26.5329 23.615 27.0938 23.98C28.4198 24.843 31.1416 26.6255 35.1387 28.8326C35.2756 28.7031 35.411 28.5767 35.5421 28.4527C35.7058 28.2978 35.864 28.1439 36.0186 27.9976C36.3565 27.2803 36.701 26.5692 37.0479 25.8658C37.1899 23.8057 37.3333 21.9649 37.5196 20.4068C37.7331 18.6216 38.0191 17.0436 38.5001 15.8902L38.6163 15.6626C38.7653 15.4173 39.0192 15.1402 39.419 15.0259C39.908 14.8866 40.2948 15.0883 40.459 15.1949C40.7663 15.3946 40.9689 15.6978 41.0499 15.8208C41.2678 16.1523 41.505 16.6276 41.7432 17.148C41.7668 17.1994 41.7894 17.2535 41.8135 17.3072C43.004 15.4502 44.2349 13.7457 45.503 12.2505C45.5218 12.2284 45.543 12.2068 45.5626 12.1841C45.8213 10.5525 46.0858 8.90732 46.3467 7.25542ZM29.8526 55.0992C29.7408 56.3106 29.6882 57.3889 29.6866 58.2623C29.6836 59.8995 29.9658 60.2984 30.0294 60.3648C30.0757 60.4131 30.2764 60.5666 31.1602 60.4664C31.878 60.3849 32.5846 60.25 33.2784 60.0728C33.4777 58.6897 33.6812 57.2578 33.8897 55.8033L33.8643 55.7915C32.4853 55.5654 31.1468 55.3365 29.8526 55.0992ZM54.7257 57.0679C55.0336 57.8154 55.3059 58.4574 55.545 59.0083C55.5545 58.4364 55.5625 57.7799 55.5665 57.0289C55.3027 57.043 55.0216 57.0569 54.7257 57.0679ZM36.4708 56.5142C36.4562 56.6172 36.4415 56.7202 36.4268 56.8228C36.4517 56.7203 36.477 56.6173 36.502 56.5142H36.4708ZM16.2393 51.8707C16.0841 52.0739 15.9515 52.2574 15.8389 52.4205C16.3205 52.389 16.9168 52.3094 17.6319 52.191C17.1888 52.0482 16.7538 51.9041 16.3301 51.7544C16.2999 51.7934 16.2685 51.8325 16.2393 51.8707ZM22.0782 41.4175C15.9406 42.4478 12.7864 43.6429 10.8585 44.4566C10.4634 44.6233 10.151 44.7676 9.9112 44.897C11.1329 46.1276 13.0107 47.2528 15.5596 48.2818C17.2187 46.3614 19.5501 43.9436 22.0782 41.4175ZM62.2706 45.7095C64.2084 45.5183 65.8794 45.3659 67.3194 45.2496C65.0985 44.5128 62.4375 43.6095 59.3702 42.5259C60.359 43.6144 61.3376 44.6895 62.2706 45.7095ZM55.3946 29.7925C54.916 31.7577 54.3809 33.7279 53.8116 35.6412C54.1744 35.7706 54.5229 35.9449 54.8194 36.188C55.0589 36.3846 55.2834 36.6146 55.4786 36.8785C55.4547 34.2788 55.4268 31.9077 55.3946 29.7925ZM32.8116 31.0406C32.8433 31.0105 32.8758 30.9796 32.9073 30.9498C32.7509 30.8614 32.5964 30.7728 32.4444 30.6861C32.5654 30.8038 32.6888 30.9214 32.8116 31.0406ZM44.628 18.0542C44.1143 18.8179 43.6057 19.6156 43.1046 20.4419C43.2603 20.8434 43.4217 21.2632 43.586 21.6988C43.6926 21.9812 43.7992 22.2725 43.9092 22.5689C44.1457 21.0853 44.3855 19.5779 44.628 18.0542Z"/>
</mask>
<path fill-rule="evenodd" clip-rule="evenodd" d="M46.3467 7.25542C46.4767 6.43563 47.1643 5.89055 47.8829 6.03764C48.6021 6.1856 49.0799 6.97181 48.9503 7.79252C48.7415 9.11393 48.5297 10.4303 48.3223 11.7388C48.5274 12.0006 48.6259 12.2851 48.6749 12.4761C48.7398 12.7298 48.7598 12.9813 48.7657 13.188C48.7774 13.6035 48.7361 14.103 48.6651 14.6539C48.4093 16.6372 47.6319 20.323 46.2559 26.4439C47.1424 27.7234 48.098 29.0856 49.1007 30.4478C49.2108 30.0629 49.3153 29.7154 49.4014 29.4068C49.4877 29.0978 49.5588 28.8267 49.6202 28.6011C49.6927 28.3215 49.7589 28.0642 49.8214 27.8345C49.8339 27.7884 49.8473 27.7392 49.8585 27.7017C49.8613 27.6923 49.8686 27.6716 49.876 27.649C49.8796 27.6382 49.8872 27.6144 49.8975 27.5865C49.903 27.5719 49.9163 27.5369 49.9249 27.5162C49.939 27.4838 49.9828 27.3943 50.0137 27.3384C50.0946 27.2141 50.5733 26.7967 51.0284 26.6665C51.7808 26.8674 52.3927 27.7742 52.4356 28.0494C52.4398 28.147 52.4357 28.2929 52.4317 28.3414C52.4287 28.3698 52.4228 28.4174 52.42 28.4361C52.4112 28.493 52.4006 28.5403 52.3995 28.5455C52.3847 28.6131 52.3525 28.7353 52.3204 28.858C52.2884 28.9803 52.2423 29.1423 52.1885 29.3414C51.9273 30.3431 51.5942 31.6937 51.2315 33.232C51.3515 33.382 51.4749 33.5288 51.5958 33.6773C53.0427 28.6603 54.2104 23.411 54.6592 19.0142C54.6965 18.6491 54.7364 18.3328 54.7794 18.0816C54.8006 17.9579 54.8269 17.8201 54.8624 17.689C54.8837 17.6103 54.9584 17.3323 55.1387 17.0728C55.2305 16.9411 55.4755 16.6306 55.9053 16.5191C56.4149 16.3871 56.8323 16.6149 57.0684 16.8394C57.2693 17.0305 57.3739 17.2427 57.4171 17.3374C57.4685 17.4505 57.5031 17.5545 57.5235 17.6255C57.5956 17.8764 57.6341 18.1772 57.6612 18.4214C57.7779 19.4739 57.8696 21.6199 57.9434 24.6089C58.0312 28.166 58.0925 33.0286 58.1397 38.9253C63.2925 40.7711 67.426 42.1563 70.4073 43.1236C72.266 43.7266 73.6787 44.1685 74.6133 44.4595C75.0773 44.604 75.4317 44.7154 75.6612 44.7886C75.7722 44.824 75.8729 44.8558 75.9444 44.8814C75.9638 44.8883 76.0439 44.9151 76.1241 44.9546C76.1465 44.9657 76.2024 44.9959 76.2696 45.0406C76.3027 45.0626 76.3656 45.1069 76.4376 45.1734C76.4877 45.2198 76.6594 45.3799 76.7852 45.6617C76.9474 46.0254 77.0388 46.6456 76.6895 47.2144C76.4368 47.6248 76.0933 47.7549 76.0089 47.7857C75.7977 47.8626 75.6163 47.858 75.6016 47.858C74.5391 47.858 71.8045 47.8571 64.8155 48.4966C65.8785 49.6625 66.7927 50.6706 67.4581 51.4283C67.9389 51.9759 68.332 52.4398 68.5538 52.7427C68.6097 52.8191 68.6813 52.9198 68.7442 53.0289C68.7743 53.0811 68.8244 53.1729 68.8702 53.2896C68.8936 53.3494 69.0271 53.6764 68.9844 54.108C68.9582 54.3715 68.8605 54.7165 68.6065 55.0093C68.3583 55.2949 68.071 55.4037 67.8712 55.441C67.5342 55.5033 67.2673 55.4008 67.211 55.3794C67.0373 55.3134 66.8927 55.2144 66.8301 55.1714C65.0588 53.9552 62.0035 51.6944 58.5479 49.1285C58.4328 49.1409 58.3164 49.152 58.2003 49.1646C58.2033 49.9217 58.2064 50.6902 58.209 51.4683C58.3022 51.5507 58.3969 51.6299 58.4883 51.7115C58.8674 52.0497 59.3015 52.4524 59.6153 52.8736C59.8511 53.1901 60.473 54.1161 60.0518 55.23C59.8577 55.7427 59.5133 56.0604 59.2237 56.2515C58.9332 56.4431 58.6038 56.5714 58.2784 56.6646C58.2579 56.6704 58.2359 56.6755 58.2149 56.6812C58.2066 58.737 58.1819 60.1772 58.129 61.1744C58.0889 61.9276 58.0289 62.5475 57.9132 63.0142C57.8133 63.4161 57.518 64.3163 56.6241 64.5249C55.7732 64.7227 55.1863 64.1009 54.9219 63.7613C54.6218 63.3755 54.3076 62.805 53.9454 62.0542C53.4456 61.0183 52.7717 59.4508 51.8282 57.1177C49.6673 57.1217 47.1219 57.06 44.46 56.9097C43.612 57.6845 42.7191 58.4249 41.7862 59.1128C41.6909 59.3392 41.6062 59.5516 41.5235 59.7398C41.3519 60.1301 41.183 60.4909 41.0274 60.7642C40.9539 60.8934 40.844 61.0722 40.7042 61.232C40.6341 61.3119 40.5143 61.4366 40.3467 61.5415C40.1802 61.6457 39.8702 61.7894 39.4766 61.7261C39.0438 61.6561 38.7662 61.403 38.5919 61.148C38.4117 61.2449 38.2295 61.3391 38.0469 61.4312C37.4974 63.6543 36.981 65.7108 36.5137 67.5123C35.6577 70.8128 34.945 73.3662 34.5118 74.5035C34.4118 74.766 34.2732 75.101 34.0919 75.3619C34.0362 75.442 33.7692 75.8372 33.2823 75.9712C32.9723 76.0561 32.6187 76.0201 32.2989 75.8179C32.0125 75.6366 31.8505 75.3842 31.7696 75.2261C31.6212 74.9359 31.5821 74.6471 31.5674 74.5318C31.5479 74.3774 31.5411 74.2223 31.5391 74.0865C31.5352 73.8118 31.5487 73.4843 31.5733 73.1324C31.6712 71.7313 31.9713 69.3559 32.3692 66.4712C32.5087 65.4599 32.6623 64.3814 32.8233 63.2525C32.3617 63.3424 31.8937 63.4186 31.421 63.4722C30.4722 63.5798 29.2048 63.5943 28.2452 62.5943C27.3025 61.6116 27.0388 60.0494 27.0421 58.2564C27.0439 57.2447 27.1049 55.9958 27.2393 54.5962C26.2267 54.3934 25.2442 54.1832 24.294 53.9693C22.7392 54.2732 21.3451 54.5595 20.1036 54.8013C18.3203 55.1486 16.8105 55.4135 15.7139 55.4546C15.1783 55.4747 14.6094 55.4479 14.1182 55.274C13.5986 55.0897 12.9136 54.629 12.7335 53.6421C12.5878 52.8424 12.8725 52.1098 13.1085 51.6324C13.2552 51.3357 13.4424 51.0239 13.6602 50.6988C11.2915 49.6493 9.35806 48.4343 7.97956 46.979C7.6229 46.6025 7.24488 46.1209 7.05475 45.524C6.82488 44.8015 6.91549 44.054 7.29694 43.4361C7.61156 42.9271 8.07351 42.5869 8.46686 42.3472C8.8851 42.0925 9.39104 41.8575 9.9405 41.6255C12.1597 40.6889 15.7639 39.3425 22.8389 38.2437C23.8297 38.0898 24.8047 37.9396 25.7608 37.7945C27.4542 36.1478 29.1545 34.5152 30.7442 33.0015C28.4206 30.742 26.4032 28.7263 25.1612 27.355C24.7473 26.8981 24.3941 26.4832 24.1378 26.1402C24.0123 25.9723 23.8817 25.7852 23.7774 25.5943C23.7255 25.4992 23.6613 25.3686 23.6085 25.2144C23.5628 25.0808 23.4799 24.7984 23.5059 24.4439C23.538 24.0099 23.7351 23.5364 24.1446 23.2398C24.4783 22.9985 24.8081 22.9827 24.96 22.9869C25.2653 22.9955 25.5422 23.1089 25.6964 23.1763C26.0595 23.3352 26.5329 23.615 27.0938 23.98C28.4198 24.843 31.1416 26.6255 35.1387 28.8326C35.2756 28.7031 35.411 28.5767 35.5421 28.4527C35.7058 28.2978 35.864 28.1439 36.0186 27.9976C36.3565 27.2803 36.701 26.5692 37.0479 25.8658C37.1899 23.8057 37.3333 21.9649 37.5196 20.4068C37.7331 18.6216 38.0191 17.0436 38.5001 15.8902L38.6163 15.6626C38.7653 15.4173 39.0192 15.1402 39.419 15.0259C39.908 14.8866 40.2948 15.0883 40.459 15.1949C40.7663 15.3946 40.9689 15.6978 41.0499 15.8208C41.2678 16.1523 41.505 16.6276 41.7432 17.148C41.7668 17.1994 41.7894 17.2535 41.8135 17.3072C43.004 15.4502 44.2349 13.7457 45.503 12.2505C45.5218 12.2284 45.543 12.2068 45.5626 12.1841C45.8213 10.5525 46.0858 8.90732 46.3467 7.25542ZM29.8526 55.0992C29.7408 56.3106 29.6882 57.3889 29.6866 58.2623C29.6836 59.8995 29.9658 60.2984 30.0294 60.3648C30.0757 60.4131 30.2764 60.5666 31.1602 60.4664C31.878 60.3849 32.5846 60.25 33.2784 60.0728C33.4777 58.6897 33.6812 57.2578 33.8897 55.8033L33.8643 55.7915C32.4853 55.5654 31.1468 55.3365 29.8526 55.0992ZM54.7257 57.0679C55.0336 57.8154 55.3059 58.4574 55.545 59.0083C55.5545 58.4364 55.5625 57.7799 55.5665 57.0289C55.3027 57.043 55.0216 57.0569 54.7257 57.0679ZM36.4708 56.5142C36.4562 56.6172 36.4415 56.7202 36.4268 56.8228C36.4517 56.7203 36.477 56.6173 36.502 56.5142H36.4708ZM16.2393 51.8707C16.0841 52.0739 15.9515 52.2574 15.8389 52.4205C16.3205 52.389 16.9168 52.3094 17.6319 52.191C17.1888 52.0482 16.7538 51.9041 16.3301 51.7544C16.2999 51.7934 16.2685 51.8325 16.2393 51.8707ZM22.0782 41.4175C15.9406 42.4478 12.7864 43.6429 10.8585 44.4566C10.4634 44.6233 10.151 44.7676 9.9112 44.897C11.1329 46.1276 13.0107 47.2528 15.5596 48.2818C17.2187 46.3614 19.5501 43.9436 22.0782 41.4175ZM62.2706 45.7095C64.2084 45.5183 65.8794 45.3659 67.3194 45.2496C65.0985 44.5128 62.4375 43.6095 59.3702 42.5259C60.359 43.6144 61.3376 44.6895 62.2706 45.7095ZM55.3946 29.7925C54.916 31.7577 54.3809 33.7279 53.8116 35.6412C54.1744 35.7706 54.5229 35.9449 54.8194 36.188C55.0589 36.3846 55.2834 36.6146 55.4786 36.8785C55.4547 34.2788 55.4268 31.9077 55.3946 29.7925ZM32.8116 31.0406C32.8433 31.0105 32.8758 30.9796 32.9073 30.9498C32.7509 30.8614 32.5964 30.7728 32.4444 30.6861C32.5654 30.8038 32.6888 30.9214 32.8116 31.0406ZM44.628 18.0542C44.1143 18.8179 43.6057 19.6156 43.1046 20.4419C43.2603 20.8434 43.4217 21.2632 43.586 21.6988C43.6926 21.9812 43.7992 22.2725 43.9092 22.5689C44.1457 21.0853 44.3855 19.5779 44.628 18.0542Z" fill="#FBE300"/>
<path fill-rule="evenodd" clip-rule="evenodd" d="M46.3467 7.25542C46.4767 6.43563 47.1643 5.89055 47.8829 6.03764C48.6021 6.1856 49.0799 6.97181 48.9503 7.79252C48.7415 9.11393 48.5297 10.4303 48.3223 11.7388C48.5274 12.0006 48.6259 12.2851 48.6749 12.4761C48.7398 12.7298 48.7598 12.9813 48.7657 13.188C48.7774 13.6035 48.7361 14.103 48.6651 14.6539C48.4093 16.6372 47.6319 20.323 46.2559 26.4439C47.1424 27.7234 48.098 29.0856 49.1007 30.4478C49.2108 30.0629 49.3153 29.7154 49.4014 29.4068C49.4877 29.0978 49.5588 28.8267 49.6202 28.6011C49.6927 28.3215 49.7589 28.0642 49.8214 27.8345C49.8339 27.7884 49.8473 27.7392 49.8585 27.7017C49.8613 27.6923 49.8686 27.6716 49.876 27.649C49.8796 27.6382 49.8872 27.6144 49.8975 27.5865C49.903 27.5719 49.9163 27.5369 49.9249 27.5162C49.939 27.4838 49.9828 27.3943 50.0137 27.3384C50.0946 27.2141 50.5733 26.7967 51.0284 26.6665C51.7808 26.8674 52.3927 27.7742 52.4356 28.0494C52.4398 28.147 52.4357 28.2929 52.4317 28.3414C52.4287 28.3698 52.4228 28.4174 52.42 28.4361C52.4112 28.493 52.4006 28.5403 52.3995 28.5455C52.3847 28.6131 52.3525 28.7353 52.3204 28.858C52.2884 28.9803 52.2423 29.1423 52.1885 29.3414C51.9273 30.3431 51.5942 31.6937 51.2315 33.232C51.3515 33.382 51.4749 33.5288 51.5958 33.6773C53.0427 28.6603 54.2104 23.411 54.6592 19.0142C54.6965 18.6491 54.7364 18.3328 54.7794 18.0816C54.8006 17.9579 54.8269 17.8201 54.8624 17.689C54.8837 17.6103 54.9584 17.3323 55.1387 17.0728C55.2305 16.9411 55.4755 16.6306 55.9053 16.5191C56.4149 16.3871 56.8323 16.6149 57.0684 16.8394C57.2693 17.0305 57.3739 17.2427 57.4171 17.3374C57.4685 17.4505 57.5031 17.5545 57.5235 17.6255C57.5956 17.8764 57.6341 18.1772 57.6612 18.4214C57.7779 19.4739 57.8696 21.6199 57.9434 24.6089C58.0312 28.166 58.0925 33.0286 58.1397 38.9253C63.2925 40.7711 67.426 42.1563 70.4073 43.1236C72.266 43.7266 73.6787 44.1685 74.6133 44.4595C75.0773 44.604 75.4317 44.7154 75.6612 44.7886C75.7722 44.824 75.8729 44.8558 75.9444 44.8814C75.9638 44.8883 76.0439 44.9151 76.1241 44.9546C76.1465 44.9657 76.2024 44.9959 76.2696 45.0406C76.3027 45.0626 76.3656 45.1069 76.4376 45.1734C76.4877 45.2198 76.6594 45.3799 76.7852 45.6617C76.9474 46.0254 77.0388 46.6456 76.6895 47.2144C76.4368 47.6248 76.0933 47.7549 76.0089 47.7857C75.7977 47.8626 75.6163 47.858 75.6016 47.858C74.5391 47.858 71.8045 47.8571 64.8155 48.4966C65.8785 49.6625 66.7927 50.6706 67.4581 51.4283C67.9389 51.9759 68.332 52.4398 68.5538 52.7427C68.6097 52.8191 68.6813 52.9198 68.7442 53.0289C68.7743 53.0811 68.8244 53.1729 68.8702 53.2896C68.8936 53.3494 69.0271 53.6764 68.9844 54.108C68.9582 54.3715 68.8605 54.7165 68.6065 55.0093C68.3583 55.2949 68.071 55.4037 67.8712 55.441C67.5342 55.5033 67.2673 55.4008 67.211 55.3794C67.0373 55.3134 66.8927 55.2144 66.8301 55.1714C65.0588 53.9552 62.0035 51.6944 58.5479 49.1285C58.4328 49.1409 58.3164 49.152 58.2003 49.1646C58.2033 49.9217 58.2064 50.6902 58.209 51.4683C58.3022 51.5507 58.3969 51.6299 58.4883 51.7115C58.8674 52.0497 59.3015 52.4524 59.6153 52.8736C59.8511 53.1901 60.473 54.1161 60.0518 55.23C59.8577 55.7427 59.5133 56.0604 59.2237 56.2515C58.9332 56.4431 58.6038 56.5714 58.2784 56.6646C58.2579 56.6704 58.2359 56.6755 58.2149 56.6812C58.2066 58.737 58.1819 60.1772 58.129 61.1744C58.0889 61.9276 58.0289 62.5475 57.9132 63.0142C57.8133 63.4161 57.518 64.3163 56.6241 64.5249C55.7732 64.7227 55.1863 64.1009 54.9219 63.7613C54.6218 63.3755 54.3076 62.805 53.9454 62.0542C53.4456 61.0183 52.7717 59.4508 51.8282 57.1177C49.6673 57.1217 47.1219 57.06 44.46 56.9097C43.612 57.6845 42.7191 58.4249 41.7862 59.1128C41.6909 59.3392 41.6062 59.5516 41.5235 59.7398C41.3519 60.1301 41.183 60.4909 41.0274 60.7642C40.9539 60.8934 40.844 61.0722 40.7042 61.232C40.6341 61.3119 40.5143 61.4366 40.3467 61.5415C40.1802 61.6457 39.8702 61.7894 39.4766 61.7261C39.0438 61.6561 38.7662 61.403 38.5919 61.148C38.4117 61.2449 38.2295 61.3391 38.0469 61.4312C37.4974 63.6543 36.981 65.7108 36.5137 67.5123C35.6577 70.8128 34.945 73.3662 34.5118 74.5035C34.4118 74.766 34.2732 75.101 34.0919 75.3619C34.0362 75.442 33.7692 75.8372 33.2823 75.9712C32.9723 76.0561 32.6187 76.0201 32.2989 75.8179C32.0125 75.6366 31.8505 75.3842 31.7696 75.2261C31.6212 74.9359 31.5821 74.6471 31.5674 74.5318C31.5479 74.3774 31.5411 74.2223 31.5391 74.0865C31.5352 73.8118 31.5487 73.4843 31.5733 73.1324C31.6712 71.7313 31.9713 69.3559 32.3692 66.4712C32.5087 65.4599 32.6623 64.3814 32.8233 63.2525C32.3617 63.3424 31.8937 63.4186 31.421 63.4722C30.4722 63.5798 29.2048 63.5943 28.2452 62.5943C27.3025 61.6116 27.0388 60.0494 27.0421 58.2564C27.0439 57.2447 27.1049 55.9958 27.2393 54.5962C26.2267 54.3934 25.2442 54.1832 24.294 53.9693C22.7392 54.2732 21.3451 54.5595 20.1036 54.8013C18.3203 55.1486 16.8105 55.4135 15.7139 55.4546C15.1783 55.4747 14.6094 55.4479 14.1182 55.274C13.5986 55.0897 12.9136 54.629 12.7335 53.6421C12.5878 52.8424 12.8725 52.1098 13.1085 51.6324C13.2552 51.3357 13.4424 51.0239 13.6602 50.6988C11.2915 49.6493 9.35806 48.4343 7.97956 46.979C7.6229 46.6025 7.24488 46.1209 7.05475 45.524C6.82488 44.8015 6.91549 44.054 7.29694 43.4361C7.61156 42.9271 8.07351 42.5869 8.46686 42.3472C8.8851 42.0925 9.39104 41.8575 9.9405 41.6255C12.1597 40.6889 15.7639 39.3425 22.8389 38.2437C23.8297 38.0898 24.8047 37.9396 25.7608 37.7945C27.4542 36.1478 29.1545 34.5152 30.7442 33.0015C28.4206 30.742 26.4032 28.7263 25.1612 27.355C24.7473 26.8981 24.3941 26.4832 24.1378 26.1402C24.0123 25.9723 23.8817 25.7852 23.7774 25.5943C23.7255 25.4992 23.6613 25.3686 23.6085 25.2144C23.5628 25.0808 23.4799 24.7984 23.5059 24.4439C23.538 24.0099 23.7351 23.5364 24.1446 23.2398C24.4783 22.9985 24.8081 22.9827 24.96 22.9869C25.2653 22.9955 25.5422 23.1089 25.6964 23.1763C26.0595 23.3352 26.5329 23.615 27.0938 23.98C28.4198 24.843 31.1416 26.6255 35.1387 28.8326C35.2756 28.7031 35.411 28.5767 35.5421 28.4527C35.7058 28.2978 35.864 28.1439 36.0186 27.9976C36.3565 27.2803 36.701 26.5692 37.0479 25.8658C37.1899 23.8057 37.3333 21.9649 37.5196 20.4068C37.7331 18.6216 38.0191 17.0436 38.5001 15.8902L38.6163 15.6626C38.7653 15.4173 39.0192 15.1402 39.419 15.0259C39.908 14.8866 40.2948 15.0883 40.459 15.1949C40.7663 15.3946 40.9689 15.6978 41.0499 15.8208C41.2678 16.1523 41.505 16.6276 41.7432 17.148C41.7668 17.1994 41.7894 17.2535 41.8135 17.3072C43.004 15.4502 44.2349 13.7457 45.503 12.2505C45.5218 12.2284 45.543 12.2068 45.5626 12.1841C45.8213 10.5525 46.0858 8.90732 46.3467 7.25542ZM29.8526 55.0992C29.7408 56.3106 29.6882 57.3889 29.6866 58.2623C29.6836 59.8995 29.9658 60.2984 30.0294 60.3648C30.0757 60.4131 30.2764 60.5666 31.1602 60.4664C31.878 60.3849 32.5846 60.25 33.2784 60.0728C33.4777 58.6897 33.6812 57.2578 33.8897 55.8033L33.8643 55.7915C32.4853 55.5654 31.1468 55.3365 29.8526 55.0992ZM54.7257 57.0679C55.0336 57.8154 55.3059 58.4574 55.545 59.0083C55.5545 58.4364 55.5625 57.7799 55.5665 57.0289C55.3027 57.043 55.0216 57.0569 54.7257 57.0679ZM36.4708 56.5142C36.4562 56.6172 36.4415 56.7202 36.4268 56.8228C36.4517 56.7203 36.477 56.6173 36.502 56.5142H36.4708ZM16.2393 51.8707C16.0841 52.0739 15.9515 52.2574 15.8389 52.4205C16.3205 52.389 16.9168 52.3094 17.6319 52.191C17.1888 52.0482 16.7538 51.9041 16.3301 51.7544C16.2999 51.7934 16.2685 51.8325 16.2393 51.8707ZM22.0782 41.4175C15.9406 42.4478 12.7864 43.6429 10.8585 44.4566C10.4634 44.6233 10.151 44.7676 9.9112 44.897C11.1329 46.1276 13.0107 47.2528 15.5596 48.2818C17.2187 46.3614 19.5501 43.9436 22.0782 41.4175ZM62.2706 45.7095C64.2084 45.5183 65.8794 45.3659 67.3194 45.2496C65.0985 44.5128 62.4375 43.6095 59.3702 42.5259C60.359 43.6144 61.3376 44.6895 62.2706 45.7095ZM55.3946 29.7925C54.916 31.7577 54.3809 33.7279 53.8116 35.6412C54.1744 35.7706 54.5229 35.9449 54.8194 36.188C55.0589 36.3846 55.2834 36.6146 55.4786 36.8785C55.4547 34.2788 55.4268 31.9077 55.3946 29.7925ZM32.8116 31.0406C32.8433 31.0105 32.8758 30.9796 32.9073 30.9498C32.7509 30.8614 32.5964 30.7728 32.4444 30.6861C32.5654 30.8038 32.6888 30.9214 32.8116 31.0406ZM44.628 18.0542C44.1143 18.8179 43.6057 19.6156 43.1046 20.4419C43.2603 20.8434 43.4217 21.2632 43.586 21.6988C43.6926 21.9812 43.7992 22.2725 43.9092 22.5689C44.1457 21.0853 44.3855 19.5779 44.628 18.0542Z" stroke="black" stroke-width="12" mask="url(#path-1-outside-1_515_2879)"/>
</svg>
