<svg width="70" height="70" viewBox="0 0 70 70" fill="none" xmlns="http://www.w3.org/2000/svg">
<path fill-rule="evenodd" clip-rule="evenodd" d="M39.417 1.24207C39.5468 0.421954 40.2348 -0.123256 40.9535 0.0240195C41.6727 0.171984 42.1506 0.958101 42.0209 1.77883C41.8121 3.10023 41.6003 4.41641 41.3929 5.72495C41.598 5.98673 41.6967 6.27128 41.7457 6.46227C41.8106 6.71609 41.8302 6.96771 41.8361 7.17452C41.8478 7.59003 41.8063 8.08937 41.7353 8.6403C41.4795 10.6236 40.7025 14.3091 39.3266 20.43C40.213 21.7095 41.1682 23.0714 42.1708 24.4336C42.281 24.0485 42.3857 23.7012 42.4719 23.3925C42.5581 23.0835 42.6289 22.813 42.6903 22.5874C42.7628 22.3076 42.8294 22.0503 42.8919 21.8206C42.9044 21.7744 42.9182 21.7254 42.9294 21.6879C42.9322 21.6784 42.9387 21.6575 42.9462 21.6348C42.9497 21.624 42.9578 21.6008 42.9681 21.5728C42.9736 21.5583 42.9867 21.5228 42.9953 21.5021C43.0094 21.4697 43.0535 21.381 43.0844 21.3251C43.1649 21.201 43.6435 20.7829 44.0988 20.6527C44.8515 20.8535 45.4635 21.7611 45.5061 22.0359C45.5103 22.1336 45.5062 22.2796 45.5022 22.3278C45.4992 22.3563 45.4934 22.4036 45.4906 22.4222C45.4818 22.4792 45.471 22.5262 45.4699 22.5313C45.4552 22.5989 45.4232 22.7211 45.3911 22.844C45.3591 22.9664 45.3131 23.1285 45.2593 23.3276C44.998 24.3294 44.6644 25.6795 44.3017 27.2177C44.4219 27.3679 44.5452 27.5145 44.6661 27.6631C46.113 22.6461 47.2812 17.3976 47.7301 13.0008C47.7674 12.6353 47.8072 12.3187 47.8502 12.0673C47.8714 11.9436 47.8975 11.8062 47.9329 11.6751C47.9543 11.5963 48.029 11.3183 48.2095 11.0587C48.3012 10.927 48.546 10.6173 48.9758 10.5057C49.4853 10.3737 49.9027 10.6012 50.1388 10.8257C50.3401 11.0172 50.4446 11.2296 50.4877 11.3241C50.5392 11.4372 50.5733 11.5407 50.5937 11.6117C50.6658 11.8627 50.7048 12.1636 50.732 12.408C50.8487 13.4605 50.9399 15.6063 51.0137 18.5955C51.1015 22.1526 51.1629 27.0145 51.2101 32.9113C56.363 34.7571 60.4961 36.1423 63.4774 37.1096C65.3363 37.7127 66.749 38.1545 67.6837 38.4456C68.1477 38.5901 68.5022 38.7012 68.7317 38.7744C68.8427 38.8099 68.9432 38.8418 69.0147 38.8673C69.0337 38.8741 69.1138 38.9014 69.1943 38.9411C69.2167 38.9521 69.273 38.9818 69.3403 39.0266C69.3734 39.0486 69.4364 39.0928 69.5083 39.1593C69.5585 39.2057 69.7301 39.3656 69.8559 39.6474C70.0182 40.0111 70.1097 40.6313 69.7603 41.2002C69.5075 41.6112 69.1636 41.7416 69.0793 41.7724C68.8682 41.8493 68.6869 41.8447 68.6722 41.8446C67.6099 41.8446 64.8754 41.8435 57.8858 42.4831C58.9489 43.649 59.8632 44.657 60.5285 45.4147C61.0094 45.9623 61.4026 46.4257 61.6243 46.7286C61.6803 46.805 61.7513 46.9055 61.8143 47.0147C61.8444 47.0669 61.895 47.1587 61.9409 47.2757C61.9644 47.3354 62.0973 47.6625 62.0546 48.0941C62.0284 48.3577 61.9313 48.7023 61.6773 48.9951C61.429 49.2811 61.142 49.3899 60.942 49.4272C60.6049 49.4897 60.338 49.3867 60.2817 49.3652C60.1077 49.2991 59.9629 49.2002 59.9005 49.1573C58.1291 47.9411 55.074 45.6803 51.6184 43.1143C51.5033 43.1267 51.387 43.1385 51.2708 43.1511C51.2739 43.9082 51.2772 44.6764 51.2799 45.4545C51.3731 45.5369 51.4675 45.6162 51.559 45.6978C51.9381 46.0361 52.372 46.4386 52.6858 46.8598C52.9216 47.1763 53.5438 48.1024 53.1226 49.2163C52.9285 49.7291 52.5839 50.0471 52.2943 50.2382C52.0036 50.43 51.6739 50.5579 51.3484 50.6511C51.3278 50.657 51.3061 50.6616 51.285 50.6673C51.2768 52.7231 51.2527 54.1634 51.1997 55.1606C51.1597 55.914 51.0997 56.5342 50.9839 57.0009C50.8841 57.4028 50.5884 58.3024 49.6943 58.5109C48.8432 58.7088 48.2566 58.0866 47.9924 57.7471C47.6922 57.3613 47.3777 56.7917 47.0154 56.0409C46.5156 55.005 45.8423 53.4371 44.8987 51.1038C42.7378 51.1078 40.1923 51.0462 37.5303 50.8959C36.6823 51.6708 35.7896 52.4111 34.8567 53.099C34.7614 53.3254 34.6771 53.5375 34.5943 53.7257C34.4227 54.1162 34.2537 54.4772 34.0981 54.7506C34.0246 54.8798 33.9149 55.0583 33.7751 55.2181C33.705 55.298 33.5849 55.4227 33.4171 55.5277C33.2505 55.6319 32.941 55.7754 32.5474 55.7121C32.1143 55.6421 31.8366 55.3891 31.6622 55.134C31.482 55.231 31.2996 55.3249 31.1169 55.4171C30.5674 57.6403 30.0515 59.697 29.5843 61.4985C28.7283 64.7991 28.0158 67.3525 27.5826 68.4898C27.4826 68.7523 27.3439 69.0871 27.1626 69.348C27.1073 69.4277 26.8399 69.8229 26.3524 69.957C26.0423 70.042 25.6889 70.0061 25.369 69.8037C25.0826 69.6223 24.9214 69.3705 24.8404 69.2123C24.6919 68.9218 24.6522 68.633 24.6376 68.5178C24.618 68.3633 24.6111 68.2083 24.6091 68.0724C24.6052 67.7977 24.6194 67.4704 24.644 67.1184C24.7419 65.7173 25.0422 63.3421 25.4401 60.4574C25.5796 59.446 25.7326 58.3673 25.8936 57.2383C25.432 57.3283 24.9642 57.4044 24.4915 57.458C23.5427 57.5656 22.2749 57.5809 21.3152 56.5806C20.3724 55.5979 20.1088 54.0354 20.1121 52.2423C20.114 51.2305 20.1754 49.9819 20.3098 48.5822C19.2972 48.3794 18.315 48.1694 17.3648 47.9555C15.8098 48.2594 14.4157 48.5454 13.174 48.7872C11.3906 49.1345 9.88084 49.3993 8.78425 49.4405C8.24856 49.4605 7.67951 49.4345 7.18833 49.2605C6.66862 49.0763 5.98439 48.6151 5.80433 47.6281C5.65864 46.8281 5.94313 46.0956 6.17908 45.6182C6.32583 45.3214 6.51298 45.01 6.73087 44.6848C4.36208 43.6352 2.42867 42.421 1.05014 40.9657C0.693396 40.5891 0.315076 40.1073 0.124894 39.5103C-0.105022 38.7877 -0.0137706 38.0402 0.367837 37.4222C0.682457 36.9132 1.14397 36.5736 1.53732 36.3339C1.95559 36.0792 2.46095 35.8433 3.01049 35.6113C5.2297 34.6747 8.83421 33.3288 15.9097 32.23C16.9006 32.0761 17.8752 31.9254 18.8315 31.7802C20.5248 30.1335 22.2247 28.5014 23.8144 26.9877C21.4908 24.7282 19.4739 22.7126 18.2319 21.3413C17.818 20.8843 17.4648 20.4693 17.2084 20.1262C17.0829 19.9583 16.9521 19.7715 16.8479 19.5806C16.7959 19.4854 16.7315 19.3546 16.6786 19.2001C16.6329 19.0665 16.5505 18.7849 16.5765 18.4304C16.6085 17.9963 16.8052 17.5223 17.2149 17.2256C17.5486 16.9844 17.8783 16.9692 18.0303 16.9735C18.3356 16.9821 18.6127 17.0948 18.7669 17.1622C19.13 17.3211 19.6028 17.6008 20.1638 17.9659C21.4896 18.8287 24.2117 20.6115 28.2093 22.8189C28.3463 22.6894 28.4813 22.5625 28.6125 22.4384C28.7763 22.2836 28.9347 22.1306 29.0894 21.9843C29.4273 21.2669 29.771 20.5554 30.118 19.8519C30.2599 17.7918 30.4033 15.951 30.5897 14.3928C30.8032 12.6075 31.0895 11.0295 31.5705 9.87604L31.6868 9.64895C31.8358 9.40361 32.0894 9.12614 32.4893 9.01191C32.9786 8.87247 33.3654 9.07493 33.5295 9.18149C33.8368 9.38125 34.0391 9.68373 34.1201 9.80674C34.3381 10.1382 34.5757 10.6133 34.814 11.1339C34.8376 11.1853 34.8596 11.2394 34.8838 11.2932C36.0742 9.43624 37.3051 7.73182 38.5732 6.23665C38.592 6.21447 38.613 6.19296 38.6326 6.17029C38.8914 4.53863 39.156 2.89397 39.417 1.24207ZM22.9228 49.0851C22.811 50.2966 22.759 51.3747 22.7573 52.2482C22.7543 53.8857 23.0362 54.2846 23.0998 54.351C23.1461 54.3993 23.3466 54.553 24.2305 54.4527C24.9484 54.3712 25.6547 54.2362 26.3485 54.059C26.5482 52.6737 26.7534 51.2396 26.9623 49.7826C25.5734 49.555 24.2256 49.324 22.9228 49.0851ZM47.796 51.0537C48.104 51.8014 48.3761 52.4433 48.6152 52.9943C48.6248 52.4224 48.6333 51.7664 48.6372 51.0154C48.3733 51.0295 48.0921 51.0427 47.796 51.0537ZM29.4977 50.8089C29.5483 50.6006 29.5993 50.3908 29.6502 50.1807C29.6297 50.178 29.6087 50.1746 29.5882 50.1719C29.5577 50.3845 29.5281 50.5974 29.4977 50.8089ZM42.4964 45.4619C42.1338 45.9284 41.7602 46.3995 41.3709 46.8643C41.0511 47.2461 40.7179 47.6248 40.3785 48.0042C41.5372 48.0454 42.6514 48.0683 43.6931 48.0779C43.5784 47.7862 43.4584 47.487 43.3377 47.1784C43.1417 46.6773 42.9169 46.146 42.6709 45.5872C42.6087 45.5469 42.5503 45.5048 42.4964 45.4619ZM45.0318 44.2232C45.2966 44.8243 45.5403 45.4001 45.7542 45.947C46.0516 46.7075 46.3319 47.412 46.5916 48.0661C47.3244 48.051 47.9876 48.0284 48.5636 47.9968C48.5895 47.9954 48.6156 47.9924 48.6411 47.9909C48.6406 47.6566 48.6408 47.3095 48.6398 46.9498C47.5641 46.0235 46.3627 45.0143 45.0564 43.9062C45.0523 44.0113 45.0455 44.1179 45.0318 44.2232ZM30.2072 45.8114C30.143 46.27 30.0767 46.7291 30.012 47.1872C30.1275 47.2022 30.2436 47.2184 30.3596 47.2329C30.4785 46.7379 30.5966 46.2385 30.7163 45.7377C30.5465 45.7622 30.3763 45.7867 30.2072 45.8114ZM38.2424 44.7084C37.9314 45.5225 37.612 46.3459 37.2835 47.1739C37.8069 46.6402 38.314 46.0931 38.8019 45.5371C38.6587 45.4064 38.5596 45.2616 38.4956 45.1463C38.3993 44.9727 38.3507 44.8083 38.3238 44.698C38.2968 44.7015 38.2693 44.7049 38.2424 44.7084ZM25.6261 46.5059C26.2039 46.605 26.7911 46.702 27.3862 46.7994C27.4134 46.6064 27.4417 46.413 27.4689 46.2199C26.847 46.3148 26.2319 46.4101 25.6261 46.5059ZM9.3102 45.8571C9.15486 46.0604 9.02223 46.244 8.9096 46.4071C9.39116 46.3757 9.98688 46.2956 10.702 46.1771C10.2588 46.0343 9.82428 45.8902 9.40066 45.7406C9.37039 45.7796 9.33936 45.8189 9.3102 45.8571ZM35.1487 45.1213C35.1396 45.1803 35.1306 45.2397 35.1216 45.2982C35.1455 45.2373 35.1701 45.1762 35.1939 45.1154C35.1791 45.1174 35.1636 45.1192 35.1487 45.1213ZM19.9545 34.6573C19.6125 34.9909 19.2688 35.3224 18.9297 35.6556C16.0995 38.4364 13.4424 41.1348 11.4889 43.2927C11.5791 43.3216 11.6703 43.3524 11.7616 43.3812C13.4623 43.9164 15.3449 44.4133 17.3971 44.8853C17.9891 44.7708 18.603 44.6538 19.236 44.5373C19.7795 44.4372 20.3389 44.3366 20.9107 44.2365C21.3765 41.6637 22.0724 38.9095 23.0662 36.3192C23.3512 35.5763 23.6413 34.8259 23.9372 34.0718C22.6513 34.257 21.3222 34.4511 19.9545 34.6573ZM27.014 33.6398C26.493 34.9424 25.9844 36.2425 25.4905 37.5298C24.7139 39.5541 24.1329 41.702 23.711 43.7646C25.0621 43.5438 26.466 43.3248 27.9031 43.1084C28.0769 41.8397 28.2476 40.58 28.4083 39.3451C28.6778 37.2748 28.8957 35.2762 29.0842 33.3625C28.4097 33.4508 27.7191 33.5433 27.014 33.6398ZM31.639 34.4788C31.4645 36.1865 31.2631 37.9592 31.0252 39.7875C30.9004 40.7458 30.7697 41.7218 30.6362 42.7058C30.9127 42.666 31.1905 42.6259 31.4684 42.5864C32.0015 40.3365 32.5345 38.063 33.0566 35.8266C32.5915 35.3848 32.1182 34.934 31.639 34.4788ZM15.1486 35.4034C9.01097 36.4337 5.85721 37.629 3.92928 38.4426C3.53403 38.6095 3.22193 38.7541 2.98206 38.8836C4.20384 40.1142 6.08138 41.2388 8.63048 42.2678C10.2895 40.3474 12.6205 37.9296 15.1486 35.4034ZM35.6307 42.0142C35.892 41.9792 36.1538 41.9427 36.4151 41.908C36.6834 41.1887 36.9447 40.4769 37.1982 39.7757C36.8606 39.4512 36.5087 39.1112 36.1425 38.7612C35.963 39.8997 35.7914 40.986 35.6307 42.0142ZM46.589 39.3849C46.3373 39.8191 46.0667 40.2709 45.7788 40.7357C46.5524 40.6448 47.3147 40.5596 48.0609 40.4747C47.7171 40.2196 47.372 39.9634 47.0271 39.7079C46.8813 39.5999 46.7348 39.4928 46.589 39.3849ZM55.3414 39.6961C57.2794 39.5048 58.9502 39.3524 60.3902 39.236C58.1692 38.4992 55.5079 37.596 52.4403 36.5123C53.4292 37.601 54.4083 38.676 55.3414 39.6961ZM43.9903 38.1772C44.0029 38.225 44.0154 38.2729 44.0278 38.3202C44.1443 38.1255 44.2576 37.934 44.3663 37.7466C44.3111 37.706 44.256 37.6648 44.2009 37.6242C44.1309 37.81 44.0604 37.9947 43.9903 38.1772ZM47.9795 36.8146C48.1423 36.9352 48.3054 37.0555 48.4679 37.1759C48.5104 37.2074 48.5534 37.2388 48.5959 37.2703C48.5942 36.9998 48.5924 36.7306 48.5907 36.4637C48.4944 36.3566 48.3985 36.2491 48.3025 36.1422C48.2043 36.3524 48.097 36.5778 47.9795 36.8146ZM45.2231 34.7811C45.3989 34.9103 45.5751 35.0405 45.7516 35.1704C45.9213 34.824 46.0633 34.5155 46.1781 34.2532C45.9473 34.168 45.7175 34.0822 45.4893 33.9966C45.4004 34.2596 45.3126 34.522 45.2231 34.7811ZM23.6684 31.0665C24.1955 30.9907 24.7161 30.9145 25.2294 30.8424C25.4707 30.2503 25.7159 29.657 25.9634 29.064C25.9305 29.0323 25.8981 28.9997 25.8652 28.9681C25.1534 29.6452 24.4176 30.3487 23.6684 31.0665ZM48.4653 23.7789C47.9868 25.7441 47.4516 27.714 46.8823 29.6273C47.2453 29.7568 47.5937 29.9311 47.8903 30.1744C48.1299 30.3709 48.3541 30.6006 48.5493 30.8645C48.5255 28.2649 48.4976 25.894 48.4653 23.7789ZM29.2457 28.2603C29.3342 28.3449 29.4232 28.4292 29.5119 28.5139C29.54 28.1559 29.5683 27.8012 29.5946 27.4507C29.4773 27.7195 29.362 27.9905 29.2457 28.2603ZM41.0323 28.2839C41.0854 28.1106 41.139 27.9399 41.19 27.7722C40.997 27.5191 40.8073 27.2637 40.6175 27.0098C40.757 27.4349 40.8953 27.8601 41.0323 28.2839ZM37.9025 27.6616C37.9423 27.6795 37.9828 27.6968 38.0227 27.7147C37.994 27.6277 37.9648 27.5407 37.9361 27.4537C37.9251 27.5229 37.9135 27.5925 37.9025 27.6616ZM32.4234 25.0441C32.5494 25.1078 32.6755 25.1747 32.8033 25.2388C32.6875 24.9562 32.5745 24.676 32.466 24.3982C32.4516 24.6114 32.4383 24.8271 32.4234 25.0441ZM25.882 25.0264C25.9137 24.9964 25.9461 24.9663 25.9776 24.9365C25.8212 24.8481 25.6671 24.7593 25.515 24.6725C25.636 24.7902 25.7592 24.9073 25.882 25.0264ZM34.1446 21.1113C34.5188 22.2643 35.0085 23.5305 35.5855 24.8775C35.6646 24.5311 35.7426 24.1884 35.8194 23.8511C35.9134 23.2619 36.008 22.6666 36.1037 22.0668C35.85 21.3423 35.6002 20.6338 35.3542 19.9493C35.0658 20.2298 34.6739 20.6053 34.1446 21.1113ZM37.6983 12.0408C37.1846 12.8045 36.6759 13.6018 36.1748 14.4282C36.3305 14.8297 36.4924 15.249 36.6568 15.6846C36.7634 15.9672 36.8697 16.2582 36.9798 16.5547C37.2163 15.0711 37.4559 13.5645 37.6983 12.0408Z" fill="#FBE300"/>
</svg>
