<svg width="70" height="70" viewBox="0 0 70 70" fill="none" xmlns="http://www.w3.org/2000/svg">
<path fill-rule="evenodd" clip-rule="evenodd" d="M13.963 0.0119973L14.1816 0.0564569L14.4001 0.13864C14.6065 0.234072 14.775 0.365691 14.9019 0.482191C15.0799 0.645692 15.2467 0.843743 15.4025 1.05478C15.7134 1.476 16.0616 2.05931 16.4589 2.81565C17.2575 4.33572 18.3363 6.71411 19.7997 10.2849C20.5744 12.1751 21.4505 14.3854 22.3638 16.7126C23.2602 17.9819 24.1692 19.121 25.0759 20.1468C25.3713 19.8172 25.6548 19.5427 25.9196 19.3438C26.1108 19.2003 26.3507 19.05 26.6247 18.9653C26.906 18.8784 27.2943 18.8412 27.6952 19.0407C27.7837 19.0848 27.8636 19.137 27.9373 19.193C28.3066 17.5435 28.7574 15.9354 29.2005 14.5193L29.2639 14.3442C29.2836 14.2971 29.3467 14.1475 29.4649 13.9952C29.5103 13.9368 30.0438 13.2613 30.8304 13.6301C31.1518 13.7809 31.3248 14.0425 31.4003 14.1811C31.4794 14.3265 31.5182 14.4579 31.5366 14.5287C31.5557 14.6026 31.567 14.6761 31.5754 14.7416C31.7483 14.7959 31.902 14.8667 32.0278 14.937C32.2587 15.066 32.4799 15.228 32.6776 15.3896C32.7627 15.4592 32.8484 15.534 32.9349 15.6106C33.4597 11.6975 33.9563 8.08684 34.3333 5.63008C34.5706 4.08385 34.7663 2.94836 34.9303 2.20803C35.0084 1.85534 35.0971 1.51004 35.2041 1.24205C35.2464 1.13609 35.3545 0.871963 35.566 0.649252C35.6822 0.526962 35.9066 0.336112 36.237 0.278755C36.6058 0.214934 36.9301 0.347746 37.1571 0.536082C37.5043 0.824455 37.6227 1.23473 37.6483 1.31884C37.6977 1.4812 37.7284 1.64744 37.7493 1.78365C37.7923 2.06316 37.8223 2.41087 37.8457 2.7914C37.893 3.56272 37.9225 4.63294 37.9456 5.92782C37.969 7.24619 37.9538 9.01965 37.9444 10.875C37.9349 12.7453 37.9305 14.7174 37.9761 16.4769C38.0049 17.5879 38.053 18.5775 38.1254 19.387C38.1703 19.6176 38.2179 19.8616 38.264 20.1185C39.0521 19.3198 39.7734 18.4229 40.4039 17.5399C40.3825 17.2072 40.3599 16.8792 40.3439 16.5591C40.294 15.5564 40.2733 14.5897 40.3193 13.7392C40.3637 12.9185 40.4763 12.0642 40.767 11.3708L40.8445 11.205C40.9423 11.0188 41.1044 10.7826 41.3651 10.6122C41.7957 10.3311 42.2573 10.3769 42.6001 10.5624C42.8818 10.7149 43.0651 10.9453 43.1618 11.0824C43.2711 11.2374 43.3603 11.404 43.4321 11.554C43.5804 11.8639 43.7241 12.2582 43.8634 12.6938C43.9277 12.6855 43.9927 12.6848 44.0572 12.6884C44.1702 11.687 44.2918 10.7461 44.4274 10.0248C44.482 9.73477 44.5435 9.45436 44.6131 9.20705C44.6751 8.98659 44.773 8.68312 44.9339 8.41891C45.0144 8.28664 45.1669 8.06985 45.4157 7.90964C45.7061 7.72286 46.0852 7.64511 46.4697 7.79108C46.8027 7.91759 47.0099 8.16367 47.1172 8.31651C47.231 8.47857 47.3098 8.64669 47.364 8.78132C47.5459 9.23374 47.6969 9.87796 47.8305 10.5678C47.9701 11.2891 48.1108 12.1721 48.2512 13.168C48.5323 15.1622 48.821 17.668 49.1031 20.3556C49.371 22.9079 49.6339 25.6425 49.8822 28.2789C49.9371 28.2718 49.9915 28.2654 50.0455 28.2587C50.2464 27.8551 50.619 27.577 51.0538 27.5621C51.4444 27.549 51.7952 27.7521 52.0232 28.0754C52.9041 28.0275 53.6336 28.0396 54.2512 28.0997C55.2683 28.1987 56.2197 28.4349 56.8599 29.0307C57.2205 29.3663 57.4931 29.8281 57.5838 30.4008C57.6248 30.6601 57.6216 30.9102 57.5932 31.1445C61.045 30.8399 63.5407 30.6768 65.2936 30.6325C66.2965 30.6073 67.0798 30.6196 67.6697 30.6676C68.1274 30.7048 68.6167 30.7701 69.0093 30.9492L69.1714 31.034L69.3324 31.1391C69.5276 31.2835 69.8022 31.5519 69.9317 32.0041C70.1529 32.7777 69.7837 33.3627 69.5768 33.5979C69.3739 33.8284 69.1341 33.9735 68.9693 34.0613C68.7843 34.1599 68.5772 34.2458 68.3653 34.3227C67.5348 34.6241 66.2496 34.9132 64.7354 35.1755C61.6752 35.7056 57.4215 36.1697 53.3476 36.3719C53.2163 36.3784 53.0847 36.3823 52.9539 36.388C52.7981 36.4984 52.6344 36.6078 52.4674 36.7235C52.4974 38.5186 52.5146 40.149 52.4991 41.5036C52.4811 43.0873 52.4258 44.3182 52.337 45.1897C52.2932 45.619 52.2371 46.009 52.1595 46.3268C52.1214 46.483 52.0654 46.6715 51.9809 46.8549C51.9141 47 51.7355 47.3553 51.3628 47.5676C51.1587 47.6838 50.8742 47.7662 50.5508 47.6943C50.2405 47.6252 50.0205 47.442 49.8869 47.2914C49.6554 47.0303 49.5455 46.7147 49.4956 46.5612C49.3769 46.1955 49.275 45.6652 49.1689 44.9661C49.0002 43.854 48.7899 42.0833 48.5097 39.3183C48.4856 39.3337 48.4621 39.3501 48.438 39.3655C48.161 41.5105 46.9504 43.3936 45.4815 44.9957C43.9799 46.6332 42.062 48.136 40.1406 49.4861C39.6354 49.8411 39.1216 50.1555 38.6048 50.4373C38.626 50.5182 38.6446 50.6072 38.6541 50.7027C38.6753 50.9164 38.6683 51.2871 38.4591 51.6539C38.442 51.6838 38.4221 51.7114 38.4039 51.7387C39.1338 56.1116 39.0849 60.1216 38.9926 62.7688C38.9296 64.5712 38.423 66.1744 37.7634 67.3912C37.1408 68.5396 36.2498 69.5755 35.2746 69.8958C33.9601 70.3271 32.9917 69.3351 32.4567 68.4663C31.895 67.5542 31.4701 66.2958 31.157 64.9783C30.4585 62.0378 30.4772 57.7664 30.9373 52.5767C29.368 52.7011 27.9153 52.679 26.6846 52.6428C25.6904 52.6135 24.7364 52.3638 23.8232 51.7926C23.6088 51.6585 23.4006 51.5081 23.1969 51.3426C22.8441 52.5751 22.5287 53.6418 22.2521 54.5235C21.9922 55.3522 21.7633 56.0344 21.5729 56.5458C21.4783 56.8 21.3866 57.0289 21.3003 57.2194C21.23 57.3745 21.1114 57.6232 20.9478 57.8257C20.8877 57.9 20.7672 58.0366 20.5835 58.1436C20.3855 58.2588 20.0512 58.3719 19.6646 58.2366C19.2918 58.1061 19.0805 57.8168 18.9807 57.6357C18.8826 57.4576 18.839 57.2914 18.8185 57.1992C18.7497 56.8889 18.7674 56.5545 18.7785 56.3774C18.8078 55.9144 18.9013 55.2257 19.0559 54.3282C19.3115 52.8439 19.7574 50.6627 20.4519 47.7077C20.2364 47.2962 20.0356 46.8732 19.8467 46.4427C17.1157 47.7093 14.2885 49.0135 11.7444 50.0883C9.53228 51.0229 7.47494 51.8074 5.85718 52.2413C5.50278 52.7089 5.16984 53.1486 4.85952 53.5549C4.06771 54.5913 3.43099 55.4155 2.96526 55.9974C2.7335 56.287 2.53507 56.5288 2.37654 56.7101C2.29808 56.7999 2.21903 56.8861 2.14504 56.9607C2.09416 57.012 1.96648 57.1409 1.80662 57.2383C1.77395 57.2581 1.47946 57.4503 1.08158 57.3999C0.821684 57.3669 0.513588 57.2276 0.281339 56.9082C0.0714328 56.6193 0.0190696 56.313 0.00519139 56.1416C-0.0194732 55.8358 0.0509219 55.5955 0.0662965 55.5421C0.0937361 55.4467 0.126193 55.3652 0.148553 55.3117C0.230734 55.115 0.361884 54.8713 0.499907 54.6286C0.795645 54.1087 1.28407 53.3079 1.9629 52.2224C1.98444 52.188 2.00601 52.1531 2.02753 52.1187C1.84308 51.9649 1.67003 51.7625 1.53752 51.4935C1.25773 50.9255 1.28304 50.326 1.38476 49.8647L1.63623 48.7761C4.35166 37.5312 10.4805 26.8595 11.2791 24.9404C11.5655 24.2534 12.2836 23.9617 12.8831 24.2896C13.4827 24.6176 13.7365 25.4411 13.4507 26.1287C13.4431 26.1469 13.4329 26.1649 13.4248 26.1839C13.7606 26.2157 14.1206 26.2941 14.4413 26.3765C15.891 26.7494 17.4699 27.3347 19.1475 28.1145C19.5367 27.7248 19.9111 27.3779 20.2674 27.0879C20.4868 26.7445 20.7057 26.4084 20.9184 26.0775C20.469 25.4098 20.0643 24.7947 19.7198 24.2519C19.6834 24.1946 19.6421 24.1269 19.6046 24.0579C19.5978 24.0458 19.4771 23.838 19.4249 23.5675C19.4082 23.4812 19.3799 23.2972 19.4084 23.0677C19.4398 22.8155 19.5532 22.4399 19.8726 22.161C20.1753 21.897 20.4928 21.8703 20.6622 21.8794C20.8314 21.8885 20.9608 21.9365 21.0242 21.9629C21.2291 22.0485 21.3799 22.1881 21.392 22.1987C21.5552 22.3415 21.7999 22.6106 22.05 22.8925C22.101 22.95 22.1537 23.0124 22.2098 23.0771C21.5674 21.4268 20.9215 19.7663 20.2921 18.161C19.9123 17.6144 19.5326 17.0484 19.1581 16.458C16.9536 12.9821 14.972 9.24674 13.7292 6.41014C13.1165 5.01185 12.6454 3.7492 12.4389 2.817C12.3492 2.41188 12.2428 1.79849 12.3813 1.23127C12.4641 0.892879 12.6677 0.449313 13.1052 0.187141C13.415 0.00168301 13.7215 -0.0194147 13.963 0.0119973ZM35.8809 51.6161C35.042 51.8949 34.2056 52.0995 33.385 52.2534C33.3836 52.2689 33.3829 52.285 33.3815 52.3006C32.874 57.7225 32.8837 61.7456 33.479 64.2521C33.7627 65.4461 34.0976 66.3473 34.4226 66.8752C34.5423 67.0695 34.6278 67.1648 34.6788 67.2107C34.8659 67.1008 35.2856 66.7336 35.7188 65.9348C36.179 65.0857 36.5435 63.9414 36.5883 62.6583C36.6855 59.8729 36.7076 55.8796 35.9314 51.6539C35.9144 51.6418 35.898 51.6284 35.8809 51.6161ZM30.9443 49.8095C31.0345 49.8017 31.1252 49.7941 31.2158 49.7852C31.2201 49.7458 31.2255 49.7061 31.2299 49.6667C31.134 49.7158 31.0381 49.7621 30.9443 49.8095ZM25.1946 43.9812C24.8509 45.3025 24.5244 46.5425 24.2134 47.6916C24.138 47.97 24.0611 48.2427 23.9878 48.5107C24.1816 48.7282 24.3714 48.9122 24.5589 49.0671C24.5722 48.8855 24.5913 48.6941 24.6176 48.4986C24.7011 47.879 24.8517 47.1194 25.0606 46.2554C25.2421 45.505 25.4724 44.6581 25.7492 43.7306C25.5664 43.8125 25.3815 43.8968 25.1946 43.9812ZM11.9724 29.1506C9.84741 33.3661 6.17117 40.7893 4.13566 48.7882C7.62702 43.326 10.886 38.5252 13.6516 34.7875C14.2892 33.9258 14.9052 33.1202 15.4906 32.3719C15.0872 32.0383 14.6877 31.7068 14.2909 31.383C13.3968 30.6532 12.7524 30.0627 12.3249 29.5857C12.1998 29.4461 12.0802 29.3003 11.9724 29.1506ZM28.3485 43.573C27.9346 44.879 27.6113 46.0334 27.3791 46.9937C27.2279 47.619 27.1178 48.1494 27.0465 48.5781C27.168 48.5381 27.3035 48.4905 27.4531 48.4339C28.3879 48.0804 29.6712 47.4629 31.264 46.6124C31.1862 46.5107 31.1069 46.4096 31.0289 46.3066C30.8198 46.0303 30.609 45.7475 30.3967 45.4605C29.7475 44.8555 29.0617 44.2249 28.3485 43.573ZM17.8737 39.6403C16.9801 39.9153 16.3529 40.1349 15.9724 40.2641C15.8353 40.3107 15.6079 40.3893 15.4495 40.4164C15.418 40.4217 15.3613 40.4302 15.292 40.4325C15.2495 40.434 15.0759 40.4402 14.8702 40.3625C14.8059 40.3381 14.7131 40.2942 14.6105 40.221C12.5517 43.1786 10.5341 45.9637 8.74792 48.3787C9.43038 48.1122 10.1553 47.8188 10.9124 47.4989C13.4039 46.4463 16.1815 45.1661 18.9019 43.9044C18.4902 42.5899 18.1737 41.2414 17.936 39.9138C17.9194 39.821 17.9037 39.7277 17.8878 39.6349C17.8832 39.6364 17.8783 39.6389 17.8737 39.6403ZM37.1065 46.3834C37.2766 46.9041 37.4306 47.4261 37.5731 47.9462C38.0153 47.7048 38.4534 47.4359 38.8833 47.1338C39.2938 46.8453 39.6974 46.5514 40.0925 46.2567C39.944 46.193 39.803 46.1182 39.6765 46.0412C39.4008 45.8733 39.0989 45.647 38.7811 45.3851C38.2078 45.7299 37.6492 46.0632 37.1065 46.3834ZM41.9656 43.441C42.0442 43.673 42.1102 43.8897 42.1524 44.0917C42.1793 44.2201 42.2048 44.3782 42.2159 44.5525C42.799 44.041 43.3408 43.5227 43.8234 42.9964C44.2685 42.5109 44.6472 42.0343 44.9621 41.571C43.9346 42.2178 42.9343 42.8423 41.9656 43.441ZM35.271 41.9657C35.591 42.5843 35.8842 43.2107 36.1535 43.8411C36.3485 43.7258 36.5455 43.608 36.7446 43.4895C36.2809 43.0246 35.7875 42.5124 35.271 41.9657ZM30.7504 41.6249C31.1829 42.2323 31.6108 42.8314 32.036 43.41C32.1139 42.8673 32.1959 42.3175 32.2792 41.7609C32.1586 41.5671 32.0351 41.3741 31.9079 41.1829C31.5321 41.3238 31.146 41.4703 30.7504 41.6249ZM22.5776 38.4103C21.7143 38.6005 20.9307 38.7919 20.2274 38.9748C20.2488 39.1026 20.2704 39.2309 20.2933 39.3588C20.5074 40.5548 20.7862 41.7382 21.1358 42.8711C21.3245 42.7837 21.5129 42.6974 21.6998 42.611C22.0261 41.3107 22.3717 39.9383 22.7234 38.5383C22.6748 38.4957 22.6263 38.4529 22.5776 38.4103ZM37.7481 40.1388C37.6409 40.255 37.5279 40.3666 37.4038 40.4649C37.7564 40.8324 38.0926 41.1793 38.4121 41.4982C38.1963 41.0465 37.9753 40.5917 37.7481 40.1388ZM43.8974 38.3685C42.8915 38.3641 41.5877 38.4646 39.8563 38.8064C40.2204 39.5334 40.5661 40.2596 40.8962 40.9674C42.1939 40.165 43.5499 39.3149 44.955 38.4251C44.6702 38.392 44.3215 38.3704 43.8974 38.3685ZM27.8162 37.4483C27.8385 37.4802 27.861 37.5121 27.8832 37.544C27.8979 37.506 27.9131 37.4676 27.9279 37.4295C27.8906 37.4353 27.8533 37.4425 27.8162 37.4483ZM35.5601 36.4824C35.5261 36.6873 35.4925 36.892 35.4591 37.0954C35.6458 37.0392 35.8304 36.9874 36.0114 36.935C35.9876 36.8949 35.9647 36.8538 35.9408 36.8138C35.854 36.6683 35.764 36.5261 35.6765 36.384C35.6396 36.4173 35.6016 36.4518 35.5601 36.4824ZM16.8103 37.0199C16.8502 37.0064 16.8913 36.992 16.9325 36.9781C17.1125 36.9174 17.305 36.8547 17.5083 36.7868C17.4847 36.5486 17.4606 36.3118 17.4413 36.0768C17.2308 36.3914 17.0215 36.7072 16.8103 37.0199ZM47.3287 36.3921C47.4534 36.4818 47.5698 36.5821 47.6777 36.6912C47.8186 36.6009 47.9602 36.51 48.1019 36.419C47.8424 36.4112 47.5842 36.4016 47.3275 36.3907L47.3287 36.3921ZM39.2629 35.8855C39.2528 35.9683 39.2433 36.0508 39.2323 36.1321C39.8868 35.9983 40.4915 35.8947 41.0513 35.8168C40.8667 35.7903 40.6836 35.7598 40.5014 35.7319C40.0876 35.782 39.6745 35.8348 39.2629 35.8855ZM19.7645 32.5322C20.7637 33.3798 21.7658 34.2427 22.7598 35.1055C22.8363 35.0819 22.9138 35.0592 22.9913 35.0354C21.9584 33.6386 21.0431 32.4865 20.2921 31.7171C20.1186 31.9875 19.9411 32.2583 19.7645 32.5322ZM47.7553 31.3991C46.2988 31.6649 44.5732 32.0341 42.5202 32.5322C42.0341 32.6501 41.553 32.7703 41.0772 32.8879C43.3472 32.6165 45.6274 32.3585 47.8223 32.1199C47.8001 31.8816 47.7778 31.6412 47.7553 31.3991ZM54.0479 30.8481C53.5863 30.8032 53.0276 30.7882 52.3393 30.8185C52.3463 31.0944 52.3537 31.3693 52.3605 31.643C53.2112 31.557 54.0351 31.475 54.8247 31.3991C54.9397 31.2582 55.0206 31.1425 55.0773 31.0475C55.0643 31.0429 55.0504 31.0373 55.0362 31.0327C54.8113 30.9592 54.4901 30.8912 54.0479 30.8481ZM22.7457 28.7033C22.6031 28.7561 22.462 28.815 22.3238 28.8825C22.2213 28.9326 22.1004 29.0074 21.9619 29.1061C21.8915 29.2164 21.8203 29.3274 21.7492 29.4389C22.638 29.9276 23.5477 30.4634 24.4742 31.0448C23.873 30.2543 23.2932 29.4661 22.7457 28.7033ZM17.1369 30.3321C17.1682 30.295 17.1999 30.2583 17.2309 30.2216C17.0768 30.1561 16.9242 30.0918 16.7727 30.0303C16.8939 30.1304 17.0152 30.2312 17.1369 30.3321ZM46.1607 15.7965C46.0395 17.0558 45.9246 18.2773 45.8199 19.1391C45.7596 19.6351 45.6845 20.184 45.5755 20.5321C45.5518 20.6078 45.4801 20.8367 45.3228 21.0522C45.2412 21.1639 45.0552 21.3857 44.7447 21.4995C44.3745 21.6349 44.0064 21.5523 43.7294 21.358C43.4988 21.1961 43.3714 20.9886 43.3158 20.8865C43.2527 20.7707 43.2133 20.6635 43.19 20.5928C43.1436 20.4516 43.1148 20.3118 43.096 20.2061C43.0525 19.9604 43.003 19.6983 42.9515 19.4247C42.9529 19.4435 42.9547 19.4625 42.9562 19.4813C43.0396 20.5575 43.1294 21.6789 43.1936 22.7672C43.3193 24.8989 43.366 27.0987 43.0302 28.7531C42.9697 29.0513 42.8911 29.3536 42.7905 29.649C44.5872 29.2244 46.143 28.8975 47.4968 28.6534C47.2473 26.0026 46.9838 23.2546 46.7141 20.6857C46.5304 18.9357 46.3431 17.2771 46.1607 15.7965ZM40.6788 21.3014C40.0843 21.9808 39.4381 22.6363 38.7458 23.2186C38.9918 25.0307 39.211 27.066 39.3357 29.0724C39.5681 29.1175 39.7768 29.1556 39.9609 29.1829C40.2177 29.221 40.2788 29.1486 40.3169 29.1061C40.4113 29.0011 40.5641 28.7278 40.6859 28.128C40.9305 26.9226 40.9185 25.1043 40.7917 22.9532C40.7596 22.4102 40.7201 21.858 40.6788 21.3014ZM25.2475 24.0997C25.4226 24.5497 25.5982 24.9955 25.7704 25.4375C25.8106 25.2327 25.8511 25.0323 25.8867 24.8366C25.8944 24.7942 25.9004 24.7517 25.9079 24.71C25.6912 24.5082 25.4732 24.302 25.2557 24.0889C25.2531 24.0926 25.2501 24.096 25.2475 24.0997ZM29.8679 24.6197C30.1293 24.8171 30.3887 25.0059 30.6459 25.1869C30.4851 24.4939 30.3326 23.8099 30.1923 23.1499C30.0909 23.6182 29.9828 24.1084 29.8679 24.6197ZM34.2499 24.062C34.3768 23.8375 34.5036 23.6115 34.633 23.387C34.659 22.3511 34.687 21.3638 34.7234 20.4985C34.5647 21.6943 34.405 22.8894 34.2499 24.062ZM31.8186 18.5301C31.9022 19.2064 32.0409 20.0443 32.2217 20.9848C32.32 20.2411 32.4203 19.4948 32.519 18.7511C32.4336 18.7017 32.3515 18.6411 32.2757 18.5665C32.0954 18.3891 31.9279 18.2246 31.7716 18.0761C31.7846 18.2148 31.7984 18.3664 31.8186 18.5301ZM35.1947 16.9552C35.2417 16.8628 35.3008 16.763 35.3768 16.6682C35.4251 16.608 35.489 16.5398 35.5683 16.4728C35.5516 15.7978 35.5431 15.0958 35.5378 14.3846C35.4245 15.2234 35.3113 16.0836 35.1947 16.9552Z" fill="#FBE300"/>
</svg>
