<svg width="85" height="82" viewBox="0 0 85 82" fill="none" xmlns="http://www.w3.org/2000/svg">
<mask id="path-1-outside-1_515_2884" maskUnits="userSpaceOnUse" x="-0.554688" y="0" width="86" height="83" fill="black">
<rect fill="white" x="-0.554688" width="86" height="83"/>
<path fill-rule="evenodd" clip-rule="evenodd" d="M22.4076 6.01186L22.6263 6.05678L22.8451 6.13881C23.0515 6.23424 23.2201 6.36606 23.347 6.48256C23.5249 6.64594 23.6913 6.84398 23.847 7.05483C24.1579 7.47597 24.5064 8.05942 24.9037 8.81557C25.7022 10.3356 26.781 12.7145 28.2445 16.2853C29.0192 18.1755 29.8956 20.3858 30.8089 22.713C31.7053 23.9822 32.6142 25.1218 33.5208 26.1476C33.8162 25.818 34.0998 25.5428 34.3646 25.3439C34.5557 25.2004 34.7958 25.0507 35.0697 24.966C35.3509 24.8791 35.7391 24.8417 36.14 25.0412C36.2285 25.0852 36.3085 25.1376 36.3822 25.1935C36.7515 23.544 37.2028 21.9357 37.6458 20.5197L37.7093 20.3449C37.7289 20.2978 37.7913 20.1475 37.9095 19.9953C37.955 19.9367 38.4892 19.2612 39.2757 19.63C39.597 19.7808 39.7696 20.0431 39.8451 20.1818C39.9241 20.3271 39.9634 20.4586 39.9818 20.5294C40.0008 20.6032 40.0115 20.677 40.0199 20.7423C40.1928 20.7967 40.3472 20.8674 40.473 20.9376C40.7037 21.0666 40.9248 21.2283 41.1224 21.3898C41.2075 21.4593 41.2937 21.5339 41.3802 21.6105C41.9049 17.6975 42.4017 14.0867 42.7787 11.63C43.0159 10.084 43.2113 8.9484 43.3753 8.20815C43.4535 7.85555 43.5419 7.51026 43.6488 7.24233C43.6911 7.13637 43.7996 6.87226 44.0111 6.64955C44.1273 6.52726 44.3517 6.33679 44.682 6.27944C45.0507 6.21563 45.375 6.34799 45.6019 6.53627C45.9491 6.82464 46.0675 7.23537 46.0931 7.31947C46.1425 7.48175 46.1737 7.64819 46.1947 7.78432C46.2376 8.06376 46.267 8.41179 46.2904 8.79213C46.3377 9.56337 46.3679 10.6333 46.391 11.9279C46.4144 13.2462 46.3985 15.0199 46.389 16.8751C46.3795 18.7453 46.3756 20.7173 46.4212 22.4767C46.45 23.5875 46.4983 24.5775 46.5706 25.3869C46.6156 25.6175 46.6632 25.8624 46.7093 26.1193C47.4974 25.3205 48.2185 24.4232 48.849 23.5402C48.8276 23.2076 48.8044 22.8798 48.7884 22.5597C48.7385 21.5571 48.718 20.5899 48.764 19.7394C48.8084 18.9187 48.9216 18.0646 49.2122 17.3712L49.2894 17.2052C49.3872 17.019 49.5493 16.7828 49.8099 16.6124C50.2405 16.3313 50.7024 16.3772 51.0453 16.5626C51.3269 16.7151 51.51 16.946 51.6068 17.0831C51.716 17.2379 51.8056 17.404 51.8773 17.5538C52.0256 17.8637 52.1687 18.2589 52.3079 18.6945C52.3723 18.6862 52.4377 18.685 52.5023 18.6886C52.6153 17.6875 52.7368 16.7467 52.8724 16.0255C52.927 15.7355 52.9883 15.4545 53.0579 15.2072C53.12 14.9867 53.2184 14.6832 53.3792 14.4191C53.4598 14.2868 53.6122 14.0704 53.8607 13.9103C54.151 13.7236 54.5299 13.6454 54.9144 13.7912C55.2471 13.9176 55.4545 14.1637 55.5619 14.3165C55.6756 14.4785 55.7547 14.6468 55.8089 14.7814C55.9909 15.2338 56.1421 15.8787 56.2757 16.5685C56.4153 17.2896 56.5553 18.1725 56.6956 19.1681C56.9768 21.1622 57.2661 23.6681 57.5482 26.3556C57.8161 28.9079 58.0792 31.6431 58.3275 34.2794C58.3822 34.2723 58.4367 34.2657 58.4906 34.2589C58.6914 33.8555 59.0637 33.5776 59.4984 33.5626C59.8888 33.5495 60.2401 33.7522 60.4681 34.0753C61.349 34.0273 62.079 34.0396 62.6966 34.0997C63.7135 34.1988 64.6649 34.4357 65.305 35.0314C65.6654 35.367 65.938 35.8289 66.0287 36.4015C66.0696 36.6606 66.0668 36.9105 66.0384 37.1447C69.4901 36.8401 71.9858 36.6772 73.7386 36.633C74.7415 36.6077 75.5247 36.6202 76.1146 36.6681C76.5723 36.7053 77.0618 36.7703 77.4544 36.9494L77.6165 37.0343L77.7777 37.1398C77.9728 37.2842 78.2468 37.5524 78.3763 38.004C78.5974 38.7774 78.2287 39.3625 78.0218 39.5978C77.8189 39.8283 77.5792 39.9738 77.4144 40.0617C77.2294 40.1602 77.0218 40.2465 76.8099 40.3234C75.9793 40.6247 74.6939 40.9137 73.18 41.1759C70.1198 41.706 65.866 42.1701 61.7923 42.3722C61.6611 42.3787 61.5295 42.3831 61.3988 42.3888C61.243 42.4991 61.0793 42.6081 60.9124 42.7238C60.9424 44.5189 60.9591 46.1495 60.9437 47.504C60.9257 49.0874 60.8703 50.3182 60.7816 51.1896C60.7378 51.6189 60.6823 52.0095 60.6048 52.3273C60.5667 52.4834 60.5105 52.6722 60.4261 52.8556C60.3592 53.0008 60.1802 53.3553 59.8079 53.5675C59.6039 53.6837 59.3188 53.7664 58.9954 53.6945C58.6853 53.6253 58.4649 53.4427 58.3314 53.2921C58.0999 53.0311 57.9906 52.7153 57.9408 52.5617C57.8221 52.196 57.7197 51.6651 57.6136 50.966C57.4449 49.8539 57.2346 48.0831 56.9544 45.3185C56.9305 45.3338 56.907 45.3501 56.8831 45.3654C56.6061 47.5104 55.395 49.3941 53.9261 50.9962C52.4246 52.6337 50.5066 54.1364 48.5853 55.4865C48.0802 55.8414 47.5668 56.156 47.0501 56.4376C47.0714 56.5186 47.0895 56.6078 47.099 56.7033C47.1201 56.917 47.1128 57.2878 46.9037 57.6544C46.8866 57.6843 46.8671 57.7122 46.849 57.7394C47.5788 62.1119 47.5302 66.1216 47.4378 68.7687C47.3748 70.5711 46.8679 72.1749 46.2083 73.3917C45.5857 74.5401 44.6943 75.5754 43.7191 75.8956C42.4049 76.3267 41.4368 75.3356 40.9017 74.4669C40.34 73.5548 39.9149 72.2961 39.6019 70.9787C38.9034 68.0382 38.9221 63.7668 39.3822 58.5773C37.8129 58.7016 36.36 58.6789 35.1292 58.6427C34.1352 58.6134 33.181 58.3642 32.2679 57.7931C32.0536 57.659 31.8456 57.5083 31.6419 57.3429C31.2891 58.5753 30.9732 59.6419 30.6966 60.5236C30.4367 61.3522 30.2083 62.0347 30.0179 62.546C29.9232 62.8003 29.8317 63.0293 29.7454 63.2199C29.6752 63.375 29.5565 63.6239 29.3929 63.8263C29.3328 63.9006 29.2121 64.0367 29.0287 64.1437C28.8307 64.2589 28.4963 64.3718 28.1097 64.2365C27.737 64.1059 27.525 63.817 27.4251 63.6359C27.3271 63.4579 27.2835 63.2915 27.263 63.1994C27.1943 62.8894 27.2128 62.5552 27.224 62.3781C27.2532 61.9151 27.3468 61.2258 27.5013 60.3283C27.7569 58.844 28.2024 56.6629 28.8968 53.7081C28.6813 53.2966 28.4802 52.8731 28.2913 52.4425C25.5604 53.7091 22.7338 55.0142 20.1898 56.089C17.9777 57.0236 15.9198 57.8075 14.3021 58.2413C13.9477 58.709 13.6144 59.1486 13.304 59.5548C12.5122 60.5913 11.8762 61.4163 11.4105 61.9982C11.1789 62.2876 10.9801 62.5288 10.8216 62.7101C10.7432 62.7998 10.6641 62.8865 10.5902 62.9611C10.5393 63.0124 10.4112 63.141 10.2513 63.2384C10.218 63.2587 9.92399 63.4507 9.5267 63.4005C9.2668 63.3675 8.95817 63.2277 8.72592 62.9083C8.51618 62.6195 8.4644 62.3131 8.45053 62.1417C8.42589 61.836 8.4957 61.5956 8.51107 61.5421C8.5385 61.4468 8.57076 61.3652 8.59311 61.3117C8.67527 61.1151 8.80671 60.8716 8.94467 60.629C9.24039 60.1091 9.72879 59.3082 10.4076 58.2228C10.429 58.1885 10.4506 58.1535 10.472 58.1193C10.2877 57.9656 10.1152 57.7629 9.98275 57.4943C9.70304 56.9264 9.72779 56.3266 9.82943 55.8654L10.0814 54.7765C12.7968 43.5316 18.9254 32.8597 19.724 30.9406C20.0104 30.2536 20.7289 29.9623 21.3285 30.2902C21.9278 30.6183 22.1816 31.4416 21.8958 32.129C21.8883 32.1472 21.8776 32.1648 21.8695 32.1837C22.2052 32.2156 22.5654 32.2946 22.8861 32.3771C24.3357 32.7499 25.9147 33.3346 27.5921 34.1144C27.9813 33.7247 28.356 33.378 28.7122 33.088C28.9317 32.7447 29.151 32.4082 29.3636 32.0773C28.9142 31.4097 28.5089 30.7948 28.1644 30.2521C28.128 30.1948 28.0865 30.1267 28.0492 30.0578C28.0397 30.041 27.9211 29.8347 27.8695 29.5675C27.8528 29.4811 27.8244 29.2968 27.8529 29.0675C27.8844 28.8153 27.9985 28.44 28.3177 28.1613C28.6201 27.8976 28.9373 27.871 29.1068 27.88C29.2759 27.8891 29.4057 27.9366 29.4691 27.963C29.674 28.0486 29.8252 28.1888 29.8372 28.1994C30.0005 28.3422 30.2455 28.611 30.4954 28.8927C30.5463 28.9501 30.5986 29.0127 30.6546 29.0773C30.0122 27.4271 29.366 25.7666 28.7367 24.1613C28.3569 23.6148 27.9773 23.0485 27.6029 22.4581C25.3985 18.9823 23.4169 15.2468 22.1742 12.4103C21.5616 11.0122 21.0906 9.74967 20.8841 8.81752C20.7944 8.4124 20.688 7.7988 20.8265 7.23158C20.9093 6.89322 21.1127 6.4498 21.5501 6.18764C21.8598 6.00229 22.1661 5.98053 22.4076 6.01186ZM44.3255 57.6163C43.4869 57.895 42.6508 58.1001 41.8304 58.254C41.829 58.2695 41.8279 58.2855 41.8265 58.3009C41.3191 63.7226 41.329 67.7456 41.9242 70.2521C42.2078 71.4458 42.5425 72.3472 42.8675 72.8751C42.987 73.0692 43.0724 73.1651 43.1234 73.2111C43.3105 73.1012 43.7303 72.7335 44.1634 71.9347C44.6236 71.0856 44.9887 69.9413 45.0335 68.6583C45.1307 65.873 45.1524 61.8799 44.3763 57.6544C44.3593 57.6424 44.3426 57.6286 44.3255 57.6163ZM20.4173 35.1505C18.2924 39.366 14.6159 46.7893 12.5804 54.7882C16.0717 49.3261 19.3314 44.5259 22.097 40.7882C22.7346 39.9265 23.3505 39.1206 23.9359 38.3722C23.5324 38.0387 23.1325 37.7068 22.7357 37.383C21.8417 36.6533 21.1973 36.063 20.7699 35.5861C20.6448 35.4465 20.5251 35.3003 20.4173 35.1505ZM26.3187 45.6408C25.4251 45.9157 24.7978 46.1356 24.4173 46.2648C24.2803 46.3113 24.0532 46.3901 23.8949 46.4171C23.8634 46.4225 23.806 46.4304 23.7367 46.4328C23.6935 46.4342 23.52 46.44 23.3148 46.3624C23.2505 46.3381 23.1575 46.2939 23.055 46.2208C20.9962 49.1784 18.9789 51.964 17.1927 54.379C17.8752 54.1126 18.6006 53.819 19.3578 53.4992C21.8491 52.4466 24.6267 51.166 27.347 49.9044C26.9353 48.59 26.6189 47.2417 26.3812 45.9142C26.3646 45.8214 26.3483 45.7277 26.3324 45.6349C26.3278 45.6363 26.3232 45.6393 26.3187 45.6408ZM55.7738 42.3927C55.8984 42.4823 56.0146 42.5826 56.1224 42.6915C56.2633 42.6012 56.4055 42.5101 56.5472 42.4191C56.2878 42.4112 56.0293 42.4016 55.7728 42.3908L55.7738 42.3927ZM56.2005 37.3996C54.7951 37.656 53.1389 38.0087 51.18 38.4806L51.3275 38.6769C52.9948 38.483 54.6538 38.2956 56.2669 38.1203C56.2448 37.8819 56.223 37.6416 56.2005 37.3996ZM60.7845 36.8185C60.7915 37.0944 60.7982 37.37 60.805 37.6437C61.6558 37.5577 62.4803 37.4754 63.2699 37.3996C63.3847 37.2588 63.4651 37.1429 63.5218 37.048C63.5089 37.0435 63.4949 37.038 63.4808 37.0333C63.2559 36.9599 62.9346 36.8918 62.4925 36.8488C62.031 36.8039 61.4725 36.7883 60.7845 36.8185ZM25.5824 36.3322C25.6135 36.2952 25.6452 36.2583 25.6761 36.2218C25.522 36.1563 25.3687 36.0919 25.2171 36.0304C25.3384 36.1305 25.4606 36.2313 25.5824 36.3322ZM54.6058 21.797C54.4846 23.0562 54.3697 24.2781 54.265 25.1398C54.2047 25.6356 54.1298 26.1843 54.0208 26.5324C53.9971 26.608 53.9252 26.8374 53.7679 27.0529C53.6862 27.1646 53.5002 27.3865 53.1898 27.5001C52.8196 27.6356 52.4512 27.5529 52.1742 27.3585C51.9437 27.1968 51.8168 26.9891 51.7611 26.8869C51.698 26.7711 51.6584 26.6637 51.6351 26.5929C51.5886 26.4518 51.5601 26.3119 51.5413 26.2062C51.4979 25.9606 51.4483 25.6985 51.3968 25.4249C51.3983 25.4437 51.3993 25.4628 51.4007 25.4816C51.4841 26.5578 51.5738 27.6793 51.638 28.7677C51.7637 30.8992 51.8106 33.0987 51.4749 34.7531C51.4144 35.0512 51.3363 35.3542 51.2357 35.6496C53.0323 35.2249 54.588 34.8976 55.9417 34.6535C55.6923 32.0027 55.4291 29.2545 55.1595 26.6857C54.9758 24.9358 54.7882 23.2775 54.6058 21.797ZM49.1234 27.3019C48.5289 27.9812 47.8829 28.6367 47.1908 29.2189C47.386 30.6568 47.5631 32.2353 47.6908 33.8283L48.6898 35.1603C48.7249 35.1425 48.7464 35.124 48.7621 35.1066C48.8564 35.0015 49.0094 34.7279 49.1312 34.1281C49.3758 32.9227 49.3635 31.1042 49.2367 28.9533C49.2046 28.4104 49.1646 27.8583 49.1234 27.3019Z"/>
</mask>
<path fill-rule="evenodd" clip-rule="evenodd" d="M22.4076 6.01186L22.6263 6.05678L22.8451 6.13881C23.0515 6.23424 23.2201 6.36606 23.347 6.48256C23.5249 6.64594 23.6913 6.84398 23.847 7.05483C24.1579 7.47597 24.5064 8.05942 24.9037 8.81557C25.7022 10.3356 26.781 12.7145 28.2445 16.2853C29.0192 18.1755 29.8956 20.3858 30.8089 22.713C31.7053 23.9822 32.6142 25.1218 33.5208 26.1476C33.8162 25.818 34.0998 25.5428 34.3646 25.3439C34.5557 25.2004 34.7958 25.0507 35.0697 24.966C35.3509 24.8791 35.7391 24.8417 36.14 25.0412C36.2285 25.0852 36.3085 25.1376 36.3822 25.1935C36.7515 23.544 37.2028 21.9357 37.6458 20.5197L37.7093 20.3449C37.7289 20.2978 37.7913 20.1475 37.9095 19.9953C37.955 19.9367 38.4892 19.2612 39.2757 19.63C39.597 19.7808 39.7696 20.0431 39.8451 20.1818C39.9241 20.3271 39.9634 20.4586 39.9818 20.5294C40.0008 20.6032 40.0115 20.677 40.0199 20.7423C40.1928 20.7967 40.3472 20.8674 40.473 20.9376C40.7037 21.0666 40.9248 21.2283 41.1224 21.3898C41.2075 21.4593 41.2937 21.5339 41.3802 21.6105C41.9049 17.6975 42.4017 14.0867 42.7787 11.63C43.0159 10.084 43.2113 8.9484 43.3753 8.20815C43.4535 7.85555 43.5419 7.51026 43.6488 7.24233C43.6911 7.13637 43.7996 6.87226 44.0111 6.64955C44.1273 6.52726 44.3517 6.33679 44.682 6.27944C45.0507 6.21563 45.375 6.34799 45.6019 6.53627C45.9491 6.82464 46.0675 7.23537 46.0931 7.31947C46.1425 7.48175 46.1737 7.64819 46.1947 7.78432C46.2376 8.06376 46.267 8.41179 46.2904 8.79213C46.3377 9.56337 46.3679 10.6333 46.391 11.9279C46.4144 13.2462 46.3985 15.0199 46.389 16.8751C46.3795 18.7453 46.3756 20.7173 46.4212 22.4767C46.45 23.5875 46.4983 24.5775 46.5706 25.3869C46.6156 25.6175 46.6632 25.8624 46.7093 26.1193C47.4974 25.3205 48.2185 24.4232 48.849 23.5402C48.8276 23.2076 48.8044 22.8798 48.7884 22.5597C48.7385 21.5571 48.718 20.5899 48.764 19.7394C48.8084 18.9187 48.9216 18.0646 49.2122 17.3712L49.2894 17.2052C49.3872 17.019 49.5493 16.7828 49.8099 16.6124C50.2405 16.3313 50.7024 16.3772 51.0453 16.5626C51.3269 16.7151 51.51 16.946 51.6068 17.0831C51.716 17.2379 51.8056 17.404 51.8773 17.5538C52.0256 17.8637 52.1687 18.2589 52.3079 18.6945C52.3723 18.6862 52.4377 18.685 52.5023 18.6886C52.6153 17.6875 52.7368 16.7467 52.8724 16.0255C52.927 15.7355 52.9883 15.4545 53.0579 15.2072C53.12 14.9867 53.2184 14.6832 53.3792 14.4191C53.4598 14.2868 53.6122 14.0704 53.8607 13.9103C54.151 13.7236 54.5299 13.6454 54.9144 13.7912C55.2471 13.9176 55.4545 14.1637 55.5619 14.3165C55.6756 14.4785 55.7547 14.6468 55.8089 14.7814C55.9909 15.2338 56.1421 15.8787 56.2757 16.5685C56.4153 17.2896 56.5553 18.1725 56.6956 19.1681C56.9768 21.1622 57.2661 23.6681 57.5482 26.3556C57.8161 28.9079 58.0792 31.6431 58.3275 34.2794C58.3822 34.2723 58.4367 34.2657 58.4906 34.2589C58.6914 33.8555 59.0637 33.5776 59.4984 33.5626C59.8888 33.5495 60.2401 33.7522 60.4681 34.0753C61.349 34.0273 62.079 34.0396 62.6966 34.0997C63.7135 34.1988 64.6649 34.4357 65.305 35.0314C65.6654 35.367 65.938 35.8289 66.0287 36.4015C66.0696 36.6606 66.0668 36.9105 66.0384 37.1447C69.4901 36.8401 71.9858 36.6772 73.7386 36.633C74.7415 36.6077 75.5247 36.6202 76.1146 36.6681C76.5723 36.7053 77.0618 36.7703 77.4544 36.9494L77.6165 37.0343L77.7777 37.1398C77.9728 37.2842 78.2468 37.5524 78.3763 38.004C78.5974 38.7774 78.2287 39.3625 78.0218 39.5978C77.8189 39.8283 77.5792 39.9738 77.4144 40.0617C77.2294 40.1602 77.0218 40.2465 76.8099 40.3234C75.9793 40.6247 74.6939 40.9137 73.18 41.1759C70.1198 41.706 65.866 42.1701 61.7923 42.3722C61.6611 42.3787 61.5295 42.3831 61.3988 42.3888C61.243 42.4991 61.0793 42.6081 60.9124 42.7238C60.9424 44.5189 60.9591 46.1495 60.9437 47.504C60.9257 49.0874 60.8703 50.3182 60.7816 51.1896C60.7378 51.6189 60.6823 52.0095 60.6048 52.3273C60.5667 52.4834 60.5105 52.6722 60.4261 52.8556C60.3592 53.0008 60.1802 53.3553 59.8079 53.5675C59.6039 53.6837 59.3188 53.7664 58.9954 53.6945C58.6853 53.6253 58.4649 53.4427 58.3314 53.2921C58.0999 53.0311 57.9906 52.7153 57.9408 52.5617C57.8221 52.196 57.7197 51.6651 57.6136 50.966C57.4449 49.8539 57.2346 48.0831 56.9544 45.3185C56.9305 45.3338 56.907 45.3501 56.8831 45.3654C56.6061 47.5104 55.395 49.3941 53.9261 50.9962C52.4246 52.6337 50.5066 54.1364 48.5853 55.4865C48.0802 55.8414 47.5668 56.156 47.0501 56.4376C47.0714 56.5186 47.0895 56.6078 47.099 56.7033C47.1201 56.917 47.1128 57.2878 46.9037 57.6544C46.8866 57.6843 46.8671 57.7122 46.849 57.7394C47.5788 62.1119 47.5302 66.1216 47.4378 68.7687C47.3748 70.5711 46.8679 72.1749 46.2083 73.3917C45.5857 74.5401 44.6943 75.5754 43.7191 75.8956C42.4049 76.3267 41.4368 75.3356 40.9017 74.4669C40.34 73.5548 39.9149 72.2961 39.6019 70.9787C38.9034 68.0382 38.9221 63.7668 39.3822 58.5773C37.8129 58.7016 36.36 58.6789 35.1292 58.6427C34.1352 58.6134 33.181 58.3642 32.2679 57.7931C32.0536 57.659 31.8456 57.5083 31.6419 57.3429C31.2891 58.5753 30.9732 59.6419 30.6966 60.5236C30.4367 61.3522 30.2083 62.0347 30.0179 62.546C29.9232 62.8003 29.8317 63.0293 29.7454 63.2199C29.6752 63.375 29.5565 63.6239 29.3929 63.8263C29.3328 63.9006 29.2121 64.0367 29.0287 64.1437C28.8307 64.2589 28.4963 64.3718 28.1097 64.2365C27.737 64.1059 27.525 63.817 27.4251 63.6359C27.3271 63.4579 27.2835 63.2915 27.263 63.1994C27.1943 62.8894 27.2128 62.5552 27.224 62.3781C27.2532 61.9151 27.3468 61.2258 27.5013 60.3283C27.7569 58.844 28.2024 56.6629 28.8968 53.7081C28.6813 53.2966 28.4802 52.8731 28.2913 52.4425C25.5604 53.7091 22.7338 55.0142 20.1898 56.089C17.9777 57.0236 15.9198 57.8075 14.3021 58.2413C13.9477 58.709 13.6144 59.1486 13.304 59.5548C12.5122 60.5913 11.8762 61.4163 11.4105 61.9982C11.1789 62.2876 10.9801 62.5288 10.8216 62.7101C10.7432 62.7998 10.6641 62.8865 10.5902 62.9611C10.5393 63.0124 10.4112 63.141 10.2513 63.2384C10.218 63.2587 9.92399 63.4507 9.5267 63.4005C9.2668 63.3675 8.95817 63.2277 8.72592 62.9083C8.51618 62.6195 8.4644 62.3131 8.45053 62.1417C8.42589 61.836 8.4957 61.5956 8.51107 61.5421C8.5385 61.4468 8.57076 61.3652 8.59311 61.3117C8.67527 61.1151 8.80671 60.8716 8.94467 60.629C9.24039 60.1091 9.72879 59.3082 10.4076 58.2228C10.429 58.1885 10.4506 58.1535 10.472 58.1193C10.2877 57.9656 10.1152 57.7629 9.98275 57.4943C9.70304 56.9264 9.72779 56.3266 9.82943 55.8654L10.0814 54.7765C12.7968 43.5316 18.9254 32.8597 19.724 30.9406C20.0104 30.2536 20.7289 29.9623 21.3285 30.2902C21.9278 30.6183 22.1816 31.4416 21.8958 32.129C21.8883 32.1472 21.8776 32.1648 21.8695 32.1837C22.2052 32.2156 22.5654 32.2946 22.8861 32.3771C24.3357 32.7499 25.9147 33.3346 27.5921 34.1144C27.9813 33.7247 28.356 33.378 28.7122 33.088C28.9317 32.7447 29.151 32.4082 29.3636 32.0773C28.9142 31.4097 28.5089 30.7948 28.1644 30.2521C28.128 30.1948 28.0865 30.1267 28.0492 30.0578C28.0397 30.041 27.9211 29.8347 27.8695 29.5675C27.8528 29.4811 27.8244 29.2968 27.8529 29.0675C27.8844 28.8153 27.9985 28.44 28.3177 28.1613C28.6201 27.8976 28.9373 27.871 29.1068 27.88C29.2759 27.8891 29.4057 27.9366 29.4691 27.963C29.674 28.0486 29.8252 28.1888 29.8372 28.1994C30.0005 28.3422 30.2455 28.611 30.4954 28.8927C30.5463 28.9501 30.5986 29.0127 30.6546 29.0773C30.0122 27.4271 29.366 25.7666 28.7367 24.1613C28.3569 23.6148 27.9773 23.0485 27.6029 22.4581C25.3985 18.9823 23.4169 15.2468 22.1742 12.4103C21.5616 11.0122 21.0906 9.74967 20.8841 8.81752C20.7944 8.4124 20.688 7.7988 20.8265 7.23158C20.9093 6.89322 21.1127 6.4498 21.5501 6.18764C21.8598 6.00229 22.1661 5.98053 22.4076 6.01186ZM44.3255 57.6163C43.4869 57.895 42.6508 58.1001 41.8304 58.254C41.829 58.2695 41.8279 58.2855 41.8265 58.3009C41.3191 63.7226 41.329 67.7456 41.9242 70.2521C42.2078 71.4458 42.5425 72.3472 42.8675 72.8751C42.987 73.0692 43.0724 73.1651 43.1234 73.2111C43.3105 73.1012 43.7303 72.7335 44.1634 71.9347C44.6236 71.0856 44.9887 69.9413 45.0335 68.6583C45.1307 65.873 45.1524 61.8799 44.3763 57.6544C44.3593 57.6424 44.3426 57.6286 44.3255 57.6163ZM20.4173 35.1505C18.2924 39.366 14.6159 46.7893 12.5804 54.7882C16.0717 49.3261 19.3314 44.5259 22.097 40.7882C22.7346 39.9265 23.3505 39.1206 23.9359 38.3722C23.5324 38.0387 23.1325 37.7068 22.7357 37.383C21.8417 36.6533 21.1973 36.063 20.7699 35.5861C20.6448 35.4465 20.5251 35.3003 20.4173 35.1505ZM26.3187 45.6408C25.4251 45.9157 24.7978 46.1356 24.4173 46.2648C24.2803 46.3113 24.0532 46.3901 23.8949 46.4171C23.8634 46.4225 23.806 46.4304 23.7367 46.4328C23.6935 46.4342 23.52 46.44 23.3148 46.3624C23.2505 46.3381 23.1575 46.2939 23.055 46.2208C20.9962 49.1784 18.9789 51.964 17.1927 54.379C17.8752 54.1126 18.6006 53.819 19.3578 53.4992C21.8491 52.4466 24.6267 51.166 27.347 49.9044C26.9353 48.59 26.6189 47.2417 26.3812 45.9142C26.3646 45.8214 26.3483 45.7277 26.3324 45.6349C26.3278 45.6363 26.3232 45.6393 26.3187 45.6408ZM55.7738 42.3927C55.8984 42.4823 56.0146 42.5826 56.1224 42.6915C56.2633 42.6012 56.4055 42.5101 56.5472 42.4191C56.2878 42.4112 56.0293 42.4016 55.7728 42.3908L55.7738 42.3927ZM56.2005 37.3996C54.7951 37.656 53.1389 38.0087 51.18 38.4806L51.3275 38.6769C52.9948 38.483 54.6538 38.2956 56.2669 38.1203C56.2448 37.8819 56.223 37.6416 56.2005 37.3996ZM60.7845 36.8185C60.7915 37.0944 60.7982 37.37 60.805 37.6437C61.6558 37.5577 62.4803 37.4754 63.2699 37.3996C63.3847 37.2588 63.4651 37.1429 63.5218 37.048C63.5089 37.0435 63.4949 37.038 63.4808 37.0333C63.2559 36.9599 62.9346 36.8918 62.4925 36.8488C62.031 36.8039 61.4725 36.7883 60.7845 36.8185ZM25.5824 36.3322C25.6135 36.2952 25.6452 36.2583 25.6761 36.2218C25.522 36.1563 25.3687 36.0919 25.2171 36.0304C25.3384 36.1305 25.4606 36.2313 25.5824 36.3322ZM54.6058 21.797C54.4846 23.0562 54.3697 24.2781 54.265 25.1398C54.2047 25.6356 54.1298 26.1843 54.0208 26.5324C53.9971 26.608 53.9252 26.8374 53.7679 27.0529C53.6862 27.1646 53.5002 27.3865 53.1898 27.5001C52.8196 27.6356 52.4512 27.5529 52.1742 27.3585C51.9437 27.1968 51.8168 26.9891 51.7611 26.8869C51.698 26.7711 51.6584 26.6637 51.6351 26.5929C51.5886 26.4518 51.5601 26.3119 51.5413 26.2062C51.4979 25.9606 51.4483 25.6985 51.3968 25.4249C51.3983 25.4437 51.3993 25.4628 51.4007 25.4816C51.4841 26.5578 51.5738 27.6793 51.638 28.7677C51.7637 30.8992 51.8106 33.0987 51.4749 34.7531C51.4144 35.0512 51.3363 35.3542 51.2357 35.6496C53.0323 35.2249 54.588 34.8976 55.9417 34.6535C55.6923 32.0027 55.4291 29.2545 55.1595 26.6857C54.9758 24.9358 54.7882 23.2775 54.6058 21.797ZM49.1234 27.3019C48.5289 27.9812 47.8829 28.6367 47.1908 29.2189C47.386 30.6568 47.5631 32.2353 47.6908 33.8283L48.6898 35.1603C48.7249 35.1425 48.7464 35.124 48.7621 35.1066C48.8564 35.0015 49.0094 34.7279 49.1312 34.1281C49.3758 32.9227 49.3635 31.1042 49.2367 28.9533C49.2046 28.4104 49.1646 27.8583 49.1234 27.3019Z" fill="#FBE300"/>
<path fill-rule="evenodd" clip-rule="evenodd" d="M22.4076 6.01186L22.6263 6.05678L22.8451 6.13881C23.0515 6.23424 23.2201 6.36606 23.347 6.48256C23.5249 6.64594 23.6913 6.84398 23.847 7.05483C24.1579 7.47597 24.5064 8.05942 24.9037 8.81557C25.7022 10.3356 26.781 12.7145 28.2445 16.2853C29.0192 18.1755 29.8956 20.3858 30.8089 22.713C31.7053 23.9822 32.6142 25.1218 33.5208 26.1476C33.8162 25.818 34.0998 25.5428 34.3646 25.3439C34.5557 25.2004 34.7958 25.0507 35.0697 24.966C35.3509 24.8791 35.7391 24.8417 36.14 25.0412C36.2285 25.0852 36.3085 25.1376 36.3822 25.1935C36.7515 23.544 37.2028 21.9357 37.6458 20.5197L37.7093 20.3449C37.7289 20.2978 37.7913 20.1475 37.9095 19.9953C37.955 19.9367 38.4892 19.2612 39.2757 19.63C39.597 19.7808 39.7696 20.0431 39.8451 20.1818C39.9241 20.3271 39.9634 20.4586 39.9818 20.5294C40.0008 20.6032 40.0115 20.677 40.0199 20.7423C40.1928 20.7967 40.3472 20.8674 40.473 20.9376C40.7037 21.0666 40.9248 21.2283 41.1224 21.3898C41.2075 21.4593 41.2937 21.5339 41.3802 21.6105C41.9049 17.6975 42.4017 14.0867 42.7787 11.63C43.0159 10.084 43.2113 8.9484 43.3753 8.20815C43.4535 7.85555 43.5419 7.51026 43.6488 7.24233C43.6911 7.13637 43.7996 6.87226 44.0111 6.64955C44.1273 6.52726 44.3517 6.33679 44.682 6.27944C45.0507 6.21563 45.375 6.34799 45.6019 6.53627C45.9491 6.82464 46.0675 7.23537 46.0931 7.31947C46.1425 7.48175 46.1737 7.64819 46.1947 7.78432C46.2376 8.06376 46.267 8.41179 46.2904 8.79213C46.3377 9.56337 46.3679 10.6333 46.391 11.9279C46.4144 13.2462 46.3985 15.0199 46.389 16.8751C46.3795 18.7453 46.3756 20.7173 46.4212 22.4767C46.45 23.5875 46.4983 24.5775 46.5706 25.3869C46.6156 25.6175 46.6632 25.8624 46.7093 26.1193C47.4974 25.3205 48.2185 24.4232 48.849 23.5402C48.8276 23.2076 48.8044 22.8798 48.7884 22.5597C48.7385 21.5571 48.718 20.5899 48.764 19.7394C48.8084 18.9187 48.9216 18.0646 49.2122 17.3712L49.2894 17.2052C49.3872 17.019 49.5493 16.7828 49.8099 16.6124C50.2405 16.3313 50.7024 16.3772 51.0453 16.5626C51.3269 16.7151 51.51 16.946 51.6068 17.0831C51.716 17.2379 51.8056 17.404 51.8773 17.5538C52.0256 17.8637 52.1687 18.2589 52.3079 18.6945C52.3723 18.6862 52.4377 18.685 52.5023 18.6886C52.6153 17.6875 52.7368 16.7467 52.8724 16.0255C52.927 15.7355 52.9883 15.4545 53.0579 15.2072C53.12 14.9867 53.2184 14.6832 53.3792 14.4191C53.4598 14.2868 53.6122 14.0704 53.8607 13.9103C54.151 13.7236 54.5299 13.6454 54.9144 13.7912C55.2471 13.9176 55.4545 14.1637 55.5619 14.3165C55.6756 14.4785 55.7547 14.6468 55.8089 14.7814C55.9909 15.2338 56.1421 15.8787 56.2757 16.5685C56.4153 17.2896 56.5553 18.1725 56.6956 19.1681C56.9768 21.1622 57.2661 23.6681 57.5482 26.3556C57.8161 28.9079 58.0792 31.6431 58.3275 34.2794C58.3822 34.2723 58.4367 34.2657 58.4906 34.2589C58.6914 33.8555 59.0637 33.5776 59.4984 33.5626C59.8888 33.5495 60.2401 33.7522 60.4681 34.0753C61.349 34.0273 62.079 34.0396 62.6966 34.0997C63.7135 34.1988 64.6649 34.4357 65.305 35.0314C65.6654 35.367 65.938 35.8289 66.0287 36.4015C66.0696 36.6606 66.0668 36.9105 66.0384 37.1447C69.4901 36.8401 71.9858 36.6772 73.7386 36.633C74.7415 36.6077 75.5247 36.6202 76.1146 36.6681C76.5723 36.7053 77.0618 36.7703 77.4544 36.9494L77.6165 37.0343L77.7777 37.1398C77.9728 37.2842 78.2468 37.5524 78.3763 38.004C78.5974 38.7774 78.2287 39.3625 78.0218 39.5978C77.8189 39.8283 77.5792 39.9738 77.4144 40.0617C77.2294 40.1602 77.0218 40.2465 76.8099 40.3234C75.9793 40.6247 74.6939 40.9137 73.18 41.1759C70.1198 41.706 65.866 42.1701 61.7923 42.3722C61.6611 42.3787 61.5295 42.3831 61.3988 42.3888C61.243 42.4991 61.0793 42.6081 60.9124 42.7238C60.9424 44.5189 60.9591 46.1495 60.9437 47.504C60.9257 49.0874 60.8703 50.3182 60.7816 51.1896C60.7378 51.6189 60.6823 52.0095 60.6048 52.3273C60.5667 52.4834 60.5105 52.6722 60.4261 52.8556C60.3592 53.0008 60.1802 53.3553 59.8079 53.5675C59.6039 53.6837 59.3188 53.7664 58.9954 53.6945C58.6853 53.6253 58.4649 53.4427 58.3314 53.2921C58.0999 53.0311 57.9906 52.7153 57.9408 52.5617C57.8221 52.196 57.7197 51.6651 57.6136 50.966C57.4449 49.8539 57.2346 48.0831 56.9544 45.3185C56.9305 45.3338 56.907 45.3501 56.8831 45.3654C56.6061 47.5104 55.395 49.3941 53.9261 50.9962C52.4246 52.6337 50.5066 54.1364 48.5853 55.4865C48.0802 55.8414 47.5668 56.156 47.0501 56.4376C47.0714 56.5186 47.0895 56.6078 47.099 56.7033C47.1201 56.917 47.1128 57.2878 46.9037 57.6544C46.8866 57.6843 46.8671 57.7122 46.849 57.7394C47.5788 62.1119 47.5302 66.1216 47.4378 68.7687C47.3748 70.5711 46.8679 72.1749 46.2083 73.3917C45.5857 74.5401 44.6943 75.5754 43.7191 75.8956C42.4049 76.3267 41.4368 75.3356 40.9017 74.4669C40.34 73.5548 39.9149 72.2961 39.6019 70.9787C38.9034 68.0382 38.9221 63.7668 39.3822 58.5773C37.8129 58.7016 36.36 58.6789 35.1292 58.6427C34.1352 58.6134 33.181 58.3642 32.2679 57.7931C32.0536 57.659 31.8456 57.5083 31.6419 57.3429C31.2891 58.5753 30.9732 59.6419 30.6966 60.5236C30.4367 61.3522 30.2083 62.0347 30.0179 62.546C29.9232 62.8003 29.8317 63.0293 29.7454 63.2199C29.6752 63.375 29.5565 63.6239 29.3929 63.8263C29.3328 63.9006 29.2121 64.0367 29.0287 64.1437C28.8307 64.2589 28.4963 64.3718 28.1097 64.2365C27.737 64.1059 27.525 63.817 27.4251 63.6359C27.3271 63.4579 27.2835 63.2915 27.263 63.1994C27.1943 62.8894 27.2128 62.5552 27.224 62.3781C27.2532 61.9151 27.3468 61.2258 27.5013 60.3283C27.7569 58.844 28.2024 56.6629 28.8968 53.7081C28.6813 53.2966 28.4802 52.8731 28.2913 52.4425C25.5604 53.7091 22.7338 55.0142 20.1898 56.089C17.9777 57.0236 15.9198 57.8075 14.3021 58.2413C13.9477 58.709 13.6144 59.1486 13.304 59.5548C12.5122 60.5913 11.8762 61.4163 11.4105 61.9982C11.1789 62.2876 10.9801 62.5288 10.8216 62.7101C10.7432 62.7998 10.6641 62.8865 10.5902 62.9611C10.5393 63.0124 10.4112 63.141 10.2513 63.2384C10.218 63.2587 9.92399 63.4507 9.5267 63.4005C9.2668 63.3675 8.95817 63.2277 8.72592 62.9083C8.51618 62.6195 8.4644 62.3131 8.45053 62.1417C8.42589 61.836 8.4957 61.5956 8.51107 61.5421C8.5385 61.4468 8.57076 61.3652 8.59311 61.3117C8.67527 61.1151 8.80671 60.8716 8.94467 60.629C9.24039 60.1091 9.72879 59.3082 10.4076 58.2228C10.429 58.1885 10.4506 58.1535 10.472 58.1193C10.2877 57.9656 10.1152 57.7629 9.98275 57.4943C9.70304 56.9264 9.72779 56.3266 9.82943 55.8654L10.0814 54.7765C12.7968 43.5316 18.9254 32.8597 19.724 30.9406C20.0104 30.2536 20.7289 29.9623 21.3285 30.2902C21.9278 30.6183 22.1816 31.4416 21.8958 32.129C21.8883 32.1472 21.8776 32.1648 21.8695 32.1837C22.2052 32.2156 22.5654 32.2946 22.8861 32.3771C24.3357 32.7499 25.9147 33.3346 27.5921 34.1144C27.9813 33.7247 28.356 33.378 28.7122 33.088C28.9317 32.7447 29.151 32.4082 29.3636 32.0773C28.9142 31.4097 28.5089 30.7948 28.1644 30.2521C28.128 30.1948 28.0865 30.1267 28.0492 30.0578C28.0397 30.041 27.9211 29.8347 27.8695 29.5675C27.8528 29.4811 27.8244 29.2968 27.8529 29.0675C27.8844 28.8153 27.9985 28.44 28.3177 28.1613C28.6201 27.8976 28.9373 27.871 29.1068 27.88C29.2759 27.8891 29.4057 27.9366 29.4691 27.963C29.674 28.0486 29.8252 28.1888 29.8372 28.1994C30.0005 28.3422 30.2455 28.611 30.4954 28.8927C30.5463 28.9501 30.5986 29.0127 30.6546 29.0773C30.0122 27.4271 29.366 25.7666 28.7367 24.1613C28.3569 23.6148 27.9773 23.0485 27.6029 22.4581C25.3985 18.9823 23.4169 15.2468 22.1742 12.4103C21.5616 11.0122 21.0906 9.74967 20.8841 8.81752C20.7944 8.4124 20.688 7.7988 20.8265 7.23158C20.9093 6.89322 21.1127 6.4498 21.5501 6.18764C21.8598 6.00229 22.1661 5.98053 22.4076 6.01186ZM44.3255 57.6163C43.4869 57.895 42.6508 58.1001 41.8304 58.254C41.829 58.2695 41.8279 58.2855 41.8265 58.3009C41.3191 63.7226 41.329 67.7456 41.9242 70.2521C42.2078 71.4458 42.5425 72.3472 42.8675 72.8751C42.987 73.0692 43.0724 73.1651 43.1234 73.2111C43.3105 73.1012 43.7303 72.7335 44.1634 71.9347C44.6236 71.0856 44.9887 69.9413 45.0335 68.6583C45.1307 65.873 45.1524 61.8799 44.3763 57.6544C44.3593 57.6424 44.3426 57.6286 44.3255 57.6163ZM20.4173 35.1505C18.2924 39.366 14.6159 46.7893 12.5804 54.7882C16.0717 49.3261 19.3314 44.5259 22.097 40.7882C22.7346 39.9265 23.3505 39.1206 23.9359 38.3722C23.5324 38.0387 23.1325 37.7068 22.7357 37.383C21.8417 36.6533 21.1973 36.063 20.7699 35.5861C20.6448 35.4465 20.5251 35.3003 20.4173 35.1505ZM26.3187 45.6408C25.4251 45.9157 24.7978 46.1356 24.4173 46.2648C24.2803 46.3113 24.0532 46.3901 23.8949 46.4171C23.8634 46.4225 23.806 46.4304 23.7367 46.4328C23.6935 46.4342 23.52 46.44 23.3148 46.3624C23.2505 46.3381 23.1575 46.2939 23.055 46.2208C20.9962 49.1784 18.9789 51.964 17.1927 54.379C17.8752 54.1126 18.6006 53.819 19.3578 53.4992C21.8491 52.4466 24.6267 51.166 27.347 49.9044C26.9353 48.59 26.6189 47.2417 26.3812 45.9142C26.3646 45.8214 26.3483 45.7277 26.3324 45.6349C26.3278 45.6363 26.3232 45.6393 26.3187 45.6408ZM55.7738 42.3927C55.8984 42.4823 56.0146 42.5826 56.1224 42.6915C56.2633 42.6012 56.4055 42.5101 56.5472 42.4191C56.2878 42.4112 56.0293 42.4016 55.7728 42.3908L55.7738 42.3927ZM56.2005 37.3996C54.7951 37.656 53.1389 38.0087 51.18 38.4806L51.3275 38.6769C52.9948 38.483 54.6538 38.2956 56.2669 38.1203C56.2448 37.8819 56.223 37.6416 56.2005 37.3996ZM60.7845 36.8185C60.7915 37.0944 60.7982 37.37 60.805 37.6437C61.6558 37.5577 62.4803 37.4754 63.2699 37.3996C63.3847 37.2588 63.4651 37.1429 63.5218 37.048C63.5089 37.0435 63.4949 37.038 63.4808 37.0333C63.2559 36.9599 62.9346 36.8918 62.4925 36.8488C62.031 36.8039 61.4725 36.7883 60.7845 36.8185ZM25.5824 36.3322C25.6135 36.2952 25.6452 36.2583 25.6761 36.2218C25.522 36.1563 25.3687 36.0919 25.2171 36.0304C25.3384 36.1305 25.4606 36.2313 25.5824 36.3322ZM54.6058 21.797C54.4846 23.0562 54.3697 24.2781 54.265 25.1398C54.2047 25.6356 54.1298 26.1843 54.0208 26.5324C53.9971 26.608 53.9252 26.8374 53.7679 27.0529C53.6862 27.1646 53.5002 27.3865 53.1898 27.5001C52.8196 27.6356 52.4512 27.5529 52.1742 27.3585C51.9437 27.1968 51.8168 26.9891 51.7611 26.8869C51.698 26.7711 51.6584 26.6637 51.6351 26.5929C51.5886 26.4518 51.5601 26.3119 51.5413 26.2062C51.4979 25.9606 51.4483 25.6985 51.3968 25.4249C51.3983 25.4437 51.3993 25.4628 51.4007 25.4816C51.4841 26.5578 51.5738 27.6793 51.638 28.7677C51.7637 30.8992 51.8106 33.0987 51.4749 34.7531C51.4144 35.0512 51.3363 35.3542 51.2357 35.6496C53.0323 35.2249 54.588 34.8976 55.9417 34.6535C55.6923 32.0027 55.4291 29.2545 55.1595 26.6857C54.9758 24.9358 54.7882 23.2775 54.6058 21.797ZM49.1234 27.3019C48.5289 27.9812 47.8829 28.6367 47.1908 29.2189C47.386 30.6568 47.5631 32.2353 47.6908 33.8283L48.6898 35.1603C48.7249 35.1425 48.7464 35.124 48.7621 35.1066C48.8564 35.0015 49.0094 34.7279 49.1312 34.1281C49.3758 32.9227 49.3635 31.1042 49.2367 28.9533C49.2046 28.4104 49.1646 27.8583 49.1234 27.3019Z" stroke="black" stroke-width="12" mask="url(#path-1-outside-1_515_2884)"/>
</svg>
