<svg width="70" height="70" viewBox="0 0 70 70" fill="none" xmlns="http://www.w3.org/2000/svg">
<path fill-rule="evenodd" clip-rule="evenodd" d="M22.4794 0.229781C23.6857 -0.240191 24.9916 0.0883779 26.0667 0.52154C27.2033 0.979523 28.4854 1.72431 29.8569 2.60159C30.5943 3.07326 31.3816 3.60142 32.2124 4.1649C33.3208 3.6056 34.4027 3.15746 35.4317 2.85997C37.0532 2.39127 38.7549 2.23393 40.272 2.81932C41.8667 3.43502 42.9423 4.74448 43.5123 6.55268C43.7049 7.16442 43.6272 7.80778 43.4778 8.40339C43.3219 9.02403 43.0364 9.78529 42.6155 10.7317C42.5831 10.8044 42.5476 10.8781 42.5133 10.9537C50.2837 15.8358 56.6913 19.7076 61.3334 22.598C63.8802 24.1837 65.9107 25.4847 67.3079 26.4794C68.0007 26.9727 68.5845 27.4228 69.0069 27.8177C69.2158 28.013 69.4279 28.2345 69.5973 28.4723C69.7371 28.6688 70.0065 29.0895 69.9999 29.6423C69.9956 29.9908 69.8704 30.5046 69.384 30.8906C69.0079 31.1888 68.5901 31.26 68.3895 31.2854C67.9644 31.3391 67.4039 31.3025 66.7415 31.2332C65.5459 31.108 63.5208 30.8107 60.1121 30.2664C59.7837 30.2595 59.4367 30.2507 59.0726 30.2374C57.5768 30.1829 56.0979 30.1369 54.6454 30.0966C55.3618 31.9003 55.4584 33.9617 55.2253 35.9623C57.5541 36.9829 59.5186 37.9115 61.06 38.7739C62.4105 39.5295 63.5428 40.2891 64.3214 41.0775C65.0856 41.8515 65.752 42.9105 65.5127 44.1722C65.3022 45.2807 64.6441 46.3021 63.2022 47.4918C61.809 48.6414 59.5529 50.054 55.9088 51.9568C56.0232 52.3614 55.9615 52.8106 55.6985 53.1848C55.2209 53.8633 54.2633 54.0391 53.5608 53.5781C53.4391 53.4981 53.3174 53.417 53.1958 53.3372C51.4805 54.1915 49.5883 55.1044 47.6194 56.0298C47.7116 56.1279 47.7956 56.2189 47.8688 56.3027C48.0147 56.4697 48.1884 56.6806 48.312 56.9065C48.3691 57.0111 48.4843 57.2405 48.5163 57.5423C48.5541 57.9025 48.4695 58.4489 47.986 58.8603C47.5943 59.1934 47.1628 59.2368 47.0095 59.2464C46.8228 59.258 46.6649 59.2394 46.5844 59.2275C46.2626 59.18 45.9092 59.058 45.5764 58.9401C45.2073 58.8093 44.67 58.6096 43.9284 58.3392C43.7039 58.2573 43.4552 58.1711 43.1848 58.0735C37.7071 60.5602 32.2144 62.9044 28.6912 64.2092C27.1018 64.7978 25.7676 65.2355 24.7553 65.3791C24.2564 65.4498 23.6479 65.4793 23.0698 65.2891C22.6426 65.1485 22.2802 64.9031 22.0137 64.5735C21.8984 65.5565 21.7999 66.3911 21.7238 67.0527C21.6297 67.8702 21.566 68.4835 21.5435 68.6712C21.5403 68.698 21.5359 68.7318 21.5315 68.7627C21.5295 68.7764 21.5246 68.8065 21.5179 68.841C21.5149 68.857 21.508 68.8964 21.4954 68.9441C21.4891 68.9677 21.4765 69.0136 21.4564 69.0689C21.4452 69.0996 21.3916 69.2488 21.2761 69.4129C21.2027 69.5087 20.972 69.7321 20.8059 69.8455C20.5132 69.9797 19.8094 70.0512 19.4328 69.9573C19.1655 69.8234 18.8046 69.5086 18.6967 69.3621C18.6408 69.2676 18.565 69.104 18.5405 69.037C18.4994 68.915 18.4837 68.8145 18.4789 68.7815C18.4725 68.7369 18.4699 68.6995 18.4684 68.6785C18.4635 68.6103 18.4638 68.5522 18.4639 68.542C18.4644 68.5048 18.4672 68.4665 18.4684 68.4419C18.4736 68.3359 18.4859 68.1287 18.5044 67.838C18.5804 66.6485 18.7675 63.7436 19.0092 58.5946C19.0504 57.718 19.0901 56.7754 19.1339 55.7801C19.0634 55.7663 18.9907 55.756 18.9191 55.738C18.1565 55.5461 17.4699 55.1311 16.867 54.629C15.4956 55.5267 14.2314 56.3851 13.0828 57.1954C10.9192 58.7217 9.17907 60.065 7.90611 61.1653C6.58237 62.3096 5.90371 63.0739 5.69181 63.4457C5.68781 63.4527 5.67855 63.4682 5.67228 63.4791C5.66826 63.4861 5.64733 63.5223 5.6227 63.5603C5.61728 63.5689 5.56013 63.6582 5.47398 63.7534C5.44639 63.7839 5.39447 63.84 5.32075 63.9015C5.26544 63.9475 5.09732 64.084 4.83853 64.1743C4.54767 64.2758 3.95076 64.3681 3.39337 63.9653C2.93582 63.6341 2.83046 63.1866 2.80449 63.0567C2.74871 62.7766 2.79578 62.5455 2.79848 62.5312C2.80959 62.4665 2.82254 62.4153 2.82853 62.3933C2.84117 62.347 2.85437 62.3097 2.85857 62.2975C2.87373 62.2535 2.925 62.1222 2.9442 62.0711C3.01594 61.8799 3.15494 61.4943 3.36633 60.83C3.79068 59.4964 4.5042 57.0401 5.53707 52.7725C6.00628 50.8338 6.53303 48.5476 7.09791 46.065C6.61364 45.8994 6.15405 45.7451 5.72636 45.5961C4.01166 44.9987 2.68432 44.512 1.82052 44.101C1.41384 43.9075 0.954437 43.6596 0.615721 43.3404C0.442977 43.1774 0.189061 42.8919 0.0674021 42.4768C-0.0750867 41.9896 0.0150132 41.4954 0.274712 41.0964C0.496289 40.7562 0.794971 40.5521 0.992785 40.4388C1.20519 40.3172 1.43066 40.2282 1.63424 40.1587C2.04091 40.0198 2.54017 39.903 3.08541 39.7972C4.18324 39.5843 5.72143 39.3657 7.61918 39.0947C7.96693 39.045 8.32887 38.9927 8.7023 38.9394C8.88451 38.126 9.0712 37.3071 9.25513 36.4863C10.1373 32.5494 11.0335 28.5736 11.8645 25.0119C11.6727 24.8649 11.4908 24.6914 11.3357 24.4864C10.9172 23.9326 10.7764 23.2575 10.9527 22.5791L11.0293 22.3556C11.1175 22.1466 11.2296 21.9889 11.2606 21.9433C11.3475 21.8157 11.4537 21.6761 11.5671 21.534C11.7967 21.2461 12.1097 20.8811 12.4865 20.4613C12.6782 20.2476 12.8886 20.0152 13.1174 19.7689C13.121 19.7546 13.1258 19.7397 13.1294 19.7254C15.4041 10.5568 16.6912 7.53211 17.7443 5.62224C18.2146 4.76938 18.7372 3.93704 19.3442 3.45074C19.5605 3.27753 19.8886 3.07114 20.3041 2.97609C20.3053 2.97181 20.3074 2.96729 20.3086 2.96303C20.5986 1.9022 21.1893 0.732555 22.4794 0.229781ZM26.9305 57.3768C26.0401 59.2257 25.3869 60.618 24.9896 61.6516C24.8855 61.9226 24.8042 62.155 24.7433 62.3527C25.3827 62.2062 26.3029 61.9105 27.59 61.4338C30.4445 60.3767 34.6539 58.6043 39.0927 56.6322C38.1243 56.2997 37.0219 55.9254 35.7667 55.5058C33.7899 54.8449 31.4485 54.0744 28.936 53.253C28.1984 54.7607 27.52 56.1529 26.9305 57.3768ZM25.0843 51.9974C24.7324 52.6549 24.4069 53.2549 24.1078 53.7799C23.6803 54.5304 23.2873 55.1726 22.9571 55.6335C22.8331 56.9886 22.7061 58.2715 22.5815 59.4656C22.9979 58.512 23.5276 57.396 24.1409 56.1227C24.695 54.9722 25.3223 53.6824 26.0006 52.295C25.6967 52.1959 25.3906 52.0972 25.0843 51.9974ZM10.0228 47.0535C9.48537 49.4115 8.98294 51.588 8.53255 53.4489C8.13649 55.0853 7.77963 56.4634 7.47196 57.6221C8.56279 56.758 9.83208 55.8076 11.2681 54.7945C12.3651 54.0207 13.5613 53.2042 14.851 52.3559C14.6555 52.0775 14.4615 51.7896 14.2756 51.4923C13.594 50.4019 12.9548 49.1554 12.3798 47.8387C11.5638 47.5688 10.7756 47.3051 10.0228 47.0535ZM30.261 50.5488C32.6415 51.3274 34.866 52.0585 36.7717 52.6956C38.6208 53.3137 40.1418 53.836 41.3956 54.272C40.5265 53.4713 39.4991 52.5272 38.2845 51.4211C36.6036 49.8904 34.5826 48.0648 32.4137 46.1724C31.6752 47.6728 30.9515 49.1431 30.261 50.5488ZM39.1137 43.384C37.7965 43.6546 36.4449 44.0124 35.0727 44.4871C37.0461 46.2198 38.8693 47.8702 40.3936 49.2583C42.5662 51.2368 44.1649 52.7093 45.327 53.7988C47.0518 52.9945 48.731 52.195 50.2964 51.4298C47.3094 49.4587 44.5644 47.6229 42.6335 46.2246C41.3174 45.2715 40.3692 44.5158 39.7522 43.9791C39.4974 43.7575 39.2815 43.5559 39.1137 43.384ZM57.348 40.2225C57.267 40.6017 57.071 40.914 56.8447 41.1457C56.3595 41.6422 55.654 41.8712 55.1096 42.005C54.6661 42.114 54.1391 42.1994 53.5338 42.2707C53.0957 43.3514 52.6032 44.3913 52.0811 45.3523C51.4892 46.4411 50.6663 47.1257 49.688 47.4207C50.8636 48.2044 52.1155 49.031 53.4031 49.8782C53.7154 49.7185 54.0216 49.5657 54.3165 49.4122C57.9915 47.4991 60.0499 46.1828 61.2042 45.2303C62.2861 44.3377 62.4335 43.876 62.4781 43.6583C62.4641 43.604 62.3972 43.436 62.0951 43.13C61.62 42.649 60.7888 42.0567 59.5187 41.346C58.8797 40.9885 58.1547 40.6148 57.348 40.2225ZM26.8885 48.5311C26.753 48.797 26.6194 49.0592 26.4874 49.3164C26.7677 49.4078 27.0474 49.5 27.3256 49.5908C27.6173 48.9967 27.9156 48.391 28.218 47.7763C27.769 48.0282 27.3266 48.2814 26.8885 48.5311ZM19.7168 40.3749C19.5113 41.133 19.3051 41.8968 19.0963 42.6626C18.715 44.0613 18.399 45.3392 18.1785 46.4148C18.6013 45.8465 19.078 45.175 19.5936 44.416C19.6433 43.0852 19.6911 41.7324 19.7393 40.372C19.7319 40.3731 19.7241 40.3739 19.7168 40.3749ZM13.3863 41.2778C13.5588 41.9866 13.7607 42.7134 13.9932 43.442C14.2112 44.1252 14.4534 44.8037 14.7113 45.4655C14.8743 45.5192 15.0392 45.5724 15.204 45.6266C15.4392 44.5128 15.7553 43.244 16.1204 41.9049C16.2165 41.5524 16.3117 41.1989 16.4073 40.8467C15.3567 40.9964 14.3476 41.1408 13.3863 41.2778ZM50.1057 42.4695C48.274 42.5108 46.1579 42.5305 43.8533 42.7221C44.9067 43.3412 46.0784 43.9446 47.307 44.3507C47.9728 44.5707 48.3819 44.6466 48.665 44.6076C48.7718 44.5928 48.856 44.5608 48.9414 44.4988C49.0345 44.431 49.1862 44.2856 49.3575 43.9704C49.6193 43.4886 49.866 42.9839 50.1057 42.4695ZM10.6853 44.1301C10.7993 44.1683 10.9151 44.2061 11.0308 44.2447C10.957 44.0119 10.8849 43.7777 10.816 43.5437C10.7718 43.7396 10.7291 43.9356 10.6853 44.1301ZM29.2831 43.7657C29.3496 43.7301 29.4162 43.6948 29.4828 43.6598C29.4485 43.6309 29.4136 43.6015 29.3792 43.5727C29.3472 43.637 29.315 43.7016 29.2831 43.7657ZM5.61519 42.3911C5.96739 42.5175 6.35141 42.655 6.76891 42.8005C7.08273 42.9098 7.41453 43.0204 7.75889 43.1387C7.84046 42.7766 7.92275 42.4113 8.00526 42.0442C7.10227 42.1732 6.30701 42.2866 5.61519 42.3911ZM44.2739 36.8114C44.139 36.8735 43.9923 36.9184 43.8368 36.9406C41.3546 37.294 38.8717 37.6475 36.4247 37.9959C35.8646 39.1412 35.2952 40.3051 34.7227 41.4709C41.4301 39.3226 47.6684 39.5793 51.3014 39.4532C51.3459 39.3165 51.3903 39.1795 51.4321 39.0424C51.2067 38.9609 50.9707 38.8748 50.7246 38.7899C49.1697 38.2533 47.2982 37.6818 45.2714 37.0945C44.9423 36.9991 44.6084 36.9069 44.2739 36.8114ZM31.8248 38.6505C31.4706 39.3639 31.1121 40.0808 30.7568 40.7973C30.9678 40.9726 31.1808 41.1468 31.3907 41.3228C31.851 40.3867 32.3088 39.4478 32.7653 38.517C32.451 38.5617 32.1372 38.606 31.8248 38.6505ZM14.5746 33.9345C13.9172 33.8159 13.6007 33.9 13.4719 33.9664C13.3768 34.0156 13.1812 34.1693 13.0077 34.669C12.8335 35.1714 12.7323 35.8909 12.7433 36.8187C12.7491 37.2964 12.7835 37.81 12.8455 38.3486C14.2227 38.1523 15.6988 37.942 17.2561 37.7201C17.4793 36.8981 17.7028 36.0798 17.9261 35.2684C17.6205 35.1042 17.3227 34.9512 17.0337 34.8127C16.0446 34.3383 15.2213 34.0513 14.5746 33.9345ZM24.0162 29.7221C24.0317 31.6535 24.0266 33.6069 24.0012 35.5587C24.2785 35.7543 24.5586 35.9527 24.8379 36.1553C25.6634 34.7985 26.5031 33.3881 27.3482 31.9647C26.8426 31.7889 26.383 31.6217 25.9901 31.4567C25.5199 31.2592 25.0263 31.0233 24.6606 30.7454C24.5021 30.6248 24.1949 30.3537 24.0567 29.8977C24.039 29.8389 24.0266 29.7797 24.0162 29.7221ZM28.4163 36.1307C28.8618 36.0672 29.3102 36.0032 29.7608 35.939C30.2331 34.9905 30.7013 34.0567 31.1563 33.1521C30.8764 33.0706 30.6009 32.9922 30.3331 32.9126C29.6923 33.9948 29.053 35.0739 28.4163 36.1307ZM33.4368 35.415C33.7398 35.3719 34.0441 35.3292 34.3486 35.2859C34.5255 34.9232 34.7021 34.5631 34.8759 34.2059C34.6324 34.1386 34.3902 34.0708 34.1503 34.0041C33.9167 34.4675 33.676 34.9374 33.4368 35.415ZM40.3351 29.9181C40.3114 29.9678 40.2868 30.0176 40.263 30.0676C43.4454 31.2056 46.5943 32.3565 49.2794 33.4569C50.3124 33.8802 51.3024 34.2928 52.2479 34.6893C52.3452 32.7269 51.9778 31.1238 51.1287 30.011C47.2392 29.9307 43.5891 29.9012 40.3351 29.9181ZM13.6597 30.9138C14.158 30.883 14.659 30.9258 15.1394 31.0125C16.1718 31.1989 17.2788 31.6111 18.4008 32.1491C18.5169 32.2048 18.633 32.2672 18.7508 32.3262C19.21 30.7111 19.6755 29.1357 20.1494 27.6203C20.1572 27.3445 20.1644 27.0697 20.1719 26.7973C18.6735 26.6617 17.3164 26.5207 16.1685 26.3516C15.6824 26.28 15.2099 26.1991 14.7624 26.1078C14.4044 27.6468 14.0348 29.2608 13.6597 30.9138ZM31.894 30.2621C31.9599 30.2814 32.027 30.3007 32.0937 30.3201C32.0294 30.2969 31.9641 30.2751 31.9 30.2519C31.898 30.2552 31.8959 30.2588 31.894 30.2621ZM24.0117 29.217C24.0556 28.9421 24.1697 28.6983 24.3136 28.5086C24.5265 28.2282 24.7866 28.0723 24.9295 27.9962C25.0919 27.9098 25.2555 27.8492 25.3922 27.8046C25.4045 27.8006 25.4173 27.797 25.4298 27.793C24.9199 27.5855 24.4351 27.384 23.9831 27.1892C23.9949 27.8614 24.0049 28.538 24.0117 29.217ZM45.2294 19.692C44.6832 20.9067 43.9055 22.4924 42.9445 24.4719C48.7188 25.3858 54.5406 26.3537 58.7 27.0281C59.129 27.0976 59.5408 27.161 59.9333 27.224C59.6047 27.0294 59.2442 26.8187 58.8517 26.5926C53.9062 23.7432 49.3852 21.2195 45.4607 19.1607C45.3864 19.3328 45.3107 19.5112 45.2294 19.692ZM40.601 22.2975C40.2778 22.8071 39.941 23.357 39.5869 23.9464C39.6533 23.9567 39.7203 23.9667 39.7867 23.9769C40.0755 23.3803 40.3463 22.821 40.601 22.2975ZM20.3868 16.802C19.446 17.679 18.5656 18.5288 17.7714 19.3189C17.0861 20.0006 16.4677 20.6352 15.9311 21.2001C15.7738 21.8425 15.6126 22.5124 15.4474 23.2047C15.7918 23.2738 16.1857 23.3464 16.6327 23.4123C17.5193 23.5429 18.532 23.6547 19.6522 23.7621C19.6551 23.5595 19.6947 23.3412 19.7949 23.1191C19.9204 22.8411 20.1026 22.6377 20.2831 22.4906C20.3192 20.9449 20.3499 19.492 20.3717 18.165C20.3795 17.6939 20.381 17.2393 20.3868 16.802ZM39.7852 16.3215C39.2168 17.3754 38.5748 18.5523 37.8443 19.8633C37.2373 20.9527 36.5724 22.1357 35.8659 23.3803C36.0223 23.4035 36.18 23.4265 36.3376 23.45C37.9571 20.6809 39.3175 18.6428 40.4192 17.2012C40.5306 17.0554 40.6437 16.9172 40.7512 16.7817C40.5307 16.6755 40.314 16.5683 40.0992 16.4667C39.9945 16.4171 39.8884 16.3699 39.7852 16.3215ZM31.616 13.5273C31.5102 13.5349 31.4617 13.5495 31.4538 13.552C30.3484 13.9869 29.2138 14.9985 28.0647 16.712C27.1164 18.1262 26.2233 19.922 25.3622 22.0333C27.2052 22.1927 29.7298 22.5071 32.6165 22.9115C33.5209 21.3255 34.3741 19.8223 35.1358 18.4553C35.8344 17.2015 36.4475 16.0779 36.9896 15.0747C35.8653 14.6057 34.8733 14.2359 34.0211 13.9744C33.237 13.7337 32.6148 13.598 32.1448 13.5462C31.9127 13.5207 31.7388 13.5186 31.616 13.5273ZM32.0322 7.67907C30.4014 8.64181 28.6638 9.85704 26.908 11.2165C25.7474 12.115 24.5983 13.0635 23.4889 14.0194C23.4872 14.4739 23.4829 14.951 23.4784 15.4506C23.5306 16.2096 23.5866 16.9936 23.6346 17.8006C23.6448 17.9717 23.6519 18.145 23.6617 18.3174C24.2343 17.1372 24.839 16.0544 25.4824 15.095C26.7892 13.1462 28.3538 11.5614 30.2926 10.7984C30.9939 10.5225 31.7784 10.5139 32.4918 10.5923C33.2322 10.6738 34.0629 10.868 34.9525 11.141C35.9691 11.453 37.1218 11.8874 38.3927 12.4227C38.461 12.2899 38.5294 12.1606 38.594 12.0337C38.5122 11.982 38.4296 11.9302 38.3476 11.8784C36.2989 10.5821 34.4121 9.30498 32.7097 8.14211C32.4806 7.98561 32.254 7.83078 32.0322 7.67907ZM19.9421 8.04486C19.3286 9.35593 18.5373 11.439 17.4228 15.4419C18.2971 14.6108 19.2356 13.7452 20.217 12.8727C20.0933 11.1188 19.9844 9.4857 19.9421 8.04486ZM41.1868 13.671C41.1971 13.6758 41.2081 13.6807 41.2184 13.6855C41.2086 13.6794 41.1982 13.6728 41.1883 13.6667L41.1868 13.671ZM23.6301 2.9877C23.6301 2.9877 23.6263 2.98901 23.6226 2.99206C23.6134 2.99959 23.5896 3.0219 23.555 3.07044C23.4796 3.17652 23.3773 3.37726 23.2831 3.72218C23.1764 4.11295 23.1023 4.60703 23.0562 5.20855C23.1989 5.80796 23.2905 6.55716 23.3567 7.5223C23.4044 8.21722 23.4384 9.06627 23.4619 10.1075C23.9653 9.69786 24.4727 9.29253 24.9836 8.89691C26.3958 7.80353 27.8552 6.75415 29.3071 5.83126C28.9103 5.56743 28.5271 5.31552 28.1579 5.07937C26.8167 4.22152 25.7362 3.61032 24.883 3.2664C23.9701 2.89862 23.6548 2.97829 23.6301 2.9877ZM39.1318 5.58015C38.5317 5.34853 37.6191 5.3305 36.3136 5.70788C35.9252 5.82016 35.5211 5.96327 35.1027 6.13173C36.5898 7.14434 38.1877 8.21955 39.8979 9.30479C40.2212 8.5576 40.4015 8.04807 40.4883 7.70229C40.5361 7.51167 40.5457 7.4051 40.5484 7.36118C40.1792 6.23136 39.6448 5.77856 39.1318 5.58015Z" fill="#FBE300"/>
</svg>
