<svg width="70" height="70" viewBox="0 0 70 70" fill="none" xmlns="http://www.w3.org/2000/svg">
<path fill-rule="evenodd" clip-rule="evenodd" d="M43.1119 0.200571C43.3777 0.0499516 43.7336 -0.0474074 44.1305 0.0237669C44.414 0.0747391 44.637 0.19682 44.798 0.319012L44.9372 0.437453L45.1049 0.61254C45.4757 1.03126 45.7082 1.5336 45.8657 1.96689C46.0538 2.48482 46.1961 3.07724 46.3133 3.69202C46.4932 4.6356 46.6385 5.78835 46.791 7.06673C47.92 5.07671 48.9524 3.61604 49.8231 2.90412C50.2491 2.5559 51.1729 1.97587 52.202 2.50245C53.1308 2.97819 53.3728 3.99354 53.4484 4.43871C53.6284 5.50009 53.4514 6.89479 53.1558 8.13099C52.8362 9.46689 52.055 11.0945 50.9936 12.8961C51.5638 13.2782 52.1303 13.6654 52.6907 14.0599C53.6437 14.3292 54.4891 14.5799 55.1883 14.7895C56.1342 15.073 56.7231 15.2421 57.042 15.2975C58.3563 15.526 59.2357 16.3971 59.7436 17.4947C60.2047 18.4916 60.3695 19.6827 60.4364 20.787C60.5584 22.8031 60.2788 24.9752 59.5933 27.3803C59.5432 28.0656 59.4441 28.7733 59.3039 29.5002C61.037 31.3198 62.0201 32.8518 62.5211 33.8345C62.8955 34.5693 63.1377 35.3847 63.1601 36.1844C63.1635 36.307 63.1595 36.4362 63.1506 36.5689C64.1 37.9409 64.8852 39.3285 65.433 40.7092C66.2079 42.6628 66.5632 44.735 66.1179 46.772C65.792 48.262 65.0653 49.6012 63.962 50.7767C65.2143 52.8105 66.4896 54.8741 67.7739 56.9546C68.4948 58.1222 69.1629 59.1828 69.536 59.9208C69.6343 60.1154 69.7313 60.327 69.8096 60.5387C69.8784 60.7247 69.9808 61.0382 69.9978 61.4056C70.0154 61.7886 69.9398 62.5518 69.2876 63.0758C68.732 63.5217 68.1354 63.4693 67.9084 63.4362C67.4183 63.3645 66.9074 63.1043 66.5054 62.8801C66.0422 62.6217 65.471 62.2615 64.7908 61.8072C63.5155 60.9554 61.7627 59.7075 59.4367 58.0257C59.0567 60.0951 58.5184 61.7811 57.6304 62.7925C57.1239 63.3692 56.4507 63.7857 55.6391 63.8259C54.8683 63.8639 54.2012 63.5509 53.6872 63.1822C52.7018 62.475 51.8201 61.2317 51.0521 59.9173C50.2537 58.5508 49.4558 56.8878 48.689 55.1247C48.6008 54.922 48.5085 54.718 48.4185 54.5119C47.8171 54.5023 47.2064 54.487 46.5885 54.4656C43.8228 58.2363 40.8303 60.7975 37.8606 62.499C37.8379 62.5257 37.8168 62.5549 37.7942 62.5814C35.8795 64.823 34.2488 66.5583 33.019 67.7533C32.4067 68.3484 31.876 68.8257 31.45 69.1695C31.2391 69.3396 31.031 69.4967 30.8363 69.6209C30.7059 69.7041 30.3664 69.9194 29.9568 69.9814C29.6592 70.0264 29.2521 70.0033 28.8481 69.7582C28.4486 69.5157 28.2217 69.1584 28.1015 68.8742C27.8968 68.3898 27.9078 67.8988 27.918 67.6658C27.9425 67.1079 28.0818 66.3631 28.2818 65.4806C28.557 64.2668 29.0071 62.5446 29.6547 60.1851C29.6119 59.935 29.5753 59.6776 29.5424 59.4161C26.6035 64.7618 25.7131 66.7138 25.3525 67.5113C25.2961 67.636 25.232 67.7812 25.188 67.8718C25.176 67.8965 25.1547 67.9389 25.1295 67.9851C25.1171 68.0077 25.0935 68.0487 25.063 68.0966C25.0483 68.1199 24.9637 68.2567 24.8258 68.3953C24.7727 68.4487 24.5678 68.6531 24.239 68.773C24.0538 68.8404 23.7651 68.9047 23.4228 68.8347C23.0576 68.76 22.7546 68.5565 22.537 68.3026C22.172 67.8765 22.1232 67.3996 22.1131 67.3036C22.096 67.1398 22.1039 67.0091 22.1084 66.9517C22.1232 66.7652 22.1656 66.6087 22.1685 66.5981C22.2168 66.4127 22.3741 65.956 22.5924 65.3107C23.0726 63.8911 24.042 61.0173 25.74 55.7839C26.0532 54.8186 26.3851 53.7706 26.7428 52.6598C24.1836 52.3436 21.77 52.034 19.6219 51.7672C13.0643 50.9527 8.81757 50.7528 6.07144 50.6222C4.72256 50.5581 3.6423 50.5078 2.84317 50.3974C2.12225 50.2978 1.18025 50.1076 0.506984 49.3846C0.0794689 48.9252 -0.0228989 48.3506 0.00399999 47.9238C0.0274854 47.5532 0.143804 47.2648 0.215949 47.1102C0.36389 46.7936 0.574614 46.5148 0.741077 46.312C1.09918 45.8759 1.63268 45.3404 2.28324 44.7311C3.60311 43.4949 5.61923 41.7626 8.26369 39.5626C10.2772 37.8874 12.6744 35.9286 15.4304 33.6886L15.0666 32.7805L15.9334 32.0424C15.9413 32.0279 15.953 32.0114 15.9635 31.9909C16.0414 31.8375 16.1434 31.6044 16.2766 31.2665C16.583 30.4896 16.825 29.7873 17.2921 28.5836C17.4686 28.1287 17.6611 27.6451 17.8726 27.1417C17.0935 26.5503 16.3435 25.9839 15.6313 25.4406C9.85162 21.0312 6.44017 18.3293 4.90572 16.6759C4.51653 16.2566 4.15217 15.8052 3.90924 15.3319C3.67972 14.8843 3.37724 14.0464 3.75423 13.1364C4.10762 12.2845 4.82574 11.9564 5.19833 11.825C5.62139 11.6759 6.09613 11.608 6.52855 11.5692C7.77334 11.4576 9.03511 11.4105 10.3057 11.4147C8.51589 9.71865 7.37735 8.30011 6.7753 7.23667C6.55479 6.84711 6.393 6.29425 6.51906 5.66775C6.63778 5.0788 6.96087 4.6838 7.21343 4.45244C7.67521 4.02962 8.279 3.81083 8.74769 3.67657C9.77156 3.38337 11.2517 3.20413 13.0088 3.11011C16.5689 2.91963 21.677 3.05962 27.5542 3.58387C32.0981 3.98924 36.5291 5.29235 40.7852 7.17659C41.218 5.60307 41.5242 4.43479 41.739 3.57701C41.9676 2.66405 42.0955 2.09769 42.174 1.75747C42.2083 1.60859 42.248 1.4412 42.2831 1.31804C42.2906 1.29186 42.3434 1.09304 42.4523 0.888904C42.4843 0.829054 42.6793 0.446153 43.1119 0.200571ZM33.8826 57.1503C33.5573 58.3082 33.2624 59.3568 33 60.3053C33.0618 60.5422 33.1221 60.7243 33.1756 60.8597C34.0542 60.5442 34.9518 60.1495 35.8598 59.6616C37.2112 58.0599 38.7095 56.2038 40.306 54.0965C38.5132 53.9543 36.6972 53.7801 34.8918 53.5936C34.5267 54.8663 34.1889 56.0601 33.8826 57.1503ZM54.3911 54.3523C53.6264 54.4145 52.8284 54.4605 52.0027 54.4879C52.612 55.8391 53.2105 57.0496 53.7869 58.036C54.4701 59.2053 55.0238 59.8888 55.4034 60.1937C55.6307 59.8144 55.9756 58.9504 56.2844 57.2258C56.3582 56.8131 56.4242 56.3628 56.49 55.8834C55.82 55.3948 55.1183 54.8847 54.3911 54.3523ZM61.3079 52.7971C60.9097 52.9926 60.4822 53.1676 60.0299 53.3224C60.0056 53.6105 59.9807 53.8943 59.954 54.1721C60.223 54.3674 60.4843 54.5601 60.7401 54.7454C61.9499 55.6217 63.0046 56.3776 63.9161 57.0249C63.0413 55.6104 62.1709 54.1985 61.3079 52.7971ZM39.61 43.4385C39.04 44.4633 38.4023 45.4173 37.6835 46.2657C37.3816 46.6219 37.0615 46.9574 36.7297 47.2767C36.4404 48.2614 36.1575 49.2257 35.8851 50.1622C38.1978 50.3954 40.5167 50.6026 42.7718 50.751C43.5198 49.7083 44.2828 48.6166 45.059 47.4793C43.2826 46.1651 41.456 44.81 39.61 43.4385ZM54.573 41.5332C53.5227 43.5078 52.3366 45.5549 51.0474 47.6509C52.513 48.7311 53.9214 49.7649 55.25 50.739C55.8706 50.6685 56.4453 50.5833 56.974 50.4866C57.0507 49.0195 57.0947 47.4611 57.1006 45.8674C56.2306 44.4047 55.3844 42.9587 54.573 41.5332ZM17.667 36.2634C14.7952 38.5963 12.3097 40.6255 10.2345 42.352C7.85479 44.3317 6.03778 45.8942 4.79183 47.0347C5.20056 47.0577 5.67051 47.0844 6.21379 47.1102C8.98984 47.2422 13.3227 47.4459 19.9905 48.274C21.5133 48.4632 23.1571 48.673 24.8827 48.8903C24.8588 48.8446 24.836 48.7988 24.8163 48.7529C24.6564 48.3809 24.6355 48.029 24.6344 47.8294C24.6323 47.4205 24.7192 47.0033 24.8036 46.6725C24.9838 45.9664 25.3163 45.0431 25.7479 43.9827C25.7895 43.8805 25.8337 43.7761 25.8776 43.6703C25.3661 44.041 24.8597 44.3234 24.3528 44.4993C23.1424 44.9191 21.9891 44.7299 21.0502 43.9895C20.2038 43.3218 19.6838 42.326 19.3515 41.4233C19.0092 40.4931 18.795 39.4676 18.6603 38.5258C18.5739 37.9222 18.4994 37.3272 18.4309 36.744C18.1591 36.5847 17.9045 36.4235 17.667 36.2634ZM60.1295 39.1249C60.2593 40.9978 60.3256 42.928 60.3383 44.8324C60.9187 45.8017 61.513 46.7776 62.113 47.7625C62.5707 47.1537 62.8379 46.5507 62.9671 45.9601C63.2022 44.884 63.0556 43.6069 62.4578 42.0996C62.0836 41.1563 61.5534 40.1761 60.8951 39.1729L60.8919 39.1746C60.6363 39.1895 60.3773 39.1615 60.1295 39.1249ZM30.0011 42.4635C29.4877 43.5793 29.0515 44.5644 28.7104 45.4022C28.5081 45.8993 28.344 46.3295 28.2154 46.6914C28.3614 46.7115 28.5055 46.7247 28.6472 46.7377C29.0877 45.3568 29.5376 43.9246 30.0011 42.4635ZM45.8783 40.553C46.9476 40.7636 48.0403 40.978 49.154 41.2019C49.1662 41.1823 49.1798 41.1631 49.192 41.1435C49.5443 40.5777 49.8827 40.0226 50.209 39.4819C48.3902 38.7543 46.3804 37.8742 44.3061 36.9071C44.8212 38.1119 45.3467 39.332 45.8783 40.553ZM21.9297 38.4108C22.0377 39.0415 22.1797 39.6291 22.3599 40.1187C22.5901 40.7442 22.8176 41.0388 22.9546 41.1469C22.9993 41.1824 23.0686 41.254 23.3674 41.1504C23.7488 41.0178 24.3947 40.6119 25.3303 39.5986C24.0764 39.2118 22.9417 38.8139 21.9297 38.4108ZM41.5191 39.0716C41.4529 39.2656 41.3831 39.4583 41.3135 39.6501C41.5291 39.6924 41.7457 39.7362 41.9636 39.7789C41.8431 39.4992 41.7225 39.2198 41.603 38.9412C41.5747 38.9842 41.5474 39.0286 41.5191 39.0716ZM21.3587 33.268C21.3844 33.6462 21.4148 34.0305 21.4488 34.4198C22.7699 35.0409 24.4898 35.7055 26.6147 36.3423C27.0366 36.4688 27.4731 36.5913 27.9228 36.7148C28.2803 36.3135 28.6335 35.9112 28.9857 35.5133C27.1337 34.1262 25.3244 32.7681 23.592 31.4639C22.8285 32.0811 22.0831 32.6818 21.3587 33.268ZM45.3706 33.5753C47.6799 34.6559 49.8509 35.6028 51.7306 36.3423C51.5935 36.0798 51.4582 35.8173 51.3242 35.5562C51.0779 35.4355 50.8256 35.3164 50.5713 35.1905C49.1574 34.4908 47.6101 33.7048 45.9384 32.8423C45.7507 33.0816 45.5605 33.3257 45.3706 33.5753ZM26.3316 29.2496C27.8712 30.4076 29.4665 31.6024 31.0925 32.82C31.4461 32.1423 31.8149 31.4502 32.1918 30.743C30.5792 29.8562 29.0516 28.9867 27.6697 28.1682C27.218 28.5329 26.7719 28.894 26.3316 29.2496ZM54.3642 31.8519C54.3703 31.8388 54.377 31.8254 54.3832 31.8124C54.0127 31.4685 53.6391 31.1251 53.2602 30.7876C53.6299 31.1405 53.9979 31.4958 54.3642 31.8519ZM43.7778 27.818C44.2409 28.0611 44.6968 28.2985 45.1444 28.5321C45.235 28.428 45.3276 28.3266 45.418 28.2248C44.8979 27.7709 44.3779 27.3235 43.8601 26.8825C43.8353 27.1917 43.8075 27.504 43.7778 27.818ZM30.5357 25.8526C31.5758 26.453 32.6832 27.0737 33.8336 27.7047C34.009 27.3845 34.1827 27.0592 34.3619 26.7349C33.397 26.2191 32.411 25.6902 31.4041 25.1505C31.1126 25.3859 30.8231 25.6205 30.5357 25.8526ZM22.6161 24.9222C22.4094 25.2824 22.2155 25.6455 22.0293 26.0053C22.519 26.3756 23.0184 26.7521 23.5256 27.1348C23.8769 26.8511 24.2314 26.5628 24.5901 26.2731C23.8424 25.7897 23.1793 25.3329 22.6161 24.9222ZM48.2145 17.1651C48.4685 18.5242 48.7648 19.9387 49.1224 21.393C49.1823 21.6367 49.2464 21.883 49.3138 22.1311C50.1183 22.5684 50.8778 23.007 51.5946 23.4443C52.5952 23.1327 53.6266 23.0991 54.6347 23.5318C55.2502 23.7962 55.7772 24.2055 56.2322 24.6939C56.0435 23.5277 55.8012 22.4741 55.348 21.4857C54.8379 20.3733 54.0292 19.264 52.6022 18.2122C52.1914 17.9095 51.777 17.6118 51.3621 17.3162C51.2613 17.2884 51.1598 17.2583 51.0568 17.2304C50.2892 17.0223 49.4652 16.8142 48.5973 16.6159C48.4722 16.7972 48.344 16.9803 48.2145 17.1651ZM24.5332 22.083C25.2863 22.6262 26.2608 23.2744 27.415 23.9901C27.6559 23.7956 27.8988 23.5999 28.1426 23.4031C27.7934 23.2155 27.4412 23.0265 27.0876 22.8366C26.3341 22.4319 25.6059 22.0307 24.9017 21.635C24.7764 21.7826 24.6534 21.9322 24.5332 22.083ZM29.1328 18.1024C28.566 18.4162 28.032 18.7667 27.5273 19.1443C27.8546 19.3238 28.1874 19.5052 28.5254 19.6867C29.3829 20.1473 30.2284 20.5987 31.0593 21.0445C31.2755 20.8699 31.4942 20.6956 31.7125 20.5193C32.43 19.9396 33.4449 20.1013 33.9791 20.8797C34.352 21.4234 34.3898 22.1233 34.1357 22.6941C34.6294 22.9585 35.1176 23.2204 35.6004 23.4786C35.2109 22.199 34.9184 21.0575 34.7589 20.1021C34.7453 20.0205 34.733 19.938 34.7209 19.8567C32.9464 19.2643 31.0729 18.6664 29.1328 18.1024ZM14.812 15.1637C12.5173 14.9387 10.2352 14.8623 8.01061 14.9851C9.62057 16.4724 12.6018 18.8309 17.4945 22.5637C17.7831 22.7838 18.0787 23.0065 18.3787 23.2348C18.616 21.3855 18.9445 19.7374 19.323 18.286C17.6249 17.1926 16.1284 16.1471 14.812 15.1637ZM23.2393 16.6759C23.4449 16.8004 23.6531 16.9261 23.8641 17.0519C23.97 16.9656 24.0752 16.878 24.182 16.7944C23.8804 16.7225 23.5789 16.647 23.2757 16.5781C23.2638 16.6104 23.2512 16.6432 23.2393 16.6759ZM27.2885 7.08733C21.4942 6.57048 16.5385 6.44014 13.1686 6.62043C12.1277 6.67613 11.2749 6.76469 10.6125 6.8659C11.4462 7.84466 12.7291 9.1328 14.6032 10.6732C15.0289 11.0231 15.4849 11.3834 15.9698 11.7563C17.796 11.9628 19.6193 12.2533 21.4188 12.6043C21.5368 12.3713 21.6529 12.153 21.7652 11.9503L21.9059 11.7203C22.6422 10.6388 23.8424 10.4991 24.6739 10.5633C25.6162 10.6362 26.7003 10.9933 27.8247 11.4885C28.7987 11.9176 29.8876 12.4921 31.0672 13.1845C33.8447 12.3055 36.6908 11.9742 39.4186 11.9692C39.5626 11.4756 39.7035 11.005 39.833 10.5547C35.7476 8.71749 31.5479 7.46728 27.2885 7.08733ZM42.7718 12.1237C42.8257 12.1285 42.8795 12.1341 42.9332 12.1391C42.9441 12.1215 42.9554 12.1035 42.9664 12.0859C42.9136 12.0581 42.8611 12.0295 42.8082 12.0018C42.7965 12.0422 42.7836 12.083 42.7718 12.1237Z" fill="#FBE300"/>
</svg>
