<svg width="86" height="82" viewBox="0 0 86 82" fill="none" xmlns="http://www.w3.org/2000/svg">
<mask id="path-1-outside-1_515_2882" maskUnits="userSpaceOnUse" x="-0.242188" y="-1" width="86" height="83" fill="black">
<rect fill="white" x="-0.242188" y="-1" width="86" height="83"/>
<path fill-rule="evenodd" clip-rule="evenodd" d="M52.8702 6.20052C53.1359 6.04994 53.4919 5.9526 53.8888 6.02377C54.172 6.07475 54.3949 6.19658 54.5558 6.31869L54.6954 6.43685L54.8624 6.61263C55.2331 7.03129 55.4667 7.5329 55.6241 7.96615C55.8123 8.48407 55.9542 9.07696 56.0714 9.69173C56.2512 10.6353 56.3965 11.7884 56.5489 13.0667C57.678 11.0767 58.7104 9.61557 59.5811 8.90365C60.0072 8.55542 60.931 7.97574 61.9601 8.50228C62.8887 8.97804 63.1305 9.99365 63.2061 10.4388C63.3861 11.5 63.2096 12.8943 62.9142 14.1302C62.5946 15.4661 61.8135 17.0943 60.752 18.8958C61.3221 19.2779 61.888 19.6655 62.4483 20.0599C63.4013 20.3292 64.2472 20.5798 64.9464 20.7894C65.8921 21.0729 66.481 21.2418 66.7999 21.2972C68.1142 21.5257 68.9941 22.3968 69.502 23.4945C69.963 24.4913 70.1275 25.6823 70.1944 26.7865C70.3164 28.8025 70.0371 30.9752 69.3517 33.3802C69.3015 34.0655 69.2019 34.7736 69.0616 35.5003C70.7946 37.3198 71.7785 38.8516 72.2794 39.8343C72.6538 40.569 72.8957 41.3843 72.9181 42.1839C72.9215 42.3065 72.9172 42.436 72.9083 42.5687C73.8577 43.9407 74.6428 45.3285 75.1905 46.7093C75.9654 48.6629 76.3214 50.7349 75.8761 52.7718C75.5502 54.2617 74.8231 55.6011 73.7198 56.7767C74.9721 58.8105 76.248 60.874 77.5323 62.9544C78.2531 64.1219 78.921 65.1823 79.294 65.9202C79.3924 66.1149 79.4892 66.3267 79.5675 66.5384C79.6362 66.7244 79.7389 67.0383 79.756 67.4056C79.7735 67.7888 79.6978 68.5518 79.046 69.0755C78.4904 69.5215 77.8931 69.469 77.6661 69.4359C77.1762 69.3641 76.6657 69.1034 76.2638 68.8792C75.8006 68.6209 75.229 68.2612 74.5489 67.807C73.2736 66.9551 71.5204 65.7076 69.1944 64.0257C68.8144 66.0949 68.2766 67.7809 67.3888 68.7923C66.8823 69.3689 66.2082 69.7853 65.3966 69.8255C64.6261 69.8634 63.9593 69.5506 63.4454 69.182C62.46 68.4748 61.5776 67.2317 60.8097 65.9173C60.0113 64.5509 59.2141 62.8874 58.4474 61.1244C58.3593 60.9218 58.2667 60.718 58.1768 60.512C57.5755 60.5024 56.9646 60.4865 56.3468 60.4652C53.581 64.2359 50.5879 66.7968 47.6183 68.4984C47.5956 68.525 47.5745 68.5549 47.5518 68.5814C45.6373 70.8227 44.0071 72.5583 42.7774 73.7533C42.1651 74.3483 41.6341 74.8255 41.2081 75.1693C40.9972 75.3394 40.7886 75.4962 40.5938 75.6204C40.4633 75.7037 40.1241 75.9188 39.7149 75.9808C39.4174 76.0258 39.0105 76.003 38.6065 75.7581C38.2072 75.5157 37.9797 75.1585 37.8595 74.8744C37.6548 74.39 37.6657 73.8983 37.6759 73.6654C37.7003 73.1075 37.8401 72.3622 38.0401 71.4798C38.3153 70.266 38.7656 68.544 39.4132 66.1849C39.3703 65.9348 39.3337 65.6769 39.3009 65.4154C36.362 70.7611 35.471 72.7136 35.1104 73.5111C35.0541 73.6357 34.9904 73.7809 34.9464 73.8714C34.9344 73.8961 34.913 73.9386 34.8878 73.9847C34.8755 74.0072 34.8517 74.0482 34.8214 74.096C34.8067 74.1193 34.7219 74.2563 34.5841 74.3949C34.531 74.4482 34.326 74.6529 33.9972 74.7728C33.812 74.8402 33.5231 74.9042 33.1808 74.8343C32.8156 74.7596 32.5126 74.5559 32.295 74.3021C31.93 73.876 31.8813 73.3991 31.8712 73.3031C31.8541 73.1395 31.8618 73.009 31.8663 72.9515C31.881 72.7657 31.9236 72.6097 31.9268 72.598C31.9752 72.4125 32.1324 71.9552 32.3507 71.3099C32.8309 69.8901 33.8004 67.0163 35.4981 61.7835C35.8113 60.8183 36.1433 59.7703 36.5011 58.6595C33.9418 58.3434 31.528 58.0337 29.38 57.7669C22.8223 56.9524 18.5753 56.752 15.8292 56.6214C14.4807 56.5573 13.4007 56.5072 12.6017 56.3968C11.8807 56.2972 10.938 56.1071 10.2647 55.3841C9.83738 54.9247 9.73491 54.3499 9.76181 53.9232C9.78534 53.5527 9.9016 53.2642 9.97372 53.1097C10.1216 52.7932 10.3327 52.5146 10.4991 52.3119C10.8572 51.8758 11.3906 51.3401 12.0411 50.7308C13.361 49.4947 15.3771 47.7619 18.0216 45.5619C20.0351 43.8867 22.4326 41.9278 25.1886 39.6878L24.8243 38.7806L25.6915 38.0423C25.6994 38.0279 25.7113 38.011 25.7218 37.9906C25.7997 37.8372 25.9011 37.6037 26.0343 37.266C26.3406 36.4891 26.5829 35.7869 27.0499 34.5833C27.2264 34.1285 27.4195 33.6444 27.6309 33.141C26.8519 32.5496 26.1019 31.9831 25.3897 31.4398C19.6101 27.0304 16.1986 24.3285 14.6642 22.6751C14.275 22.2558 13.91 21.8047 13.6671 21.3314C13.4376 20.8838 13.135 20.0459 13.5118 19.1361C13.8652 18.2842 14.5835 17.956 14.9561 17.8245C15.3791 17.6755 15.8539 17.6075 16.2862 17.5687C17.531 17.457 18.793 17.4102 20.0636 17.4144C18.274 15.7185 17.1354 14.3001 16.5333 13.2367C16.3128 12.8471 16.1514 12.2938 16.2774 11.6673C16.3962 11.0785 16.7192 10.6838 16.9718 10.4525C17.4335 10.0297 18.0373 9.81037 18.5059 9.67611C19.5298 9.38297 21.0098 9.20372 22.7667 9.1097C26.3268 8.91923 31.4354 9.05908 37.3126 9.58334C41.8563 9.98873 46.2871 11.292 50.5431 13.1761C50.9758 11.6026 51.2824 10.4343 51.4972 9.5765C51.7257 8.66374 51.8533 8.09736 51.9317 7.75716C51.9661 7.60829 52.006 7.44087 52.0411 7.31771C52.0486 7.29155 52.1013 7.09298 52.2101 6.889C52.242 6.82915 52.4376 6.44611 52.8702 6.20052ZM43.6407 63.1497C43.3154 64.3076 43.0202 65.3566 42.7579 66.305C42.8196 66.5419 42.8802 66.7244 42.9337 66.8597C43.8122 66.5442 44.7102 66.1494 45.6183 65.6615C46.9696 64.0599 48.4672 62.2032 50.0636 60.096C48.271 59.9538 46.4548 59.7797 44.6495 59.5931C44.2845 60.8657 43.947 62.0597 43.6407 63.1497ZM64.1495 60.3519C63.3848 60.4141 62.5865 60.4602 61.7608 60.4876C62.3701 61.8388 62.9687 63.0491 63.545 64.0355C64.2282 65.2048 64.7817 65.8888 65.1612 66.1937C65.3885 65.8144 65.7334 64.9501 66.0421 63.2259C66.1159 62.8133 66.1823 62.3625 66.2481 61.8831C65.5782 61.3946 64.8766 60.8842 64.1495 60.3519ZM71.0655 58.7972C70.6676 58.9926 70.2402 59.167 69.7882 59.3216C69.7639 59.6095 69.7388 59.8936 69.712 60.1712C69.981 60.3666 70.2424 60.5602 70.4981 60.7454C71.7079 61.6216 72.7625 62.3774 73.6739 63.0247C72.7991 61.6102 71.9285 60.1986 71.0655 58.7972ZM27.4249 42.263C24.5532 44.596 22.0675 46.6255 19.9923 48.3519C17.6127 50.3315 15.7958 51.894 14.5499 53.0345C14.9586 53.0576 15.4285 53.0839 15.9718 53.1097C18.7478 53.2417 23.0806 53.4456 29.7481 54.2738C31.271 54.4629 32.9151 54.6727 34.6407 54.89C34.6168 54.8443 34.594 54.7981 34.5743 54.7523C34.4147 54.3806 34.3938 54.029 34.3927 53.8294C34.3906 53.4205 34.4772 53.003 34.5616 52.6722C34.7418 51.9662 35.0744 51.043 35.5059 49.9827C35.5475 49.8807 35.5919 49.7761 35.6358 49.6702C35.1244 50.041 34.6173 50.3234 34.1104 50.4994C32.9004 50.9188 31.7473 50.7296 30.8087 49.9896C29.9623 49.3219 29.4418 48.3258 29.1095 47.4232C28.7672 46.4931 28.5528 45.4675 28.4181 44.5257C28.3317 43.9221 28.257 43.3267 28.1886 42.7435C27.9169 42.5843 27.6623 42.4231 27.4249 42.263ZM69.8878 45.1244C70.0176 46.9973 70.084 48.928 70.0968 50.8324C70.6771 51.8016 71.2713 52.7774 71.8712 53.762C72.3288 53.1533 72.5955 52.5498 72.7247 51.9593C72.9597 50.8832 72.8137 49.606 72.2159 48.099C71.8417 47.1557 71.3117 46.1753 70.6534 45.1722L70.6495 45.1742C70.3941 45.189 70.1353 45.1609 69.8878 45.1244ZM64.1222 37.8519C64.1283 37.8388 64.1346 37.8249 64.1407 37.8119C63.7705 37.4682 63.3973 37.1247 63.0186 36.7874C63.3882 37.1403 63.7559 37.4959 64.1222 37.8519ZM57.9727 23.1644C58.2268 24.5234 58.5223 25.9386 58.88 27.3929C58.9399 27.6365 59.0039 27.8831 59.0714 28.1312C59.8759 28.5685 60.6358 29.0065 61.3526 29.4437C62.3531 29.1322 63.3846 29.0989 64.3927 29.5316C65.0082 29.796 65.5354 30.2053 65.9903 30.6937C65.8016 29.5276 65.5587 28.4741 65.1056 27.4857C64.5955 26.3734 63.7873 25.2639 62.3604 24.2122C61.9497 23.9095 61.5351 23.6114 61.1202 23.3158C61.0194 23.288 60.9175 23.2577 60.8145 23.2298C60.0471 23.0218 59.2233 22.8139 58.3556 22.6156C58.2306 22.7968 58.1021 22.9796 57.9727 23.1644ZM24.5704 21.1634C22.2757 20.9384 19.9933 20.8618 17.7686 20.9847C19.3786 22.472 22.3602 24.831 27.253 28.5638C27.5414 28.7838 27.837 29.0065 28.1368 29.2347C28.3741 27.3854 28.7027 25.7368 29.0811 24.2855C27.3832 23.1922 25.8868 22.1468 24.5704 21.1634ZM37.047 13.0872C31.2528 12.5704 26.2968 12.4402 22.9268 12.6204C21.886 12.6761 21.0326 12.7644 20.3702 12.8656C21.2039 13.8443 22.4874 15.1328 24.3614 16.6732C24.7871 17.0231 25.2429 17.3834 25.7276 17.7562C27.5538 17.9626 29.3774 18.2529 31.1768 18.6038C31.2948 18.3709 31.4113 18.1522 31.5235 17.9495L31.6642 17.7201C32.4004 16.6387 33.6002 16.4987 34.4317 16.5628C35.374 16.6357 36.4588 16.9933 37.5831 17.4886C38.557 17.9177 39.6459 18.4916 40.8253 19.1839C43.6027 18.305 46.4491 17.9741 49.1768 17.9691C49.3208 17.4755 49.4614 17.0043 49.5909 16.554C45.5057 14.7169 41.3061 13.4672 37.047 13.0872ZM52.5294 18.1234C52.5832 18.1282 52.6378 18.134 52.6915 18.139C52.7025 18.1214 52.7137 18.1029 52.7247 18.0853C52.672 18.0575 52.6193 18.0289 52.5665 18.0013C52.5548 18.0417 52.5412 18.0827 52.5294 18.1234Z"/>
</mask>
<path fill-rule="evenodd" clip-rule="evenodd" d="M52.8702 6.20052C53.1359 6.04994 53.4919 5.9526 53.8888 6.02377C54.172 6.07475 54.3949 6.19658 54.5558 6.31869L54.6954 6.43685L54.8624 6.61263C55.2331 7.03129 55.4667 7.5329 55.6241 7.96615C55.8123 8.48407 55.9542 9.07696 56.0714 9.69173C56.2512 10.6353 56.3965 11.7884 56.5489 13.0667C57.678 11.0767 58.7104 9.61557 59.5811 8.90365C60.0072 8.55542 60.931 7.97574 61.9601 8.50228C62.8887 8.97804 63.1305 9.99365 63.2061 10.4388C63.3861 11.5 63.2096 12.8943 62.9142 14.1302C62.5946 15.4661 61.8135 17.0943 60.752 18.8958C61.3221 19.2779 61.888 19.6655 62.4483 20.0599C63.4013 20.3292 64.2472 20.5798 64.9464 20.7894C65.8921 21.0729 66.481 21.2418 66.7999 21.2972C68.1142 21.5257 68.9941 22.3968 69.502 23.4945C69.963 24.4913 70.1275 25.6823 70.1944 26.7865C70.3164 28.8025 70.0371 30.9752 69.3517 33.3802C69.3015 34.0655 69.2019 34.7736 69.0616 35.5003C70.7946 37.3198 71.7785 38.8516 72.2794 39.8343C72.6538 40.569 72.8957 41.3843 72.9181 42.1839C72.9215 42.3065 72.9172 42.436 72.9083 42.5687C73.8577 43.9407 74.6428 45.3285 75.1905 46.7093C75.9654 48.6629 76.3214 50.7349 75.8761 52.7718C75.5502 54.2617 74.8231 55.6011 73.7198 56.7767C74.9721 58.8105 76.248 60.874 77.5323 62.9544C78.2531 64.1219 78.921 65.1823 79.294 65.9202C79.3924 66.1149 79.4892 66.3267 79.5675 66.5384C79.6362 66.7244 79.7389 67.0383 79.756 67.4056C79.7735 67.7888 79.6978 68.5518 79.046 69.0755C78.4904 69.5215 77.8931 69.469 77.6661 69.4359C77.1762 69.3641 76.6657 69.1034 76.2638 68.8792C75.8006 68.6209 75.229 68.2612 74.5489 67.807C73.2736 66.9551 71.5204 65.7076 69.1944 64.0257C68.8144 66.0949 68.2766 67.7809 67.3888 68.7923C66.8823 69.3689 66.2082 69.7853 65.3966 69.8255C64.6261 69.8634 63.9593 69.5506 63.4454 69.182C62.46 68.4748 61.5776 67.2317 60.8097 65.9173C60.0113 64.5509 59.2141 62.8874 58.4474 61.1244C58.3593 60.9218 58.2667 60.718 58.1768 60.512C57.5755 60.5024 56.9646 60.4865 56.3468 60.4652C53.581 64.2359 50.5879 66.7968 47.6183 68.4984C47.5956 68.525 47.5745 68.5549 47.5518 68.5814C45.6373 70.8227 44.0071 72.5583 42.7774 73.7533C42.1651 74.3483 41.6341 74.8255 41.2081 75.1693C40.9972 75.3394 40.7886 75.4962 40.5938 75.6204C40.4633 75.7037 40.1241 75.9188 39.7149 75.9808C39.4174 76.0258 39.0105 76.003 38.6065 75.7581C38.2072 75.5157 37.9797 75.1585 37.8595 74.8744C37.6548 74.39 37.6657 73.8983 37.6759 73.6654C37.7003 73.1075 37.8401 72.3622 38.0401 71.4798C38.3153 70.266 38.7656 68.544 39.4132 66.1849C39.3703 65.9348 39.3337 65.6769 39.3009 65.4154C36.362 70.7611 35.471 72.7136 35.1104 73.5111C35.0541 73.6357 34.9904 73.7809 34.9464 73.8714C34.9344 73.8961 34.913 73.9386 34.8878 73.9847C34.8755 74.0072 34.8517 74.0482 34.8214 74.096C34.8067 74.1193 34.7219 74.2563 34.5841 74.3949C34.531 74.4482 34.326 74.6529 33.9972 74.7728C33.812 74.8402 33.5231 74.9042 33.1808 74.8343C32.8156 74.7596 32.5126 74.5559 32.295 74.3021C31.93 73.876 31.8813 73.3991 31.8712 73.3031C31.8541 73.1395 31.8618 73.009 31.8663 72.9515C31.881 72.7657 31.9236 72.6097 31.9268 72.598C31.9752 72.4125 32.1324 71.9552 32.3507 71.3099C32.8309 69.8901 33.8004 67.0163 35.4981 61.7835C35.8113 60.8183 36.1433 59.7703 36.5011 58.6595C33.9418 58.3434 31.528 58.0337 29.38 57.7669C22.8223 56.9524 18.5753 56.752 15.8292 56.6214C14.4807 56.5573 13.4007 56.5072 12.6017 56.3968C11.8807 56.2972 10.938 56.1071 10.2647 55.3841C9.83738 54.9247 9.73491 54.3499 9.76181 53.9232C9.78534 53.5527 9.9016 53.2642 9.97372 53.1097C10.1216 52.7932 10.3327 52.5146 10.4991 52.3119C10.8572 51.8758 11.3906 51.3401 12.0411 50.7308C13.361 49.4947 15.3771 47.7619 18.0216 45.5619C20.0351 43.8867 22.4326 41.9278 25.1886 39.6878L24.8243 38.7806L25.6915 38.0423C25.6994 38.0279 25.7113 38.011 25.7218 37.9906C25.7997 37.8372 25.9011 37.6037 26.0343 37.266C26.3406 36.4891 26.5829 35.7869 27.0499 34.5833C27.2264 34.1285 27.4195 33.6444 27.6309 33.141C26.8519 32.5496 26.1019 31.9831 25.3897 31.4398C19.6101 27.0304 16.1986 24.3285 14.6642 22.6751C14.275 22.2558 13.91 21.8047 13.6671 21.3314C13.4376 20.8838 13.135 20.0459 13.5118 19.1361C13.8652 18.2842 14.5835 17.956 14.9561 17.8245C15.3791 17.6755 15.8539 17.6075 16.2862 17.5687C17.531 17.457 18.793 17.4102 20.0636 17.4144C18.274 15.7185 17.1354 14.3001 16.5333 13.2367C16.3128 12.8471 16.1514 12.2938 16.2774 11.6673C16.3962 11.0785 16.7192 10.6838 16.9718 10.4525C17.4335 10.0297 18.0373 9.81037 18.5059 9.67611C19.5298 9.38297 21.0098 9.20372 22.7667 9.1097C26.3268 8.91923 31.4354 9.05908 37.3126 9.58334C41.8563 9.98873 46.2871 11.292 50.5431 13.1761C50.9758 11.6026 51.2824 10.4343 51.4972 9.5765C51.7257 8.66374 51.8533 8.09736 51.9317 7.75716C51.9661 7.60829 52.006 7.44087 52.0411 7.31771C52.0486 7.29155 52.1013 7.09298 52.2101 6.889C52.242 6.82915 52.4376 6.44611 52.8702 6.20052ZM43.6407 63.1497C43.3154 64.3076 43.0202 65.3566 42.7579 66.305C42.8196 66.5419 42.8802 66.7244 42.9337 66.8597C43.8122 66.5442 44.7102 66.1494 45.6183 65.6615C46.9696 64.0599 48.4672 62.2032 50.0636 60.096C48.271 59.9538 46.4548 59.7797 44.6495 59.5931C44.2845 60.8657 43.947 62.0597 43.6407 63.1497ZM64.1495 60.3519C63.3848 60.4141 62.5865 60.4602 61.7608 60.4876C62.3701 61.8388 62.9687 63.0491 63.545 64.0355C64.2282 65.2048 64.7817 65.8888 65.1612 66.1937C65.3885 65.8144 65.7334 64.9501 66.0421 63.2259C66.1159 62.8133 66.1823 62.3625 66.2481 61.8831C65.5782 61.3946 64.8766 60.8842 64.1495 60.3519ZM71.0655 58.7972C70.6676 58.9926 70.2402 59.167 69.7882 59.3216C69.7639 59.6095 69.7388 59.8936 69.712 60.1712C69.981 60.3666 70.2424 60.5602 70.4981 60.7454C71.7079 61.6216 72.7625 62.3774 73.6739 63.0247C72.7991 61.6102 71.9285 60.1986 71.0655 58.7972ZM27.4249 42.263C24.5532 44.596 22.0675 46.6255 19.9923 48.3519C17.6127 50.3315 15.7958 51.894 14.5499 53.0345C14.9586 53.0576 15.4285 53.0839 15.9718 53.1097C18.7478 53.2417 23.0806 53.4456 29.7481 54.2738C31.271 54.4629 32.9151 54.6727 34.6407 54.89C34.6168 54.8443 34.594 54.7981 34.5743 54.7523C34.4147 54.3806 34.3938 54.029 34.3927 53.8294C34.3906 53.4205 34.4772 53.003 34.5616 52.6722C34.7418 51.9662 35.0744 51.043 35.5059 49.9827C35.5475 49.8807 35.5919 49.7761 35.6358 49.6702C35.1244 50.041 34.6173 50.3234 34.1104 50.4994C32.9004 50.9188 31.7473 50.7296 30.8087 49.9896C29.9623 49.3219 29.4418 48.3258 29.1095 47.4232C28.7672 46.4931 28.5528 45.4675 28.4181 44.5257C28.3317 43.9221 28.257 43.3267 28.1886 42.7435C27.9169 42.5843 27.6623 42.4231 27.4249 42.263ZM69.8878 45.1244C70.0176 46.9973 70.084 48.928 70.0968 50.8324C70.6771 51.8016 71.2713 52.7774 71.8712 53.762C72.3288 53.1533 72.5955 52.5498 72.7247 51.9593C72.9597 50.8832 72.8137 49.606 72.2159 48.099C71.8417 47.1557 71.3117 46.1753 70.6534 45.1722L70.6495 45.1742C70.3941 45.189 70.1353 45.1609 69.8878 45.1244ZM64.1222 37.8519C64.1283 37.8388 64.1346 37.8249 64.1407 37.8119C63.7705 37.4682 63.3973 37.1247 63.0186 36.7874C63.3882 37.1403 63.7559 37.4959 64.1222 37.8519ZM57.9727 23.1644C58.2268 24.5234 58.5223 25.9386 58.88 27.3929C58.9399 27.6365 59.0039 27.8831 59.0714 28.1312C59.8759 28.5685 60.6358 29.0065 61.3526 29.4437C62.3531 29.1322 63.3846 29.0989 64.3927 29.5316C65.0082 29.796 65.5354 30.2053 65.9903 30.6937C65.8016 29.5276 65.5587 28.4741 65.1056 27.4857C64.5955 26.3734 63.7873 25.2639 62.3604 24.2122C61.9497 23.9095 61.5351 23.6114 61.1202 23.3158C61.0194 23.288 60.9175 23.2577 60.8145 23.2298C60.0471 23.0218 59.2233 22.8139 58.3556 22.6156C58.2306 22.7968 58.1021 22.9796 57.9727 23.1644ZM24.5704 21.1634C22.2757 20.9384 19.9933 20.8618 17.7686 20.9847C19.3786 22.472 22.3602 24.831 27.253 28.5638C27.5414 28.7838 27.837 29.0065 28.1368 29.2347C28.3741 27.3854 28.7027 25.7368 29.0811 24.2855C27.3832 23.1922 25.8868 22.1468 24.5704 21.1634ZM37.047 13.0872C31.2528 12.5704 26.2968 12.4402 22.9268 12.6204C21.886 12.6761 21.0326 12.7644 20.3702 12.8656C21.2039 13.8443 22.4874 15.1328 24.3614 16.6732C24.7871 17.0231 25.2429 17.3834 25.7276 17.7562C27.5538 17.9626 29.3774 18.2529 31.1768 18.6038C31.2948 18.3709 31.4113 18.1522 31.5235 17.9495L31.6642 17.7201C32.4004 16.6387 33.6002 16.4987 34.4317 16.5628C35.374 16.6357 36.4588 16.9933 37.5831 17.4886C38.557 17.9177 39.6459 18.4916 40.8253 19.1839C43.6027 18.305 46.4491 17.9741 49.1768 17.9691C49.3208 17.4755 49.4614 17.0043 49.5909 16.554C45.5057 14.7169 41.3061 13.4672 37.047 13.0872ZM52.5294 18.1234C52.5832 18.1282 52.6378 18.134 52.6915 18.139C52.7025 18.1214 52.7137 18.1029 52.7247 18.0853C52.672 18.0575 52.6193 18.0289 52.5665 18.0013C52.5548 18.0417 52.5412 18.0827 52.5294 18.1234Z" fill="#FBE300"/>
<path fill-rule="evenodd" clip-rule="evenodd" d="M52.8702 6.20052C53.1359 6.04994 53.4919 5.9526 53.8888 6.02377C54.172 6.07475 54.3949 6.19658 54.5558 6.31869L54.6954 6.43685L54.8624 6.61263C55.2331 7.03129 55.4667 7.5329 55.6241 7.96615C55.8123 8.48407 55.9542 9.07696 56.0714 9.69173C56.2512 10.6353 56.3965 11.7884 56.5489 13.0667C57.678 11.0767 58.7104 9.61557 59.5811 8.90365C60.0072 8.55542 60.931 7.97574 61.9601 8.50228C62.8887 8.97804 63.1305 9.99365 63.2061 10.4388C63.3861 11.5 63.2096 12.8943 62.9142 14.1302C62.5946 15.4661 61.8135 17.0943 60.752 18.8958C61.3221 19.2779 61.888 19.6655 62.4483 20.0599C63.4013 20.3292 64.2472 20.5798 64.9464 20.7894C65.8921 21.0729 66.481 21.2418 66.7999 21.2972C68.1142 21.5257 68.9941 22.3968 69.502 23.4945C69.963 24.4913 70.1275 25.6823 70.1944 26.7865C70.3164 28.8025 70.0371 30.9752 69.3517 33.3802C69.3015 34.0655 69.2019 34.7736 69.0616 35.5003C70.7946 37.3198 71.7785 38.8516 72.2794 39.8343C72.6538 40.569 72.8957 41.3843 72.9181 42.1839C72.9215 42.3065 72.9172 42.436 72.9083 42.5687C73.8577 43.9407 74.6428 45.3285 75.1905 46.7093C75.9654 48.6629 76.3214 50.7349 75.8761 52.7718C75.5502 54.2617 74.8231 55.6011 73.7198 56.7767C74.9721 58.8105 76.248 60.874 77.5323 62.9544C78.2531 64.1219 78.921 65.1823 79.294 65.9202C79.3924 66.1149 79.4892 66.3267 79.5675 66.5384C79.6362 66.7244 79.7389 67.0383 79.756 67.4056C79.7735 67.7888 79.6978 68.5518 79.046 69.0755C78.4904 69.5215 77.8931 69.469 77.6661 69.4359C77.1762 69.3641 76.6657 69.1034 76.2638 68.8792C75.8006 68.6209 75.229 68.2612 74.5489 67.807C73.2736 66.9551 71.5204 65.7076 69.1944 64.0257C68.8144 66.0949 68.2766 67.7809 67.3888 68.7923C66.8823 69.3689 66.2082 69.7853 65.3966 69.8255C64.6261 69.8634 63.9593 69.5506 63.4454 69.182C62.46 68.4748 61.5776 67.2317 60.8097 65.9173C60.0113 64.5509 59.2141 62.8874 58.4474 61.1244C58.3593 60.9218 58.2667 60.718 58.1768 60.512C57.5755 60.5024 56.9646 60.4865 56.3468 60.4652C53.581 64.2359 50.5879 66.7968 47.6183 68.4984C47.5956 68.525 47.5745 68.5549 47.5518 68.5814C45.6373 70.8227 44.0071 72.5583 42.7774 73.7533C42.1651 74.3483 41.6341 74.8255 41.2081 75.1693C40.9972 75.3394 40.7886 75.4962 40.5938 75.6204C40.4633 75.7037 40.1241 75.9188 39.7149 75.9808C39.4174 76.0258 39.0105 76.003 38.6065 75.7581C38.2072 75.5157 37.9797 75.1585 37.8595 74.8744C37.6548 74.39 37.6657 73.8983 37.6759 73.6654C37.7003 73.1075 37.8401 72.3622 38.0401 71.4798C38.3153 70.266 38.7656 68.544 39.4132 66.1849C39.3703 65.9348 39.3337 65.6769 39.3009 65.4154C36.362 70.7611 35.471 72.7136 35.1104 73.5111C35.0541 73.6357 34.9904 73.7809 34.9464 73.8714C34.9344 73.8961 34.913 73.9386 34.8878 73.9847C34.8755 74.0072 34.8517 74.0482 34.8214 74.096C34.8067 74.1193 34.7219 74.2563 34.5841 74.3949C34.531 74.4482 34.326 74.6529 33.9972 74.7728C33.812 74.8402 33.5231 74.9042 33.1808 74.8343C32.8156 74.7596 32.5126 74.5559 32.295 74.3021C31.93 73.876 31.8813 73.3991 31.8712 73.3031C31.8541 73.1395 31.8618 73.009 31.8663 72.9515C31.881 72.7657 31.9236 72.6097 31.9268 72.598C31.9752 72.4125 32.1324 71.9552 32.3507 71.3099C32.8309 69.8901 33.8004 67.0163 35.4981 61.7835C35.8113 60.8183 36.1433 59.7703 36.5011 58.6595C33.9418 58.3434 31.528 58.0337 29.38 57.7669C22.8223 56.9524 18.5753 56.752 15.8292 56.6214C14.4807 56.5573 13.4007 56.5072 12.6017 56.3968C11.8807 56.2972 10.938 56.1071 10.2647 55.3841C9.83738 54.9247 9.73491 54.3499 9.76181 53.9232C9.78534 53.5527 9.9016 53.2642 9.97372 53.1097C10.1216 52.7932 10.3327 52.5146 10.4991 52.3119C10.8572 51.8758 11.3906 51.3401 12.0411 50.7308C13.361 49.4947 15.3771 47.7619 18.0216 45.5619C20.0351 43.8867 22.4326 41.9278 25.1886 39.6878L24.8243 38.7806L25.6915 38.0423C25.6994 38.0279 25.7113 38.011 25.7218 37.9906C25.7997 37.8372 25.9011 37.6037 26.0343 37.266C26.3406 36.4891 26.5829 35.7869 27.0499 34.5833C27.2264 34.1285 27.4195 33.6444 27.6309 33.141C26.8519 32.5496 26.1019 31.9831 25.3897 31.4398C19.6101 27.0304 16.1986 24.3285 14.6642 22.6751C14.275 22.2558 13.91 21.8047 13.6671 21.3314C13.4376 20.8838 13.135 20.0459 13.5118 19.1361C13.8652 18.2842 14.5835 17.956 14.9561 17.8245C15.3791 17.6755 15.8539 17.6075 16.2862 17.5687C17.531 17.457 18.793 17.4102 20.0636 17.4144C18.274 15.7185 17.1354 14.3001 16.5333 13.2367C16.3128 12.8471 16.1514 12.2938 16.2774 11.6673C16.3962 11.0785 16.7192 10.6838 16.9718 10.4525C17.4335 10.0297 18.0373 9.81037 18.5059 9.67611C19.5298 9.38297 21.0098 9.20372 22.7667 9.1097C26.3268 8.91923 31.4354 9.05908 37.3126 9.58334C41.8563 9.98873 46.2871 11.292 50.5431 13.1761C50.9758 11.6026 51.2824 10.4343 51.4972 9.5765C51.7257 8.66374 51.8533 8.09736 51.9317 7.75716C51.9661 7.60829 52.006 7.44087 52.0411 7.31771C52.0486 7.29155 52.1013 7.09298 52.2101 6.889C52.242 6.82915 52.4376 6.44611 52.8702 6.20052ZM43.6407 63.1497C43.3154 64.3076 43.0202 65.3566 42.7579 66.305C42.8196 66.5419 42.8802 66.7244 42.9337 66.8597C43.8122 66.5442 44.7102 66.1494 45.6183 65.6615C46.9696 64.0599 48.4672 62.2032 50.0636 60.096C48.271 59.9538 46.4548 59.7797 44.6495 59.5931C44.2845 60.8657 43.947 62.0597 43.6407 63.1497ZM64.1495 60.3519C63.3848 60.4141 62.5865 60.4602 61.7608 60.4876C62.3701 61.8388 62.9687 63.0491 63.545 64.0355C64.2282 65.2048 64.7817 65.8888 65.1612 66.1937C65.3885 65.8144 65.7334 64.9501 66.0421 63.2259C66.1159 62.8133 66.1823 62.3625 66.2481 61.8831C65.5782 61.3946 64.8766 60.8842 64.1495 60.3519ZM71.0655 58.7972C70.6676 58.9926 70.2402 59.167 69.7882 59.3216C69.7639 59.6095 69.7388 59.8936 69.712 60.1712C69.981 60.3666 70.2424 60.5602 70.4981 60.7454C71.7079 61.6216 72.7625 62.3774 73.6739 63.0247C72.7991 61.6102 71.9285 60.1986 71.0655 58.7972ZM27.4249 42.263C24.5532 44.596 22.0675 46.6255 19.9923 48.3519C17.6127 50.3315 15.7958 51.894 14.5499 53.0345C14.9586 53.0576 15.4285 53.0839 15.9718 53.1097C18.7478 53.2417 23.0806 53.4456 29.7481 54.2738C31.271 54.4629 32.9151 54.6727 34.6407 54.89C34.6168 54.8443 34.594 54.7981 34.5743 54.7523C34.4147 54.3806 34.3938 54.029 34.3927 53.8294C34.3906 53.4205 34.4772 53.003 34.5616 52.6722C34.7418 51.9662 35.0744 51.043 35.5059 49.9827C35.5475 49.8807 35.5919 49.7761 35.6358 49.6702C35.1244 50.041 34.6173 50.3234 34.1104 50.4994C32.9004 50.9188 31.7473 50.7296 30.8087 49.9896C29.9623 49.3219 29.4418 48.3258 29.1095 47.4232C28.7672 46.4931 28.5528 45.4675 28.4181 44.5257C28.3317 43.9221 28.257 43.3267 28.1886 42.7435C27.9169 42.5843 27.6623 42.4231 27.4249 42.263ZM69.8878 45.1244C70.0176 46.9973 70.084 48.928 70.0968 50.8324C70.6771 51.8016 71.2713 52.7774 71.8712 53.762C72.3288 53.1533 72.5955 52.5498 72.7247 51.9593C72.9597 50.8832 72.8137 49.606 72.2159 48.099C71.8417 47.1557 71.3117 46.1753 70.6534 45.1722L70.6495 45.1742C70.3941 45.189 70.1353 45.1609 69.8878 45.1244ZM64.1222 37.8519C64.1283 37.8388 64.1346 37.8249 64.1407 37.8119C63.7705 37.4682 63.3973 37.1247 63.0186 36.7874C63.3882 37.1403 63.7559 37.4959 64.1222 37.8519ZM57.9727 23.1644C58.2268 24.5234 58.5223 25.9386 58.88 27.3929C58.9399 27.6365 59.0039 27.8831 59.0714 28.1312C59.8759 28.5685 60.6358 29.0065 61.3526 29.4437C62.3531 29.1322 63.3846 29.0989 64.3927 29.5316C65.0082 29.796 65.5354 30.2053 65.9903 30.6937C65.8016 29.5276 65.5587 28.4741 65.1056 27.4857C64.5955 26.3734 63.7873 25.2639 62.3604 24.2122C61.9497 23.9095 61.5351 23.6114 61.1202 23.3158C61.0194 23.288 60.9175 23.2577 60.8145 23.2298C60.0471 23.0218 59.2233 22.8139 58.3556 22.6156C58.2306 22.7968 58.1021 22.9796 57.9727 23.1644ZM24.5704 21.1634C22.2757 20.9384 19.9933 20.8618 17.7686 20.9847C19.3786 22.472 22.3602 24.831 27.253 28.5638C27.5414 28.7838 27.837 29.0065 28.1368 29.2347C28.3741 27.3854 28.7027 25.7368 29.0811 24.2855C27.3832 23.1922 25.8868 22.1468 24.5704 21.1634ZM37.047 13.0872C31.2528 12.5704 26.2968 12.4402 22.9268 12.6204C21.886 12.6761 21.0326 12.7644 20.3702 12.8656C21.2039 13.8443 22.4874 15.1328 24.3614 16.6732C24.7871 17.0231 25.2429 17.3834 25.7276 17.7562C27.5538 17.9626 29.3774 18.2529 31.1768 18.6038C31.2948 18.3709 31.4113 18.1522 31.5235 17.9495L31.6642 17.7201C32.4004 16.6387 33.6002 16.4987 34.4317 16.5628C35.374 16.6357 36.4588 16.9933 37.5831 17.4886C38.557 17.9177 39.6459 18.4916 40.8253 19.1839C43.6027 18.305 46.4491 17.9741 49.1768 17.9691C49.3208 17.4755 49.4614 17.0043 49.5909 16.554C45.5057 14.7169 41.3061 13.4672 37.047 13.0872ZM52.5294 18.1234C52.5832 18.1282 52.6378 18.134 52.6915 18.139C52.7025 18.1214 52.7137 18.1029 52.7247 18.0853C52.672 18.0575 52.6193 18.0289 52.5665 18.0013C52.5548 18.0417 52.5412 18.0827 52.5294 18.1234Z" stroke="black" stroke-width="12" mask="url(#path-1-outside-1_515_2882)"/>
</svg>
