<svg width="86" height="82" viewBox="0 0 86 82" fill="none" xmlns="http://www.w3.org/2000/svg">
<mask id="path-1-outside-1_515_2881" maskUnits="userSpaceOnUse" x="-0.523438" y="-1" width="87" height="84" fill="black">
<rect fill="white" x="-0.523438" y="-1" width="87" height="84"/>
<path fill-rule="evenodd" clip-rule="evenodd" d="M51.0074 6.08126C51.2747 5.99102 51.6473 5.94358 52.0543 6.11544C52.5956 6.34456 52.8448 6.81493 52.9478 7.09103C53.1298 7.57935 53.1125 8.12913 53.0914 8.467C53.0412 9.26769 52.8343 10.4019 52.5348 11.7297C52.2994 12.7726 51.9929 13.9908 51.6295 15.3498C51.6308 15.3566 51.6335 15.3629 51.6344 15.3684C51.6664 15.5751 51.654 15.7512 51.65 15.8029C51.6437 15.884 51.6329 15.9613 51.6236 16.0217C51.6047 16.1443 51.5777 16.2831 51.5475 16.424C51.4859 16.7108 51.3936 17.0892 51.2769 17.5422C51.0423 18.4537 50.6907 19.7259 50.2389 21.2912C49.9454 22.3078 49.5933 23.4418 49.2164 24.6262C49.2093 25.2205 49.1949 25.8834 49.1803 26.6096C49.5267 26.7697 49.8932 26.9389 50.2789 27.1135C50.7111 25.9728 51.077 25.0233 51.3521 24.3918C51.4223 24.2308 51.4966 24.0738 51.5728 23.9338C51.6376 23.8151 51.7532 23.6184 51.9195 23.4416C52.0018 23.3543 52.1669 23.194 52.4137 23.0842C52.6917 22.9608 53.1086 22.8911 53.5445 23.0979C53.9416 23.2866 54.1481 23.6097 54.2398 23.7922C54.3342 23.98 54.3763 24.1535 54.3971 24.2561C54.4681 24.6072 54.4487 25.01 54.4312 25.2688C54.4096 25.5892 54.3666 25.9764 54.3111 26.4065C54.2283 27.048 54.1054 27.8384 53.9586 28.7414C54.2906 28.8865 54.6302 29.0384 54.9781 29.1897C60.1139 31.4225 66.8512 34.2756 74.5367 37.5988C75.8585 38.1704 76.9531 38.6555 77.7066 39.0617C78.0727 39.2591 78.4441 39.4822 78.733 39.7336C78.8757 39.8578 79.0713 40.052 79.2252 40.3205C79.3883 40.6054 79.5564 41.0745 79.4352 41.6359C79.3185 42.1747 78.9978 42.5052 78.7789 42.675C78.5599 42.8447 78.3279 42.9474 78.149 43.0129C77.7874 43.1452 77.3429 43.2316 76.8746 43.2971C75.9177 43.4308 74.5274 43.5205 72.7027 43.5988C70.9108 43.6758 68.668 43.743 66.1861 43.8039C65.3678 45.104 64.3744 46.5577 63.2955 48.0451C63.9478 48.4733 64.479 48.84 64.8941 49.1516C65.2838 49.4441 65.6367 49.7367 65.8971 50.0256C66.026 50.1687 66.1851 50.369 66.3072 50.6213C66.4289 50.8727 66.579 51.3131 66.4664 51.843C66.3481 52.3984 66.0106 52.7374 65.7516 52.9143C65.5093 53.0795 65.2628 53.1588 65.0963 53.2004C64.7594 53.2845 64.3699 53.308 64.0191 53.3166C63.3058 53.334 62.2859 53.2896 61.1949 53.2649C61.1045 53.2628 61.0123 53.2618 60.9195 53.26C61.05 53.3942 61.1777 53.5745 61.2623 53.8088C61.3803 54.1361 61.3731 54.4475 61.3258 54.6838C61.2446 55.0881 61.0348 55.3398 60.9801 55.4045C60.8351 55.5756 60.6763 55.6843 60.6246 55.7199C60.5453 55.7745 60.4634 55.8252 60.3893 55.8674C60.2385 55.9531 60.0558 56.0443 59.86 56.1369C59.4644 56.324 58.9492 56.5439 58.3746 56.7619L58.3141 56.7834L58.2525 56.8C57.7773 56.9292 57.3025 57.0523 56.8316 57.176C56.8398 57.195 56.8478 57.2146 56.856 57.2336C57.0605 57.2185 57.2599 57.2119 57.443 57.2219C57.5969 57.2303 57.802 57.2528 58.0133 57.3205C58.1925 57.3781 58.6 57.5357 58.8902 57.9846C59.2493 58.5402 59.1921 59.1448 59.0514 59.5324C58.9319 59.861 58.7398 60.0941 58.6236 60.2219C58.5343 60.32 58.4311 60.4131 58.3228 60.5061C60.1924 64.5309 61.9296 67.6871 63.3912 69.7043C63.6959 70.1248 64.014 70.5519 64.2066 70.8303C64.2836 70.9415 64.4258 71.1506 64.5191 71.3537C64.545 71.41 64.6016 71.5368 64.6393 71.7033C64.6575 71.784 64.7884 72.3317 64.4625 72.8889C64.0336 73.621 63.3253 73.6153 63.106 73.5881C62.8712 73.5588 62.6961 73.4705 62.6393 73.4416C62.4147 73.3273 62.1901 73.1364 62.065 73.0295C61.892 72.8816 61.6699 72.6817 61.398 72.4299C60.8514 71.9237 60.0576 71.1645 58.9518 70.1008C56.8281 68.0581 54.7902 66.0969 52.857 64.2365C52.089 64.7408 51.3027 65.2512 50.5435 65.7248C49.9553 67.1138 49.3553 68.5392 48.7496 69.9953C48.127 71.492 47.6068 72.7716 47.2018 73.676C47.0002 74.126 46.8037 74.5365 46.6178 74.8567C46.5256 75.0152 46.4122 75.1936 46.2789 75.3547C46.1726 75.4831 45.9197 75.769 45.5221 75.9133C45.294 75.9959 44.9999 76.0381 44.6803 75.9543C44.3618 75.8706 44.12 75.6898 43.9547 75.508C43.665 75.1895 43.5574 74.815 43.5133 74.6428C43.4133 74.2522 43.3814 73.7703 43.3697 73.3068C43.3451 72.3252 43.4018 70.8233 43.5103 68.7775C43.5392 68.2347 43.575 67.6504 43.6109 67.0315C43.4771 66.5161 43.6024 66.0588 43.6793 65.8381C43.7258 65.0689 43.7766 64.2553 43.8307 63.4065C43.3839 63.5215 42.9448 63.6404 42.5162 63.7483C39.954 64.3929 37.5951 64.9341 36.2203 65.051C36.1806 65.0543 36.1058 65.0591 36.0143 65.0529C35.9794 65.0505 35.8856 65.0412 35.7623 65.008C35.71 65.0694 35.6554 65.1316 35.5973 65.1897C35.1511 65.6352 34.4993 65.9854 33.6695 65.8791C32.9359 65.7848 32.2565 65.3551 31.6227 64.7815C30.971 64.1917 30.2384 63.3321 29.3922 62.1535C28.441 60.8287 27.2876 59.0049 26.023 56.9045C25.5788 56.9939 25.1412 57.0822 24.7125 57.1652C22.3317 57.6266 20.164 57.9874 18.6637 58.0188C17.9767 58.033 17.1446 57.9939 16.5084 57.6477C16.1423 57.4483 15.6911 57.0619 15.5143 56.3918C15.3458 55.7529 15.516 55.1829 15.6891 54.8117L15.817 54.5705C15.9559 54.3394 16.122 54.1367 16.2701 53.9719C16.4826 53.7355 16.74 53.4901 17.024 53.2385C17.5933 52.7342 18.3487 52.1425 19.2545 51.4758C19.9915 50.9333 20.8457 50.3297 21.8053 49.6672C19.7959 46.1565 17.753 42.5509 15.9566 39.507C14.8594 37.6479 13.8507 35.9944 12.9762 34.5686C12.106 33.1499 11.3579 31.9377 10.7975 30.9865C10.2689 30.0894 9.80589 29.2617 9.61191 28.677C9.56082 28.5229 9.49011 28.277 9.47812 27.9943C9.46728 27.7341 9.49977 27.1041 10.0162 26.6359C10.5112 26.1878 11.0671 26.2425 11.2789 26.2805C11.5254 26.3248 11.739 26.4207 11.8834 26.4943C12.4325 26.7744 13.2289 27.3976 14.1041 28.1291C14.5076 28.4664 14.9534 28.8495 15.4361 29.2707C14.224 27.1104 13.2302 25.1852 12.5924 23.715C12.1723 22.7468 11.8677 21.8942 11.7193 21.175C11.5911 20.5529 11.4819 19.5812 12.0172 18.7863C12.64 17.8626 13.6234 17.8546 14.1812 17.9387C14.7868 18.0302 15.4584 18.2985 16.1266 18.6242C17.4859 19.2869 19.268 20.4088 21.3336 21.7668C23.2847 23.0495 25.4574 24.5201 27.9322 26.1438C28.0338 26.0431 28.162 25.947 28.3189 25.8723C28.7354 25.6743 29.1274 25.7374 29.3795 25.8371C29.7751 25.9939 29.9967 26.3008 30.0309 26.3459C30.172 26.5326 30.2814 26.7531 30.3521 26.9025C30.4783 27.1691 30.6282 27.5401 30.8082 28.009C34.2819 30.2393 38.0558 32.5873 41.7838 34.8752C42.2547 33.0734 42.7475 31.1701 43.2389 29.2238C43.3737 28.474 43.5089 27.7283 43.6451 26.9914C43.1564 26.5647 42.7874 26.04 42.5631 25.382C42.3092 24.6372 42.2797 23.8345 42.3053 23.0637C42.4525 18.6392 43.9807 14.7442 45.7105 11.8391C46.2614 10.9141 46.8378 10.0793 47.4059 9.35177C47.4187 9.3206 47.4303 9.28844 47.4439 9.259C47.4679 9.20765 47.5151 9.11108 47.5855 9.00704C47.61 8.97081 47.7631 8.73467 48.0553 8.56075C48.1609 8.43857 48.2678 8.3203 48.3717 8.20626C49.208 7.28822 50.0579 6.55023 50.7779 6.17892L51.0074 6.08126ZM46.3531 68.0188C46.3448 68.1665 46.3346 68.3125 46.3268 68.4553C46.3983 68.2835 46.4712 68.1116 46.5426 67.9406C46.4792 67.967 46.4161 67.9946 46.3531 68.0188ZM55.3355 62.5813C55.8418 63.0683 56.3556 63.5616 56.8756 64.0617C56.574 63.4487 56.2699 62.8124 55.9625 62.1555C55.7626 62.2914 55.5529 62.4342 55.3355 62.5813ZM23.2769 52.2336C22.3508 52.8734 21.5311 53.4513 20.8277 53.969C20.3412 54.327 19.9159 54.652 19.5533 54.9406C20.7565 54.8257 22.3523 54.5581 24.2184 54.1965C24.2779 54.185 24.338 54.1711 24.398 54.1594C24.0297 53.5296 23.6543 52.8868 23.2769 52.2336ZM58.6412 49.2063C58.4077 49.5437 58.1678 49.8824 57.9293 50.2248C57.957 50.2247 57.9857 50.225 58.0133 50.2248C58.2544 49.9245 58.499 49.6227 58.7398 49.3156C58.8538 49.1703 58.9646 49.021 59.0777 48.8752C59.0287 48.8448 58.979 48.8142 58.9293 48.7834C58.833 48.9229 58.7383 49.066 58.6412 49.2063ZM62.2223 43.8928C61.7228 44.6639 61.1781 45.4859 60.6021 46.34C60.6913 46.3954 60.78 46.4501 60.8668 46.5041C61.5246 45.6046 62.1457 44.7197 62.7135 43.882C62.5505 43.8855 62.3863 43.8894 62.2223 43.8928ZM56.7809 43.9953C56.8745 44.0523 56.9687 44.1089 57.0611 44.1652C57.0896 44.106 57.1189 44.0469 57.1471 43.9885C57.0253 43.9907 56.9026 43.9931 56.7809 43.9953ZM58.4088 40.7688C57.7074 40.8299 56.9696 40.9024 56.2027 40.9875C57.0219 40.9728 57.8432 40.9588 58.6598 40.9436C58.6955 40.8743 58.7314 40.8053 58.7662 40.7385C58.6486 40.7482 58.5289 40.7583 58.4088 40.7688ZM64.1051 40.8313C64.2898 40.8272 64.474 40.8237 64.6568 40.8195C64.6731 40.7914 64.6887 40.7624 64.7047 40.7346C64.6438 40.7227 64.5776 40.7059 64.5055 40.6945C64.4105 40.6796 64.31 40.6688 64.2057 40.6565C64.1734 40.7141 64.1388 40.7721 64.1051 40.8313ZM65.0094 36.7522C65.0955 36.8839 65.1616 37.0212 65.2066 37.1565C65.2807 37.3793 65.3025 37.5961 65.3023 37.7844C65.943 37.9171 66.6244 38.1454 67.1246 38.6096C67.4741 38.934 67.7753 39.4117 67.8404 40.0344C67.8665 40.2846 67.848 40.5214 67.8053 40.7404C69.5991 40.6916 71.2263 40.6409 72.5924 40.5822C73.0181 40.5639 73.4148 40.545 73.7818 40.5256C73.6895 40.4855 73.5947 40.4431 73.4986 40.4016C70.5263 39.1163 67.6793 37.896 65.0094 36.7522ZM53.0445 34.0363C52.7929 35.4467 52.5253 36.936 52.2564 38.4475C54.3963 38.1548 56.3967 37.9166 58.1832 37.7609C59.181 37.674 60.1281 37.6104 61.0055 37.5764C61.443 37.204 61.8266 36.9012 62.1559 36.6731C62.3895 36.5112 62.6285 36.365 62.8609 36.2561C62.9903 36.1955 63.1886 36.1155 63.4264 36.0734C59.8693 34.5502 56.662 33.1754 53.9342 31.9895C53.7693 31.9178 53.6065 31.845 53.4449 31.7746C53.3181 32.4985 53.1837 33.2563 53.0445 34.0363ZM49.7525 36.3508C49.7578 36.3834 49.7628 36.4168 49.7682 36.4494C49.7831 36.3659 49.7982 36.2816 49.8131 36.1984C49.7929 36.2489 49.7728 36.3003 49.7525 36.3508ZM16.4654 34.8078L15.9713 33.6545C15.8717 33.5651 15.7739 33.4753 15.6764 33.3879C15.6213 33.3386 15.5657 33.2891 15.5113 33.2404C15.8147 33.7357 16.1324 34.2596 16.4654 34.8078ZM14.648 21.2219C14.7602 21.5518 14.9145 21.953 15.1226 22.4328C16.1033 24.6929 18.0476 28.2256 20.3756 32.0539L28.3238 31.3322C28.1563 30.7183 28.0087 30.1578 27.8873 29.6672C27.8845 29.6561 27.8822 29.6441 27.8795 29.633C27.6247 29.4677 27.3702 29.3063 27.1197 29.1428C24.4134 27.3762 21.9135 25.6815 19.8805 24.3449C17.7978 22.9757 16.1567 21.9502 14.9771 21.3752C14.8592 21.3177 14.7492 21.2669 14.648 21.2219ZM49.1764 30.0256C49.1913 29.986 49.2064 29.9458 49.2213 29.9065C49.2047 29.899 49.188 29.8915 49.1715 29.884C49.1726 29.9308 49.1752 29.9784 49.1764 30.0256Z"/>
</mask>
<path fill-rule="evenodd" clip-rule="evenodd" d="M51.0074 6.08126C51.2747 5.99102 51.6473 5.94358 52.0543 6.11544C52.5956 6.34456 52.8448 6.81493 52.9478 7.09103C53.1298 7.57935 53.1125 8.12913 53.0914 8.467C53.0412 9.26769 52.8343 10.4019 52.5348 11.7297C52.2994 12.7726 51.9929 13.9908 51.6295 15.3498C51.6308 15.3566 51.6335 15.3629 51.6344 15.3684C51.6664 15.5751 51.654 15.7512 51.65 15.8029C51.6437 15.884 51.6329 15.9613 51.6236 16.0217C51.6047 16.1443 51.5777 16.2831 51.5475 16.424C51.4859 16.7108 51.3936 17.0892 51.2769 17.5422C51.0423 18.4537 50.6907 19.7259 50.2389 21.2912C49.9454 22.3078 49.5933 23.4418 49.2164 24.6262C49.2093 25.2205 49.1949 25.8834 49.1803 26.6096C49.5267 26.7697 49.8932 26.9389 50.2789 27.1135C50.7111 25.9728 51.077 25.0233 51.3521 24.3918C51.4223 24.2308 51.4966 24.0738 51.5728 23.9338C51.6376 23.8151 51.7532 23.6184 51.9195 23.4416C52.0018 23.3543 52.1669 23.194 52.4137 23.0842C52.6917 22.9608 53.1086 22.8911 53.5445 23.0979C53.9416 23.2866 54.1481 23.6097 54.2398 23.7922C54.3342 23.98 54.3763 24.1535 54.3971 24.2561C54.4681 24.6072 54.4487 25.01 54.4312 25.2688C54.4096 25.5892 54.3666 25.9764 54.3111 26.4065C54.2283 27.048 54.1054 27.8384 53.9586 28.7414C54.2906 28.8865 54.6302 29.0384 54.9781 29.1897C60.1139 31.4225 66.8512 34.2756 74.5367 37.5988C75.8585 38.1704 76.9531 38.6555 77.7066 39.0617C78.0727 39.2591 78.4441 39.4822 78.733 39.7336C78.8757 39.8578 79.0713 40.052 79.2252 40.3205C79.3883 40.6054 79.5564 41.0745 79.4352 41.6359C79.3185 42.1747 78.9978 42.5052 78.7789 42.675C78.5599 42.8447 78.3279 42.9474 78.149 43.0129C77.7874 43.1452 77.3429 43.2316 76.8746 43.2971C75.9177 43.4308 74.5274 43.5205 72.7027 43.5988C70.9108 43.6758 68.668 43.743 66.1861 43.8039C65.3678 45.104 64.3744 46.5577 63.2955 48.0451C63.9478 48.4733 64.479 48.84 64.8941 49.1516C65.2838 49.4441 65.6367 49.7367 65.8971 50.0256C66.026 50.1687 66.1851 50.369 66.3072 50.6213C66.4289 50.8727 66.579 51.3131 66.4664 51.843C66.3481 52.3984 66.0106 52.7374 65.7516 52.9143C65.5093 53.0795 65.2628 53.1588 65.0963 53.2004C64.7594 53.2845 64.3699 53.308 64.0191 53.3166C63.3058 53.334 62.2859 53.2896 61.1949 53.2649C61.1045 53.2628 61.0123 53.2618 60.9195 53.26C61.05 53.3942 61.1777 53.5745 61.2623 53.8088C61.3803 54.1361 61.3731 54.4475 61.3258 54.6838C61.2446 55.0881 61.0348 55.3398 60.9801 55.4045C60.8351 55.5756 60.6763 55.6843 60.6246 55.7199C60.5453 55.7745 60.4634 55.8252 60.3893 55.8674C60.2385 55.9531 60.0558 56.0443 59.86 56.1369C59.4644 56.324 58.9492 56.5439 58.3746 56.7619L58.3141 56.7834L58.2525 56.8C57.7773 56.9292 57.3025 57.0523 56.8316 57.176C56.8398 57.195 56.8478 57.2146 56.856 57.2336C57.0605 57.2185 57.2599 57.2119 57.443 57.2219C57.5969 57.2303 57.802 57.2528 58.0133 57.3205C58.1925 57.3781 58.6 57.5357 58.8902 57.9846C59.2493 58.5402 59.1921 59.1448 59.0514 59.5324C58.9319 59.861 58.7398 60.0941 58.6236 60.2219C58.5343 60.32 58.4311 60.4131 58.3228 60.5061C60.1924 64.5309 61.9296 67.6871 63.3912 69.7043C63.6959 70.1248 64.014 70.5519 64.2066 70.8303C64.2836 70.9415 64.4258 71.1506 64.5191 71.3537C64.545 71.41 64.6016 71.5368 64.6393 71.7033C64.6575 71.784 64.7884 72.3317 64.4625 72.8889C64.0336 73.621 63.3253 73.6153 63.106 73.5881C62.8712 73.5588 62.6961 73.4705 62.6393 73.4416C62.4147 73.3273 62.1901 73.1364 62.065 73.0295C61.892 72.8816 61.6699 72.6817 61.398 72.4299C60.8514 71.9237 60.0576 71.1645 58.9518 70.1008C56.8281 68.0581 54.7902 66.0969 52.857 64.2365C52.089 64.7408 51.3027 65.2512 50.5435 65.7248C49.9553 67.1138 49.3553 68.5392 48.7496 69.9953C48.127 71.492 47.6068 72.7716 47.2018 73.676C47.0002 74.126 46.8037 74.5365 46.6178 74.8567C46.5256 75.0152 46.4122 75.1936 46.2789 75.3547C46.1726 75.4831 45.9197 75.769 45.5221 75.9133C45.294 75.9959 44.9999 76.0381 44.6803 75.9543C44.3618 75.8706 44.12 75.6898 43.9547 75.508C43.665 75.1895 43.5574 74.815 43.5133 74.6428C43.4133 74.2522 43.3814 73.7703 43.3697 73.3068C43.3451 72.3252 43.4018 70.8233 43.5103 68.7775C43.5392 68.2347 43.575 67.6504 43.6109 67.0315C43.4771 66.5161 43.6024 66.0588 43.6793 65.8381C43.7258 65.0689 43.7766 64.2553 43.8307 63.4065C43.3839 63.5215 42.9448 63.6404 42.5162 63.7483C39.954 64.3929 37.5951 64.9341 36.2203 65.051C36.1806 65.0543 36.1058 65.0591 36.0143 65.0529C35.9794 65.0505 35.8856 65.0412 35.7623 65.008C35.71 65.0694 35.6554 65.1316 35.5973 65.1897C35.1511 65.6352 34.4993 65.9854 33.6695 65.8791C32.9359 65.7848 32.2565 65.3551 31.6227 64.7815C30.971 64.1917 30.2384 63.3321 29.3922 62.1535C28.441 60.8287 27.2876 59.0049 26.023 56.9045C25.5788 56.9939 25.1412 57.0822 24.7125 57.1652C22.3317 57.6266 20.164 57.9874 18.6637 58.0188C17.9767 58.033 17.1446 57.9939 16.5084 57.6477C16.1423 57.4483 15.6911 57.0619 15.5143 56.3918C15.3458 55.7529 15.516 55.1829 15.6891 54.8117L15.817 54.5705C15.9559 54.3394 16.122 54.1367 16.2701 53.9719C16.4826 53.7355 16.74 53.4901 17.024 53.2385C17.5933 52.7342 18.3487 52.1425 19.2545 51.4758C19.9915 50.9333 20.8457 50.3297 21.8053 49.6672C19.7959 46.1565 17.753 42.5509 15.9566 39.507C14.8594 37.6479 13.8507 35.9944 12.9762 34.5686C12.106 33.1499 11.3579 31.9377 10.7975 30.9865C10.2689 30.0894 9.80589 29.2617 9.61191 28.677C9.56082 28.5229 9.49011 28.277 9.47812 27.9943C9.46728 27.7341 9.49977 27.1041 10.0162 26.6359C10.5112 26.1878 11.0671 26.2425 11.2789 26.2805C11.5254 26.3248 11.739 26.4207 11.8834 26.4943C12.4325 26.7744 13.2289 27.3976 14.1041 28.1291C14.5076 28.4664 14.9534 28.8495 15.4361 29.2707C14.224 27.1104 13.2302 25.1852 12.5924 23.715C12.1723 22.7468 11.8677 21.8942 11.7193 21.175C11.5911 20.5529 11.4819 19.5812 12.0172 18.7863C12.64 17.8626 13.6234 17.8546 14.1812 17.9387C14.7868 18.0302 15.4584 18.2985 16.1266 18.6242C17.4859 19.2869 19.268 20.4088 21.3336 21.7668C23.2847 23.0495 25.4574 24.5201 27.9322 26.1438C28.0338 26.0431 28.162 25.947 28.3189 25.8723C28.7354 25.6743 29.1274 25.7374 29.3795 25.8371C29.7751 25.9939 29.9967 26.3008 30.0309 26.3459C30.172 26.5326 30.2814 26.7531 30.3521 26.9025C30.4783 27.1691 30.6282 27.5401 30.8082 28.009C34.2819 30.2393 38.0558 32.5873 41.7838 34.8752C42.2547 33.0734 42.7475 31.1701 43.2389 29.2238C43.3737 28.474 43.5089 27.7283 43.6451 26.9914C43.1564 26.5647 42.7874 26.04 42.5631 25.382C42.3092 24.6372 42.2797 23.8345 42.3053 23.0637C42.4525 18.6392 43.9807 14.7442 45.7105 11.8391C46.2614 10.9141 46.8378 10.0793 47.4059 9.35177C47.4187 9.3206 47.4303 9.28844 47.4439 9.259C47.4679 9.20765 47.5151 9.11108 47.5855 9.00704C47.61 8.97081 47.7631 8.73467 48.0553 8.56075C48.1609 8.43857 48.2678 8.3203 48.3717 8.20626C49.208 7.28822 50.0579 6.55023 50.7779 6.17892L51.0074 6.08126ZM46.3531 68.0188C46.3448 68.1665 46.3346 68.3125 46.3268 68.4553C46.3983 68.2835 46.4712 68.1116 46.5426 67.9406C46.4792 67.967 46.4161 67.9946 46.3531 68.0188ZM55.3355 62.5813C55.8418 63.0683 56.3556 63.5616 56.8756 64.0617C56.574 63.4487 56.2699 62.8124 55.9625 62.1555C55.7626 62.2914 55.5529 62.4342 55.3355 62.5813ZM23.2769 52.2336C22.3508 52.8734 21.5311 53.4513 20.8277 53.969C20.3412 54.327 19.9159 54.652 19.5533 54.9406C20.7565 54.8257 22.3523 54.5581 24.2184 54.1965C24.2779 54.185 24.338 54.1711 24.398 54.1594C24.0297 53.5296 23.6543 52.8868 23.2769 52.2336ZM58.6412 49.2063C58.4077 49.5437 58.1678 49.8824 57.9293 50.2248C57.957 50.2247 57.9857 50.225 58.0133 50.2248C58.2544 49.9245 58.499 49.6227 58.7398 49.3156C58.8538 49.1703 58.9646 49.021 59.0777 48.8752C59.0287 48.8448 58.979 48.8142 58.9293 48.7834C58.833 48.9229 58.7383 49.066 58.6412 49.2063ZM62.2223 43.8928C61.7228 44.6639 61.1781 45.4859 60.6021 46.34C60.6913 46.3954 60.78 46.4501 60.8668 46.5041C61.5246 45.6046 62.1457 44.7197 62.7135 43.882C62.5505 43.8855 62.3863 43.8894 62.2223 43.8928ZM56.7809 43.9953C56.8745 44.0523 56.9687 44.1089 57.0611 44.1652C57.0896 44.106 57.1189 44.0469 57.1471 43.9885C57.0253 43.9907 56.9026 43.9931 56.7809 43.9953ZM58.4088 40.7688C57.7074 40.8299 56.9696 40.9024 56.2027 40.9875C57.0219 40.9728 57.8432 40.9588 58.6598 40.9436C58.6955 40.8743 58.7314 40.8053 58.7662 40.7385C58.6486 40.7482 58.5289 40.7583 58.4088 40.7688ZM64.1051 40.8313C64.2898 40.8272 64.474 40.8237 64.6568 40.8195C64.6731 40.7914 64.6887 40.7624 64.7047 40.7346C64.6438 40.7227 64.5776 40.7059 64.5055 40.6945C64.4105 40.6796 64.31 40.6688 64.2057 40.6565C64.1734 40.7141 64.1388 40.7721 64.1051 40.8313ZM65.0094 36.7522C65.0955 36.8839 65.1616 37.0212 65.2066 37.1565C65.2807 37.3793 65.3025 37.5961 65.3023 37.7844C65.943 37.9171 66.6244 38.1454 67.1246 38.6096C67.4741 38.934 67.7753 39.4117 67.8404 40.0344C67.8665 40.2846 67.848 40.5214 67.8053 40.7404C69.5991 40.6916 71.2263 40.6409 72.5924 40.5822C73.0181 40.5639 73.4148 40.545 73.7818 40.5256C73.6895 40.4855 73.5947 40.4431 73.4986 40.4016C70.5263 39.1163 67.6793 37.896 65.0094 36.7522ZM53.0445 34.0363C52.7929 35.4467 52.5253 36.936 52.2564 38.4475C54.3963 38.1548 56.3967 37.9166 58.1832 37.7609C59.181 37.674 60.1281 37.6104 61.0055 37.5764C61.443 37.204 61.8266 36.9012 62.1559 36.6731C62.3895 36.5112 62.6285 36.365 62.8609 36.2561C62.9903 36.1955 63.1886 36.1155 63.4264 36.0734C59.8693 34.5502 56.662 33.1754 53.9342 31.9895C53.7693 31.9178 53.6065 31.845 53.4449 31.7746C53.3181 32.4985 53.1837 33.2563 53.0445 34.0363ZM49.7525 36.3508C49.7578 36.3834 49.7628 36.4168 49.7682 36.4494C49.7831 36.3659 49.7982 36.2816 49.8131 36.1984C49.7929 36.2489 49.7728 36.3003 49.7525 36.3508ZM16.4654 34.8078L15.9713 33.6545C15.8717 33.5651 15.7739 33.4753 15.6764 33.3879C15.6213 33.3386 15.5657 33.2891 15.5113 33.2404C15.8147 33.7357 16.1324 34.2596 16.4654 34.8078ZM14.648 21.2219C14.7602 21.5518 14.9145 21.953 15.1226 22.4328C16.1033 24.6929 18.0476 28.2256 20.3756 32.0539L28.3238 31.3322C28.1563 30.7183 28.0087 30.1578 27.8873 29.6672C27.8845 29.6561 27.8822 29.6441 27.8795 29.633C27.6247 29.4677 27.3702 29.3063 27.1197 29.1428C24.4134 27.3762 21.9135 25.6815 19.8805 24.3449C17.7978 22.9757 16.1567 21.9502 14.9771 21.3752C14.8592 21.3177 14.7492 21.2669 14.648 21.2219ZM49.1764 30.0256C49.1913 29.986 49.2064 29.9458 49.2213 29.9065C49.2047 29.899 49.188 29.8915 49.1715 29.884C49.1726 29.9308 49.1752 29.9784 49.1764 30.0256Z" fill="#FBE300"/>
<path fill-rule="evenodd" clip-rule="evenodd" d="M51.0074 6.08126C51.2747 5.99102 51.6473 5.94358 52.0543 6.11544C52.5956 6.34456 52.8448 6.81493 52.9478 7.09103C53.1298 7.57935 53.1125 8.12913 53.0914 8.467C53.0412 9.26769 52.8343 10.4019 52.5348 11.7297C52.2994 12.7726 51.9929 13.9908 51.6295 15.3498C51.6308 15.3566 51.6335 15.3629 51.6344 15.3684C51.6664 15.5751 51.654 15.7512 51.65 15.8029C51.6437 15.884 51.6329 15.9613 51.6236 16.0217C51.6047 16.1443 51.5777 16.2831 51.5475 16.424C51.4859 16.7108 51.3936 17.0892 51.2769 17.5422C51.0423 18.4537 50.6907 19.7259 50.2389 21.2912C49.9454 22.3078 49.5933 23.4418 49.2164 24.6262C49.2093 25.2205 49.1949 25.8834 49.1803 26.6096C49.5267 26.7697 49.8932 26.9389 50.2789 27.1135C50.7111 25.9728 51.077 25.0233 51.3521 24.3918C51.4223 24.2308 51.4966 24.0738 51.5728 23.9338C51.6376 23.8151 51.7532 23.6184 51.9195 23.4416C52.0018 23.3543 52.1669 23.194 52.4137 23.0842C52.6917 22.9608 53.1086 22.8911 53.5445 23.0979C53.9416 23.2866 54.1481 23.6097 54.2398 23.7922C54.3342 23.98 54.3763 24.1535 54.3971 24.2561C54.4681 24.6072 54.4487 25.01 54.4312 25.2688C54.4096 25.5892 54.3666 25.9764 54.3111 26.4065C54.2283 27.048 54.1054 27.8384 53.9586 28.7414C54.2906 28.8865 54.6302 29.0384 54.9781 29.1897C60.1139 31.4225 66.8512 34.2756 74.5367 37.5988C75.8585 38.1704 76.9531 38.6555 77.7066 39.0617C78.0727 39.2591 78.4441 39.4822 78.733 39.7336C78.8757 39.8578 79.0713 40.052 79.2252 40.3205C79.3883 40.6054 79.5564 41.0745 79.4352 41.6359C79.3185 42.1747 78.9978 42.5052 78.7789 42.675C78.5599 42.8447 78.3279 42.9474 78.149 43.0129C77.7874 43.1452 77.3429 43.2316 76.8746 43.2971C75.9177 43.4308 74.5274 43.5205 72.7027 43.5988C70.9108 43.6758 68.668 43.743 66.1861 43.8039C65.3678 45.104 64.3744 46.5577 63.2955 48.0451C63.9478 48.4733 64.479 48.84 64.8941 49.1516C65.2838 49.4441 65.6367 49.7367 65.8971 50.0256C66.026 50.1687 66.1851 50.369 66.3072 50.6213C66.4289 50.8727 66.579 51.3131 66.4664 51.843C66.3481 52.3984 66.0106 52.7374 65.7516 52.9143C65.5093 53.0795 65.2628 53.1588 65.0963 53.2004C64.7594 53.2845 64.3699 53.308 64.0191 53.3166C63.3058 53.334 62.2859 53.2896 61.1949 53.2649C61.1045 53.2628 61.0123 53.2618 60.9195 53.26C61.05 53.3942 61.1777 53.5745 61.2623 53.8088C61.3803 54.1361 61.3731 54.4475 61.3258 54.6838C61.2446 55.0881 61.0348 55.3398 60.9801 55.4045C60.8351 55.5756 60.6763 55.6843 60.6246 55.7199C60.5453 55.7745 60.4634 55.8252 60.3893 55.8674C60.2385 55.9531 60.0558 56.0443 59.86 56.1369C59.4644 56.324 58.9492 56.5439 58.3746 56.7619L58.3141 56.7834L58.2525 56.8C57.7773 56.9292 57.3025 57.0523 56.8316 57.176C56.8398 57.195 56.8478 57.2146 56.856 57.2336C57.0605 57.2185 57.2599 57.2119 57.443 57.2219C57.5969 57.2303 57.802 57.2528 58.0133 57.3205C58.1925 57.3781 58.6 57.5357 58.8902 57.9846C59.2493 58.5402 59.1921 59.1448 59.0514 59.5324C58.9319 59.861 58.7398 60.0941 58.6236 60.2219C58.5343 60.32 58.4311 60.4131 58.3228 60.5061C60.1924 64.5309 61.9296 67.6871 63.3912 69.7043C63.6959 70.1248 64.014 70.5519 64.2066 70.8303C64.2836 70.9415 64.4258 71.1506 64.5191 71.3537C64.545 71.41 64.6016 71.5368 64.6393 71.7033C64.6575 71.784 64.7884 72.3317 64.4625 72.8889C64.0336 73.621 63.3253 73.6153 63.106 73.5881C62.8712 73.5588 62.6961 73.4705 62.6393 73.4416C62.4147 73.3273 62.1901 73.1364 62.065 73.0295C61.892 72.8816 61.6699 72.6817 61.398 72.4299C60.8514 71.9237 60.0576 71.1645 58.9518 70.1008C56.8281 68.0581 54.7902 66.0969 52.857 64.2365C52.089 64.7408 51.3027 65.2512 50.5435 65.7248C49.9553 67.1138 49.3553 68.5392 48.7496 69.9953C48.127 71.492 47.6068 72.7716 47.2018 73.676C47.0002 74.126 46.8037 74.5365 46.6178 74.8567C46.5256 75.0152 46.4122 75.1936 46.2789 75.3547C46.1726 75.4831 45.9197 75.769 45.5221 75.9133C45.294 75.9959 44.9999 76.0381 44.6803 75.9543C44.3618 75.8706 44.12 75.6898 43.9547 75.508C43.665 75.1895 43.5574 74.815 43.5133 74.6428C43.4133 74.2522 43.3814 73.7703 43.3697 73.3068C43.3451 72.3252 43.4018 70.8233 43.5103 68.7775C43.5392 68.2347 43.575 67.6504 43.6109 67.0315C43.4771 66.5161 43.6024 66.0588 43.6793 65.8381C43.7258 65.0689 43.7766 64.2553 43.8307 63.4065C43.3839 63.5215 42.9448 63.6404 42.5162 63.7483C39.954 64.3929 37.5951 64.9341 36.2203 65.051C36.1806 65.0543 36.1058 65.0591 36.0143 65.0529C35.9794 65.0505 35.8856 65.0412 35.7623 65.008C35.71 65.0694 35.6554 65.1316 35.5973 65.1897C35.1511 65.6352 34.4993 65.9854 33.6695 65.8791C32.9359 65.7848 32.2565 65.3551 31.6227 64.7815C30.971 64.1917 30.2384 63.3321 29.3922 62.1535C28.441 60.8287 27.2876 59.0049 26.023 56.9045C25.5788 56.9939 25.1412 57.0822 24.7125 57.1652C22.3317 57.6266 20.164 57.9874 18.6637 58.0188C17.9767 58.033 17.1446 57.9939 16.5084 57.6477C16.1423 57.4483 15.6911 57.0619 15.5143 56.3918C15.3458 55.7529 15.516 55.1829 15.6891 54.8117L15.817 54.5705C15.9559 54.3394 16.122 54.1367 16.2701 53.9719C16.4826 53.7355 16.74 53.4901 17.024 53.2385C17.5933 52.7342 18.3487 52.1425 19.2545 51.4758C19.9915 50.9333 20.8457 50.3297 21.8053 49.6672C19.7959 46.1565 17.753 42.5509 15.9566 39.507C14.8594 37.6479 13.8507 35.9944 12.9762 34.5686C12.106 33.1499 11.3579 31.9377 10.7975 30.9865C10.2689 30.0894 9.80589 29.2617 9.61191 28.677C9.56082 28.5229 9.49011 28.277 9.47812 27.9943C9.46728 27.7341 9.49977 27.1041 10.0162 26.6359C10.5112 26.1878 11.0671 26.2425 11.2789 26.2805C11.5254 26.3248 11.739 26.4207 11.8834 26.4943C12.4325 26.7744 13.2289 27.3976 14.1041 28.1291C14.5076 28.4664 14.9534 28.8495 15.4361 29.2707C14.224 27.1104 13.2302 25.1852 12.5924 23.715C12.1723 22.7468 11.8677 21.8942 11.7193 21.175C11.5911 20.5529 11.4819 19.5812 12.0172 18.7863C12.64 17.8626 13.6234 17.8546 14.1812 17.9387C14.7868 18.0302 15.4584 18.2985 16.1266 18.6242C17.4859 19.2869 19.268 20.4088 21.3336 21.7668C23.2847 23.0495 25.4574 24.5201 27.9322 26.1438C28.0338 26.0431 28.162 25.947 28.3189 25.8723C28.7354 25.6743 29.1274 25.7374 29.3795 25.8371C29.7751 25.9939 29.9967 26.3008 30.0309 26.3459C30.172 26.5326 30.2814 26.7531 30.3521 26.9025C30.4783 27.1691 30.6282 27.5401 30.8082 28.009C34.2819 30.2393 38.0558 32.5873 41.7838 34.8752C42.2547 33.0734 42.7475 31.1701 43.2389 29.2238C43.3737 28.474 43.5089 27.7283 43.6451 26.9914C43.1564 26.5647 42.7874 26.04 42.5631 25.382C42.3092 24.6372 42.2797 23.8345 42.3053 23.0637C42.4525 18.6392 43.9807 14.7442 45.7105 11.8391C46.2614 10.9141 46.8378 10.0793 47.4059 9.35177C47.4187 9.3206 47.4303 9.28844 47.4439 9.259C47.4679 9.20765 47.5151 9.11108 47.5855 9.00704C47.61 8.97081 47.7631 8.73467 48.0553 8.56075C48.1609 8.43857 48.2678 8.3203 48.3717 8.20626C49.208 7.28822 50.0579 6.55023 50.7779 6.17892L51.0074 6.08126ZM46.3531 68.0188C46.3448 68.1665 46.3346 68.3125 46.3268 68.4553C46.3983 68.2835 46.4712 68.1116 46.5426 67.9406C46.4792 67.967 46.4161 67.9946 46.3531 68.0188ZM55.3355 62.5813C55.8418 63.0683 56.3556 63.5616 56.8756 64.0617C56.574 63.4487 56.2699 62.8124 55.9625 62.1555C55.7626 62.2914 55.5529 62.4342 55.3355 62.5813ZM23.2769 52.2336C22.3508 52.8734 21.5311 53.4513 20.8277 53.969C20.3412 54.327 19.9159 54.652 19.5533 54.9406C20.7565 54.8257 22.3523 54.5581 24.2184 54.1965C24.2779 54.185 24.338 54.1711 24.398 54.1594C24.0297 53.5296 23.6543 52.8868 23.2769 52.2336ZM58.6412 49.2063C58.4077 49.5437 58.1678 49.8824 57.9293 50.2248C57.957 50.2247 57.9857 50.225 58.0133 50.2248C58.2544 49.9245 58.499 49.6227 58.7398 49.3156C58.8538 49.1703 58.9646 49.021 59.0777 48.8752C59.0287 48.8448 58.979 48.8142 58.9293 48.7834C58.833 48.9229 58.7383 49.066 58.6412 49.2063ZM62.2223 43.8928C61.7228 44.6639 61.1781 45.4859 60.6021 46.34C60.6913 46.3954 60.78 46.4501 60.8668 46.5041C61.5246 45.6046 62.1457 44.7197 62.7135 43.882C62.5505 43.8855 62.3863 43.8894 62.2223 43.8928ZM56.7809 43.9953C56.8745 44.0523 56.9687 44.1089 57.0611 44.1652C57.0896 44.106 57.1189 44.0469 57.1471 43.9885C57.0253 43.9907 56.9026 43.9931 56.7809 43.9953ZM58.4088 40.7688C57.7074 40.8299 56.9696 40.9024 56.2027 40.9875C57.0219 40.9728 57.8432 40.9588 58.6598 40.9436C58.6955 40.8743 58.7314 40.8053 58.7662 40.7385C58.6486 40.7482 58.5289 40.7583 58.4088 40.7688ZM64.1051 40.8313C64.2898 40.8272 64.474 40.8237 64.6568 40.8195C64.6731 40.7914 64.6887 40.7624 64.7047 40.7346C64.6438 40.7227 64.5776 40.7059 64.5055 40.6945C64.4105 40.6796 64.31 40.6688 64.2057 40.6565C64.1734 40.7141 64.1388 40.7721 64.1051 40.8313ZM65.0094 36.7522C65.0955 36.8839 65.1616 37.0212 65.2066 37.1565C65.2807 37.3793 65.3025 37.5961 65.3023 37.7844C65.943 37.9171 66.6244 38.1454 67.1246 38.6096C67.4741 38.934 67.7753 39.4117 67.8404 40.0344C67.8665 40.2846 67.848 40.5214 67.8053 40.7404C69.5991 40.6916 71.2263 40.6409 72.5924 40.5822C73.0181 40.5639 73.4148 40.545 73.7818 40.5256C73.6895 40.4855 73.5947 40.4431 73.4986 40.4016C70.5263 39.1163 67.6793 37.896 65.0094 36.7522ZM53.0445 34.0363C52.7929 35.4467 52.5253 36.936 52.2564 38.4475C54.3963 38.1548 56.3967 37.9166 58.1832 37.7609C59.181 37.674 60.1281 37.6104 61.0055 37.5764C61.443 37.204 61.8266 36.9012 62.1559 36.6731C62.3895 36.5112 62.6285 36.365 62.8609 36.2561C62.9903 36.1955 63.1886 36.1155 63.4264 36.0734C59.8693 34.5502 56.662 33.1754 53.9342 31.9895C53.7693 31.9178 53.6065 31.845 53.4449 31.7746C53.3181 32.4985 53.1837 33.2563 53.0445 34.0363ZM49.7525 36.3508C49.7578 36.3834 49.7628 36.4168 49.7682 36.4494C49.7831 36.3659 49.7982 36.2816 49.8131 36.1984C49.7929 36.2489 49.7728 36.3003 49.7525 36.3508ZM16.4654 34.8078L15.9713 33.6545C15.8717 33.5651 15.7739 33.4753 15.6764 33.3879C15.6213 33.3386 15.5657 33.2891 15.5113 33.2404C15.8147 33.7357 16.1324 34.2596 16.4654 34.8078ZM14.648 21.2219C14.7602 21.5518 14.9145 21.953 15.1226 22.4328C16.1033 24.6929 18.0476 28.2256 20.3756 32.0539L28.3238 31.3322C28.1563 30.7183 28.0087 30.1578 27.8873 29.6672C27.8845 29.6561 27.8822 29.6441 27.8795 29.633C27.6247 29.4677 27.3702 29.3063 27.1197 29.1428C24.4134 27.3762 21.9135 25.6815 19.8805 24.3449C17.7978 22.9757 16.1567 21.9502 14.9771 21.3752C14.8592 21.3177 14.7492 21.2669 14.648 21.2219ZM49.1764 30.0256C49.1913 29.986 49.2064 29.9458 49.2213 29.9065C49.2047 29.899 49.188 29.8915 49.1715 29.884C49.1726 29.9308 49.1752 29.9784 49.1764 30.0256Z" stroke="black" stroke-width="12" mask="url(#path-1-outside-1_515_2881)"/>
</svg>
