<svg width="70" height="70" viewBox="0 0 70 70" fill="none" xmlns="http://www.w3.org/2000/svg">
<path fill-rule="evenodd" clip-rule="evenodd" d="M41.5303 0.0815566C41.7977 -0.00880605 42.1705 -0.056678 42.5779 0.11545C43.1193 0.34461 43.3684 0.814929 43.4713 1.091C43.6533 1.57955 43.6357 2.12955 43.6146 2.46739C43.5644 3.26816 43.3577 4.40209 43.058 5.73004C42.8227 6.77295 42.5157 7.99033 42.1523 9.34931C42.1535 9.35641 42.1569 9.36277 42.1577 9.36846C42.1899 9.57565 42.1767 9.75191 42.1727 9.80319C42.1664 9.8842 42.1561 9.96086 42.1468 10.0213C42.128 10.144 42.1007 10.2826 42.0704 10.4236C42.0089 10.7104 41.917 11.0889 41.8004 11.5421C41.5657 12.4536 41.2142 13.7257 40.7623 15.291C40.4688 16.3076 40.1162 17.4415 39.7393 18.6259C39.7322 19.2203 39.7185 19.8832 39.7038 20.6094C40.0503 20.7696 40.4162 20.9388 40.8019 21.1134C41.2341 19.9726 41.6002 19.0231 41.8754 18.3916C41.9456 18.2304 42.02 18.0734 42.0964 17.9333C42.1611 17.8146 42.2763 17.6179 42.4428 17.4411C42.5251 17.3538 42.6899 17.1943 42.9366 17.0845C43.2147 16.9609 43.6313 16.8909 44.0674 17.0977C44.4647 17.2864 44.6713 17.6093 44.7631 17.7918C44.8575 17.9797 44.8992 18.1535 44.92 18.256C44.991 18.6072 44.9715 19.0097 44.9541 19.2684C44.9324 19.5889 44.8895 19.9759 44.834 20.4061C44.7512 21.0478 44.629 21.8385 44.4821 22.7418C44.8141 22.8869 45.1532 23.0385 45.501 23.1898C50.6369 25.4227 57.3746 28.2751 65.0603 31.5984C66.3823 32.17 67.4767 32.6555 68.2303 33.0617C68.5964 33.2591 68.9672 33.4823 69.2561 33.7337C69.3987 33.8579 69.5946 34.0517 69.7485 34.3202C69.9117 34.6051 70.08 35.0745 69.9586 35.6362C69.8419 36.175 69.5213 36.5053 69.3025 36.6751C69.0834 36.8449 68.8512 36.9471 68.6723 37.0126C68.3106 37.1448 67.8666 37.2315 67.3982 37.297C66.4413 37.4308 65.0508 37.5207 63.2256 37.5991C61.4336 37.676 59.1914 37.743 56.7095 37.8039C55.8911 39.104 54.8979 40.5576 53.8191 42.0451C54.4716 42.4734 55.0026 42.8402 55.4177 43.1518C55.8075 43.4443 56.1599 43.7367 56.4203 44.0256C56.5492 44.1688 56.7088 44.3687 56.8309 44.621C56.9525 44.8724 57.1018 45.3128 56.9891 45.8426C56.8708 46.3983 56.5334 46.7371 56.2744 46.914C56.0322 47.0792 55.7862 47.1582 55.6196 47.1999C55.2826 47.284 54.893 47.3077 54.542 47.3163C53.8287 47.3337 52.8094 47.2895 51.7184 47.2647C51.6279 47.2627 51.5357 47.2621 51.4429 47.2603C51.5733 47.3945 51.7007 47.5742 51.7853 47.8085C51.9033 48.1359 51.8967 48.4474 51.8494 48.6838C51.7681 49.0885 51.5574 49.3401 51.5029 49.4044C51.3579 49.5755 51.2 49.6842 51.1482 49.7198C51.0688 49.7745 50.9865 49.8249 50.9123 49.8672C50.7615 49.9529 50.5789 50.0442 50.383 50.1368C49.9874 50.3239 49.4722 50.5436 48.8975 50.7617L48.8375 50.7838L48.7761 50.8C48.3008 50.9292 47.8258 51.052 47.3548 51.1758C47.363 51.1948 47.3711 51.2142 47.3794 51.2332C47.5838 51.2181 47.7829 51.2114 47.9659 51.2214C48.1199 51.2299 48.3246 51.2525 48.5361 51.3202C48.7151 51.3776 49.1227 51.5355 49.4132 51.9848C49.7722 52.5404 49.7149 53.1445 49.5741 53.5321C49.4547 53.8607 49.2633 54.094 49.1472 54.2218C49.0578 54.32 48.9542 54.4131 48.8457 54.5062C50.7154 58.5313 52.4529 61.6875 53.9145 63.7047C54.2194 64.1254 54.5376 64.5521 54.7303 64.8305C54.8072 64.9418 54.9493 65.1505 55.0426 65.3537C55.0685 65.41 55.125 65.5364 55.1627 65.7029C55.1807 65.7828 55.3119 66.3313 54.9853 66.8892C54.5564 67.6213 53.8487 67.6149 53.6295 67.5877C53.3945 67.5584 53.2199 67.4708 53.163 67.4418C52.9383 67.3275 52.7139 67.1362 52.5887 67.0292C52.4156 66.8813 52.1936 66.6813 51.9217 66.4295C51.375 65.9232 50.5804 65.1649 49.4745 64.1011C47.3508 62.0582 45.3132 60.0965 43.3799 58.236C42.6119 58.7403 41.8256 59.2508 41.0665 59.7244C40.4782 61.1134 39.8785 62.5388 39.2728 63.995C38.6501 65.492 38.1297 66.7717 37.7246 67.6762C37.523 68.1262 37.3267 68.5364 37.1407 68.8565C37.0486 69.0151 36.9358 69.1936 36.8025 69.3546C36.6962 69.4829 36.4432 69.7688 36.0454 69.9131C35.8173 69.9958 35.5234 70.0382 35.2038 69.9544C34.8851 69.8707 34.6435 69.6897 34.4781 69.5079C34.1883 69.1893 34.0803 68.8151 34.0362 68.6429C33.9361 68.2521 33.9046 67.7699 33.8929 67.3063C33.8683 66.3246 33.9249 64.8235 34.0334 62.7778C34.0622 62.2348 34.0984 61.6505 34.1344 61.0315C34.0004 60.516 34.1257 60.0585 34.2026 59.8378C34.2491 59.0687 34.2999 58.2552 34.354 57.4063C33.907 57.5214 33.4678 57.6403 33.039 57.7482C30.4769 58.3929 28.1187 58.9341 26.7439 59.0509C26.7043 59.0543 26.6298 59.0586 26.5379 59.0524C26.5035 59.05 26.4094 59.0415 26.2856 59.0082C26.2333 59.0696 26.1786 59.1314 26.1205 59.1894C25.6744 59.635 25.0229 59.9854 24.1931 59.8791C23.4592 59.7849 22.7797 59.355 22.1457 58.7812C21.494 58.1914 20.7616 57.3323 19.9154 56.1537C18.9642 54.8289 17.8109 53.0051 16.5462 50.9046C16.1019 50.994 15.6642 51.0823 15.2354 51.1654C12.8546 51.6268 10.6874 51.9873 9.18714 52.0187C8.50014 52.033 7.66823 51.9936 7.03193 51.6473C6.66584 51.448 6.21444 51.062 6.03753 50.3918C5.86905 49.7529 6.0391 49.1832 6.21213 48.812L6.34036 48.5704C6.4793 48.3393 6.64513 48.1369 6.79322 47.9721C7.00577 47.7355 7.26338 47.49 7.54755 47.2382C8.1168 46.7339 8.87193 46.1424 9.77778 45.4757C10.5148 44.9333 11.369 44.3301 12.3286 43.6675C10.319 40.1567 8.27599 36.5508 6.47949 33.5068C5.38225 31.6476 4.37358 29.9945 3.49903 28.5686C2.62883 27.1498 1.88112 25.9374 1.32063 24.9861C0.792036 24.089 0.329248 23.2617 0.135264 22.6769C0.0841725 22.5229 0.0135798 22.2773 0.00158618 21.9947C-0.00930612 21.7346 0.0223204 21.1044 0.539024 20.636C1.03412 20.1875 1.59034 20.2428 1.80214 20.2808C2.04862 20.3252 2.26199 20.4208 2.40642 20.4945C2.95551 20.7745 3.75188 21.3973 4.6271 22.1288C5.03076 22.4661 5.47685 22.8494 5.95978 23.2708C4.74758 21.1104 3.75363 19.1854 3.11573 17.7152C2.69556 16.7467 2.39108 15.8939 2.24273 15.1746C2.11447 14.5525 2.00468 13.5807 2.54009 12.7858C3.16306 11.8619 4.14704 11.8543 4.70485 11.9385C5.31037 12.03 5.9818 12.298 6.65 12.6237C8.00936 13.2864 9.79098 14.4091 11.8566 15.767C13.8078 17.0498 15.9809 18.52 18.4559 20.1438C18.5575 20.043 18.685 19.9473 18.8419 19.8726C19.2588 19.6743 19.6511 19.7374 19.9032 19.8372C20.2988 19.9941 20.5197 20.3005 20.5538 20.3456C20.6951 20.5325 20.805 20.7532 20.8757 20.9027C21.0019 21.1693 21.1512 21.5403 21.3313 22.0094C24.805 24.2397 28.5785 26.5871 32.3065 28.8751C32.7775 27.0733 33.2706 25.17 33.762 23.2237C33.8968 22.4737 34.0323 21.728 34.1685 20.9911C33.6798 20.5644 33.3111 20.0398 33.0868 19.3819C32.8329 18.637 32.8034 17.8347 32.829 17.0638C32.9761 12.6392 34.5038 8.74425 36.2336 5.83909C36.7845 4.91403 37.361 4.07914 37.9292 3.35157C37.9421 3.32033 37.9536 3.28824 37.9674 3.25873C37.9914 3.20733 38.0387 3.11092 38.1092 3.00674C38.1337 2.9705 38.2862 2.73415 38.5785 2.56023C38.6841 2.43804 38.791 2.32059 38.8949 2.20655C39.7313 1.28842 40.5811 0.550155 41.3011 0.178817L41.5303 0.0815566ZM36.8761 62.0188C36.8678 62.1665 36.858 62.3122 36.8502 62.455C36.9218 62.2832 36.9944 62.1117 37.0657 61.9407C37.0023 61.9671 36.9391 61.9946 36.8761 62.0188ZM45.8584 56.5811C46.3648 57.0683 46.8784 57.5619 47.3985 58.0621C47.0968 57.4489 46.7934 56.8123 46.4859 56.1552C46.2859 56.2912 46.0759 56.4339 45.8584 56.5811ZM27.1927 48.8047C24.7348 49.2166 22.079 49.7669 19.5171 50.2975C20.4872 51.8816 21.3706 53.2552 22.1239 54.3043C22.9087 55.3973 23.5016 56.0713 23.9394 56.4676C24.1171 56.6284 24.2543 56.7248 24.35 56.7859C24.3864 56.7248 24.4346 56.6461 24.4919 56.5413C24.6821 56.1928 24.844 55.8891 25.1193 55.1679C25.0239 55.1664 24.9322 55.1646 24.8451 55.1605C24.6103 55.1494 24.3702 55.1274 24.1508 55.0824C23.9929 55.05 23.6047 54.9634 23.2683 54.6698L21.1799 52.8469L23.7594 52.0467C24.3636 51.8589 25.2654 51.6267 26.3988 51.3555C26.6284 50.6286 26.8907 49.7853 27.1927 48.8047ZM28.1816 54.9704C28.1443 55.0801 28.1089 55.1862 28.0739 55.2872C28.3923 55.1581 28.7459 55.0154 29.131 54.8613C28.8014 54.9024 28.4843 54.9375 28.1816 54.9704ZM29.573 50.6276C30.3429 50.4577 31.1631 50.2784 32.0242 50.0941C31.8987 49.9897 31.7696 49.8844 31.6395 49.7758C31.1902 49.4005 30.7116 48.9993 30.2059 48.5718C29.9768 49.3211 29.766 50.0042 29.573 50.6276ZM13.8004 46.2332C12.874 46.8731 12.0541 47.4513 11.3505 47.9691C10.864 48.3272 10.4391 48.6516 10.0765 48.9402C11.2797 48.8253 12.8755 48.5577 14.7416 48.1961C14.8012 48.1845 14.8615 48.171 14.9216 48.1592C14.5533 47.5294 14.1778 46.8864 13.8004 46.2332ZM40.4881 47.5005C40.4648 47.7873 40.4435 48.0686 40.4281 48.3419C41.053 48.2136 41.6837 48.0842 42.3173 47.9544C42.451 47.7661 42.5853 47.5765 42.7197 47.387C41.999 47.4185 41.2545 47.4572 40.4881 47.5005ZM18.6537 42.9646C17.7736 43.5468 16.9423 44.0997 16.1643 44.6225C16.748 45.6338 17.3204 46.6197 17.8762 47.5624C19.4116 47.2453 21.0248 46.9079 22.6354 46.5883C22.2958 46.3366 21.9608 46.0483 21.6423 45.7498C20.86 45.0162 19.9891 44.053 19.0711 42.944C19.0258 42.8893 18.9816 42.833 18.9361 42.7775C18.8415 42.84 18.7471 42.9028 18.6537 42.9646ZM26.7057 45.8338C26.7899 45.8196 26.8744 45.8064 26.9581 45.7925C26.8954 45.7386 26.8331 45.6834 26.7698 45.629C26.7496 45.6979 26.7297 45.767 26.7057 45.8338ZM35.5025 40.5935C34.8089 41.7674 34.0976 42.7973 33.3828 43.5703C33.2322 43.7331 33.0784 43.8869 32.9231 44.0315C33.2279 44.3333 33.5419 44.6442 33.8656 44.9629C34.3166 44.9219 34.763 44.882 35.2038 44.845C35.3036 43.4226 35.4032 41.9977 35.5025 40.5935ZM40.8264 44.4618C41.0825 44.4481 41.3365 44.4359 41.5876 44.4235C41.4031 43.9351 41.2165 43.4423 41.0324 42.944C40.9565 43.4673 40.8907 43.9752 40.8264 44.4618ZM42.4278 38.495C43.1368 40.5087 43.848 42.4489 44.5585 44.3012C44.6154 44.2994 44.6725 44.2971 44.729 44.2953C45.1425 43.3855 45.541 42.518 45.9212 41.6973C46.0537 41.4112 46.1857 41.1307 46.314 40.8558C45.1169 40.1265 43.8124 39.3339 42.4278 38.495ZM49.1649 43.2063C48.9313 43.5438 48.6914 43.8821 48.4529 44.2246C48.4805 44.2244 48.5085 44.2247 48.5361 44.2246C48.7773 43.9242 49.0222 43.6225 49.2631 43.3153C49.3772 43.1699 49.4882 43.0207 49.6014 42.8747C49.5523 42.8443 49.5025 42.8142 49.4527 42.7834C49.3564 42.9229 49.262 43.066 49.1649 43.2063ZM21.3654 41.183C22.1586 42.1283 22.8685 42.9036 23.4743 43.4715C23.7568 43.7365 23.9946 43.9303 24.1849 44.0743C24.1891 43.9345 24.1908 43.7763 24.1849 43.5998C24.1826 43.53 24.1752 43.4577 24.1713 43.3846C23.3267 42.6503 22.4463 41.8789 21.5291 41.0754C21.4745 41.1112 21.4197 41.1474 21.3654 41.183ZM38.4748 38.1561C38.3398 40.0635 38.2034 42.0369 38.0642 44.0153C38.2978 42.2501 38.6066 40.2417 38.9536 38.1473C38.7932 38.1503 38.6333 38.1531 38.4748 38.1561ZM6.03481 27.2408C6.86384 28.594 7.81115 30.1491 8.83521 31.8843C10.6803 35.0106 12.7156 38.6006 14.6925 42.0568C15.4519 41.5466 16.2572 41.0091 17.1055 40.4476C15.7965 38.7146 14.4142 36.7607 13.0474 34.7299C12.419 33.7962 11.7951 32.8393 11.1759 31.8799C9.35797 30.2369 7.6615 28.6979 6.19986 27.3882C6.14467 27.3387 6.08934 27.2896 6.03481 27.2408ZM52.7456 37.8923C52.246 38.6636 51.7011 39.4857 51.1251 40.3401C51.2143 40.3955 51.3028 40.4495 51.3897 40.5036C52.0475 39.6041 52.6688 38.7197 53.2366 37.882C53.0736 37.8854 52.9096 37.8889 52.7456 37.8923ZM27.9006 38.4228C28.2913 38.8677 28.7463 39.3975 29.2565 40.0011C29.2769 40.0253 29.2973 40.0504 29.3179 40.0748C29.3507 39.9529 29.3844 39.8242 29.4202 39.6916C29.5266 39.2977 29.6434 38.854 29.7748 38.3683C29.0623 38.3908 28.4366 38.4059 27.9006 38.4228ZM33.3159 38.2637C33.2306 38.5477 33.1452 38.8305 33.0609 39.111C33.2225 38.841 33.3887 38.5573 33.5546 38.2593C33.4746 38.2612 33.3947 38.2617 33.3159 38.2637ZM47.3043 37.9955C47.398 38.0525 47.4915 38.1086 47.584 38.165C47.6125 38.1057 47.6417 38.0466 47.6699 37.9881C47.5482 37.9903 47.426 37.9933 47.3043 37.9955ZM5.17136 15.2218C5.28356 15.5518 5.43781 15.9531 5.64605 16.4331C6.94357 19.4237 9.92705 24.6423 13.2561 29.8256C14.5237 30.9705 15.8478 32.1625 17.2037 33.3668C18.7968 34.7818 20.3181 36.125 21.7596 37.3928C22.0319 37.2149 22.3068 37.0335 22.5849 36.8519C22.1827 35.8225 21.7965 34.7593 21.4309 33.6969C20.1449 29.9593 18.9915 26.0134 18.4109 23.6672C18.4081 23.656 18.4055 23.6445 18.4027 23.6333C18.1479 23.468 17.8935 23.3062 17.6429 23.1426C14.9366 21.3761 12.4369 19.681 10.4039 18.3444C8.32104 16.9751 6.67963 15.95 5.5001 15.375C5.38214 15.3175 5.27251 15.2668 5.17136 15.2218ZM22.9041 26.5114C23.7259 29.0224 24.6547 32.0764 25.4167 35.0055C27.1391 33.8829 28.9535 32.6973 30.8538 31.4554C28.1829 29.8158 25.4905 28.1441 22.9041 26.5114ZM48.9316 34.7682C48.2302 34.8293 47.4928 34.9026 46.726 34.9878C47.5451 34.9731 48.3661 34.9588 49.1826 34.9436C49.2184 34.8742 49.2542 34.8057 49.289 34.7387C49.1713 34.7484 49.0519 34.7577 48.9316 34.7682ZM54.6279 34.8316C54.8129 34.8275 54.9974 34.8239 55.1804 34.8198C55.1967 34.7915 55.2121 34.7622 55.2281 34.7343C55.1672 34.7225 55.1012 34.7059 55.029 34.6945C54.9339 34.6796 54.8333 34.6686 54.7289 34.6562C54.6965 34.714 54.6617 34.7722 54.6279 34.8316ZM55.5323 30.7525C55.6184 30.8843 55.6851 31.021 55.7301 31.1563C55.8041 31.3791 55.8258 31.5957 55.8256 31.7841C56.4663 31.9168 57.1478 32.1451 57.648 32.6093C57.9974 32.9337 58.299 33.4116 58.3641 34.0343C58.3901 34.2846 58.3714 34.5211 58.3286 34.7402C60.1224 34.6914 61.7491 34.6412 63.1151 34.5825C63.5411 34.5642 63.9374 34.5445 64.3046 34.5251C64.2122 34.485 64.1183 34.4428 64.0222 34.4013C61.0498 33.116 58.2023 31.8964 55.5323 30.7525ZM43.5682 28.0366C43.3166 29.4469 43.0486 30.9358 42.7798 32.4472C44.9197 32.1545 46.9201 31.9161 48.7066 31.7605C49.7044 31.6736 50.6514 31.6103 51.5288 31.5763C51.9663 31.2039 52.3495 30.9011 52.6787 30.6729C52.9125 30.511 53.1514 30.3649 53.3839 30.2559C53.5134 30.1953 53.712 30.1152 53.95 30.0732C50.3928 28.5499 47.1854 27.1757 44.4575 25.9897C44.2925 25.9179 44.1296 25.845 43.9678 25.7745C43.841 26.4985 43.7073 27.2565 43.5682 28.0366ZM40.2753 30.3502C40.2807 30.383 40.2863 30.4161 40.2917 30.4489C40.3066 30.3654 40.3218 30.2816 40.3367 30.1984C40.3165 30.2489 40.2956 30.2997 40.2753 30.3502ZM39.6997 24.0253C39.7147 23.9856 39.7298 23.9455 39.7447 23.906C39.728 23.8984 39.7109 23.8914 39.6943 23.8839C39.6953 23.9307 39.6985 23.9781 39.6997 24.0253Z" fill="#FBE300"/>
</svg>
