<svg width="70" height="70" viewBox="0 0 70 70" fill="none" xmlns="http://www.w3.org/2000/svg">
<path fill-rule="evenodd" clip-rule="evenodd" d="M33.8452 0.464574C35.5242 -0.298276 37.2104 -0.0590127 38.7749 0.727505C40.2282 1.45829 41.747 2.73521 43.4204 4.36244C47.5037 8.33312 53.4003 15.3321 58.5128 21.8098C62.8925 25.0073 65.4104 28.3293 66.7845 31.4204C67.2242 32.4096 67.5384 33.3646 67.7622 34.2683C68.4832 35.3606 69.0111 36.2358 69.3631 36.9283C69.6063 37.4068 69.8023 37.8687 69.9087 38.2925C69.9914 38.6219 70.1392 39.3629 69.6927 40.0716C69.2432 40.7843 68.5282 41.0173 67.9706 41.0721C67.9237 41.3294 67.8803 41.5463 67.8474 41.7055C67.7999 41.935 67.8002 41.9465 67.8038 41.9052C67.7515 42.5047 67.4616 43.0438 66.9873 43.4504C66.5532 43.8221 66.0446 44.0163 65.6251 44.1248C64.8955 44.3134 64.0402 44.3371 63.1905 44.3007C62.5727 44.6746 61.875 44.8091 61.3698 44.8641C59.9432 45.0193 57.9613 44.7743 55.8812 44.4338C57.0025 47.6523 58.1827 50.9352 59.3786 54.1503C59.8852 54.6931 60.3744 55.2123 60.8355 55.7074C64.5975 59.7465 66.6443 61.9871 67.6087 63.0763C67.8491 63.3478 68.0319 63.5595 68.16 63.7132C68.2223 63.7878 68.2853 63.8636 68.3381 63.9334C68.3634 63.9669 68.4005 64.0187 68.4385 64.0768C68.4471 64.0895 68.5785 64.2803 68.6545 64.5344C68.6785 64.6148 68.7188 64.7738 68.7208 64.9766C68.7226 65.1635 68.6934 65.569 68.3836 65.9788C68.022 66.4567 67.4832 66.6758 67.0214 66.7283C66.6315 66.7726 66.3259 66.6993 66.1934 66.6617C65.9244 66.5853 65.7371 66.4729 65.6933 66.4466C65.6194 66.4023 65.5623 66.3608 65.5303 66.3373C65.4206 66.2568 65.3233 66.1685 65.2821 66.1308C65.1711 66.0291 65.0299 65.8911 64.8824 65.7432C64.7139 65.5741 64.5897 65.3824 64.5072 65.1815C63.7357 64.3127 62.2797 62.7224 59.8295 60.0799C59.6183 60.2614 59.3577 60.4185 59.0357 60.5204C58.3729 60.73 57.7802 60.609 57.4764 60.5238C57.1416 60.4299 56.8465 60.29 56.6276 60.1738C56.1911 59.942 55.7371 59.6312 55.3999 59.3987C54.1043 58.5053 52.7072 57.6286 51.2432 56.7694C51.0877 56.8585 50.9137 56.9326 50.7203 56.9811C50.2618 57.0959 49.8718 57.0329 49.6518 56.976C49.2561 56.8733 48.9952 56.6825 48.9318 56.6362C48.6465 56.428 48.4029 56.1272 48.3009 56.0028C48.0408 55.6853 47.667 55.1824 47.1907 54.5242C46.9168 54.3807 46.641 54.2378 46.3646 54.0957C46.3224 54.1478 46.2776 54.2008 46.2263 54.2511C45.8409 54.629 45.3859 54.75 45.1351 54.7906C44.6958 54.8615 44.3437 54.7735 44.292 54.7616C44.1719 54.7338 44.0764 54.6998 44.0248 54.6813C43.7418 54.5795 43.3558 54.3722 43.0624 54.2118C42.6991 54.0131 42.2272 53.7464 41.6717 53.4247C40.6417 52.8281 39.2906 52.0232 37.7348 51.0822C33.8532 53.5834 30.0033 55.9115 27.0758 57.5974C23.2547 61.6921 19.1586 65.8183 15.299 69.1937C14.882 69.5585 14.2752 69.9226 13.4821 69.9894C12.6623 70.0583 11.98 69.7824 11.4966 69.4498C10.6501 68.8673 10.0846 67.8949 9.67399 67.0322C8.79411 65.183 7.97249 62.3453 7.15229 59.1067C6.85676 57.9398 6.55918 56.71 6.25615 55.436C5.77509 56.2634 5.38362 56.9221 5.05877 57.425C4.81319 57.8052 4.58789 58.131 4.3843 58.3897C4.23358 58.5811 3.93067 58.9566 3.50331 59.2092C3.30283 59.3276 2.66419 59.6655 1.82849 59.4636C0.913904 59.2421 0.553827 58.5814 0.443548 58.3111C0.326234 58.023 0.305757 57.7585 0.299559 57.6231C0.29232 57.4634 0.299512 57.3089 0.310927 57.1774C0.436155 55.7386 1.31284 52.3201 4.03948 46.1019C3.2339 42.8125 2.36924 39.4923 1.40411 36.3717C0.963901 34.9485 0.497183 33.5675 0.240827 32.5063C0.110734 31.9676 0.00554356 31.4027 0.000213731 30.8741C-0.00473034 30.3768 0.0726686 29.6476 0.593221 29.0097C1.19085 28.2774 2.06706 28.0199 2.83263 27.9938C3.53096 27.9701 4.25499 28.1265 4.93183 28.3319C6.30499 28.7487 8.14825 29.5797 10.5398 30.7973C10.7506 30.9046 10.965 31.0193 11.1859 31.1336C11.235 31.0323 11.2828 30.9305 11.3318 30.8297C11.2703 30.2425 11.3493 29.601 11.722 29.0028C11.6154 28.8795 11.5137 28.7576 11.4227 28.6375C10.7185 27.7062 10.5755 26.6036 10.9832 25.525C10.9204 25.5061 10.8584 25.4896 10.8013 25.4721C10.5397 25.3917 10.1058 25.2591 9.81041 25.105C8.9569 24.6596 8.28724 24.2849 7.8173 23.9798C7.59071 23.8327 7.34494 23.6596 7.13903 23.471C7.03809 23.3785 6.88859 23.2291 6.75822 23.034C6.64796 22.8687 6.40221 22.452 6.46077 21.8883C6.53426 21.1854 7.01859 20.7122 7.47627 20.4781C7.85102 20.2866 8.20778 20.2454 8.37052 20.2322C8.71941 20.204 9.05779 20.2444 9.27424 20.2766C9.75787 20.3486 10.3756 20.4949 11.0495 20.6744C12.032 20.9362 13.3013 21.3221 14.7799 21.7859C15.2164 21.5157 15.6592 21.2613 16.1061 21.021C16.1371 20.9577 16.1682 20.8944 16.199 20.8315C16.2508 20.5276 16.2977 20.2837 16.3411 20.111C16.5332 19.3459 16.7894 18.634 17.1652 18.0571C17.362 17.7551 17.6351 17.4284 18.0007 17.159C18.7101 15.7194 19.3599 14.4059 19.9465 13.2321C21.4589 10.2054 22.5735 8.04396 23.1692 7.03273C23.3077 6.79754 23.4719 6.53142 23.6333 6.33101C23.678 6.27557 23.7507 6.18834 23.8474 6.0971C23.9025 6.04514 24.1505 5.80871 24.5579 5.66002C24.7893 5.57568 25.2013 5.4735 25.7022 5.56953C26.2469 5.67412 26.6409 5.96347 26.8788 6.2593C27.2497 6.72111 27.2518 7.20156 27.2539 7.26493C27.2627 7.52515 27.2089 7.75676 27.1895 7.8386C27.1598 7.96371 27.1211 8.09827 27.0796 8.22958C26.9958 8.49488 26.8747 8.83363 26.7234 9.23691C26.5767 9.62797 26.4216 10.0414 26.2592 10.4747C26.3615 10.2909 26.4625 10.109 26.5624 9.93009C27.9289 7.48158 29.0988 5.44845 30.1829 3.91341C31.2328 2.42705 32.3897 1.12613 33.8452 0.464574ZM28.0762 47.1809C25.5808 49.7481 23.4089 52.226 21.7406 54.1264C20.6374 55.3832 19.6942 56.4573 19.0484 57.0835C18.8818 57.2451 18.7023 57.4085 18.5217 57.5496C18.3938 57.6496 18.0675 57.9022 17.6218 58.0397C17.3832 58.1132 16.8842 58.2237 16.2994 58.0482C15.6329 57.8478 15.2512 57.3994 15.0755 57.0238C14.923 56.6976 14.9054 56.4022 14.905 56.2504C14.9046 56.0785 14.9268 55.9239 14.9485 55.8064L15.0944 55.1064C15.4563 53.5541 16.1088 51.6959 16.9227 49.689C15.484 52.0458 14.0396 54.462 12.6542 56.853C12.3806 57.3253 12.0536 57.8163 11.6614 58.1762C11.5336 58.2935 11.3149 58.4702 11.0116 58.6167C11.8109 61.747 12.5393 64.1825 13.2396 65.6544C13.295 65.7707 13.3516 65.874 13.4007 65.9669C15.964 63.6756 18.6347 61.0656 21.2462 58.3675C21.1199 58.0935 21.0896 57.8453 21.087 57.6879C21.0833 57.4595 21.1268 57.2718 21.159 57.1587C21.2233 56.9329 21.3227 56.7372 21.392 56.6106C21.6621 56.1174 22.1836 55.4312 22.7732 54.7052C24.0087 53.184 25.9476 50.9981 28.0762 48.68C28.2544 48.4859 28.4349 48.2907 28.6161 48.0944C28.418 47.8049 28.2406 47.4981 28.0762 47.1809ZM53.1378 52.9023C52.9626 53.0763 52.7682 53.2332 52.5562 53.3718C53.3378 53.8196 54.1039 54.2746 54.8505 54.7342C54.2968 54.142 53.725 53.5294 53.1378 52.9023ZM50.0439 50.5939C50.0569 50.5929 50.0699 50.5935 50.0818 50.5922C50.1725 50.582 50.223 50.5639 50.2504 50.5529C50.2547 50.5384 50.2622 50.5175 50.2675 50.4898C50.2803 50.4228 50.2917 50.3294 50.294 50.2081C50.2961 50.0994 50.2873 49.9776 50.2751 49.8444C49.898 49.4424 49.516 49.0371 49.1326 48.6288C49.4498 49.3257 49.7554 49.9836 50.0439 50.5939ZM13.575 46.4912C13.3012 47.4262 13.0548 48.3051 12.8399 49.1256C13.0579 48.7658 13.2773 48.4073 13.4954 48.05C13.4982 47.8606 13.5062 47.6385 13.5181 47.4063C13.5315 47.1476 13.5515 46.8398 13.575 46.4912ZM22.0324 47.49C21.8182 47.9649 21.6096 48.4333 21.4091 48.8934C21.8785 48.3718 22.3714 47.8321 22.8831 47.2783C22.5852 47.3547 22.3015 47.4266 22.0324 47.49ZM62.7263 38.8013C63.2668 39.434 63.7746 40.1169 64.0885 40.7699C64.109 40.6669 64.1335 40.5558 64.1549 40.4352C64.1919 40.2261 64.2246 39.988 64.2572 39.725C64.2405 39.7152 64.2225 39.7056 64.206 39.6959C63.7068 39.4043 63.2137 39.1048 62.7263 38.8013ZM4.0319 31.7636C4.25671 32.694 4.65735 33.8653 5.14213 35.4327C5.65595 37.094 6.13901 38.822 6.60665 40.5718C7.64371 38.4294 8.65263 36.3551 9.62095 34.3571C9.2786 34.1786 8.94886 34.0038 8.63008 33.8415C6.50405 32.7591 5.02899 32.097 4.03001 31.7534L4.0319 31.7636ZM56.459 37.864C55.6238 38.0647 54.7946 38.2484 53.9733 38.4188C53.9408 38.4648 53.9085 38.5113 53.8748 38.5571C53.9514 38.7861 54.0284 39.0164 54.1059 39.2469C54.7762 39.393 55.426 39.5333 56.0536 39.6635C57.1259 39.8859 58.117 40.0735 59.0186 40.2355C58.6227 39.819 58.1744 39.3793 57.6905 38.9362C57.2923 38.5716 56.8775 38.2111 56.459 37.864ZM44.3166 35.1442C43.9367 35.2797 43.5517 35.4299 43.1628 35.5966C43.2903 35.8561 43.4164 36.1188 43.5436 36.382C44.3736 36.3151 45.2168 36.2298 46.0729 36.1327C46.3394 36.0444 46.6057 35.9572 46.8705 35.8698C46.752 35.8377 46.6309 35.8073 46.5105 35.7742C45.8283 35.5866 45.0941 35.3741 44.3166 35.1442ZM18.6089 33.6605C18.6105 33.6663 18.6108 33.6731 18.6127 33.6793C18.6433 33.7734 18.7153 33.875 18.859 33.9524C19.0991 34.0815 19.7726 34.3401 20.8748 34.6524C20.841 34.5843 20.8085 34.5152 20.7744 34.4476C20.0051 34.1477 19.2867 33.8497 18.6203 33.5495C18.6166 33.5863 18.6126 33.6236 18.6089 33.6605ZM48.2858 20.2886C48.3213 20.3707 48.352 20.4527 48.3748 20.519C48.4625 20.7743 48.5742 21.1742 48.7101 21.7039C48.7282 21.7742 48.7465 21.8458 48.7651 21.9174C48.9477 22.1296 49.1351 22.3461 49.3278 22.5644C51.897 25.4751 55.3044 28.8438 59.3218 31.9856C59.9929 31.8012 60.6256 31.639 61.2107 31.4956C59.6165 29.3296 57.7089 26.8291 55.6671 24.2342C53.6545 22.8095 51.1797 21.3868 48.1399 20.0137C48.2278 20.1528 48.2757 20.2652 48.2858 20.2886ZM51.4478 31.0875C51.9982 31.203 52.5464 31.3563 53.0904 31.5502C52.3637 30.9047 51.6645 30.2579 50.9931 29.6175C51.1414 30.0981 51.2915 30.5892 51.4478 31.0875ZM36.886 3.78024C36.1183 3.39433 35.8223 3.48262 35.592 3.58731C35.1377 3.79384 34.454 4.37969 33.4568 5.79149C32.494 7.15468 31.4072 9.03214 30.0295 11.5009C28.9913 13.3612 27.8256 15.4917 26.5794 17.7856C28.2668 17.5855 29.8166 17.5433 31.1189 17.6251C35.1913 17.8812 38.087 20.491 40.3626 22.9776C41.402 24.1136 41.8575 25.5865 41.9976 27.1043C42.0993 28.2063 42.0404 29.4177 41.865 30.6999C42.7048 30.9643 43.5131 31.2158 44.2825 31.4495C45.1049 31.2202 45.9365 31.0511 46.7701 30.9424C45.9325 28.1185 45.1738 25.3078 44.758 22.9588C44.7569 22.9523 44.7554 22.9449 44.7542 22.9384C43.4403 21.3434 42.4093 19.9369 41.7077 18.8476C41.2454 18.1296 40.8654 17.4578 40.6695 16.9302C40.6177 16.7906 40.5634 16.6208 40.5293 16.4385C40.5004 16.2838 40.4565 15.9721 40.5464 15.6121C40.6499 15.1986 40.9922 14.5615 41.829 14.2838C42.3419 14.1139 42.8009 14.1672 43.0889 14.236L43.3162 14.3026L44.6614 14.7772C46.4388 15.4208 48.0878 16.0858 49.6158 16.768C46.3015 12.8056 43.0685 9.16405 40.5748 6.73907C38.9325 5.14214 37.7655 4.22265 36.886 3.78024ZM30.8479 21.1132C29.3663 21.0202 27.4543 21.1261 25.3745 21.5127C25.4851 21.6829 25.5953 21.8581 25.7079 22.0352C25.7716 21.9479 25.8458 21.8589 25.9372 21.7739C26.5492 21.2046 27.3058 21.2123 27.6499 21.2617C27.9756 21.3088 28.2107 21.4201 28.2978 21.4632C28.4089 21.5182 28.4972 21.5733 28.5498 21.6083C28.6546 21.6783 28.743 21.7503 28.7999 21.7978C29.0154 21.9783 29.3073 22.2646 29.6335 22.5952C30.1333 23.1017 30.8516 23.8561 31.8085 24.8625C32.2156 24.5957 32.6942 24.3967 33.2427 24.3213C34.0282 24.2135 34.744 24.385 35.3249 24.644C36.3959 25.1217 37.3121 26.0344 38.0777 26.9711C37.9421 26.0844 37.6686 25.5297 37.3691 25.2023C35.1231 22.7479 33.1523 21.2581 30.8479 21.1132Z" fill="#FBE300"/>
</svg>
