<svg width="100" height="100" viewBox="0 0 100 100" fill="none" xmlns="http://www.w3.org/2000/svg">
<path d="M96.3758 40.1296C98.2461 42.1159 98.9629 44.7433 99.8669 47.3082C99.9408 49.7877 100.128 52.5402 99.8612 55.3172C97.8427 76.133 81.8992 95.229 60.5599 98.3327H60.4398C37.9808 105.399 10.309 89.0573 3.24712 67.1816C5.20305 68.9763 7.18805 70.7415 9.20083 72.4775C11.6401 75.6374 16.1262 81.8175 18.9748 84.4187C25.0817 89.9984 41.8157 98.2408 50.1 98.1247C52.0214 97.4679 54.3346 97.6445 56.7217 96.8642C76.2301 90.4807 94.8571 75.0203 97.2226 53.7315C97.5921 50.4094 96.2281 44.3993 96.3758 40.1296Z" fill="black"/>
<path fill-rule="evenodd" clip-rule="evenodd" d="M9.77888 20.5665C21.6344 3.23359 46.7838 -4.5375 66.5307 2.6986C75.0539 4.5801 85.1355 12.2721 90.1846 19.275C87.7568 18.017 85.3173 16.7943 82.8553 15.6089C82.6165 15.5238 81.5645 14.7982 81.2801 14.6099C69.6978 8.00434 62.9712 2.46882 48.9496 3.0088C33.4839 3.60461 25.7911 10.0073 15.1129 19.5337H15.111C9.0222 25.4905 5.08822 35.144 3.89992 43.45C3.89885 43.4525 3.8972 43.4549 3.89614 43.4575C3.00971 54.1357 3.01207 63.0845 9.20272 72.4775C7.18989 70.7414 5.20499 68.9754 3.24902 67.1807C2.39044 64.8753 1.1225 59.7623 0.968954 57.3752C0.969285 57.3728 0.968623 57.3701 0.968954 57.3677C0.912964 57.1768 0.862558 56.9837 0.823257 56.7895C-2.05382 43.9325 3.01266 31.2055 9.77888 20.5665ZM1.28873 50.7645L1.78259 56.5364C1.78278 56.5308 1.78239 56.5252 1.78259 56.5196L1.28968 50.7476C1.28949 50.7532 1.28891 50.7589 1.28873 50.7645Z" fill="black"/>
<path d="M73.4096 39.4202L73.9782 40.079C66.5297 46.7684 59.5814 53.8866 52.258 60.6843C44.6161 61.0321 36.9168 60.7774 29.2748 60.5559C28.5415 60.6026 28.1661 60.4748 27.535 60.1051C28.6665 56.1663 44.1545 43.0405 48.1237 39.6273C56.2204 39.4238 64.3289 39.625 72.4314 39.3968L73.4096 39.4202Z" fill="black"/>
<path d="M82.8544 15.6098C85.3164 16.7952 87.7567 18.017 90.1846 19.275C96.405 28.6047 99.3949 35.8716 99.8725 47.3082C98.9685 44.743 98.2521 42.115 96.3815 40.1287C96.1654 32.3711 87.9547 21.2324 82.8544 15.6098Z" fill="black"/>
</svg>
