<svg width="470" height="240" viewBox="0 0 470 240" fill="none" xmlns="http://www.w3.org/2000/svg">
<path d="M238.766 0.0819234C239.204 0.0893806 239.453 -0.0736514 239.785 0.0409812C239.811 0.0501517 239.839 0.0611121 239.866 0.0740641C239.908 0.0934976 239.951 0.117571 239.996 0.14681C240.026 0.166289 240.058 0.188024 240.09 0.212427C240.13 0.27919 240.169 0.345761 240.207 0.412021C240.264 0.511453 240.319 0.610354 240.371 0.708671C240.457 0.872507 240.536 1.03479 240.609 1.19559C240.638 1.25994 240.666 1.324 240.693 1.38788C240.841 1.73905 240.956 2.08309 241.042 2.42039C241.082 2.57372 241.115 2.72565 241.142 2.87624C241.164 2.99669 241.182 3.11629 241.196 3.23503C241.204 3.2944 241.21 3.35357 241.215 3.41251C241.221 3.47146 241.226 3.53018 241.229 3.58871C241.233 3.64728 241.236 3.70565 241.238 3.76381C241.253 4.17081 241.227 4.56786 241.166 4.95589C241.148 5.06672 241.128 5.1768 241.105 5.28617C241.047 5.5597 240.973 5.82879 240.884 6.09369C240.849 6.19964 240.811 6.30488 240.771 6.40953C240.751 6.4619 240.73 6.51412 240.709 6.56617C240.667 6.67017 240.623 6.77359 240.577 6.87635C240.438 7.18464 240.281 7.48745 240.111 7.7853C240.054 7.88458 239.996 7.98321 239.936 8.0814C239.817 8.27781 239.692 8.47212 239.562 8.66447C239.498 8.76065 239.432 8.85638 239.365 8.95161C238.965 9.52301 238.53 10.0776 238.091 10.62C238.04 10.684 237.985 10.7937 237.931 10.9333C237.895 11.0263 237.859 11.1326 237.825 11.2475C237.808 11.3049 237.791 11.3645 237.774 11.4257C237.758 11.4869 237.742 11.5497 237.726 11.6134C237.604 12.1232 237.519 12.6959 237.543 13.0318C237.545 13.0737 237.55 13.112 237.556 13.146C237.594 13.1756 237.631 13.2041 237.669 13.2316C237.725 13.2727 237.782 13.3116 237.839 13.3482C237.973 13.4335 238.108 13.5065 238.245 13.5686C238.324 13.6041 238.403 13.6359 238.482 13.6644C238.562 13.6929 238.642 13.7181 238.722 13.74C238.842 13.773 238.964 13.7988 239.086 13.8183C239.778 13.9287 240.491 13.8356 241.181 13.6768C241.344 13.6394 241.505 13.5984 241.664 13.5556C241.744 13.5342 241.823 13.5123 241.902 13.4902C242.217 13.4018 242.523 13.3096 242.817 13.2281C243.037 13.1669 243.249 13.1118 243.453 13.0687C243.622 13.0328 243.785 13.0052 243.941 12.9896C244.159 12.9676 244.362 12.9688 244.547 13.0031C244.6 13.0129 244.651 13.0253 244.701 13.0407C244.821 13.0778 244.932 13.1323 245.035 13.2007C245.061 13.2177 245.086 13.2356 245.111 13.2544C245.284 13.3858 245.435 13.5572 245.572 13.7499C245.611 13.805 245.649 13.8618 245.686 13.9199C245.927 14.2974 246.129 14.7299 246.346 15.0981C246.396 15.1831 246.447 15.2647 246.499 15.3414C247.093 16.21 247.881 16.4499 249.853 13.9252C250.052 13.6707 250.291 13.404 250.543 13.121C250.668 12.9794 250.797 12.8337 250.925 12.6834C251.565 11.932 252.189 11.0649 252.349 10.0161C252.31 9.85328 252.263 9.71526 252.209 9.59719C252.194 9.56344 252.178 9.53128 252.161 9.50068C251.988 9.17941 251.754 9.02528 251.504 8.90701C251.433 8.87322 251.36 8.84242 251.287 8.81142C251.189 8.77011 251.091 8.72849 250.994 8.67946C250.897 8.63042 250.803 8.57396 250.712 8.50271C250.575 8.39582 250.448 8.25571 250.337 8.05801C250.295 7.71915 250.384 6.94758 250.546 6.07687C250.575 5.91852 250.607 5.75688 250.641 5.59397C250.759 5.02398 250.902 4.4384 251.055 3.9232C251.098 3.77599 251.142 3.63451 251.187 3.50079C251.221 3.40051 251.254 3.30455 251.288 3.21383C251.311 3.15335 251.333 3.09525 251.356 3.03964C251.379 2.98407 251.401 2.93101 251.424 2.88081C251.446 2.83056 251.469 2.78316 251.491 2.73879C251.525 2.67229 251.558 2.61263 251.591 2.56076C251.613 2.52617 251.635 2.495 251.656 2.46755C251.667 2.4538 251.678 2.44103 251.689 2.42916C251.726 2.38772 251.763 2.35799 251.798 2.34125C251.814 2.33406 251.829 2.32927 251.844 2.32699C251.916 2.31602 251.992 2.31385 252.072 2.31931C252.112 2.32205 252.153 2.32663 252.195 2.33302C253.407 2.51842 255.358 4.18035 256.44 3.66292L256.331 3.45163L256.445 3.18916L256.764 3.04458C256.859 2.51319 257.013 1.36609 257.41 1.14496C258.202 0.704586 259.417 0.601933 260.002 1.50138C260.976 4.6801 256.171 11.6619 254.836 14.2345C254.784 14.3387 254.844 17.5218 254.85 17.8919C256.501 20.1054 260.278 19.7324 263.547 23.2456C264.337 25.7533 263.279 40.9723 265.592 42.7479C265.903 42.9871 266.039 42.8879 266.361 42.8263C268.486 40.5957 266.786 33.8853 268.793 33.9502C269.75 34.8026 269.802 36.8227 271.285 36.4452C271.473 36.3971 271.705 36.4407 271.899 36.4689L272.175 36.7753C272.159 38.0485 271.628 38.5476 272.428 39.6345C273.338 40.8696 275.374 40.7307 276.261 41.5039L276.107 41.624C274.329 43.0339 275.454 45.8381 276.707 46.027C278.889 46.3564 281.268 46.7402 283.455 46.8299C283.824 46.834 285.414 45.3649 285.653 45.4678C286.522 45.8427 288.098 47.4126 288.555 45.277C288.104 43.7193 286.025 43.3146 286.21 42.3049C286.857 41.8978 287.092 42.0929 287.669 41.7684C288.106 41.5228 288.352 39.4997 288.66 39.3011C289.348 38.8581 289.688 39.2301 290.556 38.4455C290.879 37.2103 291.098 36.6019 290.184 35.5912C288.801 35.078 285.128 34.2755 285.18 32.2497C285.408 31.5779 285.833 31.2692 286.303 30.8353C286.898 30.8537 287.498 30.9542 288.024 30.6639L288.23 30.3833C288.133 30.1072 288.089 29.8494 288.051 29.5546C287.28 28.3849 285.854 29.3609 285.202 28.5866C285.086 28.4477 284.959 28.1562 284.855 27.814C284.838 27.7569 284.821 27.6985 284.805 27.6391C284.662 27.1047 284.582 26.4946 284.675 26.1533C285.459 23.2663 289.274 24.1888 291.141 23.2612C292.957 22.358 294.005 20.563 295.571 19.5451C297.204 19.5454 298.859 19.5278 300.49 19.5499L300.628 19.391C302.191 17.5635 300.995 15.9317 303.847 16.8294C304.154 17.8198 303.477 20.5637 302.775 21.0726L302.532 20.8569C302.485 20.2774 302.457 19.9356 302.349 19.3698C302.046 19.3126 302.184 19.2728 301.92 19.4082C300.944 20.2773 300.932 21.5012 301.636 22.7271C301.964 23.3004 302.99 23.0675 303.456 23.3357C304.219 23.7301 303.631 25.3148 305.287 25.6355C306.69 25.1228 306.622 22.4385 306.748 20.8686L307.886 19.1216C308.451 19.7321 309.06 20.4191 309.636 21.0008C310.079 22.9506 310.336 23.8414 309.166 25.4887C308.702 26.143 308.315 26.6767 308.513 27.4124C308.981 29.1536 310.262 30.8625 311.882 30.0289C313.81 28.8752 314.333 27.8052 315.499 25.6249C315.521 25.5828 316.891 24.9417 317.048 24.8641C317.469 24.5894 318.127 24.4214 318.911 24.314C319.024 24.2986 319.138 24.2844 319.255 24.2714C319.957 24.1933 320.741 24.1549 321.538 24.1268C322.601 24.0893 323.688 24.0701 324.637 24.0003C324.993 23.9741 325.329 23.9408 325.638 23.8967C325.741 23.882 325.84 23.8662 325.936 23.849C326.081 23.8231 326.218 23.7943 326.345 23.762C326.601 23.6974 326.822 23.6188 326.999 23.5229C327.013 23.5149 327.028 23.5068 327.042 23.4986C327.07 23.4821 327.097 23.4651 327.123 23.4476C327.162 23.4214 327.197 23.3939 327.23 23.3654C327.242 23.2465 327.247 23.1355 327.247 23.0298C327.247 22.8818 327.237 22.7442 327.222 22.6099C327.214 22.5332 327.204 22.4575 327.194 22.3816C327.178 22.2679 327.162 22.1536 327.148 22.0344C327.124 21.8356 327.107 21.623 327.111 21.376C327.803 21.0495 328.766 21.7462 329.275 21.5306C330.016 21.2169 330.321 20.2885 331.305 19.9596C331.85 20.3395 332.078 21.7458 332.208 23.0914C332.242 23.4455 332.269 23.7954 332.293 24.1213C332.332 24.6427 332.363 25.1026 332.402 25.42C332.427 25.6201 332.455 25.8186 332.484 26.0153C332.499 26.1137 332.515 26.2116 332.531 26.309C332.563 26.5038 332.598 26.6967 332.636 26.8875C332.645 26.9352 332.655 26.9828 332.664 27.0302C332.694 27.1726 332.725 20.779 332.757 20.9189C332.768 20.9655 332.779 21.012 332.79 21.0583C332.813 21.151 332.836 21.2432 332.86 21.3347C332.895 21.472 332.933 21.6079 332.973 21.7425C333.025 21.9219 333.081 22.0989 333.14 22.2732C333.17 22.3604 333.2 22.4469 333.232 22.5328C333.263 22.6186 333.295 22.7038 333.328 22.7883C333.445 23.0839 333.572 23.3709 333.711 23.6487C333.79 23.8074 333.874 23.963 333.962 24.1155C333.983 24.1536 334.006 24.1915 334.028 24.2292C334.297 24.6816 334.604 25.1047 334.954 25.4942C335.1 25.6565 335.253 25.813 335.414 25.9634C335.478 26.0235 335.544 26.0827 335.611 26.1408C335.644 26.1699 335.678 26.1987 335.712 26.2273C335.814 26.313 335.92 26.3964 336.028 26.4775C336.064 26.5045 336.1 26.5313 336.137 26.5578C336.224 26.6247 336.315 26.6885 336.407 26.7495C336.531 26.8308 336.659 26.9071 336.79 26.9791C336.823 26.997 336.856 27.0148 336.89 27.0322C337.023 27.102 337.16 27.1675 337.3 27.2295C337.509 27.3224 337.725 27.4072 337.945 27.4859C338.605 27.7221 339.302 27.9041 339.975 28.0887C340.125 28.1297 340.273 28.1709 340.419 28.2128C340.566 28.2547 340.71 28.2973 340.853 28.3413C341.066 28.4074 341.273 28.4766 341.472 28.551C341.572 28.5881 341.67 28.6266 341.765 28.6667C341.797 28.68 341.828 28.6935 341.86 28.7072C342.047 28.7895 342.226 28.8783 342.392 28.9759C342.503 29.0409 342.609 29.11 342.709 29.1834C342.945 29.3575 343.122 29.574 343.267 29.8222C343.304 29.8842 343.338 29.9482 343.371 30.0141C343.426 30.1238 343.477 30.2385 343.525 30.3574C343.564 30.4525 343.602 30.5504 343.639 30.6505C343.874 31.2764 344.1 31.9921 344.583 32.6998C344.622 32.7565 344.662 32.8131 344.704 32.8696C344.978 33.2367 345.326 33.5994 345.787 33.944C346.447 33.8627 346.829 33.8006 347.175 33.7978C347.249 33.7972 347.322 33.7993 347.395 33.8046C347.419 33.8063 347.443 33.8083 347.468 33.8108C347.517 33.8157 347.567 33.822 347.619 33.83C347.644 33.8339 347.67 33.8384 347.697 33.8431C347.75 33.8526 347.804 33.8637 347.861 33.8766C347.947 33.8959 348.038 33.9192 348.137 33.9468C348.269 33.9835 348.414 34.0277 348.58 34.0807C348.663 34.1072 348.75 34.1359 348.843 34.1668L348.722 34.1811C348.839 34.2028 348.966 34.2275 349.1 34.2533C349.234 34.2791 349.375 34.3058 349.521 34.3311C349.703 34.3629 349.892 34.3926 350.083 34.4159C350.16 34.4253 350.236 34.4336 350.313 34.4406C350.505 34.4582 350.696 34.4677 350.882 34.4648C351.068 34.4618 351.248 34.4465 351.417 34.4145C351.451 34.4081 351.485 34.4011 351.518 34.3933C351.584 34.3777 351.648 34.3594 351.709 34.3379C351.787 34.3111 351.861 34.2794 351.93 34.2423C351.958 34.2275 351.985 34.2119 352.012 34.1953C352.025 34.1871 352.038 34.1785 352.051 34.1697C352.22 33.9225 352.491 33.4855 352.695 33.3412L352.738 33.4823C352.832 33.4936 352.935 33.5022 353.046 33.5077C353.156 33.5133 353.274 33.5158 353.397 33.5152C353.725 33.5138 354.093 33.4903 354.464 33.4423C354.557 33.4303 354.65 33.4166 354.743 33.4015C355.486 33.2806 356.211 33.0591 356.641 32.7172L356.665 32.6092C357.015 32.4751 357.143 32.383 357.232 32.2752C357.27 32.2291 357.302 32.1801 357.34 32.1235C357.417 32.0105 357.522 31.8676 357.771 31.6586C358.411 31.1232 358.514 30.2443 358.69 29.4212C358.705 29.3526 358.72 29.2844 358.736 29.2168C358.768 29.0817 358.803 28.9489 358.845 28.8205C358.866 28.7563 358.888 28.6932 358.912 28.6314C358.932 28.582 358.951 28.5332 358.969 28.485C359.005 28.3885 359.039 28.2944 359.071 28.2026C359.133 28.0191 359.186 27.8448 359.23 27.6793C359.252 27.5965 359.272 27.5159 359.289 27.4375C359.376 27.0452 359.408 26.7061 359.391 26.4132C359.388 26.3546 359.383 26.2978 359.375 26.2428C359.358 26.1054 359.328 25.9791 359.289 25.863C359.249 25.747 359.199 25.6411 359.139 25.5446C359.115 25.506 359.089 25.469 359.063 25.4333C359.036 25.3976 359.007 25.3633 358.978 25.3304C358.963 25.3139 358.947 25.2979 358.932 25.2821C358.76 25.1088 358.548 24.9761 358.305 24.8744C358.283 24.8651 358.261 24.856 358.238 24.8473C358.193 24.8298 358.147 24.8133 358.1 24.7978C358.077 24.79 358.053 24.7824 358.029 24.7751C357.909 24.7385 357.784 24.7077 357.654 24.6815C356.564 24.4617 355.16 24.5775 354.041 24.4887C353.934 24.4802 353.83 24.4699 353.729 24.4573C353.199 24.3909 352.755 24.2606 352.471 23.9987C352.431 23.9613 352.394 23.9212 352.36 23.8782C352.337 23.8496 352.316 23.8196 352.297 23.7883C352.313 23.7397 352.334 23.6919 352.358 23.645C352.364 23.6333 352.37 23.6215 352.377 23.6099C352.39 23.5867 352.404 23.5636 352.419 23.5408C352.485 23.438 352.569 23.3394 352.664 23.2449C352.748 23.1609 352.841 23.0801 352.937 23.0023C352.961 22.9829 352.986 22.9637 353.01 22.9446C353.084 22.8874 353.159 22.8319 353.234 22.7781C353.458 22.6168 353.679 22.4705 353.845 22.3381C353.9 22.294 353.949 22.2515 353.991 22.2104C354.045 22.1556 354.086 22.1035 354.108 22.0539C354.276 21.6686 354.444 21.292 354.618 20.9368C354.756 20.6526 354.899 26.9167 355.047 26.6662C355.066 26.6348 355.085 26.6038 355.103 26.5731C355.16 26.481 355.217 26.3918 355.276 26.3059C355.295 26.2773 355.315 26.249 355.335 26.2211C355.374 26.1653 355.414 26.1111 355.455 26.0584C355.556 25.9267 355.661 25.8049 355.771 25.6947C355.815 25.6506 355.859 25.6085 355.904 25.5682C356.108 25.387 356.327 25.2452 356.565 25.152C356.671 25.1106 356.781 25.0788 356.894 25.0573C357.122 25.0144 357.367 25.0131 357.632 25.0597C357.698 25.0714 357.766 25.086 357.834 25.1038C358.075 25.1659 358.332 25.266 358.606 25.4083C358.685 25.4489 358.765 25.4929 358.846 25.5406C359.36 25.841 359.954 26.2659 360.552 26.7614C360.651 26.844 360.751 26.9284 360.85 27.0147C360.9 27.0578 360.95 27.1014 360.999 27.1454C361.099 27.2333 361.197 20.7881 361.295 20.879C362.029 21.5605 362.719 22.3179 363.212 23.0464C363.518 28.5816 365.552 25.7725 368.906 28.1223C369.953 28.8562 371.454 27.5303 372.051 29.866C372.759 32.7832 372.66 37.6075 376.208 36.1087C376.276 36.1838 376.326 36.242 376.367 36.2931C376.488 36.4462 376.518 36.5346 376.646 36.8197C376.802 36.8562 376.923 36.876 377.028 36.8752C377.051 36.8751 377.074 36.8738 377.096 36.8716C377.14 36.8671 377.182 36.8586 377.223 36.8454C377.243 36.8389 377.264 36.8311 377.285 36.8222C377.357 36.7911 377.43 36.7456 377.514 36.684C377.562 36.6489 377.614 36.6086 377.67 36.5627C377.727 36.5167 377.789 36.4651 377.858 36.4077L377.935 36.3423L378.606 36.2872L378.726 35.7755L378.901 35.7857C378.887 36.5177 378.96 36.259 378.674 36.8262C376.963 38.0822 375.091 37.3432 374.389 38.546C374.61 40.4104 376.445 40.7519 377.743 39.8659C378.135 39.9368 378.162 39.9818 378.508 40.2471C379.573 39.8816 379.188 38.8937 380.098 38.6591L380.647 39.1366C381.105 39.1556 382.615 38.6277 383.345 38.7549C384.118 38.8897 384.554 38.3169 385.352 39.1258C385.408 39.5703 385.352 39.7136 385.292 39.8008C385.278 39.8209 385.264 39.838 385.251 39.8551C385.18 39.9465 385.139 40.0384 385.323 40.5875C385.758 40.7845 386.091 40.7392 386.346 40.7346C386.382 40.7339 386.417 40.7342 386.451 40.7361C386.718 40.7506 386.888 40.8711 386.999 41.5193L387.131 41.6869L387.267 41.8952C388.074 42.1998 388.364 42.5066 388.967 42.5889C389.019 42.596 389.074 42.6015 389.132 42.6052C389.276 42.6142 389.438 42.6117 389.628 42.5953C389.703 42.5887 389.783 42.5799 389.868 42.5688C390.548 42.4793 390.583 42.6263 391.304 42.2639L391.261 41.8585C392.404 40.3723 393.67 41.2748 395.055 41.7995C396.023 40.5859 396.643 40.122 397.503 39.1892C397.561 39.127 397.619 39.0627 397.679 38.996C397.718 38.9424 397.756 38.8885 397.795 38.8342C398.982 37.1514 399.832 35.1379 400.975 33.3913C401.368 32.7892 401.096 32.707 401.796 32.6424C402.494 33.2214 402.66 34.6293 402.871 35.6559C403.076 35.6521 403.276 35.6537 403.471 35.6588C403.666 35.664 403.856 35.6725 404.041 35.6826C404.734 35.7204 405.353 35.7793 405.893 35.7548C405.965 35.7515 406.036 35.7468 406.105 35.7404C406.572 35.6967 406.975 35.5743 407.31 35.2971C407.335 35.2766 407.359 35.2552 407.383 35.233C407.973 34.6877 408.337 33.6142 408.454 31.5584C408.461 31.4292 408.476 31.2844 408.496 31.13C408.509 31.027 408.525 30.9197 408.542 30.8099C408.637 30.2059 408.786 29.5242 408.887 29.0538L409.684 27.9869C410.204 27.7644 410.706 27.592 411.256 27.5252C417.457 26.7702 416.171 35.4115 417.861 36.9734C418.201 37.2876 418.597 37.3016 419.002 37.2114C419.36 37.1313 419.604 36.983 419.81 36.6667C419.84 36.6215 419.868 36.573 419.897 36.5206C419.653 35.4306 419.46 35.163 418.917 34.2335C419.7 32.0829 419.88 32.325 421.725 32.3924L423.033 33.9469C425.123 29.5186 426.715 27.7985 430.747 26.2054C433.247 25.2182 435.943 26.7318 438.322 27.7124C438.407 26.9667 438.428 26.1829 438.741 25.5667C439.513 25.1963 442.377 25.4378 442.996 26.2052C442.912 26.7322 442.834 27.063 442.456 27.3324C439.93 29.1252 439.471 28.9251 439.32 32.6456C439.277 33.6595 436.941 36.8482 437.698 38.3062C438.41 39.6513 440.629 39.8901 440.976 41.8691C441.283 43.6167 439.909 51.0075 440.809 51.9502C441.443 51.7844 442.447 50.7398 443.021 50.2287C443.949 51.0769 445.674 53.6362 446.234 53.394C448.994 52.1997 451.396 49.0855 454.454 48.1128C455.809 47.6818 457.489 48.8496 458.593 48.7008C458.741 48.065 458.098 46.8753 458.657 46.7385C462.918 45.6951 466.049 45.8135 470 48.0203V49.923C469.743 50.4591 469.399 51.2756 469.048 51.6797C468.365 53.1684 467.301 54.2345 466.648 55.6429C467.621 58.3695 469.997 60.744 469.193 63.2598C469.087 63.5971 468.962 63.9247 468.82 64.2401C468.586 64.8165 468.416 65.2666 468.106 65.7952C467.407 66.8794 466.303 66.9756 465.199 68.3943C463.624 68.3888 460.215 67.7816 458.731 68.5085C458.65 68.5482 458.272 69.2271 458.192 69.3749C457.442 69.8132 453.437 68.5547 452.56 69.0356L452.761 69.13L452.377 69.2312L452.243 69.6043L451.907 69.8786C451.343 70.4738 451.705 71.8598 451.913 72.6618C453.555 73.8724 454.096 80.4518 455.4 78.4487C455.465 77.9676 455.544 76.5517 455.702 76.317C456.328 76.2822 456.86 76.788 457.418 77.1932C457.948 78.8135 455.666 81.4138 459.129 81.2707C460.454 82.2201 461.332 83.0377 462.957 82.9158C463.699 82.8605 464.475 83.0436 464.728 83.7937C465.95 87.408 464.955 87.1334 463.101 88.9987C462.507 89.5971 462.815 94.1936 461.159 94.5625C459.188 95.6622 456.561 93.4299 454.868 93.744C454.47 93.6549 453.598 93.1438 453.19 92.923C452.398 92.5909 450.048 91.6445 450.021 92.9986C449.985 94.8206 451.662 96.0599 451.919 98.4069L451.924 98.6229C451.94 99.5551 451.904 99.7753 451.72 100.673C452.116 100.824 452.462 100.363 453.195 100.342C454.969 101.373 454.495 111.145 453.867 112.504C452.633 113.649 451.844 132.418 451.339 132.788C449.246 134.317 447.305 137.518 445.496 133.295C445.422 137.373 445.269 140.088 442.689 143.296C441.147 145.211 440.188 144.443 438.676 143.207C438.703 143.227 436.42 143.654 435.857 143.64L434.461 141.593C432.457 141.442 422.54 143.636 420.727 145.285C420.433 145.551 419.939 146.617 419.743 147.08C420.654 147.474 421.783 147.816 422.144 149.087C423.109 152.473 420.057 155.659 417.456 154.048C415.517 152.847 415.224 150.878 413.449 149.21L413.375 149.142C412.109 152.847 411.034 154.814 408.439 157.401C408.15 158.716 407.701 161.309 406.781 162.025C406.126 162.148 405.939 161.881 405.306 161.749C403.705 161.393 402.909 162.546 402.02 163.997C398.743 169.344 397.097 176.072 397.942 182.756C398.373 186.522 399.386 170.203 400.132 173.869C400.697 176.646 400.652 179.28 400.143 182.096C399.482 185.748 397.847 189.865 394.549 190.552C393.163 190.84 391.333 190.394 390.225 189.3C388.175 187.295 387.344 184.987 387.039 181.803C386.675 178.01 387.698 174.534 388.136 170.83C388.609 166.838 389.492 182.365 389.241 178.277C388.969 173.839 388.467 168.436 387.633 164.087C387.489 163.335 386.72 162.769 386.445 162.229C385.447 160.28 384.959 158.525 384.729 156.292C382.508 153.695 383.896 153.242 381.882 150.814C381.703 150.204 382.121 149.775 381.812 148.893C380.84 147.791 379.68 147.255 378.478 146.631C373.852 144.228 369.302 143.166 364.144 143.859C362.505 145.743 361.564 148.873 359.779 150.461C356.774 153.133 352.447 152.292 349.618 155.374C348.05 160.438 350.07 158.67 352.959 158.551C355.562 158.443 357.098 160.785 354.456 163.087C354.309 163.226 354.4 164.183 353.859 164.798C353.68 164.842 352.806 164.992 352.772 165.176C352.193 168.434 351.493 176.481 347.261 173.579C346.779 173.248 345.922 169.957 345.7 169.188C345.357 167.239 345.803 162.035 344.585 160.676C343.224 160.345 342.819 162.046 342.379 163.319C341.302 166.44 339.929 170.397 339.728 173.793C339.713 174.068 339.701 174.344 339.692 174.619C340.418 174.352 341.084 174.085 341.835 173.943C342.354 174.228 342.741 174.346 343.02 174.93C343.282 176.61 341.722 178.413 341.529 180.116C341.355 181.65 342.626 183.702 342.528 184.594C341.291 186.641 335.474 169.488 333.323 170.279C332.959 170.413 330.76 169.726 330.297 169.566C326.581 165.329 327.744 180.975 327.302 175.275C327.167 173.542 326.169 168.039 325.243 167.024C324.623 167.292 324.579 167.474 324.106 167.205C323.269 165.082 324.581 162.467 325.771 160.997C324.342 160.456 321.04 160.136 322.152 157.432C323.088 155.157 324.536 153.472 325.56 151.171C325.591 149.915 325.672 148.746 325.409 147.526C324.391 142.803 319.587 146.938 315.98 147.984C315.602 148.094 315.059 148.466 314.893 148.952C314.432 150.775 315.105 152.51 314.338 154.354C313.729 155.823 311.788 155.788 311.238 157.258C310.659 158.803 310.504 160.954 310.245 162.628C309.784 169.866 310.047 177.972 310.431 185.227C310.9 194.117 310.392 183.021 310.294 191.914C310.268 194.286 309.506 196.918 308.97 199.186C307.9 203.714 307.782 208.64 309.11 213.109C309.616 215.028 310.33 216.83 310.671 218.822C311.575 224.085 311.568 230.179 309.889 235.204C309.341 236.846 307.659 239.189 306.24 239.668C298.96 242.128 296.52 230.325 298.474 223.656L298.745 223.456C299.293 221.985 299.634 220.28 300.043 218.738C300.173 218.717 300.264 218.646 300.38 218.575C301.072 216.19 301.577 213.42 301.313 210.899C300.731 205.38 299.297 199.991 299.15 194.406C299.022 189.454 299.127 184.424 299.309 179.477C299.508 174.039 300.388 188.087 299.67 182.67C298.836 176.383 294.723 178.733 292.867 177.072C292.572 176.343 292.701 175.927 292.69 175.126C292.903 174.5 293.342 173.669 293.744 173.206C294.549 172.67 294.918 171.941 295.606 171.305C296.44 170.532 296.773 172.546 297.772 172.815C299.451 172.024 299.913 166.28 299.529 164.379C299.07 162.098 298.427 156.206 296.639 155.205L295.955 155.76C294.856 156.824 293.824 157.652 292.655 158.601C291.862 159.228 291.566 159.493 290.579 159.331C288.499 159.03 288.696 162.323 287.926 164.196C287.335 165.634 285.023 167.067 284.154 166.143C282.836 164.741 282.985 159.941 282.552 157.846L282.292 157.75L282.033 156.489C281.238 156.694 280.399 156.408 279.545 156.279C278.643 156.73 278.232 156.926 277.597 157.887C276.616 157.656 277.23 158.712 276.545 159.164C275.672 158.731 275.017 157.46 274.198 156.932C273.441 156.443 273.622 157.354 272.721 157.701C271.604 157.336 270.782 155.67 270.891 154.271C271.505 152.916 272.325 153.586 273.645 152.914L273.621 152.629C273.512 151.46 272.493 150.594 271.769 149.816C270.631 148.884 269.895 148.453 268.604 147.938C267.504 148.162 266.949 148.467 265.993 149.136L265.937 149.246C265.275 150.157 264.735 144.338 264.168 145.354L263.849 146.069C263.488 146.281 262.926 146.691 262.918 147.198C262.849 151.853 266.048 148.204 265.696 154.179C265.095 155.094 263.926 154.592 263.351 153.873C262.521 152.837 262.11 151.207 261.886 149.806C261.535 149.321 261.694 149.395 261.269 149.343C260.337 149.384 258.783 148.836 257.914 148.425C255.429 147.455 254.929 144.304 252.242 145.819L251.066 147.093C249.338 148.266 247.849 148.05 246.182 149.094L245.882 148.944C245.353 149.403 245.525 149.453 244.898 149.805L244.148 149.556C243.293 150.404 242.417 149.539 242.236 150.734C242.631 151.194 242.742 151.167 242.829 151.737C242.517 152.223 242.236 152.311 242.186 152.887C242.076 154.198 242.07 155.571 242.077 156.888C241.013 157.247 240.19 157.267 239.313 158.242C239.002 159.373 239.797 159.203 239.771 160.38C238.585 162.405 237.702 160.625 236.579 160.752C235.869 161.515 235.953 162.58 235.376 162.987C234.776 162.477 234.953 161.947 234.606 161.279C234.019 160.143 233.388 159.001 232.782 157.877C232.602 157.903 232.581 157.864 232.45 158.034C232.215 158.14 232.327 158.072 232.144 158.358C232.081 159.736 231.877 161.105 231.7 162.469L231.555 162.319L231.614 162.093C230.252 160.181 231.082 159.839 229.052 160.83C228.482 161.108 227.654 160.22 227.17 159.741C225.783 159.559 225.678 159.751 224.413 160.46C222.471 160.315 222.814 157.965 222.452 157.623C221.017 156.27 217.797 156.289 215.966 155.95C215.088 155.788 213.968 156.361 213.005 155.76L213.246 154.982L213.23 154.815C213.051 154.613 212.96 154.515 212.807 154.28L212.701 154.115C212.535 153.641 212.435 153.142 212.023 152.903C209.475 151.428 209.07 153.69 208.074 156.269C207.948 156.817 207.904 157.057 207.7 157.56L207.399 157.381C205.933 162.648 205.09 167.64 205.361 173.243C205.383 173.713 205.613 174.593 205.61 174.847C205.563 178.368 206.518 181.715 207.106 185.064C207.235 185.798 206.022 168.757 205.908 169.503C205.973 171.651 206.245 173.207 206.072 175.435C205.682 180.475 205.014 183.276 205.249 188.618C205.553 195.523 211.798 207.237 204.996 212.044C201.581 214.458 197.018 209.495 197.049 205.147C196.966 204.151 197.191 204.112 196.9 203.114C197.093 200.494 198.632 196.801 199.356 194.216C199.909 187.63 199.332 180.024 198.254 173.625C196.894 165.549 198.222 183.837 199.409 176.206C200.042 172.129 199.256 162.849 197.601 159.185C196.88 157.587 194.938 155.267 193.901 153.673L193.827 153.558C190.074 155.059 186.817 149.09 184.252 146.106C183.456 145.19 182.768 144.813 181.779 144.31C181.042 144.396 180.186 144.622 179.447 144.791C178.905 145.039 177.729 145.629 177.224 145.802C175.945 146.414 170.503 139.74 171.02 141.549C173.467 143.015 176.464 150.189 178.326 153.064C179.331 154.618 180.245 156.54 178.935 158.278C178.749 158.563 178.463 158.778 178.191 158.92C176.412 159.847 173.925 158.887 172.224 158.069C171.017 157.494 169.723 148.578 168.529 147.924C167.717 147.551 166.514 146.747 165.709 146.247C164.62 145.733 161.593 144.038 160.58 143.364L159.758 143.409C159.395 144.157 158.458 145.591 158.303 146.354C156.923 153.12 155.531 160.291 155.652 167.315C155.809 170.013 156.652 172.415 156.536 175.138C156.398 178.376 154.178 165.809 155.109 168.776C156.876 174.4 157.349 173.665 156.111 179.744C155.653 181.996 157.932 185.002 155.859 188.569C155.596 188.889 155.351 189.233 155.017 189.437C154.264 189.338 152.682 190.063 151.483 189.016C148.639 186.531 150.535 183.72 150.36 180.773C150.328 180.226 148.973 175.878 149.278 174.833C150.174 171.751 152.038 190.156 152.228 186.544C152.382 183.616 151.873 180.778 151.944 178.066C151.987 174.284 152.609 170.354 152.627 166.585C152.647 162.654 152.278 158.121 151.785 154.218C151.657 153.204 150.933 150.678 150.925 149.992C150.891 147.175 151.142 144.436 150.903 141.599L150.847 141.912C150.803 141.008 150.803 137.888 150.336 137.417C150.01 137.401 149.952 137.4 149.632 137.447L145.759 137.973L145.719 138.435C145.233 138.491 145.427 138.531 144.967 138.158C144.782 138.059 144.579 137.995 144.384 137.923C143.533 138.436 142.531 138.545 141.645 138.133C141.336 138.066 141.145 138.015 140.84 137.916L140.941 137.835C140.184 137.5 139.916 137.854 139.401 137.521L138.79 137.668C138.042 137.847 137.67 138.119 136.949 137.725L136.528 137.716C135.967 137.95 135.423 138.223 134.838 138.295L134.833 138.693L135.181 138.98C134.661 140.703 135.609 140.339 135.486 141.638C134.273 142.488 133.475 140.34 132.495 139.992C132.199 139.136 131.962 137.925 131.216 137.704C130.735 138.132 130.824 138.178 130.54 138.918C128.509 140.024 131.815 147.776 129.163 149.846C128.233 150.061 128.182 149.559 127.492 149.89C127.277 150.45 127.285 150.241 127.323 150.81C127.705 151.21 127.835 151.429 128.094 151.959C128.455 152.153 128.68 152.225 129.061 152.355L129.13 152.611C127.783 155.154 124.788 152.363 123.82 152.719C117.283 155.127 117.768 163.983 117.421 170.783C117.267 173.798 117.348 174.465 117.452 177.21C118.105 180.812 120.108 183.507 118.279 187.191C117.647 188.673 115.914 188.892 114.878 187.792C112.488 185.185 114.785 180.77 115.027 178.01C115.491 172.721 114.676 167.111 114.718 161.78C114.746 158.188 113.596 156.224 111.701 153.608C111.115 152.799 110.12 153.359 109.756 154.3L108.75 155.016C107.552 156.046 106.28 157.08 106.017 159.008C105.661 161.62 107.411 164.332 108.524 166.363C108.997 167.254 109.904 168.636 109.718 169.757C109.661 170.095 109.516 170.315 109.273 170.478C108.123 171.249 105.636 170.084 103.903 170.949C102.998 172.152 102.296 173.346 101.976 174.965C101.111 179.35 101.621 183.741 101.411 188.18C101.126 194.199 99.7405 180.557 99.9195 186.611C99.9544 187.79 99.9703 189.078 100.159 190.237C100.932 199.621 104.879 223.415 100.282 230.855L100.025 231.306L99.0492 232.527H93.0018C91.9366 231.551 91.2355 230.558 90.5406 229.159C90.251 228.497 90.0417 227.741 89.8073 227.044C90.271 225.003 89.6176 221.568 89.8647 219.187C90.3224 214.776 91.4041 210.439 91.7866 206.013C92.0082 203.449 92.0055 200.798 92.0776 198.217C92.4433 185.118 92.5298 187.495 90.2739 174.782C89.8031 172.129 89.4255 167.462 87.4037 165.917C85.3436 164.342 81.8896 166.121 79.7546 166.731C77.8909 167.263 75.9443 167.363 74.2727 166.038C69.8462 162.53 73.1271 157.787 72.3094 153.041L72.2253 152.587C71.834 151.29 71.4705 150.722 70.5747 149.893C69.2055 149.888 68.1414 150.059 67.128 151.293C64.3084 154.724 64.1263 160.354 62.6945 164.701C62.3338 165.796 61.825 167.014 61.2631 168.276C61.1382 168.556 61.0107 168.839 60.8816 169.122C59.6552 171.818 58.2856 174.628 57.6643 176.804C57.6316 176.919 57.601 177.032 57.5725 177.143C57.5441 177.253 57.5179 177.362 57.494 177.47C57.0566 179.431 57.0677 181.539 56.9572 183.559C56.6827 188.572 55.7861 177.038 52.9844 180.855C52.7127 181.225 52.4095 181.559 52.0786 181.833C52.0235 181.879 51.9676 181.923 51.9109 181.965C51.7693 182.071 51.6229 182.166 51.472 182.247C51.4116 182.28 51.3506 182.31 51.2888 182.339C51.0418 182.452 50.7835 182.531 50.5151 182.568C50.448 182.577 50.3803 182.583 50.312 182.587C50.2778 182.589 50.2435 182.59 50.209 182.591C49.745 182.598 49.2943 182.482 48.8723 182.272C48.812 182.242 48.7524 182.21 48.6933 182.177C48.2208 181.907 47.7886 181.521 47.4195 181.064C46.4342 179.842 45.8711 178.243 45.8924 176.512C45.9106 175.045 46.2374 173.396 46.7214 171.764C46.7572 171.643 46.7938 171.523 46.8313 171.402C47.4503 169.412 48.8329 187.057 49.6116 185.53C49.6588 185.438 49.7059 185.347 49.7526 185.257L49.7806 185.144C51.2995 181.269 53.7843 177.606 54.7968 173.473C55.724 169.689 54.4268 165.509 56.0381 161.827C56.4166 160.906 56.8702 160.087 57.3522 159.247C59.6116 154.844 61.4802 152.652 61.4376 147.19L61.301 146.093C60.9649 145.758 60.9136 145.739 60.4895 145.633C58.8465 146.215 56.6414 153.092 55.0637 154.96C53.0189 157.382 49.8127 157.663 47.7848 155.352C45.5283 152.781 47.0752 147.286 47.298 144.102C47.4331 142.444 47.5633 140.862 47.6171 139.121C47.0954 138.997 46.7 138.907 46.1857 138.712C45.5769 138.036 43.151 137.751 42.152 137.064C41.5959 136.682 40.2347 135.817 39.6416 135.837C39.3989 135.757 38.9975 135.427 38.763 135.256C37.5534 134.447 36.3483 133.627 35.148 132.797C34.103 134.479 33.2565 136.94 32.321 138.782C31.9435 139.525 31.5592 140.011 31.1654 140.302C31.113 140.341 31.0603 140.376 31.0075 140.408C30.3998 140.776 29.7691 140.704 29.1052 140.416C29.0475 140.391 28.9896 140.364 28.9314 140.336C28.9023 140.322 28.8731 140.307 28.8438 140.292C28.7854 140.263 28.7266 140.232 28.6676 140.199C28.107 139.892 27.5223 139.47 26.9081 139.058C26.8361 139.01 26.7645 138.962 26.6932 138.913C26.5505 138.817 26.4093 138.72 26.269 138.622C26.0586 138.476 25.8506 138.329 25.6443 138.18C25.5068 138.081 25.3701 137.981 25.2339 137.881C24.8933 137.629 24.5562 137.372 24.2194 137.107C24.0847 137 23.95 136.893 23.8151 136.784C23.7477 136.73 23.6803 136.675 23.6128 136.62C24.6916 135.088 25.5749 113.6 26.2967 111.79C23.2503 110.478 22.3631 111.207 19.2177 111.093C16.6736 111.001 16.4737 107.437 15.0796 105.958C13.0479 103.802 8.02321 104.71 6.05927 101.281C3.47662 96.7706 7.49683 93.1697 8.07858 89.5503C8.52308 86.7836 4.70956 85.6409 3.47821 83.5437C1.90664 80.867 3.5288 78.2631 3.78197 75.2814L3.79776 75.0777C2.83938 72.8331 1.21244 69.2753 1.62185 66.6751C1.76438 65.8085 1.98131 64.9633 2.26893 64.1538C3.09189 61.8281 4.51482 59.535 5.29486 57.187C7.05763 51.8819 15.104 60.0134 17.1357 58.3255C17.1387 58.3119 17.1995 58.0658 17.1906 58.0216C15.936 51.8109 3.68785 54.0522 0.335526 48.8507C0.0622836 48.4268 -0.0497249 47.8824 0.0204023 47.5277C0.268587 46.274 0.953839 45.7201 1.72812 45.0712C5.68347 44.7324 11.3631 43.5276 15.1099 44.7937C16.1266 45.1374 18.26 46.9285 19.6499 47.5634L19.8223 47.6401C23.893 45.8999 34.0412 37.0781 37.2796 36.9918C39.1037 36.9432 40.5787 38.4515 42.3239 38.6251C43.0837 38.7007 43.8322 38.5613 44.4196 37.9063C45.2025 37.033 45.7408 35.7945 45.8046 34.4878C45.9838 30.8106 43.1278 26.8723 41.2673 24.2836C43.6225 24.06 46.0827 24.7716 48.3122 24.0467C50.8189 23.2317 47.2684 16.2636 49.5058 15.2924C50.0821 15.3302 50.4339 15.6347 50.9327 15.9791C63.6904 14.3356 78.9521 24.0256 90.749 28.773C92.3614 30.0163 96.9409 39.4167 98.9492 38.9278C101.295 38.3566 110.713 24.0155 112.729 21.9415C112.548 21.2636 112.149 20.263 111.898 19.5831C112.796 15.7863 115.733 10.4743 117.554 7.10517C118.131 6.03771 118.808 5.65925 119.431 5.74823C119.46 5.75227 119.488 5.75726 119.516 5.76321C119.825 5.82872 120.12 6.00866 120.38 6.27518C120.427 6.32362 120.473 6.37489 120.518 6.42889C120.832 6.80703 121.085 7.31737 121.238 7.90282C121.26 7.98645 121.279 8.07163 121.297 8.15816C121.315 8.24465 121.33 8.33249 121.343 8.42154C121.356 8.51064 121.367 8.60091 121.376 8.69224C121.409 9.05755 121.404 9.4394 121.354 9.82711C120.738 14.5596 118.585 19.0316 115.611 22.0839C116.698 23.3421 118.775 32.2128 120.84 34.0875C120.952 34.1888 121.064 34.2888 121.175 34.3872C121.398 34.584 121.62 34.7743 121.84 34.9564C121.95 35.0475 122.059 35.1364 122.168 35.2231C122.549 35.5264 122.922 35.8013 123.279 36.0374C123.382 36.1048 123.483 36.169 123.582 36.2298C124.08 36.5341 124.544 36.7529 124.953 36.856C125.325 36.9497 125.823 36.6653 126.339 36.2487C126.412 36.1891 126.486 36.1268 126.56 36.0626C127.152 35.549 127.746 34.9086 128.178 34.509C129.256 34.5367 129.655 34.6032 129.839 34.4388C129.851 34.4282 129.862 34.4166 129.872 34.4041C130.031 34.2087 130.003 33.7651 130.255 32.8036C130.282 32.6998 130.324 32.6142 130.38 32.5446C130.411 32.5049 130.447 32.4704 130.486 32.4408C131.004 32.0483 132.147 32.5111 132.666 32.9226C133.272 34.3327 132.225 34.6406 132.332 35.6848C132.661 36.0926 132.468 35.9605 132.937 36.0767C135.33 36.1238 135.859 39.058 137.318 40.117C137.737 39.3558 137.537 39.4928 138.09 39.2603L138.288 39.4783C138.272 39.8783 138.247 40.2319 138.273 40.633C138.722 41.4307 139.519 41.6797 140.264 41.7112L140.323 40.955L140.472 40.8578L140.587 41.0592C140.989 41.686 141.047 41.9242 141.758 41.9502C142.478 41.9766 143.17 42.3979 143.769 41.7567C144.13 41.5832 147.148 42.3135 148.14 41.4964C148.86 41.0646 148.88 41.7362 149.86 41.4968L150.413 41.32C151.049 41.4679 151.722 40.7566 152.453 40.7702C154.874 40.8153 157.24 41.7923 159.62 41.8232C160.701 41.8372 162.489 40.6764 162.729 39.306C163.187 38.9771 163.215 38.7163 163.42 38.1009C162.232 37.4934 163.406 38.1164 162.654 36.6531C162.28 36.3619 161.868 36.4777 161.352 36.4773L161.579 36.2763C161.398 36.2184 161.145 35.7371 160.987 35.6248C160.027 34.9466 158.818 35.062 157.841 34.0656C158.396 32.8795 168.947 34.0513 168.9 31.7816C168.816 27.6082 163.582 16.1303 160.264 16.9244C156.693 17.7786 155.263 13.3754 152.923 13.0617C147.34 12.3133 145.26 14.8614 141.501 8.2691C141.468 7.06715 141.35 5.92041 142.014 4.92371C144.97 0.481384 158.815 10.6034 162.243 12.3504C164.718 13.6124 167.496 14.1168 170.051 15.1918C173.448 16.6227 176.583 33.5999 180.002 34.9469C181.432 35.5099 183.052 35.7536 184.525 36.1076C185.488 36.3387 186.555 36.8099 187.538 36.6669C190.078 36.297 190.967 26.2078 191.78 23.7378C192.218 22.4054 192.728 21.0339 193.032 19.6429C193.429 17.8278 193.434 15.7468 194.43 14.2343C194.951 13.953 197.067 14.017 197.628 14.0027C199.123 13.9646 202.091 21.4435 201.966 22.533C201.416 22.7935 201.548 22.13 200.89 22.5746C200.676 23.3284 200.979 24.5364 201.425 25.0988C201.824 25.602 203.06 25.2582 203.628 25.2041C204.317 25.7289 204.165 26.4357 204.481 27.2039C204.898 28.2126 206.52 27.7283 207.269 28.001C207.562 28.1079 207.827 28.9235 208.007 29.3352C208.327 29.602 208.731 29.8325 209.119 29.8662C210.248 29.962 210.3 28.3664 211.055 27.7696C211.873 27.1222 213.788 27.7236 214.4 26.7352C215.16 25.5102 215.104 22.9916 215.092 21.5308C215.065 18.5991 213.673 19.7033 212.877 18.824C212.994 17.5057 215.015 16.7798 215.543 15.2048C216.212 14.8197 218.043 15.7895 219.526 16.3806C219.655 16.4321 219.781 16.4807 219.904 16.5252C220.058 16.5809 220.205 16.6303 220.345 16.6713C220.401 16.6876 220.456 16.7025 220.51 16.716C220.644 16.7498 220.769 16.7743 220.884 16.7871C220.93 16.7923 220.974 16.7954 221.017 16.7966C221.501 16.8109 221.949 16.7315 222.375 16.5916C222.441 16.57 222.506 16.547 222.571 16.5227C223.7 16.0979 224.681 15.2723 225.755 14.6978C225.816 14.665 225.878 14.6329 225.94 14.6018C226.312 14.4154 226.697 14.2629 227.103 14.1705C227.271 14.1324 227.45 14.1074 227.636 14.0928C228.942 13.9905 230.65 14.3971 231.943 14.3774C233.253 14.3575 234.902 13.4224 235.799 12.2853C236.818 10.9934 236.816 9.9726 236.503 8.97866C236.482 8.91016 236.459 8.84174 236.434 8.7734C236.325 8.46572 236.191 8.15905 236.052 7.84599C235.929 7.5677 235.803 7.28438 235.689 6.99095C235.547 6.62422 235.422 6.24164 235.346 5.83323C235.331 5.75155 235.317 5.66884 235.306 5.58502C235.295 5.50117 235.286 5.41619 235.279 5.33004C235.273 5.24389 235.268 5.15655 235.267 5.06794C235.276 5.05209 235.286 5.0367 235.296 5.02188C235.315 4.99219 235.334 4.96451 235.353 4.93871C235.401 4.87422 235.449 4.82147 235.497 4.77787C235.516 4.7604 235.535 4.74446 235.554 4.7298C235.573 4.71514 235.592 4.70175 235.611 4.68959C235.649 4.66526 235.687 4.64554 235.724 4.62927C235.743 4.62115 235.762 4.61392 235.781 4.60733C235.818 4.59414 235.855 4.58369 235.892 4.5748C236.095 4.52591 236.291 4.52322 236.473 4.35857C236.49 4.34359 236.506 4.32722 236.522 4.30941C236.67 4.1492 236.808 3.86799 236.934 3.35183C237.103 2.65562 237.303 1.586 237.703 0.861291C237.724 0.824158 237.745 0.787946 237.767 0.752721C237.831 0.646959 237.901 0.550294 237.977 0.46521C238.002 0.436851 238.027 0.40973 238.054 0.384056C238.093 0.34555 238.134 0.310151 238.177 0.278228C238.205 0.256918 238.234 0.237141 238.264 0.219007C238.383 0.146561 238.513 0.100324 238.656 0.0863102C238.692 0.0828065 238.728 0.081289 238.766 0.0819234Z" fill="#A4CD39"/>
</svg>
