<svg width="976" height="430" viewBox="0 0 976 430" fill="none" xmlns="http://www.w3.org/2000/svg">
<path d="M495.82 0.14678C496.729 0.16014 497.246 -0.131959 497.936 0.0734246C497.991 0.0898551 498.048 0.109493 498.105 0.132698C498.192 0.167517 498.282 0.210649 498.375 0.263034C498.438 0.297934 498.502 0.336877 498.569 0.380599C498.653 0.500215 498.734 0.619488 498.813 0.738205C498.932 0.916353 499.045 1.09355 499.152 1.2697C499.332 1.56324 499.497 1.854 499.648 2.1421C499.708 2.2574 499.766 2.37217 499.822 2.48661C500.129 3.11581 500.369 3.73221 500.548 4.33653C500.629 4.61125 500.698 4.88346 500.754 5.15326C500.8 5.36908 500.837 5.58335 500.867 5.7961C500.882 5.90246 500.895 6.00848 500.907 6.11408C500.918 6.21969 500.928 6.32491 500.936 6.42977C500.944 6.53472 500.95 6.63929 500.954 6.7435C500.985 7.4727 500.93 8.18408 500.803 8.87931C500.767 9.07787 500.725 9.2751 500.677 9.47106C500.558 9.96113 500.404 10.4432 500.22 10.9179C500.146 11.1077 500.067 11.2962 499.984 11.4837C499.942 11.5776 499.9 11.6711 499.856 11.7644C499.768 11.9507 499.676 12.136 499.58 12.3201C499.292 12.8725 498.967 13.415 498.613 13.9487C498.495 14.1265 498.374 14.3032 498.25 14.4792C498.002 14.8311 497.743 15.1792 497.474 15.5238C497.34 15.6962 497.203 15.8677 497.065 16.0383C496.233 17.0621 495.33 18.0557 494.42 19.0275C494.313 19.1421 494.199 19.3388 494.087 19.5888C494.012 19.7555 493.938 19.9459 493.866 20.1518C493.83 20.2547 493.795 20.3615 493.761 20.471C493.727 20.5807 493.694 20.6932 493.662 20.8074C493.406 21.7208 493.231 22.7468 493.28 23.3486C493.286 23.4238 493.295 23.4924 493.309 23.5533C493.386 23.6062 493.464 23.6573 493.542 23.7065C493.659 23.7803 493.777 23.8499 493.896 23.9155C494.173 24.0683 494.455 24.1992 494.739 24.3104C494.902 24.374 495.066 24.431 495.231 24.482C495.396 24.533 495.562 24.5782 495.729 24.6176C495.979 24.6765 496.231 24.7228 496.485 24.7577C497.921 24.9556 499.402 24.7887 500.836 24.5043C501.174 24.4373 501.508 24.3639 501.839 24.2872C502.005 24.2488 502.169 24.2095 502.333 24.1699C502.987 24.0115 503.623 23.8464 504.232 23.7003C504.689 23.5908 505.131 23.492 505.553 23.4147C505.905 23.3504 506.244 23.301 506.567 23.273C507.019 23.2336 507.44 23.2358 507.825 23.2972C507.935 23.3147 508.041 23.3371 508.145 23.3646C508.394 23.4311 508.624 23.5287 508.838 23.6512C508.892 23.6818 508.944 23.7139 508.996 23.7475C509.356 23.983 509.67 24.29 509.954 24.6353C510.036 24.7339 510.115 24.8357 510.192 24.9398C510.692 25.6162 511.11 26.3911 511.56 27.0507C511.664 27.203 511.77 27.3492 511.879 27.4866C513.112 29.043 514.749 29.4728 518.844 24.9493C519.257 24.4934 519.754 24.0156 520.276 23.5084C520.537 23.2547 520.804 22.9937 521.07 22.7244C522.398 21.3782 523.695 19.8246 524.026 17.9455C523.947 17.6538 523.849 17.4065 523.737 17.195C523.705 17.1345 523.672 17.0769 523.637 17.0221C523.276 16.4464 522.792 16.1703 522.273 15.9584C522.124 15.8979 521.973 15.8427 521.821 15.7871C521.618 15.7131 521.414 15.6385 521.213 15.5507C521.013 15.4628 520.815 15.3617 520.626 15.234C520.343 15.0425 520.078 14.7915 519.849 14.4373C519.761 13.8302 519.947 12.4478 520.283 10.8877C520.344 10.604 520.41 10.3144 520.48 10.0225C520.725 9.00129 521.022 7.95213 521.339 7.02906C521.429 6.76531 521.521 6.51183 521.614 6.27226C521.684 6.09258 521.754 5.92066 521.824 5.75812C521.871 5.64975 521.918 5.54566 521.965 5.44603C522.012 5.34646 522.059 5.25139 522.105 5.16145C522.152 5.07142 522.199 4.98649 522.245 4.907C522.315 4.78786 522.384 4.68096 522.453 4.58804C522.498 4.52606 522.544 4.47021 522.588 4.42102C522.611 4.3964 522.633 4.37351 522.656 4.35225C522.733 4.27801 522.809 4.22473 522.884 4.19474C522.915 4.18186 522.947 4.17328 522.978 4.16919C523.127 4.14953 523.285 4.14564 523.451 4.15544C523.534 4.16033 523.619 4.16855 523.706 4.18C526.224 4.51217 530.275 7.48979 532.522 6.56273L532.296 6.18417L532.532 5.71391L533.194 5.45487C533.392 4.50281 533.712 2.44758 534.537 2.05139C536.182 1.26238 538.705 1.07846 539.92 2.68997C541.941 8.38518 531.964 20.8942 529.192 25.5034C529.082 25.6902 529.208 31.3933 529.221 32.0562C532.648 36.0222 540.491 35.3539 547.28 41.6484C548.922 46.1413 546.725 73.4087 551.527 76.59C552.173 77.0186 552.456 76.8408 553.124 76.7305C557.537 72.7339 554.006 60.7113 558.174 60.8275C560.161 62.3546 560.271 65.974 563.35 65.2976C563.739 65.2114 564.222 65.2895 564.624 65.3402L565.198 65.889C565.164 68.1703 564.062 69.0645 565.722 71.0118C567.612 73.2246 571.84 72.9759 573.682 74.3612L573.362 74.5764C569.671 77.1024 572.006 82.1266 574.608 82.465C579.14 83.0552 584.08 83.7429 588.622 83.9036C589.387 83.911 592.689 81.2789 593.185 81.4632C594.99 82.1349 598.263 84.9475 599.211 81.1213C598.276 78.3304 593.957 77.6053 594.343 75.7962C595.687 75.0669 596.173 75.4165 597.372 74.8351C598.279 74.395 598.791 70.7702 599.431 70.4144C600.859 69.6207 601.565 70.2872 603.367 68.8815C604.038 66.6684 604.494 65.5784 602.595 63.7676C599.723 62.8481 592.096 61.4103 592.203 57.7807C592.677 56.5771 593.559 56.0239 594.535 55.2466C595.771 55.2795 597.017 55.4595 598.11 54.9395L598.537 54.4368C598.336 53.9422 598.245 53.4801 598.166 52.952C596.565 50.8563 593.603 52.6049 592.25 51.2177C592.008 50.9688 591.745 50.4465 591.529 49.8334C591.493 49.7312 591.458 49.6264 591.425 49.52C591.128 48.5625 590.962 47.4694 591.154 46.858C592.783 41.6855 600.705 43.3382 604.581 41.6763C608.354 40.0581 610.529 36.842 613.781 35.0183C617.173 35.0189 620.61 34.9872 623.997 35.0268L624.282 34.7423C627.528 31.4679 625.045 28.5443 630.967 30.1526C631.605 31.9271 630.199 36.8432 628.742 37.755L628.237 37.3686C628.14 36.3304 628.08 35.7179 627.857 34.7043C627.227 34.6017 627.515 34.5304 626.966 34.773C624.938 36.3302 624.913 38.5229 626.376 40.7194C627.057 41.7466 629.188 41.3292 630.155 41.8099C631.74 42.5165 630.519 45.3556 633.959 45.9302C636.871 45.0117 636.73 40.2024 636.991 37.3896L639.354 34.2595C640.528 35.3533 641.793 36.5842 642.989 37.6263C643.908 41.1198 644.442 42.7159 642.012 45.6672C641.049 46.8396 640.245 47.7958 640.656 49.1139C641.629 52.2336 644.288 55.2953 647.652 53.8018C651.657 51.7348 652.743 49.8176 655.163 45.9112C655.211 45.8359 658.054 44.6871 658.38 44.5483C659.256 44.056 660.621 43.755 662.25 43.5625C662.483 43.535 662.721 43.5096 662.964 43.4862C664.421 43.3463 666.049 43.2776 667.705 43.2272C669.912 43.16 672.17 43.1257 674.14 43.0006C674.879 42.9537 675.578 42.8939 676.218 42.8149C676.432 42.7886 676.638 42.7603 676.838 42.7294C677.138 42.6831 677.422 42.6315 677.688 42.5736C678.219 42.4578 678.677 42.3171 679.044 42.1452C679.075 42.1309 679.105 42.1164 679.134 42.1017C679.193 42.0721 679.249 42.0416 679.302 42.0103C679.382 41.9633 679.457 41.9141 679.525 41.8629C679.549 41.6499 679.56 41.451 679.559 41.2617C679.559 40.9965 679.538 40.75 679.508 40.5095C679.491 40.372 679.47 40.2364 679.449 40.1004C679.417 39.8966 679.383 39.6919 679.354 39.4782C679.305 39.1221 679.268 38.7413 679.277 38.2987C680.715 37.7136 682.714 38.962 683.771 38.5757C685.309 38.0136 685.943 36.3502 687.987 35.761C689.118 36.4416 689.593 38.9612 689.861 41.372C689.932 42.0065 689.988 42.6335 690.038 43.2174C690.118 44.1515 690.183 44.9756 690.265 45.5441C690.317 45.9027 690.374 46.2584 690.436 46.6107C690.467 46.787 690.499 46.9624 690.533 47.137C690.6 47.486 690.672 47.8316 690.75 48.1734C690.77 48.2589 690.789 48.3442 690.81 48.4292C690.87 48.6842 690.935 37.229 691.002 37.4796C691.025 37.5632 691.047 37.6464 691.071 37.7295C691.117 37.8955 691.165 38.0607 691.215 38.2246C691.289 38.4706 691.368 38.7141 691.45 38.9552C691.559 39.2767 691.675 39.5939 691.798 39.9062C691.859 40.0624 691.923 40.2174 691.988 40.3713C692.053 40.525 692.12 40.6777 692.189 40.8291C692.429 41.3587 692.694 41.8729 692.983 42.3705C693.148 42.6548 693.321 42.9338 693.503 43.2069C693.549 43.2752 693.595 43.343 693.641 43.4106C694.2 44.2211 694.838 44.9792 695.564 45.6771C695.866 45.9679 696.185 46.2483 696.519 46.5177C696.653 46.6255 696.789 46.7315 696.928 46.8357C696.997 46.8877 697.068 46.9394 697.138 46.9906C697.351 47.1441 697.569 47.2936 697.794 47.4389C697.869 47.4873 697.944 47.5352 698.021 47.5826C698.202 47.7025 698.39 47.8169 698.582 47.9262C698.839 48.0719 699.104 48.2086 699.378 48.3375C699.446 48.3697 699.515 48.4015 699.584 48.4328C699.861 48.5578 700.145 48.6752 700.435 48.7861C700.87 48.9526 701.319 49.1045 701.776 49.2456C703.146 49.6688 704.594 49.9948 705.991 50.3256C706.302 50.3991 706.61 50.4729 706.914 50.548C707.218 50.623 707.518 50.6993 707.813 50.7782C708.255 50.8965 708.686 51.0205 709.1 51.1538C709.307 51.2204 709.51 51.2894 709.708 51.3611C709.774 51.385 709.839 51.4092 709.904 51.4338C710.294 51.5811 710.664 51.7404 711.01 51.9152C711.24 52.0317 711.46 52.1554 711.667 52.2869C712.159 52.5989 712.526 52.9868 712.828 53.4314C712.903 53.5426 712.975 53.6573 713.043 53.7753C713.157 53.9717 713.262 54.1772 713.363 54.3903C713.444 54.5607 713.522 54.7361 713.6 54.9155C714.087 56.0368 714.557 57.3192 715.56 58.5872C715.64 58.6887 715.724 58.7902 715.811 58.8914C716.379 59.549 717.103 60.1989 718.061 60.8164C719.431 60.6707 720.224 60.5594 720.942 60.5544C721.096 60.5533 721.246 60.5571 721.398 60.5665C721.449 60.5696 721.5 60.5732 721.551 60.5776C721.653 60.5864 721.757 60.5978 721.863 60.612C721.917 60.6191 721.971 60.6271 722.025 60.6356C722.135 60.6526 722.249 60.6724 722.367 60.6955C722.545 60.7301 722.734 60.7719 722.939 60.8213C723.213 60.8871 723.516 60.9664 723.86 61.0613C724.031 61.1088 724.213 61.1602 724.407 61.2156L724.156 61.2411C724.398 61.28 724.661 61.3243 724.939 61.3705C725.218 61.4166 725.511 61.4645 725.814 61.51C726.192 61.5668 726.585 61.6201 726.981 61.6619C727.14 61.6786 727.299 61.6935 727.459 61.7061C727.857 61.7376 728.254 61.7546 728.64 61.7493C729.026 61.7441 729.4 61.7167 729.752 61.6593C729.822 61.6478 729.892 61.6353 729.96 61.6213C730.097 61.5934 730.23 61.5605 730.358 61.5221C730.519 61.474 730.672 61.4172 730.817 61.3508C730.874 61.3243 730.931 61.2963 730.986 61.2666C731.013 61.2518 731.04 61.2364 731.067 61.2208C731.419 60.7778 731.98 59.9949 732.404 59.7363L732.495 59.9892C732.69 60.0095 732.904 60.0248 733.133 60.0347C733.362 60.0446 733.607 60.0491 733.863 60.0481C734.544 60.0455 735.307 60.0035 736.078 59.9174C736.271 59.8959 736.465 59.8715 736.658 59.8444C738.2 59.6278 739.706 59.231 740.599 58.6183L740.649 58.4248C741.375 58.1845 741.642 58.0195 741.827 57.8265C741.906 57.7437 741.971 57.656 742.051 57.5547C742.21 57.3522 742.429 57.0962 742.946 56.7216C744.274 55.7623 744.489 54.1878 744.854 52.7129C744.885 52.59 744.917 52.4679 744.95 52.3468C745.016 52.1046 745.09 51.8668 745.176 51.6368C745.219 51.5218 745.266 51.4086 745.316 51.2979C745.356 51.2094 745.395 51.1219 745.433 51.0356C745.509 50.8627 745.579 50.6941 745.644 50.5296C745.775 50.2008 745.885 49.8886 745.976 49.592C746.022 49.4437 746.063 49.2994 746.099 49.1588C746.28 48.4559 746.345 47.8485 746.31 47.3236C746.303 47.2186 746.292 47.1169 746.278 47.0184C746.241 46.7721 746.18 46.5459 746.097 46.3379C746.015 46.13 745.91 45.9403 745.786 45.7674C745.737 45.6983 745.684 45.6319 745.628 45.568C745.572 45.504 745.513 45.4426 745.451 45.3836C745.42 45.3542 745.389 45.3254 745.356 45.2972C745.001 44.9866 744.559 44.7489 744.055 44.5666C744.009 44.55 743.963 44.5338 743.916 44.5181C743.823 44.4868 743.727 44.4572 743.629 44.4294C743.58 44.4154 743.531 44.4019 743.481 44.3888C743.232 44.3232 742.972 44.268 742.703 44.2211C740.44 43.8273 737.524 44.0347 735.2 43.8756C734.978 43.8604 734.762 43.8419 734.553 43.8193C733.452 43.7004 732.53 43.4669 731.941 42.9976C731.856 42.9306 731.779 42.8588 731.709 42.7818C731.662 42.7305 731.619 42.6767 731.579 42.6207C731.612 42.5336 731.654 42.448 731.705 42.364C731.717 42.3429 731.73 42.3219 731.744 42.3011C731.771 42.2594 731.8 42.2182 731.831 42.1773C731.97 41.9931 732.144 41.8165 732.341 41.6471C732.515 41.4966 732.707 41.3518 732.908 41.2125C732.958 41.1777 733.008 41.1432 733.059 41.1091C733.212 41.0066 733.368 40.9071 733.523 40.8107C733.989 40.5217 734.448 40.2597 734.793 40.0225C734.908 39.9434 735.01 39.8672 735.095 39.7936C735.209 39.6955 735.293 39.602 735.338 39.5133C735.689 38.823 736.038 38.1483 736.398 37.5117C736.686 37.0026 736.981 48.2258 737.29 47.7769C737.328 47.7207 737.367 47.6652 737.406 47.6102C737.523 47.4452 737.642 47.2853 737.764 47.1314C737.804 47.0801 737.845 47.0294 737.886 46.9795C737.968 46.8795 738.051 46.7824 738.136 46.688C738.347 46.452 738.565 46.2337 738.792 46.0363C738.883 45.9574 738.976 45.8818 739.07 45.8097C739.492 45.485 739.947 45.2311 740.441 45.064C740.661 44.9898 740.889 44.9328 741.126 44.8944C741.599 44.8175 742.107 44.8151 742.657 44.8987C742.795 44.9195 742.935 44.9458 743.077 44.9776C743.577 45.0889 744.11 45.2682 744.68 45.5232C744.843 45.596 745.009 45.6749 745.178 45.7602C746.244 46.2985 747.478 47.0597 748.72 47.9475C748.927 48.0954 749.134 48.2468 749.34 48.4014C749.444 48.4786 749.547 48.5567 749.65 48.6355C749.856 48.7931 750.061 37.2454 750.264 37.4082C751.789 38.6293 753.22 39.9862 754.245 41.2915C754.879 51.2086 759.104 46.1757 766.069 50.3859C768.244 51.7007 771.36 49.3251 772.6 53.51C774.069 58.7366 773.865 67.3801 781.231 64.6947C781.372 64.8293 781.478 64.9336 781.562 65.0251C781.814 65.2995 781.875 65.4578 782.141 65.9686C782.466 66.034 782.717 66.0694 782.935 66.0681C782.983 66.0678 783.03 66.0656 783.076 66.0616C783.167 66.0536 783.254 66.0383 783.339 66.0148C783.382 66.003 783.425 65.9891 783.468 65.9732C783.617 65.9174 783.77 65.8359 783.944 65.7256C784.044 65.6627 784.151 65.5904 784.269 65.5081C784.387 65.4258 784.515 65.3333 784.659 65.2304L784.819 65.1132L786.212 65.0146L786.46 64.0977L786.824 64.116C786.796 65.4275 786.946 64.964 786.353 65.9804C782.8 68.2307 778.912 66.9065 777.455 69.0616C777.914 72.4019 781.724 73.0138 784.42 71.4263C785.233 71.5534 785.289 71.634 786.008 72.1094C788.221 71.4545 787.421 69.6845 789.31 69.2643L790.449 70.1197C791.4 70.1538 794.536 69.2079 796.052 69.4359C797.659 69.6773 798.563 68.651 800.22 70.1004C800.336 70.8968 800.221 71.1536 800.096 71.3097C800.067 71.3457 800.037 71.3763 800.01 71.407C799.863 71.5708 799.777 71.7354 800.16 72.7192C801.064 73.0722 801.754 72.9911 802.284 72.9828C802.36 72.9816 802.433 72.9822 802.502 72.9854C803.056 73.0116 803.41 73.2274 803.641 74.3887L803.914 74.689L804.196 75.0623C805.872 75.608 806.475 76.1576 807.727 76.3051C807.836 76.3179 807.95 76.3278 808.069 76.3342C808.369 76.3504 808.706 76.3459 809.099 76.3166C809.256 76.3048 809.422 76.289 809.598 76.2691C811.01 76.1088 811.082 76.372 812.58 75.7228L812.492 74.9965C814.864 72.3336 817.494 73.9508 820.369 74.8907C822.379 72.7165 823.666 71.8852 825.454 70.214C825.573 70.1026 825.694 69.9874 825.818 69.8679C825.899 69.7719 825.979 69.6753 826.059 69.578C828.524 66.563 830.289 62.9554 832.664 59.8261C833.479 58.7474 832.915 58.6001 834.368 58.4844C835.818 59.5216 836.163 62.0442 836.599 63.8835C837.026 63.8767 837.441 63.8796 837.846 63.8888C838.252 63.8979 838.646 63.9133 839.03 63.9313C840.468 63.9991 841.753 64.1045 842.875 64.0607C843.025 64.0548 843.172 64.0464 843.315 64.0348C844.286 63.9565 845.123 63.7372 845.818 63.2407C845.87 63.2039 845.92 63.1656 845.97 63.1257C847.194 62.1488 847.95 60.2255 848.193 56.5421C848.208 56.3106 848.239 56.0512 848.28 55.7745C848.308 55.59 848.34 55.3979 848.376 55.2011C848.575 54.1189 848.882 52.8975 849.094 52.0547L850.748 50.1432C851.828 49.7445 852.87 49.4357 854.012 49.316C866.89 47.9632 864.219 63.4456 867.728 66.244C868.434 66.807 869.256 66.832 870.097 66.6704C870.842 66.5269 871.348 66.2612 871.776 65.6945C871.837 65.6135 871.897 65.5266 871.955 65.4328C871.45 63.4798 871.049 63.0004 869.922 61.3351C871.548 57.4819 871.921 57.9157 875.753 58.0364L878.468 60.8216C882.809 52.8875 886.114 49.8057 894.487 46.9513C899.679 45.1827 905.278 47.8945 910.218 49.6513C910.394 48.3154 910.438 46.911 911.087 45.8071C912.691 45.1434 918.639 45.5761 919.923 46.9509C919.75 47.8952 919.587 48.488 918.802 48.9705C913.558 52.1827 912.603 51.8241 912.289 58.49C912.201 60.3066 907.35 66.0197 908.922 68.632C910.4 71.0419 915.007 71.4698 915.729 75.0155C916.367 78.1465 913.514 91.3884 915.381 93.0775C916.699 92.7804 918.783 90.9088 919.976 89.993C921.903 91.5127 925.484 96.0983 926.649 95.6643C932.38 93.5245 937.367 87.9449 943.716 86.2021C946.532 85.4298 950.019 87.5222 952.313 87.2556C952.621 86.1165 951.284 83.9849 952.445 83.7398C961.293 81.8703 967.796 82.0825 976 86.0364V89.4455C975.467 90.4059 974.751 91.8688 974.023 92.5929C972.605 95.2601 970.395 97.1702 969.039 99.6936C971.061 104.579 975.994 108.833 974.325 113.341C974.105 113.945 973.844 114.532 973.549 115.097C973.063 116.13 972.711 116.936 972.068 117.883C970.615 119.826 968.324 119.998 966.029 122.54C962.759 122.53 955.682 121.442 952.599 122.744C952.43 122.816 951.645 124.032 951.479 124.297C949.922 125.082 941.605 122.827 939.784 123.689L940.202 123.858L939.405 124.039L939.125 124.708L938.428 125.199C937.258 126.266 938.008 128.749 938.441 130.186C941.849 132.355 942.973 144.143 945.682 140.554C945.817 139.692 945.98 137.155 946.31 136.735C947.609 136.672 948.714 137.579 949.872 138.305C950.973 141.208 946.234 145.866 953.425 145.61C956.177 147.311 958.001 148.776 961.375 148.558C962.916 148.458 964.526 148.787 965.053 150.13C967.589 156.606 965.524 156.114 961.673 159.456C960.44 160.528 961.08 168.764 957.64 169.424C953.547 171.395 948.092 167.395 944.577 167.958C943.751 167.798 941.941 166.883 941.093 166.487C939.449 165.892 934.568 164.196 934.512 166.623C934.437 169.887 937.92 172.107 938.454 176.312L938.463 176.699C938.498 178.37 938.422 178.764 938.039 180.372C938.861 180.643 939.581 179.818 941.103 179.78C944.787 181.626 943.802 199.135 942.499 201.569C939.935 203.62 937.164 202.159 936.115 202.82C931.768 205.561 927.738 211.296 923.981 203.729C923.828 211.036 923.511 215.901 918.153 221.647C914.952 225.079 912.959 223.703 909.82 221.488C909.876 221.524 905.134 222.289 903.967 222.264L901.067 218.596C896.905 218.326 876.312 222.256 872.546 225.212C871.937 225.689 870.911 227.598 870.503 228.428C872.395 229.133 874.74 229.746 875.49 232.023C877.492 238.09 871.156 243.798 865.754 240.911C861.727 238.76 861.119 235.232 857.434 232.245L857.28 232.122C854.65 238.76 852.418 242.284 847.029 246.919C846.43 249.276 845.498 253.922 843.586 255.203C842.227 255.425 841.838 254.947 840.523 254.71C837.199 254.072 835.545 256.137 833.7 258.737C826.895 268.318 823.477 280.372 825.232 292.348C826.126 299.095 829.362 304.948 830.913 311.516C832.087 316.491 831.992 321.21 830.935 326.255C829.563 332.798 826.167 340.174 819.319 341.405C816.441 341.921 812.64 341.123 810.339 339.163C806.083 335.57 804.357 331.435 803.723 325.73C802.967 318.934 805.091 312.706 806.002 306.071C806.984 298.919 807.684 291.646 807.163 284.321C806.598 276.372 805.556 266.691 803.823 258.898C803.525 257.552 801.928 256.537 801.357 255.569C799.285 252.078 798.271 248.934 797.794 244.932C793.18 240.28 796.065 239.468 791.881 235.118C791.511 234.025 792.377 233.256 791.737 231.675C789.719 229.702 787.308 228.741 784.813 227.624C775.206 223.318 765.758 221.414 755.046 222.657C751.644 226.033 749.689 231.641 745.982 234.485C739.743 239.273 730.757 237.765 724.881 243.288C721.627 252.361 725.82 249.194 731.821 248.98C737.225 248.787 740.414 252.982 734.928 257.108C734.624 257.355 734.812 259.07 733.688 260.173C733.318 260.251 731.501 260.52 731.432 260.85C730.23 266.687 728.776 281.104 719.988 275.905C718.987 275.311 717.208 269.416 716.746 268.038C716.034 264.546 716.96 255.222 714.43 252.787C711.605 252.194 710.764 255.242 709.851 257.522C707.613 263.115 704.763 270.203 704.345 276.288C704.314 276.781 704.289 277.275 704.27 277.769C705.777 277.29 707.161 276.811 708.721 276.558C709.797 277.068 710.601 277.278 711.181 278.326C711.724 281.335 708.485 284.565 708.084 287.617C707.723 290.365 710.362 294.042 710.158 295.64C707.591 299.309 696.643 303.665 692.177 305.083C691.421 305.324 686.854 304.093 685.894 303.806C678.176 296.214 679.46 289.157 678.54 278.945C678.261 275.84 676.189 265.979 674.265 264.161C672.978 264.642 672.887 264.967 671.905 264.486C670.166 260.681 672.891 255.996 675.361 253.362C672.395 252.393 665.537 251.819 667.847 246.974C669.789 242.898 672.796 239.88 674.924 235.758C674.987 233.507 675.157 231.413 674.611 229.226C672.495 220.765 662.52 228.173 655.029 230.048C654.244 230.244 653.117 230.911 652.772 231.783C651.815 235.048 653.212 238.156 651.62 241.459C650.355 244.092 646.325 244.03 645.183 246.663C643.981 249.431 643.658 253.285 643.121 256.285C642.164 269.252 642.71 283.776 643.507 296.774C644.48 312.702 644.558 327.912 644.354 343.846C644.301 348.096 642.719 352.811 641.605 356.876C639.383 364.987 639.138 373.813 641.897 381.821C642.948 385.258 644.43 388.488 645.139 392.056C647.016 401.486 647 412.404 643.513 421.408C642.377 424.349 638.884 428.547 635.937 429.406C620.818 433.812 615.752 412.666 619.81 400.718L620.372 400.359C621.512 397.723 622.218 394.668 623.068 391.905C623.338 391.868 623.527 391.741 623.768 391.613C625.206 387.341 626.254 382.378 625.705 377.861C624.496 367.972 621.518 358.317 621.214 348.31C620.947 339.438 621.166 330.426 621.543 321.563C621.957 311.821 622.651 301.898 621.16 292.194C619.427 280.929 610.887 285.139 607.033 282.163C606.421 280.858 606.688 280.112 606.666 278.677C607.109 277.556 608.019 276.067 608.854 275.237C610.526 274.276 611.292 272.97 612.72 271.831C614.453 270.446 615.143 274.053 617.218 274.537C620.705 273.119 621.665 262.828 620.868 259.422C619.914 255.334 618.58 244.778 614.867 242.984L613.446 243.979C611.164 245.886 609.02 247.37 606.594 249.069C604.946 250.192 604.331 250.668 602.281 250.377C597.963 249.838 598.371 255.739 596.773 259.093C595.546 261.671 590.744 264.238 588.939 262.582C586.203 260.07 586.513 251.47 585.612 247.717L585.073 247.546L584.536 245.286C582.885 245.653 581.143 245.141 579.37 244.909C577.496 245.718 576.642 246.068 575.324 247.79C573.287 247.377 574.561 249.269 573.139 250.079C571.325 249.302 569.966 247.025 568.265 246.079C566.693 245.203 567.069 246.835 565.199 247.458C562.879 246.803 561.172 243.817 561.398 241.312C562.672 238.884 564.377 240.083 567.117 238.88L567.066 238.369C566.84 236.276 564.725 234.723 563.222 233.33C560.858 231.66 559.33 230.889 556.649 229.965C554.364 230.365 553.213 230.912 551.226 232.112L551.11 232.309C549.735 233.94 548.615 223.514 547.438 225.335L546.775 226.616C546.025 226.995 544.858 227.731 544.842 228.639C544.698 236.979 551.342 230.441 550.611 241.146C549.362 242.787 546.935 241.886 545.74 240.599C544.016 238.741 543.163 235.822 542.698 233.312C541.97 232.444 542.3 232.575 541.418 232.483C539.481 232.556 536.255 231.573 534.45 230.837C529.29 229.099 528.251 223.454 522.671 226.168L520.229 228.451C516.642 230.553 513.55 230.165 510.088 232.037L509.464 231.768C508.365 232.589 508.723 232.68 507.42 233.311L505.864 232.863C504.087 234.384 502.27 232.833 501.893 234.975C502.712 235.799 502.945 235.75 503.124 236.771C502.477 237.641 501.893 237.8 501.79 238.833C501.561 241.18 501.548 243.641 501.564 246C499.354 246.643 497.644 246.68 495.823 248.426C495.177 250.453 496.828 250.148 496.774 252.257C494.311 255.885 492.478 252.695 490.146 252.923C488.671 254.29 488.846 256.199 487.647 256.927C486.401 256.014 486.768 255.065 486.05 253.868C484.829 251.832 483.52 249.787 482.261 247.773C481.888 247.818 481.844 247.748 481.571 248.054C481.085 248.243 481.317 248.122 480.937 248.634C480.805 251.103 480.381 253.556 480.014 255.999L479.713 255.73L479.835 255.325C477.008 251.9 478.73 251.287 474.515 253.063C473.332 253.562 471.612 251.971 470.608 251.113C467.727 250.787 467.51 251.13 464.883 252.401C460.85 252.14 461.562 247.929 460.809 247.316C457.831 244.893 451.142 244.927 447.341 244.32C445.518 244.029 443.192 245.055 441.193 243.979L441.692 242.586L441.66 242.287C441.287 241.925 441.099 241.749 440.782 241.327L440.562 241.032C440.217 240.182 440.01 239.288 439.153 238.861C433.861 236.217 433.02 240.271 430.952 244.892C430.691 245.873 430.6 246.303 430.176 247.204L429.552 246.884C426.507 256.32 424.756 265.265 425.318 275.303C425.365 276.146 425.842 277.721 425.836 278.177C425.738 284.486 427.722 290.482 428.943 296.482C429.209 297.798 427.825 302.357 427.587 303.693C427.722 307.541 428.287 310.329 427.929 314.32C427.119 323.351 425.732 328.37 426.219 337.94C426.85 350.312 439.818 371.301 425.695 379.912C418.601 384.238 409.126 375.344 409.192 367.555C409.019 365.771 409.487 365.7 408.881 363.913C409.283 359.218 412.478 352.602 413.981 347.971C415.13 336.171 413.931 322.544 411.693 311.077C408.868 296.608 410.494 294.285 412.958 280.612C414.273 273.307 412.641 256.68 409.204 250.116C407.707 247.254 403.674 243.096 401.521 240.241L401.367 240.034C393.574 242.723 386.81 232.028 381.484 226.683C379.83 225.041 378.402 224.367 376.349 223.464C374.818 223.619 373.041 224.023 371.507 224.327C370.38 224.771 367.938 225.828 366.89 226.137C364.234 227.235 352.932 215.277 354.006 218.519C359.087 221.145 365.311 233.997 369.178 239.149C371.265 241.932 373.164 245.376 370.443 248.491C370.057 249.001 369.463 249.386 368.898 249.64C365.204 251.303 360.038 249.581 356.507 248.117C353.999 247.085 351.313 231.112 348.833 229.939C347.148 229.271 344.649 227.831 342.977 226.936C340.717 226.015 334.43 222.977 332.327 221.77L330.62 221.85C329.867 223.191 327.921 225.76 327.597 227.127C324.732 239.25 321.841 252.097 322.092 264.681C322.419 269.515 324.17 273.819 323.929 278.698C323.643 284.5 320.165 297.075 322.099 302.391C325.768 312.467 326.75 311.151 324.18 322.041C323.229 326.076 327.962 331.461 323.655 337.853C323.109 338.426 322.601 339.043 321.907 339.409C320.344 339.231 317.058 340.529 314.569 338.654C308.662 334.201 312.601 329.164 312.237 323.885C312.171 322.906 309.356 315.116 309.99 313.243C311.851 307.721 314.588 305.605 314.984 299.133C315.304 293.888 314.246 288.803 314.394 283.944C314.481 277.169 315.774 270.126 315.812 263.375C315.853 256.332 315.087 248.21 314.064 241.217C313.797 239.4 312.294 234.875 312.278 233.645C312.206 228.597 312.727 223.691 312.231 218.607L312.115 219.169C312.024 217.549 312.024 211.958 311.054 211.114C310.376 211.087 310.257 211.085 309.591 211.169L301.55 212.11L301.466 212.939C300.458 213.038 300.86 213.111 299.906 212.443C299.52 212.264 299.099 212.151 298.694 212.022C296.927 212.941 294.846 213.135 293.007 212.398C292.364 212.278 291.968 212.186 291.334 212.008L291.544 211.864C289.972 211.263 289.416 211.898 288.346 211.301L287.078 211.564C285.525 211.885 284.753 212.373 283.256 211.667L282.38 211.65C281.215 212.07 280.085 212.558 278.871 212.688L278.861 213.4L279.583 213.915C278.504 217.002 280.471 216.351 280.217 218.677C277.697 220.201 276.04 216.353 274.005 215.728C273.392 214.195 272.9 212.026 271.348 211.629C270.351 212.396 270.536 212.479 269.945 213.805C265.727 215.786 272.593 229.674 267.086 233.384C265.154 233.769 265.05 232.869 263.617 233.463C263.169 234.465 263.187 234.092 263.266 235.111C264.059 235.827 264.329 236.219 264.867 237.169C265.617 237.517 266.083 237.645 266.874 237.879L267.017 238.338C264.22 242.894 258 237.892 255.992 238.53C242.416 242.846 243.424 258.712 242.703 270.895C242.384 276.298 242.551 277.493 242.767 282.411C244.124 288.864 248.282 293.692 244.486 300.293C243.172 302.948 239.573 303.341 237.422 301.37C232.458 296.698 237.229 288.788 237.731 283.844C238.694 274.369 237.003 264.317 237.089 254.765C237.148 248.33 234.759 244.81 230.825 240.124C229.607 238.673 227.541 239.677 226.786 241.363L224.698 242.647C222.209 244.492 219.568 246.344 219.022 249.798C218.282 254.478 221.917 259.337 224.227 262.977C225.21 264.572 227.093 267.048 226.706 269.057C226.589 269.663 226.287 270.056 225.782 270.348C223.394 271.731 218.229 269.643 214.632 271.192C212.751 273.348 211.295 275.487 210.63 278.389C208.833 286.245 209.893 294.112 209.457 302.064C208.865 312.85 207.121 323.497 207.492 334.345C207.565 336.458 207.598 338.765 207.99 340.841C209.595 357.655 217.791 400.286 208.246 413.616L207.712 414.424L205.685 416.61H193.127C190.915 414.863 189.459 413.082 188.016 410.577C187.415 409.39 186.98 408.035 186.494 406.788C187.456 403.13 186.1 396.976 186.613 392.71C187.563 384.807 189.809 377.037 190.604 369.106C191.064 364.512 191.058 359.764 191.208 355.139C191.967 331.669 191.014 300.837 186.329 278.06C185.352 273.307 184.567 264.946 180.369 262.177C176.091 259.356 168.919 262.543 164.485 263.635C160.615 264.589 156.572 264.769 153.101 262.395C143.909 256.109 150.722 247.611 149.024 239.108L148.85 238.294C148.037 235.971 147.282 234.952 145.422 233.468C142.579 233.459 140.369 233.766 138.265 235.975C132.409 242.124 132.031 252.21 129.058 259.999C128.309 261.961 127.253 264.143 126.086 266.403C125.826 266.906 125.561 267.412 125.293 267.92C122.747 272.75 119.903 277.784 118.612 281.684C118.545 281.889 118.481 282.091 118.422 282.29C118.363 282.488 118.308 282.684 118.259 282.876C117.35 286.389 117.373 290.166 117.144 293.785C116.574 302.768 115.845 317.194 110.027 324.031C109.463 324.695 108.833 325.294 108.146 325.785C108.032 325.867 107.916 325.946 107.798 326.021C107.504 326.211 107.2 326.38 106.887 326.526C106.761 326.585 106.634 326.639 106.506 326.69C105.993 326.894 105.457 327.034 104.899 327.1C104.76 327.117 104.62 327.128 104.478 327.135C104.407 327.139 104.335 327.141 104.264 327.142C103.3 327.155 102.364 326.947 101.488 326.571C101.363 326.518 101.239 326.46 101.116 326.4C100.135 325.917 99.2376 325.226 98.4711 324.406C96.4251 322.217 95.2558 319.352 95.3001 316.25C95.3377 313.623 96.0164 310.668 97.0214 307.744C97.0958 307.528 97.1719 307.311 97.2497 307.096C98.535 303.531 100.273 300.053 101.89 297.318C101.988 297.152 102.086 296.989 102.183 296.829L102.241 296.625C105.395 289.683 110.555 283.119 112.658 275.715C114.583 268.935 111.889 261.445 115.235 254.85C116.021 253.198 116.963 251.733 117.964 250.227C122.656 242.339 126.536 238.412 126.448 228.624L126.164 226.66C125.466 226.059 125.36 226.024 124.479 225.835C121.067 226.877 116.488 239.199 113.212 242.547C108.966 246.886 102.308 247.389 98.0966 243.249C93.4108 238.642 96.6231 228.796 97.0857 223.093C97.3663 220.121 97.6367 217.288 97.7484 214.167C96.665 213.946 95.844 213.785 94.7759 213.436C93.5117 212.224 88.4741 211.714 86.3995 210.483C85.2448 209.797 82.4181 208.248 81.1865 208.285C80.6824 208.14 79.849 207.549 79.3619 207.243C76.8501 205.793 74.3476 204.325 71.855 202.838C69.685 205.851 67.9273 210.261 65.9845 213.56C65.2005 214.892 64.4025 215.763 63.5849 216.284C63.4759 216.353 63.3666 216.416 63.2569 216.474C61.9951 217.133 60.6852 217.004 59.3067 216.487C59.1869 216.442 59.0665 216.395 58.9456 216.344C58.8852 216.319 58.8246 216.293 58.7639 216.266C58.6425 216.213 58.5204 216.157 58.3979 216.1C57.2337 215.549 56.0196 214.792 54.7441 214.055C54.5947 213.969 54.4459 213.882 54.2978 213.796C54.0016 213.623 53.7082 213.449 53.4169 213.274C52.98 213.012 52.5481 212.749 52.1198 212.483C51.8342 212.305 51.5503 212.126 51.2674 211.946C50.5602 211.495 49.8603 211.034 49.1608 210.559C48.8811 210.368 48.6013 210.176 48.3213 209.981C48.1813 209.883 48.0413 209.785 47.9011 209.686C50.1414 206.942 53.1087 203.533 54.6077 200.291C48.2816 197.939 46.4391 199.245 39.9075 199.042C34.6243 198.878 34.2093 192.491 31.3143 189.841C27.0951 185.979 16.661 187.606 12.5827 181.462C7.21953 173.381 15.5679 166.929 16.7759 160.444C17.699 155.487 9.77985 153.44 7.22283 149.682C3.95932 144.887 7.3279 140.221 7.85362 134.879L7.88641 134.514C5.89623 130.493 2.51775 124.118 3.36793 119.459C3.6639 117.907 4.11437 116.393 4.71165 114.942C6.42062 110.775 9.37545 106.667 10.9953 102.46C14.6558 92.955 31.365 107.524 35.5839 104.5C35.5902 104.475 35.7165 104.034 35.6979 103.955C33.0926 92.8278 7.65816 96.8435 0.696753 87.5241C0.129338 86.7646 -0.103258 85.7893 0.0423673 85.1539C0.557746 82.9075 1.98074 81.9151 3.58862 80.7526C11.8023 80.1456 23.5966 77.9869 31.3772 80.2554C33.4885 80.8711 37.9187 84.0802 40.8049 85.2177L41.1629 85.3553C49.6161 82.2372 70.6899 66.4316 77.4146 66.277C81.2026 66.1899 84.2656 68.8922 87.8897 69.2034C89.4675 69.3388 91.0218 69.0891 92.2415 67.9154C93.8672 66.3507 94.9852 64.1319 95.1177 61.7906C95.4898 55.2023 89.559 48.1462 85.6954 43.5081C90.5863 43.1074 95.6951 44.3825 100.325 43.0837C105.53 41.6235 98.1574 29.139 102.804 27.3988C104 27.4666 104.731 28.0122 105.767 28.6292C132.259 25.6846 163.952 43.0458 188.449 51.5517C191.797 53.7793 201.307 70.6215 205.477 69.7457C210.349 68.7222 229.906 43.0277 234.093 39.3118C233.716 38.0972 232.888 36.3046 232.366 35.0864C234.232 28.2837 240.33 18.7665 244.111 12.7301C245.309 10.8176 246.715 10.1395 248.011 10.2989C248.07 10.3062 248.128 10.3151 248.187 10.3258C248.829 10.4431 249.44 10.7655 249.98 11.243C250.078 11.3298 250.174 11.4217 250.267 11.5184C250.92 12.1959 251.446 13.1103 251.762 14.1592C251.808 14.3091 251.848 14.4617 251.885 14.6167C251.921 14.7717 251.953 14.929 251.98 15.0886C252.008 15.2482 252.03 15.41 252.048 15.5736C252.118 16.2281 252.108 16.9123 252.003 17.6069C250.724 26.0859 246.254 34.0982 240.077 39.5669C242.336 41.8212 246.649 57.7147 250.937 61.0734C251.169 61.255 251.4 61.4342 251.632 61.6105C252.094 61.963 252.555 62.304 253.012 62.6302C253.241 62.7934 253.468 62.9528 253.694 63.108C254.485 63.6515 255.259 64.1441 256.002 64.567C256.214 64.6877 256.423 64.8028 256.63 64.9118C257.664 65.4569 258.627 65.849 259.477 66.0337C260.249 66.2016 261.284 65.692 262.354 64.9455C262.507 64.8388 262.661 64.7272 262.815 64.6121C264.044 63.6919 265.277 62.5447 266.175 61.8286C268.413 61.8783 269.242 61.9974 269.624 61.7028C269.648 61.6838 269.671 61.6632 269.692 61.6406C270.021 61.2907 269.965 60.4958 270.486 58.7732C270.543 58.5871 270.631 58.4338 270.746 58.3092C270.811 58.238 270.885 58.1762 270.966 58.1232C272.042 57.4199 274.415 58.2491 275.493 58.9864C276.752 61.5128 274.578 62.0644 274.8 63.9352C275.482 64.6659 275.083 64.4292 276.057 64.6374C281.026 64.7219 282.125 69.9789 285.154 71.8763C286.023 70.5125 285.609 70.7579 286.758 70.3414L287.169 70.732C287.134 71.4486 287.084 72.0821 287.137 72.8007C288.07 74.2299 289.724 74.6762 291.271 74.7325L291.393 73.3777L291.704 73.2035L291.942 73.5644C292.777 74.6874 292.897 75.1142 294.375 75.1609C295.869 75.2081 297.306 75.9629 298.549 74.8141C299.299 74.5032 305.567 75.8117 307.626 74.3477C309.123 73.5741 309.164 74.7773 311.198 74.3484L312.346 74.0317C313.668 74.2966 315.064 73.0223 316.584 73.0467C321.612 73.1275 326.524 74.8779 331.467 74.9333C333.711 74.9583 337.424 72.8785 337.923 70.4232C338.874 69.8341 338.931 69.3667 339.357 68.2642C336.89 67.1757 339.329 68.2919 337.766 65.6702C336.991 65.1485 336.134 65.3558 335.064 65.3552L335.535 64.995C335.158 64.8913 334.634 64.029 334.304 63.8278C332.311 62.6126 329.8 62.8194 327.773 61.0341C328.925 58.9091 350.835 61.0086 350.738 56.9419C350.562 49.4647 339.693 28.9002 332.804 30.3229C325.388 31.8534 322.418 23.9643 317.56 23.4023C305.966 22.0613 301.647 26.6267 293.841 14.8155C293.772 12.662 293.528 10.6074 294.905 8.82165C301.045 0.86248 329.794 18.9977 336.912 22.1277C342.053 24.3889 347.822 25.2925 353.126 27.2187C360.182 29.7824 366.691 60.1998 373.791 62.6132C376.76 63.6219 380.125 64.0586 383.185 64.6927C385.184 65.1069 387.4 65.951 389.44 65.6948C394.716 65.0321 396.561 46.9557 398.25 42.5303C399.16 40.1431 400.218 37.6857 400.849 35.1935C401.674 31.9414 401.684 28.213 403.752 25.5031C404.835 24.9991 409.229 25.1138 410.393 25.0882C413.497 25.02 419.662 38.4196 419.401 40.3716C418.259 40.8383 418.535 39.6496 417.166 40.4462C416.724 41.7966 417.352 43.961 418.277 44.9687C419.106 45.8703 421.673 45.2542 422.854 45.1573C424.285 46.0976 423.968 47.3641 424.624 48.7403C425.49 50.5477 428.858 49.6798 430.414 50.1684C431.023 50.36 431.573 51.8213 431.946 52.559C432.611 53.0368 433.45 53.45 434.256 53.5103C436.601 53.6819 436.707 50.8232 438.277 49.7538C439.975 48.594 443.951 49.6714 445.222 47.9006C446.801 45.7058 446.685 41.1933 446.66 38.576C446.603 33.3234 443.713 35.3018 442.059 33.7264C442.303 31.3643 446.5 30.0638 447.595 27.242C448.985 26.5519 452.787 28.2896 455.867 29.3487C456.135 29.4408 456.397 29.5279 456.652 29.6077C456.971 29.7074 457.277 29.796 457.569 29.8693C457.685 29.8986 457.799 29.9254 457.91 29.9496C458.187 30.0101 458.448 30.054 458.687 30.077C458.782 30.0861 458.875 30.0917 458.963 30.094C459.967 30.1196 460.899 29.9773 461.784 29.7266C461.92 29.688 462.055 29.6466 462.189 29.6031C464.535 28.842 466.572 27.363 468.802 26.3336C468.929 26.2748 469.057 26.2173 469.186 26.1616C469.958 25.8276 470.757 25.5543 471.602 25.3888C471.95 25.3205 472.321 25.2758 472.708 25.2496C475.42 25.0663 478.966 25.7948 481.652 25.7595C484.373 25.7238 487.797 24.0486 489.659 22.0112C491.776 19.6965 491.771 17.8676 491.121 16.0868C491.077 15.964 491.029 15.8414 490.979 15.719C490.752 15.1677 490.472 14.6183 490.185 14.0574C489.93 13.5588 489.668 13.0512 489.431 12.5254C489.135 11.8684 488.877 11.1829 488.719 10.4512C488.687 10.3049 488.659 10.1567 488.636 10.0065C488.613 9.85627 488.594 9.70402 488.58 9.54966C488.566 9.39531 488.557 9.23883 488.554 9.08005C488.574 9.05166 488.594 9.02408 488.614 8.99753C488.654 8.94434 488.694 8.89475 488.733 8.84853C488.833 8.73298 488.933 8.63847 489.032 8.56035C489.072 8.52906 489.111 8.50049 489.151 8.47422C489.191 8.44797 489.23 8.42397 489.269 8.40217C489.348 8.35859 489.426 8.32326 489.504 8.29411C489.543 8.27956 489.582 8.2666 489.621 8.25481C489.698 8.23117 489.776 8.21244 489.852 8.19652C490.274 8.10893 490.68 8.10411 491.059 7.80911C491.093 7.78227 491.128 7.75294 491.162 7.72102C491.467 7.43399 491.754 6.93015 492.016 6.00536C492.367 4.75798 492.782 2.84159 493.614 1.54315C493.657 1.47662 493.7 1.41174 493.745 1.34862C493.88 1.15913 494.025 0.985943 494.181 0.833501C494.233 0.782692 494.287 0.7341 494.342 0.688101C494.424 0.61911 494.509 0.555688 494.597 0.498491C494.656 0.460312 494.717 0.424877 494.778 0.392388C495.025 0.262589 495.296 0.179747 495.592 0.154639C495.666 0.148362 495.742 0.145643 495.82 0.14678Z" fill="#A4CD39"/>
</svg>
