<svg width="470" height="240" viewBox="0 0 470 240" fill="none" xmlns="http://www.w3.org/2000/svg">
<path fill-rule="evenodd" clip-rule="evenodd" d="M383.551 19.1124C383.87 19.1836 384.242 19.3965 384.422 19.7552C386.565 24.0253 382.531 30.6921 380.349 33.2509C382.067 36.1741 384.664 38.4076 387.179 39.8892C387.756 34.8703 389.612 40.3597 392.579 38.2826C395.089 36.5258 396.034 33.0537 395.648 29.4093C395.34 26.5139 393.698 23.955 394.685 20.8947C394.75 19.801 396.876 18.7939 397.41 19.4947C400.911 24.0835 395.852 29.9861 400.952 34.2214C401.678 33.4527 402.278 32.1105 402.927 31.0646C403.323 31.5183 404.13 32.8091 404.49 33.0176C407.543 34.7891 408.991 28.5975 409.798 25.8098C410.039 24.9772 410.204 24.6227 410.745 24.3388C413.741 24.8041 410.162 31.4906 410.96 33.8255C411.319 34.871 411.747 36.3942 412.639 36.8252C416.896 38.8793 420.295 30.1383 423.734 28.713L423.883 28.6534C424.536 28.9889 425.522 29.8196 426.283 30.2953C426.763 28.1402 427.487 24.7583 429.716 25.3283C430.005 25.3995 430.261 25.6292 430.422 25.9628C431.253 27.7293 428.998 30.8146 428.301 32.0956C426.627 35.1766 425.016 38.3882 424.525 42.23C424.355 43.5519 423.751 47.3104 425.483 47.4808C426.882 47.4104 426.006 45.0436 427.019 44.018C428.117 42.9056 429.518 45.2804 429.49 46.6298C429.467 47.7402 427.816 47.1766 427.315 47.9202C426.968 48.4341 426.195 48.6783 426.424 49.6445C427.366 50.5148 431.519 49.5782 432.853 49.3755C436.076 48.7644 437.311 48.2647 440.399 46.7786C440.742 46.9244 440.861 46.874 440.998 47.1847L440.717 47.626L440.751 47.8738L440.643 47.9888C439.524 49.1752 437.066 50.6693 437.009 52.7749C437.589 53.6022 438.98 53.4908 439.797 53.455C444.122 53.2463 448.586 51.4756 452.467 48.9425C457.174 45.8718 465.038 39.6495 470 44.8001V240L470 48.6363C465.901 51.849 463.873 51.09 459.505 52.3343C458.535 52.6105 456.596 55.0155 455.333 55.6091C450.342 57.9545 445.09 59.9791 440.193 62.6155C439.197 63.1522 438.857 65.7327 440.412 66.2958C441.541 66.0345 443.327 64.1383 444.463 63.3253C447.147 61.4041 452.737 58.234 455.596 60.7935C456.843 61.9082 458.106 65.0207 458.409 67.0065C457.725 68.8012 457.308 69.7622 456.837 71.6699C455.426 72.2273 455.188 72.3211 454.088 73.6816C451.866 73.4873 449.84 73.2232 447.609 73.3532L448.495 75.3641C446.794 75.2468 442.403 73.9616 441.407 74.3529C440.594 75.6938 443.668 80.7778 443.824 82.728C443.856 83.1198 444.063 84.136 444.276 84.3841C444.539 84.062 444.676 81.5883 444.795 80.8072C445.859 81.8918 446.114 81.7209 447.345 82.2964C447.403 82.4842 447.454 82.6489 447.499 82.7904C447.447 84.5416 445.095 86.3774 448.556 86.3227C448.871 86.6882 449.588 87.5416 449.912 87.7025C452.05 88.7679 454.522 86.8409 454.672 91.4672C454.704 92.4839 454.907 93.9563 454.325 94.7582C453.757 94.6866 453.533 94.371 453 94.6234C451.142 96.715 453.719 102.163 448.901 101.71C446.22 101.457 434.523 93.6007 441.06 103.736L440.917 105.911C440.337 106.998 439.686 107.959 439.718 109.324C440.451 110.47 442.274 107.849 442.868 107.114C443.702 110.768 444.78 129.39 444.65 133.245C444.508 137.441 443.71 136.825 440.824 136.759C439.509 138.897 439.267 139.366 437.23 139.989L437.121 139.844C436.482 138.971 436.048 137.829 435.567 136.782C434.686 134.861 432.396 132.336 430.778 131.641C429.773 131.817 429.301 131.949 428.33 132.282C429.294 135.179 430.165 134.866 432.049 136.397C433.97 137.855 435.844 141.387 434.72 144.476C433.201 148.642 431.076 151.599 427.481 149.463C424.872 147.913 425.687 144.027 424.585 142.546C423.549 141.945 422.897 142.761 422.179 143.718C421.437 144.707 421.933 147.031 421.077 147.984C420.445 147.672 420.337 145.942 420.01 145.071C419.426 144.783 419.147 145.379 418.755 145.929C415.876 152.612 414.176 146.476 413.77 154.16C413.576 157.818 413.944 161.853 414.085 165.536C414.196 168.694 414.205 171.858 414.116 175.018C413.905 183.334 412.892 191.503 412.639 199.79C412.558 202.403 412.947 205.277 413.446 207.8C413.742 209.237 414.063 210.665 414.407 212.082C416.769 219.084 419.913 225.31 417.656 233.345C417.227 234.873 416.75 236.391 415.888 237.564C415.395 238.646 414.803 239.252 414.045 240H407.058C406.21 239.286 406.074 239.167 405.316 238.222C404.083 236.249 403.063 234.215 402.808 231.566C401.163 224.845 404.969 218.769 406.548 212.726C408.364 205.784 407.999 199.927 407.488 192.81C407.164 188.369 406.856 183.927 406.568 179.482C406.292 175.428 406.186 171.356 406.246 167.286C406.288 163.796 406.559 159.555 406.281 156.145C405.874 151.174 406.153 162.959 405.749 157.956C405.644 156.643 404.95 154.911 404.828 153.508C404.229 151.964 404.013 151.416 403.014 150.317C401.339 149.928 400.229 150.534 398.582 150.678C394.454 151.039 394.732 141.502 390.541 141.844C386.166 142.202 385.124 146.284 384.714 151.376C384.081 157.957 383.768 147.165 384.776 153.585C385.515 158.279 387.085 165.673 384.347 169.65C383.535 170.807 382.416 171.48 381.236 171.521C380.213 171.558 379.202 171.122 378.509 170.103C375.131 165.132 377.316 158.325 378.095 152.857C378.526 149.873 379.803 163.745 379.814 160.705C379.825 157.747 379.486 142.857 375.619 142.767C374.628 142.743 370.443 143.646 369.832 144.519C369.176 146.505 372.288 149.395 369.674 150.442C367.708 151.229 366.812 147.148 365.761 146.352C364.974 146.834 364.646 148.982 363.912 150.3L363.821 150.459C362.494 151.247 360.905 151.682 359.746 152.749C359.069 153.373 358.05 156.353 357.268 156.585C355.94 156.979 352.955 155.411 351.775 154.639C349.06 152.938 349.455 149.018 349.587 145.515C349.664 143.451 349.597 141.178 347.082 142.279C346.812 142.397 346.55 143.552 346.441 143.972C344.894 144.839 344.151 145.466 343.152 147.252C342.554 148.76 335.136 145.743 334.75 146.003C334.448 145.883 335.065 162.483 335.201 161.953C335.572 160.514 336.352 159.147 336.917 157.859C337.869 155.687 340.858 149.122 340.802 146.79L340.627 146.669C340.138 146.771 339.795 147.224 339.406 147.642C336.218 151.615 335.138 149.923 331.675 148.369C330.535 147.858 328.602 160.292 328.037 161.875C327.491 164.698 323.911 149.347 323.21 151.705C322.847 152.931 321.578 162.554 319.199 159.267C318.575 156.849 322.276 150.16 322.97 147.298C323.591 144.741 324.488 159.668 324.948 157.579C325.712 154.836 326.772 152.413 327.382 149.576C327.91 147.124 327.416 142.963 324.825 145.085C323.861 144.402 324.584 142.708 322.264 142.827C319.896 142.949 318.849 144.203 317.266 146.341C317.477 150.309 315.622 149.253 313.332 149.518C313.903 147.974 316.166 144.709 315.909 143.535C312.917 140.622 308.179 146.45 305.663 148.27C305.418 148.447 304.346 148.626 304.026 148.68C301.936 150.9 303.807 151.742 302.294 154.101C301.624 155.148 300.606 156.243 299.542 156.33C299.083 156.371 298.631 156.156 298.295 155.734C297.102 154.259 297.231 150.39 297.187 148.354C297.138 145.961 295.938 145.466 294.4 145.584C293.251 145.673 292.525 146.854 291.826 147.952C292.086 148.475 292.162 148.596 292.32 149.177C291.082 149.865 290.129 147.006 288.961 146.873C288.43 147.237 288.52 147.306 288.15 148.087C288.095 148.037 288.042 147.987 287.99 147.936C284.927 144.987 284.854 142.53 288.79 141.747C288.863 139.983 285.025 137.162 283.82 137.081C282.893 137.018 281.406 138.819 280.73 139.633C280.149 140.333 279.157 142.88 279.136 143.882C279.397 145.208 280.403 145.282 281.291 146.467L281.393 146.606C281.445 146.833 281.491 147.062 281.532 147.293C281.668 148.079 281.994 149.94 281.673 150.624C278.483 153.114 278.378 147.831 277.253 145.482C277.131 145.229 275.784 144.76 275.533 144.71C273.532 144.313 272.168 142.518 270.649 140.871C268.664 141.458 268.375 142.141 267.017 144.195C265.868 144.485 264.941 144.777 263.844 145.35C263.701 145.425 263.357 144.877 263.22 144.695C262.93 144.823 259.88 145.982 259.82 146.172C259.206 148.113 260.436 153.376 258.003 153.18C257.502 153.14 257 153.585 256.739 154.118C256.66 155.408 257.414 155.027 257.212 156.227C255.171 159.344 254.964 153.92 253.36 159.132C252.698 156.956 251.711 155.049 250.652 153.194C250.497 154.707 250.685 158.211 250.417 158.901C250.006 159.377 250.161 159.345 249.738 159.328C249.261 158.715 249.235 157.852 248.835 156.923C247.706 156.379 247.698 157.451 246.851 157.466C246.32 157.232 246.005 156.571 245.637 155.973C244.543 156.057 244.357 156.187 243.354 156.867C242.888 156.865 242.365 156.171 241.765 155.774C240.496 155.842 241.043 157.281 240.049 158.135C239.509 158.087 239.175 157.948 238.959 157.277C239.292 155.842 241.029 155.574 241.446 154.415C240.564 151.982 233.791 152.759 232.277 151.953C232.141 151.446 232.736 151.085 232.77 150.594C232.834 149.644 231.589 147.851 230.994 147.681C228.737 147.034 226.577 147.603 224.242 147.124C223.487 146.004 222.884 144.205 222.087 143.29C221.737 146.55 221.495 149.812 222.206 152.99C223.255 153.734 225.265 156.31 224.789 158.112C223.132 159.022 220.271 154.458 218.89 154.034C217.03 153.464 213.278 153.267 211.598 154.157C208.293 155.909 205.646 143.979 204.249 148.015C202.815 152.292 202.648 156.959 203.046 161.553C203.556 167.452 207.325 175.87 201.692 179.433C199.944 180.539 197.359 179.023 196.689 176.567C195.579 172.765 197.075 164.595 197.084 160.377C197.089 157.224 196.805 155.491 196.408 152.402C196.039 150.845 195.418 147.581 194.004 147.457C193.075 147.922 191.856 150.861 191.47 152.035C188.467 161.167 189.732 174.784 191.139 184.39C191.284 185.095 191.701 188.266 191.813 189.238C192.7 196.96 194.135 206.965 192.488 214.527C191.993 216.803 190.973 218.221 189.456 219.18C181.969 218.865 182.01 208.972 182.576 201.368C183.894 183.671 187.884 166.574 183.528 149.013C182.565 146.639 183.148 162.534 181.093 161.932C174.569 164.193 175.748 161.611 176.73 167.898C177.756 174.484 179.915 187.065 173.717 190.186C172.708 190.694 170.488 190.114 170.084 188.752C169.022 187.297 168.544 184.849 168.283 182.939C167.02 173.659 170.163 165.634 171.087 156.741C171.417 153.558 171.522 165.784 170.987 162.484C170.044 159.112 169.89 156.935 167.765 154.381C163.738 153.149 162.811 158.821 159.689 160.893C158.581 161.628 157.4 161.08 156.976 159.526C155.764 155.079 162.335 149.025 160.608 145.029C160.185 143.365 158.478 140.262 157.054 140.599C155.815 141.628 156.499 144.437 154.268 143.866C153.085 143.563 153.359 141.251 154.229 140.746C154.85 140.335 156.426 140.491 156.832 139.986C155.416 137.084 151.442 140.071 149.867 141.233C150.471 143.109 151.977 145.448 153.007 146.995C151.687 146.84 149.182 144.413 147.996 143.279C146.144 143.842 143.09 143.54 142.37 143.904C142.131 144.962 142.973 145.975 142.83 147.145C142.562 147.595 142.727 147.482 142.342 147.555C141.652 146.702 141.803 144.917 140.869 144.682C140.495 144.975 138.901 147.264 138.43 147.888C138.371 145.071 138.291 144.525 139 141.928C138.207 141.802 136.68 141.343 136.068 142.058C135.686 144.949 132.931 142.859 132.272 144.937C132.363 146.103 133.226 147.192 133.812 148.046C133.921 148.717 134.055 149.237 133.956 149.901C132.519 151.682 130.215 150.564 129.051 148.843C127.701 146.849 128.089 145.318 128.169 142.858C128.267 139.812 126.207 138.6 124.872 136.743C123.612 136.233 121.158 135.548 119.965 136.32C118.051 137.559 119.377 140.996 119.949 142.787C120.674 142.262 121.865 141.559 122.686 141.775C123.875 142.089 126.167 143.875 125.942 145.772C125.663 146.245 125.529 146.235 125.072 146.418C123.908 146.081 124.008 143.857 123.194 143.182C122.8 143.456 122.254 144.942 121.946 145.608L122.934 148.08C121.43 158.706 117.083 145.005 113.269 145.334C109.917 145.622 109.852 150.099 108.404 153.487C108.078 154.251 108.033 158.92 107.991 160.002C107.137 157.774 106.945 156.173 106.107 154.08C105.838 153.407 105.065 152.47 104.501 152.45C100.644 152.308 100.809 158.542 98.8947 160.705C96.1296 163.83 91.767 144.802 88.6978 147.804C86.8555 149.606 86.0798 151.562 85.3577 154.275C83.2078 162.352 84.936 170.427 86.7446 178.271C87.6789 182.446 88.6383 186.387 88.0032 190.783C87.135 196.789 83.5135 201.949 78.6994 200.734C77.1033 200.33 75.2421 198.552 74.4362 196.608C70.9625 188.226 74.3656 178.124 75.8735 169.669C77.4538 161.112 77.9451 170.16 75.974 161.856C75.5262 159.97 74.8747 157.554 74.0959 155.908C72.4345 152.397 71.7144 155.365 69.6529 154.761C69.3114 154.697 68.8015 154.199 68.7089 153.727C68.2788 151.533 68.1484 145.429 66.097 144.678C64.9533 144.737 64.1436 147.064 62.5364 148.41C62.5907 146.843 62.7788 145.158 62.0433 143.899C60.7481 141.837 59.4107 139.638 57.4513 138.859C54.6835 137.759 52.3774 142.815 50.3553 142.306L50.2101 142.02C50.6321 140.584 52.1868 139.852 51.9557 138.379L51.6809 138.213C50.1129 138.411 49.173 140.214 48.2869 140.903L48.0902 140.698C47.9168 139.555 48.26 137.249 48.7352 136.283L48.7897 136.173C49.3579 135.012 50.204 133.962 50.9423 132.976C51.0613 130.808 50.1612 111.975 49.1754 110.051C48.6574 109.04 47.2135 107.754 46.3574 107.571L46.1899 107.742C45.9335 109.689 45.4748 109.876 44.1828 110.657C43.7352 110.505 43.2399 108.829 42.8709 108.192C41.9252 106.56 40.2606 105.064 39.0144 103.933C40.273 101.163 41.71 100.782 43.3214 98.7332C43.5205 90.7576 39.928 94.4266 36.413 94.1417L36.2535 94.1268C35.666 93.9831 34.6222 93.7069 34.2654 93.0436C34.8994 91.3241 40.5456 92.1473 40.2451 90.0315C38.9343 89.0361 36.0259 90.3135 35.0028 88.9082C35.0489 88.7683 35.0948 88.6281 35.141 88.4882C36.4233 87.9788 39.0232 87.4616 40.096 86.6265L40.2495 86.5054C40.3578 86.2607 41.4348 84.9992 41.6323 84.7424C43.3709 82.4832 44.2862 79.9795 42.9889 76.91C42.6485 76.1045 41.6802 75.0193 41.0727 75.3203C39.7304 75.9851 35.3415 74.8032 35.1986 72.5253C37.2672 67.818 42.1689 73.3917 44.5536 71.7944C45.3726 71.2459 45.4141 69.4758 45.7023 68.2624C46.7559 66.9322 49.8507 69.4827 51.422 68.421C53.8324 66.792 50.8242 62.2572 51.2371 60.7013C52.2731 59.9675 54.9426 62.5792 56.1391 61.0882C58.7001 57.8966 56.7207 56.2856 55.1324 53.8724C56.7118 54.4805 59.2015 55.8535 60.0808 53.1897C61.5724 48.6709 55.4521 48.2086 54.692 44.6295C54.7055 44.1772 54.8312 43.5273 55.1262 43.3094C56.9707 41.9466 59.3636 45.436 60.26 46.9621C62.0123 47.5065 63.7058 47.6652 65.4829 47.8227C71.2933 48.3377 69.2082 41.145 69.1874 36.213C74.0917 36.9375 74.1056 34.3763 73.6125 28.5873C75.3474 31.0508 78.9617 35.6989 81.6383 33.285C81.5509 33.3636 83.619 29.324 84.0835 28.8695C85.0468 27.9267 82.6727 22.0131 84.047 20.7085C84.3494 20.4175 84.7318 20.3213 85.0919 20.4456C86.7076 21.0006 86.2129 26.9777 87.2411 28.9617C88.1643 30.7436 88.3105 30.81 89.9424 31.4488C90.5953 30.975 91.2583 30.2685 91.7287 29.8744C92.7407 29.0263 94.8778 29.8807 96.1126 30.0243C99.9269 30.4672 100.135 26.4103 101.975 24.29L102.148 24.424C102.74 26.4668 102.094 28.914 102.257 31.0299C102.362 32.3876 102.862 34.6024 104.126 33.1957C104.774 32.4746 105.228 31.7859 105.691 30.8555C105.736 29.375 105.386 26.7833 106.214 25.7822C107.001 25.8489 107.099 26.3444 107.744 27.6112C108.702 29.4917 107.009 34.8554 110.105 34.4044C111.106 33.9915 111.392 30.3711 111.781 29.663C115.649 22.6304 117.13 29.5387 113.749 33.5094C113.276 34.0651 112.238 33.237 111.569 34.5948C111.608 35.4231 111.915 35.7195 112.358 36.2007C114.915 38.9732 117.483 36.3359 119.749 34.6158C119.768 35.9808 119.609 37.5993 119.69 38.8984C119.925 42.701 121.413 45.1792 123.388 40.8676C123.963 39.6111 125.256 41.28 126.105 41.0764C127.094 40.8388 127.584 39.2663 128.682 39.4573C129.444 39.5023 130.967 40.9844 131.674 40.7022C134.441 39.5975 134.496 34.3186 137.432 33.6157C137.988 33.4827 138.882 33.3787 139.361 33.8161C139.677 34.92 138.388 37.3081 138.495 38.1419L138.763 38.3669C139.411 38.417 140.716 37.7551 141.408 37.4688C140.239 39.4867 139.283 41.32 138.555 43.697C139.279 44.7781 139.839 45.3501 139.764 46.9286C139.658 49.1631 137.386 51.3752 136.161 52.7291C136.524 54.2282 136.701 54.8183 137.229 56.2278C139.001 55.3158 141.593 55.466 143.316 54.2084C144.603 53.2697 145.514 50.6683 147.106 50.9933C148.124 52.1342 146.984 53.7152 147.552 55.1319C148.614 55.6665 151.704 50.8166 153.484 52.8089C153.512 53.7418 152.645 54.286 152.521 55.7463C152.379 57.4 152.932 59.4758 153.666 60.7523C154.837 62.7861 156.082 62.5954 157.756 62.8558C158.391 60.8732 158.621 60.4919 159.692 58.9553C159.031 57.8333 158.358 56.9337 157.587 55.957C156.76 54.9092 154.468 54.8792 154.333 53.3222L154.568 52.9677C156.497 51.851 157.085 54.5865 158.709 55.4531C158.984 55.6004 158.908 55.0526 159.855 55.2813C160.87 54.4273 159.333 50.0951 161.578 47.1891C165.809 47.0391 162.807 49.8672 164.219 52.8706C164.457 53.377 165.008 52.8167 165.423 53.4914C166.022 54.4635 166.498 55.6087 167.156 56.5056C173.801 53.3046 165.784 50.7115 165.481 49.8577C165.65 49.2941 165.977 49.1021 166.369 48.7511C166.713 48.821 167.432 48.9383 167.763 48.9186C168.744 48.8602 170.897 48.8494 171.56 47.835C172.593 46.2546 170.848 43.7766 170.469 42.2547C170.389 41.9355 170.354 40.7461 170.344 40.3773C169.334 39.8086 166.963 39.5277 166.812 38.161C167.454 36.6323 170.215 35.9835 171.484 35.9028C172.337 34.6444 172.609 33.8508 173.664 32.5908C174.743 31.2997 176.435 31.3753 176.949 30.2322C176.877 28.6485 173.306 28.407 173.928 26.9138C175.286 23.6567 177.046 27.7619 177.533 29.1551C178.561 28.6581 179.792 28.2102 180.7 27.4077C181.322 26.8563 181.578 25.4332 182.122 25.1585C184.481 26.1202 181.626 34.9806 191.463 36.9437C194.716 34.4772 192.624 33.4778 194.011 31.7812C194.83 32.0657 194.439 36.9837 195.598 38.1176C197.701 40.1713 197.22 36.1273 198.299 35.9757C199.149 36.6836 199.186 37.9555 199.218 39.1833C199.277 41.3437 199.392 42.6686 199.929 44.7127C201.722 41.7555 200.947 42.0107 201.395 39.0759C201.715 36.9721 206.221 35.6533 207.852 34.739C207.871 33.9444 207.851 33.0176 207.849 32.2113C206.099 28.1408 204.372 27.3482 203.682 21.7307C204.286 21.5417 205.27 21.1724 205.857 21.3272C206.768 21.567 206.58 22.5273 207.091 23.4993C208.393 24.3682 209.672 20.5349 210.815 23.3431C211.233 24.371 211.444 25.5539 211.616 26.7006C211.851 28.2776 210.738 27.9643 210.235 28.8418C210.5 29.912 212.678 32.4081 213.415 33.3631C213.925 32.6062 214.291 31.721 214.859 30.8573C216.294 29.9158 219.135 32.3868 220.157 30.7291C220.166 30.141 220.089 29.8844 219.975 29.3315L219.882 29.2209C218.669 27.7805 217.94 26.7319 217.832 24.4352C217.767 23.0349 218.094 20.3464 219.535 20.5248C221.073 20.7152 220.736 23.0179 221.555 24.3837C222.237 24.6736 221.801 24.1909 222.496 24.1679C223.025 26.0666 220.101 29.4643 222.488 30.8788C223.872 31.9784 226.636 31.0351 227.821 31.5214C232.109 33.2806 231.855 34.2533 236.291 32.025C237.707 33.4017 238.014 33.7909 239.164 35.4907C238.75 35.5877 237.988 35.6726 237.714 36.0627C236.653 37.5756 236.848 40.0746 237.956 41.4489C238.426 42.0306 239.017 41.8388 239.619 41.8363L241.362 43.6302C242.468 42.4136 242.675 42.2027 244.081 41.9857C244.895 38.1685 245.059 40.6608 246.483 39.7477C246.742 39.3382 246.816 39.285 246.863 38.7784C246.392 38.4737 245.494 38.9211 244.926 39.1129C247.745 35.6385 246.395 33.403 249.476 31.4037C250.125 31.5474 251.24 31.1625 251.776 31.517C252.905 32.2617 253.467 40.6225 256.186 43.2442C260.566 44.1568 264.974 40.4583 269.025 38.8678C274.02 36.9062 278.447 34.1754 283.215 31.4961C284.972 30.5095 290.692 28.0929 290.65 32.6414C290.646 33.0176 289.933 34.5858 289.71 34.9289C287.707 38.5146 284.613 36.7065 281.892 37.5653C280.994 37.8572 279.614 39.4558 278.672 40.2395C277.03 40.086 276.214 40.1172 274.348 40.8293C272.722 41.4502 270.218 44.2269 270.576 46.8612C270.979 48.3043 273.006 49.1409 273.618 50.0544C274.991 52.1041 274.925 53.0206 276.921 54.0218C278.254 53.7406 280.636 52.6784 281.841 52.5882C283.241 52.4831 285.731 53.7393 287.406 54.0417C287.925 53.6905 288.614 53.1889 288.878 52.4767L288.807 52.2029C287.002 51.2222 286.466 48.903 288.428 48.1858C291.664 47.0019 295.64 47.3734 298.987 47.2498C299.57 47.2281 300.596 48.1759 301.154 47.9928C301.558 46.8884 300.347 41.8994 303.462 42.8139C304.01 42.9748 304.391 44.9573 304.626 45.7148C307.096 43.9184 306.909 44.2723 309.608 45.308C311.586 44.0096 316.018 40.0338 317.853 40.8162C319.708 41.6071 319.726 42.2688 322.058 42.1515C326.09 38.3691 322.561 32.8614 320.158 29.3935C321.088 29.3675 326.243 30.287 326.696 28.7246C327.024 27.5956 325.91 23.0913 326.5 21.8902C326.769 21.8005 327.667 22.2743 328.536 22.298C329.75 22.3312 331.451 22.3446 332.621 22.509C340.681 23.6425 348.087 27.1407 355.453 31.5165C356.674 32.2414 359.521 32.9765 360.435 33.978C363.521 37.3534 363.177 40.2218 367.196 43.0268C370.219 40.5416 374.138 37.4063 376.958 34.6169C376.106 32.5541 374.106 30.8967 374.784 28.2591C374.881 27.8832 374.983 27.9095 375.226 27.7735C376.064 27.9244 377.043 29.3632 377.687 30.1685C378.522 27.921 381.832 19.3623 383.551 19.1124Z" fill="#FBE300"/>
<path d="M220.569 162.603C222.131 163.194 222.647 164.668 221.458 166.326C219.644 165.7 219.04 164.667 220.423 162.549L220.569 162.603Z" fill="#FBE300"/>
<path d="M147.955 154.543C148.572 154.438 149.284 154.716 149.635 155.444C150.133 159.319 145.561 163.496 143.452 165.258C142.884 165.621 142.266 165.961 141.685 166.295C143.064 161.991 143.988 155.25 147.955 154.543Z" fill="#FBE300"/>
<path d="M236.737 160.85C238.051 160.799 240.618 160.915 240.909 163.116C240.76 163.794 240.468 163.995 240.043 164.436C236.61 167.089 236.149 165.263 236.737 160.85Z" fill="#FBE300"/>
<path d="M217.926 146.409C218.859 146.232 219.271 146.319 220.19 146.45C222.198 148.213 223.079 151.278 223.913 154.226C224.502 156.307 224.514 158.824 222.277 158.416C219.466 157.094 213.658 153.063 216.311 148.382C216.99 147.186 216.865 147.127 217.926 146.409Z" fill="#FBE300"/>
<path d="M109.28 153.877C111.174 153.697 111.358 155.961 110.128 157.477C109.905 157.522 109.682 157.566 109.458 157.606C108.054 156.863 108.223 155.038 109.28 153.877Z" fill="#FBE300"/>
<path d="M127.37 147.953C128.56 148.511 131.596 152.75 130.166 154.428C128.33 153.56 127.462 151.229 126.938 148.817C126.872 148.514 127.221 148.159 127.37 147.953Z" fill="#FBE300"/>
<path d="M113.345 161.159C114.233 162.043 113.25 146.007 113.591 147.411C113.333 148.723 113.002 149.883 112.655 151.152C110.943 149.54 111.639 163.067 113.345 161.159Z" fill="#FBE300"/>
<path d="M153.663 162.515C154.238 162.487 153.582 145.865 154.012 146.347C154.444 147.685 153.994 148.06 153.217 148.795L153.142 148.802C152.319 148.86 151.859 149.117 151.371 148.078C151.247 146.685 152.807 163.1 153.663 162.515Z" fill="#FBE300"/>
<path d="M122.872 154.594C124.041 154.915 125.976 156.616 126.776 157.708C127.148 158.841 125.408 146.009 125.306 147.381C125.302 147.386 125.02 147.744 124.986 147.788C123.853 147.09 124.68 163.819 123.75 162.737C122.044 160.753 119.896 156.601 122.872 154.594Z" fill="#FBE300"/>
<path d="M51.3704 159.28C52.038 159.23 52.126 159.191 52.4688 159.924C52.6665 161.662 50.5373 145.991 49.4524 146.566C48.764 146.321 49.7112 163.037 49.6119 162.175C49.8679 160.851 50.6128 160.137 51.3704 159.28Z" fill="#FBE300"/>
<path d="M361.507 154.214C365.15 153.754 363.722 157.63 362.762 160.368L362.296 160.399C360.57 159.414 360.807 157.117 360.906 155.002C360.925 154.611 361.278 154.421 361.507 154.214Z" fill="#FBE300"/>
<path d="M395.682 153.01C398.179 152.872 398.471 155.083 397.981 157.782C397.411 158.617 397.09 159.122 396.3 159.499C395.051 159.488 393.877 158.802 393.486 157.078C393.301 156.263 393.386 155.381 393.722 154.659C394.221 153.592 394.827 153.292 395.682 153.01Z" fill="#FBE300"/>
<path d="M39.7978 145.173C39.9674 145.153 40.1831 145.17 40.3574 145.175L40.5035 145.497C40.5905 148.829 34.5935 152.849 32.6444 154.005C32.2632 154.056 32.1627 154.014 31.9159 153.664C31.9257 153.576 31.9323 153.477 31.9674 153.406C33.8735 149.578 36.8048 146.747 39.7978 145.173Z" fill="#FBE300"/>
<path d="M145.736 148.686C147.252 149.12 150.834 150.982 149.399 153.815C147.46 153.609 143.525 152.225 145.736 148.686Z" fill="#FBE300"/>
<path d="M48.0958 144.043C48.3401 144.196 48.2271 144.086 48.3698 144.524C48.259 147.996 45.3751 150.076 43.2382 151.256C41.3214 148.3 46.7189 144.984 48.0958 144.043Z" fill="#FBE300"/>
<path d="M449.782 137.657C452.689 137.817 457.064 139.552 458.828 142.951C459.243 143.751 459.207 144.573 459.214 145.517C456.569 145.055 451.102 140.781 449.782 137.657Z" fill="#FBE300"/>
<path d="M157.292 140.908C156.802 142.182 156.29 143.595 155.495 144.17L155.452 144.2C156.272 143.645 156.793 142.205 157.292 140.908Z" fill="#FBE300"/>
<path d="M11.9103 134.198C12.5201 134.153 12.725 134.192 13.1952 134.707C13.7965 136.364 12.8406 137.19 11.8822 137.875C11.2483 137.964 11.3492 138.074 10.8393 137.749C10.2475 136.37 10.999 134.907 11.9103 134.198Z" fill="#FBE300"/>
<path d="M33.9295 131.116C38.5226 129.973 39.0363 134.83 34.5843 137.319C30.2624 137.721 29.0914 133.017 33.9295 131.116Z" fill="#FBE300"/>
<path d="M25.7251 106.651C29.1401 106.486 29.9543 125.364 28.2731 128.652C27.5669 129.026 26.7735 128.619 26.0597 128.337C25.041 127.939 22.3973 110.987 21.8859 110.277L21.9069 109.851C22.5685 108.441 24.579 107.319 25.7251 106.651Z" fill="#FBE300"/>
<path d="M29.8785 97.6325C30.2183 97.5918 30.8361 97.491 31.1403 97.9254C32.1077 99.3066 33.934 102.294 34.3271 104.084C34.4594 104.687 34.0383 105.422 33.8017 105.819C29.7312 107.432 28.5029 99.9489 29.8785 97.6325Z" fill="#FBE300"/>
<path d="M10.411 85.5694C11.3013 85.5941 12.2884 85.8314 12.768 86.9537C13.141 89.3221 10.827 90.7527 9.54305 91.4733C7.60935 92.5331 5.53225 87.6742 10.411 85.5694Z" fill="#FBE300"/>
<path d="M25.9181 84.445C26.9714 84.3838 28.2569 85.0961 28.1538 86.7593C27.8722 87.4745 28.0363 87.2646 27.5575 87.6285C26.6018 87.5643 25.0936 87.3287 25.0857 85.7162C25.3498 85.0309 25.4893 84.9157 25.9181 84.445Z" fill="#FBE300"/>
<path d="M0 81.0359C1.56499 80.0941 7.24048 78.8192 8.20749 81.1186C8.20894 84.8981 1.49672 82.5279 0 81.5112V81.0359Z" fill="#FBE300"/>
<path d="M21.634 70.108C23.4122 70.0829 27.8946 70.4537 27.7834 73.8056C27.4371 74.3117 27.5848 74.1477 26.9532 74.3286C25.5432 74.1415 20.5905 72.8426 20.1767 70.9465C20.4989 70.3316 20.5239 70.4614 21.1151 70.1216C21.2881 70.1141 21.4611 70.1095 21.634 70.108Z" fill="#FBE300"/>
<path d="M45.982 54.6333C47.8241 54.5011 51.0934 56.9787 50.5342 59.5808L50.1423 59.8407C49.8582 59.8353 49.5742 59.8177 49.291 59.7881C48.1249 59.6519 45.4014 57.3851 45.4444 55.4154C45.4525 55.043 45.7608 54.8552 45.982 54.6333Z" fill="#FBE300"/>
<path d="M47.4394 50.3853C49.171 50.2073 52.4255 51.2204 52.1656 54.2503L51.8524 54.486C50.7625 54.1271 47.1745 52.518 47.0973 50.7452L47.4394 50.3853Z" fill="#FBE300"/>
<path d="M147.745 48.1244C147.797 45.3704 149.808 44.7907 151.473 45.0558C152.533 45.3915 152.94 45.6109 153.93 46.1638C152.452 48.1548 149.671 51.4565 147.745 48.1244Z" fill="#FBE300"/>
<path d="M26.0673 40.5546C27.005 41.181 27.1387 42.591 27.6695 42.678C29.2069 42.93 30.3794 43.08 31.8903 43.7835C32.1426 44.2105 32.4221 44.8579 32.6428 45.3345C32.6595 46.4001 32.8039 47.8894 32.339 48.6816C31.9318 49.1269 31.5106 49.0637 30.9876 49.0804C27.4162 48.4488 29.006 44.12 27.3179 43.4645C26.9363 43.8529 26.8722 43.9432 26.4027 44.0132C25.8437 43.9126 25.4494 43.2029 25.0431 42.6368C25.2989 41.6258 25.5342 41.3001 26.0673 40.5546Z" fill="#FBE300"/>
<path d="M443.798 45.3135C443.125 45.9162 441.407 47.5147 440.751 47.8738L440.717 47.626L440.998 47.1847C440.861 46.874 440.742 46.9244 440.399 46.7786C441.642 46.1664 442.522 45.7613 443.798 45.3135Z" fill="#FBE300"/>
<path d="M297.374 38.3915C298.11 38.352 299.187 38.2168 299.818 38.7712C299.966 39.7574 298.802 40.4936 298.139 41.8989L298.052 42.0875C297.947 42.4348 297.953 42.3769 297.774 42.6717C296.259 42.9162 295.101 40.2722 297.374 38.3915Z" fill="#FBE300"/>
<path d="M62.0168 37.2553C62.8325 37.1949 63.1724 37.2461 63.6476 38.2061L63.6998 38.313C64.161 39.2459 64.8115 41.515 64.2383 42.4786L63.9715 42.38L62.81 41.1117C60.0578 41.1252 60.6018 39.3667 62.0168 37.2553Z" fill="#FBE300"/>
<path d="M156.621 36.2156C157.691 36.1527 159.245 36.2259 159.852 37.677C160.036 38.1236 160.077 38.6522 159.964 39.1403C159.688 40.3819 158.839 40.9529 158.059 41.5262C156.741 41.8914 155.309 41.529 154.873 39.5397C154.734 38.922 154.784 38.2545 155.013 37.6875C155.384 36.7803 155.931 36.4574 156.621 36.2156Z" fill="#FBE300"/>
<path d="M48.8562 33.5532C50.7775 33.4138 52.7571 36.3737 51.237 38.4088C49.7224 38.1686 46.9062 35.2935 48.4841 33.59C48.6078 33.5742 48.732 33.5618 48.8562 33.5532Z" fill="#FBE300"/>
<path d="M126.718 31.6129C129.288 31.4264 130.029 34.7227 127.704 36.9503C126.164 37.3708 125.121 36.5235 125.329 34.2339C125.455 32.8398 125.946 32.4029 126.718 31.6129Z" fill="#FBE300"/>
<path d="M362.609 12.7192C369.874 14.5793 373.005 33.2485 368.299 35.3708C366.201 34.4162 366.516 33.6212 364.822 31.9657C364.409 31.5385 363.448 31.4464 363.065 31.097C358.494 26.926 360.691 17.7918 362.609 12.7192Z" fill="#FBE300"/>
<path d="M150.308 29.8006C153.357 30.4381 150.581 34.9835 147.997 35.3128C144.258 34.1183 148.194 30.3382 150.308 29.8006Z" fill="#FBE300"/>
<path d="M123.135 17.6922C124.778 18.4665 126.628 22.4641 125.555 24.735C125.169 25.5526 124.393 25.5645 123.741 25.6946C123.634 28.3018 123.051 29.7168 121.167 30.5048C121.041 30.4174 120.799 30.1823 120.671 30.0661C120.272 27.2858 122.218 27.2841 122.624 25.0529C122.135 24.1909 121.254 24.5711 120.68 23.5817C120.191 20.9455 121.167 18.4497 123.135 17.6922Z" fill="#FBE300"/>
<path d="M165.333 19.8316C167.719 19.6409 168.551 23.2942 166.699 24.9111C164.458 24.7656 163.556 21.6785 165.333 19.8316Z" fill="#FBE300"/>
<path d="M312.468 17.5557C314.57 18.7393 315.511 21.3388 315.762 24.2209C313.409 22.9884 312.199 21.0352 312.468 17.5557Z" fill="#FBE300"/>
<path d="M229.346 18.0259C230.435 18.1358 230.918 19.838 230.603 21.1107C230.231 22.6164 229.867 23.023 228.884 23.7543C227.911 23.0505 227.765 22.394 227.333 21.0588L227.361 20.9729C227.979 19.2098 228.077 19.1094 229.346 18.0259Z" fill="#FBE300"/>
<path d="M145.701 17.8872C146.312 18.0149 146.76 18.1721 147.002 19.0046C147.072 20.7417 145.711 21.6712 144.66 22.0657L142.955 22.0471C143.787 19.7669 143.951 18.8442 145.701 17.8872Z" fill="#FBE300"/>
<path d="M426.73 8.41837C426.959 8.51067 426.916 8.51205 427.122 8.70316C427.432 11.1042 423.155 19.2564 421.878 21.3361L421.711 21.4017C421.385 20.4242 422.563 16.3211 422.885 15.2688C423.766 12.3954 424.688 10.0341 426.73 8.41837Z" fill="#FBE300"/>
<path d="M93.1613 10.8346C95.0317 12.1725 95.8335 16.6954 94.8947 19.274C92.8048 16.9934 91.521 14.2901 93.1613 10.8346Z" fill="#FBE300"/>
<path d="M155.992 14.2776C158.193 14.1213 158.147 17.2285 155.771 17.8944C155.289 17.8434 155.082 17.7752 154.62 17.626C154.241 17.1426 154.325 17.3852 154.279 16.7275C154.589 15.6507 155.321 14.9702 155.992 14.2776Z" fill="#FBE300"/>
<path d="M143.413 13.1589C144.891 13.1139 144.829 16.8325 143.188 17.1865C140.807 16.1051 142.143 14.5218 143.413 13.1589Z" fill="#FBE300"/>
<path d="M396.029 0C396.133 0.134658 396.233 0.273667 396.331 0.416871C397.109 1.5492 398.073 3.6957 397.853 5.27914C396.898 12.1874 392.701 9.01928 393.85 3.14456C394.149 1.6157 394.514 0.894264 395.565 0H396.029Z" fill="#FBE300"/>
<path d="M111.142 1.29109C111.496 1.78452 111.636 3.53248 111.561 4.2366C111.352 6.20962 110.698 7.25424 109.599 8.41212C108.115 5.68004 109.563 3.08365 111.142 1.29109Z" fill="#FBE300"/>
</svg>
