<svg width="100" height="100" viewBox="0 0 100 100" fill="none" xmlns="http://www.w3.org/2000/svg">
<path fill-rule="evenodd" clip-rule="evenodd" d="M59.0653 0.828445C77.5241 4.23082 92.5272 17.6903 97.9039 35.6779C103.28 53.6653 98.13 73.1495 84.5665 86.1283C70.9972 99.1063 51.3089 103.391 33.5755 97.2235C34.2761 97.1462 34.9736 97.1076 35.6683 97.0982C34.9727 97.1073 34.2733 97.1452 33.5717 97.2225C19.3114 92.2614 8.05361 81.1201 2.94887 66.909L3.73886 66.9052C3.50056 66.9031 3.23995 66.905 2.94887 66.909C2.18401 64.7922 1.56575 62.6254 1.10117 60.4259C6.34162 60.0917 6.36413 63.6991 7.73499 68.1148L7.73688 68.1157C9.35729 73.2779 16.2409 81.8719 20.2805 85.5536C26.5864 91.3009 40.1382 96.0758 48.3477 97.719C47.7307 97.7702 47.1152 97.792 46.501 97.7925C47.1164 97.7921 47.7332 97.7713 48.3515 97.7199C80.7137 97.7772 104.725 63.1114 93.1611 32.8753C87.2915 17.519 74.8327 10.7837 60.8895 3.73649C60.8735 3.70996 59.2289 1.09358 59.0653 0.828445Z" fill="black"/>
<path fill-rule="evenodd" clip-rule="evenodd" d="M32.8779 32.7322C40.8211 32.0868 61.138 31.0929 68.022 33.3756C69.9935 34.0283 71.2229 35.2962 72.118 37.1211C74.9392 42.8681 74.4641 56.2629 72.3 62.2422C71.3765 64.8028 69.7838 65.6669 67.4667 66.7705C59.8067 67.6079 41.1103 68.2258 33.9828 66.5482C31.745 66.0202 29.0084 64.9212 27.7788 62.8479C25.6656 59.278 25.9946 43.4607 27.0086 39.2802C27.8301 35.899 30.0622 34.4562 32.8779 32.7322ZM44.8729 56.9762C48.1928 55.5723 51.1897 53.9678 54.2491 52.0579L58.6458 49.5182C54.1757 46.7215 49.6374 44.0393 45.0313 41.4761L44.8729 56.9762Z" fill="black"/>
<path d="M13.3554 15.9782C23.4686 5.0906 37.8939 -0.737055 52.7266 0.0748219C46.1886 0.087291 46.2505 0.374124 40.2565 2.78033C31.5542 6.27102 23.554 9.35776 17.0499 16.4586C7.53167 26.005 4.70942 36.6514 2.12589 49.5662C1.40073 53.1893 0.488576 52.5129 0.41488 56.4195C-1.49431 41.6855 3.24804 26.8657 13.3554 15.9782Z" fill="black"/>
</svg>
