<svg width="100" height="100" viewBox="0 0 100 100" fill="none" xmlns="http://www.w3.org/2000/svg">
<path d="M57.7174 33.8926C62.4243 33.3059 65.1516 35.566 68.7145 38.1647C65.9541 41.4736 63.0281 44.8504 63.2671 49.4336C63.5119 54.1146 66.8814 56.9078 70.1541 59.783C67.2456 65.5887 64.9917 69.738 59.1692 73.164C54.5078 71.9111 50.9955 70.7317 46.1691 71.9282C43.9551 72.7182 42.27 73.3747 40.0048 72.2999C35.0476 69.9488 32.0932 64.2619 30.3743 59.3523C28.3423 53.5471 27.8249 47.1222 30.6139 41.4651C32.071 38.514 34.3363 36.0011 37.5633 34.9459C41.684 33.5985 45.7085 34.8671 49.4023 36.7191C52.1285 35.5778 54.8832 34.7225 57.7174 33.8926Z" fill="black"/>
<path d="M58.7999 23.4167C58.8966 24.3898 58.8279 25.2007 58.4978 26.131C57.183 29.8649 53.3864 32.3376 49.9829 33.9796C49.8806 33.7862 49.8806 33.7992 49.784 33.5677C49.1751 32.1854 49.482 30.42 50.0681 29.0764C51.5309 25.7107 54.8955 23.8418 58.1625 22.532L58.7999 23.4167Z" fill="black"/>
<path fill-rule="evenodd" clip-rule="evenodd" d="M34.5072 2.4445C46.8183 -1.56139 60.2335 -0.616146 71.8445 5.07633C84.059 11.1203 93.0976 20.9895 97.4233 33.8916C101.453 45.9147 100.827 60.6567 95.0444 72.0368C91.5098 78.9941 83.7345 89.7246 75.914 92.2778L75.3732 91.9857L76.4832 90.762L75.9689 90.7386L76.0276 90.6169L76.021 90.6178L75.9632 90.7386H75.9689L76.4775 90.762L75.3676 91.9857L75.9083 92.2778C70.7288 97.617 57.6896 99.8412 50.5237 99.9917C44.2571 100.123 38.3033 98.6906 32.3669 96.8374L32.3716 96.8365C30.4652 96.4664 28.6551 95.6199 26.9251 94.7748C15.7141 89.3035 6.75981 78.5377 2.77162 66.8958C-1.29395 55.0269 -1.06136 39.4853 4.63257 28.1458C10.8343 16.0629 21.5471 6.84417 34.5072 2.4445ZM33.5289 96.8093C35.3948 96.8221 37.7573 97.0481 39.7889 97.0415C37.7565 97.0476 35.3939 96.8217 33.5289 96.8093ZM41.6839 96.9413C41.5427 96.9587 41.3972 96.9719 41.2483 96.9844C41.3952 96.972 41.5388 96.9594 41.6782 96.9423L41.6839 96.9413ZM57.4958 4.22153C46.9262 2.14924 35.9579 4.26876 26.9592 10.1218C15.5321 17.5871 7.35066 25.637 4.56343 39.3117C2.04435 51.6698 3.4532 64.5921 10.635 75.2688C14.9965 81.753 23.4245 89.91 30.4709 93.2618C33.7834 94.8363 37.5574 95.5923 41.1431 96.2962C41.6839 96.4021 42.2589 96.4389 42.7313 96.7391H42.7294C55.7263 97.5005 60.3712 96.037 72.4933 91.5325C72.4961 91.5317 72.4989 91.5306 72.5018 91.5297C98.2544 74.8634 103.308 46.9127 87.6735 21.7287C81.68 12.0707 68.1564 6.37602 57.4958 4.22153Z" fill="black"/>
</svg>
