<svg width="470" height="240" viewBox="0 0 470 240" fill="none" xmlns="http://www.w3.org/2000/svg">
<path fill-rule="evenodd" clip-rule="evenodd" d="M254.711 4.48765C255.79 3.56314 256.735 3.95054 257.926 4.49876C258.114 7.67448 258.942 8.58971 258.03 11.5596C257.331 13.8305 254.815 15.4453 255.115 17.2414C257.585 19.5405 259.929 16.253 262.053 17.3113C262.84 19.0049 262.973 19.9205 264.144 20.7076C265.393 18.8388 268.391 15.5715 268.554 14.7376L266.08 12.9687C266.043 12.2708 267.288 6.75706 267.575 6.37547C270.74 5.89726 270.819 9.26063 272.335 7.85839L272.431 5.44406C273.556 4.28619 274.863 4.90157 276.196 5.4174C276.504 7.23601 275.521 8.52535 275.296 10.17C274.551 15.6241 269.857 16.3346 271.24 23.1331C284.546 27.4526 276.471 31.2429 281.322 35.7035C282.201 34.6269 282.455 28.0053 282.397 26.3383L283.438 24.6077L284.029 24.596C284.629 26.7077 284.487 27.4001 285.678 28.2361C287.723 27.6543 287.777 27.5005 288.298 24.5632L288.723 24.1728L289.131 24.8415C288.377 26.3514 286.799 29.1001 286.665 30.7438C287.719 31.5445 301.757 30.2812 303.673 30.1128C303.99 28.4174 304.106 29.1303 303.569 27.8507L298.626 25.3869L298.276 24.2183C298.963 22.5252 298.664 23.089 300 22.0067C300.733 22.0027 300.704 21.95 301.358 22.3811L301.691 21.8884C300.529 20.61 300.171 20.6887 298.772 21.2619C298.014 19.8584 297.997 19.8089 297.764 18.0711C298.747 13.8932 303.044 15.8415 304.781 14.2161C307.575 11.5988 307.388 9.74128 311.478 10.5676C313.61 10.9982 313.577 9.99816 314.143 7.35187C315.276 7.26319 315.113 7.52005 316.308 8.59374C315.983 9.74078 315.709 10.6623 315.475 11.8628L315.055 12.1778L314.738 10.2289L314.313 10.4871C314.155 11.5027 314.051 12.3667 313.772 13.3369L315.18 14.9276C315.771 14.5567 315.73 14.5857 316.25 14.1244L316.558 14.4893L316.192 15.6179C316.883 16.5289 316.896 16.718 317.853 16.8915C319.261 14.7832 317.525 11.8318 319.836 10.2172C321.352 10.9617 322.713 13.8322 322.247 15.9973L320.856 17.2458C320.56 19.2885 321.006 20.2355 322.193 21.4746C326.953 21.2562 324.479 16.4475 328.885 15.7673C332.067 15.2765 334.57 15.1109 337.781 15.0847C337.722 12.6437 336.498 13.6431 337.152 12.0245C338.264 12.0404 338.231 11.985 339.222 12.6021C340.134 11.9486 340.979 11.3514 341.912 10.7537C343.698 14.451 341.52 18.2498 344.669 22.832C347.409 26.8231 352.202 25.9355 352.802 27.729L353.264 29.1425C354.414 32.7111 355.88 31.7951 358.041 32.5372C360.769 33.4744 361.935 35.9442 364.879 33.7046C366.166 31.8818 366.653 27.2952 367.311 24.4322L366.824 23.3302C365.475 23.3354 360.99 23.6144 360.094 22.8804C360.223 21.1435 359.936 21.7354 360.665 20.7987L361.818 21.0142L361.976 20.6432C363.005 18.3308 363.588 17.0192 365.416 16.0256C367.365 16.1206 369.806 19.2583 371.447 21.0231L371.53 23.7585C373.212 25.4724 375.032 24.8152 377.389 26.9165L378.243 26.0678C379.322 28.85 379.988 32.3728 381.445 34.1961C382.774 34.6642 383.399 34.5137 384.852 33.7141C387.284 32.3772 390.249 35.4654 391.865 35.5063C394.214 35.5654 399.403 34.3192 401.673 33.5219L403.576 35.2459C405.171 34.5503 405.425 33.4009 406.428 31.2358C409.01 33.4141 404.975 34.665 411.688 34.5416C414.433 31.7036 411.48 25.485 416.702 26.1111C421.258 26.6583 420.096 34.6275 421.612 36.2467C423.359 35.8732 422.812 36.3081 423.871 34.7654C423.238 33.6774 423.16 33.5911 422.858 32.26C423.59 30.756 423.103 31.182 424.278 30.7754C425.277 31.476 425.606 31.7633 426.497 32.6966C429.15 27.1213 427.997 28.6395 432.403 25.4113C436.63 22.3188 438.441 26.5442 440.773 26.0995L440.99 23.6629C442.452 23.829 443.376 23.9653 444.842 24.3339L444.388 25.8634L444.176 25.6191C443.259 26.2674 442.202 26.8705 441.469 27.7924C442.547 33.1043 436.838 36.0399 441.098 38.2756C442.114 38.8107 442.323 39.2265 442.831 40.4372C443.36 44.2477 441.818 48.4412 442.46 50.806L443.168 51.342C443.947 50.5622 444.134 50.4418 444.701 49.322C446.037 50.2069 446.341 50.929 447.249 52.5061L448.215 52.8521C452.184 49.3817 454.808 45.1404 459.485 48.0773C459.676 46.697 459.36 46.8738 459.522 45.4475C460.951 45.3912 466.639 44.8223 467.876 45.6924C468.284 45.9774 468.172 46.4694 469.608 46.9193L470 47.683C469.654 50.2895 467.601 52.2967 466.664 54.0723C466.219 54.9213 469.812 60.0583 469.35 61.3698C468.859 62.7688 468.168 64.7754 467.676 66.1807L467.147 65.9296C466.447 66.6911 466.131 67.062 465.498 67.9196C463.47 68.1113 460.63 67.0371 459.276 67.853L459.768 69.2876C456.794 69.9974 454.395 66.9934 452.884 69.2615C453.871 71.591 455.561 75.7029 455.865 78.2923C456.694 77.1322 456.232 77.5955 456.39 75.417C457.252 75.6781 458.339 75.9309 459.106 76.4478C458.764 77.6024 458.231 78.8607 458.323 79.9435C462.504 80.0232 458.781 82.4667 464.586 81.8502C466.11 83.6121 465.831 85.543 465.744 88.0924L464.357 87.8464C462.499 90.0564 464.244 91.8497 462.708 94.4101C459.322 96.6661 454.799 91.3429 451.497 91.6637C450.522 93.8749 451.605 94.6427 452.796 96.2824C453.308 100.388 451.247 99.7882 451.651 102.413L452.334 102.733C453.25 101.883 453.75 101.351 454.587 100.358C455.732 101.494 455.449 109.958 454.991 112.003C453.35 113.158 451.905 111.555 451.251 112.931C450.331 114.867 449.869 114.672 448.382 115.035C446.416 113.898 448.298 113.224 446.212 112.145L445.875 112.706C446.391 118.235 445.704 142.749 443.168 147.532C442.551 148.694 442.051 149.385 441.06 149.84C440.315 149.192 440.052 148.936 439.374 148.167C438.216 148.777 437.754 149.264 436.567 148.742C436.296 147.606 436.263 147.293 435.584 146.46C433.785 146.471 423.799 149.269 422.312 150.266L421.537 152.163L420.096 152.606L420.05 153.142C421.374 153.854 423.04 154.382 423.794 155.689C422.716 159.118 423.115 159.891 420.046 159.749C417.035 157.509 418.805 155.579 415.607 154.126C414.524 156.488 414.283 159.35 412.234 161.276C409.214 164.111 411.147 165.323 409.681 167.597C406.886 167.963 407.682 165.322 405.858 168.236C400.694 176.47 400.356 175.912 392.76 174.344C392.781 171.01 393.185 170.864 391.665 168.332C390.286 166.037 390.541 163.188 388.979 161.004C388.105 159.784 388.292 157.301 387.517 156.918C387.234 156.778 387.134 156.576 386.972 156.316L388.021 156.124C386.513 151.064 374.166 147.85 370.343 149.049C368.531 149.618 366.907 156.673 364.508 157.299C361.776 158.794 358.091 157.868 356.208 161.41C356.296 161.247 355.709 163.458 355.355 164.203L355.559 165.308C358.353 167.528 360.81 163.009 362.085 167.077C361.068 169.393 360.794 167.078 360.694 169.062C360.656 169.795 360.56 170.064 360.331 170.701C359.961 170.346 359.636 169.994 359.207 169.805C358.503 174.573 358.869 177.785 356.371 180.214C352.648 179.899 354.522 168.867 352.644 166.138C351.769 166.242 351.257 166.252 350.403 166.62C349.054 170.92 347.147 176.658 346.967 181.286L347.396 182.05C348.121 181.726 348.846 181.416 349.574 181.12C350.511 181.788 350.336 181.339 350.607 182.291L349.991 182.065C349.903 183.94 349.633 184.367 348.775 185.812C349.166 187.907 350.062 161.694 349.479 163.65C349.416 163.866 350.62 163.998 351.261 165.669C333.75 180.302 339.7 181.866 334.786 173.04C335.844 171.678 336.319 171.353 336.581 169.34C335.915 168.835 335.919 168.936 335.144 169.072C334.503 170.557 334.086 171.556 333.562 173.126L333.316 172.436C334.307 169.281 333.899 168.993 335.565 167.346C334.207 165.588 331.929 166.429 331.592 164.787C332.779 160.532 335.486 160.67 335.094 154.092C334.728 147.917 327.019 143.739 323.983 147.799C323.429 151.007 324.429 152.158 323.529 154.123C322.734 154.385 321.505 154.475 321.093 155.489C316.645 166.463 326.245 190.92 318.374 195.032C317.312 195.59 316.154 196.017 315.08 196.557C313.947 197.12 313.635 197.108 312.648 198.32C310.036 188.413 311.815 192.269 309.995 181.344C309.216 176.678 304.598 178.496 303.594 176.634C304.094 175.047 306.122 170.773 307.08 170.028C307.775 170.864 308.483 171.687 309.195 172.494C311.381 168.049 310.228 158.422 307.608 154.592C307.262 154.92 303.431 158.582 303.352 158.578C300.749 158.455 300.487 160.59 300.441 163.383C299.475 165.261 298.663 166.336 296.989 166.789C294.053 165.288 295.694 158.474 294.232 156.035C292.208 155.194 290.093 155.674 289.551 158.84L290.167 159.581C287.944 159.462 287.71 156.667 286.419 156.922L285.978 158.104C284.812 157.629 283.588 155.046 283.396 153.433C284.516 151.988 284.92 152.365 286.728 152.041C286.373 150.057 282.959 147.057 281.389 146.955C279.215 147.867 276.974 151.204 276.616 154.288C277.557 157.137 279.323 153.595 279.523 160.539C278.599 161.542 278.707 161.16 277.087 160.953C274.601 158.646 276.637 157.835 274.817 155.237L274.522 155.19C268.033 154.114 269.745 147.005 264.597 154.225C264.248 154.309 261.786 154.519 261.907 155.468C261.936 155.677 260.512 154.066 260.537 155.04C259.179 155.971 257.955 155.2 257.168 156.807L257.709 157.678C256.456 159.915 257.921 161.466 256.785 163.162C255.136 163.331 255.781 163.05 254.298 164.612L254.423 165.436L255.235 165.965C254.319 167.225 254.648 167.111 253.536 167.564C252.679 166.653 253.161 166.91 252.004 166.898C251.363 167.933 251.383 167.851 251.079 169.137C250.805 167.615 249.259 165.235 248.51 163.469C247.627 165.936 248.793 168.099 247.702 169.839C245.641 167.914 248.468 165.803 244.529 167.903C242.85 165.774 242.938 165.671 240.776 167.303C239.494 165.972 239.96 166.03 238.732 166.215C238.332 167.264 238.277 167.304 238.111 168.448C237.066 168.305 237.561 168.53 236.645 167.517C237.578 165.268 238.785 166.481 239.244 164.436C237.932 162.562 232.143 162.446 229.895 162.213L230.382 161.111C229.924 158.802 230.282 159.653 228.92 157.937C226.734 156.949 222.523 158.141 221.765 156.983C219.945 154.207 217.713 147.042 213.957 147.562C211.808 152.412 217.788 157.281 212.099 159.625C207.772 161.407 204.395 148.708 200.372 150.212C199.722 150.455 192.097 153.973 191.86 154.253L191.556 155.679L191.993 156.608C195.35 157.349 197.778 156.427 199.377 162.34C198.527 171.309 183.623 156.95 181.012 157.541C178.192 160.456 179.166 166.532 175.477 168.005C173.907 167.645 174.323 168.07 173.519 166.673C173.311 162.198 176.176 158.457 175.76 155.973C174.152 154.914 174.119 155.308 173.369 153.225C172.553 152.609 170.213 153.751 169.555 153.722C168.064 153.657 166.681 152.662 165.353 152.408C163.77 152.105 159.876 148.965 158.781 150.431C159.043 151.271 159.281 151.977 159.576 152.796C157.032 154.446 154.904 151.216 153.975 154.474C153.026 157.802 154.392 159.519 152.755 161.442L151.597 161.057L151.202 162.128C152.172 162.798 152.293 162.76 153.396 162.904L153.226 163.947C151.497 165.174 151.064 165.445 149.253 164.65C148.799 164.447 148.345 164.23 147.895 163.999C146.171 164.394 145.609 165.828 144.413 167.489L143.506 167.312L143.593 165.686C140.366 167.107 142.011 170.163 138.558 168.769C136.947 166.286 137.588 165.521 135.951 164.477C134.281 164.947 132.924 166.722 131.516 168.202C129.93 175.008 134.635 177.424 134.831 181.371C132.486 182.992 131.474 180.486 128.976 182.325C127.993 183.694 127.626 185.257 127.368 187.092C126.785 191.193 128.401 170.286 128.247 174.444C128.018 180.575 127.227 186.683 127.244 192.831C127.252 195.589 127.835 198.092 128.081 200.793C128.743 208.016 130.338 225.328 129.347 231.96C128.939 234.684 127.868 237.345 126.352 239.222C125.673 240.064 123.662 240.081 122.758 239.922C121.401 239.694 120.043 237.994 119.277 236.492C117.99 233.984 117.711 231.084 117.728 228.098C117.757 222.234 119.427 216.541 119.764 210.7C120.21 202.971 118.956 178.792 113.421 177.219C108.582 175.845 104.163 182.977 99.9865 174.833C99.2369 173.366 99.0912 172.012 99.3744 170.282C99.8076 167.676 101.061 165.011 99.8864 162.474C99.4575 161.547 98.9329 161.13 98.2166 160.701C93.0276 160.233 92.8901 170.433 91.3992 175.09C89.9166 179.721 87.7719 184.019 86.2977 188.616C85.6564 193.223 87.4391 187.945 81.4508 188.616C80.0057 188.116 78.7562 186.887 77.9483 185.181C75.4163 179.892 82.5957 190.806 83.995 185.52C84.9236 181.997 84.1406 177.552 84.9068 173.994C86.3727 169.388 91.9405 162.23 90.0498 156.77L89.3129 156.028C85.9771 158.372 85.4232 170.208 79.0765 167.295C73.3087 164.65 79.2721 153.473 76.9068 149.418C76.6194 149.331 72.7548 148.651 73.0339 148.966C71.4222 147.158 67.7114 145.111 66.1539 143.384L65.4918 143.584C61.8063 152.707 62.7223 152.882 55.8052 147.947L55.5885 147.121C56.2798 145.658 58.1456 143.026 58.2039 142.028C55.9093 139.865 54.498 116.265 52.0035 115.752C50.8125 115.508 49.6504 110.701 48.6759 110.064C45.7108 108.133 40.7257 109.33 40.0094 103.398C39.4097 98.4521 45.065 94.5862 41.6963 91.3627C40.1763 89.5024 38.2062 88.8437 37.7522 85.8886C37.5107 84.3093 38.9892 79.7495 38.7352 79.1933C33.7878 68.4318 38.785 68.0133 40.2676 59.9847C43.7325 57.7006 47.4891 63.1426 51.0331 62.885C51.9326 54.7294 37.1985 58.1371 35.0371 51.3454C35.3786 49.7513 35.3454 50.1979 36.5281 48.9432C40.4052 48.5679 44.2615 48.0061 48.1261 48.3945C49.8377 48.5669 52.8153 52.1531 54.0438 51.3093C58.6456 48.1494 63.239 43.9985 68.0157 41.1076C71.2474 39.1512 74.3249 45.415 76.9194 40.5722C79.1348 36.3284 75.3162 30.5759 73.5296 27.4786C75.7327 26.948 78.5478 28.9304 80.8883 26.6333C80.73 25.0014 80.0973 19.8257 80.3222 18.5699C82.1252 18.4847 81.4508 19.1674 82.5626 19.1254C92.8323 18.7375 103.115 23.9143 112.564 29.2342C114.392 30.2642 116.97 31.0929 118.844 32.2195C121.288 34.7278 123.541 41.7878 126.765 43.0999C127.835 42.7418 137.322 33.9801 139.379 32.3234C139.537 30.7635 138.697 28.9464 138.684 28.971C140.649 24.1993 141.911 18.7139 145.055 15.3431C146.454 15.9419 145.947 15.5439 146.938 17.0693C147.929 21.6441 144.406 29.2152 141.632 31.6358C142.378 34.1063 148.599 39.1923 150.631 40.2906C156.145 43.2702 157.095 46.3064 161.759 51.5808C165.399 51.223 174.61 46.7946 177.138 47.1409C183.701 48.8915 183.06 51.5093 187.337 43.3042C188.474 41.1273 194.313 41.1633 188.882 33.0176C188.8 32.8938 188.712 32.7754 188.62 32.6621C186.772 30.398 183.038 30.1737 180.753 30.2522C179.192 28.8241 178.713 28.2388 177.372 26.5144C174.736 26.4649 172.108 26.3471 169.476 26.1611C168.353 25.0781 167.062 23.9557 166.23 22.581C165.966 22.1464 165.749 21.6867 165.597 21.1947C165.584 21.1531 165.572 21.1113 165.56 21.0692C165.262 20.0135 165.267 18.8111 165.765 17.3969C170.538 12.6289 182.207 24.4719 187.262 25.9517C193.388 27.7444 201.671 34.1168 207.577 34.8921C211.733 35.4375 211.874 27.3536 213.644 24.0811C213.669 20.5092 213.353 20.689 215.373 17.9295C216.077 18.2156 215.815 18.0677 216.398 18.7826L217.83 18.1567C218.684 19.1172 219.183 19.7163 220.158 20.4971C221.22 23.578 221.441 26.8871 223.327 27.8323L222.902 28.3789C222.04 28.0848 221.799 27.9947 220.937 27.5141C221.291 29.3766 220.97 28.5805 221.945 29.9845L222.444 29.8157C223.086 29.6047 223.219 29.601 223.898 29.6146C224.352 30.8981 224.443 31.2565 224.752 32.6277C225.326 32.7022 226.596 32.8642 227.05 33.057C227.083 33.0701 228.137 34.9466 228.587 34.5377C231.177 32.1839 229.716 32.2723 232.656 32.3389C233.942 30.8408 234.234 26.6196 233.447 24.6199C232.393 24.2553 232.21 24.4565 231.202 23.8179C231.865 22.7954 232.464 22.1959 233.081 21.0897L233.968 20.842C234.272 19.5931 233.98 19.9848 234.642 19.3763C241.672 22.2023 238.907 21.8303 245.108 18.431C246.728 17.5421 251.638 20.9783 253.674 15.1164C254.307 13.9146 251.513 10.1737 252.479 8.47489L253.741 8.51599C254.395 6.84529 254.416 6.3763 254.711 4.48765ZM424.053 35.1364L423.416 35.8157L424.082 35.1276L424.004 34.9931L424.053 35.1364Z" fill="#D22F92"/>
<path d="M235.441 188.533C237.182 188.542 239.831 163.054 240.943 165.146C240.477 166.499 240.668 166.055 239.523 166.92C238.374 167.687 237.999 168.154 236.808 167.892C236.196 166.015 235.275 190.778 235.441 188.533Z" fill="#D22F92"/>
<path d="M155.506 175.777C156.71 175.964 157.022 175.894 158.013 176.736C158.071 177.642 158.134 178.548 158.197 179.453C160.658 180.939 160.724 182.432 162.398 183.997L162.344 184.544L160.874 184.124C158.742 184.415 157.688 182.056 155.827 183.44L154.977 183.061C153.353 179.942 153.32 177.823 155.506 175.777Z" fill="#D22F92"/>
<path d="M73.1189 159.519C73.6019 161.232 73.623 160.648 73.4564 162.317L72.5983 162.17L72.0196 161.999L71.9155 161.152L73.1189 159.519Z" fill="#D22F92"/>
<path d="M29.0978 156.581C30.5553 157.407 30.8716 157.165 31.4879 158.751L30.7844 160.326C30.1722 160.072 29.5057 159.677 28.9018 159.352C28.5103 157.889 28.6064 158.422 29.0978 156.581Z" fill="#D22F92"/>
<path d="M0.881209 85.717C2.24504 86.1174 2.96379 86.2081 4.18273 87.1761C5.13423 89.2307 5.09275 88.4641 4.89037 90.4368C3.64479 92.0065 4.27727 91.6089 2.44168 91.7937L2.0964 91.2444L1.63196 91.8376C0.376929 91.4509 0.918645 91.8609 0.0251251 90.4046C-0.0952294 88.2668 0.221134 87.6382 0.881209 85.717Z" fill="#D22F92"/>
<path d="M121.592 7.88289C129.088 9.91497 133.007 27.4314 128.864 33.9957C127.66 33.7665 127.289 33.586 126.123 33.0565C124.258 29.7183 124.712 30.2674 122.038 29.2403C116.92 22.8637 119.402 15.112 121.592 7.88289Z" fill="#D22F92"/>
<path d="M401.113 15.4857C403.32 17.2761 406.194 19.0858 406.04 23.4508L405.261 24.3705C403.803 24.2511 403.512 24.432 402.171 25.0809L401.8 25.2669C400.28 25.8055 398.023 24.5393 397.169 22.6693C396.324 18.1548 398.644 17.0168 401.113 15.4857Z" fill="#D22F92"/>
<path d="M64.3933 13.4391C66.7879 14.6813 68.2455 17.7741 68.1955 21.282C65.4885 19.9261 64.2184 17.3389 64.3933 13.4391Z" fill="#D22F92"/>
<path d="M243.094 0C246.23 1.7511 247.467 4.37237 244.731 8.10999C244.552 7.99738 244.373 7.87961 244.198 7.7562C242.82 6.7769 242.353 6.11446 241.887 4.16052C241.941 1.96355 242.082 1.73113 243.094 0Z" fill="#D22F92"/>
</svg>
