<svg width="470" height="207" viewBox="0 0 470 207" fill="none" xmlns="http://www.w3.org/2000/svg">
<path fill-rule="evenodd" clip-rule="evenodd" d="M254.711 3.8706C255.79 3.07321 256.735 3.40734 257.926 3.88018C258.114 6.61924 258.942 7.40862 258.03 9.97015C257.331 11.9288 254.815 13.3216 255.115 14.8707C257.585 16.8537 259.929 14.0182 262.053 14.931C262.84 16.3917 262.973 17.1815 264.144 17.8603C265.393 16.2485 268.391 13.4304 268.554 12.7112L266.08 11.1855C266.043 10.5835 267.288 5.82796 267.575 5.49884C270.74 5.08639 270.819 7.98729 272.335 6.77786L272.431 4.6955C273.556 3.69684 274.863 4.2276 276.196 4.67251C276.504 6.24106 275.521 7.35312 275.296 8.77161C274.551 13.4758 269.857 14.0886 271.24 19.9523C284.546 23.6779 276.471 26.947 281.322 30.7943C282.201 29.8657 282.455 24.1545 282.397 22.7168L283.438 21.2241L284.029 21.2141C284.629 23.0354 284.487 23.6326 285.678 24.3537C287.723 23.8519 287.777 23.7192 288.298 21.1858L288.723 20.849L289.131 21.4258C288.377 22.7281 286.799 25.0988 286.665 26.5165C287.719 27.2072 301.757 26.1175 303.673 25.9723C303.99 24.51 304.106 25.1249 303.569 24.0212L298.626 21.8962L298.276 20.8883C298.963 19.428 298.664 19.9143 300 18.9808C300.733 18.9774 300.704 18.9319 301.358 19.3037L301.691 18.8788C300.529 17.7761 300.171 17.844 298.772 18.3384C298.014 17.1278 297.997 17.0852 297.764 15.5864C298.747 11.9829 303.044 13.6633 304.781 12.2614C307.575 10.0039 307.388 8.40185 311.478 9.1146C313.61 9.4859 313.577 8.62341 314.143 6.34098C315.276 6.2645 315.113 6.48604 316.308 7.4121C315.983 8.40142 315.709 9.19626 315.475 10.2317L315.055 10.5033L314.738 8.82238L314.313 9.04513C314.155 9.92112 314.051 10.6663 313.772 11.5031L315.18 12.875C315.771 12.5552 315.73 12.5802 316.25 12.1823L316.558 12.4971L316.192 13.4705C316.883 14.2562 316.896 14.4193 317.853 14.5689C319.261 12.7505 317.525 10.2049 319.836 8.81232C321.352 9.45449 322.713 11.9302 322.247 13.7976L320.856 14.8745C320.56 16.6363 321.006 17.4531 322.193 18.5219C326.953 18.3335 324.479 14.186 328.885 13.5993C332.067 13.176 334.57 13.0332 337.781 13.0106C337.722 10.9052 336.498 11.7672 337.152 10.3711C338.264 10.3848 338.231 10.3371 339.222 10.8693C340.134 10.3057 340.979 9.79061 341.912 9.27507C343.698 12.464 341.52 15.7405 344.669 19.6926C347.409 23.1349 352.202 22.3694 352.802 23.9163L353.264 25.1354C354.414 28.2133 355.88 27.4232 358.041 28.0633C360.769 28.8717 361.935 31.0019 364.879 29.0702C366.166 27.4981 366.653 23.5421 367.311 21.0727L366.824 20.1223C365.475 20.1267 360.99 20.3674 360.094 19.7343C360.223 18.2362 359.936 18.7468 360.665 17.9389L361.818 18.1248L361.976 17.8048C363.005 15.8103 363.588 14.679 365.416 13.8221C367.365 13.904 369.806 16.6103 371.447 18.1324L371.53 20.4917C373.212 21.97 375.032 21.4031 377.389 23.2155L378.243 22.4835C379.322 24.8831 379.988 27.9215 381.445 29.4942C382.774 29.8979 383.399 29.7681 384.852 29.0784C387.284 27.9253 390.25 30.5889 391.865 30.6242C394.214 30.6752 399.403 29.6003 401.673 28.9126L403.576 30.3995C405.171 29.7996 405.425 28.8083 406.429 26.9409C409.01 28.8196 404.975 29.8986 411.688 29.7921C414.433 27.3444 411.48 21.9808 416.702 22.5209C421.258 22.9928 420.096 29.8662 421.612 31.2628C423.359 30.9407 422.812 31.3157 423.871 29.9852C423.238 29.0468 423.16 28.9723 422.858 27.8243C423.59 26.527 423.103 26.8945 424.278 26.5438C425.277 27.148 425.606 27.3959 426.497 28.2008C429.15 23.3921 427.997 24.7015 432.403 21.9173C436.63 19.2499 438.441 22.8944 440.773 22.5108L440.99 20.4093C442.452 20.5525 443.376 20.6701 444.842 20.988L444.388 22.3072L444.176 22.0964C443.259 22.6556 442.202 23.1758 441.469 23.9709C442.547 28.5524 436.838 31.0844 441.098 33.0127C442.114 33.4743 442.323 33.8328 442.831 34.8771C443.36 38.1636 441.818 41.7805 442.46 43.8202L443.168 44.2825C443.947 43.6099 444.134 43.5061 444.701 42.5402C446.037 43.3034 446.341 43.9263 447.249 45.2865L448.215 45.585C452.184 42.5917 454.808 38.9336 459.485 41.4667C459.676 40.2762 459.36 40.4287 459.522 39.1985C460.951 39.1499 466.639 38.6592 467.876 39.4097C468.284 39.6555 468.172 40.0799 469.608 40.4679L470 41.1266C469.654 43.3747 467.601 45.1059 466.664 46.6374C466.219 47.3696 469.812 51.8003 469.35 52.9314C468.859 54.1381 468.168 55.8688 467.676 57.0808L467.147 56.8643C466.447 57.5211 466.131 57.841 465.498 58.5807C463.47 58.746 460.63 57.8195 459.276 58.5232L459.768 59.7605C456.794 60.3727 454.395 57.7818 452.884 59.738C453.871 61.7473 455.561 65.2938 455.865 67.5271C456.694 66.5265 456.232 66.9261 456.39 65.0472C457.252 65.2723 458.339 65.4904 459.106 65.9363C458.764 66.932 458.231 68.0173 458.323 68.9513C462.504 69.0201 458.781 71.1276 464.586 70.5958C466.11 72.1154 465.831 73.7808 465.744 75.9797L464.357 75.7675C462.499 77.6737 464.244 79.2204 462.708 81.4287C459.322 83.3745 454.799 78.7832 451.497 79.0599C450.522 80.9671 451.605 81.6294 452.796 83.0436C453.308 86.5847 451.247 86.0673 451.651 88.3316L452.334 88.6075C453.25 87.8743 453.75 87.4156 454.587 86.5592C455.732 87.5382 455.449 94.8392 454.991 96.6022C453.35 97.5989 451.905 96.2165 451.251 97.4026C450.331 99.0727 449.869 98.9048 448.382 99.2177C446.416 98.2366 448.298 97.6553 446.212 96.7253L445.875 97.2086C446.391 101.978 446.924 101.317 444.388 105.442C443.772 106.444 443.272 107.041 442.281 107.433C441.535 106.874 441.273 106.653 440.594 105.99C439.436 106.516 438.974 106.936 437.787 106.486C437.517 105.506 437.483 105.236 436.805 104.517C435.006 104.527 425.02 106.941 423.532 107.801L422.758 109.436L421.317 109.819L421.271 110.281C422.595 110.895 424.261 111.351 425.015 112.478C423.936 115.435 424.336 116.102 421.267 115.979C418.256 114.047 420.026 112.383 416.827 111.13C415.744 113.167 415.503 115.635 413.454 117.296C410.435 119.742 412.367 120.787 410.901 122.748C408.107 123.064 408.902 120.786 407.078 123.3C401.914 130.401 401.577 129.92 393.981 128.567C394.002 125.692 394.405 125.566 392.885 123.382C391.507 121.402 391.761 118.945 390.2 117.062C389.325 116.009 389.512 113.868 388.737 113.538C388.454 113.417 388.354 113.243 388.192 113.018L389.241 112.853C387.734 108.488 375.386 105.717 371.563 106.751C369.752 107.241 368.127 113.326 365.729 113.867C362.997 115.156 359.311 114.357 357.429 117.412C357.516 117.271 356.929 119.179 356.575 119.821L356.779 120.774C359.574 122.689 362.031 118.791 363.305 122.299C362.289 124.297 362.014 122.301 361.914 124.012C361.877 124.644 361.781 124.876 361.552 125.425C361.181 125.119 360.856 124.816 360.427 124.653C359.724 128.765 360.09 131.536 357.591 133.63C353.868 133.359 355.742 123.844 353.864 121.489C352.99 121.579 352.477 121.588 351.624 121.905C350.274 125.614 348.367 130.563 348.188 134.555L348.617 135.214C349.341 134.935 350.066 134.667 350.795 134.412C351.732 134.988 351.557 134.601 351.827 135.422L351.211 135.227C351.124 136.844 350.853 137.212 349.995 138.459C350.387 140.266 350.062 139.461 349.479 141.148C349.416 141.334 350.62 141.448 351.261 142.889C333.75 155.511 340.921 135.055 336.007 127.443C337.064 126.268 337.539 125.988 337.801 124.252C337.135 123.816 337.139 123.903 336.365 124.02C335.723 125.301 335.307 126.163 334.782 127.517L334.537 126.922C335.528 124.2 335.119 123.952 336.785 122.531C335.427 121.016 333.149 121.741 332.812 120.325C333.999 116.655 336.706 116.774 336.315 111.1C335.948 105.774 328.24 102.17 325.204 105.673C324.65 108.439 325.649 109.432 324.75 111.126C323.955 111.353 322.726 111.43 322.313 112.305C317.866 121.77 326.245 164.669 318.374 168.215C317.312 168.696 316.154 169.064 315.08 169.53C313.947 170.016 313.635 170.006 312.648 171.051C310.037 162.506 313.035 144.028 311.215 134.605C310.437 130.581 305.818 132.148 304.814 130.543C305.314 129.174 307.342 125.488 308.3 124.845C308.996 125.566 309.704 126.275 310.416 126.972C312.602 123.138 311.448 114.834 308.829 111.531C308.483 111.814 304.652 114.973 304.573 114.969C301.97 114.863 301.707 116.704 301.662 119.114C300.696 120.734 299.883 121.66 298.209 122.051C295.273 120.756 296.914 114.88 295.452 112.776C293.428 112.051 291.313 112.465 290.772 115.195L291.388 115.834C289.164 115.732 288.931 113.321 287.64 113.541L287.199 114.56C286.032 114.151 284.808 111.923 284.616 110.532C285.737 109.285 286.141 109.61 287.948 109.331C287.594 107.62 284.179 105.032 282.609 104.945C280.435 105.731 278.195 108.61 277.836 111.269C278.778 113.726 280.544 110.671 280.744 116.66C279.819 117.526 279.927 117.196 278.307 117.018C275.821 115.028 277.857 114.329 276.038 112.087L275.742 112.047C269.254 111.119 270.965 104.988 265.818 111.215C265.468 111.287 263.007 111.468 263.128 112.287C263.156 112.467 261.733 111.077 261.758 111.917C260.4 112.72 259.175 112.056 258.388 113.442L258.93 114.193C257.676 116.122 259.142 117.46 258.005 118.923C256.356 119.069 257.001 118.826 255.519 120.174L255.644 120.884L256.456 121.341C255.54 122.427 255.869 122.329 254.757 122.72C253.899 121.934 254.382 122.156 253.224 122.146C252.583 123.038 252.604 122.968 252.3 124.076C252.025 122.764 250.48 120.711 249.73 119.188C248.847 121.316 250.013 123.181 248.922 124.682C246.861 123.021 249.689 121.201 245.749 123.012C244.071 121.176 244.158 121.087 241.997 122.494C240.714 121.347 241.18 121.397 239.952 121.557C239.552 122.461 239.498 122.496 239.331 123.482C238.286 123.359 238.782 123.552 237.866 122.679C238.799 120.739 240.006 121.786 240.464 120.022C239.152 118.405 233.364 118.305 231.115 118.104L231.602 117.154C231.144 115.163 231.502 115.896 230.141 114.416C227.954 113.564 223.744 114.593 222.986 113.594C221.166 111.199 218.934 105.02 215.177 105.468C213.028 109.651 219.009 113.85 213.32 115.872C208.993 117.41 205.615 106.456 201.593 107.754C200.942 107.963 193.318 110.998 193.081 111.239L192.776 112.469L193.213 113.27C196.57 113.909 198.998 113.114 200.597 118.214C199.748 125.95 184.844 113.565 182.232 114.074C179.413 116.589 180.387 121.83 176.697 123.1C175.127 122.789 175.544 123.156 174.74 121.951C174.532 118.091 177.397 114.865 176.98 112.723C175.373 111.809 175.34 112.149 174.59 110.352C173.774 109.821 171.433 110.806 170.775 110.781C169.284 110.725 167.902 109.867 166.573 109.648C164.991 109.386 161.097 106.678 160.001 107.943C160.264 108.667 160.501 109.276 160.797 109.983C158.252 111.405 156.124 108.62 155.196 111.43C154.246 114.3 155.612 115.781 153.976 117.44L152.818 117.108L152.422 118.031C153.393 118.609 153.513 118.576 154.617 118.701L154.446 119.6C152.718 120.658 152.285 120.892 150.473 120.206C150.019 120.032 149.565 119.844 149.116 119.645C147.391 119.986 146.829 121.223 145.634 122.655L144.726 122.503L144.814 121.1C141.586 122.325 143.231 124.961 139.779 123.759C138.167 121.617 138.808 120.958 137.172 120.057C135.502 120.462 134.144 121.994 132.737 123.27C131.15 129.14 135.856 131.224 136.051 134.628C133.707 136.026 132.695 133.865 130.196 135.451C129.214 136.632 128.847 137.98 128.589 139.563C128.006 143.1 128.401 146.872 128.247 150.458C128.018 155.746 127.227 161.014 127.244 166.317C127.252 168.696 127.835 170.854 128.081 173.184C128.743 179.414 130.338 194.346 129.347 200.065C128.939 202.415 127.868 204.71 126.352 206.329C125.673 207.055 123.662 207.07 122.758 206.933C121.401 206.736 120.043 205.27 119.277 203.975C117.99 201.811 117.711 199.31 117.728 196.734C117.757 191.677 119.427 186.767 119.764 181.729C120.21 175.063 120.176 132.404 114.642 131.047C109.802 129.862 105.384 136.014 101.207 128.989C100.457 127.724 100.312 126.556 100.595 125.064C101.028 122.816 102.281 120.518 101.107 118.33C100.678 117.53 100.153 117.171 99.4371 116.801C94.2481 116.397 94.1106 125.195 92.6197 129.211C91.1371 133.205 88.9924 136.912 87.5182 140.877C86.8769 144.851 87.4391 162.103 81.4508 162.682C80.0057 162.25 78.7562 161.19 77.9483 159.719C75.4163 155.157 83.8162 142.766 85.2155 138.206C86.1441 135.168 85.3611 131.334 86.1273 128.265C87.5932 124.293 93.161 118.119 91.2703 113.41L90.5334 112.77C87.1976 114.792 86.6437 125 80.297 122.488C74.5292 120.206 80.4926 110.567 78.1273 107.069C77.8399 106.994 73.9753 106.407 74.2544 106.679C72.6427 105.12 68.9319 103.354 67.3744 101.864L66.7123 102.037C63.0268 109.905 63.9428 110.057 57.0257 105.8L56.8089 105.087C57.5002 103.826 59.366 101.555 59.4244 100.695C57.1298 98.8292 54.498 100.279 52.0035 99.8362C50.8125 99.6253 49.6504 95.48 48.6759 94.9299C45.7108 93.2646 40.7257 94.2971 40.0094 89.181C39.4097 84.9149 45.065 81.5806 41.6963 78.8003C40.1763 77.1958 38.2062 76.6277 37.7522 74.079C37.5107 72.7167 38.9892 68.7839 38.7352 68.3042C33.7878 59.0224 38.785 58.6614 40.2676 51.7368C43.7325 49.7668 47.4891 54.4605 51.0331 54.2383C51.9326 47.2041 37.1985 50.1433 35.0371 44.2854C35.3786 42.9105 35.3454 43.2956 36.5281 42.2136C40.4052 41.8898 44.2615 41.4052 48.1261 41.7403C49.8377 41.8889 52.8153 44.982 54.0438 44.2542C58.6456 41.5289 63.239 37.9487 68.0157 35.4553C71.2474 33.7679 74.3249 39.1704 76.9194 34.9935C79.1348 31.3332 75.3162 26.3717 73.5296 23.7003C75.7327 23.2426 78.5478 24.9525 80.8883 22.9712C80.73 21.5637 80.0973 17.0996 80.3222 16.0166C82.1252 15.9431 81.4508 16.5319 82.5626 16.4956C92.8323 16.1611 103.115 20.6261 112.564 25.2145C114.392 26.1028 116.97 26.8176 118.844 27.7893C121.288 29.9527 123.541 36.042 126.765 37.1736C127.835 36.8648 137.322 29.3078 139.379 27.8789C139.537 26.5335 138.697 24.9663 138.684 24.9875C140.649 20.8719 141.911 16.1408 145.055 13.2334C146.454 13.7499 145.947 13.4066 146.938 14.7222C147.929 18.668 144.406 25.1981 141.632 27.2859C142.378 29.4167 148.599 33.8034 150.631 34.7507C156.145 37.3206 157.095 39.9392 161.759 44.4884L161.76 44.488H161.759C165.399 44.1794 174.61 40.3604 177.138 40.659C183.701 42.1689 183.06 44.4268 187.337 37.3499C188.474 35.4723 194.313 35.5034 188.882 28.4777C188.8 28.3709 188.712 28.2688 188.62 28.1711C186.772 26.2183 183.038 26.0248 180.753 26.0925C179.192 24.8608 178.713 24.3559 177.372 22.8686C174.736 22.826 172.108 22.7244 169.476 22.564C168.353 21.6298 167.062 20.6618 166.23 19.4761C165.966 19.1012 165.749 18.7048 165.597 18.2804C165.584 18.2446 165.572 18.2085 165.56 18.1722C165.262 17.2617 165.267 16.2246 165.765 15.0048C170.538 10.8925 182.207 21.107 187.262 22.3834C193.388 23.9296 201.671 29.4258 207.577 30.0944C211.733 30.5648 211.874 23.5925 213.644 20.77L213.645 20.7695C213.67 17.6887 213.353 17.8443 215.373 15.4642C216.077 15.7109 215.815 15.5834 216.398 16.2L217.83 15.6601C218.684 16.4886 219.183 17.0053 220.158 17.6788C221.22 20.336 221.441 23.1901 223.327 24.0054L222.902 24.4768C222.04 24.2232 221.799 24.1454 220.937 23.7309C221.291 25.3373 220.97 24.6507 221.945 25.8617L222.444 25.716C223.086 25.5341 223.219 25.5308 223.898 25.5426C224.352 26.6496 224.443 26.9588 224.752 28.1414C225.326 28.2056 226.596 28.3454 227.05 28.5117C227.083 28.523 228.137 30.1415 228.587 29.7888C231.177 27.7586 229.716 27.8349 232.656 27.8923C233.942 26.6002 234.234 22.9594 233.447 21.2347C232.393 20.9202 232.21 21.0937 231.202 20.5429C231.865 19.661 232.464 19.144 233.081 18.1899L233.968 17.9763C234.272 16.8991 233.98 17.2369 234.642 16.7121C241.672 19.1495 238.907 18.8287 245.108 15.8968C246.728 15.1301 251.638 18.0938 253.674 13.0379C254.307 12.0014 251.513 8.77482 252.479 7.30959L253.741 7.34504C254.395 5.90406 254.416 5.49956 254.711 3.8706ZM424.053 30.3052L423.416 30.891L424.082 30.2975L424.004 30.1816L424.053 30.3052Z" fill="#D22F92"/>
<path d="M236.662 140.806C238.403 140.813 239.831 140.634 240.943 142.438C240.477 143.605 240.668 143.223 239.523 143.968C238.374 144.63 237.999 145.033 236.808 144.807C236.196 143.188 236.495 142.742 236.662 140.806Z" fill="#D22F92"/>
<path d="M156.727 129.804C157.93 129.964 158.243 129.904 159.234 130.631C159.292 131.412 159.355 132.194 159.417 132.974C161.878 134.256 161.945 135.543 163.619 136.893L163.565 137.365L162.095 137.003C159.963 137.254 158.909 135.219 157.047 136.412L156.198 136.086C154.574 133.396 154.54 131.568 156.727 129.804Z" fill="#D22F92"/>
<path d="M74.3394 115.781C74.8224 117.258 74.8435 116.755 74.6769 118.194L73.8188 118.067L73.2401 117.92L73.136 117.19L74.3394 115.781Z" fill="#D22F92"/>
<path d="M30.3183 113.247C31.7757 113.959 32.0921 113.751 32.7084 115.118L32.0049 116.477C31.3927 116.258 30.7261 115.917 30.1223 115.637C29.7308 114.375 29.8269 114.835 30.3183 113.247Z" fill="#D22F92"/>
<path d="M0.881209 73.9309C2.24504 74.2762 2.96379 74.3545 4.18273 75.1894C5.13423 76.9615 5.09275 76.3003 4.89037 78.0018C3.64479 79.3556 4.27727 79.0126 2.44168 79.172L2.0964 78.6983L1.63196 79.2099C0.376929 78.8764 0.918645 79.23 0.0251251 77.974C-0.0952294 76.1301 0.221134 75.5879 0.881209 73.9309Z" fill="#D22F92"/>
<path d="M121.592 6.79899C129.088 8.55166 133.007 23.6596 128.864 29.3213C127.66 29.1236 127.289 28.9679 126.123 28.5112C124.258 25.632 124.712 26.1056 122.038 25.2198C116.92 19.72 119.402 13.0341 121.592 6.79899Z" fill="#D22F92"/>
<path d="M401.113 13.3564C403.32 14.9006 406.194 16.4615 406.04 20.2263L405.261 21.0196C403.803 20.9166 403.512 21.0726 402.171 21.6323L401.8 21.7927C400.28 22.2573 398.023 21.1652 397.169 19.5523C396.324 15.6585 398.644 14.677 401.113 13.3564Z" fill="#D22F92"/>
<path d="M64.3933 11.5913C66.7879 12.6626 68.2455 15.3301 68.1955 18.3557C65.4885 17.1863 64.2184 14.9548 64.3933 11.5913Z" fill="#D22F92"/>
<path d="M243.094 0C246.23 1.51032 247.467 3.77117 244.731 6.99487C244.552 6.89774 244.373 6.79617 244.198 6.68972C242.82 5.84508 242.353 5.27372 241.887 3.58845C241.941 1.69356 242.082 1.4931 243.094 0Z" fill="#D22F92"/>
</svg>
