<svg width="100" height="100" viewBox="0 0 100 100" fill="none" xmlns="http://www.w3.org/2000/svg">
<path d="M48.3373 0.0434464C76.3657 -1.10241 98.5209 20.5614 99.6111 47.9662C98.0081 46.616 97.3546 44.9475 96.4038 43.0852C92.7236 19.3343 69.104 0.406823 44.7969 3.90098C33.3212 5.55029 19.376 13.0379 12.5193 22.2468C4.85165 32.6241 1.70709 45.5932 3.78568 58.2686C4.90716 65.3546 7.68693 70.8203 11.1999 77.0346L10.4782 78.3339L10.4801 78.3349L11.2027 77.0346C20.471 90.6015 38.3008 97.6139 54.5406 97.2501C54.5925 97.2482 54.6448 97.2455 54.6967 97.2436C54.6441 97.2455 54.5914 97.2482 54.5387 97.2501C62.4579 95.623 69.3735 90.9379 77.7598 87.5594L77.7608 87.5584C93.4857 70.5057 97.0787 66.7771 96.4019 43.0852C97.3527 44.9476 98.0061 46.617 99.6092 47.9671C102.259 64.7463 91.049 82.329 77.7237 91.8456V91.8484C73.6625 94.0202 67.1839 97.6697 62.5164 97.888C41.0264 105.186 13.9496 92.8305 5.17941 72.2155L6.04763 72.1292L5.17656 72.2155C2.78846 69.2161 0.056177 56.6216 0.00624779 52.3669C-0.163652 37.8606 3.10521 27.1168 13.0448 16.4089C22.1151 6.51785 34.8272 0.623515 48.3373 0.0434464Z" fill="black"/>
<path fill-rule="evenodd" clip-rule="evenodd" d="M48.2222 28.4177C60.4634 27.4713 71.1735 36.4703 72.1687 48.5394C73.1637 60.6087 64.0682 71.1973 51.8331 72.2127C39.5479 73.2323 28.758 64.2184 27.7589 52.1005C26.76 39.983 35.9318 29.3684 48.2222 28.4177ZM52.6404 55.306C50.1419 54.7807 47.419 54.6829 44.8673 54.7591C42.6704 54.9198 39.9031 54.824 38.0815 56.1503L37.654 57.0471C41.1827 59.8711 49.7543 56.4961 54.4092 58.7986C56.3056 59.7171 57.2206 60.4224 59.3539 60.2639L59.6538 59.3437C58.2996 57.2719 55.0365 55.81 52.6404 55.306ZM61.334 51.1492C56.1499 46.7376 45.9352 47.3564 39.4733 47.9624C38.1336 48.6208 37.2706 49.0714 36.5268 50.4259L36.8819 51.1745C46.2994 52.9665 50.5176 49.1292 60.323 54.8679L61.5949 54.9655L62.5459 54.0574C62.4327 52.7496 62.4227 52.0756 61.334 51.1492ZM61.0008 42.3591C56.1376 40.1101 48.8271 39.4369 43.4964 40.0485C41.1101 40.3898 38.2462 40.5226 36.1889 41.8309C35.4192 43.0642 35.3935 43.1038 35.6291 44.5308C41.31 46.5433 50.1348 42.5457 59.5386 46.2419C61.2343 47.0758 63.0006 48.2638 64.9469 47.7607L65.7761 46.8423C64.9476 44.5505 63.2087 43.3797 61.0008 42.3591Z" fill="black"/>
</svg>
