<svg width="976" height="430" viewBox="0 0 976 430" fill="none" xmlns="http://www.w3.org/2000/svg">
<path fill-rule="evenodd" clip-rule="evenodd" d="M796.48 34.2431C797.142 34.3707 797.915 34.7521 798.29 35.3948C802.74 43.0453 794.362 54.99 789.831 59.5746C793.398 64.8119 798.792 68.8136 804.015 71.4682C805.212 62.476 809.066 72.3112 815.227 68.5897C820.441 65.442 822.402 59.2213 821.6 52.6917C820.961 47.504 817.551 42.9194 819.602 37.4364C819.736 35.4767 824.151 33.6723 825.26 34.928C832.531 43.1497 822.024 53.7251 832.615 61.3133C834.123 59.9362 835.369 57.5314 836.717 55.6575C837.539 56.4703 839.215 58.783 839.961 59.1566C846.302 62.3305 849.309 51.2371 850.985 46.2425C851.485 44.7508 851.827 44.1156 852.951 43.607C859.173 44.4406 851.74 56.4206 853.399 60.6039C854.142 62.4772 855.031 65.2063 856.884 65.9785C865.724 69.6588 872.782 53.9978 879.925 51.4441L880.233 51.3373C881.589 51.9384 883.637 53.4268 885.217 54.2791C886.214 50.4178 887.718 44.3586 892.346 45.3799C892.947 45.5075 893.479 45.919 893.813 46.5168C895.538 49.6817 890.855 55.2095 889.409 57.5046C885.932 63.0247 882.586 68.7788 881.566 75.6621C881.215 78.0305 879.96 84.7644 883.556 85.0698C886.461 84.9435 884.642 80.7031 886.745 78.8656C889.026 76.8726 891.936 81.1274 891.878 83.5451C891.828 85.5346 888.401 84.5248 887.361 85.857C886.641 86.7777 885.034 87.2153 885.511 88.9464C887.466 90.5057 896.09 88.8277 898.861 88.4645C905.553 87.3696 908.118 86.4743 914.532 83.8117C915.243 84.0729 915.49 83.9826 915.775 84.5392L915.191 85.3299L915.261 85.7739L915.037 85.9799C912.713 88.1056 907.61 90.7825 907.49 94.555C907.401 95.0767 907.264 95.4309 907.104 95.9272L907.105 95.9278C907.265 95.4311 907.401 95.0767 907.491 94.5547C908.697 96.037 911.584 95.8377 913.28 95.7736C922.262 95.3996 931.531 92.2272 939.592 87.6886C949.366 82.187 965.697 71.0387 976 80.2668V430H975.999V87.1401C967.489 92.8961 963.277 91.5363 954.205 93.7656C952.192 94.2604 948.166 98.5694 945.543 99.633C935.179 103.835 924.272 107.463 914.102 112.186C912.034 113.148 911.328 117.771 914.558 118.78C916.902 118.312 920.612 114.915 922.97 113.458C928.545 110.016 940.152 104.336 946.089 108.922C948.677 110.919 951.3 116.495 951.931 120.053C950.51 123.269 949.645 124.991 948.666 128.409C945.735 129.407 945.241 129.575 942.958 132.013C938.342 131.665 934.136 131.192 929.503 131.424L931.342 135.027C927.81 134.817 918.692 132.515 916.623 133.216C914.936 135.618 921.32 144.727 921.643 148.221C921.71 148.923 922.14 150.744 922.581 151.188C923.127 150.611 923.412 146.179 923.659 144.78C925.869 146.723 926.398 146.417 928.954 147.448C929.076 147.784 929.181 148.079 929.274 148.333C929.166 151.47 924.283 154.759 931.47 154.662C932.123 155.316 933.613 156.845 934.284 157.134C938.726 159.043 943.858 155.59 944.169 163.879C944.236 165.7 944.657 168.338 943.449 169.775C942.27 169.647 941.805 169.081 940.698 169.534C936.841 173.281 942.191 183.043 932.187 182.23C926.618 181.778 902.329 167.701 915.903 185.86L915.607 189.758C914.401 191.705 913.051 193.427 913.117 195.873C914.639 197.925 918.424 193.229 919.659 191.913C921.39 198.459 921.442 201.539 921.172 208.445C920.879 215.963 919.22 214.86 913.228 214.741C910.497 218.571 909.995 219.412 905.765 220.529L905.539 220.268C904.211 218.705 903.311 216.659 902.312 214.783C900.482 211.341 895.726 206.816 892.366 205.571C890.28 205.887 889.298 206.123 887.282 206.72C889.284 211.91 891.093 211.35 895.006 214.092C898.994 216.705 902.887 223.033 900.551 228.567C897.397 236.032 892.984 241.329 885.519 237.502C880.102 234.726 881.795 227.763 879.506 225.109C877.354 224.033 876 225.496 874.51 227.209C872.968 228.981 873.999 233.146 872.221 234.852C870.908 234.294 870.685 231.195 870.005 229.633C868.794 229.117 868.212 230.185 867.399 231.17C861.421 243.145 860.076 262.436 859.234 276.203C858.83 282.758 859.594 289.987 859.888 296.585C860.117 302.244 860.137 307.913 859.951 313.574C859.513 328.474 857.41 343.109 856.884 357.957C856.716 362.638 857.523 367.789 858.56 372.308C859.176 374.883 859.841 377.442 860.556 379.98C865.462 392.526 871.989 403.681 867.304 418.076C866.412 420.813 865.421 423.534 863.632 425.636C862.606 427.573 861.378 428.66 859.804 430H845.295C843.534 428.721 843.252 428.508 841.678 426.814C839.116 423.28 836.998 419.635 836.47 414.889C836.469 414.889 836.469 414.888 836.469 414.887C836.469 414.888 836.469 414.889 836.469 414.889C833.053 402.847 840.957 391.962 844.236 381.134C848.007 368.697 847.248 358.203 846.188 345.451C845.514 337.495 844.875 329.535 844.277 321.572C843.705 314.309 843.484 307.014 843.609 299.721C843.696 293.468 844.259 285.869 843.681 279.76C842.836 270.854 841.23 261.683 840.39 252.719C840.172 250.366 838.732 247.263 838.479 244.75L838.48 244.75C837.237 241.983 836.786 241.002 834.712 239.033C831.232 238.335 828.929 239.421 825.507 239.679C816.935 240.325 817.513 223.239 808.811 223.852C799.724 224.493 797.56 231.806 796.709 240.931C795.396 252.721 796.93 263.67 799.025 275.173C800.558 283.584 803.82 296.831 798.133 303.955C796.448 306.028 794.124 307.236 791.672 307.309C789.549 307.374 787.449 306.593 786.011 304.768C778.996 295.861 783.533 283.665 785.151 273.869C786.046 268.523 786.511 263.091 786.534 257.645C786.557 252.345 785.854 225.667 777.823 225.505C775.766 225.463 767.075 227.08 765.806 228.644C764.443 232.202 770.906 237.381 765.477 239.256C761.396 240.666 759.534 233.355 757.353 231.93C755.717 232.792 755.038 236.641 753.513 239.002L753.324 239.287C750.567 240.699 747.268 241.478 744.862 243.389C743.456 244.508 741.339 249.848 739.715 250.263C736.958 250.968 730.76 248.16 728.308 246.775C722.67 243.728 723.492 236.706 723.765 230.429C723.925 226.731 723.785 222.658 718.563 224.631C718.002 224.843 717.459 226.913 717.232 227.665C714.02 229.217 712.477 230.341 710.403 233.541C709.984 233.724 709.593 233.93 709.208 234.127C709.593 233.93 709.984 233.725 710.402 233.541C709.159 236.244 695.943 261.123 695.141 261.589C694.513 261.374 693.61 260.83 693.892 259.881C694.662 257.303 696.282 254.853 697.456 252.545C699.431 248.655 705.639 236.892 705.522 232.713L705.159 232.497C704.143 232.679 703.431 233.49 702.624 234.24C696.004 241.359 693.762 238.327 686.569 235.542C684.202 234.626 680.188 256.905 679.014 259.74C677.881 264.798 672.633 267.581 671.177 271.804C670.422 274.001 667.787 291.243 662.846 285.354C661.551 281.022 669.237 269.037 670.677 263.909C671.967 259.328 671.645 255.787 672.6 252.044C674.186 247.13 676.388 242.789 677.655 237.705C678.75 233.311 677.724 225.857 672.345 229.659C670.344 228.435 671.845 225.4 667.026 225.613C662.109 225.831 659.936 228.078 656.648 231.909C657.086 239.018 653.234 237.127 648.479 237.602C649.665 234.835 654.364 228.985 653.83 226.882C647.617 221.662 637.778 232.104 632.552 235.364C632.044 235.682 629.819 236.003 629.154 236.099C624.814 240.078 628.698 241.586 625.558 245.812C624.166 247.688 622.052 249.65 619.841 249.805C618.889 249.879 617.95 249.493 617.253 248.739C614.775 246.096 615.043 239.163 614.953 235.516C614.851 231.229 612.359 230.341 609.163 230.553C606.779 230.711 605.271 232.828 603.819 234.796C604.359 235.732 604.516 235.949 604.844 236.989C602.273 238.223 600.295 233.1 597.87 232.863C596.766 233.513 596.955 233.637 596.185 235.037C596.072 234.948 595.961 234.858 595.854 234.767C589.492 229.484 589.341 225.082 597.515 223.677C597.666 220.517 589.696 215.464 587.195 215.318C585.269 215.206 582.181 218.432 580.778 219.89C579.57 221.145 577.51 225.707 577.467 227.504C578.01 229.879 580.098 230.011 581.943 232.135L582.155 232.384C582.262 232.79 582.358 233.201 582.443 233.615C582.724 235.023 583.401 238.357 582.736 239.583C576.11 244.044 575.892 234.578 573.557 230.37C573.304 229.916 570.507 229.077 569.984 228.987C565.83 228.276 562.998 225.059 559.844 222.109C555.722 223.16 555.12 224.384 552.3 228.064C549.915 228.583 547.989 229.107 545.712 230.134C545.415 230.268 544.701 229.286 544.416 228.959C543.815 229.189 537.48 231.267 537.355 231.607C536.08 235.084 538.636 244.513 533.582 244.163C532.542 244.091 531.499 244.889 530.958 245.843C530.793 248.154 532.359 247.471 531.94 249.622C527.702 255.206 527.272 245.488 523.94 254.826C522.567 250.928 520.516 247.511 518.317 244.188C517.995 246.898 518.387 253.176 517.829 254.413C516.975 255.264 517.297 255.208 516.42 255.178C515.43 254.079 515.374 252.533 514.544 250.869C512.2 249.894 512.182 251.815 510.425 251.841C509.321 251.422 508.667 250.237 507.903 249.167C505.632 249.318 505.245 249.55 503.163 250.768C502.196 250.765 501.109 249.52 499.863 248.81C497.228 248.931 498.364 251.509 496.299 253.041C495.178 252.955 494.484 252.705 494.036 251.502C494.728 248.931 498.335 248.451 499.201 246.375C497.368 242.016 483.303 243.408 480.16 241.964C479.878 241.055 481.113 240.409 481.183 239.528C481.316 237.826 478.731 234.615 477.496 234.309C472.808 233.15 468.323 234.17 463.475 233.312C461.907 231.305 460.655 228.082 458.999 226.442C458.273 232.283 457.77 238.127 459.246 243.821C461.424 245.155 465.598 249.77 464.611 252.999C461.169 254.629 455.228 246.451 452.361 245.693C448.498 244.671 440.707 244.317 437.219 245.913C430.355 249.051 427.044 257.962 424.142 265.194C421.164 272.856 420.819 281.218 421.644 289.449C422.704 300.019 430.529 315.1 418.832 321.484C415.204 323.466 409.836 320.75 408.444 316.349L408.444 316.348V316.349C406.138 309.538 409.246 294.9 409.263 287.343C409.275 281.692 408.685 278.587 407.86 273.054L407.861 273.054V273.053C407.094 270.263 405.804 264.416 402.867 264.193C400.938 265.027 398.408 270.293 397.607 272.396C391.37 288.758 393.996 313.154 396.918 330.366C396.918 330.367 396.918 330.367 396.918 330.368C397.22 331.63 398.085 337.31 398.317 339.052C400.159 352.887 403.139 370.813 399.721 384.361C398.692 388.438 396.575 390.98 393.423 392.697C377.877 392.134 377.961 374.407 379.137 360.785C381.874 329.077 390.158 298.445 381.113 266.982C381.624 267.163 381.874 267.087 382.057 267.703C385.752 279.992 386.881 293.992 386.019 306.805C385.528 313.946 384.825 321.066 383.91 328.151C382.054 343.062 377.714 367.512 380.999 382.191C381.961 386.491 386.115 389.96 389.542 391.577C390.033 391.808 390.62 391.906 391.236 391.899C390.621 391.906 390.034 391.808 389.543 391.577C386.115 389.96 381.962 386.49 381 382.19C377.715 367.511 382.055 343.062 383.911 328.151C384.826 321.066 385.529 313.946 386.02 306.805C386.882 293.992 385.752 279.992 382.058 267.703C381.875 267.087 381.625 267.163 381.114 266.981C379.115 262.728 378.139 260.922 373.872 259.843C360.324 263.893 364.957 289.553 366.996 300.817C369.128 312.618 373.61 335.157 360.739 340.75C358.645 341.661 354.035 340.621 353.196 338.181C353.196 338.181 353.195 338.18 353.195 338.18L353.195 338.181C350.991 335.574 349.997 331.188 349.457 327.766C346.834 311.138 353.361 296.76 355.278 280.828C355.963 275.125 353.997 266.745 352.884 260.832L352.885 260.832C350.927 254.791 350.607 250.89 346.195 246.314C337.832 244.107 335.907 254.269 329.423 257.981C327.123 259.298 324.671 258.317 323.791 255.533C321.272 247.564 334.919 236.718 331.332 229.559C331.331 229.558 331.331 229.558 331.33 229.557C330.452 226.575 326.909 221.017 323.953 221.621C321.379 223.466 322.8 228.497 318.166 227.474C315.709 226.932 316.278 222.79 318.085 221.884C319.375 221.148 322.649 221.427 323.491 220.524C320.551 215.323 312.299 220.674 309.028 222.758C310.283 226.119 313.408 230.309 315.549 233.081C312.807 232.803 307.605 228.455 305.142 226.422C301.297 227.431 294.955 226.891 293.459 227.543C292.963 229.438 294.711 231.254 294.415 233.35C293.857 234.156 294.2 233.954 293.401 234.084C291.969 232.556 292.283 229.357 290.341 228.937C289.566 229.462 286.255 233.562 285.277 234.68C285.156 229.634 284.989 228.655 286.462 224.002C284.814 223.777 281.643 222.954 280.372 224.236C279.58 229.415 273.859 225.67 272.489 229.393C272.679 231.483 274.471 233.433 275.687 234.965C275.915 236.166 276.194 237.098 275.988 238.287C273.003 241.478 268.219 239.475 265.801 236.392C262.999 232.819 263.804 230.076 263.97 225.669C264.174 220.212 259.895 218.04 257.124 214.712C254.507 213.799 249.411 212.571 246.934 213.954C242.958 216.174 245.711 222.333 246.9 225.542C248.405 224.601 250.879 223.34 252.583 223.728C255.052 224.29 259.812 227.491 259.344 230.889C258.765 231.736 258.488 231.72 257.539 232.047C255.122 231.443 255.329 227.458 253.639 226.25C252.821 226.74 251.687 229.403 251.048 230.596L253.099 235.025C249.975 254.063 240.949 229.516 233.028 230.104C226.067 230.621 225.932 238.642 222.926 244.712C222.249 246.08 222.155 254.446 222.069 256.384C220.294 252.392 219.895 249.525 218.157 245.774C217.598 244.568 215.992 242.891 214.821 242.854C206.811 242.601 207.153 253.77 203.179 257.645C197.437 263.243 190.563 259.437 184.189 264.815C180.364 268.044 178.753 271.548 177.253 276.409C172.789 290.881 176.378 305.348 180.134 319.402C182.074 326.883 184.066 333.943 182.747 341.82C180.944 352.58 173.424 361.824 163.427 359.648C160.112 358.925 156.247 355.739 154.574 352.256C147.361 337.238 154.427 319.138 157.559 303.991C160.84 288.66 159.675 274.585 155.582 259.707C154.652 256.327 153.299 251.999 151.682 249.05C148.232 242.759 146.736 248.077 142.455 246.996C141.746 246.879 140.687 245.988 140.495 245.142C139.602 241.212 139.331 230.274 135.071 228.93C132.696 229.036 131.015 233.205 127.677 235.616C127.79 232.808 128.181 229.789 126.653 227.534C123.964 223.839 121.186 219.899 117.118 218.504C111.37 216.533 106.581 225.591 102.382 224.679L102.081 224.167C102.957 221.594 106.185 220.283 105.706 217.644L105.135 217.347C101.879 217.702 99.9269 220.932 98.0868 222.166L97.6783 221.798C97.3184 219.751 98.031 215.619 99.0178 213.888L99.131 213.691C100.311 211.611 102.068 209.73 103.601 207.963C103.848 204.079 104.165 200.623 102.117 197.175C101.042 195.363 98.0434 193.059 96.2656 192.731L95.9179 193.037C95.3854 196.527 94.4328 196.861 91.7499 198.26C90.8204 197.988 89.7918 194.985 89.0256 193.844C87.0617 190.92 83.6049 188.241 81.017 186.213C83.6307 181.25 86.6148 180.568 89.9611 176.897C90.3745 162.607 82.9142 169.181 75.6152 168.671L75.2838 168.644C75.6161 168.456 75.5009 168.523 75.7524 168.157C74.7783 167.673 73.9977 167.418 73.3172 166.501C73.3169 166.501 73.3166 166.501 73.3163 166.501C73.9969 167.419 74.7774 167.673 75.7516 168.157C75.5 168.523 75.6153 168.456 75.283 168.644C74.063 168.387 71.8963 167.892 71.1553 166.703C72.4721 163.622 84.1968 165.097 83.5729 161.306C80.8509 159.523 74.8111 161.812 72.6866 159.294C72.7824 159.043 72.8778 158.792 72.9736 158.541C75.6364 157.629 81.0355 156.702 83.2631 155.206L83.582 154.989C83.3357 157.527 81.1586 157.383 82.7687 159.04C85.4289 161.777 85.2828 163.426 83.8483 164.453C85.2834 163.426 85.4299 161.777 82.7693 159.039C81.1593 157.383 83.3365 157.527 83.5828 154.989C83.8077 154.55 86.0434 152.29 86.4535 151.83C90.0638 147.782 91.9645 143.297 89.2707 137.797C88.5636 136.354 86.5529 134.41 85.2914 134.949C82.504 136.14 73.39 134.022 73.0933 129.941C77.3889 121.507 87.5677 131.493 92.5198 128.632C94.2205 127.649 94.3068 124.477 94.9052 122.303C97.093 119.92 103.52 124.49 106.783 122.588C111.788 119.669 105.541 111.544 106.399 108.757C108.55 107.442 114.094 112.121 116.578 109.45C121.896 103.731 117.786 100.845 114.488 96.5215C117.767 97.611 122.938 100.071 124.764 95.2983C127.861 87.202 115.152 86.3737 113.573 79.9612C113.601 79.1509 113.862 77.9865 114.475 77.596C118.305 75.1543 123.274 81.4061 125.136 84.1403C128.774 85.1158 132.291 85.4001 135.981 85.6823C148.047 86.605 143.718 73.7182 143.674 64.8816C153.858 66.1797 153.887 61.5909 152.863 51.219C156.466 55.6327 163.971 63.9605 169.53 59.6355C169.348 59.7764 173.643 52.5389 174.607 51.7246C176.608 50.0353 171.678 39.4401 174.532 37.1028C175.16 36.5814 175.954 36.4091 176.701 36.6318C180.057 37.6261 179.029 48.335 181.164 51.8897C183.082 55.0823 183.385 55.2012 186.774 56.3457C188.13 55.4969 189.507 54.231 190.483 53.5249C192.585 52.0054 197.023 53.5363 199.587 53.7935C207.508 54.5871 207.94 47.3184 211.762 43.5196L212.119 43.7596C213.35 47.4196 212.007 51.8042 212.347 55.5952C212.565 58.0277 213.603 61.9959 216.227 59.4757C217.572 58.1837 218.515 56.9497 219.478 55.2827C219.572 52.6302 218.845 47.9867 220.564 46.1931C222.197 46.3126 222.402 47.2003 223.741 49.4701C225.729 52.8392 222.215 62.4492 228.644 61.6412C230.722 60.9014 231.315 54.4149 232.124 53.1462C240.157 40.5461 243.231 52.9234 236.211 60.0377C235.229 61.0333 233.073 59.5496 231.684 61.9824C231.764 63.4664 232.401 63.9975 233.323 64.8595C238.631 69.827 243.965 65.1018 248.67 62.0199C248.71 64.4656 248.38 67.3654 248.547 69.6929C249.037 76.506 252.126 80.946 256.226 73.221C257.421 70.9698 260.106 73.9599 261.869 73.5952C263.924 73.1696 264.941 70.3521 267.221 70.6943C268.803 70.7749 271.966 73.4303 273.433 72.9247C279.179 70.9455 279.293 61.4875 285.39 60.2282C286.545 59.9899 288.402 59.8034 289.396 60.5871C290.052 62.5649 287.376 66.8436 287.598 68.3376L288.155 68.7407C289.501 68.8305 292.21 67.6445 293.648 67.1315C291.22 70.747 289.234 74.0316 287.723 78.2904C289.226 80.2275 290.388 81.2523 290.233 84.0804C290.013 88.084 285.294 92.0472 282.751 94.4729C283.505 97.1588 283.873 98.2162 284.969 100.741C288.65 99.1075 294.032 99.3766 297.61 97.1233C300.283 95.4415 302.174 90.7806 305.479 91.3631C307.594 93.4071 305.227 96.2398 306.406 98.778C308.611 99.7358 315.027 91.0464 318.725 94.616C318.783 96.2874 316.982 97.2624 316.723 99.8789C316.43 102.842 317.578 106.561 319.103 108.848C321.534 112.492 324.119 112.15 327.596 112.617C328.915 109.065 329.391 108.381 331.616 105.628C330.242 103.618 328.845 102.006 327.245 100.256C325.528 98.379 320.767 98.3252 320.488 95.5356L320.976 94.9004C324.982 92.8997 326.202 97.8009 329.574 99.3535C330.146 99.6174 329.987 98.6359 331.953 99.0456C334.062 97.5156 330.87 89.7536 335.532 84.5471C344.319 84.2784 338.085 89.3453 341.016 94.7264C341.51 95.6338 342.654 94.6299 343.517 95.8388C344.76 97.5804 345.748 99.6322 347.116 101.239C360.914 95.504 344.267 90.858 343.636 89.3284C343.988 88.3186 344.667 87.9746 345.481 87.3458C346.195 87.471 347.688 87.6812 348.377 87.6457C350.413 87.5411 354.883 87.5219 356.26 85.7043C358.407 82.8729 354.782 78.4331 353.995 75.7063C353.829 75.1344 353.757 73.0035 353.736 72.3426C351.639 71.3237 346.715 70.8205 346.402 68.3718C347.735 65.6329 353.469 64.4704 356.103 64.3259C357.875 62.0713 358.439 60.6493 360.629 58.3919C362.871 56.0786 366.383 56.214 367.452 54.166C367.301 51.3285 359.886 50.896 361.178 48.2205C363.998 42.3849 367.653 49.7401 368.664 52.2361C370.799 51.3458 373.355 50.5433 375.24 49.1055C376.533 48.1176 377.064 45.5679 378.194 45.0757C383.091 46.7988 377.163 62.6735 397.592 66.1908C404.346 61.7717 400.003 59.981 402.882 56.9413C404.584 57.451 403.771 66.2625 406.179 68.2941C410.545 71.9736 409.545 64.7281 411.788 64.4564C413.551 65.7248 413.629 68.0035 413.696 70.2035C413.818 74.0741 414.057 76.4478 415.172 80.1102C418.896 74.812 417.286 75.2692 418.216 70.011C418.881 66.2416 428.237 63.8787 431.624 62.2408C431.665 60.8171 431.622 59.1565 431.619 57.7119C427.985 50.4189 424.397 48.9988 422.965 38.9341C424.22 38.5956 426.262 37.9338 427.482 38.2113C429.373 38.641 428.984 40.3614 430.044 42.103C432.748 43.6596 435.403 36.7918 437.777 41.8231C438.645 43.6646 439.084 45.784 439.441 47.8385C439.929 50.6641 437.617 50.1027 436.574 51.6748C437.123 53.5924 441.646 58.0645 443.176 59.7756C444.237 58.4195 444.995 56.8335 446.174 55.286C449.155 53.5992 455.054 58.0264 457.177 55.0563C457.195 54.0026 457.035 53.5428 456.8 52.5522L456.605 52.3541C454.087 49.7735 452.573 47.8947 452.35 43.7797C452.213 41.2709 452.893 36.454 455.885 36.7735C459.08 37.1147 458.38 41.2404 460.079 43.6874C461.497 44.2068 460.591 43.3419 462.034 43.3008C463.132 46.7026 457.061 52.7902 462.017 55.3246C464.893 57.2947 470.632 55.6045 473.093 56.4759C481.996 59.6277 481.47 61.3705 490.681 57.3781C493.621 59.8446 494.26 60.5421 496.647 63.5876C495.788 63.7614 494.205 63.9135 493.635 64.6123C491.434 67.3229 491.837 71.8004 494.138 74.2626C495.114 75.3048 496.342 74.9612 497.591 74.9568L501.211 78.1708C503.508 75.9911 503.938 75.6132 506.858 75.2244C508.548 68.3853 508.888 72.8507 511.845 71.2147C512.383 70.4809 512.536 70.3856 512.635 69.478C511.656 68.932 509.791 69.7336 508.612 70.0772C514.465 63.8524 511.662 59.847 518.061 56.265C519.409 56.5224 521.724 55.8329 522.837 56.468C525.181 57.8022 526.349 72.782 531.996 77.4793C541.09 79.1142 550.243 72.4879 558.656 69.6382C569.028 66.1236 578.222 61.2309 588.124 56.4304C591.772 54.6628 603.65 50.3332 603.563 58.4826C603.554 59.1565 602.073 61.9663 601.611 62.5809C597.451 69.0053 591.026 65.7658 585.376 67.3046C583.511 67.8274 580.644 70.6917 578.69 72.0958C575.279 71.8207 573.586 71.8767 569.711 73.1525C566.333 74.265 561.133 79.2399 561.877 83.9597C562.713 86.5451 566.922 88.0441 568.195 89.6807C571.044 93.3532 570.908 94.9952 575.053 96.7891C577.821 96.2852 582.768 94.3821 585.269 94.2205C588.177 94.0322 593.347 96.283 596.827 96.8247C597.904 96.1956 599.334 95.2968 599.883 94.0207L599.735 93.5303C595.987 91.7731 594.875 87.6178 598.947 86.3329C605.669 84.2116 613.924 84.8773 620.875 84.6559C622.087 84.617 624.216 86.3152 625.375 85.9871C626.214 84.0084 623.699 75.0697 630.168 76.7083C631.306 76.9966 632.097 80.5484 632.585 81.9056C637.714 78.6871 637.325 79.3212 642.931 81.1768C647.039 78.8506 656.241 71.7272 660.052 73.1291C663.904 74.546 663.941 75.7317 668.784 75.5214C677.158 68.7447 669.829 58.8767 664.839 52.6633C666.771 52.6168 677.475 54.2641 678.416 51.4649C679.096 49.4421 676.783 41.3719 678.009 39.2199C678.567 39.0593 680.432 39.9081 682.236 39.9506C684.757 40.01 688.289 40.034 690.72 40.3287C707.458 42.3595 722.836 48.6271 738.132 56.467C740.668 57.7658 746.579 59.083 748.479 60.8772C754.886 66.9249 754.172 72.064 762.517 77.0897C768.795 72.6371 776.934 67.0196 782.79 62.0219C781.021 58.3261 776.867 55.3565 778.276 50.6309C778.476 49.9573 778.688 50.0045 779.194 49.7608C780.934 50.0311 782.967 52.6091 784.303 54.052C786.037 50.025 792.91 34.6908 796.48 34.2431ZM392.347 391.781C392.375 391.776 392.403 391.771 392.431 391.765L392.432 391.765C392.403 391.771 392.375 391.776 392.347 391.781ZM392.876 391.656C392.897 391.65 392.918 391.645 392.939 391.639L392.94 391.639C392.919 391.645 392.897 391.65 392.876 391.656ZM393.247 391.543C393.255 391.54 393.263 391.537 393.271 391.535L393.272 391.534C393.264 391.537 393.255 391.54 393.247 391.543ZM393.674 391.382C393.701 391.371 393.727 391.36 393.753 391.349L393.753 391.349C393.727 391.36 393.701 391.371 393.674 391.382ZM705.506 230.735C704.989 230.7 704.571 230.766 704.231 230.912C704.571 230.766 704.988 230.7 705.505 230.736C706.597 231.948 706.62 233.157 706.893 234.949C707.695 234.858 708.378 234.547 709.071 234.196C708.378 234.547 707.696 234.858 706.894 234.949C706.621 233.157 706.598 231.948 705.506 230.735Z" fill="#FBE300"/>
<path d="M458.032 291.33C461.277 292.39 462.348 295.031 459.879 298.001C456.112 296.88 454.857 295.028 457.73 291.234L458.032 291.33Z" fill="#FBE300"/>
<path d="M307.242 276.89C308.523 276.701 310.002 277.199 310.731 278.504C311.765 285.446 302.272 292.93 297.892 296.088C296.712 296.737 295.428 297.346 294.223 297.944C297.087 290.233 299.004 278.157 307.242 276.89Z" fill="#FBE300"/>
<path d="M491.608 288.189C494.336 288.099 499.666 288.306 500.27 292.249C499.962 293.464 499.355 293.824 498.472 294.615C491.344 299.368 490.385 296.097 491.608 288.189Z" fill="#FBE300"/>
<path d="M452.543 262.315C454.481 261.998 455.338 262.155 457.246 262.389C461.415 265.549 463.245 271.04 464.976 276.322C466.199 280.05 466.225 284.56 461.58 283.829C455.742 281.46 443.681 274.238 449.191 265.852C450.6 263.707 450.342 263.603 452.543 262.315Z" fill="#FBE300"/>
<path d="M226.93 275.695C230.862 275.373 231.245 279.431 228.692 282.147C228.229 282.228 227.765 282.305 227.301 282.378C224.384 281.046 224.735 277.777 226.93 275.695Z" fill="#FBE300"/>
<path d="M264.496 265.083C266.968 266.081 273.272 273.677 270.302 276.683C266.49 275.129 264.688 270.952 263.599 266.63C263.463 266.088 264.186 265.452 264.496 265.083Z" fill="#FBE300"/>
<path d="M233.187 258.458C235.03 260.042 235.175 261.595 235.882 264.112C235.347 266.461 234.659 268.54 233.939 270.814C230.385 267.926 229.643 261.877 233.187 258.458Z" fill="#FBE300"/>
<path d="M316.91 260.887C318.104 260.837 318.929 261.342 319.821 262.205C320.718 264.603 319.783 265.275 318.17 266.592L318.014 266.603C316.306 266.708 315.35 267.167 314.336 265.307C314.078 262.812 315.132 261.935 316.91 260.887Z" fill="#FBE300"/>
<path d="M252.97 246.696C255.397 247.27 259.416 250.319 261.077 252.275C261.849 254.305 260.422 261.6 260.21 264.057C260.202 264.066 259.617 264.709 259.545 264.787C257.193 263.537 256.725 263.223 254.793 261.285C251.252 257.731 246.79 250.291 252.97 246.696Z" fill="#FBE300"/>
<path d="M104.49 255.092C105.876 255.002 106.059 254.932 106.771 256.245C107.181 259.36 104.946 261.567 102.693 262.598C101.263 262.158 101.045 261.823 100.838 260.278C101.37 257.905 102.917 256.627 104.49 255.092Z" fill="#FBE300"/>
<path d="M748.519 246.014C756.083 245.191 753.117 252.134 751.125 257.041L750.157 257.096C746.573 255.331 747.064 251.215 747.27 247.426C747.311 246.725 748.043 246.385 748.519 246.014Z" fill="#FBE300"/>
<path d="M819.486 243.857C824.671 243.611 825.278 247.572 824.261 252.408C823.076 253.903 822.411 254.808 820.769 255.484C818.176 255.465 815.738 254.234 814.925 251.145C814.542 249.686 814.719 248.106 815.416 246.812C816.453 244.9 817.711 244.363 819.486 243.857Z" fill="#FBE300"/>
<path d="M80.4585 229.815C80.8105 229.781 81.2585 229.811 81.6204 229.819L81.9239 230.397C82.1046 236.366 69.6512 243.57 65.6037 245.64C64.8121 245.731 64.6035 245.657 64.0909 245.029C64.1112 244.872 64.1249 244.694 64.1978 244.567C68.1561 237.709 74.2432 232.636 80.4585 229.815Z" fill="#FBE300"/>
<path d="M300.448 236.11C303.597 236.887 311.036 240.225 308.056 245.3C304.03 244.932 295.859 242.452 300.448 236.11Z" fill="#FBE300"/>
<path d="M97.6899 227.792C98.1974 228.066 97.9627 227.868 98.259 228.653C98.0289 234.874 92.0403 238.601 87.6027 240.715C83.6223 235.419 94.8308 229.478 97.6899 227.792Z" fill="#FBE300"/>
<path d="M314.627 220.504C312.838 221.457 311.176 222.786 310.85 224.073C311.271 227.177 315.936 229.75 315.55 233.082L315.549 233.081C315.935 229.75 311.271 227.178 310.85 224.074C311.175 222.786 312.838 221.457 314.627 220.504Z" fill="#FBE300"/>
<path d="M931.83 216.35C937.866 216.636 946.952 219.745 950.615 225.834C951.477 227.268 951.402 228.741 951.417 230.432C945.924 229.605 934.572 221.948 931.83 216.35Z" fill="#FBE300"/>
<path d="M324.447 222.175C323.428 224.458 322.366 226.989 320.714 228.02L320.625 228.074C322.328 227.079 323.41 224.498 324.447 222.175L324.447 222.175Z" fill="#FBE300"/>
<path d="M22.5474 210.154C23.8138 210.071 24.2391 210.142 25.2155 211.065C26.4643 214.034 24.4792 215.513 22.4889 216.741C21.1725 216.901 21.3822 217.098 20.3234 216.515C19.0944 214.043 20.6549 211.423 22.5474 210.154Z" fill="#FBE300"/>
<path d="M68.2724 204.63C77.8104 202.583 78.8772 211.286 69.632 215.745C60.6572 216.465 58.2255 208.036 68.2724 204.63Z" fill="#FBE300"/>
<path d="M53.4207 191.082C60.5123 190.788 60.0175 194.325 56.5263 200.216C55.0597 200.886 53.4122 200.156 51.93 199.652C49.8145 198.938 46.5102 198.851 45.4482 197.58L45.4919 196.816C46.8656 194.29 51.0406 192.279 53.4207 191.082Z" fill="#FBE300"/>
<path d="M62.0456 174.925C62.7512 174.852 64.0341 174.671 64.6658 175.45C66.6748 177.924 70.4673 183.276 71.2835 186.484C71.5583 187.565 70.6838 188.88 70.1926 189.593C61.7397 192.482 59.1891 179.075 62.0456 174.925Z" fill="#FBE300"/>
<path d="M21.6195 153.312C23.4683 153.356 25.518 153.781 26.5139 155.792C27.2886 160.035 22.4833 162.599 19.8171 163.89C15.8015 165.789 11.4883 157.083 21.6195 153.312Z" fill="#FBE300"/>
<path d="M53.8215 151.297C56.0088 151.188 58.6781 152.464 58.464 155.444C57.8794 156.725 58.22 156.349 57.2258 157.001C55.2413 156.886 52.1092 156.464 52.0928 153.575C52.6412 152.347 52.9309 152.141 53.8215 151.297Z" fill="#FBE300"/>
<path d="M0 145.189C3.24985 143.502 15.0355 141.218 17.0436 145.338C17.0467 152.109 3.10808 147.863 0 146.041V145.189Z" fill="#FBE300"/>
<path d="M44.9251 125.61C48.6176 125.565 57.9259 126.23 57.695 132.235C56.9758 133.142 57.2825 132.848 55.9708 133.172C53.0429 132.837 42.7582 130.51 41.8989 127.112C42.5679 126.011 42.6199 126.243 43.8474 125.635C44.2068 125.621 44.5661 125.613 44.9251 125.61Z" fill="#FBE300"/>
<path d="M95.4861 97.8847C99.3114 97.6478 106.1 102.087 104.939 106.749L104.125 107.215C103.535 107.205 102.946 107.173 102.357 107.12C99.936 106.876 94.2804 102.815 94.3696 99.2859C94.3865 98.6187 95.0266 98.2823 95.4861 97.8847Z" fill="#FBE300"/>
<path d="M98.5126 90.2737C102.108 89.9548 108.867 91.7699 108.327 97.1985L107.676 97.6207C105.413 96.9777 97.9623 94.0948 97.802 90.9184L98.5126 90.2737Z" fill="#FBE300"/>
<path d="M306.806 86.2228C306.914 81.2887 311.091 80.25 314.548 80.7249C316.749 81.3264 317.595 81.7196 319.651 82.7102C316.581 86.2774 310.806 92.1929 306.806 86.2228Z" fill="#FBE300"/>
<path d="M54.1313 72.6604C56.0786 73.7827 56.3561 76.3088 57.4584 76.4647C60.651 76.9163 63.0858 77.1851 66.2232 78.4454C66.7472 79.2105 67.3275 80.3704 67.7859 81.2243C67.8205 83.1336 68.1205 85.8019 67.155 87.2212C66.3095 88.0191 65.4348 87.9058 64.3487 87.9358C56.9323 86.8041 60.2337 79.0484 56.7282 77.8738C55.9359 78.5697 55.8028 78.7315 54.8277 78.857C53.667 78.6768 52.8481 77.4051 52.0043 76.3909C52.5356 74.5795 53.0243 73.9959 54.1313 72.6604Z" fill="#FBE300"/>
<path d="M921.588 81.1867C920.191 82.2664 916.624 85.1302 915.262 85.7736L915.192 85.3299L915.776 84.5388C915.491 83.9823 915.244 84.0729 914.533 83.8117C917.112 82.7148 918.939 81.989 921.588 81.1867Z" fill="#FBE300"/>
<path d="M617.525 68.7848C619.053 68.714 621.29 68.4718 622.6 69.4652C622.908 71.232 620.491 72.551 619.114 75.0688L618.934 75.4067C618.716 76.0291 618.728 75.9253 618.356 76.4535C615.21 76.8915 612.805 72.1543 617.525 68.7848Z" fill="#FBE300"/>
<path d="M128.784 66.7492C130.478 66.6408 131.184 66.7326 132.17 68.4526L132.279 68.6441C133.236 70.3155 134.587 74.381 133.397 76.1074L132.843 75.9308L130.431 73.6584C124.716 73.6827 125.846 70.5321 128.784 66.7492Z" fill="#FBE300"/>
<path d="M325.238 64.8862C327.46 64.7735 330.687 64.9048 331.948 67.5046C332.331 68.3049 332.415 69.2519 332.18 70.1263C331.608 72.3509 329.844 73.374 328.224 74.4011C325.487 75.0555 322.513 74.4061 321.61 70.8419C321.319 69.7352 321.424 68.5394 321.9 67.5234C322.67 65.898 323.806 65.3196 325.238 64.8862Z" fill="#FBE300"/>
<path d="M101.454 60.1161C105.444 59.8664 109.555 65.1696 106.399 68.8158C103.253 68.3855 97.4052 63.2342 100.682 60.182C100.939 60.1537 101.197 60.1316 101.454 60.1161Z" fill="#FBE300"/>
<path d="M263.142 56.6397C268.479 56.3056 270.017 62.2115 265.189 66.2027C261.992 66.956 259.827 65.4379 260.258 61.3357C260.52 58.838 261.539 58.0553 263.142 56.6397Z" fill="#FBE300"/>
<path d="M752.992 22.7885C768.08 26.1212 774.581 59.5703 764.809 63.3727C760.452 61.6624 761.105 60.238 757.588 57.2719C756.731 56.5065 754.735 56.3415 753.939 55.7155C744.447 48.2425 749.01 31.877 752.992 22.7885Z" fill="#FBE300"/>
<path d="M312.129 53.3927C318.461 54.5349 312.695 62.6788 307.33 63.2688C299.566 61.1286 307.74 54.356 312.129 53.3927Z" fill="#FBE300"/>
<path d="M255.701 31.6985C259.114 33.0857 262.954 40.2482 260.728 44.317C259.926 45.7818 258.314 45.803 256.959 46.0362C256.739 50.7074 255.527 53.2427 251.615 54.6545C251.354 54.4979 250.851 54.0766 250.584 53.8684C249.756 48.8871 253.798 48.884 254.641 44.8865C253.626 43.342 251.795 44.0233 250.604 42.2506C249.588 37.5274 251.615 33.0557 255.701 31.6985Z" fill="#FBE300"/>
<path d="M343.329 35.5315C348.285 35.19 350.013 41.7355 346.167 44.6324C341.514 44.3718 339.64 38.8406 343.329 35.5315Z" fill="#FBE300"/>
<path d="M648.869 31.454C653.235 33.5747 655.189 38.2321 655.709 43.3957C650.824 41.1876 648.311 37.688 648.869 31.454Z" fill="#FBE300"/>
<path d="M476.258 32.2964C478.521 32.4934 479.523 35.543 478.87 37.8233C478.097 40.5211 477.342 41.2496 475.3 42.5598C473.278 41.2989 472.976 40.1226 472.078 37.7304L472.136 37.5764C473.42 34.4176 473.624 34.2376 476.258 32.2964Z" fill="#FBE300"/>
<path d="M302.562 32.0479C303.831 32.2767 304.761 32.5583 305.263 34.05C305.408 37.1622 302.582 38.8275 300.401 39.5343L296.86 39.501C298.588 35.4157 298.928 33.7625 302.562 32.0479Z" fill="#FBE300"/>
<path d="M886.146 15.0829C886.622 15.2483 886.532 15.2508 886.959 15.5932C887.604 19.895 878.722 34.5011 876.069 38.2271L875.724 38.3448C875.047 36.5934 877.493 29.2419 878.161 27.3566C879.991 22.2084 881.905 17.9777 886.146 15.0829Z" fill="#FBE300"/>
<path d="M193.458 19.412C197.343 21.8091 199.007 29.9126 197.058 34.5325C192.718 30.4465 190.052 25.6032 193.458 19.412Z" fill="#FBE300"/>
<path d="M323.933 25.5806C328.502 25.3007 328.406 30.8677 323.474 32.0608C322.472 31.9694 322.042 31.8472 321.084 31.5799C320.297 30.7139 320.471 31.1484 320.375 29.9701C321.02 28.0409 322.539 26.8216 323.933 25.5806Z" fill="#FBE300"/>
<path d="M297.812 23.5763C300.879 23.4957 300.751 30.1582 297.344 30.7924C292.4 28.855 295.174 26.0182 297.812 23.5763Z" fill="#FBE300"/>
<path d="M822.392 0C822.607 0.241262 822.816 0.490319 823.02 0.746895C824.635 2.77565 826.636 6.62146 826.18 9.45847C824.196 21.8358 815.482 16.1595 817.867 5.63401C818.488 2.89479 819.246 1.60222 821.428 0H822.392Z" fill="#FBE300"/>
<path d="M230.797 2.3132C231.533 3.19726 231.824 6.32902 231.668 7.59057C231.232 11.1256 229.876 12.9972 227.593 15.0717C224.511 10.1767 227.518 5.52487 230.797 2.3132Z" fill="#FBE300"/>
</svg>
