<svg width="91" height="82" viewBox="0 0 91 82" fill="none" xmlns="http://www.w3.org/2000/svg">
<mask id="path-1-outside-1_515_2876" maskUnits="userSpaceOnUse" x="-0.351562" y="0" width="92" height="83" fill="black">
<rect fill="white" x="-0.351562" width="92" height="83"/>
<path fill-rule="evenodd" clip-rule="evenodd" d="M42.7817 6.00545C43.1578 6.04468 43.3992 6.27435 43.4292 6.30135C43.5067 6.37109 43.5622 6.43817 43.5894 6.47225C43.6472 6.54486 43.6944 6.61803 43.7231 6.66365C43.7856 6.76278 43.8551 6.88505 43.9243 7.01229C44.0003 7.15189 44.0893 7.3244 44.1919 7.52401C44.4491 7.66897 44.6386 7.87116 44.7456 7.99276C44.9162 8.18668 45.0876 8.42348 45.2534 8.67635C45.9059 9.6712 46.8232 11.4358 47.9605 13.7779C48.8096 15.5266 49.7986 17.6441 50.9243 20.0787C51.2637 20.2699 51.6292 20.4781 52.0132 20.7017C53.9338 21.82 56.3618 23.3362 58.5112 25.0191C60.6071 26.6602 62.6413 28.6116 63.5396 30.6558C63.6138 30.8248 63.6787 30.9993 63.7388 31.1754C63.9148 31.0961 64.1142 31.0183 64.3198 30.9869C64.4881 30.9613 64.8313 30.947 65.1704 31.1392C66.0164 29.3682 66.7811 27.7766 67.4165 26.4664C68.2443 24.7596 68.8677 23.4974 69.271 22.7457C69.4501 22.4119 69.6499 22.0543 69.8286 21.8355C69.8692 21.7859 69.9928 21.6367 70.1782 21.5201C70.2727 21.4609 70.4798 21.3477 70.7612 21.3433C71.1011 21.3383 71.4394 21.4955 71.6802 21.7984C71.8806 22.0508 71.9459 22.3184 71.9692 22.4459C71.995 22.5872 71.9959 22.7073 71.9946 22.7779C71.992 22.9187 71.9726 23.0421 71.9595 23.1158C71.9094 23.3975 71.7925 23.795 71.6538 24.2291C71.5054 24.6935 71.3006 25.2954 71.0435 26.0318C70.5286 27.5065 69.7874 29.5615 68.8208 32.2213C68.1831 33.9761 67.4454 35.9888 66.645 38.1637C67.6285 39.5995 68.673 41.1882 69.731 42.8492C69.9883 43.2532 70.246 43.6627 70.5054 44.0748C71.2097 39.8831 71.7215 33.9081 72.0347 29.275C72.1714 27.2513 72.2656 25.5017 72.3257 24.2984C72.3292 23.9087 72.3356 23.6573 72.3403 23.5631C72.358 23.2097 72.3718 22.9482 72.3823 22.774C72.3875 22.6886 72.3928 22.6158 72.397 22.5621C72.3989 22.5381 72.4017 22.5014 72.4058 22.4654C72.4073 22.4521 72.4133 22.406 72.4233 22.3512C72.4263 22.3349 72.4427 22.2428 72.48 22.1344C72.5067 22.0631 72.6041 21.8675 72.6831 21.7496C72.9023 21.5231 73.6395 21.2726 74.1089 21.4019C74.367 21.5895 74.6456 21.9752 74.7046 22.1148C74.7288 22.1883 74.7601 22.3094 74.769 22.3551C74.783 22.4327 74.7872 22.4955 74.7886 22.5142C74.792 22.5613 74.7932 22.601 74.7935 22.6148C74.794 22.6492 74.7938 22.6848 74.7935 22.7086C74.7926 22.7609 74.7902 22.8297 74.7876 22.9078C74.7823 23.0674 74.7731 23.2964 74.7603 23.5836C74.7499 23.815 74.7335 24.0879 74.7183 24.3951C74.7067 26.1466 74.8188 31.0324 76.1509 37.1832C77.015 41.1725 78.4087 45.8088 79.9243 50.6724C81.4323 55.5117 83.06 60.5736 84.354 65.3287C84.4503 65.6826 84.5331 66.0147 84.5845 66.2955C84.61 66.4348 84.6333 66.5929 84.6431 66.7515C84.6507 66.8771 84.6625 67.1557 84.5708 67.4566C84.5201 67.6226 84.4169 67.8619 84.2104 68.0699C83.987 68.2947 83.7145 68.4088 83.4497 68.4273C83.0097 68.4578 82.6891 68.2232 82.5942 68.1519C82.3456 67.965 82.1139 67.681 81.9282 67.4371C81.1355 66.3956 79.6276 63.9478 77.1226 59.7623C75.5497 57.1342 73.5993 53.848 71.5581 50.4957C70.8236 53.3704 69.9578 56.3464 69.189 58.9156C69.2545 59.0509 69.311 59.2196 69.3296 59.4224C69.3771 59.9452 69.1533 60.3179 69.0034 60.4947C68.865 60.6577 68.7234 60.7419 68.6655 60.774C68.6518 60.7815 68.6363 60.7843 68.6235 60.7906C68.4728 61.2897 68.3307 61.7664 68.1968 62.2115C68.1138 62.4873 68.0295 62.7545 67.9497 63.0133C68.1033 63.4177 68.2435 63.7794 68.3618 64.1031C68.7274 65.1031 68.9607 65.8065 69.0435 66.1754C69.0557 66.23 69.0699 66.3011 69.0806 66.3785C69.0874 66.4278 69.1106 66.5991 69.0874 66.8053C69.0765 66.9015 69.0407 67.1506 68.8853 67.4078C68.6875 67.7344 68.3394 67.9932 67.9087 68.0006C67.8144 68.0021 67.7276 67.9882 67.6499 67.9703C67.6217 68.0389 67.5901 68.1104 67.5493 68.1793C67.2765 68.64 66.8582 68.8244 66.5083 68.8512C66.2108 68.8737 65.9545 68.7895 65.7954 68.7242C65.4672 68.5894 65.1151 68.3499 64.773 68.0875C64.6538 67.996 64.5284 67.8904 64.3931 67.7789C64.3494 67.7774 64.3048 67.78 64.2603 67.776C63.5924 67.7146 62.9489 67.3667 62.3413 66.9283C61.1865 67.1865 58.7084 67.4015 55.314 67.5455C55.1866 67.5509 55.0574 67.5549 54.9272 67.5601C54.3432 68.8039 53.7909 69.9184 53.2798 70.8648C52.1927 72.8774 51.2288 74.2794 50.3452 75.0914C49.899 75.5013 49.3996 75.8296 48.8511 75.9508C48.2612 76.0808 47.6907 75.9522 47.2056 75.5933C46.7557 75.2604 46.4457 74.7803 46.2271 74.317C46.0047 73.8458 45.8373 73.3067 45.7056 72.7525C45.4427 71.6459 45.2856 70.3109 45.1851 68.9547C45.1561 68.5644 45.1318 68.1675 45.1108 67.7652C39.2358 67.8082 32.9031 67.7404 28.1372 67.5562C24.2293 67.4052 21.4215 67.1764 19.4468 66.8482C18.4598 66.6842 17.6478 66.4896 16.9946 66.2535C16.3534 66.0216 15.7826 65.7211 15.3501 65.2906C15.138 65.0794 14.8918 64.7677 14.7534 64.3433C14.6 63.8725 14.6103 63.3517 14.814 62.8697C14.9984 62.434 15.3007 62.1211 15.5894 61.8971C15.8852 61.6675 16.242 61.4724 16.6401 61.3013C17.256 61.0369 18.0772 60.7866 19.1401 60.5523C19.1782 60.243 19.2574 59.9326 19.3638 59.6236C19.5845 58.9831 19.9661 58.2103 20.5327 57.2398C21.6711 55.29 23.6989 52.3014 27.1431 47.5601C29.4013 44.4514 32.2489 40.6158 35.1646 36.8726C30.8176 31.6042 28.6154 28.2903 27.6528 26.5074C27.5056 26.2347 27.3587 25.946 27.2544 25.6783C27.2021 25.5439 27.1437 25.3736 27.1069 25.1861C27.0732 25.0138 27.0335 24.7082 27.1187 24.3619C27.2203 23.9494 27.4713 23.5998 27.8247 23.4068C28.1216 23.2451 28.4068 23.2396 28.5747 23.2506C28.9069 23.2725 29.2532 23.4 29.5454 23.526C30.7441 24.0428 33.127 25.4939 37.2524 28.0631C38.2193 28.6652 39.349 29.376 40.5894 30.1549C41.1333 29.5124 41.6702 28.8913 42.1939 28.2974C41.9286 20.5689 42.1322 13.0918 42.1724 9.49666C42.1667 9.48293 42.1604 9.46919 42.1548 9.45565C41.9363 8.92765 41.7748 8.52112 41.6714 8.2408C41.6225 8.10813 41.5727 7.96807 41.5386 7.84529C41.5265 7.80182 41.4896 7.66898 41.4751 7.51033C41.4705 7.4606 41.445 7.20908 41.5347 6.91561C41.5863 6.74683 41.7039 6.47702 41.9605 6.26424C42.2364 6.03571 42.5423 5.9807 42.7817 6.00545ZM52.1626 67.651C50.7016 67.6906 49.1335 67.7177 47.5064 67.7388C47.5246 68.0739 47.5458 68.4043 47.5698 68.7291C47.6661 70.0277 47.8081 71.1764 48.0161 72.0523C48.1198 72.4888 48.2313 72.8173 48.3394 73.0465C48.3891 73.152 48.4326 73.222 48.4634 73.2662C48.5349 73.2303 48.6592 73.1577 48.8345 72.9967C49.3928 72.4834 50.1856 71.4049 51.2368 69.4586C51.5317 68.9126 51.8401 68.3067 52.1626 67.651ZM31.0679 61.9342C29.2213 62.0448 27.511 62.1671 26.0083 62.3053C24.7091 62.4247 23.5746 62.5552 22.5874 62.69C21.9139 62.9587 21.2574 63.1352 20.6763 63.0445C20.6313 63.0375 20.586 63.0239 20.5405 63.0133C19.3077 63.2408 18.4168 63.4746 17.7964 63.7037C18.2722 63.8687 18.9215 64.0311 19.7954 64.1763C21.6336 64.4818 24.3331 64.7068 28.2192 64.857C29.7524 64.9163 31.4501 64.9591 33.2427 64.9947C33.1314 64.9843 33.0238 64.9776 32.9224 64.9664C32.4878 64.9183 32.0857 64.8549 31.7661 64.7603C31.6112 64.7144 31.4085 64.6418 31.2153 64.5172C31.0501 64.4105 30.6635 64.12 30.5376 63.5328C30.3993 62.8866 30.6775 62.3996 30.8384 62.1861C30.9114 62.0893 30.9904 62.0051 31.0679 61.9342ZM61.6587 61.0181C61.6301 61.0186 61.6006 61.0187 61.5718 61.0191C61.4547 61.1056 61.3374 61.1927 61.2202 61.2779C61.9844 62.0367 62.6863 62.7251 63.311 63.3258C63.4967 63.5042 63.6758 63.673 63.8462 63.8346C63.7878 63.7158 63.7305 63.5929 63.6694 63.4693C63.3012 62.7241 62.8862 61.8991 62.439 61.0055C62.1891 61.0091 61.9283 61.0142 61.6587 61.0181ZM58.1606 63.3453C58.1824 63.3467 58.2045 63.3478 58.2261 63.3492C58.2169 63.3399 58.2079 63.3292 58.1987 63.3199C58.186 63.3279 58.1734 63.3373 58.1606 63.3453ZM55.0444 61.1275C54.6345 61.2831 54.2149 61.4298 53.7915 61.568C53.7739 61.6108 53.7558 61.654 53.7388 61.6959C53.5171 62.2405 53.3457 62.6906 53.2153 63.0592C53.6084 62.8872 54.0612 62.6665 54.5591 62.4029C54.7396 61.9859 54.9231 61.5603 55.1069 61.1275C55.0863 61.1279 55.0652 61.1272 55.0444 61.1275ZM50.8774 62.4C50.1622 62.5814 49.4421 62.7519 48.7339 62.9127C49.3921 62.9365 50.0478 62.9629 50.6948 62.9879C50.7456 62.8045 50.8082 62.6089 50.8774 62.4ZM39.3814 61.5416C38.526 61.8202 37.7282 62.0827 37.0093 62.3248C36.8494 62.3786 36.693 62.4315 36.5415 62.483C36.6073 62.4857 36.6746 62.491 36.7417 62.4937C37.7183 62.5335 38.8353 62.5689 40.0435 62.6109C40.3422 62.3603 40.7369 62.1536 41.1714 61.9664L41.2202 61.9449L41.272 61.9293C41.8252 61.752 42.4624 61.5845 43.1528 61.4156C41.8914 61.4548 40.629 61.4952 39.3814 61.5416ZM73.7583 37.4937C73.4434 40.6423 73.0568 43.7245 72.5884 46.0582C72.5213 46.3922 72.4494 46.7328 72.3745 47.0777C74.8413 51.0865 77.2489 55.1503 79.105 58.2515C79.5817 59.0481 80.0215 59.7741 80.4214 60.4361C79.5331 57.5009 78.5847 54.5144 77.6665 51.568C76.1539 46.714 74.7224 41.9606 73.8267 37.8248C73.8028 37.7145 73.7814 37.6032 73.7583 37.4937ZM65.4536 41.3951C65.721 41.5876 65.9343 41.8484 66.0845 42.1431C66.333 42.6311 66.4078 43.1801 66.398 43.6646C66.3779 44.6385 66.0146 45.7225 65.3442 46.6021C64.6816 47.4713 63.9385 48.2221 63.1362 48.8726C63.1686 48.9887 63.2005 49.1048 63.2329 49.2203C63.5468 50.3381 63.8612 51.4206 64.1714 52.4586C64.3961 52.4607 64.607 52.4695 64.8032 52.4898C65.3 52.5413 65.8096 52.661 66.2329 52.943C66.711 53.2617 67.0832 53.7985 67.1362 54.5152C67.1814 55.1279 66.973 55.662 66.7808 56.0318C66.5328 56.5086 66.1609 56.9908 65.7378 57.4547C65.8252 57.667 65.9103 57.8768 65.9937 58.0806C66.2038 58.0981 66.4114 58.1168 66.6157 58.1285C66.71 58.1339 66.8035 58.1375 66.894 58.1422C67.8649 54.8993 68.98 51.0573 69.7837 47.609C69.1156 46.5306 68.4489 45.4612 67.7886 44.4244C67.0361 43.243 66.2945 42.1074 65.5835 41.0426C65.5401 41.1595 65.4973 41.2776 65.4536 41.3951ZM31.0825 27.3531C32.2505 29.1004 34.0591 31.5594 36.7612 34.8443C37.479 33.9403 38.1958 33.0508 38.9028 32.1881C37.8664 31.5375 36.9195 30.9416 36.0952 30.4283C33.9249 29.0767 32.2921 28.07 31.0825 27.3531ZM44.4888 14.8834C44.4489 18.0123 44.426 21.8149 44.5142 25.7721C44.6756 25.6048 44.8356 25.4412 44.9927 25.2828C45.0624 25.0506 45.1492 24.8249 45.2622 24.6265L45.3872 24.4322C45.53 24.2339 45.7275 24.0344 45.9946 23.9019C46.1983 23.8011 46.4038 23.7589 46.5991 23.7584C46.7168 23.6545 46.8329 23.5518 46.9478 23.4547C46.7273 22.3997 46.5777 21.518 46.5259 20.8756C46.4993 20.5458 46.4756 20.0718 46.5874 19.6568C45.807 17.8888 45.0988 16.2777 44.4888 14.8834Z"/>
</mask>
<path fill-rule="evenodd" clip-rule="evenodd" d="M42.7817 6.00545C43.1578 6.04468 43.3992 6.27435 43.4292 6.30135C43.5067 6.37109 43.5622 6.43817 43.5894 6.47225C43.6472 6.54486 43.6944 6.61803 43.7231 6.66365C43.7856 6.76278 43.8551 6.88505 43.9243 7.01229C44.0003 7.15189 44.0893 7.3244 44.1919 7.52401C44.4491 7.66897 44.6386 7.87116 44.7456 7.99276C44.9162 8.18668 45.0876 8.42348 45.2534 8.67635C45.9059 9.6712 46.8232 11.4358 47.9605 13.7779C48.8096 15.5266 49.7986 17.6441 50.9243 20.0787C51.2637 20.2699 51.6292 20.4781 52.0132 20.7017C53.9338 21.82 56.3618 23.3362 58.5112 25.0191C60.6071 26.6602 62.6413 28.6116 63.5396 30.6558C63.6138 30.8248 63.6787 30.9993 63.7388 31.1754C63.9148 31.0961 64.1142 31.0183 64.3198 30.9869C64.4881 30.9613 64.8313 30.947 65.1704 31.1392C66.0164 29.3682 66.7811 27.7766 67.4165 26.4664C68.2443 24.7596 68.8677 23.4974 69.271 22.7457C69.4501 22.4119 69.6499 22.0543 69.8286 21.8355C69.8692 21.7859 69.9928 21.6367 70.1782 21.5201C70.2727 21.4609 70.4798 21.3477 70.7612 21.3433C71.1011 21.3383 71.4394 21.4955 71.6802 21.7984C71.8806 22.0508 71.9459 22.3184 71.9692 22.4459C71.995 22.5872 71.9959 22.7073 71.9946 22.7779C71.992 22.9187 71.9726 23.0421 71.9595 23.1158C71.9094 23.3975 71.7925 23.795 71.6538 24.2291C71.5054 24.6935 71.3006 25.2954 71.0435 26.0318C70.5286 27.5065 69.7874 29.5615 68.8208 32.2213C68.1831 33.9761 67.4454 35.9888 66.645 38.1637C67.6285 39.5995 68.673 41.1882 69.731 42.8492C69.9883 43.2532 70.246 43.6627 70.5054 44.0748C71.2097 39.8831 71.7215 33.9081 72.0347 29.275C72.1714 27.2513 72.2656 25.5017 72.3257 24.2984C72.3292 23.9087 72.3356 23.6573 72.3403 23.5631C72.358 23.2097 72.3718 22.9482 72.3823 22.774C72.3875 22.6886 72.3928 22.6158 72.397 22.5621C72.3989 22.5381 72.4017 22.5014 72.4058 22.4654C72.4073 22.4521 72.4133 22.406 72.4233 22.3512C72.4263 22.3349 72.4427 22.2428 72.48 22.1344C72.5067 22.0631 72.6041 21.8675 72.6831 21.7496C72.9023 21.5231 73.6395 21.2726 74.1089 21.4019C74.367 21.5895 74.6456 21.9752 74.7046 22.1148C74.7288 22.1883 74.7601 22.3094 74.769 22.3551C74.783 22.4327 74.7872 22.4955 74.7886 22.5142C74.792 22.5613 74.7932 22.601 74.7935 22.6148C74.794 22.6492 74.7938 22.6848 74.7935 22.7086C74.7926 22.7609 74.7902 22.8297 74.7876 22.9078C74.7823 23.0674 74.7731 23.2964 74.7603 23.5836C74.7499 23.815 74.7335 24.0879 74.7183 24.3951C74.7067 26.1466 74.8188 31.0324 76.1509 37.1832C77.015 41.1725 78.4087 45.8088 79.9243 50.6724C81.4323 55.5117 83.06 60.5736 84.354 65.3287C84.4503 65.6826 84.5331 66.0147 84.5845 66.2955C84.61 66.4348 84.6333 66.5929 84.6431 66.7515C84.6507 66.8771 84.6625 67.1557 84.5708 67.4566C84.5201 67.6226 84.4169 67.8619 84.2104 68.0699C83.987 68.2947 83.7145 68.4088 83.4497 68.4273C83.0097 68.4578 82.6891 68.2232 82.5942 68.1519C82.3456 67.965 82.1139 67.681 81.9282 67.4371C81.1355 66.3956 79.6276 63.9478 77.1226 59.7623C75.5497 57.1342 73.5993 53.848 71.5581 50.4957C70.8236 53.3704 69.9578 56.3464 69.189 58.9156C69.2545 59.0509 69.311 59.2196 69.3296 59.4224C69.3771 59.9452 69.1533 60.3179 69.0034 60.4947C68.865 60.6577 68.7234 60.7419 68.6655 60.774C68.6518 60.7815 68.6363 60.7843 68.6235 60.7906C68.4728 61.2897 68.3307 61.7664 68.1968 62.2115C68.1138 62.4873 68.0295 62.7545 67.9497 63.0133C68.1033 63.4177 68.2435 63.7794 68.3618 64.1031C68.7274 65.1031 68.9607 65.8065 69.0435 66.1754C69.0557 66.23 69.0699 66.3011 69.0806 66.3785C69.0874 66.4278 69.1106 66.5991 69.0874 66.8053C69.0765 66.9015 69.0407 67.1506 68.8853 67.4078C68.6875 67.7344 68.3394 67.9932 67.9087 68.0006C67.8144 68.0021 67.7276 67.9882 67.6499 67.9703C67.6217 68.0389 67.5901 68.1104 67.5493 68.1793C67.2765 68.64 66.8582 68.8244 66.5083 68.8512C66.2108 68.8737 65.9545 68.7895 65.7954 68.7242C65.4672 68.5894 65.1151 68.3499 64.773 68.0875C64.6538 67.996 64.5284 67.8904 64.3931 67.7789C64.3494 67.7774 64.3048 67.78 64.2603 67.776C63.5924 67.7146 62.9489 67.3667 62.3413 66.9283C61.1865 67.1865 58.7084 67.4015 55.314 67.5455C55.1866 67.5509 55.0574 67.5549 54.9272 67.5601C54.3432 68.8039 53.7909 69.9184 53.2798 70.8648C52.1927 72.8774 51.2288 74.2794 50.3452 75.0914C49.899 75.5013 49.3996 75.8296 48.8511 75.9508C48.2612 76.0808 47.6907 75.9522 47.2056 75.5933C46.7557 75.2604 46.4457 74.7803 46.2271 74.317C46.0047 73.8458 45.8373 73.3067 45.7056 72.7525C45.4427 71.6459 45.2856 70.3109 45.1851 68.9547C45.1561 68.5644 45.1318 68.1675 45.1108 67.7652C39.2358 67.8082 32.9031 67.7404 28.1372 67.5562C24.2293 67.4052 21.4215 67.1764 19.4468 66.8482C18.4598 66.6842 17.6478 66.4896 16.9946 66.2535C16.3534 66.0216 15.7826 65.7211 15.3501 65.2906C15.138 65.0794 14.8918 64.7677 14.7534 64.3433C14.6 63.8725 14.6103 63.3517 14.814 62.8697C14.9984 62.434 15.3007 62.1211 15.5894 61.8971C15.8852 61.6675 16.242 61.4724 16.6401 61.3013C17.256 61.0369 18.0772 60.7866 19.1401 60.5523C19.1782 60.243 19.2574 59.9326 19.3638 59.6236C19.5845 58.9831 19.9661 58.2103 20.5327 57.2398C21.6711 55.29 23.6989 52.3014 27.1431 47.5601C29.4013 44.4514 32.2489 40.6158 35.1646 36.8726C30.8176 31.6042 28.6154 28.2903 27.6528 26.5074C27.5056 26.2347 27.3587 25.946 27.2544 25.6783C27.2021 25.5439 27.1437 25.3736 27.1069 25.1861C27.0732 25.0138 27.0335 24.7082 27.1187 24.3619C27.2203 23.9494 27.4713 23.5998 27.8247 23.4068C28.1216 23.2451 28.4068 23.2396 28.5747 23.2506C28.9069 23.2725 29.2532 23.4 29.5454 23.526C30.7441 24.0428 33.127 25.4939 37.2524 28.0631C38.2193 28.6652 39.349 29.376 40.5894 30.1549C41.1333 29.5124 41.6702 28.8913 42.1939 28.2974C41.9286 20.5689 42.1322 13.0918 42.1724 9.49666C42.1667 9.48293 42.1604 9.46919 42.1548 9.45565C41.9363 8.92765 41.7748 8.52112 41.6714 8.2408C41.6225 8.10813 41.5727 7.96807 41.5386 7.84529C41.5265 7.80182 41.4896 7.66898 41.4751 7.51033C41.4705 7.4606 41.445 7.20908 41.5347 6.91561C41.5863 6.74683 41.7039 6.47702 41.9605 6.26424C42.2364 6.03571 42.5423 5.9807 42.7817 6.00545ZM52.1626 67.651C50.7016 67.6906 49.1335 67.7177 47.5064 67.7388C47.5246 68.0739 47.5458 68.4043 47.5698 68.7291C47.6661 70.0277 47.8081 71.1764 48.0161 72.0523C48.1198 72.4888 48.2313 72.8173 48.3394 73.0465C48.3891 73.152 48.4326 73.222 48.4634 73.2662C48.5349 73.2303 48.6592 73.1577 48.8345 72.9967C49.3928 72.4834 50.1856 71.4049 51.2368 69.4586C51.5317 68.9126 51.8401 68.3067 52.1626 67.651ZM31.0679 61.9342C29.2213 62.0448 27.511 62.1671 26.0083 62.3053C24.7091 62.4247 23.5746 62.5552 22.5874 62.69C21.9139 62.9587 21.2574 63.1352 20.6763 63.0445C20.6313 63.0375 20.586 63.0239 20.5405 63.0133C19.3077 63.2408 18.4168 63.4746 17.7964 63.7037C18.2722 63.8687 18.9215 64.0311 19.7954 64.1763C21.6336 64.4818 24.3331 64.7068 28.2192 64.857C29.7524 64.9163 31.4501 64.9591 33.2427 64.9947C33.1314 64.9843 33.0238 64.9776 32.9224 64.9664C32.4878 64.9183 32.0857 64.8549 31.7661 64.7603C31.6112 64.7144 31.4085 64.6418 31.2153 64.5172C31.0501 64.4105 30.6635 64.12 30.5376 63.5328C30.3993 62.8866 30.6775 62.3996 30.8384 62.1861C30.9114 62.0893 30.9904 62.0051 31.0679 61.9342ZM61.6587 61.0181C61.6301 61.0186 61.6006 61.0187 61.5718 61.0191C61.4547 61.1056 61.3374 61.1927 61.2202 61.2779C61.9844 62.0367 62.6863 62.7251 63.311 63.3258C63.4967 63.5042 63.6758 63.673 63.8462 63.8346C63.7878 63.7158 63.7305 63.5929 63.6694 63.4693C63.3012 62.7241 62.8862 61.8991 62.439 61.0055C62.1891 61.0091 61.9283 61.0142 61.6587 61.0181ZM58.1606 63.3453C58.1824 63.3467 58.2045 63.3478 58.2261 63.3492C58.2169 63.3399 58.2079 63.3292 58.1987 63.3199C58.186 63.3279 58.1734 63.3373 58.1606 63.3453ZM55.0444 61.1275C54.6345 61.2831 54.2149 61.4298 53.7915 61.568C53.7739 61.6108 53.7558 61.654 53.7388 61.6959C53.5171 62.2405 53.3457 62.6906 53.2153 63.0592C53.6084 62.8872 54.0612 62.6665 54.5591 62.4029C54.7396 61.9859 54.9231 61.5603 55.1069 61.1275C55.0863 61.1279 55.0652 61.1272 55.0444 61.1275ZM50.8774 62.4C50.1622 62.5814 49.4421 62.7519 48.7339 62.9127C49.3921 62.9365 50.0478 62.9629 50.6948 62.9879C50.7456 62.8045 50.8082 62.6089 50.8774 62.4ZM39.3814 61.5416C38.526 61.8202 37.7282 62.0827 37.0093 62.3248C36.8494 62.3786 36.693 62.4315 36.5415 62.483C36.6073 62.4857 36.6746 62.491 36.7417 62.4937C37.7183 62.5335 38.8353 62.5689 40.0435 62.6109C40.3422 62.3603 40.7369 62.1536 41.1714 61.9664L41.2202 61.9449L41.272 61.9293C41.8252 61.752 42.4624 61.5845 43.1528 61.4156C41.8914 61.4548 40.629 61.4952 39.3814 61.5416ZM73.7583 37.4937C73.4434 40.6423 73.0568 43.7245 72.5884 46.0582C72.5213 46.3922 72.4494 46.7328 72.3745 47.0777C74.8413 51.0865 77.2489 55.1503 79.105 58.2515C79.5817 59.0481 80.0215 59.7741 80.4214 60.4361C79.5331 57.5009 78.5847 54.5144 77.6665 51.568C76.1539 46.714 74.7224 41.9606 73.8267 37.8248C73.8028 37.7145 73.7814 37.6032 73.7583 37.4937ZM65.4536 41.3951C65.721 41.5876 65.9343 41.8484 66.0845 42.1431C66.333 42.6311 66.4078 43.1801 66.398 43.6646C66.3779 44.6385 66.0146 45.7225 65.3442 46.6021C64.6816 47.4713 63.9385 48.2221 63.1362 48.8726C63.1686 48.9887 63.2005 49.1048 63.2329 49.2203C63.5468 50.3381 63.8612 51.4206 64.1714 52.4586C64.3961 52.4607 64.607 52.4695 64.8032 52.4898C65.3 52.5413 65.8096 52.661 66.2329 52.943C66.711 53.2617 67.0832 53.7985 67.1362 54.5152C67.1814 55.1279 66.973 55.662 66.7808 56.0318C66.5328 56.5086 66.1609 56.9908 65.7378 57.4547C65.8252 57.667 65.9103 57.8768 65.9937 58.0806C66.2038 58.0981 66.4114 58.1168 66.6157 58.1285C66.71 58.1339 66.8035 58.1375 66.894 58.1422C67.8649 54.8993 68.98 51.0573 69.7837 47.609C69.1156 46.5306 68.4489 45.4612 67.7886 44.4244C67.0361 43.243 66.2945 42.1074 65.5835 41.0426C65.5401 41.1595 65.4973 41.2776 65.4536 41.3951ZM31.0825 27.3531C32.2505 29.1004 34.0591 31.5594 36.7612 34.8443C37.479 33.9403 38.1958 33.0508 38.9028 32.1881C37.8664 31.5375 36.9195 30.9416 36.0952 30.4283C33.9249 29.0767 32.2921 28.07 31.0825 27.3531ZM44.4888 14.8834C44.4489 18.0123 44.426 21.8149 44.5142 25.7721C44.6756 25.6048 44.8356 25.4412 44.9927 25.2828C45.0624 25.0506 45.1492 24.8249 45.2622 24.6265L45.3872 24.4322C45.53 24.2339 45.7275 24.0344 45.9946 23.9019C46.1983 23.8011 46.4038 23.7589 46.5991 23.7584C46.7168 23.6545 46.8329 23.5518 46.9478 23.4547C46.7273 22.3997 46.5777 21.518 46.5259 20.8756C46.4993 20.5458 46.4756 20.0718 46.5874 19.6568C45.807 17.8888 45.0988 16.2777 44.4888 14.8834Z" fill="#FBE300"/>
<path fill-rule="evenodd" clip-rule="evenodd" d="M42.7817 6.00545C43.1578 6.04468 43.3992 6.27435 43.4292 6.30135C43.5067 6.37109 43.5622 6.43817 43.5894 6.47225C43.6472 6.54486 43.6944 6.61803 43.7231 6.66365C43.7856 6.76278 43.8551 6.88505 43.9243 7.01229C44.0003 7.15189 44.0893 7.3244 44.1919 7.52401C44.4491 7.66897 44.6386 7.87116 44.7456 7.99276C44.9162 8.18668 45.0876 8.42348 45.2534 8.67635C45.9059 9.6712 46.8232 11.4358 47.9605 13.7779C48.8096 15.5266 49.7986 17.6441 50.9243 20.0787C51.2637 20.2699 51.6292 20.4781 52.0132 20.7017C53.9338 21.82 56.3618 23.3362 58.5112 25.0191C60.6071 26.6602 62.6413 28.6116 63.5396 30.6558C63.6138 30.8248 63.6787 30.9993 63.7388 31.1754C63.9148 31.0961 64.1142 31.0183 64.3198 30.9869C64.4881 30.9613 64.8313 30.947 65.1704 31.1392C66.0164 29.3682 66.7811 27.7766 67.4165 26.4664C68.2443 24.7596 68.8677 23.4974 69.271 22.7457C69.4501 22.4119 69.6499 22.0543 69.8286 21.8355C69.8692 21.7859 69.9928 21.6367 70.1782 21.5201C70.2727 21.4609 70.4798 21.3477 70.7612 21.3433C71.1011 21.3383 71.4394 21.4955 71.6802 21.7984C71.8806 22.0508 71.9459 22.3184 71.9692 22.4459C71.995 22.5872 71.9959 22.7073 71.9946 22.7779C71.992 22.9187 71.9726 23.0421 71.9595 23.1158C71.9094 23.3975 71.7925 23.795 71.6538 24.2291C71.5054 24.6935 71.3006 25.2954 71.0435 26.0318C70.5286 27.5065 69.7874 29.5615 68.8208 32.2213C68.1831 33.9761 67.4454 35.9888 66.645 38.1637C67.6285 39.5995 68.673 41.1882 69.731 42.8492C69.9883 43.2532 70.246 43.6627 70.5054 44.0748C71.2097 39.8831 71.7215 33.9081 72.0347 29.275C72.1714 27.2513 72.2656 25.5017 72.3257 24.2984C72.3292 23.9087 72.3356 23.6573 72.3403 23.5631C72.358 23.2097 72.3718 22.9482 72.3823 22.774C72.3875 22.6886 72.3928 22.6158 72.397 22.5621C72.3989 22.5381 72.4017 22.5014 72.4058 22.4654C72.4073 22.4521 72.4133 22.406 72.4233 22.3512C72.4263 22.3349 72.4427 22.2428 72.48 22.1344C72.5067 22.0631 72.6041 21.8675 72.6831 21.7496C72.9023 21.5231 73.6395 21.2726 74.1089 21.4019C74.367 21.5895 74.6456 21.9752 74.7046 22.1148C74.7288 22.1883 74.7601 22.3094 74.769 22.3551C74.783 22.4327 74.7872 22.4955 74.7886 22.5142C74.792 22.5613 74.7932 22.601 74.7935 22.6148C74.794 22.6492 74.7938 22.6848 74.7935 22.7086C74.7926 22.7609 74.7902 22.8297 74.7876 22.9078C74.7823 23.0674 74.7731 23.2964 74.7603 23.5836C74.7499 23.815 74.7335 24.0879 74.7183 24.3951C74.7067 26.1466 74.8188 31.0324 76.1509 37.1832C77.015 41.1725 78.4087 45.8088 79.9243 50.6724C81.4323 55.5117 83.06 60.5736 84.354 65.3287C84.4503 65.6826 84.5331 66.0147 84.5845 66.2955C84.61 66.4348 84.6333 66.5929 84.6431 66.7515C84.6507 66.8771 84.6625 67.1557 84.5708 67.4566C84.5201 67.6226 84.4169 67.8619 84.2104 68.0699C83.987 68.2947 83.7145 68.4088 83.4497 68.4273C83.0097 68.4578 82.6891 68.2232 82.5942 68.1519C82.3456 67.965 82.1139 67.681 81.9282 67.4371C81.1355 66.3956 79.6276 63.9478 77.1226 59.7623C75.5497 57.1342 73.5993 53.848 71.5581 50.4957C70.8236 53.3704 69.9578 56.3464 69.189 58.9156C69.2545 59.0509 69.311 59.2196 69.3296 59.4224C69.3771 59.9452 69.1533 60.3179 69.0034 60.4947C68.865 60.6577 68.7234 60.7419 68.6655 60.774C68.6518 60.7815 68.6363 60.7843 68.6235 60.7906C68.4728 61.2897 68.3307 61.7664 68.1968 62.2115C68.1138 62.4873 68.0295 62.7545 67.9497 63.0133C68.1033 63.4177 68.2435 63.7794 68.3618 64.1031C68.7274 65.1031 68.9607 65.8065 69.0435 66.1754C69.0557 66.23 69.0699 66.3011 69.0806 66.3785C69.0874 66.4278 69.1106 66.5991 69.0874 66.8053C69.0765 66.9015 69.0407 67.1506 68.8853 67.4078C68.6875 67.7344 68.3394 67.9932 67.9087 68.0006C67.8144 68.0021 67.7276 67.9882 67.6499 67.9703C67.6217 68.0389 67.5901 68.1104 67.5493 68.1793C67.2765 68.64 66.8582 68.8244 66.5083 68.8512C66.2108 68.8737 65.9545 68.7895 65.7954 68.7242C65.4672 68.5894 65.1151 68.3499 64.773 68.0875C64.6538 67.996 64.5284 67.8904 64.3931 67.7789C64.3494 67.7774 64.3048 67.78 64.2603 67.776C63.5924 67.7146 62.9489 67.3667 62.3413 66.9283C61.1865 67.1865 58.7084 67.4015 55.314 67.5455C55.1866 67.5509 55.0574 67.5549 54.9272 67.5601C54.3432 68.8039 53.7909 69.9184 53.2798 70.8648C52.1927 72.8774 51.2288 74.2794 50.3452 75.0914C49.899 75.5013 49.3996 75.8296 48.8511 75.9508C48.2612 76.0808 47.6907 75.9522 47.2056 75.5933C46.7557 75.2604 46.4457 74.7803 46.2271 74.317C46.0047 73.8458 45.8373 73.3067 45.7056 72.7525C45.4427 71.6459 45.2856 70.3109 45.1851 68.9547C45.1561 68.5644 45.1318 68.1675 45.1108 67.7652C39.2358 67.8082 32.9031 67.7404 28.1372 67.5562C24.2293 67.4052 21.4215 67.1764 19.4468 66.8482C18.4598 66.6842 17.6478 66.4896 16.9946 66.2535C16.3534 66.0216 15.7826 65.7211 15.3501 65.2906C15.138 65.0794 14.8918 64.7677 14.7534 64.3433C14.6 63.8725 14.6103 63.3517 14.814 62.8697C14.9984 62.434 15.3007 62.1211 15.5894 61.8971C15.8852 61.6675 16.242 61.4724 16.6401 61.3013C17.256 61.0369 18.0772 60.7866 19.1401 60.5523C19.1782 60.243 19.2574 59.9326 19.3638 59.6236C19.5845 58.9831 19.9661 58.2103 20.5327 57.2398C21.6711 55.29 23.6989 52.3014 27.1431 47.5601C29.4013 44.4514 32.2489 40.6158 35.1646 36.8726C30.8176 31.6042 28.6154 28.2903 27.6528 26.5074C27.5056 26.2347 27.3587 25.946 27.2544 25.6783C27.2021 25.5439 27.1437 25.3736 27.1069 25.1861C27.0732 25.0138 27.0335 24.7082 27.1187 24.3619C27.2203 23.9494 27.4713 23.5998 27.8247 23.4068C28.1216 23.2451 28.4068 23.2396 28.5747 23.2506C28.9069 23.2725 29.2532 23.4 29.5454 23.526C30.7441 24.0428 33.127 25.4939 37.2524 28.0631C38.2193 28.6652 39.349 29.376 40.5894 30.1549C41.1333 29.5124 41.6702 28.8913 42.1939 28.2974C41.9286 20.5689 42.1322 13.0918 42.1724 9.49666C42.1667 9.48293 42.1604 9.46919 42.1548 9.45565C41.9363 8.92765 41.7748 8.52112 41.6714 8.2408C41.6225 8.10813 41.5727 7.96807 41.5386 7.84529C41.5265 7.80182 41.4896 7.66898 41.4751 7.51033C41.4705 7.4606 41.445 7.20908 41.5347 6.91561C41.5863 6.74683 41.7039 6.47702 41.9605 6.26424C42.2364 6.03571 42.5423 5.9807 42.7817 6.00545ZM52.1626 67.651C50.7016 67.6906 49.1335 67.7177 47.5064 67.7388C47.5246 68.0739 47.5458 68.4043 47.5698 68.7291C47.6661 70.0277 47.8081 71.1764 48.0161 72.0523C48.1198 72.4888 48.2313 72.8173 48.3394 73.0465C48.3891 73.152 48.4326 73.222 48.4634 73.2662C48.5349 73.2303 48.6592 73.1577 48.8345 72.9967C49.3928 72.4834 50.1856 71.4049 51.2368 69.4586C51.5317 68.9126 51.8401 68.3067 52.1626 67.651ZM31.0679 61.9342C29.2213 62.0448 27.511 62.1671 26.0083 62.3053C24.7091 62.4247 23.5746 62.5552 22.5874 62.69C21.9139 62.9587 21.2574 63.1352 20.6763 63.0445C20.6313 63.0375 20.586 63.0239 20.5405 63.0133C19.3077 63.2408 18.4168 63.4746 17.7964 63.7037C18.2722 63.8687 18.9215 64.0311 19.7954 64.1763C21.6336 64.4818 24.3331 64.7068 28.2192 64.857C29.7524 64.9163 31.4501 64.9591 33.2427 64.9947C33.1314 64.9843 33.0238 64.9776 32.9224 64.9664C32.4878 64.9183 32.0857 64.8549 31.7661 64.7603C31.6112 64.7144 31.4085 64.6418 31.2153 64.5172C31.0501 64.4105 30.6635 64.12 30.5376 63.5328C30.3993 62.8866 30.6775 62.3996 30.8384 62.1861C30.9114 62.0893 30.9904 62.0051 31.0679 61.9342ZM61.6587 61.0181C61.6301 61.0186 61.6006 61.0187 61.5718 61.0191C61.4547 61.1056 61.3374 61.1927 61.2202 61.2779C61.9844 62.0367 62.6863 62.7251 63.311 63.3258C63.4967 63.5042 63.6758 63.673 63.8462 63.8346C63.7878 63.7158 63.7305 63.5929 63.6694 63.4693C63.3012 62.7241 62.8862 61.8991 62.439 61.0055C62.1891 61.0091 61.9283 61.0142 61.6587 61.0181ZM58.1606 63.3453C58.1824 63.3467 58.2045 63.3478 58.2261 63.3492C58.2169 63.3399 58.2079 63.3292 58.1987 63.3199C58.186 63.3279 58.1734 63.3373 58.1606 63.3453ZM55.0444 61.1275C54.6345 61.2831 54.2149 61.4298 53.7915 61.568C53.7739 61.6108 53.7558 61.654 53.7388 61.6959C53.5171 62.2405 53.3457 62.6906 53.2153 63.0592C53.6084 62.8872 54.0612 62.6665 54.5591 62.4029C54.7396 61.9859 54.9231 61.5603 55.1069 61.1275C55.0863 61.1279 55.0652 61.1272 55.0444 61.1275ZM50.8774 62.4C50.1622 62.5814 49.4421 62.7519 48.7339 62.9127C49.3921 62.9365 50.0478 62.9629 50.6948 62.9879C50.7456 62.8045 50.8082 62.6089 50.8774 62.4ZM39.3814 61.5416C38.526 61.8202 37.7282 62.0827 37.0093 62.3248C36.8494 62.3786 36.693 62.4315 36.5415 62.483C36.6073 62.4857 36.6746 62.491 36.7417 62.4937C37.7183 62.5335 38.8353 62.5689 40.0435 62.6109C40.3422 62.3603 40.7369 62.1536 41.1714 61.9664L41.2202 61.9449L41.272 61.9293C41.8252 61.752 42.4624 61.5845 43.1528 61.4156C41.8914 61.4548 40.629 61.4952 39.3814 61.5416ZM73.7583 37.4937C73.4434 40.6423 73.0568 43.7245 72.5884 46.0582C72.5213 46.3922 72.4494 46.7328 72.3745 47.0777C74.8413 51.0865 77.2489 55.1503 79.105 58.2515C79.5817 59.0481 80.0215 59.7741 80.4214 60.4361C79.5331 57.5009 78.5847 54.5144 77.6665 51.568C76.1539 46.714 74.7224 41.9606 73.8267 37.8248C73.8028 37.7145 73.7814 37.6032 73.7583 37.4937ZM65.4536 41.3951C65.721 41.5876 65.9343 41.8484 66.0845 42.1431C66.333 42.6311 66.4078 43.1801 66.398 43.6646C66.3779 44.6385 66.0146 45.7225 65.3442 46.6021C64.6816 47.4713 63.9385 48.2221 63.1362 48.8726C63.1686 48.9887 63.2005 49.1048 63.2329 49.2203C63.5468 50.3381 63.8612 51.4206 64.1714 52.4586C64.3961 52.4607 64.607 52.4695 64.8032 52.4898C65.3 52.5413 65.8096 52.661 66.2329 52.943C66.711 53.2617 67.0832 53.7985 67.1362 54.5152C67.1814 55.1279 66.973 55.662 66.7808 56.0318C66.5328 56.5086 66.1609 56.9908 65.7378 57.4547C65.8252 57.667 65.9103 57.8768 65.9937 58.0806C66.2038 58.0981 66.4114 58.1168 66.6157 58.1285C66.71 58.1339 66.8035 58.1375 66.894 58.1422C67.8649 54.8993 68.98 51.0573 69.7837 47.609C69.1156 46.5306 68.4489 45.4612 67.7886 44.4244C67.0361 43.243 66.2945 42.1074 65.5835 41.0426C65.5401 41.1595 65.4973 41.2776 65.4536 41.3951ZM31.0825 27.3531C32.2505 29.1004 34.0591 31.5594 36.7612 34.8443C37.479 33.9403 38.1958 33.0508 38.9028 32.1881C37.8664 31.5375 36.9195 30.9416 36.0952 30.4283C33.9249 29.0767 32.2921 28.07 31.0825 27.3531ZM44.4888 14.8834C44.4489 18.0123 44.426 21.8149 44.5142 25.7721C44.6756 25.6048 44.8356 25.4412 44.9927 25.2828C45.0624 25.0506 45.1492 24.8249 45.2622 24.6265L45.3872 24.4322C45.53 24.2339 45.7275 24.0344 45.9946 23.9019C46.1983 23.8011 46.4038 23.7589 46.5991 23.7584C46.7168 23.6545 46.8329 23.5518 46.9478 23.4547C46.7273 22.3997 46.5777 21.518 46.5259 20.8756C46.4993 20.5458 46.4756 20.0718 46.5874 19.6568C45.807 17.8888 45.0988 16.2777 44.4888 14.8834Z" stroke="black" stroke-width="12" mask="url(#path-1-outside-1_515_2876)"/>
</svg>
