<svg width="82" height="82" viewBox="0 0 82 82" fill="none" xmlns="http://www.w3.org/2000/svg">
<mask id="path-1-outside-1_515_2883" maskUnits="userSpaceOnUse" x="-1" y="-1" width="84" height="84" fill="black">
<rect fill="white" x="-1" y="-1" width="84" height="84"/>
<path fill-rule="evenodd" clip-rule="evenodd" d="M28.4795 6.22963C29.6857 5.75981 30.9913 6.08854 32.0664 6.52162C33.2028 6.97957 34.485 7.72451 35.8564 8.6017C36.5938 9.07337 37.3821 9.6017 38.2129 10.1652C39.3211 9.60599 40.4027 9.15796 41.4316 8.86049C43.0529 8.39184 44.7546 8.23426 46.2715 8.81947C47.8662 9.43517 48.9426 10.7447 49.5127 12.5529C49.7052 13.1646 49.627 13.8079 49.4775 14.4035C49.3217 15.0241 49.0361 15.7853 48.6152 16.7316C48.5828 16.8044 48.5479 16.8786 48.5137 16.9542C56.2836 21.836 62.691 25.7075 67.333 28.5978C69.8796 30.1835 71.9104 31.4849 73.3076 32.4796C74.0004 32.9729 74.5844 33.4227 75.0068 33.8175C75.2157 34.0129 75.4282 34.2349 75.5976 34.4728C75.7375 34.6694 76.0066 35.0903 76 35.6427C75.9956 35.9912 75.87 36.5048 75.3838 36.8908C75.0078 37.1888 74.5903 37.2599 74.3896 37.2853C73.9645 37.339 73.4036 37.3028 72.7412 37.2335C71.5456 37.1084 69.5206 36.811 66.1123 36.2667C65.7839 36.2598 65.4364 36.2507 65.0723 36.2374C63.5767 36.1829 62.0978 36.1371 60.6455 36.0968C61.3618 37.9004 61.4586 39.9616 61.2256 41.9621C63.5541 42.9825 65.5182 43.9113 67.0596 44.7736C68.4099 45.5291 69.5426 46.289 70.3213 47.0773C71.0855 47.8513 71.7518 48.9105 71.5127 50.172C71.3022 51.2805 70.644 52.3026 69.2021 53.4923C67.8089 54.6418 65.553 56.0546 61.9092 57.9572C62.0234 58.3617 61.9612 58.8107 61.6982 59.1847C61.2206 59.8632 60.263 60.0393 59.5605 59.5783C59.4389 59.4983 59.3168 59.4169 59.1953 59.3371C57.4801 60.1913 55.5879 61.1042 53.6191 62.0294C53.7113 62.1276 53.7959 62.2191 53.8691 62.3029C54.0149 62.4697 54.188 62.6808 54.3115 62.9064C54.3686 63.011 54.4846 63.2405 54.5166 63.5421C54.5544 63.9023 54.4697 64.4491 53.9863 64.8605C53.5949 65.1934 53.1632 65.2366 53.0098 65.2462C52.8231 65.2579 52.6645 65.2395 52.584 65.2277C52.2623 65.1801 51.9088 65.0584 51.5762 64.9406C51.2071 64.8098 50.6702 64.6093 49.9287 64.339C49.7041 64.2571 49.4549 64.1709 49.1846 64.0734C43.707 66.5599 38.2146 68.9043 34.6914 70.2091C33.1021 70.7977 31.7672 71.2354 30.7549 71.379C30.256 71.4497 29.6473 71.4793 29.0693 71.2892C28.6423 71.1486 28.2801 70.9029 28.0137 70.5734C27.8984 71.5563 27.7998 72.3913 27.7236 73.0529C27.6296 73.8698 27.5665 74.4829 27.5439 74.671C27.5407 74.6978 27.5357 74.732 27.5312 74.7628C27.5292 74.7766 27.5242 74.8065 27.5176 74.841C27.5145 74.8569 27.5077 74.8968 27.4951 74.9445C27.4888 74.9682 27.4761 75.0144 27.456 75.0695C27.4446 75.1011 27.3913 75.2499 27.2764 75.4132C27.2029 75.509 26.9718 75.7325 26.8057 75.8458C26.5128 75.9799 25.8091 76.0511 25.4326 75.9572C25.1653 75.8232 24.8041 75.5088 24.6963 75.3624C24.6403 75.2679 24.5645 75.1042 24.54 75.0372C24.4989 74.9152 24.4833 74.8144 24.4785 74.7814C24.4721 74.7371 24.4703 74.6999 24.4687 74.6788C24.4638 74.6107 24.4637 74.5523 24.4639 74.5421C24.4644 74.5049 24.4675 74.4662 24.4687 74.4415C24.4739 74.3354 24.4863 74.1282 24.5049 73.838C24.5809 72.6484 24.7671 69.7435 25.0088 64.5949C25.0499 63.7183 25.09 62.7756 25.1338 61.7804C25.0633 61.7667 24.9905 61.7564 24.9189 61.7384C24.1564 61.5466 23.4701 61.131 22.8672 60.629C21.4958 61.5267 20.2315 62.3852 19.083 63.1954C16.9195 64.7217 15.1792 66.0649 13.9062 67.1652C12.5826 68.3093 11.9034 69.0736 11.6914 69.4454C11.6874 69.4524 11.6781 69.4687 11.6719 69.4796C11.6672 69.4877 11.6471 69.5235 11.623 69.5607C11.6176 69.5693 11.5597 69.6579 11.4736 69.7531C11.446 69.7835 11.394 69.8401 11.3203 69.9015C11.2648 69.9477 11.0972 70.0847 10.8389 70.1749C10.548 70.2764 9.95093 70.3678 9.39354 69.965C8.9361 69.6337 8.83064 69.1867 8.80467 69.0568C8.74889 68.7767 8.79611 68.5457 8.79881 68.5314C8.80987 68.4671 8.82209 68.4159 8.82811 68.3937C8.84063 68.3479 8.85405 68.3106 8.85838 68.298C8.87353 68.254 8.92508 68.1226 8.94432 68.0714C9.01606 67.8803 9.15483 67.4944 9.3662 66.8302C9.79054 65.4967 10.5042 63.0401 11.5371 58.7726C12.0063 56.8341 12.5328 54.5479 13.0976 52.0656C12.6134 51.9 12.1542 51.7448 11.7265 51.5958C10.0118 50.9985 8.6841 50.5117 7.8203 50.1007C7.41371 49.9072 6.95384 49.6601 6.61522 49.341C6.44248 49.1779 6.18901 48.8917 6.06737 48.4767C5.925 47.9897 6.01492 47.4958 6.2744 47.0968C6.49598 46.7566 6.79534 46.5519 6.99315 46.4386C7.20534 46.3172 7.4304 46.2278 7.63378 46.1583C8.04035 46.0195 8.53985 45.9027 9.08495 45.797C10.1828 45.5841 11.7214 45.3658 13.6191 45.0949C13.9668 45.0452 14.3288 44.9929 14.7021 44.9396C14.8843 44.1262 15.0709 43.3072 15.2549 42.4865C16.1371 38.5495 17.0332 34.5736 17.8642 31.0119C17.6725 30.8649 17.4909 30.6914 17.3359 30.4865C16.9173 29.9327 16.7768 29.2577 16.9531 28.5792L17.0293 28.3556C17.1175 28.1467 17.2297 27.9891 17.2607 27.9435C17.3476 27.8159 17.454 27.6764 17.5674 27.5343C17.797 27.2464 18.1095 26.8809 18.4863 26.4611C18.6781 26.2474 18.8884 26.0149 19.1172 25.7687C19.1207 25.7545 19.1263 25.7399 19.1299 25.7257C21.4045 16.5571 22.691 13.5321 23.7441 11.6222C24.2143 10.7696 24.7369 9.93765 25.3437 9.45131C25.5599 9.27817 25.8884 9.0718 26.3037 8.9767C26.3049 8.97242 26.3074 8.96729 26.3086 8.96303C26.5985 7.90223 27.1894 6.73238 28.4795 6.22963ZM32.9307 63.3771C32.0402 65.226 31.3865 66.6179 30.9892 67.6515C30.8851 67.9224 30.8041 68.155 30.7432 68.3527C31.3825 68.2062 32.3027 67.9104 33.5898 67.4337C36.4443 66.3766 40.6539 64.6041 45.0928 62.632C44.1244 62.2996 43.0218 61.9256 41.7666 61.506C39.7898 60.8452 37.448 60.0745 34.9355 59.2531C34.1979 60.7607 33.5201 62.1532 32.9307 63.3771ZM31.084 57.9972C30.7321 58.6548 30.4065 59.2554 30.1074 59.7804C29.68 60.5308 29.2871 61.1731 28.957 61.6339C28.833 62.9889 28.7056 64.272 28.581 65.466C28.9973 64.5125 29.5274 63.3964 30.1406 62.1232C30.6947 60.9727 31.3227 59.6825 32.001 58.2951C31.6971 58.196 31.3903 58.097 31.084 57.9972ZM16.0224 53.0538C15.4851 55.4117 14.9826 57.5885 14.5322 59.4494C14.1362 61.0856 13.7793 62.4636 13.4717 63.6222C14.5625 62.7581 15.8325 61.8081 17.2685 60.7951C18.3655 60.0212 19.561 59.2038 20.8506 58.3556C20.6552 58.0774 20.4611 57.7894 20.2754 57.4923C19.5938 56.4021 18.9549 55.1555 18.3799 53.839C17.5639 53.569 16.7752 53.3055 16.0224 53.0538ZM63.3476 46.2228C63.2666 46.6018 63.0709 46.914 62.8447 47.1456C62.3595 47.6421 61.6537 47.8712 61.1094 48.005C60.666 48.114 60.1392 48.1994 59.5342 48.2706C59.0961 49.3514 58.6031 50.3918 58.081 51.3527C57.4892 52.4412 56.6665 53.126 55.6885 53.421C56.8639 54.2047 58.1158 55.031 59.4033 55.8781C59.7155 55.7185 60.0216 55.5657 60.3164 55.4122C63.9913 53.4992 66.0497 52.1831 67.2041 51.2306C68.2859 50.3379 68.4339 49.8761 68.4785 49.6583C68.4645 49.604 68.3968 49.436 68.0947 49.13C67.6196 48.6491 66.7884 48.0564 65.5185 47.3458C64.8796 46.9884 64.1543 46.615 63.3476 46.2228ZM16.6855 50.13C16.7995 50.1682 16.9156 50.2066 17.0312 50.2453C16.9575 50.0125 16.8853 49.778 16.8164 49.5441C16.7723 49.7399 16.7293 49.9357 16.6855 50.13ZM11.6152 48.3917C11.9673 48.5181 12.3512 48.6555 12.7685 48.8009C13.0823 48.9102 13.4144 49.0206 13.7588 49.1388C13.8403 48.7767 13.9224 48.4112 14.0049 48.0441C13.102 48.173 12.307 48.2872 11.6152 48.3917ZM51.2295 25.6925C50.6833 26.9072 49.9052 28.4925 48.9443 30.4718C54.7187 31.3858 60.5408 32.3541 64.7002 33.0285C65.1291 33.098 65.5411 33.1607 65.9336 33.2238C65.605 33.0291 65.244 32.819 64.8515 32.5929C59.9062 29.7436 55.3854 27.2201 51.4609 25.1613C51.3867 25.3332 51.3107 25.5118 51.2295 25.6925ZM25.9424 14.0451C25.3289 15.3561 24.5372 17.4389 23.4228 21.4415C24.2969 20.6106 25.2356 19.7455 26.2168 18.8732C26.0931 17.1194 25.9846 15.4859 25.9424 14.0451ZM30.8828 9.26674C29.97 8.899 29.6545 8.97803 29.6299 8.98744C29.6299 8.98744 29.6264 8.98964 29.623 8.99232C29.6138 8.99986 29.5893 9.02191 29.5547 9.07045C29.4793 9.17655 29.3774 9.37794 29.2832 9.72279C29.1765 10.1135 29.1027 10.6078 29.0566 11.2091C29.1992 11.8084 29.2902 12.5577 29.3564 13.5226C29.4041 14.2175 29.4384 15.0664 29.4619 16.1076C29.9653 15.698 30.4724 15.2922 30.9834 14.8966C32.3955 13.8033 33.8548 12.754 35.3066 11.8312C34.91 11.5675 34.5272 11.3153 34.1582 11.0792C32.817 10.2214 31.7361 9.61067 30.8828 9.26674ZM45.1318 11.5802C44.5317 11.3486 43.619 11.3308 42.3135 11.7081C41.9251 11.8204 41.5209 11.9635 41.1025 12.132C42.5895 13.1445 44.1874 14.2197 45.8974 15.3048C46.2208 14.5576 46.4014 14.0481 46.4883 13.7023C46.536 13.5119 46.5461 13.4054 46.5488 13.3615C46.1796 12.2317 45.6448 11.7786 45.1318 11.5802Z"/>
</mask>
<path fill-rule="evenodd" clip-rule="evenodd" d="M28.4795 6.22963C29.6857 5.75981 30.9913 6.08854 32.0664 6.52162C33.2028 6.97957 34.485 7.72451 35.8564 8.6017C36.5938 9.07337 37.3821 9.6017 38.2129 10.1652C39.3211 9.60599 40.4027 9.15796 41.4316 8.86049C43.0529 8.39184 44.7546 8.23426 46.2715 8.81947C47.8662 9.43517 48.9426 10.7447 49.5127 12.5529C49.7052 13.1646 49.627 13.8079 49.4775 14.4035C49.3217 15.0241 49.0361 15.7853 48.6152 16.7316C48.5828 16.8044 48.5479 16.8786 48.5137 16.9542C56.2836 21.836 62.691 25.7075 67.333 28.5978C69.8796 30.1835 71.9104 31.4849 73.3076 32.4796C74.0004 32.9729 74.5844 33.4227 75.0068 33.8175C75.2157 34.0129 75.4282 34.2349 75.5976 34.4728C75.7375 34.6694 76.0066 35.0903 76 35.6427C75.9956 35.9912 75.87 36.5048 75.3838 36.8908C75.0078 37.1888 74.5903 37.2599 74.3896 37.2853C73.9645 37.339 73.4036 37.3028 72.7412 37.2335C71.5456 37.1084 69.5206 36.811 66.1123 36.2667C65.7839 36.2598 65.4364 36.2507 65.0723 36.2374C63.5767 36.1829 62.0978 36.1371 60.6455 36.0968C61.3618 37.9004 61.4586 39.9616 61.2256 41.9621C63.5541 42.9825 65.5182 43.9113 67.0596 44.7736C68.4099 45.5291 69.5426 46.289 70.3213 47.0773C71.0855 47.8513 71.7518 48.9105 71.5127 50.172C71.3022 51.2805 70.644 52.3026 69.2021 53.4923C67.8089 54.6418 65.553 56.0546 61.9092 57.9572C62.0234 58.3617 61.9612 58.8107 61.6982 59.1847C61.2206 59.8632 60.263 60.0393 59.5605 59.5783C59.4389 59.4983 59.3168 59.4169 59.1953 59.3371C57.4801 60.1913 55.5879 61.1042 53.6191 62.0294C53.7113 62.1276 53.7959 62.2191 53.8691 62.3029C54.0149 62.4697 54.188 62.6808 54.3115 62.9064C54.3686 63.011 54.4846 63.2405 54.5166 63.5421C54.5544 63.9023 54.4697 64.4491 53.9863 64.8605C53.5949 65.1934 53.1632 65.2366 53.0098 65.2462C52.8231 65.2579 52.6645 65.2395 52.584 65.2277C52.2623 65.1801 51.9088 65.0584 51.5762 64.9406C51.2071 64.8098 50.6702 64.6093 49.9287 64.339C49.7041 64.2571 49.4549 64.1709 49.1846 64.0734C43.707 66.5599 38.2146 68.9043 34.6914 70.2091C33.1021 70.7977 31.7672 71.2354 30.7549 71.379C30.256 71.4497 29.6473 71.4793 29.0693 71.2892C28.6423 71.1486 28.2801 70.9029 28.0137 70.5734C27.8984 71.5563 27.7998 72.3913 27.7236 73.0529C27.6296 73.8698 27.5665 74.4829 27.5439 74.671C27.5407 74.6978 27.5357 74.732 27.5312 74.7628C27.5292 74.7766 27.5242 74.8065 27.5176 74.841C27.5145 74.8569 27.5077 74.8968 27.4951 74.9445C27.4888 74.9682 27.4761 75.0144 27.456 75.0695C27.4446 75.1011 27.3913 75.2499 27.2764 75.4132C27.2029 75.509 26.9718 75.7325 26.8057 75.8458C26.5128 75.9799 25.8091 76.0511 25.4326 75.9572C25.1653 75.8232 24.8041 75.5088 24.6963 75.3624C24.6403 75.2679 24.5645 75.1042 24.54 75.0372C24.4989 74.9152 24.4833 74.8144 24.4785 74.7814C24.4721 74.7371 24.4703 74.6999 24.4687 74.6788C24.4638 74.6107 24.4637 74.5523 24.4639 74.5421C24.4644 74.5049 24.4675 74.4662 24.4687 74.4415C24.4739 74.3354 24.4863 74.1282 24.5049 73.838C24.5809 72.6484 24.7671 69.7435 25.0088 64.5949C25.0499 63.7183 25.09 62.7756 25.1338 61.7804C25.0633 61.7667 24.9905 61.7564 24.9189 61.7384C24.1564 61.5466 23.4701 61.131 22.8672 60.629C21.4958 61.5267 20.2315 62.3852 19.083 63.1954C16.9195 64.7217 15.1792 66.0649 13.9062 67.1652C12.5826 68.3093 11.9034 69.0736 11.6914 69.4454C11.6874 69.4524 11.6781 69.4687 11.6719 69.4796C11.6672 69.4877 11.6471 69.5235 11.623 69.5607C11.6176 69.5693 11.5597 69.6579 11.4736 69.7531C11.446 69.7835 11.394 69.8401 11.3203 69.9015C11.2648 69.9477 11.0972 70.0847 10.8389 70.1749C10.548 70.2764 9.95093 70.3678 9.39354 69.965C8.9361 69.6337 8.83064 69.1867 8.80467 69.0568C8.74889 68.7767 8.79611 68.5457 8.79881 68.5314C8.80987 68.4671 8.82209 68.4159 8.82811 68.3937C8.84063 68.3479 8.85405 68.3106 8.85838 68.298C8.87353 68.254 8.92508 68.1226 8.94432 68.0714C9.01606 67.8803 9.15483 67.4944 9.3662 66.8302C9.79054 65.4967 10.5042 63.0401 11.5371 58.7726C12.0063 56.8341 12.5328 54.5479 13.0976 52.0656C12.6134 51.9 12.1542 51.7448 11.7265 51.5958C10.0118 50.9985 8.6841 50.5117 7.8203 50.1007C7.41371 49.9072 6.95384 49.6601 6.61522 49.341C6.44248 49.1779 6.18901 48.8917 6.06737 48.4767C5.925 47.9897 6.01492 47.4958 6.2744 47.0968C6.49598 46.7566 6.79534 46.5519 6.99315 46.4386C7.20534 46.3172 7.4304 46.2278 7.63378 46.1583C8.04035 46.0195 8.53985 45.9027 9.08495 45.797C10.1828 45.5841 11.7214 45.3658 13.6191 45.0949C13.9668 45.0452 14.3288 44.9929 14.7021 44.9396C14.8843 44.1262 15.0709 43.3072 15.2549 42.4865C16.1371 38.5495 17.0332 34.5736 17.8642 31.0119C17.6725 30.8649 17.4909 30.6914 17.3359 30.4865C16.9173 29.9327 16.7768 29.2577 16.9531 28.5792L17.0293 28.3556C17.1175 28.1467 17.2297 27.9891 17.2607 27.9435C17.3476 27.8159 17.454 27.6764 17.5674 27.5343C17.797 27.2464 18.1095 26.8809 18.4863 26.4611C18.6781 26.2474 18.8884 26.0149 19.1172 25.7687C19.1207 25.7545 19.1263 25.7399 19.1299 25.7257C21.4045 16.5571 22.691 13.5321 23.7441 11.6222C24.2143 10.7696 24.7369 9.93765 25.3437 9.45131C25.5599 9.27817 25.8884 9.0718 26.3037 8.9767C26.3049 8.97242 26.3074 8.96729 26.3086 8.96303C26.5985 7.90223 27.1894 6.73238 28.4795 6.22963ZM32.9307 63.3771C32.0402 65.226 31.3865 66.6179 30.9892 67.6515C30.8851 67.9224 30.8041 68.155 30.7432 68.3527C31.3825 68.2062 32.3027 67.9104 33.5898 67.4337C36.4443 66.3766 40.6539 64.6041 45.0928 62.632C44.1244 62.2996 43.0218 61.9256 41.7666 61.506C39.7898 60.8452 37.448 60.0745 34.9355 59.2531C34.1979 60.7607 33.5201 62.1532 32.9307 63.3771ZM31.084 57.9972C30.7321 58.6548 30.4065 59.2554 30.1074 59.7804C29.68 60.5308 29.2871 61.1731 28.957 61.6339C28.833 62.9889 28.7056 64.272 28.581 65.466C28.9973 64.5125 29.5274 63.3964 30.1406 62.1232C30.6947 60.9727 31.3227 59.6825 32.001 58.2951C31.6971 58.196 31.3903 58.097 31.084 57.9972ZM16.0224 53.0538C15.4851 55.4117 14.9826 57.5885 14.5322 59.4494C14.1362 61.0856 13.7793 62.4636 13.4717 63.6222C14.5625 62.7581 15.8325 61.8081 17.2685 60.7951C18.3655 60.0212 19.561 59.2038 20.8506 58.3556C20.6552 58.0774 20.4611 57.7894 20.2754 57.4923C19.5938 56.4021 18.9549 55.1555 18.3799 53.839C17.5639 53.569 16.7752 53.3055 16.0224 53.0538ZM63.3476 46.2228C63.2666 46.6018 63.0709 46.914 62.8447 47.1456C62.3595 47.6421 61.6537 47.8712 61.1094 48.005C60.666 48.114 60.1392 48.1994 59.5342 48.2706C59.0961 49.3514 58.6031 50.3918 58.081 51.3527C57.4892 52.4412 56.6665 53.126 55.6885 53.421C56.8639 54.2047 58.1158 55.031 59.4033 55.8781C59.7155 55.7185 60.0216 55.5657 60.3164 55.4122C63.9913 53.4992 66.0497 52.1831 67.2041 51.2306C68.2859 50.3379 68.4339 49.8761 68.4785 49.6583C68.4645 49.604 68.3968 49.436 68.0947 49.13C67.6196 48.6491 66.7884 48.0564 65.5185 47.3458C64.8796 46.9884 64.1543 46.615 63.3476 46.2228ZM16.6855 50.13C16.7995 50.1682 16.9156 50.2066 17.0312 50.2453C16.9575 50.0125 16.8853 49.778 16.8164 49.5441C16.7723 49.7399 16.7293 49.9357 16.6855 50.13ZM11.6152 48.3917C11.9673 48.5181 12.3512 48.6555 12.7685 48.8009C13.0823 48.9102 13.4144 49.0206 13.7588 49.1388C13.8403 48.7767 13.9224 48.4112 14.0049 48.0441C13.102 48.173 12.307 48.2872 11.6152 48.3917ZM51.2295 25.6925C50.6833 26.9072 49.9052 28.4925 48.9443 30.4718C54.7187 31.3858 60.5408 32.3541 64.7002 33.0285C65.1291 33.098 65.5411 33.1607 65.9336 33.2238C65.605 33.0291 65.244 32.819 64.8515 32.5929C59.9062 29.7436 55.3854 27.2201 51.4609 25.1613C51.3867 25.3332 51.3107 25.5118 51.2295 25.6925ZM25.9424 14.0451C25.3289 15.3561 24.5372 17.4389 23.4228 21.4415C24.2969 20.6106 25.2356 19.7455 26.2168 18.8732C26.0931 17.1194 25.9846 15.4859 25.9424 14.0451ZM30.8828 9.26674C29.97 8.899 29.6545 8.97803 29.6299 8.98744C29.6299 8.98744 29.6264 8.98964 29.623 8.99232C29.6138 8.99986 29.5893 9.02191 29.5547 9.07045C29.4793 9.17655 29.3774 9.37794 29.2832 9.72279C29.1765 10.1135 29.1027 10.6078 29.0566 11.2091C29.1992 11.8084 29.2902 12.5577 29.3564 13.5226C29.4041 14.2175 29.4384 15.0664 29.4619 16.1076C29.9653 15.698 30.4724 15.2922 30.9834 14.8966C32.3955 13.8033 33.8548 12.754 35.3066 11.8312C34.91 11.5675 34.5272 11.3153 34.1582 11.0792C32.817 10.2214 31.7361 9.61067 30.8828 9.26674ZM45.1318 11.5802C44.5317 11.3486 43.619 11.3308 42.3135 11.7081C41.9251 11.8204 41.5209 11.9635 41.1025 12.132C42.5895 13.1445 44.1874 14.2197 45.8974 15.3048C46.2208 14.5576 46.4014 14.0481 46.4883 13.7023C46.536 13.5119 46.5461 13.4054 46.5488 13.3615C46.1796 12.2317 45.6448 11.7786 45.1318 11.5802Z" fill="#FBE300"/>
<path fill-rule="evenodd" clip-rule="evenodd" d="M28.4795 6.22963C29.6857 5.75981 30.9913 6.08854 32.0664 6.52162C33.2028 6.97957 34.485 7.72451 35.8564 8.6017C36.5938 9.07337 37.3821 9.6017 38.2129 10.1652C39.3211 9.60599 40.4027 9.15796 41.4316 8.86049C43.0529 8.39184 44.7546 8.23426 46.2715 8.81947C47.8662 9.43517 48.9426 10.7447 49.5127 12.5529C49.7052 13.1646 49.627 13.8079 49.4775 14.4035C49.3217 15.0241 49.0361 15.7853 48.6152 16.7316C48.5828 16.8044 48.5479 16.8786 48.5137 16.9542C56.2836 21.836 62.691 25.7075 67.333 28.5978C69.8796 30.1835 71.9104 31.4849 73.3076 32.4796C74.0004 32.9729 74.5844 33.4227 75.0068 33.8175C75.2157 34.0129 75.4282 34.2349 75.5976 34.4728C75.7375 34.6694 76.0066 35.0903 76 35.6427C75.9956 35.9912 75.87 36.5048 75.3838 36.8908C75.0078 37.1888 74.5903 37.2599 74.3896 37.2853C73.9645 37.339 73.4036 37.3028 72.7412 37.2335C71.5456 37.1084 69.5206 36.811 66.1123 36.2667C65.7839 36.2598 65.4364 36.2507 65.0723 36.2374C63.5767 36.1829 62.0978 36.1371 60.6455 36.0968C61.3618 37.9004 61.4586 39.9616 61.2256 41.9621C63.5541 42.9825 65.5182 43.9113 67.0596 44.7736C68.4099 45.5291 69.5426 46.289 70.3213 47.0773C71.0855 47.8513 71.7518 48.9105 71.5127 50.172C71.3022 51.2805 70.644 52.3026 69.2021 53.4923C67.8089 54.6418 65.553 56.0546 61.9092 57.9572C62.0234 58.3617 61.9612 58.8107 61.6982 59.1847C61.2206 59.8632 60.263 60.0393 59.5605 59.5783C59.4389 59.4983 59.3168 59.4169 59.1953 59.3371C57.4801 60.1913 55.5879 61.1042 53.6191 62.0294C53.7113 62.1276 53.7959 62.2191 53.8691 62.3029C54.0149 62.4697 54.188 62.6808 54.3115 62.9064C54.3686 63.011 54.4846 63.2405 54.5166 63.5421C54.5544 63.9023 54.4697 64.4491 53.9863 64.8605C53.5949 65.1934 53.1632 65.2366 53.0098 65.2462C52.8231 65.2579 52.6645 65.2395 52.584 65.2277C52.2623 65.1801 51.9088 65.0584 51.5762 64.9406C51.2071 64.8098 50.6702 64.6093 49.9287 64.339C49.7041 64.2571 49.4549 64.1709 49.1846 64.0734C43.707 66.5599 38.2146 68.9043 34.6914 70.2091C33.1021 70.7977 31.7672 71.2354 30.7549 71.379C30.256 71.4497 29.6473 71.4793 29.0693 71.2892C28.6423 71.1486 28.2801 70.9029 28.0137 70.5734C27.8984 71.5563 27.7998 72.3913 27.7236 73.0529C27.6296 73.8698 27.5665 74.4829 27.5439 74.671C27.5407 74.6978 27.5357 74.732 27.5312 74.7628C27.5292 74.7766 27.5242 74.8065 27.5176 74.841C27.5145 74.8569 27.5077 74.8968 27.4951 74.9445C27.4888 74.9682 27.4761 75.0144 27.456 75.0695C27.4446 75.1011 27.3913 75.2499 27.2764 75.4132C27.2029 75.509 26.9718 75.7325 26.8057 75.8458C26.5128 75.9799 25.8091 76.0511 25.4326 75.9572C25.1653 75.8232 24.8041 75.5088 24.6963 75.3624C24.6403 75.2679 24.5645 75.1042 24.54 75.0372C24.4989 74.9152 24.4833 74.8144 24.4785 74.7814C24.4721 74.7371 24.4703 74.6999 24.4687 74.6788C24.4638 74.6107 24.4637 74.5523 24.4639 74.5421C24.4644 74.5049 24.4675 74.4662 24.4687 74.4415C24.4739 74.3354 24.4863 74.1282 24.5049 73.838C24.5809 72.6484 24.7671 69.7435 25.0088 64.5949C25.0499 63.7183 25.09 62.7756 25.1338 61.7804C25.0633 61.7667 24.9905 61.7564 24.9189 61.7384C24.1564 61.5466 23.4701 61.131 22.8672 60.629C21.4958 61.5267 20.2315 62.3852 19.083 63.1954C16.9195 64.7217 15.1792 66.0649 13.9062 67.1652C12.5826 68.3093 11.9034 69.0736 11.6914 69.4454C11.6874 69.4524 11.6781 69.4687 11.6719 69.4796C11.6672 69.4877 11.6471 69.5235 11.623 69.5607C11.6176 69.5693 11.5597 69.6579 11.4736 69.7531C11.446 69.7835 11.394 69.8401 11.3203 69.9015C11.2648 69.9477 11.0972 70.0847 10.8389 70.1749C10.548 70.2764 9.95093 70.3678 9.39354 69.965C8.9361 69.6337 8.83064 69.1867 8.80467 69.0568C8.74889 68.7767 8.79611 68.5457 8.79881 68.5314C8.80987 68.4671 8.82209 68.4159 8.82811 68.3937C8.84063 68.3479 8.85405 68.3106 8.85838 68.298C8.87353 68.254 8.92508 68.1226 8.94432 68.0714C9.01606 67.8803 9.15483 67.4944 9.3662 66.8302C9.79054 65.4967 10.5042 63.0401 11.5371 58.7726C12.0063 56.8341 12.5328 54.5479 13.0976 52.0656C12.6134 51.9 12.1542 51.7448 11.7265 51.5958C10.0118 50.9985 8.6841 50.5117 7.8203 50.1007C7.41371 49.9072 6.95384 49.6601 6.61522 49.341C6.44248 49.1779 6.18901 48.8917 6.06737 48.4767C5.925 47.9897 6.01492 47.4958 6.2744 47.0968C6.49598 46.7566 6.79534 46.5519 6.99315 46.4386C7.20534 46.3172 7.4304 46.2278 7.63378 46.1583C8.04035 46.0195 8.53985 45.9027 9.08495 45.797C10.1828 45.5841 11.7214 45.3658 13.6191 45.0949C13.9668 45.0452 14.3288 44.9929 14.7021 44.9396C14.8843 44.1262 15.0709 43.3072 15.2549 42.4865C16.1371 38.5495 17.0332 34.5736 17.8642 31.0119C17.6725 30.8649 17.4909 30.6914 17.3359 30.4865C16.9173 29.9327 16.7768 29.2577 16.9531 28.5792L17.0293 28.3556C17.1175 28.1467 17.2297 27.9891 17.2607 27.9435C17.3476 27.8159 17.454 27.6764 17.5674 27.5343C17.797 27.2464 18.1095 26.8809 18.4863 26.4611C18.6781 26.2474 18.8884 26.0149 19.1172 25.7687C19.1207 25.7545 19.1263 25.7399 19.1299 25.7257C21.4045 16.5571 22.691 13.5321 23.7441 11.6222C24.2143 10.7696 24.7369 9.93765 25.3437 9.45131C25.5599 9.27817 25.8884 9.0718 26.3037 8.9767C26.3049 8.97242 26.3074 8.96729 26.3086 8.96303C26.5985 7.90223 27.1894 6.73238 28.4795 6.22963ZM32.9307 63.3771C32.0402 65.226 31.3865 66.6179 30.9892 67.6515C30.8851 67.9224 30.8041 68.155 30.7432 68.3527C31.3825 68.2062 32.3027 67.9104 33.5898 67.4337C36.4443 66.3766 40.6539 64.6041 45.0928 62.632C44.1244 62.2996 43.0218 61.9256 41.7666 61.506C39.7898 60.8452 37.448 60.0745 34.9355 59.2531C34.1979 60.7607 33.5201 62.1532 32.9307 63.3771ZM31.084 57.9972C30.7321 58.6548 30.4065 59.2554 30.1074 59.7804C29.68 60.5308 29.2871 61.1731 28.957 61.6339C28.833 62.9889 28.7056 64.272 28.581 65.466C28.9973 64.5125 29.5274 63.3964 30.1406 62.1232C30.6947 60.9727 31.3227 59.6825 32.001 58.2951C31.6971 58.196 31.3903 58.097 31.084 57.9972ZM16.0224 53.0538C15.4851 55.4117 14.9826 57.5885 14.5322 59.4494C14.1362 61.0856 13.7793 62.4636 13.4717 63.6222C14.5625 62.7581 15.8325 61.8081 17.2685 60.7951C18.3655 60.0212 19.561 59.2038 20.8506 58.3556C20.6552 58.0774 20.4611 57.7894 20.2754 57.4923C19.5938 56.4021 18.9549 55.1555 18.3799 53.839C17.5639 53.569 16.7752 53.3055 16.0224 53.0538ZM63.3476 46.2228C63.2666 46.6018 63.0709 46.914 62.8447 47.1456C62.3595 47.6421 61.6537 47.8712 61.1094 48.005C60.666 48.114 60.1392 48.1994 59.5342 48.2706C59.0961 49.3514 58.6031 50.3918 58.081 51.3527C57.4892 52.4412 56.6665 53.126 55.6885 53.421C56.8639 54.2047 58.1158 55.031 59.4033 55.8781C59.7155 55.7185 60.0216 55.5657 60.3164 55.4122C63.9913 53.4992 66.0497 52.1831 67.2041 51.2306C68.2859 50.3379 68.4339 49.8761 68.4785 49.6583C68.4645 49.604 68.3968 49.436 68.0947 49.13C67.6196 48.6491 66.7884 48.0564 65.5185 47.3458C64.8796 46.9884 64.1543 46.615 63.3476 46.2228ZM16.6855 50.13C16.7995 50.1682 16.9156 50.2066 17.0312 50.2453C16.9575 50.0125 16.8853 49.778 16.8164 49.5441C16.7723 49.7399 16.7293 49.9357 16.6855 50.13ZM11.6152 48.3917C11.9673 48.5181 12.3512 48.6555 12.7685 48.8009C13.0823 48.9102 13.4144 49.0206 13.7588 49.1388C13.8403 48.7767 13.9224 48.4112 14.0049 48.0441C13.102 48.173 12.307 48.2872 11.6152 48.3917ZM51.2295 25.6925C50.6833 26.9072 49.9052 28.4925 48.9443 30.4718C54.7187 31.3858 60.5408 32.3541 64.7002 33.0285C65.1291 33.098 65.5411 33.1607 65.9336 33.2238C65.605 33.0291 65.244 32.819 64.8515 32.5929C59.9062 29.7436 55.3854 27.2201 51.4609 25.1613C51.3867 25.3332 51.3107 25.5118 51.2295 25.6925ZM25.9424 14.0451C25.3289 15.3561 24.5372 17.4389 23.4228 21.4415C24.2969 20.6106 25.2356 19.7455 26.2168 18.8732C26.0931 17.1194 25.9846 15.4859 25.9424 14.0451ZM30.8828 9.26674C29.97 8.899 29.6545 8.97803 29.6299 8.98744C29.6299 8.98744 29.6264 8.98964 29.623 8.99232C29.6138 8.99986 29.5893 9.02191 29.5547 9.07045C29.4793 9.17655 29.3774 9.37794 29.2832 9.72279C29.1765 10.1135 29.1027 10.6078 29.0566 11.2091C29.1992 11.8084 29.2902 12.5577 29.3564 13.5226C29.4041 14.2175 29.4384 15.0664 29.4619 16.1076C29.9653 15.698 30.4724 15.2922 30.9834 14.8966C32.3955 13.8033 33.8548 12.754 35.3066 11.8312C34.91 11.5675 34.5272 11.3153 34.1582 11.0792C32.817 10.2214 31.7361 9.61067 30.8828 9.26674ZM45.1318 11.5802C44.5317 11.3486 43.619 11.3308 42.3135 11.7081C41.9251 11.8204 41.5209 11.9635 41.1025 12.132C42.5895 13.1445 44.1874 14.2197 45.8974 15.3048C46.2208 14.5576 46.4014 14.0481 46.4883 13.7023C46.536 13.5119 46.5461 13.4054 46.5488 13.3615C46.1796 12.2317 45.6448 11.7786 45.1318 11.5802Z" stroke="black" stroke-width="12" mask="url(#path-1-outside-1_515_2883)"/>
</svg>
