<svg width="82" height="82" viewBox="0 0 82 82" fill="none" xmlns="http://www.w3.org/2000/svg">
<mask id="path-1-outside-1_515_2880" maskUnits="userSpaceOnUse" x="0" y="-0.998047" width="83" height="83" fill="black">
<rect fill="white" y="-0.998047" width="83" height="83"/>
<path fill-rule="evenodd" clip-rule="evenodd" d="M39.8449 6.46662C41.524 5.70377 43.211 5.94279 44.7756 6.72931C46.2288 7.46013 47.7479 8.737 49.4211 10.3641C53.5043 14.3347 59.4005 21.3338 64.5129 27.8113C68.8927 31.0088 71.4103 34.3316 72.7844 37.4227C73.224 38.4117 73.5382 39.3667 73.7619 40.2703C74.483 41.3626 75.0115 42.2379 75.3635 42.9305C75.6066 43.4088 75.803 43.8711 75.9094 44.2947C75.9921 44.6244 76.1388 45.3648 75.6926 46.0731C75.2431 46.7857 74.5285 47.0193 73.9709 47.074C73.9241 47.3311 73.8808 47.5478 73.8479 47.7069C73.8004 47.9363 73.8003 47.9483 73.8039 47.907C73.7516 48.5064 73.4618 49.0454 72.9875 49.452C72.5534 49.8237 72.0447 50.0183 71.6252 50.1268C70.8957 50.3154 70.0403 50.339 69.1906 50.3026C68.573 50.6764 67.8755 50.811 67.3703 50.866C65.9437 51.0212 63.9612 50.7758 61.8811 50.4354C63.0024 53.6538 64.1833 56.937 65.3791 60.1522C65.8857 60.6948 66.375 61.2137 66.8362 61.7088C70.5979 65.7476 72.6441 67.9887 73.6086 69.0779C73.849 69.3494 74.0322 69.561 74.1604 69.7147C74.2226 69.7893 74.2853 69.8656 74.3381 69.9354C74.3634 69.9689 74.4007 70.0208 74.4387 70.0789C74.4485 70.0933 74.5789 70.2833 74.6545 70.5359C74.6785 70.6164 74.7189 70.7755 74.7209 70.9783C74.7227 71.1652 74.6936 71.5706 74.384 71.9803C74.0225 72.4581 73.4835 72.6778 73.0217 72.7303C72.6318 72.7745 72.3261 72.7014 72.1936 72.6639C71.9246 72.5875 71.7374 72.4743 71.6936 72.4481C71.6197 72.4038 71.5625 72.3621 71.5305 72.3387C71.421 72.2582 71.3237 72.1704 71.2824 72.1326C71.1715 72.031 71.0305 71.8927 70.883 71.7449C70.7146 71.5758 70.5895 71.3844 70.507 71.1834C69.7355 70.3146 68.2794 68.7242 65.8293 66.0819C65.6182 66.2631 65.358 66.4204 65.0363 66.5223C64.3736 66.7318 63.7806 66.6103 63.4768 66.5252C63.1421 66.4313 62.8469 66.2917 62.6281 66.1756C62.1917 65.9438 61.7377 65.6327 61.4006 65.4002C60.1049 64.5068 58.7074 63.6305 57.2434 62.7713C57.088 62.8604 56.9142 62.9347 56.7209 62.9832C56.2624 63.098 55.8716 63.0343 55.6516 62.9774C55.2562 62.8747 54.9952 62.6837 54.9319 62.6375C54.6467 62.4293 54.403 62.1291 54.301 62.0047C54.0408 61.6873 53.667 61.1844 53.1906 60.5262C52.9168 60.3826 52.6408 60.2395 52.3645 60.0975C52.3223 60.1495 52.2779 60.2026 52.2268 60.2528C51.8413 60.6307 51.3859 60.7522 51.135 60.7928C50.6961 60.8636 50.3442 60.7755 50.2922 60.7635C50.1721 60.7357 50.0762 60.7019 50.0246 60.6834C49.7417 60.5816 49.356 60.3741 49.0627 60.2137C48.6995 60.015 48.2275 59.7482 47.6721 59.4266C46.642 58.8299 45.2904 58.0247 43.7346 57.0838C39.8532 59.5849 36.0038 61.9135 33.0764 63.5994C29.2553 67.694 25.1586 71.8197 21.299 75.1951C20.882 75.5598 20.2756 75.9242 19.4826 75.991C18.6631 76.0599 17.9807 75.7843 17.4973 75.452C16.6508 74.8694 16.0846 73.8967 15.674 73.034C14.7942 71.1847 13.9727 68.3467 13.1526 65.1082C12.857 63.9414 12.5591 62.7113 12.2561 61.4373C11.775 62.2647 11.3836 62.9237 11.0588 63.4266C10.8133 63.8066 10.5885 64.1328 10.385 64.3914C10.2343 64.5829 9.9305 64.9582 9.50314 65.2108C9.30244 65.3293 8.66376 65.6675 7.82834 65.4656C6.91427 65.2442 6.55397 64.5838 6.44357 64.3133C6.32626 64.0252 6.30622 63.7603 6.30002 63.6248C6.29278 63.4653 6.29936 63.3109 6.31076 63.1795C6.43599 61.7406 7.31264 58.3215 10.0393 52.1033C9.23375 48.8142 8.36956 45.4942 7.40451 42.3738C6.96431 40.9506 6.49778 39.5688 6.24142 38.5076C6.11137 37.969 6.00554 37.4043 6.00021 36.8758C5.99528 36.3786 6.07266 35.6494 6.59299 35.0115C7.19061 34.2793 8.06765 34.0221 8.83322 33.9959C9.5314 33.9722 10.2552 34.1285 10.9319 34.3338C12.305 34.7507 14.1487 35.5811 16.5403 36.7986C16.751 36.9059 16.9649 37.0213 17.1858 37.1356C17.2349 37.0344 17.2834 36.9326 17.3322 36.8319C17.2708 36.2447 17.3492 35.6028 17.7219 35.0047C17.6153 34.8815 17.5139 34.7595 17.4231 34.6395C16.7189 33.7083 16.5761 32.6057 16.9836 31.5272C16.9209 31.5083 16.859 31.491 16.802 31.4735C16.5404 31.3931 16.1062 31.2604 15.8108 31.1063C14.9573 30.6609 14.2875 30.2864 13.8176 29.9813C13.591 29.8341 13.3448 29.661 13.1389 29.4725C13.038 29.3799 12.8882 29.2309 12.758 29.036C12.6478 28.8707 12.4027 28.4539 12.4612 27.8904C12.5346 27.1875 13.0191 26.7144 13.4768 26.4803C13.8512 26.289 14.2074 26.2474 14.3703 26.2342C14.7192 26.206 15.0582 26.2459 15.2746 26.2781C15.7582 26.3501 16.3762 26.4971 17.05 26.6766C18.0325 26.9383 19.3021 27.3242 20.7805 27.7879C21.2169 27.5177 21.6598 27.2635 22.1067 27.0233C22.1376 26.96 22.1686 26.8957 22.1994 26.8328C22.2512 26.5294 22.2977 26.2857 22.341 26.1131C22.5332 25.348 22.7895 24.6353 23.1653 24.0584C23.362 23.7565 23.6356 23.4303 24.0012 23.161C24.7105 21.7215 25.36 20.4079 25.9465 19.2342C27.4587 16.2079 28.5734 14.0464 29.1692 13.035C29.3077 12.7998 29.4725 12.5332 29.634 12.3328C29.6787 12.2774 29.7513 12.1896 29.8479 12.0985C29.9036 12.0459 30.1515 11.8103 30.5578 11.6619C30.7892 11.5776 31.2015 11.4751 31.7024 11.5711C32.247 11.6757 32.6412 11.9657 32.8791 12.2615C33.2492 12.7226 33.252 13.2019 33.2541 13.2664C33.263 13.5266 33.2091 13.7588 33.1897 13.8406C33.16 13.9656 33.1217 14.1001 33.0803 14.2313C32.9965 14.4966 32.8751 14.8358 32.7238 15.2391C32.5772 15.6301 32.4213 16.0431 32.259 16.4764C32.3612 16.2925 32.4629 16.1104 32.5627 15.9315C33.9291 13.4831 35.0987 11.4498 36.1828 9.91486C37.2325 8.42869 38.3897 7.12823 39.8449 6.46662ZM34.0764 53.1824C31.581 55.7496 29.4087 58.2273 27.7404 60.1278C26.6372 61.3846 25.6948 62.4596 25.049 63.0858C24.8825 63.2473 24.7023 63.4104 24.5217 63.5516C24.3936 63.6517 24.0676 63.9045 23.6223 64.0418C23.3837 64.1153 22.8847 64.225 22.3 64.0496C21.6335 63.8493 21.2512 63.4008 21.0754 63.0252C20.9231 62.6992 20.9059 62.4036 20.9055 62.2518C20.9051 62.0802 20.9267 61.9258 20.9485 61.8084L21.0949 61.1082C21.4568 59.556 22.1093 57.6979 22.9231 55.6912C21.4844 58.0479 20.0398 60.4643 18.6545 62.8553C18.3809 63.3274 18.0534 63.8177 17.6613 64.1776C17.5335 64.2948 17.3152 64.4724 17.0119 64.619C17.8111 67.7489 18.5392 70.1842 19.2395 71.6561C19.2948 71.7723 19.3516 71.8758 19.4006 71.9686C21.964 69.6773 24.6349 67.0671 27.2463 64.369C27.1201 64.0951 27.0897 63.8466 27.0871 63.6893C27.0835 63.4611 27.1272 63.2731 27.1594 63.16C27.2237 62.9345 27.3226 62.7386 27.3918 62.6121C27.6619 62.1189 28.1841 61.4328 28.7737 60.7069C30.0092 59.1857 31.9479 56.9995 34.0764 54.6815C34.2545 54.4874 34.4353 54.2927 34.6164 54.0965C34.4183 53.807 34.2408 53.4996 34.0764 53.1824ZM59.1379 58.9041C58.9628 59.078 58.7687 59.2354 58.5569 59.3738C59.3383 59.8216 60.1044 60.2766 60.8508 60.7361C60.2971 60.144 59.7251 59.5313 59.1379 58.9041ZM55.133 54.6307C55.4501 55.3275 55.7557 55.9853 56.0442 56.5955C56.0571 56.5945 56.0704 56.5949 56.0822 56.5936C56.1724 56.5834 56.2228 56.5654 56.2502 56.5545C56.2544 56.54 56.2625 56.5195 56.2678 56.492C56.2806 56.425 56.2918 56.3311 56.2942 56.2098C56.2962 56.1012 56.2878 55.9795 56.2756 55.8465C55.8986 55.4446 55.5163 55.039 55.133 54.6307ZM19.5754 52.493C19.3016 53.428 19.055 54.3073 18.8401 55.1278C19.0581 54.7679 19.2772 54.4089 19.4953 54.0516C19.4982 53.8622 19.5068 53.6401 19.5188 53.408C19.5321 53.1493 19.5519 52.8416 19.5754 52.493ZM28.0324 53.492C27.8183 53.9669 27.6098 54.4353 27.4094 54.8953C27.8787 54.3738 28.3714 53.8338 28.883 53.2801C28.5852 53.3565 28.3015 53.4286 28.0324 53.492ZM68.7268 44.8035C69.2671 45.4361 69.7752 46.1185 70.0891 46.7713C70.1095 46.6685 70.1341 46.5576 70.1555 46.4373C70.1926 46.2282 70.2245 45.9894 70.257 45.7264C70.2405 45.7168 70.2226 45.7076 70.2063 45.6981C69.7072 45.4065 69.214 45.107 68.7268 44.8035ZM10.0324 37.7654C10.2573 38.6959 10.658 39.867 11.1428 41.4344C11.6566 43.0957 12.139 44.8243 12.6067 46.574C13.6437 44.4317 14.653 42.3572 15.6213 40.3592C15.279 40.1807 14.9489 40.0059 14.6301 39.8436C12.5042 38.7613 11.0295 38.0983 10.0305 37.7547L10.0324 37.7654ZM62.4592 43.866C61.6241 44.0667 60.795 44.2503 59.9738 44.4207C59.9414 44.4667 59.9089 44.5136 59.8752 44.5594C59.9518 44.7882 60.0282 45.0185 60.1057 45.2488C60.7759 45.395 61.4263 45.5347 62.0539 45.6649C63.1262 45.8873 64.1171 46.0752 65.0188 46.2371C64.6229 45.8208 64.1745 45.3813 63.6906 44.9383C63.2925 44.5737 62.8776 44.2131 62.4592 43.866ZM42.886 9.78205C42.1184 9.39625 41.8223 9.48401 41.592 9.58869C41.1377 9.79521 40.4542 10.3813 39.4572 11.7928C38.6247 12.9716 37.7005 14.5362 36.5744 16.534L48.5002 19.0018L55.0822 22.1356C51.956 18.421 48.9353 15.0359 46.5754 12.741C44.9332 11.1441 43.7654 10.2245 42.886 9.78205Z"/>
</mask>
<path fill-rule="evenodd" clip-rule="evenodd" d="M39.8449 6.46662C41.524 5.70377 43.211 5.94279 44.7756 6.72931C46.2288 7.46013 47.7479 8.737 49.4211 10.3641C53.5043 14.3347 59.4005 21.3338 64.5129 27.8113C68.8927 31.0088 71.4103 34.3316 72.7844 37.4227C73.224 38.4117 73.5382 39.3667 73.7619 40.2703C74.483 41.3626 75.0115 42.2379 75.3635 42.9305C75.6066 43.4088 75.803 43.8711 75.9094 44.2947C75.9921 44.6244 76.1388 45.3648 75.6926 46.0731C75.2431 46.7857 74.5285 47.0193 73.9709 47.074C73.9241 47.3311 73.8808 47.5478 73.8479 47.7069C73.8004 47.9363 73.8003 47.9483 73.8039 47.907C73.7516 48.5064 73.4618 49.0454 72.9875 49.452C72.5534 49.8237 72.0447 50.0183 71.6252 50.1268C70.8957 50.3154 70.0403 50.339 69.1906 50.3026C68.573 50.6764 67.8755 50.811 67.3703 50.866C65.9437 51.0212 63.9612 50.7758 61.8811 50.4354C63.0024 53.6538 64.1833 56.937 65.3791 60.1522C65.8857 60.6948 66.375 61.2137 66.8362 61.7088C70.5979 65.7476 72.6441 67.9887 73.6086 69.0779C73.849 69.3494 74.0322 69.561 74.1604 69.7147C74.2226 69.7893 74.2853 69.8656 74.3381 69.9354C74.3634 69.9689 74.4007 70.0208 74.4387 70.0789C74.4485 70.0933 74.5789 70.2833 74.6545 70.5359C74.6785 70.6164 74.7189 70.7755 74.7209 70.9783C74.7227 71.1652 74.6936 71.5706 74.384 71.9803C74.0225 72.4581 73.4835 72.6778 73.0217 72.7303C72.6318 72.7745 72.3261 72.7014 72.1936 72.6639C71.9246 72.5875 71.7374 72.4743 71.6936 72.4481C71.6197 72.4038 71.5625 72.3621 71.5305 72.3387C71.421 72.2582 71.3237 72.1704 71.2824 72.1326C71.1715 72.031 71.0305 71.8927 70.883 71.7449C70.7146 71.5758 70.5895 71.3844 70.507 71.1834C69.7355 70.3146 68.2794 68.7242 65.8293 66.0819C65.6182 66.2631 65.358 66.4204 65.0363 66.5223C64.3736 66.7318 63.7806 66.6103 63.4768 66.5252C63.1421 66.4313 62.8469 66.2917 62.6281 66.1756C62.1917 65.9438 61.7377 65.6327 61.4006 65.4002C60.1049 64.5068 58.7074 63.6305 57.2434 62.7713C57.088 62.8604 56.9142 62.9347 56.7209 62.9832C56.2624 63.098 55.8716 63.0343 55.6516 62.9774C55.2562 62.8747 54.9952 62.6837 54.9319 62.6375C54.6467 62.4293 54.403 62.1291 54.301 62.0047C54.0408 61.6873 53.667 61.1844 53.1906 60.5262C52.9168 60.3826 52.6408 60.2395 52.3645 60.0975C52.3223 60.1495 52.2779 60.2026 52.2268 60.2528C51.8413 60.6307 51.3859 60.7522 51.135 60.7928C50.6961 60.8636 50.3442 60.7755 50.2922 60.7635C50.1721 60.7357 50.0762 60.7019 50.0246 60.6834C49.7417 60.5816 49.356 60.3741 49.0627 60.2137C48.6995 60.015 48.2275 59.7482 47.6721 59.4266C46.642 58.8299 45.2904 58.0247 43.7346 57.0838C39.8532 59.5849 36.0038 61.9135 33.0764 63.5994C29.2553 67.694 25.1586 71.8197 21.299 75.1951C20.882 75.5598 20.2756 75.9242 19.4826 75.991C18.6631 76.0599 17.9807 75.7843 17.4973 75.452C16.6508 74.8694 16.0846 73.8967 15.674 73.034C14.7942 71.1847 13.9727 68.3467 13.1526 65.1082C12.857 63.9414 12.5591 62.7113 12.2561 61.4373C11.775 62.2647 11.3836 62.9237 11.0588 63.4266C10.8133 63.8066 10.5885 64.1328 10.385 64.3914C10.2343 64.5829 9.9305 64.9582 9.50314 65.2108C9.30244 65.3293 8.66376 65.6675 7.82834 65.4656C6.91427 65.2442 6.55397 64.5838 6.44357 64.3133C6.32626 64.0252 6.30622 63.7603 6.30002 63.6248C6.29278 63.4653 6.29936 63.3109 6.31076 63.1795C6.43599 61.7406 7.31264 58.3215 10.0393 52.1033C9.23375 48.8142 8.36956 45.4942 7.40451 42.3738C6.96431 40.9506 6.49778 39.5688 6.24142 38.5076C6.11137 37.969 6.00554 37.4043 6.00021 36.8758C5.99528 36.3786 6.07266 35.6494 6.59299 35.0115C7.19061 34.2793 8.06765 34.0221 8.83322 33.9959C9.5314 33.9722 10.2552 34.1285 10.9319 34.3338C12.305 34.7507 14.1487 35.5811 16.5403 36.7986C16.751 36.9059 16.9649 37.0213 17.1858 37.1356C17.2349 37.0344 17.2834 36.9326 17.3322 36.8319C17.2708 36.2447 17.3492 35.6028 17.7219 35.0047C17.6153 34.8815 17.5139 34.7595 17.4231 34.6395C16.7189 33.7083 16.5761 32.6057 16.9836 31.5272C16.9209 31.5083 16.859 31.491 16.802 31.4735C16.5404 31.3931 16.1062 31.2604 15.8108 31.1063C14.9573 30.6609 14.2875 30.2864 13.8176 29.9813C13.591 29.8341 13.3448 29.661 13.1389 29.4725C13.038 29.3799 12.8882 29.2309 12.758 29.036C12.6478 28.8707 12.4027 28.4539 12.4612 27.8904C12.5346 27.1875 13.0191 26.7144 13.4768 26.4803C13.8512 26.289 14.2074 26.2474 14.3703 26.2342C14.7192 26.206 15.0582 26.2459 15.2746 26.2781C15.7582 26.3501 16.3762 26.4971 17.05 26.6766C18.0325 26.9383 19.3021 27.3242 20.7805 27.7879C21.2169 27.5177 21.6598 27.2635 22.1067 27.0233C22.1376 26.96 22.1686 26.8957 22.1994 26.8328C22.2512 26.5294 22.2977 26.2857 22.341 26.1131C22.5332 25.348 22.7895 24.6353 23.1653 24.0584C23.362 23.7565 23.6356 23.4303 24.0012 23.161C24.7105 21.7215 25.36 20.4079 25.9465 19.2342C27.4587 16.2079 28.5734 14.0464 29.1692 13.035C29.3077 12.7998 29.4725 12.5332 29.634 12.3328C29.6787 12.2774 29.7513 12.1896 29.8479 12.0985C29.9036 12.0459 30.1515 11.8103 30.5578 11.6619C30.7892 11.5776 31.2015 11.4751 31.7024 11.5711C32.247 11.6757 32.6412 11.9657 32.8791 12.2615C33.2492 12.7226 33.252 13.2019 33.2541 13.2664C33.263 13.5266 33.2091 13.7588 33.1897 13.8406C33.16 13.9656 33.1217 14.1001 33.0803 14.2313C32.9965 14.4966 32.8751 14.8358 32.7238 15.2391C32.5772 15.6301 32.4213 16.0431 32.259 16.4764C32.3612 16.2925 32.4629 16.1104 32.5627 15.9315C33.9291 13.4831 35.0987 11.4498 36.1828 9.91486C37.2325 8.42869 38.3897 7.12823 39.8449 6.46662ZM34.0764 53.1824C31.581 55.7496 29.4087 58.2273 27.7404 60.1278C26.6372 61.3846 25.6948 62.4596 25.049 63.0858C24.8825 63.2473 24.7023 63.4104 24.5217 63.5516C24.3936 63.6517 24.0676 63.9045 23.6223 64.0418C23.3837 64.1153 22.8847 64.225 22.3 64.0496C21.6335 63.8493 21.2512 63.4008 21.0754 63.0252C20.9231 62.6992 20.9059 62.4036 20.9055 62.2518C20.9051 62.0802 20.9267 61.9258 20.9485 61.8084L21.0949 61.1082C21.4568 59.556 22.1093 57.6979 22.9231 55.6912C21.4844 58.0479 20.0398 60.4643 18.6545 62.8553C18.3809 63.3274 18.0534 63.8177 17.6613 64.1776C17.5335 64.2948 17.3152 64.4724 17.0119 64.619C17.8111 67.7489 18.5392 70.1842 19.2395 71.6561C19.2948 71.7723 19.3516 71.8758 19.4006 71.9686C21.964 69.6773 24.6349 67.0671 27.2463 64.369C27.1201 64.0951 27.0897 63.8466 27.0871 63.6893C27.0835 63.4611 27.1272 63.2731 27.1594 63.16C27.2237 62.9345 27.3226 62.7386 27.3918 62.6121C27.6619 62.1189 28.1841 61.4328 28.7737 60.7069C30.0092 59.1857 31.9479 56.9995 34.0764 54.6815C34.2545 54.4874 34.4353 54.2927 34.6164 54.0965C34.4183 53.807 34.2408 53.4996 34.0764 53.1824ZM59.1379 58.9041C58.9628 59.078 58.7687 59.2354 58.5569 59.3738C59.3383 59.8216 60.1044 60.2766 60.8508 60.7361C60.2971 60.144 59.7251 59.5313 59.1379 58.9041ZM55.133 54.6307C55.4501 55.3275 55.7557 55.9853 56.0442 56.5955C56.0571 56.5945 56.0704 56.5949 56.0822 56.5936C56.1724 56.5834 56.2228 56.5654 56.2502 56.5545C56.2544 56.54 56.2625 56.5195 56.2678 56.492C56.2806 56.425 56.2918 56.3311 56.2942 56.2098C56.2962 56.1012 56.2878 55.9795 56.2756 55.8465C55.8986 55.4446 55.5163 55.039 55.133 54.6307ZM19.5754 52.493C19.3016 53.428 19.055 54.3073 18.8401 55.1278C19.0581 54.7679 19.2772 54.4089 19.4953 54.0516C19.4982 53.8622 19.5068 53.6401 19.5188 53.408C19.5321 53.1493 19.5519 52.8416 19.5754 52.493ZM28.0324 53.492C27.8183 53.9669 27.6098 54.4353 27.4094 54.8953C27.8787 54.3738 28.3714 53.8338 28.883 53.2801C28.5852 53.3565 28.3015 53.4286 28.0324 53.492ZM68.7268 44.8035C69.2671 45.4361 69.7752 46.1185 70.0891 46.7713C70.1095 46.6685 70.1341 46.5576 70.1555 46.4373C70.1926 46.2282 70.2245 45.9894 70.257 45.7264C70.2405 45.7168 70.2226 45.7076 70.2063 45.6981C69.7072 45.4065 69.214 45.107 68.7268 44.8035ZM10.0324 37.7654C10.2573 38.6959 10.658 39.867 11.1428 41.4344C11.6566 43.0957 12.139 44.8243 12.6067 46.574C13.6437 44.4317 14.653 42.3572 15.6213 40.3592C15.279 40.1807 14.9489 40.0059 14.6301 39.8436C12.5042 38.7613 11.0295 38.0983 10.0305 37.7547L10.0324 37.7654ZM62.4592 43.866C61.6241 44.0667 60.795 44.2503 59.9738 44.4207C59.9414 44.4667 59.9089 44.5136 59.8752 44.5594C59.9518 44.7882 60.0282 45.0185 60.1057 45.2488C60.7759 45.395 61.4263 45.5347 62.0539 45.6649C63.1262 45.8873 64.1171 46.0752 65.0188 46.2371C64.6229 45.8208 64.1745 45.3813 63.6906 44.9383C63.2925 44.5737 62.8776 44.2131 62.4592 43.866ZM42.886 9.78205C42.1184 9.39625 41.8223 9.48401 41.592 9.58869C41.1377 9.79521 40.4542 10.3813 39.4572 11.7928C38.6247 12.9716 37.7005 14.5362 36.5744 16.534L48.5002 19.0018L55.0822 22.1356C51.956 18.421 48.9353 15.0359 46.5754 12.741C44.9332 11.1441 43.7654 10.2245 42.886 9.78205Z" fill="#FBE300"/>
<path fill-rule="evenodd" clip-rule="evenodd" d="M39.8449 6.46662C41.524 5.70377 43.211 5.94279 44.7756 6.72931C46.2288 7.46013 47.7479 8.737 49.4211 10.3641C53.5043 14.3347 59.4005 21.3338 64.5129 27.8113C68.8927 31.0088 71.4103 34.3316 72.7844 37.4227C73.224 38.4117 73.5382 39.3667 73.7619 40.2703C74.483 41.3626 75.0115 42.2379 75.3635 42.9305C75.6066 43.4088 75.803 43.8711 75.9094 44.2947C75.9921 44.6244 76.1388 45.3648 75.6926 46.0731C75.2431 46.7857 74.5285 47.0193 73.9709 47.074C73.9241 47.3311 73.8808 47.5478 73.8479 47.7069C73.8004 47.9363 73.8003 47.9483 73.8039 47.907C73.7516 48.5064 73.4618 49.0454 72.9875 49.452C72.5534 49.8237 72.0447 50.0183 71.6252 50.1268C70.8957 50.3154 70.0403 50.339 69.1906 50.3026C68.573 50.6764 67.8755 50.811 67.3703 50.866C65.9437 51.0212 63.9612 50.7758 61.8811 50.4354C63.0024 53.6538 64.1833 56.937 65.3791 60.1522C65.8857 60.6948 66.375 61.2137 66.8362 61.7088C70.5979 65.7476 72.6441 67.9887 73.6086 69.0779C73.849 69.3494 74.0322 69.561 74.1604 69.7147C74.2226 69.7893 74.2853 69.8656 74.3381 69.9354C74.3634 69.9689 74.4007 70.0208 74.4387 70.0789C74.4485 70.0933 74.5789 70.2833 74.6545 70.5359C74.6785 70.6164 74.7189 70.7755 74.7209 70.9783C74.7227 71.1652 74.6936 71.5706 74.384 71.9803C74.0225 72.4581 73.4835 72.6778 73.0217 72.7303C72.6318 72.7745 72.3261 72.7014 72.1936 72.6639C71.9246 72.5875 71.7374 72.4743 71.6936 72.4481C71.6197 72.4038 71.5625 72.3621 71.5305 72.3387C71.421 72.2582 71.3237 72.1704 71.2824 72.1326C71.1715 72.031 71.0305 71.8927 70.883 71.7449C70.7146 71.5758 70.5895 71.3844 70.507 71.1834C69.7355 70.3146 68.2794 68.7242 65.8293 66.0819C65.6182 66.2631 65.358 66.4204 65.0363 66.5223C64.3736 66.7318 63.7806 66.6103 63.4768 66.5252C63.1421 66.4313 62.8469 66.2917 62.6281 66.1756C62.1917 65.9438 61.7377 65.6327 61.4006 65.4002C60.1049 64.5068 58.7074 63.6305 57.2434 62.7713C57.088 62.8604 56.9142 62.9347 56.7209 62.9832C56.2624 63.098 55.8716 63.0343 55.6516 62.9774C55.2562 62.8747 54.9952 62.6837 54.9319 62.6375C54.6467 62.4293 54.403 62.1291 54.301 62.0047C54.0408 61.6873 53.667 61.1844 53.1906 60.5262C52.9168 60.3826 52.6408 60.2395 52.3645 60.0975C52.3223 60.1495 52.2779 60.2026 52.2268 60.2528C51.8413 60.6307 51.3859 60.7522 51.135 60.7928C50.6961 60.8636 50.3442 60.7755 50.2922 60.7635C50.1721 60.7357 50.0762 60.7019 50.0246 60.6834C49.7417 60.5816 49.356 60.3741 49.0627 60.2137C48.6995 60.015 48.2275 59.7482 47.6721 59.4266C46.642 58.8299 45.2904 58.0247 43.7346 57.0838C39.8532 59.5849 36.0038 61.9135 33.0764 63.5994C29.2553 67.694 25.1586 71.8197 21.299 75.1951C20.882 75.5598 20.2756 75.9242 19.4826 75.991C18.6631 76.0599 17.9807 75.7843 17.4973 75.452C16.6508 74.8694 16.0846 73.8967 15.674 73.034C14.7942 71.1847 13.9727 68.3467 13.1526 65.1082C12.857 63.9414 12.5591 62.7113 12.2561 61.4373C11.775 62.2647 11.3836 62.9237 11.0588 63.4266C10.8133 63.8066 10.5885 64.1328 10.385 64.3914C10.2343 64.5829 9.9305 64.9582 9.50314 65.2108C9.30244 65.3293 8.66376 65.6675 7.82834 65.4656C6.91427 65.2442 6.55397 64.5838 6.44357 64.3133C6.32626 64.0252 6.30622 63.7603 6.30002 63.6248C6.29278 63.4653 6.29936 63.3109 6.31076 63.1795C6.43599 61.7406 7.31264 58.3215 10.0393 52.1033C9.23375 48.8142 8.36956 45.4942 7.40451 42.3738C6.96431 40.9506 6.49778 39.5688 6.24142 38.5076C6.11137 37.969 6.00554 37.4043 6.00021 36.8758C5.99528 36.3786 6.07266 35.6494 6.59299 35.0115C7.19061 34.2793 8.06765 34.0221 8.83322 33.9959C9.5314 33.9722 10.2552 34.1285 10.9319 34.3338C12.305 34.7507 14.1487 35.5811 16.5403 36.7986C16.751 36.9059 16.9649 37.0213 17.1858 37.1356C17.2349 37.0344 17.2834 36.9326 17.3322 36.8319C17.2708 36.2447 17.3492 35.6028 17.7219 35.0047C17.6153 34.8815 17.5139 34.7595 17.4231 34.6395C16.7189 33.7083 16.5761 32.6057 16.9836 31.5272C16.9209 31.5083 16.859 31.491 16.802 31.4735C16.5404 31.3931 16.1062 31.2604 15.8108 31.1063C14.9573 30.6609 14.2875 30.2864 13.8176 29.9813C13.591 29.8341 13.3448 29.661 13.1389 29.4725C13.038 29.3799 12.8882 29.2309 12.758 29.036C12.6478 28.8707 12.4027 28.4539 12.4612 27.8904C12.5346 27.1875 13.0191 26.7144 13.4768 26.4803C13.8512 26.289 14.2074 26.2474 14.3703 26.2342C14.7192 26.206 15.0582 26.2459 15.2746 26.2781C15.7582 26.3501 16.3762 26.4971 17.05 26.6766C18.0325 26.9383 19.3021 27.3242 20.7805 27.7879C21.2169 27.5177 21.6598 27.2635 22.1067 27.0233C22.1376 26.96 22.1686 26.8957 22.1994 26.8328C22.2512 26.5294 22.2977 26.2857 22.341 26.1131C22.5332 25.348 22.7895 24.6353 23.1653 24.0584C23.362 23.7565 23.6356 23.4303 24.0012 23.161C24.7105 21.7215 25.36 20.4079 25.9465 19.2342C27.4587 16.2079 28.5734 14.0464 29.1692 13.035C29.3077 12.7998 29.4725 12.5332 29.634 12.3328C29.6787 12.2774 29.7513 12.1896 29.8479 12.0985C29.9036 12.0459 30.1515 11.8103 30.5578 11.6619C30.7892 11.5776 31.2015 11.4751 31.7024 11.5711C32.247 11.6757 32.6412 11.9657 32.8791 12.2615C33.2492 12.7226 33.252 13.2019 33.2541 13.2664C33.263 13.5266 33.2091 13.7588 33.1897 13.8406C33.16 13.9656 33.1217 14.1001 33.0803 14.2313C32.9965 14.4966 32.8751 14.8358 32.7238 15.2391C32.5772 15.6301 32.4213 16.0431 32.259 16.4764C32.3612 16.2925 32.4629 16.1104 32.5627 15.9315C33.9291 13.4831 35.0987 11.4498 36.1828 9.91486C37.2325 8.42869 38.3897 7.12823 39.8449 6.46662ZM34.0764 53.1824C31.581 55.7496 29.4087 58.2273 27.7404 60.1278C26.6372 61.3846 25.6948 62.4596 25.049 63.0858C24.8825 63.2473 24.7023 63.4104 24.5217 63.5516C24.3936 63.6517 24.0676 63.9045 23.6223 64.0418C23.3837 64.1153 22.8847 64.225 22.3 64.0496C21.6335 63.8493 21.2512 63.4008 21.0754 63.0252C20.9231 62.6992 20.9059 62.4036 20.9055 62.2518C20.9051 62.0802 20.9267 61.9258 20.9485 61.8084L21.0949 61.1082C21.4568 59.556 22.1093 57.6979 22.9231 55.6912C21.4844 58.0479 20.0398 60.4643 18.6545 62.8553C18.3809 63.3274 18.0534 63.8177 17.6613 64.1776C17.5335 64.2948 17.3152 64.4724 17.0119 64.619C17.8111 67.7489 18.5392 70.1842 19.2395 71.6561C19.2948 71.7723 19.3516 71.8758 19.4006 71.9686C21.964 69.6773 24.6349 67.0671 27.2463 64.369C27.1201 64.0951 27.0897 63.8466 27.0871 63.6893C27.0835 63.4611 27.1272 63.2731 27.1594 63.16C27.2237 62.9345 27.3226 62.7386 27.3918 62.6121C27.6619 62.1189 28.1841 61.4328 28.7737 60.7069C30.0092 59.1857 31.9479 56.9995 34.0764 54.6815C34.2545 54.4874 34.4353 54.2927 34.6164 54.0965C34.4183 53.807 34.2408 53.4996 34.0764 53.1824ZM59.1379 58.9041C58.9628 59.078 58.7687 59.2354 58.5569 59.3738C59.3383 59.8216 60.1044 60.2766 60.8508 60.7361C60.2971 60.144 59.7251 59.5313 59.1379 58.9041ZM55.133 54.6307C55.4501 55.3275 55.7557 55.9853 56.0442 56.5955C56.0571 56.5945 56.0704 56.5949 56.0822 56.5936C56.1724 56.5834 56.2228 56.5654 56.2502 56.5545C56.2544 56.54 56.2625 56.5195 56.2678 56.492C56.2806 56.425 56.2918 56.3311 56.2942 56.2098C56.2962 56.1012 56.2878 55.9795 56.2756 55.8465C55.8986 55.4446 55.5163 55.039 55.133 54.6307ZM19.5754 52.493C19.3016 53.428 19.055 54.3073 18.8401 55.1278C19.0581 54.7679 19.2772 54.4089 19.4953 54.0516C19.4982 53.8622 19.5068 53.6401 19.5188 53.408C19.5321 53.1493 19.5519 52.8416 19.5754 52.493ZM28.0324 53.492C27.8183 53.9669 27.6098 54.4353 27.4094 54.8953C27.8787 54.3738 28.3714 53.8338 28.883 53.2801C28.5852 53.3565 28.3015 53.4286 28.0324 53.492ZM68.7268 44.8035C69.2671 45.4361 69.7752 46.1185 70.0891 46.7713C70.1095 46.6685 70.1341 46.5576 70.1555 46.4373C70.1926 46.2282 70.2245 45.9894 70.257 45.7264C70.2405 45.7168 70.2226 45.7076 70.2063 45.6981C69.7072 45.4065 69.214 45.107 68.7268 44.8035ZM10.0324 37.7654C10.2573 38.6959 10.658 39.867 11.1428 41.4344C11.6566 43.0957 12.139 44.8243 12.6067 46.574C13.6437 44.4317 14.653 42.3572 15.6213 40.3592C15.279 40.1807 14.9489 40.0059 14.6301 39.8436C12.5042 38.7613 11.0295 38.0983 10.0305 37.7547L10.0324 37.7654ZM62.4592 43.866C61.6241 44.0667 60.795 44.2503 59.9738 44.4207C59.9414 44.4667 59.9089 44.5136 59.8752 44.5594C59.9518 44.7882 60.0282 45.0185 60.1057 45.2488C60.7759 45.395 61.4263 45.5347 62.0539 45.6649C63.1262 45.8873 64.1171 46.0752 65.0188 46.2371C64.6229 45.8208 64.1745 45.3813 63.6906 44.9383C63.2925 44.5737 62.8776 44.2131 62.4592 43.866ZM42.886 9.78205C42.1184 9.39625 41.8223 9.48401 41.592 9.58869C41.1377 9.79521 40.4542 10.3813 39.4572 11.7928C38.6247 12.9716 37.7005 14.5362 36.5744 16.534L48.5002 19.0018L55.0822 22.1356C51.956 18.421 48.9353 15.0359 46.5754 12.741C44.9332 11.1441 43.7654 10.2245 42.886 9.78205Z" stroke="black" stroke-width="12" mask="url(#path-1-outside-1_515_2880)"/>
</svg>
