<svg width="75" height="75" viewBox="0 0 75 75" fill="none" xmlns="http://www.w3.org/2000/svg">
<path d="M30.4852 16.9558C30.9584 16.8954 31.9372 17.4324 32.1762 18.0552C32.1797 18.2926 32.1146 18.6134 32.0822 18.6989C32.0378 18.8043 31.9866 18.8833 31.9845 18.8868C31.9699 18.9101 31.9569 18.9291 31.9502 18.9388C31.9265 18.9733 31.8997 19.0083 31.8842 19.029C31.7444 19.2146 31.2793 19.8066 30.4255 20.8837C29.0109 22.6683 27.6938 24.6094 26.4252 26.7464C26.3614 27.3489 26.1578 28.0549 25.9085 28.7586C25.6353 29.5297 25.2724 30.4003 24.8662 31.3041C24.0532 33.1126 23.0353 35.1272 22.1431 36.871C21.8422 37.459 21.5586 38.011 21.3014 38.5137C22.0849 38.468 23.073 38.4138 24.22 38.355C24.3574 38.2252 24.4918 38.1528 24.5577 38.1189C24.7523 38.0188 24.9531 37.9686 25.0681 37.9424C25.2078 37.9106 25.3636 37.8842 25.5226 37.8612C25.8419 37.8149 26.2482 37.7724 26.721 37.7317C27.6704 37.6501 28.9679 37.5681 30.5436 37.4765C39.2101 36.9729 46.6208 36.594 51.7562 36.3593C54.3221 36.2421 56.3245 36.1608 57.6328 36.1181C58.2834 36.0969 58.776 36.0842 59.0813 36.0826C59.2116 36.0819 59.3725 36.0829 59.4927 36.094C59.5159 36.0961 59.6127 36.1042 59.725 36.1334C59.7545 36.141 59.9483 36.1884 60.1503 36.3301C60.2207 36.3796 60.3455 36.482 60.4613 36.645C60.8263 36.6439 61.1649 36.6483 61.4744 36.6615C61.4917 36.6623 61.5402 36.6659 61.5709 36.6691C61.647 36.6805 62.0788 36.8385 62.3796 37.0804C62.7079 38.1581 61.913 39.1644 61.7461 39.2196C61.6973 39.2311 61.6257 39.2451 61.6014 39.2488C61.5498 39.256 61.4996 39.2598 61.4935 39.2602C61.4589 39.2627 61.4108 39.2651 61.3602 39.2678C61.2538 39.2736 61.0916 39.2819 60.8815 39.2919C60.4589 39.3121 59.8281 39.3412 59.028 39.377C57.9939 39.4233 56.6732 39.48 55.1471 39.5471C53.2235 39.7166 51.0058 39.9505 48.5468 40.2377C48.1136 40.2883 47.6731 40.3403 47.2265 40.3939C47.6912 40.4439 48.1275 40.4941 48.529 40.5412C48.656 40.5561 48.7803 40.5722 48.901 40.5869C49.0786 40.5871 49.2205 40.5867 49.3225 40.5907C49.3402 40.5914 49.5165 40.5953 49.6817 40.6351C49.7156 40.6433 49.7739 40.6584 49.843 40.6846C49.8607 40.6914 49.8885 40.7044 49.9229 40.7202C50.1206 40.748 50.3029 40.7724 50.4663 40.7989C50.7119 40.8387 50.9376 40.8798 51.1227 40.9233C51.2142 40.9448 51.3161 40.9728 51.4146 41.0058C51.466 41.0231 51.5852 41.063 51.7193 41.1378L51.8564 41.2242L51.9339 41.2838C52.0275 41.361 52.1615 41.4928 52.2665 41.6888C52.4429 42.0185 52.4994 42.4725 52.2843 42.9025C52.1146 43.2415 51.8515 43.4067 51.7473 43.4662C51.622 43.5375 51.5082 43.5762 51.4438 43.5957C51.2224 43.6626 50.9748 43.6805 50.8332 43.6896C50.4807 43.7121 49.9705 43.7153 49.3809 43.7086C48.1869 43.6952 46.4806 43.6419 44.6519 43.5969C43.9712 43.5802 43.2747 43.5671 42.5787 43.555C40.5415 43.6375 38.4375 43.7162 36.8709 43.7645C36.0426 43.79 35.3557 43.808 34.9082 43.814C34.694 43.8169 34.5044 43.8175 34.3801 43.8127C34.3484 43.8115 34.2996 43.8091 34.248 43.8039C34.2234 43.8014 34.1767 43.7954 34.1211 43.7848C34.1074 43.7824 33.9157 43.7508 33.7123 43.635C33.6598 43.6051 33.4727 43.4949 33.3099 43.2745C31.548 43.2846 29.8524 43.2956 28.2508 43.3024C28.1733 43.6808 27.949 43.9196 27.8318 44.0222C27.591 44.2331 27.329 44.3001 27.3062 44.3066C27.1626 44.3482 27.0177 44.3674 26.9394 44.3764C26.5797 44.4179 25.9192 44.4418 25.0668 44.4526C24.9363 44.4542 24.8 44.4529 24.658 44.4539C25.2223 44.7579 25.7876 45.0517 26.3465 45.3349C28.2295 46.2892 30.144 47.1919 31.4322 48.0657C31.6295 48.1995 31.8031 48.3231 31.9337 48.4288C31.992 48.476 32.0881 48.5564 32.1774 48.656C32.2173 48.7005 32.3098 48.8077 32.3882 48.962C32.432 49.0482 32.6141 49.4246 32.4897 49.8938C32.5694 49.9834 32.6489 50.0819 32.7157 50.1909C32.7989 50.3268 32.922 50.5667 32.948 50.8815C32.9781 51.2462 32.869 51.635 32.5938 51.9441C32.568 51.9731 32.5406 51.9997 32.5139 52.0253C33.3951 52.6122 34.2792 53.1859 35.1494 53.7329C36.1375 54.3414 36.8929 54.7897 37.3482 55.0748C37.5823 55.2213 37.797 55.3618 37.969 55.4937C38.097 55.5918 38.3963 55.8237 38.5708 56.1907C38.8786 56.839 38.6032 57.6154 37.9551 57.9236C37.3925 58.1908 36.7338 58.0178 36.3682 57.544C36.2974 57.4915 36.1755 57.4084 35.9683 57.2787C35.5016 56.9866 34.8504 56.6025 33.7859 55.9469L33.7758 55.9406C30.2306 53.713 26.4181 51.0295 23.457 48.7258C22.1118 47.967 20.7181 47.1699 19.4428 46.4229C18.0337 45.5976 16.7137 44.8015 15.7649 44.1847C15.6763 44.1665 15.5733 44.1392 15.4729 44.0997C15.4129 44.0759 15.3048 44.0292 15.1873 43.9473C15.1003 43.8866 14.9276 43.7498 14.7938 43.5144C14.7235 43.4616 14.6579 43.4154 14.6021 43.3697C14.5063 43.2912 14.3819 43.1842 14.2732 43.0599C14.2216 43.0008 14.1309 42.8889 14.0536 42.7375C13.9945 42.6215 13.8173 42.2415 13.9508 41.7599C14.1139 41.1726 14.5831 40.9246 14.8471 40.8433C15.0842 40.7704 15.2891 40.7791 15.3765 40.7849C15.5566 40.797 15.7282 40.8381 15.8513 40.8725C16.0585 40.742 16.3051 40.6687 16.5686 40.6745C16.6814 40.677 16.7994 40.6762 16.9215 40.6783C16.9298 40.6534 16.9369 40.628 16.9469 40.6034C17.8417 38.3871 18.7237 36.3036 19.6104 34.3408C17.8648 36.5444 16.5077 38.2749 16.062 38.8832C15.4595 39.7054 15.0736 40.2171 14.8915 40.4269C14.8654 40.457 14.8262 40.5002 14.7823 40.5437C14.7608 40.5651 14.7235 40.6012 14.6757 40.6402C14.6494 40.6617 14.5234 40.7666 14.3354 40.8433C14.2446 40.8804 14.0127 40.9647 13.7083 40.9335C13.3269 40.8942 12.9531 40.6825 12.7295 40.3165C12.5509 40.0238 12.539 39.7454 12.5391 39.6347C12.5392 39.505 12.5589 39.4024 12.5708 39.3491C12.6094 39.1764 12.6794 39.0406 12.6863 39.0266C12.7539 38.8889 12.8723 38.6996 12.9771 38.5353C13.4524 37.7899 14.5542 36.1703 15.836 34.3332C17.1222 32.4898 18.6065 30.4017 19.8554 28.7142C20.4788 27.8718 21.0516 27.1186 21.5134 26.5433C21.7433 26.2569 21.9548 26.0033 22.1367 25.8006C22.2906 25.6293 22.5065 25.3988 22.7283 25.2446L22.9987 25.063C23.2689 24.8903 23.5359 24.7446 23.7947 24.639C23.8861 24.6017 23.9901 24.5647 24.1032 24.5324C24.2433 24.3574 24.3831 24.1839 24.5209 24.0119C26.6259 21.384 28.4561 19.1078 29.3312 18.0311C29.5485 17.7637 29.7129 17.5638 29.8072 17.4509C29.8307 17.4229 29.8537 17.3962 29.8732 17.3735C29.8828 17.3624 29.8954 17.3477 29.9088 17.3329C29.9126 17.3286 29.9516 17.2849 30.0015 17.2389C30.0189 17.2231 30.0639 17.1843 30.0929 17.1615C30.1473 17.122 30.3409 17.012 30.4852 16.9558Z" fill="black"/>
</svg>
