<svg width="75" height="75" viewBox="0 0 75 75" fill="none" xmlns="http://www.w3.org/2000/svg">
<path fill-rule="evenodd" clip-rule="evenodd" d="M33.8079 17.0541C33.9975 17.0459 34.1568 17.0772 34.2446 17.0972C34.4309 17.1398 34.6198 17.2108 34.779 17.2775C35.1143 17.4179 35.5649 17.6416 36.1247 17.9402C36.2263 17.9944 36.4268 18.1285 36.5945 18.2398C36.8053 18.3797 37.0973 18.5749 37.4552 18.8162C38.1722 19.2995 39.1629 19.9708 40.3167 20.7573C42.3241 22.1255 44.8301 23.8469 47.2687 25.5333C47.3039 25.414 47.3593 25.2881 47.4452 25.1626C47.7699 24.6879 48.2534 24.599 48.4747 24.5875C48.5846 24.5818 48.6833 24.5901 48.7642 24.6027L48.947 24.6433L49.5792 24.8401C52.7124 25.8925 55.4255 27.9422 57.2954 29.743C58.2992 30.7097 59.0963 31.639 59.6136 32.3621C59.8643 32.7125 60.0866 33.067 60.2243 33.3802C60.2827 33.5132 60.387 33.7722 60.3995 34.0772C60.4059 34.2354 60.3937 34.5323 60.2166 34.8415C60.0457 35.1397 59.7824 35.3398 59.4968 35.4432C56.9553 39.0435 54.3506 42.2559 51.7489 45.4014C51.5644 45.6244 51.3796 45.8469 51.1954 46.0692C48.1804 50.0265 45.6858 53.2316 44.1672 55.1451C43.4913 55.9968 43.002 56.6021 42.6793 56.9884C42.5211 57.1779 42.3885 57.3313 42.2896 57.4379C42.2497 57.4808 42.1745 57.5605 42.089 57.6321C42.064 57.653 42.0225 57.6866 41.9697 57.7222C41.9301 57.7489 41.8169 57.8232 41.6561 57.8784C41.5637 57.9101 41.0132 58.0932 40.4716 57.7045C39.9104 57.3014 39.9243 56.698 39.9295 56.5847C39.9378 56.4057 39.9816 56.2697 39.9968 56.2242C40.0176 56.162 40.039 56.1119 40.0527 56.082C40.0802 56.0219 40.1086 55.9709 40.1263 55.9398C40.1636 55.8743 40.2069 55.8057 40.2469 55.7443C40.33 55.6169 40.4448 55.4518 40.5808 55.2593C40.8552 54.8709 41.2483 54.3311 41.7323 53.6775L41.7386 53.6673C43.8026 50.9347 45.887 48.3967 47.9517 45.9054C47.5632 46.1079 47.2272 46.2797 46.9704 46.4082C46.8178 46.4845 46.7011 46.5419 46.6149 46.5872C46.5318 46.6308 46.5156 46.6416 46.5324 46.6303C46.0657 46.9654 45.6965 47.2249 45.4164 47.4098C45.2749 47.5033 45.1461 47.5842 45.0343 47.6498C44.9441 47.7027 44.7932 47.7894 44.6306 47.8478C44.5977 47.8596 44.3237 47.9663 43.9793 47.9215C43.7691 47.894 43.3967 47.7895 43.1148 47.4301C42.8351 47.0734 42.8216 46.6915 42.8418 46.4881C42.8755 46.1511 43.0343 45.9134 43.0539 45.8826C43.106 45.8002 43.1603 45.7318 43.1973 45.6871C43.3359 45.5196 43.5463 45.3129 43.761 45.1107C44.6625 44.2615 46.5567 42.6404 48.6411 40.8933C50.3135 39.4915 52.1319 37.9918 53.7027 36.7064C53.7066 36.6816 53.708 36.6564 53.7116 36.6315C53.642 36.6752 53.5843 36.7069 53.5491 36.7229C53.4527 36.7667 53.3653 36.7925 53.3205 36.8054C53.2214 36.834 53.113 36.8579 53.0171 36.8765C52.6297 36.952 51.9084 37.0562 50.8462 37.1939C48.6958 37.4727 44.9868 37.9089 39.3189 38.551C34.4266 39.1053 28.9098 39.3169 24.4666 39.4257C22.2501 39.48 20.2692 39.5096 18.7918 39.5413C18.0467 39.5572 17.4289 39.5739 16.9574 39.5946C16.7216 39.6049 16.5299 39.6159 16.3823 39.6276C16.3091 39.6334 16.2511 39.639 16.2071 39.6441C16.1854 39.6466 16.1683 39.6487 16.1563 39.6505C16.1479 39.6517 16.1411 39.653 16.1411 39.653C15.4362 39.7895 14.7541 39.3283 14.6176 38.6234C14.4954 37.9911 14.8538 37.379 15.4377 37.1609C15.3729 37.0204 15.3248 36.8545 15.3184 36.6594C15.3013 36.1393 15.5842 35.8078 15.6904 35.6984C15.8148 35.5703 15.9387 35.4959 15.9951 35.4635C16.1911 35.351 16.4132 35.2903 16.4978 35.2668C16.9767 35.1335 17.9603 34.9461 19.2121 34.731C21.7717 34.2912 25.7637 33.6801 29.9624 33.0616C30.9492 32.9162 31.9493 32.7729 32.9446 32.6287C32.9688 32.4229 33.0378 32.1519 33.0995 32.0231C33.2755 31.711 33.527 31.5655 33.5882 31.5305C33.6835 31.4761 33.7664 31.4457 33.8066 31.4315C33.8901 31.4022 33.9615 31.3865 33.9894 31.3807C34.0544 31.3672 34.1153 31.3598 34.1506 31.3553C34.23 31.3454 34.3263 31.3354 34.4248 31.3274C34.8235 31.2952 35.5519 31.2552 36.4637 31.2093C38.3004 31.1169 40.9674 30.9998 43.4499 30.8894C43.7538 30.8759 44.055 30.8608 44.3513 30.8475C43.0292 29.4592 41.9829 28.0108 41.1559 26.865C40.6892 26.2185 40.3105 25.696 39.974 25.2946C39.936 25.2493 39.8977 25.2092 39.8635 25.1702C39.8085 25.1342 39.7543 25.1009 39.7036 25.0673C39.3498 24.8336 38.999 24.596 38.82 24.4351C38.79 24.4082 38.7353 24.3571 38.6778 24.2904C38.6489 24.2569 38.6023 24.2 38.5546 24.1241C38.5286 24.0826 38.481 24.0001 38.4378 23.8854C36.581 22.4746 34.9849 21.2496 33.9983 20.4209C33.6384 20.1186 33.3252 19.8421 33.1033 19.6147C33.0007 19.5096 32.8658 19.3633 32.758 19.1983C32.7089 19.1232 32.6093 18.9614 32.5523 18.7425C32.4968 18.529 32.4237 18.0009 32.824 17.5289C33.1841 17.1043 33.6558 17.0607 33.8079 17.0541ZM48.0228 33.8487C46.1452 33.8916 44.0809 33.9282 42.0839 33.9553C41.7063 34.0077 41.3173 34.0634 40.9185 34.1191C43.2368 34.0927 45.7547 34.0902 48.4925 34.1216C48.3333 34.0333 48.177 33.9417 48.0228 33.8487Z" fill="black"/>
</svg>
